{
  "title" : "",
  "description" : "",
  "author" : "",
  "targetLoudness" : -18.0,
  "shouldApplyLoudnessNormalization" : true,
  "videoFormatFrameRate" : 30,
  "audioFormatSampleRate" : 44100,
  "allowSubFrameEditing" : false,
  "width" : 1920.0,
  "height" : 1080.0,
  "version" : "6.0",
  "editRate" : 705600000,
  "authoringClientName" :  {
    "name" : "Camtasia",
    "platform" : "Windows",
    "version" : "2022.5.0"
  },
  "sourceBin" : [
    {
      "id" : 1,
      "src" : "Untitled Project (Time 0_00_00;00).png",
      "rect" : [0, 0, 1920, 1080],
      "lastMod" : "20230610T181709",
      "loudnessNormalization" : true,
      "sourceTracks" : [
        {
          "range" : [0, 1],
          "type" : 1,
          "editRate" : 10000000,
          "trackRect" : [0, 0, 1920, 1080],
          "sampleRate" : 0,
          "bitDepth" : 32,
          "numChannels" : 0,
          "integratedLUFS" : 100.0,
          "peakLevel" : -1.0,
          "metaData" : ""
        }
      ],
      "metadata" : {
        "timeAdded" : "20230610T181710.279075"
      }
    },
    {
      "id" : 2,
      "src" : "r.shortcutkeys.png",
      "rect" : [0, 0, 801, 363],
      "lastMod" : "20230610T220544",
      "loudnessNormalization" : true,
      "sourceTracks" : [
        {
          "range" : [0, 1],
          "type" : 1,
          "editRate" : 10000000,
          "trackRect" : [0, 0, 801, 363],
          "sampleRate" : 0,
          "bitDepth" : 32,
          "numChannels" : 0,
          "integratedLUFS" : 100.0,
          "peakLevel" : -1.0,
          "metaData" : ""
        }
      ],
      "metadata" : {
        "timeAdded" : "20230612T090453.183956"
      }
    }
  ],
  "timeline" : {
    "id" : 3,
    "sceneTrack" : {
      "scenes" : [
        {
          "csml" : {
            "tracks" : [
              {
                "trackIndex" : 0,
                "medias" : [
                  {
                    "id" : 4,
                    "_type" : "Callout",
                    "def" : {
                      "kind" : "remix",
                      "shape" : "text-rectangle",
                      "style" : "basic",
                      "enable-ligatures" : 1.0,
                      "fill-color-blue" : 1.0,
                      "fill-color-green" : 1.0,
                      "fill-color-opacity" : 1.0,
                      "fill-color-red" : 1.0,
                      "height" : 1094.5,
                      "line-spacing" : 0.0,
                      "stroke-color-blue" : 0.56078431372549,
                      "stroke-color-green" : 0.686274509803922,
                      "stroke-color-opacity" : 1.0,
                      "stroke-color-red" : 0.0196078431372549,
                      "stroke-width" : 2.0,
                      "tail-x" : 0.0,
                      "tail-y" : -20.0,
                      "width" : 1939.1875,
                      "word-wrap" : 1.0,
                      "fill-style" : "solid",
                      "horizontal-alignment" : "center",
                      "resize-behavior" : "resizeText",
                      "stroke-style" : "solid",
                      "text" : "",
                      "vertical-alignment" : "center",
                      "font" : {
                        "color-blue" : 0.266666666666667,
                        "color-green" : 0.231372549019608,
                        "color-opacity" : 1.0,
                        "color-red" : 0.184313725490196,
                        "size" : 64.0,
                        "tracking" : 0.0,
                        "name" : "Montserrat",
                        "weight" : "Regular"
                      },
                      "textAttributes" : {
                        "type" : "textAttributeList",
                        "keyframes" : [
                          {
                            "endTime" : 0,
                            "time" : 0,
                            "value" : [{"name":"underline","rangeEnd":1,"rangeStart":0,"value":0,"valueType":"int"},{"name":"fontItalic","rangeEnd":1,"rangeStart":0,"value":0,"valueType":"int"},{"name":"fontWeight","rangeEnd":1,"rangeStart":0,"value":400,"valueType":"int"},{"name":"strikethrough","rangeEnd":1,"rangeStart":0,"value":0,"valueType":"int"},{"name":"kerning","rangeEnd":1,"rangeStart":0,"value":0,"valueType":"double"},{"name":"fgColor","rangeEnd":1,"rangeStart":0,"value":"(47,59,68,255)","valueType":"color"},{"name":"fontName","rangeEnd":1,"rangeStart":0,"value":"Montserrat","valueType":"string"},{"name":"fontSize","rangeEnd":1,"rangeStart":0,"value":64,"valueType":"double"}],
                            "duration" : 0
                          }
                        ]
                      }
                    },
                    "attributes" : {
                      "ident" : "",
                      "autoRotateText" : true
                    },
                    "parameters" : {
                      "translation0" : 9.6,
                      "translation1" : -7.3,
                      "sourceCrop0" : 0.0,
                      "sourceCrop1" : 0.0,
                      "sourceCrop2" : 0.0,
                      "sourceCrop3" : 0.0,
                      "geometryCrop0" : 0.0,
                      "geometryCrop1" : 0.0,
                      "geometryCrop2" : 0.0,
                      "geometryCrop3" : 0.0
                    },
                    "effects" : [

                    ],
                    "start" : 0,
                    "duration" : 3528000000,
                    "mediaStart" : 0,
                    "mediaDuration" : 3528000000,
                    "scalar" : 1,
                    "metadata" : {
                      "clipSpeedAttribute" : false,
                      "default-HAlign" : "center",
                      "default-LineSpace" : 0.0,
                      "default-VAlign" : "center",
                      "default-anchor0" : 0.0,
                      "default-anchor1" : 0.0,
                      "default-anchor2" : 0.0,
                      "default-height" : 176.0,
                      "default-rotation0" : 0.0,
                      "default-rotation1" : 0.0,
                      "default-rotation2" : 0.0,
                      "default-scale0" : 1.0,
                      "default-scale1" : 1.0,
                      "default-scale2" : 1.0,
                      "default-shear0" : 0.0,
                      "default-shear1" : 0.0,
                      "default-shear2" : 0.0,
                      "default-translation0" : 0.0,
                      "default-translation1" : 0.0,
                      "default-translation2" : 0.0,
                      "default-width" : 376.0
                    },
                    "animationTracks" : {

                    }
                  }
                ]
              },
              {
                "trackIndex" : 1,
                "medias" : [
                  {
                    "id" : 5,
                    "_type" : "Callout",
                    "def" : {
                      "kind" : "TypeWinKey",
                      "shape" : "",
                      "style" : "",
                      "height" : 100.0,
                      "keyStyle" : 3.0,
                      "macStyleKeyText" : 0.0,
                      "separateKeysWithPlus" : 1.0,
                      "showKeyBackg" : 0.0,
                      "width" : 650.0,
                      "filename" : "C:\\Program Files\\TechSmith\\Camtasia 2022\\Media\\Studio\\Keystrokes\\en-US\\Information\\",
                      "keys" : "Ctrl+Shift+C",
                      "name" : "Ctrl+Shift+C"
                    },
                    "attributes" : {
                      "ident" : "",
                      "autoRotateText" : true
                    },
                    "parameters" : {
                      "translation0" : -759.25,
                      "translation1" : 500.0,
                      "scale0" : 0.350000000000001,
                      "scale1" : 0.350000000000001,
                      "sourceCrop0" : 0.0,
                      "sourceCrop1" : 0.0,
                      "sourceCrop2" : 0.0,
                      "sourceCrop3" : 0.0,
                      "geometryCrop0" : 0.0,
                      "geometryCrop1" : 0.0,
                      "geometryCrop2" : 0.0,
                      "geometryCrop3" : 0.0
                    },
                    "effects" : [

                    ],
                    "start" : 0,
                    "duration" : 3528000000,
                    "mediaStart" : 0,
                    "mediaDuration" : 3528000000,
                    "scalar" : 1,
                    "metadata" : {
                      "clipSpeedAttribute" : false,
                      "default-anchor0" : 0.0,
                      "default-anchor1" : 0.0,
                      "default-anchor2" : 0.0,
                      "default-geometryCrop2" : 0.0,
                      "default-geometryCrop3" : 0.0,
                      "default-height" : 100.0,
                      "default-keystroke-key" : "Tab",
                      "default-rotation0" : 0.0,
                      "default-rotation1" : 0.0,
                      "default-rotation2" : 0.0,
                      "default-scale0" : 1.0,
                      "default-scale1" : 1.0,
                      "default-scale2" : 1.0,
                      "default-shear0" : 0.0,
                      "default-shear1" : 0.0,
                      "default-shear2" : 0.0,
                      "default-translation0" : 0.0,
                      "default-translation1" : 0.0,
                      "default-translation2" : 0.0,
                      "default-width" : 150.0
                    },
                    "animationTracks" : {

                    }
                  }
                ]
              },
              {
                "trackIndex" : 2,
                "medias" : [
                  {
                    "id" : 6,
                    "_type" : "Callout",
                    "def" : {
                      "kind" : "TypeWinKey",
                      "shape" : "",
                      "style" : "",
                      "height" : 100.0,
                      "keyStyle" : 3.0,
                      "macStyleKeyText" : 0.0,
                      "separateKeysWithPlus" : 1.0,
                      "showKeyBackg" : 0.0,
                      "width" : 650.0,
                      "filename" : "C:\\Program Files\\TechSmith\\Camtasia 2022\\Media\\Studio\\Keystrokes\\en-US\\Information\\",
                      "keys" : "Ctrl+Shift+D",
                      "name" : "Ctrl+Shift+D"
                    },
                    "attributes" : {
                      "ident" : "",
                      "autoRotateText" : true
                    },
                    "parameters" : {
                      "translation0" : -759.250000000001,
                      "translation1" : 450.0,
                      "scale0" : 0.35,
                      "scale1" : 0.35,
                      "sourceCrop0" : 0.0,
                      "sourceCrop1" : 0.0,
                      "sourceCrop2" : 0.0,
                      "sourceCrop3" : 0.0,
                      "geometryCrop0" : 0.0,
                      "geometryCrop1" : 0.0,
                      "geometryCrop2" : 0.0,
                      "geometryCrop3" : 0.0
                    },
                    "effects" : [

                    ],
                    "start" : 0,
                    "duration" : 3528000000,
                    "mediaStart" : 0,
                    "mediaDuration" : 3528000000,
                    "scalar" : 1,
                    "metadata" : {
                      "clipSpeedAttribute" : false,
                      "default-height" : 100.0,
                      "default-keystroke-key" : "Tab",
                      "default-scale0" : 1.0,
                      "default-scale1" : 1.0,
                      "default-translation0" : 0.0,
                      "default-translation1" : 0.0,
                      "default-translation2" : 0.0,
                      "default-width" : 150.0
                    },
                    "animationTracks" : {

                    }
                  }
                ]
              },
              {
                "trackIndex" : 3,
                "medias" : [
                  {
                    "id" : 7,
                    "_type" : "Callout",
                    "def" : {
                      "kind" : "TypeWinKey",
                      "shape" : "",
                      "style" : "",
                      "height" : 100.0,
                      "keyStyle" : 3.0,
                      "macStyleKeyText" : 0.0,
                      "separateKeysWithPlus" : 1.0,
                      "showKeyBackg" : 0.0,
                      "width" : 650.0,
                      "filename" : "C:\\Program Files\\TechSmith\\Camtasia 2022\\Media\\Studio\\Keystrokes\\en-US\\Information\\",
                      "keys" : "Ctrl+Shift+E",
                      "name" : "Ctrl+Shift+E"
                    },
                    "attributes" : {
                      "ident" : "",
                      "autoRotateText" : true
                    },
                    "parameters" : {
                      "translation0" : -760.0,
                      "translation1" : 400.0,
                      "scale0" : 0.35,
                      "scale1" : 0.35,
                      "sourceCrop0" : 0.0,
                      "sourceCrop1" : 0.0,
                      "sourceCrop2" : 0.0,
                      "sourceCrop3" : 0.0,
                      "geometryCrop0" : 0.0,
                      "geometryCrop1" : 0.0,
                      "geometryCrop2" : 0.0,
                      "geometryCrop3" : 0.0
                    },
                    "effects" : [

                    ],
                    "start" : 0,
                    "duration" : 3528000000,
                    "mediaStart" : 0,
                    "mediaDuration" : 3528000000,
                    "scalar" : 1,
                    "metadata" : {
                      "clipSpeedAttribute" : false,
                      "default-height" : 100.0,
                      "default-keystroke-key" : "Tab",
                      "default-scale0" : 1.0,
                      "default-scale1" : 1.0,
                      "default-translation0" : 0.0,
                      "default-translation1" : 0.0,
                      "default-translation2" : 0.0,
                      "default-width" : 150.0
                    },
                    "animationTracks" : {

                    }
                  }
                ]
              },
              {
                "trackIndex" : 4,
                "medias" : [
                  {
                    "id" : 8,
                    "_type" : "Callout",
                    "def" : {
                      "kind" : "TypeWinKey",
                      "shape" : "",
                      "style" : "",
                      "height" : 100.0,
                      "keyStyle" : 3.0,
                      "macStyleKeyText" : 0.0,
                      "separateKeysWithPlus" : 1.0,
                      "showKeyBackg" : 0.0,
                      "width" : 650.0,
                      "filename" : "C:\\Program Files\\TechSmith\\Camtasia 2022\\Media\\Studio\\Keystrokes\\en-US\\Information\\",
                      "keys" : "Ctrl+Shift+F",
                      "name" : "Ctrl+Shift+F"
                    },
                    "attributes" : {
                      "ident" : "",
                      "autoRotateText" : true
                    },
                    "parameters" : {
                      "translation0" : -759.2,
                      "translation1" : 350.0,
                      "scale0" : 0.35,
                      "scale1" : 0.35,
                      "sourceCrop0" : 0.0,
                      "sourceCrop1" : 0.0,
                      "sourceCrop2" : 0.0,
                      "sourceCrop3" : 0.0,
                      "geometryCrop0" : 0.0,
                      "geometryCrop1" : 0.0,
                      "geometryCrop2" : 0.0,
                      "geometryCrop3" : 0.0
                    },
                    "effects" : [

                    ],
                    "start" : 0,
                    "duration" : 3528000000,
                    "mediaStart" : 0,
                    "mediaDuration" : 3528000000,
                    "scalar" : 1,
                    "metadata" : {
                      "clipSpeedAttribute" : false,
                      "default-anchor0" : 0.0,
                      "default-anchor1" : 0.0,
                      "default-anchor2" : 0.0,
                      "default-geometryCrop2" : 0.0,
                      "default-height" : 100.0,
                      "default-keystroke-key" : "Tab",
                      "default-rotation0" : 0.0,
                      "default-rotation1" : 0.0,
                      "default-rotation2" : 0.0,
                      "default-scale0" : 1.0,
                      "default-scale1" : 1.0,
                      "default-scale2" : 1.0,
                      "default-shear0" : 0.0,
                      "default-shear1" : 0.0,
                      "default-shear2" : 0.0,
                      "default-translation0" : 0.0,
                      "default-translation1" : 0.0,
                      "default-translation2" : 0.0,
                      "default-width" : 150.0
                    },
                    "animationTracks" : {

                    }
                  }
                ]
              },
              {
                "trackIndex" : 5,
                "medias" : [
                  {
                    "id" : 9,
                    "_type" : "Callout",
                    "def" : {
                      "kind" : "TypeWinKey",
                      "shape" : "",
                      "style" : "",
                      "height" : 100.0,
                      "keyStyle" : 3.0,
                      "macStyleKeyText" : 0.0,
                      "separateKeysWithPlus" : 1.0,
                      "showKeyBackg" : 0.0,
                      "width" : 650.0,
                      "filename" : "C:\\Program Files\\TechSmith\\Camtasia 2022\\Media\\Studio\\Keystrokes\\en-US\\Information\\",
                      "keys" : "Ctrl+Shift+K",
                      "name" : "Ctrl+Shift+K"
                    },
                    "attributes" : {
                      "ident" : "",
                      "autoRotateText" : true
                    },
                    "parameters" : {
                      "translation0" : -759.2,
                      "translation1" : 300.0,
                      "scale0" : 0.35,
                      "scale1" : 0.35,
                      "sourceCrop0" : 0.0,
                      "sourceCrop1" : 0.0,
                      "sourceCrop2" : 0.0,
                      "sourceCrop3" : 0.0,
                      "geometryCrop0" : 0.0,
                      "geometryCrop1" : 0.0,
                      "geometryCrop2" : 0.0,
                      "geometryCrop3" : 0.0
                    },
                    "effects" : [

                    ],
                    "start" : 0,
                    "duration" : 3528000000,
                    "mediaStart" : 0,
                    "mediaDuration" : 3528000000,
                    "scalar" : 1,
                    "metadata" : {
                      "clipSpeedAttribute" : false,
                      "default-anchor0" : 0.0,
                      "default-anchor1" : 0.0,
                      "default-anchor2" : 0.0,
                      "default-geometryCrop2" : 0.0,
                      "default-height" : 100.0,
                      "default-keystroke-key" : "Tab",
                      "default-rotation0" : 0.0,
                      "default-rotation1" : 0.0,
                      "default-rotation2" : 0.0,
                      "default-scale0" : 1.0,
                      "default-scale1" : 1.0,
                      "default-scale2" : 1.0,
                      "default-shear0" : 0.0,
                      "default-shear1" : 0.0,
                      "default-shear2" : 0.0,
                      "default-translation0" : 0.0,
                      "default-translation1" : 0.0,
                      "default-translation2" : 0.0,
                      "default-width" : 150.0
                    },
                    "animationTracks" : {

                    }
                  }
                ]
              },
              {
                "trackIndex" : 6,
                "medias" : [
                ]
              },
              {
                "trackIndex" : 7,
                "medias" : [
                  {
                    "id" : 10,
                    "_type" : "Callout",
                    "def" : {
                      "kind" : "TypeWinKey",
                      "shape" : "",
                      "style" : "",
                      "height" : 100.0,
                      "keyStyle" : 3.0,
                      "macStyleKeyText" : 0.0,
                      "separateKeysWithPlus" : 1.0,
                      "showKeyBackg" : 0.0,
                      "width" : 650.0,
                      "filename" : "C:\\Program Files\\TechSmith\\Camtasia 2022\\Media\\Studio\\Keystrokes\\en-US\\Information\\",
                      "keys" : "Ctrl+Shift+R",
                      "name" : "Ctrl+Shift+R"
                    },
                    "attributes" : {
                      "ident" : "",
                      "autoRotateText" : true
                    },
                    "parameters" : {
                      "translation0" : -758.4,
                      "translation1" : 250.0,
                      "scale0" : 0.35,
                      "scale1" : 0.35,
                      "sourceCrop0" : 0.0,
                      "sourceCrop1" : 0.0,
                      "sourceCrop2" : 0.0,
                      "sourceCrop3" : 0.0,
                      "geometryCrop0" : 0.0,
                      "geometryCrop1" : 0.0,
                      "geometryCrop2" : 0.0,
                      "geometryCrop3" : 0.0
                    },
                    "effects" : [

                    ],
                    "start" : 0,
                    "duration" : 3528000000,
                    "mediaStart" : 0,
                    "mediaDuration" : 3528000000,
                    "scalar" : 1,
                    "metadata" : {
                      "clipSpeedAttribute" : false,
                      "default-anchor0" : 0.0,
                      "default-anchor1" : 0.0,
                      "default-anchor2" : 0.0,
                      "default-geometryCrop2" : 0.0,
                      "default-height" : 100.0,
                      "default-keystroke-key" : "Tab",
                      "default-rotation0" : 0.0,
                      "default-rotation1" : 0.0,
                      "default-rotation2" : 0.0,
                      "default-scale0" : 1.0,
                      "default-scale1" : 1.0,
                      "default-scale2" : 1.0,
                      "default-shear0" : 0.0,
                      "default-shear1" : 0.0,
                      "default-shear2" : 0.0,
                      "default-translation0" : 0.0,
                      "default-translation1" : 0.0,
                      "default-translation2" : 0.0,
                      "default-width" : 150.0
                    },
                    "animationTracks" : {

                    }
                  }
                ]
              },
              {
                "trackIndex" : 8,
                "medias" : [
                  {
                    "id" : 11,
                    "_type" : "Callout",
                    "def" : {
                      "kind" : "TypeWinKey",
                      "shape" : "",
                      "style" : "",
                      "height" : 100.0,
                      "keyStyle" : 3.0,
                      "macStyleKeyText" : 0.0,
                      "separateKeysWithPlus" : 1.0,
                      "showKeyBackg" : 0.0,
                      "width" : 650.0,
                      "filename" : "C:\\Program Files\\TechSmith\\Camtasia 2022\\Media\\Studio\\Keystrokes\\en-US\\Information\\",
                      "keys" : "Ctrl+Shift+W",
                      "name" : "Ctrl+Shift+W"
                    },
                    "attributes" : {
                      "ident" : "",
                      "autoRotateText" : true
                    },
                    "parameters" : {
                      "translation0" : -752.4,
                      "translation1" : 200.0,
                      "scale0" : 0.35,
                      "scale1" : 0.35,
                      "anchor0" : 17.1428571428571,
                      "anchor1" : -8.57142857142855,
                      "sourceCrop0" : 0.0,
                      "sourceCrop1" : 0.0,
                      "sourceCrop2" : 0.0,
                      "sourceCrop3" : 0.0,
                      "geometryCrop0" : 0.0,
                      "geometryCrop1" : 0.0,
                      "geometryCrop2" : 0.0,
                      "geometryCrop3" : 0.0
                    },
                    "effects" : [

                    ],
                    "start" : 0,
                    "duration" : 3528000000,
                    "mediaStart" : 0,
                    "mediaDuration" : 3528000000,
                    "scalar" : 1,
                    "metadata" : {
                      "clipSpeedAttribute" : false,
                      "default-anchor0" : 0.0,
                      "default-anchor1" : 0.0,
                      "default-anchor2" : 0.0,
                      "default-geometryCrop2" : 0.0,
                      "default-height" : 100.0,
                      "default-keystroke-key" : "Tab",
                      "default-rotation0" : 0.0,
                      "default-rotation1" : 0.0,
                      "default-rotation2" : 0.0,
                      "default-scale0" : 1.0,
                      "default-scale1" : 1.0,
                      "default-scale2" : 1.0,
                      "default-shear0" : 0.0,
                      "default-shear1" : 0.0,
                      "default-shear2" : 0.0,
                      "default-translation0" : 0.0,
                      "default-translation1" : 0.0,
                      "default-translation2" : 0.0,
                      "default-width" : 150.0
                    },
                    "animationTracks" : {

                    }
                  }
                ]
              },
              {
                "trackIndex" : 9,
                "medias" : [
                  {
                    "id" : 12,
                    "_type" : "Callout",
                    "def" : {
                      "kind" : "TypeWinKey",
                      "shape" : "",
                      "style" : "",
                      "height" : 100.0,
                      "keyStyle" : 3.0,
                      "macStyleKeyText" : 0.0,
                      "separateKeysWithPlus" : 1.0,
                      "showKeyBackg" : 0.0,
                      "width" : 350.0,
                      "filename" : "C:\\Program Files\\TechSmith\\Camtasia 2022\\Media\\Studio\\Keystrokes\\en-US\\Information\\",
                      "keys" : "Alt+L",
                      "name" : "Alt+L"
                    },
                    "attributes" : {
                      "ident" : "",
                      "autoRotateText" : true
                    },
                    "parameters" : {
                      "translation0" : -806.5,
                      "translation1" : 50.65625,
                      "scale0" : 0.35,
                      "scale1" : 0.35,
                      "anchor0" : 17.1428571428571,
                      "anchor1" : -8.57142857142855,
                      "sourceCrop0" : 0.0,
                      "sourceCrop1" : 0.0,
                      "sourceCrop2" : 0.0,
                      "sourceCrop3" : 0.0,
                      "geometryCrop0" : 0.0,
                      "geometryCrop1" : 0.0,
                      "geometryCrop2" : 0.0,
                      "geometryCrop3" : 0.0
                    },
                    "effects" : [

                    ],
                    "start" : 0,
                    "duration" : 3528000000,
                    "mediaStart" : 0,
                    "mediaDuration" : 3528000000,
                    "scalar" : 1,
                    "metadata" : {
                      "clipSpeedAttribute" : false,
                      "default-anchor0" : 0.0,
                      "default-anchor1" : 0.0,
                      "default-anchor2" : 0.0,
                      "default-geometryCrop2" : 0.0,
                      "default-height" : 100.0,
                      "default-keystroke-key" : "Tab",
                      "default-rotation0" : 0.0,
                      "default-rotation1" : 0.0,
                      "default-rotation2" : 0.0,
                      "default-scale0" : 1.0,
                      "default-scale1" : 1.0,
                      "default-scale2" : 1.0,
                      "default-shear0" : 0.0,
                      "default-shear1" : 0.0,
                      "default-shear2" : 0.0,
                      "default-translation0" : 0.0,
                      "default-translation1" : 0.0,
                      "default-translation2" : 0.0,
                      "default-width" : 150.0
                    },
                    "animationTracks" : {

                    }
                  }
                ]
              },
              {
                "trackIndex" : 10,
                "medias" : [
                  {
                    "id" : 13,
                    "_type" : "Callout",
                    "def" : {
                      "kind" : "TypeWinKey",
                      "shape" : "",
                      "style" : "",
                      "height" : 100.0,
                      "keyStyle" : 3.0,
                      "macStyleKeyText" : 0.0,
                      "separateKeysWithPlus" : 1.0,
                      "showKeyBackg" : 0.0,
                      "width" : 350.0,
                      "filename" : "C:\\Program Files\\TechSmith\\Camtasia 2022\\Media\\Studio\\Keystrokes\\en-US\\Information\\",
                      "keys" : "Alt+F",
                      "name" : "Alt+F"
                    },
                    "attributes" : {
                      "ident" : "",
                      "autoRotateText" : true
                    },
                    "parameters" : {
                      "translation0" : -806.5,
                      "translation1" : 150.222794117647,
                      "scale0" : 0.35,
                      "scale1" : 0.35,
                      "anchor0" : 17.1428571428571,
                      "anchor1" : -8.57142857142855,
                      "sourceCrop0" : 0.0,
                      "sourceCrop1" : 0.0,
                      "sourceCrop2" : 0.0,
                      "sourceCrop3" : 0.0,
                      "geometryCrop0" : 0.0,
                      "geometryCrop1" : 0.0,
                      "geometryCrop2" : 0.0,
                      "geometryCrop3" : 0.0
                    },
                    "effects" : [

                    ],
                    "start" : 0,
                    "duration" : 3528000000,
                    "mediaStart" : 0,
                    "mediaDuration" : 3528000000,
                    "scalar" : 1,
                    "metadata" : {
                      "clipSpeedAttribute" : false,
                      "default-anchor0" : 0.0,
                      "default-anchor1" : 0.0,
                      "default-anchor2" : 0.0,
                      "default-geometryCrop2" : 0.0,
                      "default-height" : 100.0,
                      "default-keystroke-key" : "Tab",
                      "default-rotation0" : 0.0,
                      "default-rotation1" : 0.0,
                      "default-rotation2" : 0.0,
                      "default-scale0" : 1.0,
                      "default-scale1" : 1.0,
                      "default-scale2" : 1.0,
                      "default-shear0" : 0.0,
                      "default-shear1" : 0.0,
                      "default-shear2" : 0.0,
                      "default-translation0" : 0.0,
                      "default-translation1" : 0.0,
                      "default-translation2" : 0.0,
                      "default-width" : 150.0
                    },
                    "animationTracks" : {

                    }
                  }
                ]
              },
              {
                "trackIndex" : 11,
                "medias" : [
                  {
                    "id" : 14,
                    "_type" : "Callout",
                    "def" : {
                      "kind" : "TypeWinKey",
                      "shape" : "",
                      "style" : "",
                      "height" : {
                        "type" : "double",
                        "defaultValue" : 100.0,
                        "interp" : "linr"
                      },
                      "keyStyle" : {
                        "type" : "double",
                        "defaultValue" : 3.0,
                        "interp" : "linr"
                      },
                      "macStyleKeyText" : {
                        "type" : "double",
                        "defaultValue" : 0.0,
                        "interp" : "linr"
                      },
                      "separateKeysWithPlus" : {
                        "type" : "double",
                        "defaultValue" : 1.0,
                        "interp" : "linr"
                      },
                      "showKeyBackg" : {
                        "type" : "double",
                        "defaultValue" : 0.0,
                        "interp" : "linr"
                      },
                      "width" : {
                        "type" : "double",
                        "defaultValue" : 350.0,
                        "interp" : "linr"
                      },
                      "filename" : "C:\\Program Files\\TechSmith\\Camtasia 2022\\Media\\Studio\\Keystrokes\\en-US\\Information\\",
                      "keys" : "Alt+F",
                      "name" : "Alt+F"
                    },
                    "attributes" : {
                      "ident" : "",
                      "autoRotateText" : true
                    },
                    "parameters" : {
                      "translation0" : {
                        "type" : "double",
                        "defaultValue" : -806.5,
                        "interp" : "eioe"
                      },
                      "translation1" : {
                        "type" : "double",
                        "defaultValue" : 100.65625,
                        "interp" : "eioe"
                      },
                      "scale0" : {
                        "type" : "double",
                        "defaultValue" : 0.35,
                        "interp" : "eioe"
                      },
                      "scale1" : {
                        "type" : "double",
                        "defaultValue" : 0.35,
                        "interp" : "eioe"
                      },
                      "anchor0" : {
                        "type" : "double",
                        "defaultValue" : 17.1428571428571,
                        "interp" : "eioe"
                      },
                      "anchor1" : {
                        "type" : "double",
                        "defaultValue" : -8.57142857142855,
                        "interp" : "eioe"
                      },
                      "sourceCrop0" : {
                        "type" : "double",
                        "defaultValue" : 0.0,
                        "interp" : "eioe"
                      },
                      "sourceCrop1" : {
                        "type" : "double",
                        "defaultValue" : 0.0,
                        "interp" : "eioe"
                      },
                      "sourceCrop2" : {
                        "type" : "double",
                        "defaultValue" : 0.0,
                        "interp" : "eioe"
                      },
                      "sourceCrop3" : {
                        "type" : "double",
                        "defaultValue" : 0.0,
                        "interp" : "eioe"
                      },
                      "geometryCrop0" : {
                        "type" : "double",
                        "defaultValue" : 0.0,
                        "interp" : "eioe"
                      },
                      "geometryCrop1" : {
                        "type" : "double",
                        "defaultValue" : 0.0,
                        "interp" : "eioe"
                      },
                      "geometryCrop2" : {
                        "type" : "double",
                        "defaultValue" : 0.0,
                        "interp" : "eioe"
                      },
                      "geometryCrop3" : {
                        "type" : "double",
                        "defaultValue" : 0.0,
                        "interp" : "eioe"
                      }
                    },
                    "effects" : [

                    ],
                    "start" : 0,
                    "duration" : 3528000000,
                    "mediaStart" : 0,
                    "mediaDuration" : 3528000000,
                    "scalar" : 1,
                    "metadata" : {
                      "clipSpeedAttribute" : false,
                      "default-anchor0" : 0.0,
                      "default-anchor1" : 0.0,
                      "default-anchor2" : 0.0,
                      "default-geometryCrop2" : 0.0,
                      "default-height" : 100.0,
                      "default-keystroke-key" : "Tab",
                      "default-rotation0" : 0.0,
                      "default-rotation1" : 0.0,
                      "default-rotation2" : 0.0,
                      "default-scale0" : 1.0,
                      "default-scale1" : 1.0,
                      "default-scale2" : 1.0,
                      "default-shear0" : 0.0,
                      "default-shear1" : 0.0,
                      "default-shear2" : 0.0,
                      "default-translation0" : 0.0,
                      "default-translation1" : 0.0,
                      "default-translation2" : 0.0,
                      "default-width" : 150.0
                    },
                    "animationTracks" : {

                    }
                  }
                ]
              },
              {
                "trackIndex" : 12,
                "medias" : [
                  {
                    "id" : 15,
                    "_type" : "Callout",
                    "def" : {
                      "kind" : "TypeWinKey",
                      "shape" : "",
                      "style" : "",
                      "height" : 100.0,
                      "keyStyle" : 3.0,
                      "macStyleKeyText" : 0.0,
                      "separateKeysWithPlus" : 1.0,
                      "showKeyBackg" : 0.0,
                      "width" : 350.0,
                      "filename" : "C:\\Program Files\\TechSmith\\Camtasia 2022\\Media\\Studio\\Keystrokes\\en-US\\Information\\",
                      "keys" : "Ctrl+Delete",
                      "name" : "Ctrl+Delete"
                    },
                    "attributes" : {
                      "ident" : "",
                      "autoRotateText" : true
                    },
                    "parameters" : {
                      "translation0" : -110.916666666668,
                      "translation1" : 100.0,
                      "scale0" : 0.35,
                      "scale1" : 0.35,
                      "anchor0" : 17.1428571428571,
                      "anchor1" : -8.57142857142855,
                      "sourceCrop0" : 0.0,
                      "sourceCrop1" : 0.0,
                      "sourceCrop2" : 0.0,
                      "sourceCrop3" : 0.0,
                      "geometryCrop0" : 0.0,
                      "geometryCrop1" : 0.0,
                      "geometryCrop2" : 0.0,
                      "geometryCrop3" : 0.0
                    },
                    "effects" : [

                    ],
                    "start" : 0,
                    "duration" : 3528000000,
                    "mediaStart" : 0,
                    "mediaDuration" : 3528000000,
                    "scalar" : 1,
                    "metadata" : {
                      "clipSpeedAttribute" : false,
                      "default-anchor0" : 0.0,
                      "default-anchor1" : 0.0,
                      "default-anchor2" : 0.0,
                      "default-callout-keyStyle" : 3,
                      "default-callout-shape" : "",
                      "default-callout-type" : "TypeWinKey",
                      "default-geometryCrop2" : 0.0,
                      "default-height" : 100.0,
                      "default-keystroke-key" : "Tab",
                      "default-rotation0" : 0.0,
                      "default-rotation1" : 0.0,
                      "default-rotation2" : 0.0,
                      "default-scale0" : 1.0,
                      "default-scale1" : 1.0,
                      "default-scale2" : 1.0,
                      "default-shear0" : 0.0,
                      "default-shear1" : 0.0,
                      "default-shear2" : 0.0,
                      "default-translation0" : 0.0,
                      "default-translation1" : 0.0,
                      "default-translation2" : 0.0,
                      "default-width" : 150.0
                    },
                    "animationTracks" : {

                    }
                  }
                ]
              },
              {
                "trackIndex" : 13,
                "medias" : [
                  {
                    "id" : 16,
                    "_type" : "Callout",
                    "def" : {
                      "kind" : "TypeWinKey",
                      "shape" : "",
                      "style" : "",
                      "height" : 100.0,
                      "keyStyle" : 3.0,
                      "macStyleKeyText" : 0.0,
                      "separateKeysWithPlus" : 1.0,
                      "showKeyBackg" : 0.0,
                      "width" : 350.0,
                      "filename" : "C:\\Program Files\\TechSmith\\Camtasia 2022\\Media\\Studio\\Keystrokes\\en-US\\Information\\",
                      "keys" : "Alt+C",
                      "name" : "Alt+C"
                    },
                    "attributes" : {
                      "ident" : "",
                      "autoRotateText" : true
                    },
                    "parameters" : {
                      "translation0" : -806.5,
                      "translation1" : 0.656250000000014,
                      "scale0" : 0.35,
                      "scale1" : 0.35,
                      "anchor0" : 17.1428571428571,
                      "anchor1" : -8.57142857142855,
                      "sourceCrop0" : 0.0,
                      "sourceCrop1" : 0.0,
                      "sourceCrop2" : 0.0,
                      "sourceCrop3" : 0.0,
                      "geometryCrop0" : 0.0,
                      "geometryCrop1" : 0.0,
                      "geometryCrop2" : 0.0,
                      "geometryCrop3" : 0.0
                    },
                    "effects" : [

                    ],
                    "start" : 0,
                    "duration" : 3528000000,
                    "mediaStart" : 0,
                    "mediaDuration" : 3528000000,
                    "scalar" : 1,
                    "metadata" : {
                      "clipSpeedAttribute" : false,
                      "default-anchor0" : 0.0,
                      "default-anchor1" : 0.0,
                      "default-anchor2" : 0.0,
                      "default-geometryCrop2" : 0.0,
                      "default-height" : 100.0,
                      "default-keystroke-key" : "Tab",
                      "default-rotation0" : 0.0,
                      "default-rotation1" : 0.0,
                      "default-rotation2" : 0.0,
                      "default-scale0" : 1.0,
                      "default-scale1" : 1.0,
                      "default-scale2" : 1.0,
                      "default-shear0" : 0.0,
                      "default-shear1" : 0.0,
                      "default-shear2" : 0.0,
                      "default-translation0" : 0.0,
                      "default-translation1" : 0.0,
                      "default-translation2" : 0.0,
                      "default-width" : 150.0
                    },
                    "animationTracks" : {

                    }
                  }
                ]
              },
              {
                "trackIndex" : 14,
                "medias" : [
                  {
                    "id" : 17,
                    "_type" : "Callout",
                    "def" : {
                      "kind" : "TypeWinKey",
                      "shape" : "",
                      "style" : "",
                      "height" : 100.0,
                      "keyStyle" : 3.0,
                      "macStyleKeyText" : 0.0,
                      "separateKeysWithPlus" : 1.0,
                      "showKeyBackg" : 0.0,
                      "width" : 350.0,
                      "filename" : "C:\\Program Files\\TechSmith\\Camtasia 2022\\Media\\Studio\\Keystrokes\\en-US\\Information\\",
                      "keys" : "Ctrl+Delete",
                      "name" : "Ctrl+Delete"
                    },
                    "attributes" : {
                      "ident" : "",
                      "autoRotateText" : true
                    },
                    "parameters" : {
                      "translation0" : -110.916666666668,
                      "translation1" : 50.0,
                      "scale0" : 0.35,
                      "scale1" : 0.35,
                      "anchor0" : 17.1428571428571,
                      "anchor1" : -8.57142857142855,
                      "sourceCrop0" : 0.0,
                      "sourceCrop1" : 0.0,
                      "sourceCrop2" : 0.0,
                      "sourceCrop3" : 0.0,
                      "geometryCrop0" : 0.0,
                      "geometryCrop1" : 0.0,
                      "geometryCrop2" : 0.0,
                      "geometryCrop3" : 0.0
                    },
                    "effects" : [

                    ],
                    "start" : 0,
                    "duration" : 3528000000,
                    "mediaStart" : 0,
                    "mediaDuration" : 3528000000,
                    "scalar" : 1,
                    "metadata" : {
                      "clipSpeedAttribute" : false,
                      "default-anchor0" : 0.0,
                      "default-anchor1" : 0.0,
                      "default-anchor2" : 0.0,
                      "default-geometryCrop2" : 0.0,
                      "default-height" : 100.0,
                      "default-keystroke-key" : "Tab",
                      "default-rotation0" : 0.0,
                      "default-rotation1" : 0.0,
                      "default-rotation2" : 0.0,
                      "default-scale0" : 1.0,
                      "default-scale1" : 1.0,
                      "default-scale2" : 1.0,
                      "default-shear0" : 0.0,
                      "default-shear1" : 0.0,
                      "default-shear2" : 0.0,
                      "default-translation0" : 0.0,
                      "default-translation1" : 0.0,
                      "default-translation2" : 0.0,
                      "default-width" : 150.0
                    },
                    "animationTracks" : {

                    }
                  }
                ]
              },
              {
                "trackIndex" : 15,
                "medias" : [
                  {
                    "id" : 18,
                    "_type" : "Callout",
                    "def" : {
                      "kind" : "TypeWinKey",
                      "shape" : "",
                      "style" : "",
                      "height" : 100.0,
                      "keyStyle" : 3.0,
                      "macStyleKeyText" : 0.0,
                      "separateKeysWithPlus" : 1.0,
                      "showKeyBackg" : 0.0,
                      "width" : 350.0,
                      "filename" : "C:\\Program Files\\TechSmith\\Camtasia 2022\\Media\\Studio\\Keystrokes\\en-US\\Information\\",
                      "keys" : "Alt+R",
                      "name" : "Alt+R"
                    },
                    "attributes" : {
                      "ident" : "",
                      "autoRotateText" : true
                    },
                    "parameters" : {
                      "translation0" : -806.5,
                      "translation1" : -49.34375,
                      "scale0" : 0.35,
                      "scale1" : 0.35,
                      "anchor0" : 17.1428571428571,
                      "anchor1" : -8.57142857142855,
                      "sourceCrop0" : 0.0,
                      "sourceCrop1" : 0.0,
                      "sourceCrop2" : 0.0,
                      "sourceCrop3" : 0.0,
                      "geometryCrop0" : 0.0,
                      "geometryCrop1" : 0.0,
                      "geometryCrop2" : 0.0,
                      "geometryCrop3" : 0.0
                    },
                    "effects" : [

                    ],
                    "start" : 0,
                    "duration" : 3528000000,
                    "mediaStart" : 0,
                    "mediaDuration" : 3528000000,
                    "scalar" : 1,
                    "metadata" : {
                      "clipSpeedAttribute" : false,
                      "default-anchor0" : 0.0,
                      "default-anchor1" : 0.0,
                      "default-anchor2" : 0.0,
                      "default-geometryCrop2" : 0.0,
                      "default-height" : 100.0,
                      "default-keystroke-key" : "Tab",
                      "default-rotation0" : 0.0,
                      "default-rotation1" : 0.0,
                      "default-rotation2" : 0.0,
                      "default-scale0" : 1.0,
                      "default-scale1" : 1.0,
                      "default-scale2" : 1.0,
                      "default-shear0" : 0.0,
                      "default-shear1" : 0.0,
                      "default-shear2" : 0.0,
                      "default-translation0" : 0.0,
                      "default-translation1" : 0.0,
                      "default-translation2" : 0.0,
                      "default-width" : 150.0
                    },
                    "animationTracks" : {

                    }
                  }
                ]
              },
              {
                "trackIndex" : 16,
                "medias" : [
                  {
                    "id" : 19,
                    "_type" : "Callout",
                    "def" : {
                      "kind" : "TypeWinKey",
                      "shape" : "",
                      "style" : "",
                      "height" : 100.0,
                      "keyStyle" : 3.0,
                      "macStyleKeyText" : 0.0,
                      "separateKeysWithPlus" : 1.0,
                      "showKeyBackg" : 0.0,
                      "width" : 350.0,
                      "filename" : "C:\\Program Files\\TechSmith\\Camtasia 2022\\Media\\Studio\\Keystrokes\\en-US\\Information\\",
                      "keys" : "Ctrl+Delete",
                      "name" : "Ctrl+Delete"
                    },
                    "attributes" : {
                      "ident" : "",
                      "autoRotateText" : true
                    },
                    "parameters" : {
                      "translation0" : -110.916666666668,
                      "translation1" : 1.4210854715202e-14,
                      "scale0" : 0.35,
                      "scale1" : 0.35,
                      "anchor0" : 17.1428571428571,
                      "anchor1" : -8.57142857142855,
                      "sourceCrop0" : 0.0,
                      "sourceCrop1" : 0.0,
                      "sourceCrop2" : 0.0,
                      "sourceCrop3" : 0.0,
                      "geometryCrop0" : 0.0,
                      "geometryCrop1" : 0.0,
                      "geometryCrop2" : 0.0,
                      "geometryCrop3" : 0.0
                    },
                    "effects" : [

                    ],
                    "start" : 0,
                    "duration" : 3528000000,
                    "mediaStart" : 0,
                    "mediaDuration" : 3528000000,
                    "scalar" : 1,
                    "metadata" : {
                      "clipSpeedAttribute" : false,
                      "default-anchor0" : 0.0,
                      "default-anchor1" : 0.0,
                      "default-anchor2" : 0.0,
                      "default-geometryCrop2" : 0.0,
                      "default-height" : 100.0,
                      "default-keystroke-key" : "Tab",
                      "default-rotation0" : 0.0,
                      "default-rotation1" : 0.0,
                      "default-rotation2" : 0.0,
                      "default-scale0" : 1.0,
                      "default-scale1" : 1.0,
                      "default-scale2" : 1.0,
                      "default-shear0" : 0.0,
                      "default-shear1" : 0.0,
                      "default-shear2" : 0.0,
                      "default-translation0" : 0.0,
                      "default-translation1" : 0.0,
                      "default-translation2" : 0.0,
                      "default-width" : 150.0
                    },
                    "animationTracks" : {

                    }
                  }
                ]
              },
              {
                "trackIndex" : 17,
                "medias" : [
                  {
                    "id" : 20,
                    "_type" : "Callout",
                    "def" : {
                      "kind" : "TypeWinKey",
                      "shape" : "",
                      "style" : "",
                      "height" : 100.0,
                      "keyStyle" : 3.0,
                      "macStyleKeyText" : 0.0,
                      "separateKeysWithPlus" : 1.0,
                      "showKeyBackg" : 0.0,
                      "width" : 350.0,
                      "filename" : "C:\\Program Files\\TechSmith\\Camtasia 2022\\Media\\Studio\\Keystrokes\\en-US\\Information\\",
                      "keys" : "Ctrl+Right",
                      "name" : "Ctrl+Right"
                    },
                    "attributes" : {
                      "ident" : "",
                      "autoRotateText" : true
                    },
                    "parameters" : {
                      "translation0" : -11.0833333333344,
                      "translation1" : 500.0,
                      "scale0" : 0.35,
                      "scale1" : 0.35,
                      "sourceCrop0" : 0.0,
                      "sourceCrop1" : 0.0,
                      "sourceCrop2" : 0.0,
                      "sourceCrop3" : 0.0,
                      "geometryCrop0" : 168.571428571428,
                      "geometryCrop1" : 0.0,
                      "geometryCrop2" : 0.0,
                      "geometryCrop3" : 0.0
                    },
                    "effects" : [

                    ],
                    "start" : 0,
                    "duration" : 3528000000,
                    "mediaStart" : 0,
                    "mediaDuration" : 3528000000,
                    "scalar" : 1,
                    "metadata" : {
                      "clipSpeedAttribute" : false,
                      "default-anchor0" : 0.0,
                      "default-anchor1" : 0.0,
                      "default-anchor2" : 0.0,
                      "default-geometryCrop0" : 0.0,
                      "default-height" : 100.0,
                      "default-keystroke-key" : "Tab",
                      "default-rotation0" : 0.0,
                      "default-rotation1" : 0.0,
                      "default-rotation2" : 0.0,
                      "default-scale0" : 1.0,
                      "default-scale1" : 1.0,
                      "default-scale2" : 1.0,
                      "default-shear0" : 0.0,
                      "default-shear1" : 0.0,
                      "default-shear2" : 0.0,
                      "default-translation0" : 0.0,
                      "default-translation1" : 0.0,
                      "default-translation2" : 0.0,
                      "default-width" : 150.0
                    },
                    "animationTracks" : {

                    }
                  }
                ]
              },
              {
                "trackIndex" : 18,
                "medias" : [
                  {
                    "id" : 21,
                    "_type" : "Callout",
                    "def" : {
                      "kind" : "TypeWinKey",
                      "shape" : "",
                      "style" : "",
                      "height" : 100.0,
                      "keyStyle" : 3.0,
                      "macStyleKeyText" : 0.0,
                      "separateKeysWithPlus" : 1.0,
                      "showKeyBackg" : 0.0,
                      "width" : 350.0,
                      "filename" : "C:\\Program Files\\TechSmith\\Camtasia 2022\\Media\\Studio\\Keystrokes\\en-US\\Information\\",
                      "keys" : "Ctrl+Right",
                      "name" : "Ctrl+Right"
                    },
                    "attributes" : {
                      "ident" : "",
                      "autoRotateText" : true
                    },
                    "parameters" : {
                      "translation0" : -116.916666666668,
                      "translation1" : 500.0,
                      "scale0" : 0.35,
                      "scale1" : 0.35,
                      "sourceCrop0" : 0.0,
                      "sourceCrop1" : 0.0,
                      "sourceCrop2" : 0.0,
                      "sourceCrop3" : 0.0,
                      "geometryCrop0" : 0.0,
                      "geometryCrop1" : 0.0,
                      "geometryCrop2" : 0.0,
                      "geometryCrop3" : 0.0
                    },
                    "effects" : [

                    ],
                    "start" : 0,
                    "duration" : 3528000000,
                    "mediaStart" : 0,
                    "mediaDuration" : 3528000000,
                    "scalar" : 1,
                    "metadata" : {
                      "clipSpeedAttribute" : false,
                      "default-anchor0" : 0.0,
                      "default-anchor1" : 0.0,
                      "default-anchor2" : 0.0,
                      "default-geometryCrop2" : 0.0,
                      "default-height" : 100.0,
                      "default-keystroke-key" : "Tab",
                      "default-rotation0" : 0.0,
                      "default-rotation1" : 0.0,
                      "default-rotation2" : 0.0,
                      "default-scale0" : 1.0,
                      "default-scale1" : 1.0,
                      "default-scale2" : 1.0,
                      "default-shear0" : 0.0,
                      "default-shear1" : 0.0,
                      "default-shear2" : 0.0,
                      "default-translation0" : 0.0,
                      "default-translation1" : 0.0,
                      "default-translation2" : 0.0,
                      "default-width" : 150.0
                    },
                    "animationTracks" : {

                    }
                  }
                ]
              },
              {
                "trackIndex" : 19,
                "medias" : [
                  {
                    "id" : 22,
                    "_type" : "Callout",
                    "def" : {
                      "kind" : "TypeWinKey",
                      "shape" : "",
                      "style" : "",
                      "height" : 100.0,
                      "keyStyle" : 3.0,
                      "macStyleKeyText" : 0.0,
                      "separateKeysWithPlus" : 1.0,
                      "showKeyBackg" : 0.0,
                      "width" : 350.0,
                      "filename" : "C:\\Program Files\\TechSmith\\Camtasia 2022\\Media\\Studio\\Keystrokes\\en-US\\Information\\",
                      "keys" : "Ctrl+Left",
                      "name" : "Ctrl+Left"
                    },
                    "attributes" : {
                      "ident" : "",
                      "autoRotateText" : true
                    },
                    "parameters" : {
                      "translation0" : -11.0833333333344,
                      "translation1" : 450.0,
                      "scale0" : 0.35,
                      "scale1" : 0.35,
                      "sourceCrop0" : 0.0,
                      "sourceCrop1" : 0.0,
                      "sourceCrop2" : 0.0,
                      "sourceCrop3" : 0.0,
                      "geometryCrop0" : 168.571428571428,
                      "geometryCrop1" : 0.0,
                      "geometryCrop2" : 0.0,
                      "geometryCrop3" : 0.0
                    },
                    "effects" : [

                    ],
                    "start" : 0,
                    "duration" : 3528000000,
                    "mediaStart" : 0,
                    "mediaDuration" : 3528000000,
                    "scalar" : 1,
                    "metadata" : {
                      "clipSpeedAttribute" : false,
                      "default-anchor0" : 0.0,
                      "default-anchor1" : 0.0,
                      "default-anchor2" : 0.0,
                      "default-geometryCrop0" : 0.0,
                      "default-height" : 100.0,
                      "default-keystroke-key" : "Tab",
                      "default-rotation0" : 0.0,
                      "default-rotation1" : 0.0,
                      "default-rotation2" : 0.0,
                      "default-scale0" : 1.0,
                      "default-scale1" : 1.0,
                      "default-scale2" : 1.0,
                      "default-shear0" : 0.0,
                      "default-shear1" : 0.0,
                      "default-shear2" : 0.0,
                      "default-translation0" : 0.0,
                      "default-translation1" : 0.0,
                      "default-translation2" : 0.0,
                      "default-width" : 150.0
                    },
                    "animationTracks" : {

                    }
                  }
                ]
              },
              {
                "trackIndex" : 20,
                "medias" : [
                  {
                    "id" : 23,
                    "_type" : "Callout",
                    "def" : {
                      "kind" : "TypeWinKey",
                      "shape" : "",
                      "style" : "",
                      "height" : 100.0,
                      "keyStyle" : 3.0,
                      "macStyleKeyText" : 0.0,
                      "separateKeysWithPlus" : 1.0,
                      "showKeyBackg" : 0.0,
                      "width" : 350.0,
                      "filename" : "C:\\Program Files\\TechSmith\\Camtasia 2022\\Media\\Studio\\Keystrokes\\en-US\\Information\\",
                      "keys" : "Ctrl+Up",
                      "name" : "Ctrl+Up"
                    },
                    "attributes" : {
                      "ident" : "",
                      "autoRotateText" : true
                    },
                    "parameters" : {
                      "translation0" : -11.0833333333344,
                      "translation1" : 400.0,
                      "scale0" : 0.35,
                      "scale1" : 0.35,
                      "sourceCrop0" : 0.0,
                      "sourceCrop1" : 0.0,
                      "sourceCrop2" : 0.0,
                      "sourceCrop3" : 0.0,
                      "geometryCrop0" : 168.571428571428,
                      "geometryCrop1" : 0.0,
                      "geometryCrop2" : 0.0,
                      "geometryCrop3" : 0.0
                    },
                    "effects" : [

                    ],
                    "start" : 0,
                    "duration" : 3528000000,
                    "mediaStart" : 0,
                    "mediaDuration" : 3528000000,
                    "scalar" : 1,
                    "metadata" : {
                      "clipSpeedAttribute" : false,
                      "default-anchor0" : 0.0,
                      "default-anchor1" : 0.0,
                      "default-anchor2" : 0.0,
                      "default-geometryCrop0" : 0.0,
                      "default-height" : 100.0,
                      "default-keystroke-key" : "Tab",
                      "default-rotation0" : 0.0,
                      "default-rotation1" : 0.0,
                      "default-rotation2" : 0.0,
                      "default-scale0" : 1.0,
                      "default-scale1" : 1.0,
                      "default-scale2" : 1.0,
                      "default-shear0" : 0.0,
                      "default-shear1" : 0.0,
                      "default-shear2" : 0.0,
                      "default-translation0" : 0.0,
                      "default-translation1" : 0.0,
                      "default-translation2" : 0.0,
                      "default-width" : 150.0
                    },
                    "animationTracks" : {

                    }
                  }
                ]
              },
              {
                "trackIndex" : 21,
                "medias" : [
                  {
                    "id" : 24,
                    "_type" : "Callout",
                    "def" : {
                      "kind" : "TypeWinKey",
                      "shape" : "",
                      "style" : "",
                      "height" : 100.0,
                      "keyStyle" : 3.0,
                      "macStyleKeyText" : 0.0,
                      "separateKeysWithPlus" : 1.0,
                      "showKeyBackg" : 0.0,
                      "width" : 350.0,
                      "filename" : "C:\\Program Files\\TechSmith\\Camtasia 2022\\Media\\Studio\\Keystrokes\\en-US\\Information\\",
                      "keys" : "Ctrl+Down",
                      "name" : "Ctrl+Down"
                    },
                    "attributes" : {
                      "ident" : "",
                      "autoRotateText" : true
                    },
                    "parameters" : {
                      "translation0" : -11.0833333333344,
                      "translation1" : 350.0,
                      "scale0" : 0.35,
                      "scale1" : 0.35,
                      "sourceCrop0" : 0.0,
                      "sourceCrop1" : 0.0,
                      "sourceCrop2" : 0.0,
                      "sourceCrop3" : 0.0,
                      "geometryCrop0" : 168.571428571428,
                      "geometryCrop1" : 0.0,
                      "geometryCrop2" : 0.0,
                      "geometryCrop3" : 0.0
                    },
                    "effects" : [

                    ],
                    "start" : 0,
                    "duration" : 3528000000,
                    "mediaStart" : 0,
                    "mediaDuration" : 3528000000,
                    "scalar" : 1,
                    "metadata" : {
                      "clipSpeedAttribute" : false,
                      "default-anchor0" : 0.0,
                      "default-anchor1" : 0.0,
                      "default-anchor2" : 0.0,
                      "default-geometryCrop0" : 0.0,
                      "default-height" : 100.0,
                      "default-keystroke-key" : "Tab",
                      "default-rotation0" : 0.0,
                      "default-rotation1" : 0.0,
                      "default-rotation2" : 0.0,
                      "default-scale0" : 1.0,
                      "default-scale1" : 1.0,
                      "default-scale2" : 1.0,
                      "default-shear0" : 0.0,
                      "default-shear1" : 0.0,
                      "default-shear2" : 0.0,
                      "default-translation0" : 0.0,
                      "default-translation1" : 0.0,
                      "default-translation2" : 0.0,
                      "default-width" : 150.0
                    },
                    "animationTracks" : {

                    }
                  }
                ]
              },
              {
                "trackIndex" : 22,
                "medias" : [
                  {
                    "id" : 25,
                    "_type" : "Callout",
                    "def" : {
                      "kind" : "TypeWinKey",
                      "shape" : "",
                      "style" : "",
                      "height" : 100.0,
                      "keyStyle" : 3.0,
                      "macStyleKeyText" : 0.0,
                      "separateKeysWithPlus" : 1.0,
                      "showKeyBackg" : 0.0,
                      "width" : 350.0,
                      "filename" : "C:\\Program Files\\TechSmith\\Camtasia 2022\\Media\\Studio\\Keystrokes\\en-US\\Information\\",
                      "keys" : "Ctrl+H",
                      "name" : "Ctrl+H"
                    },
                    "attributes" : {
                      "ident" : "",
                      "autoRotateText" : true
                    },
                    "parameters" : {
                      "translation0" : -706.749999999999,
                      "translation1" : -99.34375,
                      "scale0" : 0.35,
                      "scale1" : 0.35,
                      "sourceCrop0" : 0.0,
                      "sourceCrop1" : 0.0,
                      "sourceCrop2" : 0.0,
                      "sourceCrop3" : 0.0,
                      "geometryCrop0" : 168.571428571428,
                      "geometryCrop1" : 0.0,
                      "geometryCrop2" : 0.0,
                      "geometryCrop3" : 0.0
                    },
                    "effects" : [

                    ],
                    "start" : 0,
                    "duration" : 3528000000,
                    "mediaStart" : 0,
                    "mediaDuration" : 3528000000,
                    "scalar" : 1,
                    "metadata" : {
                      "clipSpeedAttribute" : false,
                      "default-anchor0" : 0.0,
                      "default-anchor1" : 0.0,
                      "default-anchor2" : 0.0,
                      "default-geometryCrop0" : 0.0,
                      "default-height" : 100.0,
                      "default-keystroke-key" : "Tab",
                      "default-rotation0" : 0.0,
                      "default-rotation1" : 0.0,
                      "default-rotation2" : 0.0,
                      "default-scale0" : 1.0,
                      "default-scale1" : 1.0,
                      "default-scale2" : 1.0,
                      "default-shear0" : 0.0,
                      "default-shear1" : 0.0,
                      "default-shear2" : 0.0,
                      "default-translation0" : 0.0,
                      "default-translation1" : 0.0,
                      "default-translation2" : 0.0,
                      "default-width" : 150.0
                    },
                    "animationTracks" : {

                    }
                  }
                ]
              },
              {
                "trackIndex" : 23,
                "medias" : [
                  {
                    "id" : 26,
                    "_type" : "Callout",
                    "def" : {
                      "kind" : "TypeWinKey",
                      "shape" : "",
                      "style" : "",
                      "height" : {
                        "type" : "double",
                        "defaultValue" : 100.0,
                        "interp" : "linr"
                      },
                      "keyStyle" : {
                        "type" : "double",
                        "defaultValue" : 3.0,
                        "interp" : "linr"
                      },
                      "macStyleKeyText" : {
                        "type" : "double",
                        "defaultValue" : 0.0,
                        "interp" : "linr"
                      },
                      "separateKeysWithPlus" : {
                        "type" : "double",
                        "defaultValue" : 1.0,
                        "interp" : "linr"
                      },
                      "showKeyBackg" : {
                        "type" : "double",
                        "defaultValue" : 0.0,
                        "interp" : "linr"
                      },
                      "width" : {
                        "type" : "double",
                        "defaultValue" : 350.0,
                        "interp" : "linr"
                      },
                      "filename" : "C:\\Program Files\\TechSmith\\Camtasia 2022\\Media\\Studio\\Keystrokes\\en-US\\Information\\",
                      "keys" : "Ctrl+D",
                      "name" : "Ctrl+D"
                    },
                    "attributes" : {
                      "ident" : "",
                      "autoRotateText" : true
                    },
                    "parameters" : {
                      "translation0" : {
                        "type" : "double",
                        "defaultValue" : -707.5,
                        "interp" : "eioe"
                      },
                      "translation1" : {
                        "type" : "double",
                        "defaultValue" : 153.222794117647,
                        "interp" : "eioe"
                      },
                      "scale0" : {
                        "type" : "double",
                        "defaultValue" : 0.35,
                        "interp" : "eioe"
                      },
                      "scale1" : {
                        "type" : "double",
                        "defaultValue" : 0.35,
                        "interp" : "eioe"
                      },
                      "sourceCrop0" : {
                        "type" : "double",
                        "defaultValue" : 0.0,
                        "interp" : "eioe"
                      },
                      "sourceCrop1" : {
                        "type" : "double",
                        "defaultValue" : 0.0,
                        "interp" : "eioe"
                      },
                      "sourceCrop2" : {
                        "type" : "double",
                        "defaultValue" : 0.0,
                        "interp" : "eioe"
                      },
                      "sourceCrop3" : {
                        "type" : "double",
                        "defaultValue" : 0.0,
                        "interp" : "eioe"
                      },
                      "geometryCrop0" : {
                        "type" : "double",
                        "defaultValue" : 168.571428571428,
                        "interp" : "eioe"
                      },
                      "geometryCrop1" : {
                        "type" : "double",
                        "defaultValue" : 0.0,
                        "interp" : "eioe"
                      },
                      "geometryCrop2" : {
                        "type" : "double",
                        "defaultValue" : 0.0,
                        "interp" : "eioe"
                      },
                      "geometryCrop3" : {
                        "type" : "double",
                        "defaultValue" : 0.0,
                        "interp" : "eioe"
                      }
                    },
                    "effects" : [

                    ],
                    "start" : 0,
                    "duration" : 3528000000,
                    "mediaStart" : 0,
                    "mediaDuration" : 3528000000,
                    "scalar" : 1,
                    "metadata" : {
                      "clipSpeedAttribute" : false,
                      "default-anchor0" : 0.0,
                      "default-anchor1" : 0.0,
                      "default-anchor2" : 0.0,
                      "default-geometryCrop0" : 0.0,
                      "default-height" : 100.0,
                      "default-keystroke-key" : "Tab",
                      "default-rotation0" : 0.0,
                      "default-rotation1" : 0.0,
                      "default-rotation2" : 0.0,
                      "default-scale0" : 1.0,
                      "default-scale1" : 1.0,
                      "default-scale2" : 1.0,
                      "default-shear0" : 0.0,
                      "default-shear1" : 0.0,
                      "default-shear2" : 0.0,
                      "default-translation0" : 0.0,
                      "default-translation1" : 0.0,
                      "default-translation2" : 0.0,
                      "default-width" : 150.0
                    },
                    "animationTracks" : {

                    }
                  }
                ]
              },
              {
                "trackIndex" : 24,
                "medias" : [
                  {
                    "id" : 27,
                    "_type" : "Callout",
                    "def" : {
                      "kind" : "TypeWinKey",
                      "shape" : "",
                      "style" : "",
                      "height" : {
                        "type" : "double",
                        "defaultValue" : 100.0,
                        "interp" : "linr"
                      },
                      "keyStyle" : {
                        "type" : "double",
                        "defaultValue" : 3.0,
                        "interp" : "linr"
                      },
                      "macStyleKeyText" : {
                        "type" : "double",
                        "defaultValue" : 0.0,
                        "interp" : "linr"
                      },
                      "separateKeysWithPlus" : {
                        "type" : "double",
                        "defaultValue" : 1.0,
                        "interp" : "linr"
                      },
                      "showKeyBackg" : {
                        "type" : "double",
                        "defaultValue" : 0.0,
                        "interp" : "linr"
                      },
                      "width" : {
                        "type" : "double",
                        "defaultValue" : 350.0,
                        "interp" : "linr"
                      },
                      "filename" : "C:\\Program Files\\TechSmith\\Camtasia 2022\\Media\\Studio\\Keystrokes\\en-US\\Information\\",
                      "keys" : "Ctrl+S",
                      "name" : "Ctrl+S"
                    },
                    "attributes" : {
                      "ident" : "",
                      "autoRotateText" : true
                    },
                    "parameters" : {
                      "translation0" : {
                        "type" : "double",
                        "defaultValue" : -707.5,
                        "interp" : "eioe"
                      },
                      "translation1" : {
                        "type" : "double",
                        "defaultValue" : 103.65625,
                        "interp" : "eioe"
                      },
                      "scale0" : {
                        "type" : "double",
                        "defaultValue" : 0.35,
                        "interp" : "eioe"
                      },
                      "scale1" : {
                        "type" : "double",
                        "defaultValue" : 0.35,
                        "interp" : "eioe"
                      },
                      "sourceCrop0" : {
                        "type" : "double",
                        "defaultValue" : 0.0,
                        "interp" : "eioe"
                      },
                      "sourceCrop1" : {
                        "type" : "double",
                        "defaultValue" : 0.0,
                        "interp" : "eioe"
                      },
                      "sourceCrop2" : {
                        "type" : "double",
                        "defaultValue" : 0.0,
                        "interp" : "eioe"
                      },
                      "sourceCrop3" : {
                        "type" : "double",
                        "defaultValue" : 0.0,
                        "interp" : "eioe"
                      },
                      "geometryCrop0" : {
                        "type" : "double",
                        "defaultValue" : 168.571428571428,
                        "interp" : "eioe"
                      },
                      "geometryCrop1" : {
                        "type" : "double",
                        "defaultValue" : 0.0,
                        "interp" : "eioe"
                      },
                      "geometryCrop2" : {
                        "type" : "double",
                        "defaultValue" : 0.0,
                        "interp" : "eioe"
                      },
                      "geometryCrop3" : {
                        "type" : "double",
                        "defaultValue" : 0.0,
                        "interp" : "eioe"
                      }
                    },
                    "effects" : [

                    ],
                    "start" : 0,
                    "duration" : 3528000000,
                    "mediaStart" : 0,
                    "mediaDuration" : 3528000000,
                    "scalar" : 1,
                    "metadata" : {
                      "clipSpeedAttribute" : false,
                      "default-anchor0" : 0.0,
                      "default-anchor1" : 0.0,
                      "default-anchor2" : 0.0,
                      "default-geometryCrop0" : 0.0,
                      "default-height" : 100.0,
                      "default-keystroke-key" : "Tab",
                      "default-rotation0" : 0.0,
                      "default-rotation1" : 0.0,
                      "default-rotation2" : 0.0,
                      "default-scale0" : 1.0,
                      "default-scale1" : 1.0,
                      "default-scale2" : 1.0,
                      "default-shear0" : 0.0,
                      "default-shear1" : 0.0,
                      "default-shear2" : 0.0,
                      "default-translation0" : 0.0,
                      "default-translation1" : 0.0,
                      "default-translation2" : 0.0,
                      "default-width" : 150.0
                    },
                    "animationTracks" : {

                    }
                  }
                ]
              },
              {
                "trackIndex" : 25,
                "medias" : [
                  {
                    "id" : 28,
                    "_type" : "Callout",
                    "def" : {
                      "kind" : "TypeWinKey",
                      "shape" : "",
                      "style" : "",
                      "height" : 100.0,
                      "keyStyle" : 3.0,
                      "macStyleKeyText" : 0.0,
                      "separateKeysWithPlus" : 1.0,
                      "showKeyBackg" : 0.0,
                      "width" : 350.0,
                      "filename" : "C:\\Program Files\\TechSmith\\Camtasia 2022\\Media\\Studio\\Keystrokes\\en-US\\Information\\",
                      "keys" : "Ctrl+C",
                      "name" : "Ctrl+C"
                    },
                    "attributes" : {
                      "ident" : "",
                      "autoRotateText" : true
                    },
                    "parameters" : {
                      "translation0" : -706.749999999999,
                      "translation1" : -149.34375,
                      "scale0" : 0.35,
                      "scale1" : 0.35,
                      "sourceCrop0" : 0.0,
                      "sourceCrop1" : 0.0,
                      "sourceCrop2" : 0.0,
                      "sourceCrop3" : 0.0,
                      "geometryCrop0" : 168.571428571428,
                      "geometryCrop1" : 0.0,
                      "geometryCrop2" : 0.0,
                      "geometryCrop3" : 0.0
                    },
                    "effects" : [

                    ],
                    "start" : 0,
                    "duration" : 3528000000,
                    "mediaStart" : 0,
                    "mediaDuration" : 3528000000,
                    "scalar" : 1,
                    "metadata" : {
                      "clipSpeedAttribute" : false,
                      "default-anchor0" : 0.0,
                      "default-anchor1" : 0.0,
                      "default-anchor2" : 0.0,
                      "default-geometryCrop0" : 0.0,
                      "default-height" : 100.0,
                      "default-keystroke-key" : "Tab",
                      "default-rotation0" : 0.0,
                      "default-rotation1" : 0.0,
                      "default-rotation2" : 0.0,
                      "default-scale0" : 1.0,
                      "default-scale1" : 1.0,
                      "default-scale2" : 1.0,
                      "default-shear0" : 0.0,
                      "default-shear1" : 0.0,
                      "default-shear2" : 0.0,
                      "default-translation0" : 0.0,
                      "default-translation1" : 0.0,
                      "default-translation2" : 0.0,
                      "default-width" : 150.0
                    },
                    "animationTracks" : {

                    }
                  }
                ]
              },
              {
                "trackIndex" : 26,
                "medias" : [
                  {
                    "id" : 29,
                    "_type" : "Callout",
                    "def" : {
                      "kind" : "TypeWinKey",
                      "shape" : "",
                      "style" : "",
                      "height" : 100.0,
                      "keyStyle" : 3.0,
                      "macStyleKeyText" : 0.0,
                      "separateKeysWithPlus" : 1.0,
                      "showKeyBackg" : 0.0,
                      "width" : 350.0,
                      "filename" : "C:\\Program Files\\TechSmith\\Camtasia 2022\\Media\\Studio\\Keystrokes\\en-US\\Information\\",
                      "keys" : "Ctrl+R",
                      "name" : "Ctrl+R"
                    },
                    "attributes" : {
                      "ident" : "",
                      "autoRotateText" : true
                    },
                    "parameters" : {
                      "translation0" : -707.416666666665,
                      "translation1" : -199.34375,
                      "scale0" : 0.35,
                      "scale1" : 0.35,
                      "sourceCrop0" : 0.0,
                      "sourceCrop1" : 0.0,
                      "sourceCrop2" : 0.0,
                      "sourceCrop3" : 0.0,
                      "geometryCrop0" : 168.571428571428,
                      "geometryCrop1" : 0.0,
                      "geometryCrop2" : 0.0,
                      "geometryCrop3" : 0.0
                    },
                    "effects" : [

                    ],
                    "start" : 0,
                    "duration" : 3528000000,
                    "mediaStart" : 0,
                    "mediaDuration" : 3528000000,
                    "scalar" : 1,
                    "metadata" : {
                      "clipSpeedAttribute" : false,
                      "default-anchor0" : 0.0,
                      "default-anchor1" : 0.0,
                      "default-anchor2" : 0.0,
                      "default-geometryCrop0" : 0.0,
                      "default-height" : 100.0,
                      "default-keystroke-key" : "Tab",
                      "default-rotation0" : 0.0,
                      "default-rotation1" : 0.0,
                      "default-rotation2" : 0.0,
                      "default-scale0" : 1.0,
                      "default-scale1" : 1.0,
                      "default-scale2" : 1.0,
                      "default-shear0" : 0.0,
                      "default-shear1" : 0.0,
                      "default-shear2" : 0.0,
                      "default-translation0" : 0.0,
                      "default-translation1" : 0.0,
                      "default-translation2" : 0.0,
                      "default-width" : 150.0
                    },
                    "animationTracks" : {

                    }
                  }
                ]
              },
              {
                "trackIndex" : 27,
                "medias" : [
                  {
                    "id" : 30,
                    "_type" : "Callout",
                    "def" : {
                      "kind" : "TypeWinKey",
                      "shape" : "",
                      "style" : "",
                      "height" : 100.0,
                      "keyStyle" : 3.0,
                      "macStyleKeyText" : 0.0,
                      "separateKeysWithPlus" : 1.0,
                      "showKeyBackg" : 0.0,
                      "width" : 350.0,
                      "filename" : "C:\\Program Files\\TechSmith\\Camtasia 2022\\Media\\Studio\\Keystrokes\\en-US\\Information\\",
                      "keys" : "Ctrl+1",
                      "name" : "Ctrl+1"
                    },
                    "attributes" : {
                      "ident" : "",
                      "autoRotateText" : true
                    },
                    "parameters" : {
                      "translation0" : -706.7,
                      "translation1" : -348.308455882353,
                      "scale0" : 0.35,
                      "scale1" : 0.35,
                      "sourceCrop0" : 0.0,
                      "sourceCrop1" : 0.0,
                      "sourceCrop2" : 0.0,
                      "sourceCrop3" : 0.0,
                      "geometryCrop0" : 168.571428571428,
                      "geometryCrop1" : 0.0,
                      "geometryCrop2" : 0.0,
                      "geometryCrop3" : 0.0
                    },
                    "effects" : [

                    ],
                    "start" : 0,
                    "duration" : 3528000000,
                    "mediaStart" : 0,
                    "mediaDuration" : 3528000000,
                    "scalar" : 1,
                    "metadata" : {
                      "clipSpeedAttribute" : false,
                      "default-anchor0" : 0.0,
                      "default-anchor1" : 0.0,
                      "default-anchor2" : 0.0,
                      "default-geometryCrop0" : 0.0,
                      "default-height" : 100.0,
                      "default-keystroke-key" : "Tab",
                      "default-rotation0" : 0.0,
                      "default-rotation1" : 0.0,
                      "default-rotation2" : 0.0,
                      "default-scale0" : 1.0,
                      "default-scale1" : 1.0,
                      "default-scale2" : 1.0,
                      "default-shear0" : 0.0,
                      "default-shear1" : 0.0,
                      "default-shear2" : 0.0,
                      "default-translation0" : 0.0,
                      "default-translation1" : 0.0,
                      "default-translation2" : 0.0,
                      "default-width" : 150.0
                    },
                    "animationTracks" : {

                    }
                  }
                ]
              },
              {
                "trackIndex" : 28,
                "medias" : [
                  {
                    "id" : 31,
                    "_type" : "Callout",
                    "def" : {
                      "kind" : "TypeWinKey",
                      "shape" : "",
                      "style" : "",
                      "height" : 100.0,
                      "keyStyle" : 3.0,
                      "macStyleKeyText" : 0.0,
                      "separateKeysWithPlus" : 1.0,
                      "showKeyBackg" : 0.0,
                      "width" : 350.0,
                      "filename" : "C:\\Program Files\\TechSmith\\Camtasia 2022\\Media\\Studio\\Keystrokes\\en-US\\Information\\",
                      "keys" : "Ctrl+C",
                      "name" : "Ctrl+C"
                    },
                    "attributes" : {
                      "ident" : "",
                      "autoRotateText" : true
                    },
                    "parameters" : {
                      "translation0" : -707.416666666665,
                      "translation1" : -249.34375,
                      "scale0" : 0.35,
                      "scale1" : 0.35,
                      "sourceCrop0" : 0.0,
                      "sourceCrop1" : 0.0,
                      "sourceCrop2" : 0.0,
                      "sourceCrop3" : 0.0,
                      "geometryCrop0" : 168.571428571428,
                      "geometryCrop1" : 0.0,
                      "geometryCrop2" : 0.0,
                      "geometryCrop3" : 0.0
                    },
                    "effects" : [

                    ],
                    "start" : 0,
                    "duration" : 3528000000,
                    "mediaStart" : 0,
                    "mediaDuration" : 3528000000,
                    "scalar" : 1,
                    "metadata" : {
                      "clipSpeedAttribute" : false,
                      "default-anchor0" : 0.0,
                      "default-anchor1" : 0.0,
                      "default-anchor2" : 0.0,
                      "default-geometryCrop0" : 0.0,
                      "default-height" : 100.0,
                      "default-keystroke-key" : "Tab",
                      "default-rotation0" : 0.0,
                      "default-rotation1" : 0.0,
                      "default-rotation2" : 0.0,
                      "default-scale0" : 1.0,
                      "default-scale1" : 1.0,
                      "default-scale2" : 1.0,
                      "default-shear0" : 0.0,
                      "default-shear1" : 0.0,
                      "default-shear2" : 0.0,
                      "default-translation0" : 0.0,
                      "default-translation1" : 0.0,
                      "default-translation2" : 0.0,
                      "default-width" : 150.0
                    },
                    "animationTracks" : {

                    }
                  }
                ]
              },
              {
                "trackIndex" : 29,
                "medias" : [
                  {
                    "id" : 32,
                    "_type" : "Callout",
                    "def" : {
                      "kind" : "TypeWinKey",
                      "shape" : "",
                      "style" : "",
                      "height" : 100.0,
                      "keyStyle" : 3.0,
                      "macStyleKeyText" : 0.0,
                      "separateKeysWithPlus" : 1.0,
                      "showKeyBackg" : 0.0,
                      "width" : 350.0,
                      "filename" : "C:\\Program Files\\TechSmith\\Camtasia 2022\\Media\\Studio\\Keystrokes\\en-US\\Information\\",
                      "keys" : "Ctrl+2",
                      "name" : "Ctrl+2"
                    },
                    "attributes" : {
                      "ident" : "",
                      "autoRotateText" : true
                    },
                    "parameters" : {
                      "translation0" : -706.7,
                      "translation1" : -398.308455882353,
                      "scale0" : 0.35,
                      "scale1" : 0.35,
                      "sourceCrop0" : 0.0,
                      "sourceCrop1" : 0.0,
                      "sourceCrop2" : 0.0,
                      "sourceCrop3" : 0.0,
                      "geometryCrop0" : 168.571428571428,
                      "geometryCrop1" : 0.0,
                      "geometryCrop2" : 0.0,
                      "geometryCrop3" : 0.0
                    },
                    "effects" : [

                    ],
                    "start" : 0,
                    "duration" : 3528000000,
                    "mediaStart" : 0,
                    "mediaDuration" : 3528000000,
                    "scalar" : 1,
                    "metadata" : {
                      "clipSpeedAttribute" : false,
                      "default-anchor0" : 0.0,
                      "default-anchor1" : 0.0,
                      "default-anchor2" : 0.0,
                      "default-geometryCrop0" : 0.0,
                      "default-height" : 100.0,
                      "default-keystroke-key" : "Tab",
                      "default-rotation0" : 0.0,
                      "default-rotation1" : 0.0,
                      "default-rotation2" : 0.0,
                      "default-scale0" : 1.0,
                      "default-scale1" : 1.0,
                      "default-scale2" : 1.0,
                      "default-shear0" : 0.0,
                      "default-shear1" : 0.0,
                      "default-shear2" : 0.0,
                      "default-translation0" : 0.0,
                      "default-translation1" : 0.0,
                      "default-translation2" : 0.0,
                      "default-width" : 150.0
                    },
                    "animationTracks" : {

                    }
                  }
                ]
              },
              {
                "trackIndex" : 30,
                "medias" : [
                  {
                    "id" : 33,
                    "_type" : "Callout",
                    "def" : {
                      "kind" : "TypeWinKey",
                      "shape" : "",
                      "style" : "",
                      "height" : 100.0,
                      "keyStyle" : 3.0,
                      "macStyleKeyText" : 0.0,
                      "separateKeysWithPlus" : 1.0,
                      "showKeyBackg" : 0.0,
                      "width" : 350.0,
                      "filename" : "C:\\Program Files\\TechSmith\\Camtasia 2022\\Media\\Studio\\Keystrokes\\en-US\\Information\\",
                      "keys" : "Ctrl+V",
                      "name" : "Ctrl+V"
                    },
                    "attributes" : {
                      "ident" : "",
                      "autoRotateText" : true
                    },
                    "parameters" : {
                      "translation0" : -11.833333333333,
                      "translation1" : -299.34375,
                      "scale0" : 0.35,
                      "scale1" : 0.35,
                      "sourceCrop0" : 0.0,
                      "sourceCrop1" : 0.0,
                      "sourceCrop2" : 0.0,
                      "sourceCrop3" : 0.0,
                      "geometryCrop0" : 168.571428571428,
                      "geometryCrop1" : 0.0,
                      "geometryCrop2" : 0.0,
                      "geometryCrop3" : 0.0
                    },
                    "effects" : [

                    ],
                    "start" : 0,
                    "duration" : 3528000000,
                    "mediaStart" : 0,
                    "mediaDuration" : 3528000000,
                    "scalar" : 1,
                    "metadata" : {
                      "clipSpeedAttribute" : false,
                      "default-anchor0" : 0.0,
                      "default-anchor1" : 0.0,
                      "default-anchor2" : 0.0,
                      "default-geometryCrop0" : 0.0,
                      "default-height" : 100.0,
                      "default-keystroke-key" : "Tab",
                      "default-rotation0" : 0.0,
                      "default-rotation1" : 0.0,
                      "default-rotation2" : 0.0,
                      "default-scale0" : 1.0,
                      "default-scale1" : 1.0,
                      "default-scale2" : 1.0,
                      "default-shear0" : 0.0,
                      "default-shear1" : 0.0,
                      "default-shear2" : 0.0,
                      "default-translation0" : 0.0,
                      "default-translation1" : 0.0,
                      "default-translation2" : 0.0,
                      "default-width" : 150.0
                    },
                    "animationTracks" : {

                    }
                  }
                ]
              },
              {
                "trackIndex" : 31,
                "medias" : [
                  {
                    "id" : 34,
                    "_type" : "Callout",
                    "def" : {
                      "kind" : "TypeWinKey",
                      "shape" : "",
                      "style" : "",
                      "height" : 100.0,
                      "keyStyle" : 3.0,
                      "macStyleKeyText" : 0.0,
                      "separateKeysWithPlus" : 1.0,
                      "showKeyBackg" : 0.0,
                      "width" : 350.0,
                      "filename" : "C:\\Program Files\\TechSmith\\Camtasia 2022\\Media\\Studio\\Keystrokes\\en-US\\Information\\",
                      "keys" : "Ctrl+S",
                      "name" : "Ctrl+S"
                    },
                    "attributes" : {
                      "ident" : "",
                      "autoRotateText" : true
                    },
                    "parameters" : {
                      "translation0" : -707.416666666665,
                      "translation1" : -299.34375,
                      "scale0" : 0.35,
                      "scale1" : 0.35,
                      "sourceCrop0" : 0.0,
                      "sourceCrop1" : 0.0,
                      "sourceCrop2" : 0.0,
                      "sourceCrop3" : 0.0,
                      "geometryCrop0" : 168.571428571428,
                      "geometryCrop1" : 0.0,
                      "geometryCrop2" : 0.0,
                      "geometryCrop3" : 0.0
                    },
                    "effects" : [

                    ],
                    "start" : 0,
                    "duration" : 3528000000,
                    "mediaStart" : 0,
                    "mediaDuration" : 3528000000,
                    "scalar" : 1,
                    "metadata" : {
                      "clipSpeedAttribute" : false,
                      "default-anchor0" : 0.0,
                      "default-anchor1" : 0.0,
                      "default-anchor2" : 0.0,
                      "default-geometryCrop0" : 0.0,
                      "default-height" : 100.0,
                      "default-keystroke-key" : "Tab",
                      "default-rotation0" : 0.0,
                      "default-rotation1" : 0.0,
                      "default-rotation2" : 0.0,
                      "default-scale0" : 1.0,
                      "default-scale1" : 1.0,
                      "default-scale2" : 1.0,
                      "default-shear0" : 0.0,
                      "default-shear1" : 0.0,
                      "default-shear2" : 0.0,
                      "default-translation0" : 0.0,
                      "default-translation1" : 0.0,
                      "default-translation2" : 0.0,
                      "default-width" : 150.0
                    },
                    "animationTracks" : {

                    }
                  }
                ]
              },
              {
                "trackIndex" : 32,
                "medias" : [
                  {
                    "id" : 35,
                    "_type" : "Callout",
                    "def" : {
                      "kind" : "TypeWinKey",
                      "shape" : "",
                      "style" : "",
                      "height" : 100.0,
                      "keyStyle" : 3.0,
                      "macStyleKeyText" : 0.0,
                      "separateKeysWithPlus" : 1.0,
                      "showKeyBackg" : 0.0,
                      "width" : 350.0,
                      "filename" : "C:\\Program Files\\TechSmith\\Camtasia 2022\\Media\\Studio\\Keystrokes\\en-US\\Information\\",
                      "keys" : "Ctrl+3",
                      "name" : "Ctrl+3"
                    },
                    "attributes" : {
                      "ident" : "",
                      "autoRotateText" : true
                    },
                    "parameters" : {
                      "translation0" : -706.7,
                      "translation1" : -448.308455882353,
                      "scale0" : 0.35,
                      "scale1" : 0.35,
                      "sourceCrop0" : 0.0,
                      "sourceCrop1" : 0.0,
                      "sourceCrop2" : 0.0,
                      "sourceCrop3" : 0.0,
                      "geometryCrop0" : 168.571428571428,
                      "geometryCrop1" : 0.0,
                      "geometryCrop2" : 0.0,
                      "geometryCrop3" : 0.0
                    },
                    "effects" : [

                    ],
                    "start" : 0,
                    "duration" : 3528000000,
                    "mediaStart" : 0,
                    "mediaDuration" : 3528000000,
                    "scalar" : 1,
                    "metadata" : {
                      "clipSpeedAttribute" : false,
                      "default-anchor0" : 0.0,
                      "default-anchor1" : 0.0,
                      "default-anchor2" : 0.0,
                      "default-geometryCrop0" : 0.0,
                      "default-height" : 100.0,
                      "default-keystroke-key" : "Tab",
                      "default-rotation0" : 0.0,
                      "default-rotation1" : 0.0,
                      "default-rotation2" : 0.0,
                      "default-scale0" : 1.0,
                      "default-scale1" : 1.0,
                      "default-scale2" : 1.0,
                      "default-shear0" : 0.0,
                      "default-shear1" : 0.0,
                      "default-shear2" : 0.0,
                      "default-translation0" : 0.0,
                      "default-translation1" : 0.0,
                      "default-translation2" : 0.0,
                      "default-width" : 150.0
                    },
                    "animationTracks" : {

                    }
                  }
                ]
              },
              {
                "trackIndex" : 33,
                "medias" : [
                  {
                    "id" : 36,
                    "_type" : "Callout",
                    "def" : {
                      "kind" : "TypeWinKey",
                      "shape" : "",
                      "style" : "",
                      "height" : 100.0,
                      "keyStyle" : 3.0,
                      "macStyleKeyText" : 0.0,
                      "separateKeysWithPlus" : 1.0,
                      "showKeyBackg" : 0.0,
                      "width" : 350.0,
                      "filename" : "C:\\Program Files\\TechSmith\\Camtasia 2022\\Media\\Studio\\Keystrokes\\en-US\\Information\\",
                      "keys" : "Ctrl+F",
                      "name" : "Ctrl+F"
                    },
                    "attributes" : {
                      "ident" : "",
                      "autoRotateText" : true
                    },
                    "parameters" : {
                      "translation0" : -11.833333333333,
                      "translation1" : -349.34375,
                      "scale0" : 0.35,
                      "scale1" : 0.35,
                      "sourceCrop0" : 0.0,
                      "sourceCrop1" : 0.0,
                      "sourceCrop2" : 0.0,
                      "sourceCrop3" : 0.0,
                      "geometryCrop0" : 168.571428571428,
                      "geometryCrop1" : 0.0,
                      "geometryCrop2" : 0.0,
                      "geometryCrop3" : 0.0
                    },
                    "effects" : [

                    ],
                    "start" : 0,
                    "duration" : 3528000000,
                    "mediaStart" : 0,
                    "mediaDuration" : 3528000000,
                    "scalar" : 1,
                    "metadata" : {
                      "clipSpeedAttribute" : false,
                      "default-anchor0" : 0.0,
                      "default-anchor1" : 0.0,
                      "default-anchor2" : 0.0,
                      "default-geometryCrop0" : 0.0,
                      "default-height" : 100.0,
                      "default-keystroke-key" : "Tab",
                      "default-rotation0" : 0.0,
                      "default-rotation1" : 0.0,
                      "default-rotation2" : 0.0,
                      "default-scale0" : 1.0,
                      "default-scale1" : 1.0,
                      "default-scale2" : 1.0,
                      "default-shear0" : 0.0,
                      "default-shear1" : 0.0,
                      "default-shear2" : 0.0,
                      "default-translation0" : 0.0,
                      "default-translation1" : 0.0,
                      "default-translation2" : 0.0,
                      "default-width" : 150.0
                    },
                    "animationTracks" : {

                    }
                  }
                ]
              },
              {
                "trackIndex" : 34,
                "medias" : [
                  {
                    "id" : 37,
                    "_type" : "Callout",
                    "def" : {
                      "kind" : "TypeWinKey",
                      "shape" : "",
                      "style" : "",
                      "height" : 100.0,
                      "keyStyle" : 3.0,
                      "macStyleKeyText" : 0.0,
                      "separateKeysWithPlus" : 1.0,
                      "showKeyBackg" : 0.0,
                      "width" : 350.0,
                      "filename" : "C:\\Program Files\\TechSmith\\Camtasia 2022\\Media\\Studio\\Keystrokes\\en-US\\Information\\",
                      "keys" : "Ctrl+Right",
                      "name" : "Ctrl+Right"
                    },
                    "attributes" : {
                      "ident" : "",
                      "autoRotateText" : true
                    },
                    "parameters" : {
                      "translation0" : -11.0833333333344,
                      "translation1" : 300.0,
                      "scale0" : 0.35,
                      "scale1" : 0.35,
                      "sourceCrop0" : 0.0,
                      "sourceCrop1" : 0.0,
                      "sourceCrop2" : 0.0,
                      "sourceCrop3" : 0.0,
                      "geometryCrop0" : 168.571428571428,
                      "geometryCrop1" : 0.0,
                      "geometryCrop2" : 0.0,
                      "geometryCrop3" : 0.0
                    },
                    "effects" : [

                    ],
                    "start" : 0,
                    "duration" : 3528000000,
                    "mediaStart" : 0,
                    "mediaDuration" : 3528000000,
                    "scalar" : 1,
                    "metadata" : {
                      "clipSpeedAttribute" : false,
                      "default-anchor0" : 0.0,
                      "default-anchor1" : 0.0,
                      "default-anchor2" : 0.0,
                      "default-geometryCrop0" : 0.0,
                      "default-height" : 100.0,
                      "default-keystroke-key" : "Tab",
                      "default-rotation0" : 0.0,
                      "default-rotation1" : 0.0,
                      "default-rotation2" : 0.0,
                      "default-scale0" : 1.0,
                      "default-scale1" : 1.0,
                      "default-scale2" : 1.0,
                      "default-shear0" : 0.0,
                      "default-shear1" : 0.0,
                      "default-shear2" : 0.0,
                      "default-translation0" : 0.0,
                      "default-translation1" : 0.0,
                      "default-translation2" : 0.0,
                      "default-width" : 150.0
                    },
                    "animationTracks" : {

                    }
                  }
                ]
              },
              {
                "trackIndex" : 35,
                "medias" : [
                ]
              },
              {
                "trackIndex" : 36,
                "medias" : [
                  {
                    "id" : 38,
                    "_type" : "Callout",
                    "def" : {
                      "kind" : "TypeWinKey",
                      "shape" : "",
                      "style" : "",
                      "height" : 100.0,
                      "keyStyle" : 3.0,
                      "macStyleKeyText" : 0.0,
                      "separateKeysWithPlus" : 1.0,
                      "showKeyBackg" : 0.0,
                      "width" : 350.0,
                      "filename" : "C:\\Program Files\\TechSmith\\Camtasia 2022\\Media\\Studio\\Keystrokes\\en-US\\Information\\",
                      "keys" : "Ctrl+Right",
                      "name" : "Ctrl+Right"
                    },
                    "attributes" : {
                      "ident" : "",
                      "autoRotateText" : true
                    },
                    "parameters" : {
                      "translation0" : 58.7916666666665,
                      "translation1" : 300.0,
                      "scale0" : 0.35,
                      "scale1" : 0.35,
                      "sourceCrop0" : 0.0,
                      "sourceCrop1" : 0.0,
                      "sourceCrop2" : 0.0,
                      "sourceCrop3" : 0.0,
                      "geometryCrop0" : 168.571428571428,
                      "geometryCrop1" : 0.0,
                      "geometryCrop2" : 0.0,
                      "geometryCrop3" : 0.0
                    },
                    "effects" : [

                    ],
                    "start" : 0,
                    "duration" : 3528000000,
                    "mediaStart" : 0,
                    "mediaDuration" : 3528000000,
                    "scalar" : 1,
                    "metadata" : {
                      "clipSpeedAttribute" : false,
                      "default-anchor0" : 0.0,
                      "default-anchor1" : 0.0,
                      "default-anchor2" : 0.0,
                      "default-geometryCrop0" : 0.0,
                      "default-height" : 100.0,
                      "default-keystroke-key" : "Tab",
                      "default-rotation0" : 0.0,
                      "default-rotation1" : 0.0,
                      "default-rotation2" : 0.0,
                      "default-scale0" : 1.0,
                      "default-scale1" : 1.0,
                      "default-scale2" : 1.0,
                      "default-shear0" : 0.0,
                      "default-shear1" : 0.0,
                      "default-shear2" : 0.0,
                      "default-translation0" : 0.0,
                      "default-translation1" : 0.0,
                      "default-translation2" : 0.0,
                      "default-width" : 150.0
                    },
                    "animationTracks" : {

                    }
                  }
                ]
              },
              {
                "trackIndex" : 37,
                "medias" : [
                ]
              },
              {
                "trackIndex" : 38,
                "medias" : [
                  {
                    "id" : 39,
                    "_type" : "Callout",
                    "def" : {
                      "kind" : "TypeWinKey",
                      "shape" : "",
                      "style" : "",
                      "height" : 100.0,
                      "keyStyle" : 3.0,
                      "macStyleKeyText" : 0.0,
                      "separateKeysWithPlus" : 1.0,
                      "showKeyBackg" : 0.0,
                      "width" : 350.0,
                      "filename" : "C:\\Program Files\\TechSmith\\Camtasia 2022\\Media\\Studio\\Keystrokes\\en-US\\Information\\",
                      "keys" : "Ctrl+Left",
                      "name" : "Ctrl+Left"
                    },
                    "attributes" : {
                      "ident" : "",
                      "autoRotateText" : true
                    },
                    "parameters" : {
                      "translation0" : -11.0833333333344,
                      "translation1" : 250.0,
                      "scale0" : 0.35,
                      "scale1" : 0.35,
                      "sourceCrop0" : 0.0,
                      "sourceCrop1" : 0.0,
                      "sourceCrop2" : 0.0,
                      "sourceCrop3" : 0.0,
                      "geometryCrop0" : 168.571428571428,
                      "geometryCrop1" : 0.0,
                      "geometryCrop2" : 0.0,
                      "geometryCrop3" : 0.0
                    },
                    "effects" : [

                    ],
                    "start" : 0,
                    "duration" : 3528000000,
                    "mediaStart" : 0,
                    "mediaDuration" : 3528000000,
                    "scalar" : 1,
                    "metadata" : {
                      "clipSpeedAttribute" : false,
                      "default-anchor0" : 0.0,
                      "default-anchor1" : 0.0,
                      "default-anchor2" : 0.0,
                      "default-geometryCrop0" : 0.0,
                      "default-height" : 100.0,
                      "default-keystroke-key" : "Tab",
                      "default-rotation0" : 0.0,
                      "default-rotation1" : 0.0,
                      "default-rotation2" : 0.0,
                      "default-scale0" : 1.0,
                      "default-scale1" : 1.0,
                      "default-scale2" : 1.0,
                      "default-shear0" : 0.0,
                      "default-shear1" : 0.0,
                      "default-shear2" : 0.0,
                      "default-translation0" : 0.0,
                      "default-translation1" : 0.0,
                      "default-translation2" : 0.0,
                      "default-width" : 150.0
                    },
                    "animationTracks" : {

                    }
                  }
                ]
              },
              {
                "trackIndex" : 39,
                "medias" : [
                ]
              },
              {
                "trackIndex" : 40,
                "medias" : [
                  {
                    "id" : 40,
                    "_type" : "Callout",
                    "def" : {
                      "kind" : "TypeWinKey",
                      "shape" : "",
                      "style" : "",
                      "height" : 100.0,
                      "keyStyle" : 3.0,
                      "macStyleKeyText" : 0.0,
                      "separateKeysWithPlus" : 1.0,
                      "showKeyBackg" : 0.0,
                      "width" : 350.0,
                      "filename" : "C:\\Program Files\\TechSmith\\Camtasia 2022\\Media\\Studio\\Keystrokes\\en-US\\Information\\",
                      "keys" : "Ctrl+Left",
                      "name" : "Ctrl+Left"
                    },
                    "attributes" : {
                      "ident" : "",
                      "autoRotateText" : true
                    },
                    "parameters" : {
                      "translation0" : 58.7916666666665,
                      "translation1" : 250.0,
                      "scale0" : 0.35,
                      "scale1" : 0.35,
                      "sourceCrop0" : 0.0,
                      "sourceCrop1" : 0.0,
                      "sourceCrop2" : 0.0,
                      "sourceCrop3" : 0.0,
                      "geometryCrop0" : 168.571428571428,
                      "geometryCrop1" : 0.0,
                      "geometryCrop2" : 0.0,
                      "geometryCrop3" : 0.0
                    },
                    "effects" : [

                    ],
                    "start" : 0,
                    "duration" : 3528000000,
                    "mediaStart" : 0,
                    "mediaDuration" : 3528000000,
                    "scalar" : 1,
                    "metadata" : {
                      "clipSpeedAttribute" : false,
                      "default-anchor0" : 0.0,
                      "default-anchor1" : 0.0,
                      "default-anchor2" : 0.0,
                      "default-geometryCrop0" : 0.0,
                      "default-height" : 100.0,
                      "default-keystroke-key" : "Tab",
                      "default-rotation0" : 0.0,
                      "default-rotation1" : 0.0,
                      "default-rotation2" : 0.0,
                      "default-scale0" : 1.0,
                      "default-scale1" : 1.0,
                      "default-scale2" : 1.0,
                      "default-shear0" : 0.0,
                      "default-shear1" : 0.0,
                      "default-shear2" : 0.0,
                      "default-translation0" : 0.0,
                      "default-translation1" : 0.0,
                      "default-translation2" : 0.0,
                      "default-width" : 150.0
                    },
                    "animationTracks" : {

                    }
                  }
                ]
              },
              {
                "trackIndex" : 41,
                "medias" : [
                ]
              },
              {
                "trackIndex" : 42,
                "medias" : [
                  {
                    "id" : 41,
                    "_type" : "Callout",
                    "def" : {
                      "kind" : "TypeWinKey",
                      "shape" : "",
                      "style" : "",
                      "height" : 100.0,
                      "keyStyle" : 3.0,
                      "macStyleKeyText" : 0.0,
                      "separateKeysWithPlus" : 1.0,
                      "showKeyBackg" : 0.0,
                      "width" : 350.0,
                      "filename" : "C:\\Program Files\\TechSmith\\Camtasia 2022\\Media\\Studio\\Keystrokes\\en-US\\Information\\",
                      "keys" : "Ctrl+Up",
                      "name" : "Ctrl+Up"
                    },
                    "attributes" : {
                      "ident" : "",
                      "autoRotateText" : true
                    },
                    "parameters" : {
                      "translation0" : -11.0833333333344,
                      "translation1" : 200.0,
                      "scale0" : 0.35,
                      "scale1" : 0.35,
                      "sourceCrop0" : 0.0,
                      "sourceCrop1" : 0.0,
                      "sourceCrop2" : 0.0,
                      "sourceCrop3" : 0.0,
                      "geometryCrop0" : 168.571428571428,
                      "geometryCrop1" : 0.0,
                      "geometryCrop2" : 0.0,
                      "geometryCrop3" : 0.0
                    },
                    "effects" : [

                    ],
                    "start" : 0,
                    "duration" : 3528000000,
                    "mediaStart" : 0,
                    "mediaDuration" : 3528000000,
                    "scalar" : 1,
                    "metadata" : {
                      "clipSpeedAttribute" : false,
                      "default-anchor0" : 0.0,
                      "default-anchor1" : 0.0,
                      "default-anchor2" : 0.0,
                      "default-geometryCrop0" : 0.0,
                      "default-height" : 100.0,
                      "default-keystroke-key" : "Tab",
                      "default-rotation0" : 0.0,
                      "default-rotation1" : 0.0,
                      "default-rotation2" : 0.0,
                      "default-scale0" : 1.0,
                      "default-scale1" : 1.0,
                      "default-scale2" : 1.0,
                      "default-shear0" : 0.0,
                      "default-shear1" : 0.0,
                      "default-shear2" : 0.0,
                      "default-translation0" : 0.0,
                      "default-translation1" : 0.0,
                      "default-translation2" : 0.0,
                      "default-width" : 150.0
                    },
                    "animationTracks" : {

                    }
                  }
                ]
              },
              {
                "trackIndex" : 43,
                "medias" : [
                ]
              },
              {
                "trackIndex" : 44,
                "medias" : [
                  {
                    "id" : 42,
                    "_type" : "Callout",
                    "def" : {
                      "kind" : "TypeWinKey",
                      "shape" : "",
                      "style" : "",
                      "height" : 100.0,
                      "keyStyle" : 3.0,
                      "macStyleKeyText" : 0.0,
                      "separateKeysWithPlus" : 1.0,
                      "showKeyBackg" : 0.0,
                      "width" : 350.0,
                      "filename" : "C:\\Program Files\\TechSmith\\Camtasia 2022\\Media\\Studio\\Keystrokes\\en-US\\Information\\",
                      "keys" : "Ctrl+Up",
                      "name" : "Ctrl+Up"
                    },
                    "attributes" : {
                      "ident" : "",
                      "autoRotateText" : true
                    },
                    "parameters" : {
                      "translation0" : 58.7916666666665,
                      "translation1" : 200.0,
                      "scale0" : 0.35,
                      "scale1" : 0.35,
                      "sourceCrop0" : 0.0,
                      "sourceCrop1" : 0.0,
                      "sourceCrop2" : 0.0,
                      "sourceCrop3" : 0.0,
                      "geometryCrop0" : 168.571428571428,
                      "geometryCrop1" : 0.0,
                      "geometryCrop2" : 0.0,
                      "geometryCrop3" : 0.0
                    },
                    "effects" : [

                    ],
                    "start" : 0,
                    "duration" : 3528000000,
                    "mediaStart" : 0,
                    "mediaDuration" : 3528000000,
                    "scalar" : 1,
                    "metadata" : {
                      "clipSpeedAttribute" : false,
                      "default-anchor0" : 0.0,
                      "default-anchor1" : 0.0,
                      "default-anchor2" : 0.0,
                      "default-geometryCrop0" : 0.0,
                      "default-height" : 100.0,
                      "default-keystroke-key" : "Tab",
                      "default-rotation0" : 0.0,
                      "default-rotation1" : 0.0,
                      "default-rotation2" : 0.0,
                      "default-scale0" : 1.0,
                      "default-scale1" : 1.0,
                      "default-scale2" : 1.0,
                      "default-shear0" : 0.0,
                      "default-shear1" : 0.0,
                      "default-shear2" : 0.0,
                      "default-translation0" : 0.0,
                      "default-translation1" : 0.0,
                      "default-translation2" : 0.0,
                      "default-width" : 150.0
                    },
                    "animationTracks" : {

                    }
                  }
                ]
              },
              {
                "trackIndex" : 45,
                "medias" : [
                ]
              },
              {
                "trackIndex" : 46,
                "medias" : [
                  {
                    "id" : 43,
                    "_type" : "Callout",
                    "def" : {
                      "kind" : "TypeWinKey",
                      "shape" : "",
                      "style" : "",
                      "height" : 100.0,
                      "keyStyle" : 3.0,
                      "macStyleKeyText" : 0.0,
                      "separateKeysWithPlus" : 1.0,
                      "showKeyBackg" : 0.0,
                      "width" : 350.0,
                      "filename" : "C:\\Program Files\\TechSmith\\Camtasia 2022\\Media\\Studio\\Keystrokes\\en-US\\Information\\",
                      "keys" : "Ctrl+Down",
                      "name" : "Ctrl+Down"
                    },
                    "attributes" : {
                      "ident" : "",
                      "autoRotateText" : true
                    },
                    "parameters" : {
                      "translation0" : -11.0833333333344,
                      "translation1" : 150.0,
                      "scale0" : 0.35,
                      "scale1" : 0.35,
                      "sourceCrop0" : 0.0,
                      "sourceCrop1" : 0.0,
                      "sourceCrop2" : 0.0,
                      "sourceCrop3" : 0.0,
                      "geometryCrop0" : 168.571428571428,
                      "geometryCrop1" : 0.0,
                      "geometryCrop2" : 0.0,
                      "geometryCrop3" : 0.0
                    },
                    "effects" : [

                    ],
                    "start" : 0,
                    "duration" : 3528000000,
                    "mediaStart" : 0,
                    "mediaDuration" : 3528000000,
                    "scalar" : 1,
                    "metadata" : {
                      "clipSpeedAttribute" : false,
                      "default-anchor0" : 0.0,
                      "default-anchor1" : 0.0,
                      "default-anchor2" : 0.0,
                      "default-geometryCrop0" : 0.0,
                      "default-height" : 100.0,
                      "default-keystroke-key" : "Tab",
                      "default-rotation0" : 0.0,
                      "default-rotation1" : 0.0,
                      "default-rotation2" : 0.0,
                      "default-scale0" : 1.0,
                      "default-scale1" : 1.0,
                      "default-scale2" : 1.0,
                      "default-shear0" : 0.0,
                      "default-shear1" : 0.0,
                      "default-shear2" : 0.0,
                      "default-translation0" : 0.0,
                      "default-translation1" : 0.0,
                      "default-translation2" : 0.0,
                      "default-width" : 150.0
                    },
                    "animationTracks" : {

                    }
                  }
                ]
              },
              {
                "trackIndex" : 47,
                "medias" : [
                  {
                    "id" : 44,
                    "_type" : "Callout",
                    "def" : {
                      "kind" : "TypeWinKey",
                      "shape" : "",
                      "style" : "",
                      "height" : 100.0,
                      "keyStyle" : 3.0,
                      "macStyleKeyText" : 0.0,
                      "separateKeysWithPlus" : 1.0,
                      "showKeyBackg" : 0.0,
                      "width" : 350.0,
                      "filename" : "C:\\Program Files\\TechSmith\\Camtasia 2022\\Media\\Studio\\Keystrokes\\en-US\\Information\\",
                      "keys" : "Ctrl+A",
                      "name" : "Ctrl+A"
                    },
                    "attributes" : {
                      "ident" : "",
                      "autoRotateText" : true
                    },
                    "parameters" : {
                      "translation0" : -11.0833333333344,
                      "translation1" : 103.65625,
                      "scale0" : 0.35,
                      "scale1" : 0.35,
                      "sourceCrop0" : 0.0,
                      "sourceCrop1" : 0.0,
                      "sourceCrop2" : 0.0,
                      "sourceCrop3" : 0.0,
                      "geometryCrop0" : 168.571428571428,
                      "geometryCrop1" : 0.0,
                      "geometryCrop2" : 0.0,
                      "geometryCrop3" : 0.0
                    },
                    "effects" : [

                    ],
                    "start" : 0,
                    "duration" : 3528000000,
                    "mediaStart" : 0,
                    "mediaDuration" : 3528000000,
                    "scalar" : 1,
                    "metadata" : {
                      "clipSpeedAttribute" : false,
                      "default-anchor0" : 0.0,
                      "default-anchor1" : 0.0,
                      "default-anchor2" : 0.0,
                      "default-geometryCrop0" : 0.0,
                      "default-height" : 100.0,
                      "default-keystroke-key" : "Tab",
                      "default-rotation0" : 0.0,
                      "default-rotation1" : 0.0,
                      "default-rotation2" : 0.0,
                      "default-scale0" : 1.0,
                      "default-scale1" : 1.0,
                      "default-scale2" : 1.0,
                      "default-shear0" : 0.0,
                      "default-shear1" : 0.0,
                      "default-shear2" : 0.0,
                      "default-translation0" : 0.0,
                      "default-translation1" : 0.0,
                      "default-translation2" : 0.0,
                      "default-width" : 150.0
                    },
                    "animationTracks" : {

                    }
                  }
                ]
              },
              {
                "trackIndex" : 48,
                "medias" : [
                  {
                    "id" : 45,
                    "_type" : "Callout",
                    "def" : {
                      "kind" : "TypeWinKey",
                      "shape" : "",
                      "style" : "",
                      "height" : 100.0,
                      "keyStyle" : 3.0,
                      "macStyleKeyText" : 0.0,
                      "separateKeysWithPlus" : 1.0,
                      "showKeyBackg" : 0.0,
                      "width" : 350.0,
                      "filename" : "C:\\Program Files\\TechSmith\\Camtasia 2022\\Media\\Studio\\Keystrokes\\en-US\\Information\\",
                      "keys" : "Ctrl+D",
                      "name" : "Ctrl+D"
                    },
                    "attributes" : {
                      "ident" : "",
                      "autoRotateText" : true
                    },
                    "parameters" : {
                      "translation0" : -11.0833333333344,
                      "translation1" : 2.50404411764708,
                      "scale0" : 0.35,
                      "scale1" : 0.35,
                      "sourceCrop0" : 0.0,
                      "sourceCrop1" : 0.0,
                      "sourceCrop2" : 0.0,
                      "sourceCrop3" : 0.0,
                      "geometryCrop0" : 168.571428571428,
                      "geometryCrop1" : 0.0,
                      "geometryCrop2" : 0.0,
                      "geometryCrop3" : 0.0
                    },
                    "effects" : [

                    ],
                    "start" : 0,
                    "duration" : 3528000000,
                    "mediaStart" : 0,
                    "mediaDuration" : 3528000000,
                    "scalar" : 1,
                    "metadata" : {
                      "clipSpeedAttribute" : false,
                      "default-anchor0" : 0.0,
                      "default-anchor1" : 0.0,
                      "default-anchor2" : 0.0,
                      "default-geometryCrop0" : 0.0,
                      "default-height" : 100.0,
                      "default-keystroke-key" : "Tab",
                      "default-rotation0" : 0.0,
                      "default-rotation1" : 0.0,
                      "default-rotation2" : 0.0,
                      "default-scale0" : 1.0,
                      "default-scale1" : 1.0,
                      "default-scale2" : 1.0,
                      "default-shear0" : 0.0,
                      "default-shear1" : 0.0,
                      "default-shear2" : 0.0,
                      "default-translation0" : 0.0,
                      "default-translation1" : 0.0,
                      "default-translation2" : 0.0,
                      "default-width" : 150.0
                    },
                    "animationTracks" : {

                    }
                  }
                ]
              },
              {
                "trackIndex" : 49,
                "medias" : [
                  {
                    "id" : 46,
                    "_type" : "Callout",
                    "def" : {
                      "kind" : "TypeWinKey",
                      "shape" : "",
                      "style" : "",
                      "height" : 100.0,
                      "keyStyle" : 3.0,
                      "macStyleKeyText" : 0.0,
                      "separateKeysWithPlus" : 1.0,
                      "showKeyBackg" : 0.0,
                      "width" : 350.0,
                      "filename" : "C:\\Program Files\\TechSmith\\Camtasia 2022\\Media\\Studio\\Keystrokes\\en-US\\Information\\",
                      "keys" : "Ctrl+H",
                      "name" : "Ctrl+H"
                    },
                    "attributes" : {
                      "ident" : "",
                      "autoRotateText" : true
                    },
                    "parameters" : {
                      "translation0" : -11.0833333333344,
                      "translation1" : -149.234156370163,
                      "scale0" : 0.35,
                      "scale1" : 0.35,
                      "sourceCrop0" : 0.0,
                      "sourceCrop1" : 0.0,
                      "sourceCrop2" : 0.0,
                      "sourceCrop3" : 0.0,
                      "geometryCrop0" : 168.571428571428,
                      "geometryCrop1" : 0.0,
                      "geometryCrop2" : 0.0,
                      "geometryCrop3" : 0.0
                    },
                    "effects" : [

                    ],
                    "start" : 0,
                    "duration" : 3528000000,
                    "mediaStart" : 0,
                    "mediaDuration" : 3528000000,
                    "scalar" : 1,
                    "metadata" : {
                      "clipSpeedAttribute" : false,
                      "default-anchor0" : 0.0,
                      "default-anchor1" : 0.0,
                      "default-anchor2" : 0.0,
                      "default-geometryCrop0" : 0.0,
                      "default-height" : 100.0,
                      "default-keystroke-key" : "Tab",
                      "default-rotation0" : 0.0,
                      "default-rotation1" : 0.0,
                      "default-rotation2" : 0.0,
                      "default-scale0" : 1.0,
                      "default-scale1" : 1.0,
                      "default-scale2" : 1.0,
                      "default-shear0" : 0.0,
                      "default-shear1" : 0.0,
                      "default-shear2" : 0.0,
                      "default-translation0" : 0.0,
                      "default-translation1" : 0.0,
                      "default-translation2" : 0.0,
                      "default-width" : 150.0
                    },
                    "animationTracks" : {

                    }
                  }
                ]
              },
              {
                "trackIndex" : 50,
                "medias" : [
                  {
                    "id" : 47,
                    "_type" : "Callout",
                    "def" : {
                      "kind" : "TypeWinKey",
                      "shape" : "",
                      "style" : "",
                      "height" : 100.0,
                      "keyStyle" : 3.0,
                      "macStyleKeyText" : 0.0,
                      "separateKeysWithPlus" : 1.0,
                      "showKeyBackg" : 0.0,
                      "width" : 350.0,
                      "filename" : "C:\\Program Files\\TechSmith\\Camtasia 2022\\Media\\Studio\\Keystrokes\\en-US\\Information\\",
                      "keys" : "Ctrl+C",
                      "name" : "Ctrl+C"
                    },
                    "attributes" : {
                      "ident" : "",
                      "autoRotateText" : true
                    },
                    "parameters" : {
                      "translation0" : -11.0833333333344,
                      "translation1" : 53.65625,
                      "scale0" : 0.35,
                      "scale1" : 0.35,
                      "sourceCrop0" : 0.0,
                      "sourceCrop1" : 0.0,
                      "sourceCrop2" : 0.0,
                      "sourceCrop3" : 0.0,
                      "geometryCrop0" : 168.571428571428,
                      "geometryCrop1" : 0.0,
                      "geometryCrop2" : 0.0,
                      "geometryCrop3" : 0.0
                    },
                    "effects" : [

                    ],
                    "start" : 0,
                    "duration" : 3528000000,
                    "mediaStart" : 0,
                    "mediaDuration" : 3528000000,
                    "scalar" : 1,
                    "metadata" : {
                      "clipSpeedAttribute" : false,
                      "default-anchor0" : 0.0,
                      "default-anchor1" : 0.0,
                      "default-anchor2" : 0.0,
                      "default-geometryCrop0" : 0.0,
                      "default-height" : 100.0,
                      "default-keystroke-key" : "Tab",
                      "default-rotation0" : 0.0,
                      "default-rotation1" : 0.0,
                      "default-rotation2" : 0.0,
                      "default-scale0" : 1.0,
                      "default-scale1" : 1.0,
                      "default-scale2" : 1.0,
                      "default-shear0" : 0.0,
                      "default-shear1" : 0.0,
                      "default-shear2" : 0.0,
                      "default-translation0" : 0.0,
                      "default-translation1" : 0.0,
                      "default-translation2" : 0.0,
                      "default-width" : 150.0
                    },
                    "animationTracks" : {

                    }
                  }
                ]
              },
              {
                "trackIndex" : 51,
                "medias" : [
                  {
                    "id" : 48,
                    "_type" : "Callout",
                    "def" : {
                      "kind" : "TypeWinKey",
                      "shape" : "",
                      "style" : "",
                      "height" : 100.0,
                      "keyStyle" : 3.0,
                      "macStyleKeyText" : 0.0,
                      "separateKeysWithPlus" : 1.0,
                      "showKeyBackg" : 0.0,
                      "width" : 350.0,
                      "filename" : "C:\\Program Files\\TechSmith\\Camtasia 2022\\Media\\Studio\\Keystrokes\\en-US\\Information\\",
                      "keys" : "Ctrl+F",
                      "name" : "Ctrl+F"
                    },
                    "attributes" : {
                      "ident" : "",
                      "autoRotateText" : true
                    },
                    "parameters" : {
                      "translation0" : -11.0833333333344,
                      "translation1" : -47.4959558823529,
                      "scale0" : 0.35,
                      "scale1" : 0.35,
                      "sourceCrop0" : 0.0,
                      "sourceCrop1" : 0.0,
                      "sourceCrop2" : 0.0,
                      "sourceCrop3" : 0.0,
                      "geometryCrop0" : 168.571428571428,
                      "geometryCrop1" : 0.0,
                      "geometryCrop2" : 0.0,
                      "geometryCrop3" : 0.0
                    },
                    "effects" : [

                    ],
                    "start" : 0,
                    "duration" : 3528000000,
                    "mediaStart" : 0,
                    "mediaDuration" : 3528000000,
                    "scalar" : 1,
                    "metadata" : {
                      "clipSpeedAttribute" : false,
                      "default-anchor0" : 0.0,
                      "default-anchor1" : 0.0,
                      "default-anchor2" : 0.0,
                      "default-geometryCrop0" : 0.0,
                      "default-height" : 100.0,
                      "default-keystroke-key" : "Tab",
                      "default-rotation0" : 0.0,
                      "default-rotation1" : 0.0,
                      "default-rotation2" : 0.0,
                      "default-scale0" : 1.0,
                      "default-scale1" : 1.0,
                      "default-scale2" : 1.0,
                      "default-shear0" : 0.0,
                      "default-shear1" : 0.0,
                      "default-shear2" : 0.0,
                      "default-translation0" : 0.0,
                      "default-translation1" : 0.0,
                      "default-translation2" : 0.0,
                      "default-width" : 150.0
                    },
                    "animationTracks" : {

                    }
                  }
                ]
              },
              {
                "trackIndex" : 52,
                "medias" : [
                  {
                    "id" : 49,
                    "_type" : "Callout",
                    "def" : {
                      "kind" : "TypeWinKey",
                      "shape" : "",
                      "style" : "",
                      "height" : 100.0,
                      "keyStyle" : 3.0,
                      "macStyleKeyText" : 0.0,
                      "separateKeysWithPlus" : 1.0,
                      "showKeyBackg" : 0.0,
                      "width" : 350.0,
                      "filename" : "C:\\Program Files\\TechSmith\\Camtasia 2022\\Media\\Studio\\Keystrokes\\en-US\\Information\\",
                      "keys" : "Ctrl+G",
                      "name" : "Ctrl+G"
                    },
                    "attributes" : {
                      "ident" : "",
                      "autoRotateText" : true
                    },
                    "parameters" : {
                      "translation0" : -11.0833333333344,
                      "translation1" : -100.109152406454,
                      "scale0" : 0.35,
                      "scale1" : 0.35,
                      "sourceCrop0" : 0.0,
                      "sourceCrop1" : 0.0,
                      "sourceCrop2" : 0.0,
                      "sourceCrop3" : 0.0,
                      "geometryCrop0" : 168.571428571428,
                      "geometryCrop1" : 0.0,
                      "geometryCrop2" : 0.0,
                      "geometryCrop3" : 0.0
                    },
                    "effects" : [

                    ],
                    "start" : 0,
                    "duration" : 3528000000,
                    "mediaStart" : 0,
                    "mediaDuration" : 3528000000,
                    "scalar" : 1,
                    "metadata" : {
                      "clipSpeedAttribute" : false,
                      "default-anchor0" : 0.0,
                      "default-anchor1" : 0.0,
                      "default-anchor2" : 0.0,
                      "default-geometryCrop0" : 0.0,
                      "default-height" : 100.0,
                      "default-keystroke-key" : "Tab",
                      "default-rotation0" : 0.0,
                      "default-rotation1" : 0.0,
                      "default-rotation2" : 0.0,
                      "default-scale0" : 1.0,
                      "default-scale1" : 1.0,
                      "default-scale2" : 1.0,
                      "default-shear0" : 0.0,
                      "default-shear1" : 0.0,
                      "default-shear2" : 0.0,
                      "default-translation0" : 0.0,
                      "default-translation1" : 0.0,
                      "default-translation2" : 0.0,
                      "default-width" : 150.0
                    },
                    "animationTracks" : {

                    }
                  }
                ]
              },
              {
                "trackIndex" : 53,
                "medias" : [
                  {
                    "id" : 50,
                    "_type" : "Callout",
                    "def" : {
                      "kind" : "TypeWinKey",
                      "shape" : "",
                      "style" : "",
                      "height" : 100.0,
                      "keyStyle" : 3.0,
                      "macStyleKeyText" : 0.0,
                      "separateKeysWithPlus" : 1.0,
                      "showKeyBackg" : 0.0,
                      "width" : 350.0,
                      "filename" : "C:\\Program Files\\TechSmith\\Camtasia 2022\\Media\\Studio\\Keystrokes\\en-US\\Information\\",
                      "keys" : "Ctrl+N",
                      "name" : "Ctrl+N"
                    },
                    "attributes" : {
                      "ident" : "",
                      "autoRotateText" : true
                    },
                    "parameters" : {
                      "translation0" : -11.0833333333344,
                      "translation1" : -199.234156370163,
                      "scale0" : 0.35,
                      "scale1" : 0.35,
                      "sourceCrop0" : 0.0,
                      "sourceCrop1" : 0.0,
                      "sourceCrop2" : 0.0,
                      "sourceCrop3" : 0.0,
                      "geometryCrop0" : 168.571428571428,
                      "geometryCrop1" : 0.0,
                      "geometryCrop2" : 0.0,
                      "geometryCrop3" : 0.0
                    },
                    "effects" : [

                    ],
                    "start" : 0,
                    "duration" : 3528000000,
                    "mediaStart" : 0,
                    "mediaDuration" : 3528000000,
                    "scalar" : 1,
                    "metadata" : {
                      "clipSpeedAttribute" : false,
                      "default-anchor0" : 0.0,
                      "default-anchor1" : 0.0,
                      "default-anchor2" : 0.0,
                      "default-geometryCrop0" : 0.0,
                      "default-height" : 100.0,
                      "default-keystroke-key" : "Tab",
                      "default-rotation0" : 0.0,
                      "default-rotation1" : 0.0,
                      "default-rotation2" : 0.0,
                      "default-scale0" : 1.0,
                      "default-scale1" : 1.0,
                      "default-scale2" : 1.0,
                      "default-shear0" : 0.0,
                      "default-shear1" : 0.0,
                      "default-shear2" : 0.0,
                      "default-translation0" : 0.0,
                      "default-translation1" : 0.0,
                      "default-translation2" : 0.0,
                      "default-width" : 150.0
                    },
                    "animationTracks" : {

                    }
                  }
                ]
              },
              {
                "trackIndex" : 54,
                "medias" : [
                  {
                    "id" : 51,
                    "_type" : "Callout",
                    "def" : {
                      "kind" : "TypeWinKey",
                      "shape" : "",
                      "style" : "",
                      "height" : 100.0,
                      "keyStyle" : 3.0,
                      "macStyleKeyText" : 0.0,
                      "separateKeysWithPlus" : 1.0,
                      "showKeyBackg" : 0.0,
                      "width" : 350.0,
                      "filename" : "C:\\Program Files\\TechSmith\\Camtasia 2022\\Media\\Studio\\Keystrokes\\en-US\\Information\\",
                      "keys" : "Ctrl+Down",
                      "name" : "Ctrl+Down"
                    },
                    "attributes" : {
                      "ident" : "",
                      "autoRotateText" : true
                    },
                    "parameters" : {
                      "translation0" : 58.7916666666665,
                      "translation1" : 150.0,
                      "scale0" : 0.35,
                      "scale1" : 0.35,
                      "sourceCrop0" : 0.0,
                      "sourceCrop1" : 0.0,
                      "sourceCrop2" : 0.0,
                      "sourceCrop3" : 0.0,
                      "geometryCrop0" : 168.571428571428,
                      "geometryCrop1" : 0.0,
                      "geometryCrop2" : 0.0,
                      "geometryCrop3" : 0.0
                    },
                    "effects" : [

                    ],
                    "start" : 0,
                    "duration" : 3528000000,
                    "mediaStart" : 0,
                    "mediaDuration" : 3528000000,
                    "scalar" : 1,
                    "metadata" : {
                      "clipSpeedAttribute" : false,
                      "default-anchor0" : 0.0,
                      "default-anchor1" : 0.0,
                      "default-anchor2" : 0.0,
                      "default-geometryCrop0" : 0.0,
                      "default-height" : 100.0,
                      "default-keystroke-key" : "Tab",
                      "default-rotation0" : 0.0,
                      "default-rotation1" : 0.0,
                      "default-rotation2" : 0.0,
                      "default-scale0" : 1.0,
                      "default-scale1" : 1.0,
                      "default-scale2" : 1.0,
                      "default-shear0" : 0.0,
                      "default-shear1" : 0.0,
                      "default-shear2" : 0.0,
                      "default-translation0" : 0.0,
                      "default-translation1" : 0.0,
                      "default-translation2" : 0.0,
                      "default-width" : 150.0
                    },
                    "animationTracks" : {

                    }
                  }
                ]
              },
              {
                "trackIndex" : 55,
                "medias" : [
                  {
                    "id" : 52,
                    "_type" : "Callout",
                    "def" : {
                      "kind" : "TypeWinKey",
                      "shape" : "",
                      "style" : "",
                      "height" : 100.0,
                      "keyStyle" : 3.0,
                      "macStyleKeyText" : 0.0,
                      "separateKeysWithPlus" : 1.0,
                      "showKeyBackg" : 0.0,
                      "width" : 350.0,
                      "filename" : "C:\\Program Files\\TechSmith\\Camtasia 2022\\Media\\Studio\\Keystrokes\\en-US\\Information\\",
                      "keys" : "Ctrl+Left",
                      "name" : "Ctrl+Left"
                    },
                    "attributes" : {
                      "ident" : "",
                      "autoRotateText" : true
                    },
                    "parameters" : {
                      "translation0" : -116.916666666668,
                      "translation1" : 450.0,
                      "scale0" : 0.35,
                      "scale1" : 0.35,
                      "sourceCrop0" : 0.0,
                      "sourceCrop1" : 0.0,
                      "sourceCrop2" : 0.0,
                      "sourceCrop3" : 0.0,
                      "geometryCrop0" : 0.0,
                      "geometryCrop1" : 0.0,
                      "geometryCrop2" : 0.0,
                      "geometryCrop3" : 0.0
                    },
                    "effects" : [

                    ],
                    "start" : 0,
                    "duration" : 3528000000,
                    "mediaStart" : 0,
                    "mediaDuration" : 3528000000,
                    "scalar" : 1,
                    "metadata" : {
                      "clipSpeedAttribute" : false,
                      "default-anchor0" : 0.0,
                      "default-anchor1" : 0.0,
                      "default-anchor2" : 0.0,
                      "default-height" : 100.0,
                      "default-keystroke-key" : "Tab",
                      "default-rotation0" : 0.0,
                      "default-rotation1" : 0.0,
                      "default-rotation2" : 0.0,
                      "default-scale0" : 1.0,
                      "default-scale1" : 1.0,
                      "default-scale2" : 1.0,
                      "default-shear0" : 0.0,
                      "default-shear1" : 0.0,
                      "default-shear2" : 0.0,
                      "default-translation0" : 0.0,
                      "default-translation1" : 0.0,
                      "default-translation2" : 0.0,
                      "default-width" : 150.0
                    },
                    "animationTracks" : {

                    }
                  }
                ]
              },
              {
                "trackIndex" : 56,
                "medias" : [
                  {
                    "id" : 53,
                    "_type" : "Callout",
                    "def" : {
                      "kind" : "TypeWinKey",
                      "shape" : "",
                      "style" : "",
                      "height" : 100.0,
                      "keyStyle" : 3.0,
                      "macStyleKeyText" : 0.0,
                      "separateKeysWithPlus" : 1.0,
                      "showKeyBackg" : 0.0,
                      "width" : 350.0,
                      "filename" : "C:\\Program Files\\TechSmith\\Camtasia 2022\\Media\\Studio\\Keystrokes\\en-US\\Information\\",
                      "keys" : "Ctrl+Up",
                      "name" : "Ctrl+Up"
                    },
                    "attributes" : {
                      "ident" : "",
                      "autoRotateText" : true
                    },
                    "parameters" : {
                      "translation0" : -116.916666666668,
                      "translation1" : 400.0,
                      "scale0" : 0.35,
                      "scale1" : 0.35,
                      "sourceCrop0" : 0.0,
                      "sourceCrop1" : 0.0,
                      "sourceCrop2" : 0.0,
                      "sourceCrop3" : 0.0,
                      "geometryCrop0" : 0.0,
                      "geometryCrop1" : 0.0,
                      "geometryCrop2" : 0.0,
                      "geometryCrop3" : 0.0
                    },
                    "effects" : [

                    ],
                    "start" : 0,
                    "duration" : 3528000000,
                    "mediaStart" : 0,
                    "mediaDuration" : 3528000000,
                    "scalar" : 1,
                    "metadata" : {
                      "clipSpeedAttribute" : false,
                      "default-anchor0" : 0.0,
                      "default-anchor1" : 0.0,
                      "default-anchor2" : 0.0,
                      "default-height" : 100.0,
                      "default-keystroke-key" : "Tab",
                      "default-rotation0" : 0.0,
                      "default-rotation1" : 0.0,
                      "default-rotation2" : 0.0,
                      "default-scale0" : 1.0,
                      "default-scale1" : 1.0,
                      "default-scale2" : 1.0,
                      "default-shear0" : 0.0,
                      "default-shear1" : 0.0,
                      "default-shear2" : 0.0,
                      "default-translation0" : 0.0,
                      "default-translation1" : 0.0,
                      "default-translation2" : 0.0,
                      "default-width" : 150.0
                    },
                    "animationTracks" : {

                    }
                  }
                ]
              },
              {
                "trackIndex" : 57,
                "medias" : [
                  {
                    "id" : 54,
                    "_type" : "Callout",
                    "def" : {
                      "kind" : "TypeWinKey",
                      "shape" : "",
                      "style" : "",
                      "height" : 100.0,
                      "keyStyle" : 3.0,
                      "macStyleKeyText" : 0.0,
                      "separateKeysWithPlus" : 1.0,
                      "showKeyBackg" : 0.0,
                      "width" : 350.0,
                      "filename" : "C:\\Program Files\\TechSmith\\Camtasia 2022\\Media\\Studio\\Keystrokes\\en-US\\Information\\",
                      "keys" : "Ctrl+Down",
                      "name" : "Ctrl+Down"
                    },
                    "attributes" : {
                      "ident" : "",
                      "autoRotateText" : true
                    },
                    "parameters" : {
                      "translation0" : -116.916666666668,
                      "translation1" : 350.0,
                      "scale0" : 0.35,
                      "scale1" : 0.35,
                      "sourceCrop0" : 0.0,
                      "sourceCrop1" : 0.0,
                      "sourceCrop2" : 0.0,
                      "sourceCrop3" : 0.0,
                      "geometryCrop0" : 0.0,
                      "geometryCrop1" : 0.0,
                      "geometryCrop2" : 0.0,
                      "geometryCrop3" : 0.0
                    },
                    "effects" : [

                    ],
                    "start" : 0,
                    "duration" : 3528000000,
                    "mediaStart" : 0,
                    "mediaDuration" : 3528000000,
                    "scalar" : 1,
                    "metadata" : {
                      "clipSpeedAttribute" : false,
                      "default-anchor0" : 0.0,
                      "default-anchor1" : 0.0,
                      "default-anchor2" : 0.0,
                      "default-geometryCrop2" : 0.0,
                      "default-height" : 100.0,
                      "default-keystroke-key" : "Tab",
                      "default-rotation0" : 0.0,
                      "default-rotation1" : 0.0,
                      "default-rotation2" : 0.0,
                      "default-scale0" : 1.0,
                      "default-scale1" : 1.0,
                      "default-scale2" : 1.0,
                      "default-shear0" : 0.0,
                      "default-shear1" : 0.0,
                      "default-shear2" : 0.0,
                      "default-translation0" : 0.0,
                      "default-translation1" : 0.0,
                      "default-translation2" : 0.0,
                      "default-width" : 150.0
                    },
                    "animationTracks" : {

                    }
                  }
                ]
              },
              {
                "trackIndex" : 58,
                "medias" : [
                ]
              },
              {
                "trackIndex" : 59,
                "medias" : [
                  {
                    "id" : 55,
                    "_type" : "Callout",
                    "def" : {
                      "kind" : "TypeWinKey",
                      "shape" : "",
                      "style" : "",
                      "height" : 100.0,
                      "keyStyle" : 3.0,
                      "macStyleKeyText" : 0.0,
                      "separateKeysWithPlus" : 1.0,
                      "showKeyBackg" : 0.0,
                      "width" : 450.0,
                      "filename" : "C:\\Program Files\\TechSmith\\Camtasia 2022\\Media\\Studio\\Keystrokes\\en-US\\Information\\",
                      "keys" : "Ctrl+Shift",
                      "name" : "Ctrl+Shift"
                    },
                    "attributes" : {
                      "ident" : "",
                      "autoRotateText" : true
                    },
                    "parameters" : {
                      "translation0" : -99.416666666668,
                      "translation1" : 300.0,
                      "scale0" : 0.35,
                      "scale1" : 0.35,
                      "sourceCrop0" : 0.0,
                      "sourceCrop1" : 0.0,
                      "sourceCrop2" : 0.0,
                      "sourceCrop3" : 0.0,
                      "geometryCrop0" : 0.0,
                      "geometryCrop1" : 0.0,
                      "geometryCrop2" : 0.0,
                      "geometryCrop3" : 0.0
                    },
                    "effects" : [

                    ],
                    "start" : 0,
                    "duration" : 3528000000,
                    "mediaStart" : 0,
                    "mediaDuration" : 3528000000,
                    "scalar" : 1,
                    "metadata" : {
                      "clipSpeedAttribute" : false,
                      "default-anchor0" : 0.0,
                      "default-anchor1" : 0.0,
                      "default-anchor2" : 0.0,
                      "default-geometryCrop2" : 0.0,
                      "default-height" : 100.0,
                      "default-keystroke-key" : "Tab",
                      "default-rotation0" : 0.0,
                      "default-rotation1" : 0.0,
                      "default-rotation2" : 0.0,
                      "default-scale0" : 1.0,
                      "default-scale1" : 1.0,
                      "default-scale2" : 1.0,
                      "default-shear0" : 0.0,
                      "default-shear1" : 0.0,
                      "default-shear2" : 0.0,
                      "default-translation0" : 0.0,
                      "default-translation1" : 0.0,
                      "default-translation2" : 0.0,
                      "default-width" : 150.0
                    },
                    "animationTracks" : {

                    }
                  }
                ]
              },
              {
                "trackIndex" : 60,
                "medias" : [
                ]
              },
              {
                "trackIndex" : 61,
                "medias" : [
                  {
                    "id" : 56,
                    "_type" : "Callout",
                    "def" : {
                      "kind" : "TypeWinKey",
                      "shape" : "",
                      "style" : "",
                      "height" : 100.0,
                      "keyStyle" : 3.0,
                      "macStyleKeyText" : 0.0,
                      "separateKeysWithPlus" : 1.0,
                      "showKeyBackg" : 0.0,
                      "width" : 450.0,
                      "filename" : "C:\\Program Files\\TechSmith\\Camtasia 2022\\Media\\Studio\\Keystrokes\\en-US\\Information\\",
                      "keys" : "Ctrl+Shift",
                      "name" : "Ctrl+Shift"
                    },
                    "attributes" : {
                      "ident" : "",
                      "autoRotateText" : true
                    },
                    "parameters" : {
                      "translation0" : -99.416666666668,
                      "translation1" : 250.0,
                      "scale0" : 0.35,
                      "scale1" : 0.35,
                      "sourceCrop0" : 0.0,
                      "sourceCrop1" : 0.0,
                      "sourceCrop2" : 0.0,
                      "sourceCrop3" : 0.0,
                      "geometryCrop0" : 0.0,
                      "geometryCrop1" : 0.0,
                      "geometryCrop2" : 0.0,
                      "geometryCrop3" : 0.0
                    },
                    "effects" : [

                    ],
                    "start" : 0,
                    "duration" : 3528000000,
                    "mediaStart" : 0,
                    "mediaDuration" : 3528000000,
                    "scalar" : 1,
                    "metadata" : {
                      "clipSpeedAttribute" : false,
                      "default-anchor0" : 0.0,
                      "default-anchor1" : 0.0,
                      "default-anchor2" : 0.0,
                      "default-height" : 100.0,
                      "default-keystroke-key" : "Tab",
                      "default-rotation0" : 0.0,
                      "default-rotation1" : 0.0,
                      "default-rotation2" : 0.0,
                      "default-scale0" : 1.0,
                      "default-scale1" : 1.0,
                      "default-scale2" : 1.0,
                      "default-shear0" : 0.0,
                      "default-shear1" : 0.0,
                      "default-shear2" : 0.0,
                      "default-translation0" : 0.0,
                      "default-translation1" : 0.0,
                      "default-translation2" : 0.0,
                      "default-width" : 150.0
                    },
                    "animationTracks" : {

                    }
                  }
                ]
              },
              {
                "trackIndex" : 62,
                "medias" : [
                ]
              },
              {
                "trackIndex" : 63,
                "medias" : [
                  {
                    "id" : 57,
                    "_type" : "Callout",
                    "def" : {
                      "kind" : "TypeWinKey",
                      "shape" : "",
                      "style" : "",
                      "height" : 100.0,
                      "keyStyle" : 3.0,
                      "macStyleKeyText" : 0.0,
                      "separateKeysWithPlus" : 1.0,
                      "showKeyBackg" : 0.0,
                      "width" : 450.0,
                      "filename" : "C:\\Program Files\\TechSmith\\Camtasia 2022\\Media\\Studio\\Keystrokes\\en-US\\Information\\",
                      "keys" : "Ctrl+Shift",
                      "name" : "Ctrl+Shift"
                    },
                    "attributes" : {
                      "ident" : "",
                      "autoRotateText" : true
                    },
                    "parameters" : {
                      "translation0" : -99.416666666668,
                      "translation1" : 200.0,
                      "scale0" : 0.35,
                      "scale1" : 0.35,
                      "sourceCrop0" : 0.0,
                      "sourceCrop1" : 0.0,
                      "sourceCrop2" : 0.0,
                      "sourceCrop3" : 0.0,
                      "geometryCrop0" : 0.0,
                      "geometryCrop1" : 0.0,
                      "geometryCrop2" : 0.0,
                      "geometryCrop3" : 0.0
                    },
                    "effects" : [

                    ],
                    "start" : 0,
                    "duration" : 3528000000,
                    "mediaStart" : 0,
                    "mediaDuration" : 3528000000,
                    "scalar" : 1,
                    "metadata" : {
                      "clipSpeedAttribute" : false,
                      "default-anchor0" : 0.0,
                      "default-anchor1" : 0.0,
                      "default-anchor2" : 0.0,
                      "default-height" : 100.0,
                      "default-keystroke-key" : "Tab",
                      "default-rotation0" : 0.0,
                      "default-rotation1" : 0.0,
                      "default-rotation2" : 0.0,
                      "default-scale0" : 1.0,
                      "default-scale1" : 1.0,
                      "default-scale2" : 1.0,
                      "default-shear0" : 0.0,
                      "default-shear1" : 0.0,
                      "default-shear2" : 0.0,
                      "default-translation0" : 0.0,
                      "default-translation1" : 0.0,
                      "default-translation2" : 0.0,
                      "default-width" : 150.0
                    },
                    "animationTracks" : {

                    }
                  }
                ]
              },
              {
                "trackIndex" : 64,
                "medias" : [
                ]
              },
              {
                "trackIndex" : 65,
                "medias" : [
                  {
                    "id" : 58,
                    "_type" : "Callout",
                    "def" : {
                      "kind" : "TypeWinKey",
                      "shape" : "",
                      "style" : "",
                      "height" : 100.0,
                      "keyStyle" : 3.0,
                      "macStyleKeyText" : 0.0,
                      "separateKeysWithPlus" : 1.0,
                      "showKeyBackg" : 0.0,
                      "width" : 450.0,
                      "filename" : "C:\\Program Files\\TechSmith\\Camtasia 2022\\Media\\Studio\\Keystrokes\\en-US\\Information\\",
                      "keys" : "Ctrl+Shift",
                      "name" : "Ctrl+Shift"
                    },
                    "attributes" : {
                      "ident" : "",
                      "autoRotateText" : true
                    },
                    "parameters" : {
                      "translation0" : -99.416666666668,
                      "translation1" : 150.0,
                      "scale0" : 0.35,
                      "scale1" : 0.35,
                      "sourceCrop0" : 0.0,
                      "sourceCrop1" : 0.0,
                      "sourceCrop2" : 0.0,
                      "sourceCrop3" : 0.0,
                      "geometryCrop0" : 0.0,
                      "geometryCrop1" : 0.0,
                      "geometryCrop2" : 0.0,
                      "geometryCrop3" : 0.0
                    },
                    "effects" : [

                    ],
                    "start" : 0,
                    "duration" : 3528000000,
                    "mediaStart" : 0,
                    "mediaDuration" : 3528000000,
                    "scalar" : 1,
                    "metadata" : {
                      "clipSpeedAttribute" : false,
                      "default-anchor0" : 0.0,
                      "default-anchor1" : 0.0,
                      "default-anchor2" : 0.0,
                      "default-height" : 100.0,
                      "default-keystroke-key" : "Tab",
                      "default-rotation0" : 0.0,
                      "default-rotation1" : 0.0,
                      "default-rotation2" : 0.0,
                      "default-scale0" : 1.0,
                      "default-scale1" : 1.0,
                      "default-scale2" : 1.0,
                      "default-shear0" : 0.0,
                      "default-shear1" : 0.0,
                      "default-shear2" : 0.0,
                      "default-translation0" : 0.0,
                      "default-translation1" : 0.0,
                      "default-translation2" : 0.0,
                      "default-width" : 150.0
                    },
                    "animationTracks" : {

                    }
                  }
                ]
              },
              {
                "trackIndex" : 66,
                "medias" : [
                  {
                    "id" : 59,
                    "_type" : "Callout",
                    "def" : {
                      "kind" : "TypeWinKey",
                      "shape" : "",
                      "style" : "",
                      "height" : 100.0,
                      "keyStyle" : 3.0,
                      "macStyleKeyText" : 0.0,
                      "separateKeysWithPlus" : 1.0,
                      "showKeyBackg" : 0.0,
                      "width" : 350.0,
                      "filename" : "C:\\Program Files\\TechSmith\\Camtasia 2022\\Media\\Studio\\Keystrokes\\en-US\\Information\\",
                      "keys" : "Alt+G",
                      "name" : "Alt+G"
                    },
                    "attributes" : {
                      "ident" : "",
                      "autoRotateText" : true
                    },
                    "parameters" : {
                      "translation0" : -811.749999999999,
                      "translation1" : -99.34375,
                      "scale0" : 0.35,
                      "scale1" : 0.35,
                      "sourceCrop0" : 0.0,
                      "sourceCrop1" : 0.0,
                      "sourceCrop2" : 0.0,
                      "sourceCrop3" : 0.0,
                      "geometryCrop0" : 0.0,
                      "geometryCrop1" : 0.0,
                      "geometryCrop2" : 0.0,
                      "geometryCrop3" : 0.0
                    },
                    "effects" : [

                    ],
                    "start" : 0,
                    "duration" : 3528000000,
                    "mediaStart" : 0,
                    "mediaDuration" : 3528000000,
                    "scalar" : 1,
                    "metadata" : {
                      "clipSpeedAttribute" : false,
                      "default-anchor0" : 0.0,
                      "default-anchor1" : 0.0,
                      "default-anchor2" : 0.0,
                      "default-height" : 100.0,
                      "default-keystroke-key" : "Tab",
                      "default-rotation0" : 0.0,
                      "default-rotation1" : 0.0,
                      "default-rotation2" : 0.0,
                      "default-scale0" : 1.0,
                      "default-scale1" : 1.0,
                      "default-scale2" : 1.0,
                      "default-shear0" : 0.0,
                      "default-shear1" : 0.0,
                      "default-shear2" : 0.0,
                      "default-translation0" : 0.0,
                      "default-translation1" : 0.0,
                      "default-translation2" : 0.0,
                      "default-width" : 150.0
                    },
                    "animationTracks" : {

                    }
                  }
                ]
              },
              {
                "trackIndex" : 67,
                "medias" : [
                  {
                    "id" : 60,
                    "_type" : "Callout",
                    "def" : {
                      "kind" : "TypeWinKey",
                      "shape" : "",
                      "style" : "",
                      "height" : 100.0,
                      "keyStyle" : 3.0,
                      "macStyleKeyText" : 0.0,
                      "separateKeysWithPlus" : 1.0,
                      "showKeyBackg" : 0.0,
                      "width" : 350.0,
                      "filename" : "C:\\Program Files\\TechSmith\\Camtasia 2022\\Media\\Studio\\Keystrokes\\en-US\\Information\\",
                      "keys" : "Ctrl+Delete",
                      "name" : "Ctrl+Delete"
                    },
                    "attributes" : {
                      "ident" : "",
                      "autoRotateText" : true
                    },
                    "parameters" : {
                      "translation0" : -116.166666666667,
                      "translation1" : -50.0,
                      "scale0" : 0.35,
                      "scale1" : 0.35,
                      "sourceCrop0" : 0.0,
                      "sourceCrop1" : 0.0,
                      "sourceCrop2" : 0.0,
                      "sourceCrop3" : 0.0,
                      "geometryCrop0" : 0.0,
                      "geometryCrop1" : 0.0,
                      "geometryCrop2" : 0.0,
                      "geometryCrop3" : 0.0
                    },
                    "effects" : [

                    ],
                    "start" : 0,
                    "duration" : 3528000000,
                    "mediaStart" : 0,
                    "mediaDuration" : 3528000000,
                    "scalar" : 1,
                    "metadata" : {
                      "clipSpeedAttribute" : false,
                      "default-anchor0" : 0.0,
                      "default-anchor1" : 0.0,
                      "default-anchor2" : 0.0,
                      "default-height" : 100.0,
                      "default-keystroke-key" : "Tab",
                      "default-rotation0" : 0.0,
                      "default-rotation1" : 0.0,
                      "default-rotation2" : 0.0,
                      "default-scale0" : 1.0,
                      "default-scale1" : 1.0,
                      "default-scale2" : 1.0,
                      "default-shear0" : 0.0,
                      "default-shear1" : 0.0,
                      "default-shear2" : 0.0,
                      "default-translation0" : 0.0,
                      "default-translation1" : 0.0,
                      "default-translation2" : 0.0,
                      "default-width" : 150.0
                    },
                    "animationTracks" : {

                    }
                  }
                ]
              },
              {
                "trackIndex" : 68,
                "medias" : [
                  {
                    "id" : 61,
                    "_type" : "Callout",
                    "def" : {
                      "kind" : "TypeWinKey",
                      "shape" : "",
                      "style" : "",
                      "height" : 100.0,
                      "keyStyle" : 3.0,
                      "macStyleKeyText" : 0.0,
                      "separateKeysWithPlus" : 1.0,
                      "showKeyBackg" : 0.0,
                      "width" : 350.0,
                      "filename" : "C:\\Program Files\\TechSmith\\Camtasia 2022\\Media\\Studio\\Keystrokes\\en-US\\Information\\",
                      "keys" : "Alt+G",
                      "name" : "Alt+G"
                    },
                    "attributes" : {
                      "ident" : "",
                      "autoRotateText" : true
                    },
                    "parameters" : {
                      "translation0" : -811.749999999999,
                      "translation1" : -149.34375,
                      "scale0" : 0.35,
                      "scale1" : 0.35,
                      "sourceCrop0" : 0.0,
                      "sourceCrop1" : 0.0,
                      "sourceCrop2" : 0.0,
                      "sourceCrop3" : 0.0,
                      "geometryCrop0" : 0.0,
                      "geometryCrop1" : 0.0,
                      "geometryCrop2" : 0.0,
                      "geometryCrop3" : 0.0
                    },
                    "effects" : [

                    ],
                    "start" : 0,
                    "duration" : 3528000000,
                    "mediaStart" : 0,
                    "mediaDuration" : 3528000000,
                    "scalar" : 1,
                    "metadata" : {
                      "clipSpeedAttribute" : false,
                      "default-anchor0" : 0.0,
                      "default-anchor1" : 0.0,
                      "default-anchor2" : 0.0,
                      "default-height" : 100.0,
                      "default-keystroke-key" : "Tab",
                      "default-rotation0" : 0.0,
                      "default-rotation1" : 0.0,
                      "default-rotation2" : 0.0,
                      "default-scale0" : 1.0,
                      "default-scale1" : 1.0,
                      "default-scale2" : 1.0,
                      "default-shear0" : 0.0,
                      "default-shear1" : 0.0,
                      "default-shear2" : 0.0,
                      "default-translation0" : 0.0,
                      "default-translation1" : 0.0,
                      "default-translation2" : 0.0,
                      "default-width" : 150.0
                    },
                    "animationTracks" : {

                    }
                  }
                ]
              },
              {
                "trackIndex" : 69,
                "medias" : [
                  {
                    "id" : 62,
                    "_type" : "Callout",
                    "def" : {
                      "kind" : "TypeWinKey",
                      "shape" : "",
                      "style" : "",
                      "height" : 100.0,
                      "keyStyle" : 3.0,
                      "macStyleKeyText" : 0.0,
                      "separateKeysWithPlus" : 1.0,
                      "showKeyBackg" : 0.0,
                      "width" : 350.0,
                      "filename" : "C:\\Program Files\\TechSmith\\Camtasia 2022\\Media\\Studio\\Keystrokes\\en-US\\Information\\",
                      "keys" : "Ctrl+Delete",
                      "name" : "Ctrl+Delete"
                    },
                    "attributes" : {
                      "ident" : "",
                      "autoRotateText" : true
                    },
                    "parameters" : {
                      "translation0" : -116.166666666667,
                      "translation1" : -100.0,
                      "scale0" : 0.35,
                      "scale1" : 0.35,
                      "sourceCrop0" : 0.0,
                      "sourceCrop1" : 0.0,
                      "sourceCrop2" : 0.0,
                      "sourceCrop3" : 0.0,
                      "geometryCrop0" : 0.0,
                      "geometryCrop1" : 0.0,
                      "geometryCrop2" : 0.0,
                      "geometryCrop3" : 0.0
                    },
                    "effects" : [

                    ],
                    "start" : 0,
                    "duration" : 3528000000,
                    "mediaStart" : 0,
                    "mediaDuration" : 3528000000,
                    "scalar" : 1,
                    "metadata" : {
                      "clipSpeedAttribute" : false,
                      "default-anchor0" : 0.0,
                      "default-anchor1" : 0.0,
                      "default-anchor2" : 0.0,
                      "default-height" : 100.0,
                      "default-keystroke-key" : "Tab",
                      "default-rotation0" : 0.0,
                      "default-rotation1" : 0.0,
                      "default-rotation2" : 0.0,
                      "default-scale0" : 1.0,
                      "default-scale1" : 1.0,
                      "default-scale2" : 1.0,
                      "default-shear0" : 0.0,
                      "default-shear1" : 0.0,
                      "default-shear2" : 0.0,
                      "default-translation0" : 0.0,
                      "default-translation1" : 0.0,
                      "default-translation2" : 0.0,
                      "default-width" : 150.0
                    },
                    "animationTracks" : {

                    }
                  }
                ]
              },
              {
                "trackIndex" : 70,
                "medias" : [
                  {
                    "id" : 63,
                    "_type" : "Callout",
                    "def" : {
                      "kind" : "TypeWinKey",
                      "shape" : "",
                      "style" : "",
                      "height" : 100.0,
                      "keyStyle" : 3.0,
                      "macStyleKeyText" : 0.0,
                      "separateKeysWithPlus" : 1.0,
                      "showKeyBackg" : 0.0,
                      "width" : 350.0,
                      "filename" : "C:\\Program Files\\TechSmith\\Camtasia 2022\\Media\\Studio\\Keystrokes\\en-US\\Information\\",
                      "keys" : "Alt+U",
                      "name" : "Alt+U"
                    },
                    "attributes" : {
                      "ident" : "",
                      "autoRotateText" : true
                    },
                    "parameters" : {
                      "translation0" : -812.416666666665,
                      "translation1" : -199.34375,
                      "scale0" : 0.35,
                      "scale1" : 0.35,
                      "sourceCrop0" : 0.0,
                      "sourceCrop1" : 0.0,
                      "sourceCrop2" : 0.0,
                      "sourceCrop3" : 0.0,
                      "geometryCrop0" : 0.0,
                      "geometryCrop1" : 0.0,
                      "geometryCrop2" : 0.0,
                      "geometryCrop3" : 0.0
                    },
                    "effects" : [

                    ],
                    "start" : 0,
                    "duration" : 3528000000,
                    "mediaStart" : 0,
                    "mediaDuration" : 3528000000,
                    "scalar" : 1,
                    "metadata" : {
                      "clipSpeedAttribute" : false,
                      "default-anchor0" : 0.0,
                      "default-anchor1" : 0.0,
                      "default-anchor2" : 0.0,
                      "default-height" : 100.0,
                      "default-keystroke-key" : "Tab",
                      "default-rotation0" : 0.0,
                      "default-rotation1" : 0.0,
                      "default-rotation2" : 0.0,
                      "default-scale0" : 1.0,
                      "default-scale1" : 1.0,
                      "default-scale2" : 1.0,
                      "default-shear0" : 0.0,
                      "default-shear1" : 0.0,
                      "default-shear2" : 0.0,
                      "default-translation0" : 0.0,
                      "default-translation1" : 0.0,
                      "default-translation2" : 0.0,
                      "default-width" : 150.0
                    },
                    "animationTracks" : {

                    }
                  }
                ]
              },
              {
                "trackIndex" : 71,
                "medias" : [
                  {
                    "id" : 64,
                    "_type" : "Callout",
                    "def" : {
                      "kind" : "TypeWinKey",
                      "shape" : "",
                      "style" : "",
                      "height" : 100.0,
                      "keyStyle" : 3.0,
                      "macStyleKeyText" : 0.0,
                      "separateKeysWithPlus" : 1.0,
                      "showKeyBackg" : 0.0,
                      "width" : 350.0,
                      "filename" : "C:\\Program Files\\TechSmith\\Camtasia 2022\\Media\\Studio\\Keystrokes\\en-US\\Information\\",
                      "keys" : "Ctrl+Delete",
                      "name" : "Ctrl+Delete"
                    },
                    "attributes" : {
                      "ident" : "",
                      "autoRotateText" : true
                    },
                    "parameters" : {
                      "translation0" : -116.833333333333,
                      "translation1" : -150.0,
                      "scale0" : 0.35,
                      "scale1" : 0.35,
                      "sourceCrop0" : 0.0,
                      "sourceCrop1" : 0.0,
                      "sourceCrop2" : 0.0,
                      "sourceCrop3" : 0.0,
                      "geometryCrop0" : 0.0,
                      "geometryCrop1" : 0.0,
                      "geometryCrop2" : 0.0,
                      "geometryCrop3" : 0.0
                    },
                    "effects" : [

                    ],
                    "start" : 0,
                    "duration" : 3528000000,
                    "mediaStart" : 0,
                    "mediaDuration" : 3528000000,
                    "scalar" : 1,
                    "metadata" : {
                      "clipSpeedAttribute" : false,
                      "default-anchor0" : 0.0,
                      "default-anchor1" : 0.0,
                      "default-anchor2" : 0.0,
                      "default-height" : 100.0,
                      "default-keystroke-key" : "Tab",
                      "default-rotation0" : 0.0,
                      "default-rotation1" : 0.0,
                      "default-rotation2" : 0.0,
                      "default-scale0" : 1.0,
                      "default-scale1" : 1.0,
                      "default-scale2" : 1.0,
                      "default-shear0" : 0.0,
                      "default-shear1" : 0.0,
                      "default-shear2" : 0.0,
                      "default-translation0" : 0.0,
                      "default-translation1" : 0.0,
                      "default-translation2" : 0.0,
                      "default-width" : 150.0
                    },
                    "animationTracks" : {

                    }
                  }
                ]
              },
              {
                "trackIndex" : 72,
                "medias" : [
                  {
                    "id" : 65,
                    "_type" : "Callout",
                    "def" : {
                      "kind" : "TypeWinKey",
                      "shape" : "",
                      "style" : "",
                      "height" : 100.0,
                      "keyStyle" : 3.0,
                      "macStyleKeyText" : 0.0,
                      "separateKeysWithPlus" : 1.0,
                      "showKeyBackg" : 0.0,
                      "width" : 350.0,
                      "filename" : "C:\\Program Files\\TechSmith\\Camtasia 2022\\Media\\Studio\\Keystrokes\\en-US\\Information\\",
                      "keys" : "Ctrl+Delete",
                      "name" : "Ctrl+Delete"
                    },
                    "attributes" : {
                      "ident" : "",
                      "autoRotateText" : true
                    },
                    "parameters" : {
                      "translation0" : -116.833333333333,
                      "translation1" : -201.53125,
                      "scale0" : 0.35,
                      "scale1" : 0.35,
                      "sourceCrop0" : 0.0,
                      "sourceCrop1" : 0.0,
                      "sourceCrop2" : 0.0,
                      "sourceCrop3" : 0.0,
                      "geometryCrop0" : 0.0,
                      "geometryCrop1" : 0.0,
                      "geometryCrop2" : 0.0,
                      "geometryCrop3" : 0.0
                    },
                    "effects" : [

                    ],
                    "start" : 0,
                    "duration" : 3528000000,
                    "mediaStart" : 0,
                    "mediaDuration" : 3528000000,
                    "scalar" : 1,
                    "metadata" : {
                      "clipSpeedAttribute" : false,
                      "default-anchor0" : 0.0,
                      "default-anchor1" : 0.0,
                      "default-anchor2" : 0.0,
                      "default-height" : 100.0,
                      "default-keystroke-key" : "Tab",
                      "default-rotation0" : 0.0,
                      "default-rotation1" : 0.0,
                      "default-rotation2" : 0.0,
                      "default-scale0" : 1.0,
                      "default-scale1" : 1.0,
                      "default-scale2" : 1.0,
                      "default-shear0" : 0.0,
                      "default-shear1" : 0.0,
                      "default-shear2" : 0.0,
                      "default-translation0" : 0.0,
                      "default-translation1" : 0.0,
                      "default-translation2" : 0.0,
                      "default-width" : 150.0
                    },
                    "animationTracks" : {

                    }
                  }
                ]
              },
              {
                "trackIndex" : 73,
                "medias" : [
                  {
                    "id" : 66,
                    "_type" : "Callout",
                    "def" : {
                      "kind" : "TypeWinKey",
                      "shape" : "",
                      "style" : "",
                      "height" : 100.0,
                      "keyStyle" : 3.0,
                      "macStyleKeyText" : 0.0,
                      "separateKeysWithPlus" : 1.0,
                      "showKeyBackg" : 0.0,
                      "width" : 350.0,
                      "filename" : "C:\\Program Files\\TechSmith\\Camtasia 2022\\Media\\Studio\\Keystrokes\\en-US\\Information\\",
                      "keys" : "Alt+G",
                      "name" : "Alt+G"
                    },
                    "attributes" : {
                      "ident" : "",
                      "autoRotateText" : true
                    },
                    "parameters" : {
                      "translation0" : -811.7,
                      "translation1" : -348.308455882353,
                      "scale0" : 0.35,
                      "scale1" : 0.35,
                      "sourceCrop0" : 0.0,
                      "sourceCrop1" : 0.0,
                      "sourceCrop2" : 0.0,
                      "sourceCrop3" : 0.0,
                      "geometryCrop0" : 0.0,
                      "geometryCrop1" : 0.0,
                      "geometryCrop2" : 0.0,
                      "geometryCrop3" : 0.0
                    },
                    "effects" : [

                    ],
                    "start" : 0,
                    "duration" : 3528000000,
                    "mediaStart" : 0,
                    "mediaDuration" : 3528000000,
                    "scalar" : 1,
                    "metadata" : {
                      "clipSpeedAttribute" : false,
                      "default-anchor0" : 0.0,
                      "default-anchor1" : 0.0,
                      "default-anchor2" : 0.0,
                      "default-height" : 100.0,
                      "default-keystroke-key" : "Tab",
                      "default-rotation0" : 0.0,
                      "default-rotation1" : 0.0,
                      "default-rotation2" : 0.0,
                      "default-scale0" : 1.0,
                      "default-scale1" : 1.0,
                      "default-scale2" : 1.0,
                      "default-shear0" : 0.0,
                      "default-shear1" : 0.0,
                      "default-shear2" : 0.0,
                      "default-translation0" : 0.0,
                      "default-translation1" : 0.0,
                      "default-translation2" : 0.0,
                      "default-width" : 150.0
                    },
                    "animationTracks" : {

                    }
                  }
                ]
              },
              {
                "trackIndex" : 74,
                "medias" : [
                  {
                    "id" : 67,
                    "_type" : "Callout",
                    "def" : {
                      "kind" : "TypeWinKey",
                      "shape" : "",
                      "style" : "",
                      "height" : 100.0,
                      "keyStyle" : 3.0,
                      "macStyleKeyText" : 0.0,
                      "separateKeysWithPlus" : 1.0,
                      "showKeyBackg" : 0.0,
                      "width" : 350.0,
                      "filename" : "C:\\Program Files\\TechSmith\\Camtasia 2022\\Media\\Studio\\Keystrokes\\en-US\\Information\\",
                      "keys" : "Alt+U",
                      "name" : "Alt+U"
                    },
                    "attributes" : {
                      "ident" : "",
                      "autoRotateText" : true
                    },
                    "parameters" : {
                      "translation0" : -812.416666666665,
                      "translation1" : -249.34375,
                      "scale0" : 0.35,
                      "scale1" : 0.35,
                      "sourceCrop0" : 0.0,
                      "sourceCrop1" : 0.0,
                      "sourceCrop2" : 0.0,
                      "sourceCrop3" : 0.0,
                      "geometryCrop0" : 0.0,
                      "geometryCrop1" : 0.0,
                      "geometryCrop2" : 0.0,
                      "geometryCrop3" : 0.0
                    },
                    "effects" : [

                    ],
                    "start" : 0,
                    "duration" : 3528000000,
                    "mediaStart" : 0,
                    "mediaDuration" : 3528000000,
                    "scalar" : 1,
                    "metadata" : {
                      "clipSpeedAttribute" : false,
                      "default-anchor0" : 0.0,
                      "default-anchor1" : 0.0,
                      "default-anchor2" : 0.0,
                      "default-height" : 100.0,
                      "default-keystroke-key" : "Tab",
                      "default-rotation0" : 0.0,
                      "default-rotation1" : 0.0,
                      "default-rotation2" : 0.0,
                      "default-scale0" : 1.0,
                      "default-scale1" : 1.0,
                      "default-scale2" : 1.0,
                      "default-shear0" : 0.0,
                      "default-shear1" : 0.0,
                      "default-shear2" : 0.0,
                      "default-translation0" : 0.0,
                      "default-translation1" : 0.0,
                      "default-translation2" : 0.0,
                      "default-width" : 150.0
                    },
                    "animationTracks" : {

                    }
                  }
                ]
              },
              {
                "trackIndex" : 75,
                "medias" : [
                  {
                    "id" : 68,
                    "_type" : "Callout",
                    "def" : {
                      "kind" : "TypeWinKey",
                      "shape" : "",
                      "style" : "",
                      "height" : 100.0,
                      "keyStyle" : 3.0,
                      "macStyleKeyText" : 0.0,
                      "separateKeysWithPlus" : 1.0,
                      "showKeyBackg" : 0.0,
                      "width" : 350.0,
                      "filename" : "C:\\Program Files\\TechSmith\\Camtasia 2022\\Media\\Studio\\Keystrokes\\en-US\\Information\\",
                      "keys" : "Alt+G",
                      "name" : "Alt+G"
                    },
                    "attributes" : {
                      "ident" : "",
                      "autoRotateText" : true
                    },
                    "parameters" : {
                      "translation0" : -811.7,
                      "translation1" : -398.308455882353,
                      "scale0" : 0.35,
                      "scale1" : 0.35,
                      "sourceCrop0" : 0.0,
                      "sourceCrop1" : 0.0,
                      "sourceCrop2" : 0.0,
                      "sourceCrop3" : 0.0,
                      "geometryCrop0" : 0.0,
                      "geometryCrop1" : 0.0,
                      "geometryCrop2" : 0.0,
                      "geometryCrop3" : 0.0
                    },
                    "effects" : [

                    ],
                    "start" : 0,
                    "duration" : 3528000000,
                    "mediaStart" : 0,
                    "mediaDuration" : 3528000000,
                    "scalar" : 1,
                    "metadata" : {
                      "clipSpeedAttribute" : false,
                      "default-anchor0" : 0.0,
                      "default-anchor1" : 0.0,
                      "default-anchor2" : 0.0,
                      "default-height" : 100.0,
                      "default-keystroke-key" : "Tab",
                      "default-rotation0" : 0.0,
                      "default-rotation1" : 0.0,
                      "default-rotation2" : 0.0,
                      "default-scale0" : 1.0,
                      "default-scale1" : 1.0,
                      "default-scale2" : 1.0,
                      "default-shear0" : 0.0,
                      "default-shear1" : 0.0,
                      "default-shear2" : 0.0,
                      "default-translation0" : 0.0,
                      "default-translation1" : 0.0,
                      "default-translation2" : 0.0,
                      "default-width" : 150.0
                    },
                    "animationTracks" : {

                    }
                  }
                ]
              },
              {
                "trackIndex" : 76,
                "medias" : [
                  {
                    "id" : 69,
                    "_type" : "Callout",
                    "def" : {
                      "kind" : "TypeWinKey",
                      "shape" : "",
                      "style" : "",
                      "height" : 100.0,
                      "keyStyle" : 3.0,
                      "macStyleKeyText" : 0.0,
                      "separateKeysWithPlus" : 1.0,
                      "showKeyBackg" : 0.0,
                      "width" : 350.0,
                      "filename" : "C:\\Program Files\\TechSmith\\Camtasia 2022\\Media\\Studio\\Keystrokes\\en-US\\Information\\",
                      "keys" : "Alt+V",
                      "name" : "Alt+V"
                    },
                    "attributes" : {
                      "ident" : "",
                      "autoRotateText" : true
                    },
                    "parameters" : {
                      "translation0" : -116.833333333333,
                      "translation1" : -299.34375,
                      "scale0" : 0.35,
                      "scale1" : 0.35,
                      "sourceCrop0" : 0.0,
                      "sourceCrop1" : 0.0,
                      "sourceCrop2" : 0.0,
                      "sourceCrop3" : 0.0,
                      "geometryCrop0" : 0.0,
                      "geometryCrop1" : 0.0,
                      "geometryCrop2" : 0.0,
                      "geometryCrop3" : 0.0
                    },
                    "effects" : [

                    ],
                    "start" : 0,
                    "duration" : 3528000000,
                    "mediaStart" : 0,
                    "mediaDuration" : 3528000000,
                    "scalar" : 1,
                    "metadata" : {
                      "clipSpeedAttribute" : false,
                      "default-anchor0" : 0.0,
                      "default-anchor1" : 0.0,
                      "default-anchor2" : 0.0,
                      "default-height" : 100.0,
                      "default-keystroke-key" : "Tab",
                      "default-rotation0" : 0.0,
                      "default-rotation1" : 0.0,
                      "default-rotation2" : 0.0,
                      "default-scale0" : 1.0,
                      "default-scale1" : 1.0,
                      "default-scale2" : 1.0,
                      "default-shear0" : 0.0,
                      "default-shear1" : 0.0,
                      "default-shear2" : 0.0,
                      "default-translation0" : 0.0,
                      "default-translation1" : 0.0,
                      "default-translation2" : 0.0,
                      "default-width" : 150.0
                    },
                    "animationTracks" : {

                    }
                  }
                ]
              },
              {
                "trackIndex" : 77,
                "medias" : [
                  {
                    "id" : 70,
                    "_type" : "Callout",
                    "def" : {
                      "kind" : "TypeWinKey",
                      "shape" : "",
                      "style" : "",
                      "height" : 100.0,
                      "keyStyle" : 3.0,
                      "macStyleKeyText" : 0.0,
                      "separateKeysWithPlus" : 1.0,
                      "showKeyBackg" : 0.0,
                      "width" : 350.0,
                      "filename" : "C:\\Program Files\\TechSmith\\Camtasia 2022\\Media\\Studio\\Keystrokes\\en-US\\Information\\",
                      "keys" : "Alt+G",
                      "name" : "Alt+G"
                    },
                    "attributes" : {
                      "ident" : "",
                      "autoRotateText" : true
                    },
                    "parameters" : {
                      "translation0" : -812.416666666665,
                      "translation1" : -299.34375,
                      "scale0" : 0.35,
                      "scale1" : 0.35,
                      "sourceCrop0" : 0.0,
                      "sourceCrop1" : 0.0,
                      "sourceCrop2" : 0.0,
                      "sourceCrop3" : 0.0,
                      "geometryCrop0" : 0.0,
                      "geometryCrop1" : 0.0,
                      "geometryCrop2" : 0.0,
                      "geometryCrop3" : 0.0
                    },
                    "effects" : [

                    ],
                    "start" : 0,
                    "duration" : 3528000000,
                    "mediaStart" : 0,
                    "mediaDuration" : 3528000000,
                    "scalar" : 1,
                    "metadata" : {
                      "clipSpeedAttribute" : false,
                      "default-anchor0" : 0.0,
                      "default-anchor1" : 0.0,
                      "default-anchor2" : 0.0,
                      "default-height" : 100.0,
                      "default-keystroke-key" : "Tab",
                      "default-rotation0" : 0.0,
                      "default-rotation1" : 0.0,
                      "default-rotation2" : 0.0,
                      "default-scale0" : 1.0,
                      "default-scale1" : 1.0,
                      "default-scale2" : 1.0,
                      "default-shear0" : 0.0,
                      "default-shear1" : 0.0,
                      "default-shear2" : 0.0,
                      "default-translation0" : 0.0,
                      "default-translation1" : 0.0,
                      "default-translation2" : 0.0,
                      "default-width" : 150.0
                    },
                    "animationTracks" : {

                    }
                  }
                ]
              },
              {
                "trackIndex" : 78,
                "medias" : [
                  {
                    "id" : 71,
                    "_type" : "Callout",
                    "def" : {
                      "kind" : "TypeWinKey",
                      "shape" : "",
                      "style" : "",
                      "height" : 100.0,
                      "keyStyle" : 3.0,
                      "macStyleKeyText" : 0.0,
                      "separateKeysWithPlus" : 1.0,
                      "showKeyBackg" : 0.0,
                      "width" : 350.0,
                      "filename" : "C:\\Program Files\\TechSmith\\Camtasia 2022\\Media\\Studio\\Keystrokes\\en-US\\Information\\",
                      "keys" : "Alt+G",
                      "name" : "Alt+G"
                    },
                    "attributes" : {
                      "ident" : "",
                      "autoRotateText" : true
                    },
                    "parameters" : {
                      "translation0" : -811.7,
                      "translation1" : -448.308455882353,
                      "scale0" : 0.35,
                      "scale1" : 0.35,
                      "sourceCrop0" : 0.0,
                      "sourceCrop1" : 0.0,
                      "sourceCrop2" : 0.0,
                      "sourceCrop3" : 0.0,
                      "geometryCrop0" : 0.0,
                      "geometryCrop1" : 0.0,
                      "geometryCrop2" : 0.0,
                      "geometryCrop3" : 0.0
                    },
                    "effects" : [

                    ],
                    "start" : 0,
                    "duration" : 3528000000,
                    "mediaStart" : 0,
                    "mediaDuration" : 3528000000,
                    "scalar" : 1,
                    "metadata" : {
                      "clipSpeedAttribute" : false,
                      "default-anchor0" : 0.0,
                      "default-anchor1" : 0.0,
                      "default-anchor2" : 0.0,
                      "default-height" : 100.0,
                      "default-keystroke-key" : "Tab",
                      "default-rotation0" : 0.0,
                      "default-rotation1" : 0.0,
                      "default-rotation2" : 0.0,
                      "default-scale0" : 1.0,
                      "default-scale1" : 1.0,
                      "default-scale2" : 1.0,
                      "default-shear0" : 0.0,
                      "default-shear1" : 0.0,
                      "default-shear2" : 0.0,
                      "default-translation0" : 0.0,
                      "default-translation1" : 0.0,
                      "default-translation2" : 0.0,
                      "default-width" : 150.0
                    },
                    "animationTracks" : {

                    }
                  }
                ]
              },
              {
                "trackIndex" : 79,
                "medias" : [
                  {
                    "id" : 72,
                    "_type" : "Callout",
                    "def" : {
                      "kind" : "TypeWinKey",
                      "shape" : "",
                      "style" : "",
                      "height" : 100.0,
                      "keyStyle" : 3.0,
                      "macStyleKeyText" : 0.0,
                      "separateKeysWithPlus" : 1.0,
                      "showKeyBackg" : 0.0,
                      "width" : 350.0,
                      "filename" : "C:\\Program Files\\TechSmith\\Camtasia 2022\\Media\\Studio\\Keystrokes\\en-US\\Information\\",
                      "keys" : "Alt+V",
                      "name" : "Alt+V"
                    },
                    "attributes" : {
                      "ident" : "",
                      "autoRotateText" : true
                    },
                    "parameters" : {
                      "translation0" : -116.833333333333,
                      "translation1" : -349.34375,
                      "scale0" : 0.35,
                      "scale1" : 0.35,
                      "sourceCrop0" : 0.0,
                      "sourceCrop1" : 0.0,
                      "sourceCrop2" : 0.0,
                      "sourceCrop3" : 0.0,
                      "geometryCrop0" : 0.0,
                      "geometryCrop1" : 0.0,
                      "geometryCrop2" : 0.0,
                      "geometryCrop3" : 0.0
                    },
                    "effects" : [

                    ],
                    "start" : 0,
                    "duration" : 3528000000,
                    "mediaStart" : 0,
                    "mediaDuration" : 3528000000,
                    "scalar" : 1,
                    "metadata" : {
                      "clipSpeedAttribute" : false,
                      "default-anchor0" : 0.0,
                      "default-anchor1" : 0.0,
                      "default-anchor2" : 0.0,
                      "default-height" : 100.0,
                      "default-keystroke-key" : "Tab",
                      "default-rotation0" : 0.0,
                      "default-rotation1" : 0.0,
                      "default-rotation2" : 0.0,
                      "default-scale0" : 1.0,
                      "default-scale1" : 1.0,
                      "default-scale2" : 1.0,
                      "default-shear0" : 0.0,
                      "default-shear1" : 0.0,
                      "default-shear2" : 0.0,
                      "default-translation0" : 0.0,
                      "default-translation1" : 0.0,
                      "default-translation2" : 0.0,
                      "default-width" : 150.0
                    },
                    "animationTracks" : {

                    }
                  }
                ]
              },
              {
                "trackIndex" : 80,
                "medias" : [
                  {
                    "id" : 73,
                    "_type" : "Callout",
                    "def" : {
                      "kind" : "TypeWinKey",
                      "shape" : "",
                      "style" : "",
                      "height" : 100.0,
                      "keyStyle" : 3.0,
                      "macStyleKeyText" : 0.0,
                      "separateKeysWithPlus" : 1.0,
                      "showKeyBackg" : 0.0,
                      "width" : 150.0,
                      "filename" : "C:\\Program Files\\TechSmith\\Camtasia 2022\\Media\\Studio\\Keystrokes\\en-US\\Information\\",
                      "keys" : "F1",
                      "name" : "F1"
                    },
                    "attributes" : {
                      "ident" : "",
                      "autoRotateText" : true
                    },
                    "parameters" : {
                      "translation0" : -151.833333333333,
                      "translation1" : -251.53125,
                      "scale0" : 0.35,
                      "scale1" : 0.35,
                      "sourceCrop0" : 0.0,
                      "sourceCrop1" : 0.0,
                      "sourceCrop2" : 0.0,
                      "sourceCrop3" : 0.0,
                      "geometryCrop0" : 0.0,
                      "geometryCrop1" : 0.0,
                      "geometryCrop2" : 0.0,
                      "geometryCrop3" : 0.0
                    },
                    "effects" : [

                    ],
                    "start" : 0,
                    "duration" : 3528000000,
                    "mediaStart" : 0,
                    "mediaDuration" : 3528000000,
                    "scalar" : 1,
                    "metadata" : {
                      "clipSpeedAttribute" : false,
                      "default-anchor0" : 0.0,
                      "default-anchor1" : 0.0,
                      "default-anchor2" : 0.0,
                      "default-height" : 100.0,
                      "default-keystroke-key" : "Tab",
                      "default-rotation0" : 0.0,
                      "default-rotation1" : 0.0,
                      "default-rotation2" : 0.0,
                      "default-scale0" : 1.0,
                      "default-scale1" : 1.0,
                      "default-scale2" : 1.0,
                      "default-shear0" : 0.0,
                      "default-shear1" : 0.0,
                      "default-shear2" : 0.0,
                      "default-translation0" : 0.0,
                      "default-translation1" : 0.0,
                      "default-translation2" : 0.0,
                      "default-width" : 150.0
                    },
                    "animationTracks" : {

                    }
                  }
                ]
              },
              {
                "trackIndex" : 81,
                "medias" : [
                ]
              },
              {
                "trackIndex" : 82,
                "medias" : [
                ]
              },
              {
                "trackIndex" : 83,
                "medias" : [
                ]
              },
              {
                "trackIndex" : 84,
                "medias" : [
                ]
              },
              {
                "trackIndex" : 85,
                "medias" : [
                ]
              },
              {
                "trackIndex" : 86,
                "medias" : [
                ]
              },
              {
                "trackIndex" : 87,
                "medias" : [
                ]
              },
              {
                "trackIndex" : 88,
                "medias" : [
                ]
              },
              {
                "trackIndex" : 89,
                "medias" : [
                ]
              },
              {
                "trackIndex" : 90,
                "medias" : [
                  {
                    "id" : 74,
                    "_type" : "Group",
                    "parameters" : {
                      "translation0" : -415.0,
                      "translation1" : -99.34375,
                      "scale0" : 0.21505376344086,
                      "scale1" : 0.21875,
                      "sourceCrop0" : 0.0,
                      "sourceCrop1" : 0.0,
                      "sourceCrop2" : 0.0,
                      "sourceCrop3" : 0.0,
                      "geometryCrop0" : 0.0,
                      "geometryCrop1" : 0.0,
                      "geometryCrop2" : 9.99999999999943,
                      "geometryCrop3" : 0.0,
                      "volume" : 1.0
                    },
                    "tracks" : [
                      {
                        "trackIndex" : 0,
                        "medias" : [
                          {
                            "id" : 75,
                            "_type" : "Group",
                            "parameters" : {
                              "translation0" : {
                                "type" : "double",
                                "defaultValue" : 0.0,
                                "keyframes" : [
                                  {
                                    "endTime" : 552720000,
                                    "time" : 0,
                                    "value" : 0.0,
                                    "interp" : "eioe",
                                    "duration" : 552720000
                                  },
                                  {
                                    "endTime" : 1775760000,
                                    "time" : 1375920000,
                                    "value" : 0.0,
                                    "interp" : "eioe",
                                    "duration" : 399840000
                                  }
                                ]
                              },
                              "translation1" : {
                                "type" : "double",
                                "defaultValue" : -305.610046386719,
                                "keyframes" : [
                                  {
                                    "endTime" : 552720000,
                                    "time" : 0,
                                    "value" : 0.0,
                                    "interp" : "eioe",
                                    "duration" : 552720000
                                  },
                                  {
                                    "endTime" : 1775760000,
                                    "time" : 1375920000,
                                    "value" : -304.610046386719,
                                    "interp" : "eioe",
                                    "duration" : 399840000
                                  }
                                ]
                              },
                              "sourceCrop0" : 0.0,
                              "sourceCrop1" : 0.0,
                              "sourceCrop2" : 0.0,
                              "sourceCrop3" : 0.0,
                              "geometryCrop0" : 0.0,
                              "geometryCrop1" : 0.0,
                              "geometryCrop2" : 0.0,
                              "geometryCrop3" : 0.0,
                              "volume" : 1.0
                            },
                            "tracks" : [
                              {
                                "trackIndex" : 0,
                                "medias" : [
                                  {
                                    "id" : 76,
                                    "_type" : "Group",
                                    "parameters" : {
                                      "sourceCrop0" : 0.0,
                                      "sourceCrop1" : 0.0,
                                      "sourceCrop2" : 0.0,
                                      "sourceCrop3" : 0.0,
                                      "geometryCrop0" : 0.0,
                                      "geometryCrop1" : 0.0,
                                      "geometryCrop2" : 0.0,
                                      "geometryCrop3" : 0.0,
                                      "volume" : 1.0
                                    },
                                    "tracks" : [
                                      {
                                        "trackIndex" : 0,
                                        "medias" : [
                                          {
                                            "id" : 77,
                                            "_type" : "Callout",
                                            "def" : {
                                              "kind" : "remix",
                                              "shape" : "shape-rectangle",
                                              "style" : "bold",
                                              "fill-color-blue" : 1.0,
                                              "fill-color-green" : 1.0,
                                              "fill-color-opacity" : 1.0,
                                              "fill-color-red" : 1.0,
                                              "hasDropShadow" : 0.0,
                                              "height" : 163.002035140991,
                                              "savedXScale" : 1.0,
                                              "savedYScale" : 1.0,
                                              "stroke-color-blue" : 1.0,
                                              "stroke-color-green" : 1.0,
                                              "stroke-color-opacity" : 1.0,
                                              "stroke-color-red" : 1.0,
                                              "stroke-width" : 0.0,
                                              "width" : 1403.00212860107,
                                              "custom" : "Y",
                                              "fill-style" : "solid",
                                              "stroke-style" : "solid"
                                            },
                                            "attributes" : {
                                              "ident" : "",
                                              "autoRotateText" : true
                                            },
                                            "parameters" : {
                                              "anchor0" : -1.0,
                                              "anchor1" : 2.0,
                                              "sourceCrop0" : 0.0,
                                              "sourceCrop1" : 0.0,
                                              "sourceCrop2" : 0.0,
                                              "sourceCrop3" : 0.0,
                                              "geometryCrop0" : 0.0,
                                              "geometryCrop1" : 0.0,
                                              "geometryCrop2" : 0.0,
                                              "geometryCrop3" : 0.0
                                            },
                                            "effects" : [

                                            ],
                                            "start" : 0,
                                            "duration" : 3528000000,
                                            "mediaStart" : 0,
                                            "mediaDuration" : 3528000000,
                                            "scalar" : 1,
                                            "metadata" : {
                                              "AppliedThemeId" : "",
                                              "clipSpeedAttribute" : false,
                                              "effectApplied" : "none",
                                              "lockAspectRatio" : false
                                            },
                                            "animationTracks" : {

                                            }
                                          }
                                        ],
                                          "ident" : "",
                                          "audioMuted" : false,
                                          "videoHidden" : false,
                                          "magnetic" : false,
                                          "matte" : 0,
                                          "solo" : false,
                                          "metadata" : {
                                            "IsLocked" : "False",
                                            "WinTrackHeight" : "56",
                                            "trackHeight" : "54"
                                          }
                                      },
                                      {
                                        "trackIndex" : 1,
                                        "medias" : [
                                          {
                                            "id" : 78,
                                            "_type" : "Callout",
                                            "def" : {
                                              "kind" : "remix",
                                              "shape" : "shape-rectangle",
                                              "style" : "bold",
                                              "fill-color-blue" : 0.756862759590149,
                                              "fill-color-green" : 0.18823529779911,
                                              "fill-color-opacity" : 1.0,
                                              "fill-color-red" : 0.960784316062927,
                                              "hasDropShadow" : 0.0,
                                              "height" : 160.0,
                                              "savedXScale" : 1.0,
                                              "savedYScale" : 1.0,
                                              "stroke-color-blue" : 0.886274516582489,
                                              "stroke-color-green" : 0.200000002980232,
                                              "stroke-color-opacity" : 0.0,
                                              "stroke-color-red" : 0.376470595598221,
                                              "stroke-width" : 0.0,
                                              "width" : 1400.0,
                                              "custom" : "Y",
                                              "fill-style" : "solid",
                                              "stroke-style" : "solid"
                                            },
                                            "attributes" : {
                                              "ident" : "",
                                              "autoRotateText" : true
                                            },
                                            "parameters" : {
                                              "sourceCrop0" : 0.0,
                                              "sourceCrop1" : 0.0,
                                              "sourceCrop2" : 0.0,
                                              "sourceCrop3" : 0.0,
                                              "geometryCrop0" : 0.0,
                                              "geometryCrop1" : 0.0,
                                              "geometryCrop2" : 0.0,
                                              "geometryCrop3" : 0.0
                                            },
                                            "effects" : [

                                            ],
                                            "start" : 0,
                                            "duration" : 3528000000,
                                            "mediaStart" : 0,
                                            "mediaDuration" : 3528000000,
                                            "scalar" : 1,
                                            "metadata" : {
                                              "AppliedThemeId" : "",
                                              "clipSpeedAttribute" : false,
                                              "effectApplied" : "none"
                                            },
                                            "animationTracks" : {

                                            }
                                          }
                                        ],
                                          "ident" : "",
                                          "audioMuted" : false,
                                          "videoHidden" : false,
                                          "magnetic" : false,
                                          "matte" : 1,
                                          "solo" : false,
                                          "metadata" : {
                                            "IsLocked" : "False",
                                            "WinTrackHeight" : "56",
                                            "trackHeight" : "54"
                                          }
                                      }
                                    ],
                                    "attributes" : {
                                      "ident" : "Fill-1400x160",
                                      "widthAttr" : 1405.0,
                                      "heightAttr" : 167.002,
                                      "gain" : 1.0,
                                      "mixToMono" : false
                                    },
                                    "effects" : [

                                    ],
                                    "start" : 0,
                                    "duration" : 3528000000,
                                    "mediaStart" : 0.0,
                                    "mediaDuration" : 3528000000.0,
                                    "scalar" : 1,
                                    "metadata" : {
                                      "clipSpeedAttribute" : false,
                                      "effectApplied" : "none",
                                      "isOpen" : false,
                                      "lockAspectRatio" : true
                                    },
                                    "animationTracks" : {

                                    }
                                  }
                                ],
                                  "ident" : "",
                                  "audioMuted" : false,
                                  "videoHidden" : false,
                                  "magnetic" : false,
                                  "matte" : 0,
                                  "solo" : false,
                                  "metadata" : {
                                    "IsLocked" : "False",
                                    "WinTrackHeight" : "56",
                                    "trackHeight" : "54"
                                  }
                              },
                              {
                                "trackIndex" : 1,
                                "medias" : [
                                  {
                                    "id" : 79,
                                    "_type" : "Callout",
                                    "def" : {
                                      "kind" : "remix",
                                      "shape" : "text",
                                      "style" : "urban",
                                      "enable-ligatures" : 1.0,
                                      "hasDropShadow" : 0.0,
                                      "height" : 170.0,
                                      "line-spacing" : 0.0,
                                      "savedXScale" : 1.0,
                                      "savedYScale" : 1.0,
                                      "width" : 1400.0,
                                      "word-wrap" : 1.0,
                                      "custom" : "Y",
                                      "horizontal-alignment" : "left",
                                      "resize-behavior" : "resizeText",
                                      "text" : "group selected rows",
                                      "vertical-alignment" : "center",
                                      "font" : {
                                        "color-blue" : 1.0,
                                        "color-green" : 1.0,
                                        "color-red" : 1.0,
                                        "size" : 96.0,
                                        "tracking" : 0.0,
                                        "name" : "Dosis",
                                        "weight" : "Semi Bold"
                                      },
                                      "textAttributes" : {
                                        "type" : "textAttributeList",
                                        "keyframes" : [
                                          {
                                            "endTime" : 0,
                                            "time" : 0,
                                            "value" : [{"name":"underline","rangeEnd":19,"rangeStart":0,"value":0,"valueType":"int"},{"name":"strikethrough","rangeEnd":19,"rangeStart":0,"value":0,"valueType":"int"},{"name":"fontName","rangeEnd":19,"rangeStart":0,"value":"Roboto","valueType":"string"},{"name":"kerning","rangeEnd":19,"rangeStart":0,"value":0.049883078231292483,"valueType":"double"},{"name":"fontItalic","rangeEnd":19,"rangeStart":0,"value":0,"valueType":"int"},{"name":"fontWeight","rangeEnd":19,"rangeStart":0,"value":700,"valueType":"int"},{"name":"fontSize","rangeEnd":19,"rangeStart":0,"value":86,"valueType":"double"},{"name":"fgColor","rangeEnd":19,"rangeStart":0,"value":"(110,110,110,255)","valueType":"color"}],
                                            "duration" : 0
                                          }
                                        ]
                                      }
                                    },
                                    "attributes" : {
                                      "ident" : "",
                                      "autoRotateText" : true
                                    },
                                    "parameters" : {
                                      "translation1" : -2.0,
                                      "sourceCrop0" : 0.0,
                                      "sourceCrop1" : 0.0,
                                      "sourceCrop2" : 0.0,
                                      "sourceCrop3" : 0.0,
                                      "geometryCrop0" : 0.0,
                                      "geometryCrop1" : 0.0,
                                      "geometryCrop2" : 0.0,
                                      "geometryCrop3" : 0.0
                                    },
                                    "effects" : [

                                    ],
                                    "start" : 0,
                                    "duration" : 3528000000,
                                    "mediaStart" : 0,
                                    "mediaDuration" : 3528000000,
                                    "scalar" : 1,
                                    "metadata" : {
                                      "AppliedThemeId" : "",
                                      "clipSpeedAttribute" : false,
                                      "effectApplied" : "none",
                                      "lockAspectRatio" : false
                                    },
                                    "animationTracks" : {

                                    }
                                  }
                                ],
                                  "ident" : "",
                                  "audioMuted" : false,
                                  "videoHidden" : false,
                                  "magnetic" : false,
                                  "matte" : 0,
                                  "solo" : false,
                                  "metadata" : {
                                    "IsLocked" : "False",
                                    "WinTrackHeight" : "56",
                                    "trackHeight" : "54"
                                  }
                              }
                            ],
                            "attributes" : {
                              "ident" : "BP-Title-11",
                              "widthAttr" : 1405.0,
                              "heightAttr" : 167.002,
                              "gain" : 1.0,
                              "mixToMono" : false,
                              "assetProperties" : [
                                {
                                  "type" : 0,
                                  "name" : "Title",
                                  "objects" : [ 79 ],
                                  "themeMappings" :  {
                                    "font-color" : "foreground-1"
                                  }
                                },
                                {
                                  "type" : 1,
                                  "name" : "Fill",
                                  "objects" : [ 77 ],
                                  "themeMappings" :  {
                                    "fill" : "background-1"
                                  }
                                }
                              ]
                            },
                            "effects" : [

                            ],
                            "start" : 0,
                            "duration" : 3528000000,
                            "mediaStart" : 0.0,
                            "mediaDuration" : 3528000000.0,
                            "scalar" : 1,
                            "metadata" : {
                              "clipSpeedAttribute" : false,
                              "effectApplied" : "none",
                              "isOpen" : false,
                              "lockAspectRatio" : true
                            },
                            "animationTracks" : {
                              "visual" : [
                                {
                                  "endTime" : 552720000,
                                  "duration" : 552720000,
                                  "range" : [ 0, 552720000],
                                  "interp" : "eioe"
                                },
                                {
                                  "endTime" : 1775760000,
                                  "duration" : 399840000,
                                  "range" : [ 1375920000, 399840000],
                                  "interp" : "eioe"
                                }
                              ]
                            }
                          }
                        ],
                          "ident" : "",
                          "audioMuted" : false,
                          "videoHidden" : false,
                          "magnetic" : false,
                          "matte" : 0,
                          "solo" : false,
                          "metadata" : {
                            "IsLocked" : "False",
                            "WinTrackHeight" : "56",
                            "trackHeight" : "54"
                          }
                      },
                      {
                        "trackIndex" : 1,
                        "medias" : [
                          {
                            "id" : 80,
                            "_type" : "Group",
                            "parameters" : {
                              "translation0" : {
                                "type" : "double",
                                "defaultValue" : 0.0,
                                "keyframes" : [
                                  {
                                    "endTime" : 552720000,
                                    "time" : 0,
                                    "value" : 0.0,
                                    "interp" : "eioe",
                                    "duration" : 552720000
                                  },
                                  {
                                    "endTime" : 1775760000,
                                    "time" : 1375920000,
                                    "value" : 0.0,
                                    "interp" : "eioe",
                                    "duration" : 399840000
                                  }
                                ]
                              },
                              "translation1" : {
                                "type" : "double",
                                "defaultValue" : -144.610046386719,
                                "keyframes" : [
                                  {
                                    "endTime" : 552720000,
                                    "time" : 0,
                                    "value" : 0.0,
                                    "interp" : "eioe",
                                    "duration" : 552720000
                                  },
                                  {
                                    "endTime" : 1775760000,
                                    "time" : 1375920000,
                                    "value" : -144.610046386719,
                                    "interp" : "eioe",
                                    "duration" : 399840000
                                  }
                                ]
                              },
                              "sourceCrop0" : 0.0,
                              "sourceCrop1" : 0.0,
                              "sourceCrop2" : 0.0,
                              "sourceCrop3" : 0.0,
                              "geometryCrop0" : 0.0,
                              "geometryCrop1" : 0.0,
                              "geometryCrop2" : 0.0,
                              "geometryCrop3" : 0.0,
                              "opacity" : {
                                "type" : "double",
                                "defaultValue" : 1.0,
                                "keyframes" : [
                                  {
                                    "endTime" : 552720000,
                                    "time" : 0,
                                    "value" : 1.0,
                                    "interp" : "eioe",
                                    "duration" : 552720000
                                  }
                                ]
                              },
                              "volume" : 1.0
                            },
                            "tracks" : [
                              {
                                "trackIndex" : 0,
                                "medias" : [
                                  {
                                    "id" : 81,
                                    "_type" : "Callout",
                                    "def" : {
                                      "kind" : "remix",
                                      "shape" : "shape-rectangle",
                                      "style" : "bold",
                                      "fill-color-blue" : 0.913725490196078,
                                      "fill-color-green" : 0.949019607843137,
                                      "fill-color-opacity" : 1.0,
                                      "fill-color-red" : 0.933333333333333,
                                      "hasDropShadow" : 0.0,
                                      "height" : 163.002035140991,
                                      "savedXScale" : 1.0,
                                      "savedYScale" : 1.0,
                                      "stroke-color-blue" : 1.0,
                                      "stroke-color-green" : 1.0,
                                      "stroke-color-opacity" : 1.0,
                                      "stroke-color-red" : 1.0,
                                      "stroke-width" : 0.0,
                                      "width" : 1403.00212860107,
                                      "custom" : "Y",
                                      "fill-style" : "solid",
                                      "stroke-style" : "solid"
                                    },
                                    "attributes" : {
                                      "ident" : "",
                                      "autoRotateText" : true
                                    },
                                    "parameters" : {
                                      "anchor0" : -1.0,
                                      "anchor1" : 2.0,
                                      "sourceCrop0" : 0.0,
                                      "sourceCrop1" : 0.0,
                                      "sourceCrop2" : 0.0,
                                      "sourceCrop3" : 0.0,
                                      "geometryCrop0" : 0.0,
                                      "geometryCrop1" : 0.0,
                                      "geometryCrop2" : 0.0,
                                      "geometryCrop3" : 0.0
                                    },
                                    "effects" : [

                                    ],
                                    "start" : 0,
                                    "duration" : 3528000000,
                                    "mediaStart" : 0,
                                    "mediaDuration" : 3528000000,
                                    "scalar" : 1,
                                    "metadata" : {
                                      "AppliedThemeId" : "",
                                      "clipSpeedAttribute" : false,
                                      "effectApplied" : "none",
                                      "lockAspectRatio" : false
                                    },
                                    "animationTracks" : {

                                    }
                                  }
                                ],
                                  "ident" : "",
                                  "audioMuted" : false,
                                  "videoHidden" : false,
                                  "magnetic" : false,
                                  "matte" : 0,
                                  "solo" : false,
                                  "metadata" : {
                                    "IsLocked" : "False",
                                    "WinTrackHeight" : "56",
                                    "trackHeight" : "54"
                                  }
                              },
                              {
                                "trackIndex" : 1,
                                "medias" : [
                                  {
                                    "id" : 82,
                                    "_type" : "Callout",
                                    "def" : {
                                      "kind" : "remix",
                                      "shape" : "shape-rectangle",
                                      "style" : "bold",
                                      "fill-color-blue" : 0.756862759590149,
                                      "fill-color-green" : 0.18823529779911,
                                      "fill-color-opacity" : 1.0,
                                      "fill-color-red" : 0.960784316062927,
                                      "hasDropShadow" : 0.0,
                                      "height" : 160.0,
                                      "savedXScale" : 1.0,
                                      "savedYScale" : 1.0,
                                      "stroke-color-blue" : 0.886274516582489,
                                      "stroke-color-green" : 0.200000002980232,
                                      "stroke-color-opacity" : 0.0,
                                      "stroke-color-red" : 0.376470595598221,
                                      "stroke-width" : 0.0,
                                      "width" : 1400.0,
                                      "custom" : "Y",
                                      "fill-style" : "solid",
                                      "stroke-style" : "solid"
                                    },
                                    "attributes" : {
                                      "ident" : "",
                                      "autoRotateText" : true
                                    },
                                    "parameters" : {
                                      "sourceCrop0" : 0.0,
                                      "sourceCrop1" : 0.0,
                                      "sourceCrop2" : 0.0,
                                      "sourceCrop3" : 0.0,
                                      "geometryCrop0" : 0.0,
                                      "geometryCrop1" : 0.0,
                                      "geometryCrop2" : 0.0,
                                      "geometryCrop3" : 0.0
                                    },
                                    "effects" : [

                                    ],
                                    "start" : 0,
                                    "duration" : 3528000000,
                                    "mediaStart" : 0,
                                    "mediaDuration" : 3528000000,
                                    "scalar" : 1,
                                    "metadata" : {
                                      "AppliedThemeId" : "",
                                      "clipSpeedAttribute" : false,
                                      "effectApplied" : "none"
                                    },
                                    "animationTracks" : {

                                    }
                                  }
                                ],
                                  "ident" : "",
                                  "audioMuted" : false,
                                  "videoHidden" : false,
                                  "magnetic" : false,
                                  "matte" : 1,
                                  "solo" : false,
                                  "metadata" : {
                                    "IsLocked" : "False",
                                    "WinTrackHeight" : "56",
                                    "trackHeight" : "54"
                                  }
                              }
                            ],
                            "attributes" : {
                              "ident" : "Rect-1400x1600-Mask",
                              "widthAttr" : 1405.0,
                              "heightAttr" : 167.002,
                              "gain" : 1.0,
                              "mixToMono" : false
                            },
                            "effects" : [

                            ],
                            "start" : 0,
                            "duration" : 3528000000,
                            "mediaStart" : 0.0,
                            "mediaDuration" : 3528000000.0,
                            "scalar" : 1,
                            "metadata" : {
                              "clipSpeedAttribute" : false,
                              "effectApplied" : "none",
                              "isOpen" : false,
                              "lockAspectRatio" : true
                            },
                            "animationTracks" : {
                              "visual" : [
                                {
                                  "endTime" : 552720000,
                                  "duration" : 552720000,
                                  "range" : [ 0, 552720000],
                                  "interp" : "eioe"
                                },
                                {
                                  "endTime" : 1775760000,
                                  "duration" : 399840000,
                                  "range" : [ 1375920000, 399840000],
                                  "interp" : "eioe"
                                }
                              ]
                            }
                          }
                        ],
                          "ident" : "",
                          "audioMuted" : false,
                          "videoHidden" : false,
                          "magnetic" : false,
                          "matte" : 1,
                          "solo" : false,
                          "metadata" : {
                            "IsLocked" : "False",
                            "WinTrackHeight" : "56",
                            "trackHeight" : "54"
                          }
                      },
                      {
                        "trackIndex" : 2,
                        "medias" : [
                          {
                            "id" : 83,
                            "_type" : "Group",
                            "parameters" : {
                              "translation0" : {
                                "type" : "double",
                                "defaultValue" : 0.0,
                                "keyframes" : [
                                  {
                                    "endTime" : 552720000,
                                    "time" : 0,
                                    "value" : 0.0,
                                    "interp" : "eioe",
                                    "duration" : 552720000
                                  },
                                  {
                                    "endTime" : 1775760000,
                                    "time" : 1375920000,
                                    "value" : 0.0,
                                    "interp" : "eioe",
                                    "duration" : 399840000
                                  }
                                ]
                              },
                              "translation1" : {
                                "type" : "double",
                                "defaultValue" : -233.610046386719,
                                "keyframes" : [
                                  {
                                    "endTime" : 552720000,
                                    "time" : 0,
                                    "value" : 90.0,
                                    "interp" : "eioe",
                                    "duration" : 552720000
                                  },
                                  {
                                    "endTime" : 1775760000,
                                    "time" : 1375920000,
                                    "value" : -233.610046386719,
                                    "interp" : "eioe",
                                    "duration" : 399840000
                                  }
                                ]
                              },
                              "sourceCrop0" : 0.0,
                              "sourceCrop1" : 0.0,
                              "sourceCrop2" : 0.0,
                              "sourceCrop3" : 0.0,
                              "geometryCrop0" : 0.0,
                              "geometryCrop1" : 0.0,
                              "geometryCrop2" : 0.0,
                              "geometryCrop3" : 0.0,
                              "opacity" : {
                                "type" : "double",
                                "defaultValue" : 1.0,
                                "keyframes" : [
                                  {
                                    "endTime" : 552720000,
                                    "time" : 0,
                                    "value" : 1.0,
                                    "interp" : "eioe",
                                    "duration" : 552720000
                                  }
                                ]
                              },
                              "volume" : 1.0
                            },
                            "tracks" : [
                              {
                                "trackIndex" : 0,
                                "medias" : [
                                  {
                                    "id" : 84,
                                    "_type" : "Callout",
                                    "def" : {
                                      "kind" : "remix",
                                      "shape" : "shape-rectangle",
                                      "style" : "bold",
                                      "fill-color-blue" : 0.2196078431,
                                      "fill-color-green" : 0.8745098039,
                                      "fill-color-opacity" : 1.0,
                                      "fill-color-red" : 1.0,
                                      "hasDropShadow" : 0.0,
                                      "height" : 163.002035140991,
                                      "savedXScale" : 1.0,
                                      "savedYScale" : 1.0,
                                      "stroke-color-blue" : 1.0,
                                      "stroke-color-green" : 1.0,
                                      "stroke-color-opacity" : 1.0,
                                      "stroke-color-red" : 1.0,
                                      "stroke-width" : 0.0,
                                      "width" : 1403.00212860107,
                                      "custom" : "Y",
                                      "fill-style" : "solid",
                                      "stroke-style" : "solid"
                                    },
                                    "attributes" : {
                                      "ident" : "",
                                      "autoRotateText" : true
                                    },
                                    "parameters" : {
                                      "anchor0" : -1.0,
                                      "anchor1" : 2.0,
                                      "sourceCrop0" : 0.0,
                                      "sourceCrop1" : 0.0,
                                      "sourceCrop2" : 0.0,
                                      "sourceCrop3" : 0.0,
                                      "geometryCrop0" : 0.0,
                                      "geometryCrop1" : 0.0,
                                      "geometryCrop2" : 0.0,
                                      "geometryCrop3" : 0.0
                                    },
                                    "effects" : [

                                    ],
                                    "start" : 0,
                                    "duration" : 3528000000,
                                    "mediaStart" : 0,
                                    "mediaDuration" : 3528000000,
                                    "scalar" : 1,
                                    "metadata" : {
                                      "AppliedThemeId" : "",
                                      "clipSpeedAttribute" : false,
                                      "effectApplied" : "none",
                                      "lockAspectRatio" : false
                                    },
                                    "animationTracks" : {

                                    }
                                  }
                                ],
                                  "ident" : "",
                                  "audioMuted" : false,
                                  "videoHidden" : false,
                                  "magnetic" : false,
                                  "matte" : 0,
                                  "solo" : false,
                                  "metadata" : {
                                    "IsLocked" : "False",
                                    "WinTrackHeight" : "56",
                                    "trackHeight" : "54"
                                  }
                              },
                              {
                                "trackIndex" : 1,
                                "medias" : [
                                  {
                                    "id" : 85,
                                    "_type" : "Callout",
                                    "def" : {
                                      "kind" : "remix",
                                      "shape" : "shape-rectangle",
                                      "style" : "bold",
                                      "fill-color-blue" : 0.756862759590149,
                                      "fill-color-green" : 0.18823529779911,
                                      "fill-color-opacity" : 1.0,
                                      "fill-color-red" : 0.960784316062927,
                                      "hasDropShadow" : 0.0,
                                      "height" : 160.0,
                                      "savedXScale" : 1.0,
                                      "savedYScale" : 1.0,
                                      "stroke-color-blue" : 0.886274516582489,
                                      "stroke-color-green" : 0.200000002980232,
                                      "stroke-color-opacity" : 0.0,
                                      "stroke-color-red" : 0.376470595598221,
                                      "stroke-width" : 0.0,
                                      "width" : 1400.0,
                                      "custom" : "Y",
                                      "fill-style" : "solid",
                                      "stroke-style" : "solid"
                                    },
                                    "attributes" : {
                                      "ident" : "",
                                      "autoRotateText" : true
                                    },
                                    "parameters" : {
                                      "translation1" : {
                                        "type" : "double",
                                        "defaultValue" : -1.0,
                                        "keyframes" : [
                                          {
                                            "endTime" : 270480000,
                                            "time" : 0,
                                            "value" : 0.0,
                                            "duration" : 270480000
                                          }
                                        ]
                                      },
                                      "scale0" : {
                                        "type" : "double",
                                        "defaultValue" : 1.0,
                                        "keyframes" : [
                                          {
                                            "endTime" : 270480000,
                                            "time" : 0,
                                            "value" : 1.0,
                                            "duration" : 270480000
                                          }
                                        ]
                                      },
                                      "scale1" : {
                                        "type" : "double",
                                        "defaultValue" : 0.125,
                                        "keyframes" : [
                                          {
                                            "endTime" : 270480000,
                                            "time" : 0,
                                            "value" : 0.5,
                                            "duration" : 270480000
                                          },
                                          {
                                            "endTime" : 552720000,
                                            "time" : 282240000,
                                            "value" : 0.125,
                                            "duration" : 270480000
                                          }
                                        ]
                                      },
                                      "sourceCrop0" : 0.0,
                                      "sourceCrop1" : 0.0,
                                      "sourceCrop2" : 0.0,
                                      "sourceCrop3" : 0.0,
                                      "geometryCrop0" : 0.0,
                                      "geometryCrop1" : 0.0,
                                      "geometryCrop2" : 0.0,
                                      "geometryCrop3" : 0.0
                                    },
                                    "effects" : [

                                    ],
                                    "start" : 0,
                                    "duration" : 3528000000,
                                    "mediaStart" : 0,
                                    "mediaDuration" : 3528000000,
                                    "scalar" : 1,
                                    "metadata" : {
                                      "AppliedThemeId" : "",
                                      "clipSpeedAttribute" : false,
                                      "effectApplied" : "none"
                                    },
                                    "animationTracks" : {
                                      "visual" : [
                                        {
                                          "endTime" : 270480000,
                                          "duration" : 270480000,
                                          "range" : [ 0, 270480000]
                                        },
                                        {
                                          "endTime" : 552720000,
                                          "duration" : 270480000,
                                          "range" : [ 282240000, 270480000]
                                        }
                                      ]
                                    }
                                  }
                                ],
                                  "ident" : "",
                                  "audioMuted" : false,
                                  "videoHidden" : false,
                                  "magnetic" : false,
                                  "matte" : 1,
                                  "solo" : false,
                                  "metadata" : {
                                    "IsLocked" : "False",
                                    "WinTrackHeight" : "56",
                                    "trackHeight" : "54"
                                  }
                              }
                            ],
                            "attributes" : {
                              "ident" : "Animated-Pulse-1400x20-To-1400x80",
                              "widthAttr" : 1405.0,
                              "heightAttr" : 167.002,
                              "gain" : 1.0,
                              "mixToMono" : false,
                              "assetProperties" : [
                                {
                                  "type" : 1,
                                  "name" : "Color",
                                  "objects" : [ 84 ],
                                  "themeMappings" :  {
                                    "fill" : "accent-1"
                                  }
                                }
                              ]
                            },
                            "effects" : [

                            ],
                            "start" : 0,
                            "duration" : 3528000000,
                            "mediaStart" : 0.0,
                            "mediaDuration" : 3528000000.0,
                            "scalar" : 1,
                            "metadata" : {
                              "AppliedThemeId" : "8e797988-b823-4beb-b251-1d31b461ba07",
                              "clipSpeedAttribute" : false,
                              "effectApplied" : "none",
                              "isOpen" : false,
                              "lockAspectRatio" : true
                            },
                            "animationTracks" : {
                              "visual" : [
                                {
                                  "endTime" : 552720000,
                                  "duration" : 552720000,
                                  "range" : [ 0, 552720000],
                                  "interp" : "eioe"
                                },
                                {
                                  "endTime" : 1775760000,
                                  "duration" : 399840000,
                                  "range" : [ 1375920000, 399840000],
                                  "interp" : "eioe"
                                }
                              ]
                            }
                          }
                        ],
                          "ident" : "",
                          "audioMuted" : false,
                          "videoHidden" : false,
                          "magnetic" : false,
                          "matte" : 0,
                          "solo" : false,
                          "metadata" : {
                            "IsLocked" : "False",
                            "WinTrackHeight" : "56",
                            "trackHeight" : "54"
                          }
                      },
                      {
                        "trackIndex" : 3,
                        "medias" : [
                          {
                            "id" : 86,
                            "_type" : "Group",
                            "parameters" : {
                              "translation0" : {
                                "type" : "double",
                                "defaultValue" : 0.0,
                                "keyframes" : [
                                  {
                                    "endTime" : 552720000,
                                    "time" : 0,
                                    "value" : 0.0,
                                    "interp" : "eioe",
                                    "duration" : 552720000
                                  },
                                  {
                                    "endTime" : 1775760000,
                                    "time" : 1375920000,
                                    "value" : 0.0,
                                    "interp" : "eioe",
                                    "duration" : 399840000
                                  }
                                ]
                              },
                              "translation1" : {
                                "type" : "double",
                                "defaultValue" : -143.610046386719,
                                "keyframes" : [
                                  {
                                    "endTime" : 552720000,
                                    "time" : 0,
                                    "value" : 0.0,
                                    "interp" : "eioe",
                                    "duration" : 552720000
                                  },
                                  {
                                    "endTime" : 1775760000,
                                    "time" : 1375920000,
                                    "value" : -143.610046386719,
                                    "interp" : "eioe",
                                    "duration" : 399840000
                                  }
                                ]
                              },
                              "sourceCrop0" : 0.0,
                              "sourceCrop1" : 0.0,
                              "sourceCrop2" : 0.0,
                              "sourceCrop3" : 0.0,
                              "geometryCrop0" : 0.0,
                              "geometryCrop1" : 0.0,
                              "geometryCrop2" : 0.0,
                              "geometryCrop3" : 0.0,
                              "opacity" : {
                                "type" : "double",
                                "defaultValue" : 1.0,
                                "keyframes" : [
                                  {
                                    "endTime" : 552720000,
                                    "time" : 0,
                                    "value" : 1.0,
                                    "interp" : "eioe",
                                    "duration" : 552720000
                                  }
                                ]
                              },
                              "volume" : 1.0
                            },
                            "tracks" : [
                              {
                                "trackIndex" : 0,
                                "medias" : [
                                  {
                                    "id" : 87,
                                    "_type" : "Callout",
                                    "def" : {
                                      "kind" : "remix",
                                      "shape" : "shape-rectangle",
                                      "style" : "bold",
                                      "fill-color-blue" : 0.913725490196078,
                                      "fill-color-green" : 0.949019607843137,
                                      "fill-color-opacity" : 1.0,
                                      "fill-color-red" : 0.933333333333333,
                                      "hasDropShadow" : 0.0,
                                      "height" : 163.002035140991,
                                      "savedXScale" : 1.0,
                                      "savedYScale" : 1.0,
                                      "stroke-color-blue" : 1.0,
                                      "stroke-color-green" : 1.0,
                                      "stroke-color-opacity" : 1.0,
                                      "stroke-color-red" : 1.0,
                                      "stroke-width" : 0.0,
                                      "width" : 1403.00212860107,
                                      "custom" : "Y",
                                      "fill-style" : "solid",
                                      "stroke-style" : "solid"
                                    },
                                    "attributes" : {
                                      "ident" : "",
                                      "autoRotateText" : true
                                    },
                                    "parameters" : {
                                      "anchor0" : -1.0,
                                      "anchor1" : 2.0,
                                      "sourceCrop0" : 0.0,
                                      "sourceCrop1" : 0.0,
                                      "sourceCrop2" : 0.0,
                                      "sourceCrop3" : 0.0,
                                      "geometryCrop0" : 0.0,
                                      "geometryCrop1" : 0.0,
                                      "geometryCrop2" : 0.0,
                                      "geometryCrop3" : 0.0
                                    },
                                    "effects" : [

                                    ],
                                    "start" : 0,
                                    "duration" : 3528000000,
                                    "mediaStart" : 0,
                                    "mediaDuration" : 3528000000,
                                    "scalar" : 1,
                                    "metadata" : {
                                      "AppliedThemeId" : "",
                                      "clipSpeedAttribute" : false,
                                      "effectApplied" : "none",
                                      "lockAspectRatio" : false
                                    },
                                    "animationTracks" : {

                                    }
                                  }
                                ],
                                  "ident" : "",
                                  "audioMuted" : false,
                                  "videoHidden" : false,
                                  "magnetic" : false,
                                  "matte" : 0,
                                  "solo" : false,
                                  "metadata" : {
                                    "IsLocked" : "False",
                                    "WinTrackHeight" : "56",
                                    "trackHeight" : "54"
                                  }
                              },
                              {
                                "trackIndex" : 1,
                                "medias" : [
                                  {
                                    "id" : 88,
                                    "_type" : "Callout",
                                    "def" : {
                                      "kind" : "remix",
                                      "shape" : "shape-rectangle",
                                      "style" : "bold",
                                      "fill-color-blue" : 0.756862759590149,
                                      "fill-color-green" : 0.18823529779911,
                                      "fill-color-opacity" : 1.0,
                                      "fill-color-red" : 0.960784316062927,
                                      "hasDropShadow" : 0.0,
                                      "height" : 160.0,
                                      "savedXScale" : 1.0,
                                      "savedYScale" : 1.0,
                                      "stroke-color-blue" : 0.886274516582489,
                                      "stroke-color-green" : 0.200000002980232,
                                      "stroke-color-opacity" : 0.0,
                                      "stroke-color-red" : 0.376470595598221,
                                      "stroke-width" : 0.0,
                                      "width" : 1400.0,
                                      "custom" : "Y",
                                      "fill-style" : "solid",
                                      "stroke-style" : "solid"
                                    },
                                    "attributes" : {
                                      "ident" : "",
                                      "autoRotateText" : true
                                    },
                                    "parameters" : {
                                      "sourceCrop0" : 0.0,
                                      "sourceCrop1" : 0.0,
                                      "sourceCrop2" : 0.0,
                                      "sourceCrop3" : 0.0,
                                      "geometryCrop0" : 0.0,
                                      "geometryCrop1" : 0.0,
                                      "geometryCrop2" : 0.0,
                                      "geometryCrop3" : 0.0
                                    },
                                    "effects" : [

                                    ],
                                    "start" : 0,
                                    "duration" : 3528000000,
                                    "mediaStart" : 0,
                                    "mediaDuration" : 3528000000,
                                    "scalar" : 1,
                                    "metadata" : {
                                      "AppliedThemeId" : "",
                                      "clipSpeedAttribute" : false,
                                      "effectApplied" : "none"
                                    },
                                    "animationTracks" : {

                                    }
                                  }
                                ],
                                  "ident" : "",
                                  "audioMuted" : false,
                                  "videoHidden" : false,
                                  "magnetic" : false,
                                  "matte" : 1,
                                  "solo" : false,
                                  "metadata" : {
                                    "IsLocked" : "False",
                                    "WinTrackHeight" : "56",
                                    "trackHeight" : "54"
                                  }
                              }
                            ],
                            "attributes" : {
                              "ident" : "Rect-1400x1600-Mask",
                              "widthAttr" : 1405.0,
                              "heightAttr" : 167.002,
                              "gain" : 1.0,
                              "mixToMono" : false
                            },
                            "effects" : [

                            ],
                            "start" : 0,
                            "duration" : 3528000000,
                            "mediaStart" : 0.0,
                            "mediaDuration" : 3528000000.0,
                            "scalar" : 1,
                            "metadata" : {
                              "clipSpeedAttribute" : false,
                              "effectApplied" : "none",
                              "isOpen" : false,
                              "lockAspectRatio" : true
                            },
                            "animationTracks" : {
                              "visual" : [
                                {
                                  "endTime" : 552720000,
                                  "duration" : 552720000,
                                  "range" : [ 0, 552720000],
                                  "interp" : "eioe"
                                },
                                {
                                  "endTime" : 1775760000,
                                  "duration" : 399840000,
                                  "range" : [ 1375920000, 399840000],
                                  "interp" : "eioe"
                                }
                              ]
                            }
                          }
                        ],
                          "ident" : "",
                          "audioMuted" : false,
                          "videoHidden" : false,
                          "magnetic" : false,
                          "matte" : 1,
                          "solo" : false,
                          "metadata" : {
                            "IsLocked" : "False",
                            "WinTrackHeight" : "56",
                            "trackHeight" : "54"
                          }
                      }
                    ],
                    "attributes" : {
                      "ident" : "Broadcast-Title-012",
                      "widthAttr" : 1405.0,
                      "heightAttr" : 160.0,
                      "gain" : 1.0,
                      "mixToMono" : false,
                      "assetProperties" : [
                        {
                          "type" : 0,
                          "name" : "Title",
                          "objects" : [ 79 ],
                          "themeMappings" :  {
                            "font-color" : "foreground-1"
                          }
                        },
                        {
                          "type" : 1,
                          "name" : "Fill",
                          "objects" : [ 77 ],
                          "themeMappings" :  {
                            "fill" : "background-1"
                          }
                        },
                        {
                          "type" : 1,
                          "name" : "Wiper",
                          "objects" : [ 84 ],
                          "themeMappings" :  {
                            "fill" : "foreground-1"
                          }
                        }
                      ]
                    },
                    "effects" : [

                    ],
                    "start" : 1928640000,
                    "duration" : 1764000000,
                    "mediaStart" : 0.0,
                    "mediaDuration" : 1764000000.0,
                    "scalar" : 1,
                    "metadata" : {
                      "AppliedThemeId" : "170ba59c-db5d-4b9a-a310-e7e99853a4b7",
                      "clipSpeedAttribute" : false,
                      "default-anchor0" : 0.0,
                      "default-anchor1" : 0.0,
                      "default-anchor2" : 0.0,
                      "default-geometryCrop0" : 0.0,
                      "default-geometryCrop2" : 0.0,
                      "default-height" : 160.0,
                      "default-rotation0" : 0.0,
                      "default-rotation1" : 0.0,
                      "default-rotation2" : 0.0,
                      "default-scale0" : 1.0,
                      "default-scale1" : 1.0,
                      "default-scale2" : 1.0,
                      "default-shear0" : 0.0,
                      "default-shear1" : 0.0,
                      "default-shear2" : 0.0,
                      "default-translation0" : 0.0,
                      "default-translation1" : 0.0,
                      "default-translation2" : 0.0,
                      "default-width" : 1405.0,
                      "effectApplied" : "none",
                      "isOpen" : false,
                      "lockAspectRatio" : true
                    },
                    "animationTracks" : {

                    }
                  }
                ]
              },
              {
                "trackIndex" : 91,
                "medias" : [
                  {
                    "id" : 89,
                    "_type" : "Group",
                    "parameters" : {
                      "translation0" : 350.0,
                      "translation1" : -50.0,
                      "scale0" : 0.21505376344086,
                      "scale1" : 0.21875,
                      "sourceCrop0" : 0.0,
                      "sourceCrop1" : 0.0,
                      "sourceCrop2" : 0.0,
                      "sourceCrop3" : 0.0,
                      "geometryCrop0" : 0.0,
                      "geometryCrop1" : 0.0,
                      "geometryCrop2" : 9.99999999999943,
                      "geometryCrop3" : 0.0,
                      "volume" : 1.0
                    },
                    "tracks" : [
                      {
                        "trackIndex" : 0,
                        "medias" : [
                          {
                            "id" : 90,
                            "_type" : "Group",
                            "parameters" : {
                              "translation0" : {
                                "type" : "double",
                                "defaultValue" : 0.0,
                                "keyframes" : [
                                  {
                                    "endTime" : 552720000,
                                    "time" : 0,
                                    "value" : 0.0,
                                    "interp" : "eioe",
                                    "duration" : 552720000
                                  },
                                  {
                                    "endTime" : 1775760000,
                                    "time" : 1375920000,
                                    "value" : 0.0,
                                    "interp" : "eioe",
                                    "duration" : 399840000
                                  }
                                ]
                              },
                              "translation1" : {
                                "type" : "double",
                                "defaultValue" : -305.610046386719,
                                "keyframes" : [
                                  {
                                    "endTime" : 552720000,
                                    "time" : 0,
                                    "value" : 0.0,
                                    "interp" : "eioe",
                                    "duration" : 552720000
                                  },
                                  {
                                    "endTime" : 1775760000,
                                    "time" : 1375920000,
                                    "value" : -304.610046386719,
                                    "interp" : "eioe",
                                    "duration" : 399840000
                                  }
                                ]
                              },
                              "sourceCrop0" : 0.0,
                              "sourceCrop1" : 0.0,
                              "sourceCrop2" : 0.0,
                              "sourceCrop3" : 0.0,
                              "geometryCrop0" : 0.0,
                              "geometryCrop1" : 0.0,
                              "geometryCrop2" : 0.0,
                              "geometryCrop3" : 0.0,
                              "volume" : 1.0
                            },
                            "tracks" : [
                              {
                                "trackIndex" : 0,
                                "medias" : [
                                  {
                                    "id" : 91,
                                    "_type" : "Group",
                                    "parameters" : {
                                      "sourceCrop0" : 0.0,
                                      "sourceCrop1" : 0.0,
                                      "sourceCrop2" : 0.0,
                                      "sourceCrop3" : 0.0,
                                      "geometryCrop0" : 0.0,
                                      "geometryCrop1" : 0.0,
                                      "geometryCrop2" : 0.0,
                                      "geometryCrop3" : 0.0,
                                      "volume" : 1.0
                                    },
                                    "tracks" : [
                                      {
                                        "trackIndex" : 0,
                                        "medias" : [
                                          {
                                            "id" : 92,
                                            "_type" : "Callout",
                                            "def" : {
                                              "kind" : "remix",
                                              "shape" : "shape-rectangle",
                                              "style" : "bold",
                                              "fill-color-blue" : 1.0,
                                              "fill-color-green" : 1.0,
                                              "fill-color-opacity" : 1.0,
                                              "fill-color-red" : 1.0,
                                              "hasDropShadow" : 0.0,
                                              "height" : 163.002035140991,
                                              "savedXScale" : 1.0,
                                              "savedYScale" : 1.0,
                                              "stroke-color-blue" : 1.0,
                                              "stroke-color-green" : 1.0,
                                              "stroke-color-opacity" : 1.0,
                                              "stroke-color-red" : 1.0,
                                              "stroke-width" : 0.0,
                                              "width" : 1403.00212860107,
                                              "custom" : "Y",
                                              "fill-style" : "solid",
                                              "stroke-style" : "solid"
                                            },
                                            "attributes" : {
                                              "ident" : "",
                                              "autoRotateText" : true
                                            },
                                            "parameters" : {
                                              "anchor0" : -1.0,
                                              "anchor1" : 2.0,
                                              "sourceCrop0" : 0.0,
                                              "sourceCrop1" : 0.0,
                                              "sourceCrop2" : 0.0,
                                              "sourceCrop3" : 0.0,
                                              "geometryCrop0" : 0.0,
                                              "geometryCrop1" : 0.0,
                                              "geometryCrop2" : 0.0,
                                              "geometryCrop3" : 0.0
                                            },
                                            "effects" : [

                                            ],
                                            "start" : 0,
                                            "duration" : 3528000000,
                                            "mediaStart" : 0,
                                            "mediaDuration" : 3528000000,
                                            "scalar" : 1,
                                            "metadata" : {
                                              "AppliedThemeId" : "",
                                              "clipSpeedAttribute" : false,
                                              "effectApplied" : "none",
                                              "lockAspectRatio" : false
                                            },
                                            "animationTracks" : {

                                            }
                                          }
                                        ],
                                          "ident" : "",
                                          "audioMuted" : false,
                                          "videoHidden" : false,
                                          "magnetic" : false,
                                          "matte" : 0,
                                          "solo" : false,
                                          "metadata" : {
                                            "IsLocked" : "False",
                                            "WinTrackHeight" : "56",
                                            "trackHeight" : "54"
                                          }
                                      },
                                      {
                                        "trackIndex" : 1,
                                        "medias" : [
                                          {
                                            "id" : 93,
                                            "_type" : "Callout",
                                            "def" : {
                                              "kind" : "remix",
                                              "shape" : "shape-rectangle",
                                              "style" : "bold",
                                              "fill-color-blue" : 0.756862759590149,
                                              "fill-color-green" : 0.18823529779911,
                                              "fill-color-opacity" : 1.0,
                                              "fill-color-red" : 0.960784316062927,
                                              "hasDropShadow" : 0.0,
                                              "height" : 160.0,
                                              "savedXScale" : 1.0,
                                              "savedYScale" : 1.0,
                                              "stroke-color-blue" : 0.886274516582489,
                                              "stroke-color-green" : 0.200000002980232,
                                              "stroke-color-opacity" : 0.0,
                                              "stroke-color-red" : 0.376470595598221,
                                              "stroke-width" : 0.0,
                                              "width" : 1400.0,
                                              "custom" : "Y",
                                              "fill-style" : "solid",
                                              "stroke-style" : "solid"
                                            },
                                            "attributes" : {
                                              "ident" : "",
                                              "autoRotateText" : true
                                            },
                                            "parameters" : {
                                              "sourceCrop0" : 0.0,
                                              "sourceCrop1" : 0.0,
                                              "sourceCrop2" : 0.0,
                                              "sourceCrop3" : 0.0,
                                              "geometryCrop0" : 0.0,
                                              "geometryCrop1" : 0.0,
                                              "geometryCrop2" : 0.0,
                                              "geometryCrop3" : 0.0
                                            },
                                            "effects" : [

                                            ],
                                            "start" : 0,
                                            "duration" : 3528000000,
                                            "mediaStart" : 0,
                                            "mediaDuration" : 3528000000,
                                            "scalar" : 1,
                                            "metadata" : {
                                              "AppliedThemeId" : "",
                                              "clipSpeedAttribute" : false,
                                              "effectApplied" : "none"
                                            },
                                            "animationTracks" : {

                                            }
                                          }
                                        ],
                                          "ident" : "",
                                          "audioMuted" : false,
                                          "videoHidden" : false,
                                          "magnetic" : false,
                                          "matte" : 1,
                                          "solo" : false,
                                          "metadata" : {
                                            "IsLocked" : "False",
                                            "WinTrackHeight" : "56",
                                            "trackHeight" : "54"
                                          }
                                      }
                                    ],
                                    "attributes" : {
                                      "ident" : "Fill-1400x160",
                                      "widthAttr" : 1405.0,
                                      "heightAttr" : 167.002,
                                      "gain" : 1.0,
                                      "mixToMono" : false
                                    },
                                    "effects" : [

                                    ],
                                    "start" : 0,
                                    "duration" : 3528000000,
                                    "mediaStart" : 0.0,
                                    "mediaDuration" : 3528000000.0,
                                    "scalar" : 1,
                                    "metadata" : {
                                      "clipSpeedAttribute" : false,
                                      "effectApplied" : "none",
                                      "isOpen" : false,
                                      "lockAspectRatio" : true
                                    },
                                    "animationTracks" : {

                                    }
                                  }
                                ],
                                  "ident" : "",
                                  "audioMuted" : false,
                                  "videoHidden" : false,
                                  "magnetic" : false,
                                  "matte" : 0,
                                  "solo" : false,
                                  "metadata" : {
                                    "IsLocked" : "False",
                                    "WinTrackHeight" : "56",
                                    "trackHeight" : "54"
                                  }
                              },
                              {
                                "trackIndex" : 1,
                                "medias" : [
                                  {
                                    "id" : 94,
                                    "_type" : "Callout",
                                    "def" : {
                                      "kind" : "remix",
                                      "shape" : "text",
                                      "style" : "urban",
                                      "enable-ligatures" : 1.0,
                                      "hasDropShadow" : 0.0,
                                      "height" : 170.0,
                                      "line-spacing" : 0.0,
                                      "savedXScale" : 1.0,
                                      "savedYScale" : 1.0,
                                      "width" : 1400.0,
                                      "word-wrap" : 1.0,
                                      "custom" : "Y",
                                      "horizontal-alignment" : "left",
                                      "resize-behavior" : "resizeText",
                                      "text" : "clear formats from cells",
                                      "vertical-alignment" : "center",
                                      "font" : {
                                        "color-blue" : 1.0,
                                        "color-green" : 1.0,
                                        "color-red" : 1.0,
                                        "size" : 96.0,
                                        "tracking" : 0.0,
                                        "name" : "Dosis",
                                        "weight" : "Semi Bold"
                                      },
                                      "textAttributes" : {
                                        "type" : "textAttributeList",
                                        "keyframes" : [
                                          {
                                            "endTime" : 0,
                                            "time" : 0,
                                            "value" : [{"name":"underline","rangeEnd":24,"rangeStart":0,"value":0,"valueType":"int"},{"name":"strikethrough","rangeEnd":24,"rangeStart":0,"value":0,"valueType":"int"},{"name":"fontName","rangeEnd":24,"rangeStart":0,"value":"Roboto","valueType":"string"},{"name":"kerning","rangeEnd":24,"rangeStart":0,"value":0.049883078231292483,"valueType":"double"},{"name":"fontItalic","rangeEnd":24,"rangeStart":0,"value":0,"valueType":"int"},{"name":"fontWeight","rangeEnd":24,"rangeStart":0,"value":700,"valueType":"int"},{"name":"fontSize","rangeEnd":24,"rangeStart":0,"value":86,"valueType":"double"},{"name":"fgColor","rangeEnd":24,"rangeStart":0,"value":"(110,110,110,255)","valueType":"color"}],
                                            "duration" : 0
                                          }
                                        ]
                                      }
                                    },
                                    "attributes" : {
                                      "ident" : "",
                                      "autoRotateText" : true
                                    },
                                    "parameters" : {
                                      "translation1" : -2.0,
                                      "sourceCrop0" : 0.0,
                                      "sourceCrop1" : 0.0,
                                      "sourceCrop2" : 0.0,
                                      "sourceCrop3" : 0.0,
                                      "geometryCrop0" : 0.0,
                                      "geometryCrop1" : 0.0,
                                      "geometryCrop2" : 0.0,
                                      "geometryCrop3" : 0.0
                                    },
                                    "effects" : [

                                    ],
                                    "start" : 0,
                                    "duration" : 3528000000,
                                    "mediaStart" : 0,
                                    "mediaDuration" : 3528000000,
                                    "scalar" : 1,
                                    "metadata" : {
                                      "AppliedThemeId" : "",
                                      "clipSpeedAttribute" : false,
                                      "effectApplied" : "none",
                                      "lockAspectRatio" : false
                                    },
                                    "animationTracks" : {

                                    }
                                  }
                                ],
                                  "ident" : "",
                                  "audioMuted" : false,
                                  "videoHidden" : false,
                                  "magnetic" : false,
                                  "matte" : 0,
                                  "solo" : false,
                                  "metadata" : {
                                    "IsLocked" : "False",
                                    "WinTrackHeight" : "56",
                                    "trackHeight" : "54"
                                  }
                              }
                            ],
                            "attributes" : {
                              "ident" : "BP-Title-11",
                              "widthAttr" : 1405.0,
                              "heightAttr" : 167.002,
                              "gain" : 1.0,
                              "mixToMono" : false,
                              "assetProperties" : [
                                {
                                  "type" : 0,
                                  "name" : "Title",
                                  "objects" : [ 94 ],
                                  "themeMappings" :  {
                                    "font-color" : "foreground-1"
                                  }
                                },
                                {
                                  "type" : 1,
                                  "name" : "Fill",
                                  "objects" : [ 92 ],
                                  "themeMappings" :  {
                                    "fill" : "background-1"
                                  }
                                }
                              ]
                            },
                            "effects" : [

                            ],
                            "start" : 0,
                            "duration" : 3528000000,
                            "mediaStart" : 0.0,
                            "mediaDuration" : 3528000000.0,
                            "scalar" : 1,
                            "metadata" : {
                              "clipSpeedAttribute" : false,
                              "effectApplied" : "none",
                              "isOpen" : false,
                              "lockAspectRatio" : true
                            },
                            "animationTracks" : {
                              "visual" : [
                                {
                                  "endTime" : 552720000,
                                  "duration" : 552720000,
                                  "range" : [ 0, 552720000],
                                  "interp" : "eioe"
                                },
                                {
                                  "endTime" : 1775760000,
                                  "duration" : 399840000,
                                  "range" : [ 1375920000, 399840000],
                                  "interp" : "eioe"
                                }
                              ]
                            }
                          }
                        ],
                          "ident" : "",
                          "audioMuted" : false,
                          "videoHidden" : false,
                          "magnetic" : false,
                          "matte" : 0,
                          "solo" : false,
                          "metadata" : {
                            "IsLocked" : "False",
                            "WinTrackHeight" : "56",
                            "trackHeight" : "54"
                          }
                      },
                      {
                        "trackIndex" : 1,
                        "medias" : [
                          {
                            "id" : 95,
                            "_type" : "Group",
                            "parameters" : {
                              "translation0" : {
                                "type" : "double",
                                "defaultValue" : 0.0,
                                "keyframes" : [
                                  {
                                    "endTime" : 552720000,
                                    "time" : 0,
                                    "value" : 0.0,
                                    "interp" : "eioe",
                                    "duration" : 552720000
                                  },
                                  {
                                    "endTime" : 1775760000,
                                    "time" : 1375920000,
                                    "value" : 0.0,
                                    "interp" : "eioe",
                                    "duration" : 399840000
                                  }
                                ]
                              },
                              "translation1" : {
                                "type" : "double",
                                "defaultValue" : -144.610046386719,
                                "keyframes" : [
                                  {
                                    "endTime" : 552720000,
                                    "time" : 0,
                                    "value" : 0.0,
                                    "interp" : "eioe",
                                    "duration" : 552720000
                                  },
                                  {
                                    "endTime" : 1775760000,
                                    "time" : 1375920000,
                                    "value" : -144.610046386719,
                                    "interp" : "eioe",
                                    "duration" : 399840000
                                  }
                                ]
                              },
                              "sourceCrop0" : 0.0,
                              "sourceCrop1" : 0.0,
                              "sourceCrop2" : 0.0,
                              "sourceCrop3" : 0.0,
                              "geometryCrop0" : 0.0,
                              "geometryCrop1" : 0.0,
                              "geometryCrop2" : 0.0,
                              "geometryCrop3" : 0.0,
                              "opacity" : {
                                "type" : "double",
                                "defaultValue" : 1.0,
                                "keyframes" : [
                                  {
                                    "endTime" : 552720000,
                                    "time" : 0,
                                    "value" : 1.0,
                                    "interp" : "eioe",
                                    "duration" : 552720000
                                  }
                                ]
                              },
                              "volume" : 1.0
                            },
                            "tracks" : [
                              {
                                "trackIndex" : 0,
                                "medias" : [
                                  {
                                    "id" : 96,
                                    "_type" : "Callout",
                                    "def" : {
                                      "kind" : "remix",
                                      "shape" : "shape-rectangle",
                                      "style" : "bold",
                                      "fill-color-blue" : 0.913725490196078,
                                      "fill-color-green" : 0.949019607843137,
                                      "fill-color-opacity" : 1.0,
                                      "fill-color-red" : 0.933333333333333,
                                      "hasDropShadow" : 0.0,
                                      "height" : 163.002035140991,
                                      "savedXScale" : 1.0,
                                      "savedYScale" : 1.0,
                                      "stroke-color-blue" : 1.0,
                                      "stroke-color-green" : 1.0,
                                      "stroke-color-opacity" : 1.0,
                                      "stroke-color-red" : 1.0,
                                      "stroke-width" : 0.0,
                                      "width" : 1403.00212860107,
                                      "custom" : "Y",
                                      "fill-style" : "solid",
                                      "stroke-style" : "solid"
                                    },
                                    "attributes" : {
                                      "ident" : "",
                                      "autoRotateText" : true
                                    },
                                    "parameters" : {
                                      "anchor0" : -1.0,
                                      "anchor1" : 2.0,
                                      "sourceCrop0" : 0.0,
                                      "sourceCrop1" : 0.0,
                                      "sourceCrop2" : 0.0,
                                      "sourceCrop3" : 0.0,
                                      "geometryCrop0" : 0.0,
                                      "geometryCrop1" : 0.0,
                                      "geometryCrop2" : 0.0,
                                      "geometryCrop3" : 0.0
                                    },
                                    "effects" : [

                                    ],
                                    "start" : 0,
                                    "duration" : 3528000000,
                                    "mediaStart" : 0,
                                    "mediaDuration" : 3528000000,
                                    "scalar" : 1,
                                    "metadata" : {
                                      "AppliedThemeId" : "",
                                      "clipSpeedAttribute" : false,
                                      "effectApplied" : "none",
                                      "lockAspectRatio" : false
                                    },
                                    "animationTracks" : {

                                    }
                                  }
                                ],
                                  "ident" : "",
                                  "audioMuted" : false,
                                  "videoHidden" : false,
                                  "magnetic" : false,
                                  "matte" : 0,
                                  "solo" : false,
                                  "metadata" : {
                                    "IsLocked" : "False",
                                    "WinTrackHeight" : "56",
                                    "trackHeight" : "54"
                                  }
                              },
                              {
                                "trackIndex" : 1,
                                "medias" : [
                                  {
                                    "id" : 97,
                                    "_type" : "Callout",
                                    "def" : {
                                      "kind" : "remix",
                                      "shape" : "shape-rectangle",
                                      "style" : "bold",
                                      "fill-color-blue" : 0.756862759590149,
                                      "fill-color-green" : 0.18823529779911,
                                      "fill-color-opacity" : 1.0,
                                      "fill-color-red" : 0.960784316062927,
                                      "hasDropShadow" : 0.0,
                                      "height" : 160.0,
                                      "savedXScale" : 1.0,
                                      "savedYScale" : 1.0,
                                      "stroke-color-blue" : 0.886274516582489,
                                      "stroke-color-green" : 0.200000002980232,
                                      "stroke-color-opacity" : 0.0,
                                      "stroke-color-red" : 0.376470595598221,
                                      "stroke-width" : 0.0,
                                      "width" : 1400.0,
                                      "custom" : "Y",
                                      "fill-style" : "solid",
                                      "stroke-style" : "solid"
                                    },
                                    "attributes" : {
                                      "ident" : "",
                                      "autoRotateText" : true
                                    },
                                    "parameters" : {
                                      "sourceCrop0" : 0.0,
                                      "sourceCrop1" : 0.0,
                                      "sourceCrop2" : 0.0,
                                      "sourceCrop3" : 0.0,
                                      "geometryCrop0" : 0.0,
                                      "geometryCrop1" : 0.0,
                                      "geometryCrop2" : 0.0,
                                      "geometryCrop3" : 0.0
                                    },
                                    "effects" : [

                                    ],
                                    "start" : 0,
                                    "duration" : 3528000000,
                                    "mediaStart" : 0,
                                    "mediaDuration" : 3528000000,
                                    "scalar" : 1,
                                    "metadata" : {
                                      "AppliedThemeId" : "",
                                      "clipSpeedAttribute" : false,
                                      "effectApplied" : "none"
                                    },
                                    "animationTracks" : {

                                    }
                                  }
                                ],
                                  "ident" : "",
                                  "audioMuted" : false,
                                  "videoHidden" : false,
                                  "magnetic" : false,
                                  "matte" : 1,
                                  "solo" : false,
                                  "metadata" : {
                                    "IsLocked" : "False",
                                    "WinTrackHeight" : "56",
                                    "trackHeight" : "54"
                                  }
                              }
                            ],
                            "attributes" : {
                              "ident" : "Rect-1400x1600-Mask",
                              "widthAttr" : 1405.0,
                              "heightAttr" : 167.002,
                              "gain" : 1.0,
                              "mixToMono" : false
                            },
                            "effects" : [

                            ],
                            "start" : 0,
                            "duration" : 3528000000,
                            "mediaStart" : 0.0,
                            "mediaDuration" : 3528000000.0,
                            "scalar" : 1,
                            "metadata" : {
                              "clipSpeedAttribute" : false,
                              "effectApplied" : "none",
                              "isOpen" : false,
                              "lockAspectRatio" : true
                            },
                            "animationTracks" : {
                              "visual" : [
                                {
                                  "endTime" : 552720000,
                                  "duration" : 552720000,
                                  "range" : [ 0, 552720000],
                                  "interp" : "eioe"
                                },
                                {
                                  "endTime" : 1775760000,
                                  "duration" : 399840000,
                                  "range" : [ 1375920000, 399840000],
                                  "interp" : "eioe"
                                }
                              ]
                            }
                          }
                        ],
                          "ident" : "",
                          "audioMuted" : false,
                          "videoHidden" : false,
                          "magnetic" : false,
                          "matte" : 1,
                          "solo" : false,
                          "metadata" : {
                            "IsLocked" : "False",
                            "WinTrackHeight" : "56",
                            "trackHeight" : "54"
                          }
                      },
                      {
                        "trackIndex" : 2,
                        "medias" : [
                          {
                            "id" : 98,
                            "_type" : "Group",
                            "parameters" : {
                              "translation0" : {
                                "type" : "double",
                                "defaultValue" : 0.0,
                                "keyframes" : [
                                  {
                                    "endTime" : 552720000,
                                    "time" : 0,
                                    "value" : 0.0,
                                    "interp" : "eioe",
                                    "duration" : 552720000
                                  },
                                  {
                                    "endTime" : 1775760000,
                                    "time" : 1375920000,
                                    "value" : 0.0,
                                    "interp" : "eioe",
                                    "duration" : 399840000
                                  }
                                ]
                              },
                              "translation1" : {
                                "type" : "double",
                                "defaultValue" : -233.610046386719,
                                "keyframes" : [
                                  {
                                    "endTime" : 552720000,
                                    "time" : 0,
                                    "value" : 90.0,
                                    "interp" : "eioe",
                                    "duration" : 552720000
                                  },
                                  {
                                    "endTime" : 1775760000,
                                    "time" : 1375920000,
                                    "value" : -233.610046386719,
                                    "interp" : "eioe",
                                    "duration" : 399840000
                                  }
                                ]
                              },
                              "sourceCrop0" : 0.0,
                              "sourceCrop1" : 0.0,
                              "sourceCrop2" : 0.0,
                              "sourceCrop3" : 0.0,
                              "geometryCrop0" : 0.0,
                              "geometryCrop1" : 0.0,
                              "geometryCrop2" : 0.0,
                              "geometryCrop3" : 0.0,
                              "opacity" : {
                                "type" : "double",
                                "defaultValue" : 1.0,
                                "keyframes" : [
                                  {
                                    "endTime" : 552720000,
                                    "time" : 0,
                                    "value" : 1.0,
                                    "interp" : "eioe",
                                    "duration" : 552720000
                                  }
                                ]
                              },
                              "volume" : 1.0
                            },
                            "tracks" : [
                              {
                                "trackIndex" : 0,
                                "medias" : [
                                  {
                                    "id" : 99,
                                    "_type" : "Callout",
                                    "def" : {
                                      "kind" : "remix",
                                      "shape" : "shape-rectangle",
                                      "style" : "bold",
                                      "fill-color-blue" : 0.2196078431,
                                      "fill-color-green" : 0.8745098039,
                                      "fill-color-opacity" : 1.0,
                                      "fill-color-red" : 1.0,
                                      "hasDropShadow" : 0.0,
                                      "height" : 163.002035140991,
                                      "savedXScale" : 1.0,
                                      "savedYScale" : 1.0,
                                      "stroke-color-blue" : 1.0,
                                      "stroke-color-green" : 1.0,
                                      "stroke-color-opacity" : 1.0,
                                      "stroke-color-red" : 1.0,
                                      "stroke-width" : 0.0,
                                      "width" : 1403.00212860107,
                                      "custom" : "Y",
                                      "fill-style" : "solid",
                                      "stroke-style" : "solid"
                                    },
                                    "attributes" : {
                                      "ident" : "",
                                      "autoRotateText" : true
                                    },
                                    "parameters" : {
                                      "anchor0" : -1.0,
                                      "anchor1" : 2.0,
                                      "sourceCrop0" : 0.0,
                                      "sourceCrop1" : 0.0,
                                      "sourceCrop2" : 0.0,
                                      "sourceCrop3" : 0.0,
                                      "geometryCrop0" : 0.0,
                                      "geometryCrop1" : 0.0,
                                      "geometryCrop2" : 0.0,
                                      "geometryCrop3" : 0.0
                                    },
                                    "effects" : [

                                    ],
                                    "start" : 0,
                                    "duration" : 3528000000,
                                    "mediaStart" : 0,
                                    "mediaDuration" : 3528000000,
                                    "scalar" : 1,
                                    "metadata" : {
                                      "AppliedThemeId" : "",
                                      "clipSpeedAttribute" : false,
                                      "effectApplied" : "none",
                                      "lockAspectRatio" : false
                                    },
                                    "animationTracks" : {

                                    }
                                  }
                                ],
                                  "ident" : "",
                                  "audioMuted" : false,
                                  "videoHidden" : false,
                                  "magnetic" : false,
                                  "matte" : 0,
                                  "solo" : false,
                                  "metadata" : {
                                    "IsLocked" : "False",
                                    "WinTrackHeight" : "56",
                                    "trackHeight" : "54"
                                  }
                              },
                              {
                                "trackIndex" : 1,
                                "medias" : [
                                  {
                                    "id" : 100,
                                    "_type" : "Callout",
                                    "def" : {
                                      "kind" : "remix",
                                      "shape" : "shape-rectangle",
                                      "style" : "bold",
                                      "fill-color-blue" : 0.756862759590149,
                                      "fill-color-green" : 0.18823529779911,
                                      "fill-color-opacity" : 1.0,
                                      "fill-color-red" : 0.960784316062927,
                                      "hasDropShadow" : 0.0,
                                      "height" : 160.0,
                                      "savedXScale" : 1.0,
                                      "savedYScale" : 1.0,
                                      "stroke-color-blue" : 0.886274516582489,
                                      "stroke-color-green" : 0.200000002980232,
                                      "stroke-color-opacity" : 0.0,
                                      "stroke-color-red" : 0.376470595598221,
                                      "stroke-width" : 0.0,
                                      "width" : 1400.0,
                                      "custom" : "Y",
                                      "fill-style" : "solid",
                                      "stroke-style" : "solid"
                                    },
                                    "attributes" : {
                                      "ident" : "",
                                      "autoRotateText" : true
                                    },
                                    "parameters" : {
                                      "translation1" : {
                                        "type" : "double",
                                        "defaultValue" : -1.0,
                                        "keyframes" : [
                                          {
                                            "endTime" : 270480000,
                                            "time" : 0,
                                            "value" : 0.0,
                                            "duration" : 270480000
                                          }
                                        ]
                                      },
                                      "scale0" : {
                                        "type" : "double",
                                        "defaultValue" : 1.0,
                                        "keyframes" : [
                                          {
                                            "endTime" : 270480000,
                                            "time" : 0,
                                            "value" : 1.0,
                                            "duration" : 270480000
                                          }
                                        ]
                                      },
                                      "scale1" : {
                                        "type" : "double",
                                        "defaultValue" : 0.125,
                                        "keyframes" : [
                                          {
                                            "endTime" : 270480000,
                                            "time" : 0,
                                            "value" : 0.5,
                                            "duration" : 270480000
                                          },
                                          {
                                            "endTime" : 552720000,
                                            "time" : 282240000,
                                            "value" : 0.125,
                                            "duration" : 270480000
                                          }
                                        ]
                                      },
                                      "sourceCrop0" : 0.0,
                                      "sourceCrop1" : 0.0,
                                      "sourceCrop2" : 0.0,
                                      "sourceCrop3" : 0.0,
                                      "geometryCrop0" : 0.0,
                                      "geometryCrop1" : 0.0,
                                      "geometryCrop2" : 0.0,
                                      "geometryCrop3" : 0.0
                                    },
                                    "effects" : [

                                    ],
                                    "start" : 0,
                                    "duration" : 3528000000,
                                    "mediaStart" : 0,
                                    "mediaDuration" : 3528000000,
                                    "scalar" : 1,
                                    "metadata" : {
                                      "AppliedThemeId" : "",
                                      "clipSpeedAttribute" : false,
                                      "effectApplied" : "none"
                                    },
                                    "animationTracks" : {
                                      "visual" : [
                                        {
                                          "endTime" : 270480000,
                                          "duration" : 270480000,
                                          "range" : [ 0, 270480000]
                                        },
                                        {
                                          "endTime" : 552720000,
                                          "duration" : 270480000,
                                          "range" : [ 282240000, 270480000]
                                        }
                                      ]
                                    }
                                  }
                                ],
                                  "ident" : "",
                                  "audioMuted" : false,
                                  "videoHidden" : false,
                                  "magnetic" : false,
                                  "matte" : 1,
                                  "solo" : false,
                                  "metadata" : {
                                    "IsLocked" : "False",
                                    "WinTrackHeight" : "56",
                                    "trackHeight" : "54"
                                  }
                              }
                            ],
                            "attributes" : {
                              "ident" : "Animated-Pulse-1400x20-To-1400x80",
                              "widthAttr" : 1405.0,
                              "heightAttr" : 167.002,
                              "gain" : 1.0,
                              "mixToMono" : false,
                              "assetProperties" : [
                                {
                                  "type" : 1,
                                  "name" : "Color",
                                  "objects" : [ 99 ],
                                  "themeMappings" :  {
                                    "fill" : "accent-1"
                                  }
                                }
                              ]
                            },
                            "effects" : [

                            ],
                            "start" : 0,
                            "duration" : 3528000000,
                            "mediaStart" : 0.0,
                            "mediaDuration" : 3528000000.0,
                            "scalar" : 1,
                            "metadata" : {
                              "AppliedThemeId" : "8e797988-b823-4beb-b251-1d31b461ba07",
                              "clipSpeedAttribute" : false,
                              "effectApplied" : "none",
                              "isOpen" : false,
                              "lockAspectRatio" : true
                            },
                            "animationTracks" : {
                              "visual" : [
                                {
                                  "endTime" : 552720000,
                                  "duration" : 552720000,
                                  "range" : [ 0, 552720000],
                                  "interp" : "eioe"
                                },
                                {
                                  "endTime" : 1775760000,
                                  "duration" : 399840000,
                                  "range" : [ 1375920000, 399840000],
                                  "interp" : "eioe"
                                }
                              ]
                            }
                          }
                        ],
                          "ident" : "",
                          "audioMuted" : false,
                          "videoHidden" : false,
                          "magnetic" : false,
                          "matte" : 0,
                          "solo" : false,
                          "metadata" : {
                            "IsLocked" : "False",
                            "WinTrackHeight" : "56",
                            "trackHeight" : "54"
                          }
                      },
                      {
                        "trackIndex" : 3,
                        "medias" : [
                          {
                            "id" : 101,
                            "_type" : "Group",
                            "parameters" : {
                              "translation0" : {
                                "type" : "double",
                                "defaultValue" : 0.0,
                                "keyframes" : [
                                  {
                                    "endTime" : 552720000,
                                    "time" : 0,
                                    "value" : 0.0,
                                    "interp" : "eioe",
                                    "duration" : 552720000
                                  },
                                  {
                                    "endTime" : 1775760000,
                                    "time" : 1375920000,
                                    "value" : 0.0,
                                    "interp" : "eioe",
                                    "duration" : 399840000
                                  }
                                ]
                              },
                              "translation1" : {
                                "type" : "double",
                                "defaultValue" : -143.610046386719,
                                "keyframes" : [
                                  {
                                    "endTime" : 552720000,
                                    "time" : 0,
                                    "value" : 0.0,
                                    "interp" : "eioe",
                                    "duration" : 552720000
                                  },
                                  {
                                    "endTime" : 1775760000,
                                    "time" : 1375920000,
                                    "value" : -143.610046386719,
                                    "interp" : "eioe",
                                    "duration" : 399840000
                                  }
                                ]
                              },
                              "sourceCrop0" : 0.0,
                              "sourceCrop1" : 0.0,
                              "sourceCrop2" : 0.0,
                              "sourceCrop3" : 0.0,
                              "geometryCrop0" : 0.0,
                              "geometryCrop1" : 0.0,
                              "geometryCrop2" : 0.0,
                              "geometryCrop3" : 0.0,
                              "opacity" : {
                                "type" : "double",
                                "defaultValue" : 1.0,
                                "keyframes" : [
                                  {
                                    "endTime" : 552720000,
                                    "time" : 0,
                                    "value" : 1.0,
                                    "interp" : "eioe",
                                    "duration" : 552720000
                                  }
                                ]
                              },
                              "volume" : 1.0
                            },
                            "tracks" : [
                              {
                                "trackIndex" : 0,
                                "medias" : [
                                  {
                                    "id" : 102,
                                    "_type" : "Callout",
                                    "def" : {
                                      "kind" : "remix",
                                      "shape" : "shape-rectangle",
                                      "style" : "bold",
                                      "fill-color-blue" : 0.913725490196078,
                                      "fill-color-green" : 0.949019607843137,
                                      "fill-color-opacity" : 1.0,
                                      "fill-color-red" : 0.933333333333333,
                                      "hasDropShadow" : 0.0,
                                      "height" : 163.002035140991,
                                      "savedXScale" : 1.0,
                                      "savedYScale" : 1.0,
                                      "stroke-color-blue" : 1.0,
                                      "stroke-color-green" : 1.0,
                                      "stroke-color-opacity" : 1.0,
                                      "stroke-color-red" : 1.0,
                                      "stroke-width" : 0.0,
                                      "width" : 1403.00212860107,
                                      "custom" : "Y",
                                      "fill-style" : "solid",
                                      "stroke-style" : "solid"
                                    },
                                    "attributes" : {
                                      "ident" : "",
                                      "autoRotateText" : true
                                    },
                                    "parameters" : {
                                      "anchor0" : -1.0,
                                      "anchor1" : 2.0,
                                      "sourceCrop0" : 0.0,
                                      "sourceCrop1" : 0.0,
                                      "sourceCrop2" : 0.0,
                                      "sourceCrop3" : 0.0,
                                      "geometryCrop0" : 0.0,
                                      "geometryCrop1" : 0.0,
                                      "geometryCrop2" : 0.0,
                                      "geometryCrop3" : 0.0
                                    },
                                    "effects" : [

                                    ],
                                    "start" : 0,
                                    "duration" : 3528000000,
                                    "mediaStart" : 0,
                                    "mediaDuration" : 3528000000,
                                    "scalar" : 1,
                                    "metadata" : {
                                      "AppliedThemeId" : "",
                                      "clipSpeedAttribute" : false,
                                      "effectApplied" : "none",
                                      "lockAspectRatio" : false
                                    },
                                    "animationTracks" : {

                                    }
                                  }
                                ],
                                  "ident" : "",
                                  "audioMuted" : false,
                                  "videoHidden" : false,
                                  "magnetic" : false,
                                  "matte" : 0,
                                  "solo" : false,
                                  "metadata" : {
                                    "IsLocked" : "False",
                                    "WinTrackHeight" : "56",
                                    "trackHeight" : "54"
                                  }
                              },
                              {
                                "trackIndex" : 1,
                                "medias" : [
                                  {
                                    "id" : 103,
                                    "_type" : "Callout",
                                    "def" : {
                                      "kind" : "remix",
                                      "shape" : "shape-rectangle",
                                      "style" : "bold",
                                      "fill-color-blue" : 0.756862759590149,
                                      "fill-color-green" : 0.18823529779911,
                                      "fill-color-opacity" : 1.0,
                                      "fill-color-red" : 0.960784316062927,
                                      "hasDropShadow" : 0.0,
                                      "height" : 160.0,
                                      "savedXScale" : 1.0,
                                      "savedYScale" : 1.0,
                                      "stroke-color-blue" : 0.886274516582489,
                                      "stroke-color-green" : 0.200000002980232,
                                      "stroke-color-opacity" : 0.0,
                                      "stroke-color-red" : 0.376470595598221,
                                      "stroke-width" : 0.0,
                                      "width" : 1400.0,
                                      "custom" : "Y",
                                      "fill-style" : "solid",
                                      "stroke-style" : "solid"
                                    },
                                    "attributes" : {
                                      "ident" : "",
                                      "autoRotateText" : true
                                    },
                                    "parameters" : {
                                      "sourceCrop0" : 0.0,
                                      "sourceCrop1" : 0.0,
                                      "sourceCrop2" : 0.0,
                                      "sourceCrop3" : 0.0,
                                      "geometryCrop0" : 0.0,
                                      "geometryCrop1" : 0.0,
                                      "geometryCrop2" : 0.0,
                                      "geometryCrop3" : 0.0
                                    },
                                    "effects" : [

                                    ],
                                    "start" : 0,
                                    "duration" : 3528000000,
                                    "mediaStart" : 0,
                                    "mediaDuration" : 3528000000,
                                    "scalar" : 1,
                                    "metadata" : {
                                      "AppliedThemeId" : "",
                                      "clipSpeedAttribute" : false,
                                      "effectApplied" : "none"
                                    },
                                    "animationTracks" : {

                                    }
                                  }
                                ],
                                  "ident" : "",
                                  "audioMuted" : false,
                                  "videoHidden" : false,
                                  "magnetic" : false,
                                  "matte" : 1,
                                  "solo" : false,
                                  "metadata" : {
                                    "IsLocked" : "False",
                                    "WinTrackHeight" : "56",
                                    "trackHeight" : "54"
                                  }
                              }
                            ],
                            "attributes" : {
                              "ident" : "Rect-1400x1600-Mask",
                              "widthAttr" : 1405.0,
                              "heightAttr" : 167.002,
                              "gain" : 1.0,
                              "mixToMono" : false
                            },
                            "effects" : [

                            ],
                            "start" : 0,
                            "duration" : 3528000000,
                            "mediaStart" : 0.0,
                            "mediaDuration" : 3528000000.0,
                            "scalar" : 1,
                            "metadata" : {
                              "clipSpeedAttribute" : false,
                              "effectApplied" : "none",
                              "isOpen" : false,
                              "lockAspectRatio" : true
                            },
                            "animationTracks" : {
                              "visual" : [
                                {
                                  "endTime" : 552720000,
                                  "duration" : 552720000,
                                  "range" : [ 0, 552720000],
                                  "interp" : "eioe"
                                },
                                {
                                  "endTime" : 1775760000,
                                  "duration" : 399840000,
                                  "range" : [ 1375920000, 399840000],
                                  "interp" : "eioe"
                                }
                              ]
                            }
                          }
                        ],
                          "ident" : "",
                          "audioMuted" : false,
                          "videoHidden" : false,
                          "magnetic" : false,
                          "matte" : 1,
                          "solo" : false,
                          "metadata" : {
                            "IsLocked" : "False",
                            "WinTrackHeight" : "56",
                            "trackHeight" : "54"
                          }
                      }
                    ],
                    "attributes" : {
                      "ident" : "Broadcast-Title-012",
                      "widthAttr" : 1405.0,
                      "heightAttr" : 160.0,
                      "gain" : 1.0,
                      "mixToMono" : false,
                      "assetProperties" : [
                        {
                          "type" : 0,
                          "name" : "Title",
                          "objects" : [ 94 ],
                          "themeMappings" :  {
                            "font-color" : "foreground-1"
                          }
                        },
                        {
                          "type" : 1,
                          "name" : "Fill",
                          "objects" : [ 92 ],
                          "themeMappings" :  {
                            "fill" : "background-1"
                          }
                        },
                        {
                          "type" : 1,
                          "name" : "Wiper",
                          "objects" : [ 99 ],
                          "themeMappings" :  {
                            "fill" : "foreground-1"
                          }
                        }
                      ]
                    },
                    "effects" : [

                    ],
                    "start" : 1928640000,
                    "duration" : 1764000000,
                    "mediaStart" : 0.0,
                    "mediaDuration" : 1764000000.0,
                    "scalar" : 1,
                    "metadata" : {
                      "AppliedThemeId" : "170ba59c-db5d-4b9a-a310-e7e99853a4b7",
                      "clipSpeedAttribute" : false,
                      "default-anchor0" : 0.0,
                      "default-anchor1" : 0.0,
                      "default-anchor2" : 0.0,
                      "default-geometryCrop0" : 0.0,
                      "default-geometryCrop2" : 0.0,
                      "default-height" : 160.0,
                      "default-rotation0" : 0.0,
                      "default-rotation1" : 0.0,
                      "default-rotation2" : 0.0,
                      "default-scale0" : 1.0,
                      "default-scale1" : 1.0,
                      "default-scale2" : 1.0,
                      "default-shear0" : 0.0,
                      "default-shear1" : 0.0,
                      "default-shear2" : 0.0,
                      "default-translation0" : 0.0,
                      "default-translation1" : 0.0,
                      "default-translation2" : 0.0,
                      "default-width" : 1405.0,
                      "effectApplied" : "none",
                      "isOpen" : false,
                      "lockAspectRatio" : true
                    },
                    "animationTracks" : {

                    }
                  }
                ]
              },
              {
                "trackIndex" : 92,
                "medias" : [
                  {
                    "id" : 104,
                    "_type" : "Group",
                    "parameters" : {
                      "translation0" : -415.0,
                      "translation1" : 500.0,
                      "scale0" : 0.21505376344086,
                      "scale1" : 0.21875,
                      "sourceCrop0" : 0.0,
                      "sourceCrop1" : 0.0,
                      "sourceCrop2" : 0.0,
                      "sourceCrop3" : 0.0,
                      "geometryCrop0" : 0.0,
                      "geometryCrop1" : 0.0,
                      "geometryCrop2" : 9.99999999999943,
                      "geometryCrop3" : 0.0,
                      "volume" : 1.0
                    },
                    "tracks" : [
                      {
                        "trackIndex" : 0,
                        "medias" : [
                          {
                            "id" : 105,
                            "_type" : "Group",
                            "parameters" : {
                              "translation0" : {
                                "type" : "double",
                                "defaultValue" : 0.0,
                                "keyframes" : [
                                  {
                                    "endTime" : 552720000,
                                    "time" : 0,
                                    "value" : 0.0,
                                    "interp" : "eioe",
                                    "duration" : 552720000
                                  },
                                  {
                                    "endTime" : 1775760000,
                                    "time" : 1375920000,
                                    "value" : 0.0,
                                    "interp" : "eioe",
                                    "duration" : 399840000
                                  }
                                ]
                              },
                              "translation1" : {
                                "type" : "double",
                                "defaultValue" : -305.610046386719,
                                "keyframes" : [
                                  {
                                    "endTime" : 552720000,
                                    "time" : 0,
                                    "value" : 0.0,
                                    "interp" : "eioe",
                                    "duration" : 552720000
                                  },
                                  {
                                    "endTime" : 1775760000,
                                    "time" : 1375920000,
                                    "value" : -304.610046386719,
                                    "interp" : "eioe",
                                    "duration" : 399840000
                                  }
                                ]
                              },
                              "sourceCrop0" : 0.0,
                              "sourceCrop1" : 0.0,
                              "sourceCrop2" : 0.0,
                              "sourceCrop3" : 0.0,
                              "geometryCrop0" : 0.0,
                              "geometryCrop1" : 0.0,
                              "geometryCrop2" : 0.0,
                              "geometryCrop3" : 0.0,
                              "volume" : 1.0
                            },
                            "tracks" : [
                              {
                                "trackIndex" : 0,
                                "medias" : [
                                  {
                                    "id" : 106,
                                    "_type" : "Group",
                                    "parameters" : {
                                      "sourceCrop0" : 0.0,
                                      "sourceCrop1" : 0.0,
                                      "sourceCrop2" : 0.0,
                                      "sourceCrop3" : 0.0,
                                      "geometryCrop0" : 0.0,
                                      "geometryCrop1" : 0.0,
                                      "geometryCrop2" : 0.0,
                                      "geometryCrop3" : 0.0,
                                      "volume" : 1.0
                                    },
                                    "tracks" : [
                                      {
                                        "trackIndex" : 0,
                                        "medias" : [
                                          {
                                            "id" : 107,
                                            "_type" : "Callout",
                                            "def" : {
                                              "kind" : "remix",
                                              "shape" : "shape-rectangle",
                                              "style" : "bold",
                                              "fill-color-blue" : 1.0,
                                              "fill-color-green" : 1.0,
                                              "fill-color-opacity" : 1.0,
                                              "fill-color-red" : 1.0,
                                              "hasDropShadow" : 0.0,
                                              "height" : 163.002035140991,
                                              "savedXScale" : 1.0,
                                              "savedYScale" : 1.0,
                                              "stroke-color-blue" : 1.0,
                                              "stroke-color-green" : 1.0,
                                              "stroke-color-opacity" : 1.0,
                                              "stroke-color-red" : 1.0,
                                              "stroke-width" : 0.0,
                                              "width" : 1403.00212860107,
                                              "custom" : "Y",
                                              "fill-style" : "solid",
                                              "stroke-style" : "solid"
                                            },
                                            "attributes" : {
                                              "ident" : "",
                                              "autoRotateText" : true
                                            },
                                            "parameters" : {
                                              "anchor0" : -1.0,
                                              "anchor1" : 2.0,
                                              "sourceCrop0" : 0.0,
                                              "sourceCrop1" : 0.0,
                                              "sourceCrop2" : 0.0,
                                              "sourceCrop3" : 0.0,
                                              "geometryCrop0" : 0.0,
                                              "geometryCrop1" : 0.0,
                                              "geometryCrop2" : 0.0,
                                              "geometryCrop3" : 0.0
                                            },
                                            "effects" : [

                                            ],
                                            "start" : 0,
                                            "duration" : 3528000000,
                                            "mediaStart" : 0,
                                            "mediaDuration" : 3528000000,
                                            "scalar" : 1,
                                            "metadata" : {
                                              "AppliedThemeId" : "",
                                              "clipSpeedAttribute" : false,
                                              "effectApplied" : "none",
                                              "lockAspectRatio" : false
                                            },
                                            "animationTracks" : {

                                            }
                                          }
                                        ],
                                          "ident" : "",
                                          "audioMuted" : false,
                                          "videoHidden" : false,
                                          "magnetic" : false,
                                          "matte" : 0,
                                          "solo" : false,
                                          "metadata" : {
                                            "IsLocked" : "False",
                                            "WinTrackHeight" : "56",
                                            "trackHeight" : "54"
                                          }
                                      },
                                      {
                                        "trackIndex" : 1,
                                        "medias" : [
                                          {
                                            "id" : 108,
                                            "_type" : "Callout",
                                            "def" : {
                                              "kind" : "remix",
                                              "shape" : "shape-rectangle",
                                              "style" : "bold",
                                              "fill-color-blue" : 0.756862759590149,
                                              "fill-color-green" : 0.18823529779911,
                                              "fill-color-opacity" : 1.0,
                                              "fill-color-red" : 0.960784316062927,
                                              "hasDropShadow" : 0.0,
                                              "height" : 160.0,
                                              "savedXScale" : 1.0,
                                              "savedYScale" : 1.0,
                                              "stroke-color-blue" : 0.886274516582489,
                                              "stroke-color-green" : 0.200000002980232,
                                              "stroke-color-opacity" : 0.0,
                                              "stroke-color-red" : 0.376470595598221,
                                              "stroke-width" : 0.0,
                                              "width" : 1400.0,
                                              "custom" : "Y",
                                              "fill-style" : "solid",
                                              "stroke-style" : "solid"
                                            },
                                            "attributes" : {
                                              "ident" : "",
                                              "autoRotateText" : true
                                            },
                                            "parameters" : {
                                              "sourceCrop0" : 0.0,
                                              "sourceCrop1" : 0.0,
                                              "sourceCrop2" : 0.0,
                                              "sourceCrop3" : 0.0,
                                              "geometryCrop0" : 0.0,
                                              "geometryCrop1" : 0.0,
                                              "geometryCrop2" : 0.0,
                                              "geometryCrop3" : 0.0
                                            },
                                            "effects" : [

                                            ],
                                            "start" : 0,
                                            "duration" : 3528000000,
                                            "mediaStart" : 0,
                                            "mediaDuration" : 3528000000,
                                            "scalar" : 1,
                                            "metadata" : {
                                              "AppliedThemeId" : "",
                                              "clipSpeedAttribute" : false,
                                              "effectApplied" : "none"
                                            },
                                            "animationTracks" : {

                                            }
                                          }
                                        ],
                                          "ident" : "",
                                          "audioMuted" : false,
                                          "videoHidden" : false,
                                          "magnetic" : false,
                                          "matte" : 1,
                                          "solo" : false,
                                          "metadata" : {
                                            "IsLocked" : "False",
                                            "WinTrackHeight" : "56",
                                            "trackHeight" : "54"
                                          }
                                      }
                                    ],
                                    "attributes" : {
                                      "ident" : "Fill-1400x160",
                                      "widthAttr" : 1405.0,
                                      "heightAttr" : 167.002,
                                      "gain" : 1.0,
                                      "mixToMono" : false
                                    },
                                    "effects" : [

                                    ],
                                    "start" : 0,
                                    "duration" : 3528000000,
                                    "mediaStart" : 0.0,
                                    "mediaDuration" : 3528000000.0,
                                    "scalar" : 1,
                                    "metadata" : {
                                      "clipSpeedAttribute" : false,
                                      "effectApplied" : "none",
                                      "isOpen" : false,
                                      "lockAspectRatio" : true
                                    },
                                    "animationTracks" : {

                                    }
                                  }
                                ],
                                  "ident" : "",
                                  "audioMuted" : false,
                                  "videoHidden" : false,
                                  "magnetic" : false,
                                  "matte" : 0,
                                  "solo" : false,
                                  "metadata" : {
                                    "IsLocked" : "False",
                                    "WinTrackHeight" : "56",
                                    "trackHeight" : "54"
                                  }
                              },
                              {
                                "trackIndex" : 1,
                                "medias" : [
                                  {
                                    "id" : 109,
                                    "_type" : "Callout",
                                    "def" : {
                                      "kind" : "remix",
                                      "shape" : "text",
                                      "style" : "urban",
                                      "enable-ligatures" : 1.0,
                                      "hasDropShadow" : 0.0,
                                      "height" : 170.0,
                                      "line-spacing" : 0.0,
                                      "savedXScale" : 1.0,
                                      "savedYScale" : 1.0,
                                      "width" : 1400.0,
                                      "word-wrap" : 1.0,
                                      "custom" : "Y",
                                      "horizontal-alignment" : "left",
                                      "resize-behavior" : "resizeText",
                                      "text" : "copy selected cells",
                                      "vertical-alignment" : "center",
                                      "font" : {
                                        "color-blue" : 1.0,
                                        "color-green" : 1.0,
                                        "color-red" : 1.0,
                                        "size" : 96.0,
                                        "tracking" : 0.0,
                                        "name" : "Dosis",
                                        "weight" : "Semi Bold"
                                      },
                                      "textAttributes" : {
                                        "type" : "textAttributeList",
                                        "keyframes" : [
                                          {
                                            "endTime" : 0,
                                            "time" : 0,
                                            "value" : [{"name":"underline","rangeEnd":19,"rangeStart":0,"value":0,"valueType":"int"},{"name":"strikethrough","rangeEnd":19,"rangeStart":0,"value":0,"valueType":"int"},{"name":"fontName","rangeEnd":19,"rangeStart":0,"value":"Roboto","valueType":"string"},{"name":"kerning","rangeEnd":19,"rangeStart":0,"value":0.049883078231292483,"valueType":"double"},{"name":"fontItalic","rangeEnd":19,"rangeStart":0,"value":0,"valueType":"int"},{"name":"fontWeight","rangeEnd":19,"rangeStart":0,"value":700,"valueType":"int"},{"name":"fontSize","rangeEnd":19,"rangeStart":0,"value":86,"valueType":"double"},{"name":"fgColor","rangeEnd":19,"rangeStart":0,"value":"(110,110,110,255)","valueType":"color"}],
                                            "duration" : 0
                                          }
                                        ]
                                      }
                                    },
                                    "attributes" : {
                                      "ident" : "",
                                      "autoRotateText" : true
                                    },
                                    "parameters" : {
                                      "translation1" : -2.0,
                                      "sourceCrop0" : 0.0,
                                      "sourceCrop1" : 0.0,
                                      "sourceCrop2" : 0.0,
                                      "sourceCrop3" : 0.0,
                                      "geometryCrop0" : 0.0,
                                      "geometryCrop1" : 0.0,
                                      "geometryCrop2" : 0.0,
                                      "geometryCrop3" : 0.0
                                    },
                                    "effects" : [

                                    ],
                                    "start" : 0,
                                    "duration" : 3528000000,
                                    "mediaStart" : 0,
                                    "mediaDuration" : 3528000000,
                                    "scalar" : 1,
                                    "metadata" : {
                                      "AppliedThemeId" : "",
                                      "clipSpeedAttribute" : false,
                                      "effectApplied" : "none",
                                      "lockAspectRatio" : false
                                    },
                                    "animationTracks" : {

                                    }
                                  }
                                ],
                                  "ident" : "",
                                  "audioMuted" : false,
                                  "videoHidden" : false,
                                  "magnetic" : false,
                                  "matte" : 0,
                                  "solo" : false,
                                  "metadata" : {
                                    "IsLocked" : "False",
                                    "WinTrackHeight" : "56",
                                    "trackHeight" : "54"
                                  }
                              }
                            ],
                            "attributes" : {
                              "ident" : "BP-Title-11",
                              "widthAttr" : 1405.0,
                              "heightAttr" : 167.002,
                              "gain" : 1.0,
                              "mixToMono" : false,
                              "assetProperties" : [
                                {
                                  "type" : 0,
                                  "name" : "Title",
                                  "objects" : [ 109 ],
                                  "themeMappings" :  {
                                    "font-color" : "foreground-1"
                                  }
                                },
                                {
                                  "type" : 1,
                                  "name" : "Fill",
                                  "objects" : [ 107 ],
                                  "themeMappings" :  {
                                    "fill" : "background-1"
                                  }
                                }
                              ]
                            },
                            "effects" : [

                            ],
                            "start" : 0,
                            "duration" : 3528000000,
                            "mediaStart" : 0.0,
                            "mediaDuration" : 3528000000.0,
                            "scalar" : 1,
                            "metadata" : {
                              "clipSpeedAttribute" : false,
                              "effectApplied" : "none",
                              "isOpen" : false,
                              "lockAspectRatio" : true
                            },
                            "animationTracks" : {
                              "visual" : [
                                {
                                  "endTime" : 552720000,
                                  "duration" : 552720000,
                                  "range" : [ 0, 552720000],
                                  "interp" : "eioe"
                                },
                                {
                                  "endTime" : 1775760000,
                                  "duration" : 399840000,
                                  "range" : [ 1375920000, 399840000],
                                  "interp" : "eioe"
                                }
                              ]
                            }
                          }
                        ],
                          "ident" : "",
                          "audioMuted" : false,
                          "videoHidden" : false,
                          "magnetic" : false,
                          "matte" : 0,
                          "solo" : false,
                          "metadata" : {
                            "IsLocked" : "False",
                            "WinTrackHeight" : "56",
                            "trackHeight" : "54"
                          }
                      },
                      {
                        "trackIndex" : 1,
                        "medias" : [
                          {
                            "id" : 110,
                            "_type" : "Group",
                            "parameters" : {
                              "translation0" : {
                                "type" : "double",
                                "defaultValue" : 0.0,
                                "keyframes" : [
                                  {
                                    "endTime" : 552720000,
                                    "time" : 0,
                                    "value" : 0.0,
                                    "interp" : "eioe",
                                    "duration" : 552720000
                                  },
                                  {
                                    "endTime" : 1775760000,
                                    "time" : 1375920000,
                                    "value" : 0.0,
                                    "interp" : "eioe",
                                    "duration" : 399840000
                                  }
                                ]
                              },
                              "translation1" : {
                                "type" : "double",
                                "defaultValue" : -144.610046386719,
                                "keyframes" : [
                                  {
                                    "endTime" : 552720000,
                                    "time" : 0,
                                    "value" : 0.0,
                                    "interp" : "eioe",
                                    "duration" : 552720000
                                  },
                                  {
                                    "endTime" : 1775760000,
                                    "time" : 1375920000,
                                    "value" : -144.610046386719,
                                    "interp" : "eioe",
                                    "duration" : 399840000
                                  }
                                ]
                              },
                              "sourceCrop0" : 0.0,
                              "sourceCrop1" : 0.0,
                              "sourceCrop2" : 0.0,
                              "sourceCrop3" : 0.0,
                              "geometryCrop0" : 0.0,
                              "geometryCrop1" : 0.0,
                              "geometryCrop2" : 0.0,
                              "geometryCrop3" : 0.0,
                              "opacity" : {
                                "type" : "double",
                                "defaultValue" : 1.0,
                                "keyframes" : [
                                  {
                                    "endTime" : 552720000,
                                    "time" : 0,
                                    "value" : 1.0,
                                    "interp" : "eioe",
                                    "duration" : 552720000
                                  }
                                ]
                              },
                              "volume" : 1.0
                            },
                            "tracks" : [
                              {
                                "trackIndex" : 0,
                                "medias" : [
                                  {
                                    "id" : 111,
                                    "_type" : "Callout",
                                    "def" : {
                                      "kind" : "remix",
                                      "shape" : "shape-rectangle",
                                      "style" : "bold",
                                      "fill-color-blue" : 0.913725490196078,
                                      "fill-color-green" : 0.949019607843137,
                                      "fill-color-opacity" : 1.0,
                                      "fill-color-red" : 0.933333333333333,
                                      "hasDropShadow" : 0.0,
                                      "height" : 163.002035140991,
                                      "savedXScale" : 1.0,
                                      "savedYScale" : 1.0,
                                      "stroke-color-blue" : 1.0,
                                      "stroke-color-green" : 1.0,
                                      "stroke-color-opacity" : 1.0,
                                      "stroke-color-red" : 1.0,
                                      "stroke-width" : 0.0,
                                      "width" : 1403.00212860107,
                                      "custom" : "Y",
                                      "fill-style" : "solid",
                                      "stroke-style" : "solid"
                                    },
                                    "attributes" : {
                                      "ident" : "",
                                      "autoRotateText" : true
                                    },
                                    "parameters" : {
                                      "anchor0" : -1.0,
                                      "anchor1" : 2.0,
                                      "sourceCrop0" : 0.0,
                                      "sourceCrop1" : 0.0,
                                      "sourceCrop2" : 0.0,
                                      "sourceCrop3" : 0.0,
                                      "geometryCrop0" : 0.0,
                                      "geometryCrop1" : 0.0,
                                      "geometryCrop2" : 0.0,
                                      "geometryCrop3" : 0.0
                                    },
                                    "effects" : [

                                    ],
                                    "start" : 0,
                                    "duration" : 3528000000,
                                    "mediaStart" : 0,
                                    "mediaDuration" : 3528000000,
                                    "scalar" : 1,
                                    "metadata" : {
                                      "AppliedThemeId" : "",
                                      "clipSpeedAttribute" : false,
                                      "effectApplied" : "none",
                                      "lockAspectRatio" : false
                                    },
                                    "animationTracks" : {

                                    }
                                  }
                                ],
                                  "ident" : "",
                                  "audioMuted" : false,
                                  "videoHidden" : false,
                                  "magnetic" : false,
                                  "matte" : 0,
                                  "solo" : false,
                                  "metadata" : {
                                    "IsLocked" : "False",
                                    "WinTrackHeight" : "56",
                                    "trackHeight" : "54"
                                  }
                              },
                              {
                                "trackIndex" : 1,
                                "medias" : [
                                  {
                                    "id" : 112,
                                    "_type" : "Callout",
                                    "def" : {
                                      "kind" : "remix",
                                      "shape" : "shape-rectangle",
                                      "style" : "bold",
                                      "fill-color-blue" : 0.756862759590149,
                                      "fill-color-green" : 0.18823529779911,
                                      "fill-color-opacity" : 1.0,
                                      "fill-color-red" : 0.960784316062927,
                                      "hasDropShadow" : 0.0,
                                      "height" : 160.0,
                                      "savedXScale" : 1.0,
                                      "savedYScale" : 1.0,
                                      "stroke-color-blue" : 0.886274516582489,
                                      "stroke-color-green" : 0.200000002980232,
                                      "stroke-color-opacity" : 0.0,
                                      "stroke-color-red" : 0.376470595598221,
                                      "stroke-width" : 0.0,
                                      "width" : 1400.0,
                                      "custom" : "Y",
                                      "fill-style" : "solid",
                                      "stroke-style" : "solid"
                                    },
                                    "attributes" : {
                                      "ident" : "",
                                      "autoRotateText" : true
                                    },
                                    "parameters" : {
                                      "sourceCrop0" : 0.0,
                                      "sourceCrop1" : 0.0,
                                      "sourceCrop2" : 0.0,
                                      "sourceCrop3" : 0.0,
                                      "geometryCrop0" : 0.0,
                                      "geometryCrop1" : 0.0,
                                      "geometryCrop2" : 0.0,
                                      "geometryCrop3" : 0.0
                                    },
                                    "effects" : [

                                    ],
                                    "start" : 0,
                                    "duration" : 3528000000,
                                    "mediaStart" : 0,
                                    "mediaDuration" : 3528000000,
                                    "scalar" : 1,
                                    "metadata" : {
                                      "AppliedThemeId" : "",
                                      "clipSpeedAttribute" : false,
                                      "effectApplied" : "none"
                                    },
                                    "animationTracks" : {

                                    }
                                  }
                                ],
                                  "ident" : "",
                                  "audioMuted" : false,
                                  "videoHidden" : false,
                                  "magnetic" : false,
                                  "matte" : 1,
                                  "solo" : false,
                                  "metadata" : {
                                    "IsLocked" : "False",
                                    "WinTrackHeight" : "56",
                                    "trackHeight" : "54"
                                  }
                              }
                            ],
                            "attributes" : {
                              "ident" : "Rect-1400x1600-Mask",
                              "widthAttr" : 1405.0,
                              "heightAttr" : 167.002,
                              "gain" : 1.0,
                              "mixToMono" : false
                            },
                            "effects" : [

                            ],
                            "start" : 0,
                            "duration" : 3528000000,
                            "mediaStart" : 0.0,
                            "mediaDuration" : 3528000000.0,
                            "scalar" : 1,
                            "metadata" : {
                              "clipSpeedAttribute" : false,
                              "effectApplied" : "none",
                              "isOpen" : false,
                              "lockAspectRatio" : true
                            },
                            "animationTracks" : {
                              "visual" : [
                                {
                                  "endTime" : 552720000,
                                  "duration" : 552720000,
                                  "range" : [ 0, 552720000],
                                  "interp" : "eioe"
                                },
                                {
                                  "endTime" : 1775760000,
                                  "duration" : 399840000,
                                  "range" : [ 1375920000, 399840000],
                                  "interp" : "eioe"
                                }
                              ]
                            }
                          }
                        ],
                          "ident" : "",
                          "audioMuted" : false,
                          "videoHidden" : false,
                          "magnetic" : false,
                          "matte" : 1,
                          "solo" : false,
                          "metadata" : {
                            "IsLocked" : "False",
                            "WinTrackHeight" : "56",
                            "trackHeight" : "54"
                          }
                      },
                      {
                        "trackIndex" : 2,
                        "medias" : [
                          {
                            "id" : 113,
                            "_type" : "Group",
                            "parameters" : {
                              "translation0" : {
                                "type" : "double",
                                "defaultValue" : 0.0,
                                "keyframes" : [
                                  {
                                    "endTime" : 552720000,
                                    "time" : 0,
                                    "value" : 0.0,
                                    "interp" : "eioe",
                                    "duration" : 552720000
                                  },
                                  {
                                    "endTime" : 1775760000,
                                    "time" : 1375920000,
                                    "value" : 0.0,
                                    "interp" : "eioe",
                                    "duration" : 399840000
                                  }
                                ]
                              },
                              "translation1" : {
                                "type" : "double",
                                "defaultValue" : -233.610046386719,
                                "keyframes" : [
                                  {
                                    "endTime" : 552720000,
                                    "time" : 0,
                                    "value" : 90.0,
                                    "interp" : "eioe",
                                    "duration" : 552720000
                                  },
                                  {
                                    "endTime" : 1775760000,
                                    "time" : 1375920000,
                                    "value" : -233.610046386719,
                                    "interp" : "eioe",
                                    "duration" : 399840000
                                  }
                                ]
                              },
                              "sourceCrop0" : 0.0,
                              "sourceCrop1" : 0.0,
                              "sourceCrop2" : 0.0,
                              "sourceCrop3" : 0.0,
                              "geometryCrop0" : 0.0,
                              "geometryCrop1" : 0.0,
                              "geometryCrop2" : 0.0,
                              "geometryCrop3" : 0.0,
                              "opacity" : {
                                "type" : "double",
                                "defaultValue" : 1.0,
                                "keyframes" : [
                                  {
                                    "endTime" : 552720000,
                                    "time" : 0,
                                    "value" : 1.0,
                                    "interp" : "eioe",
                                    "duration" : 552720000
                                  }
                                ]
                              },
                              "volume" : 1.0
                            },
                            "tracks" : [
                              {
                                "trackIndex" : 0,
                                "medias" : [
                                  {
                                    "id" : 114,
                                    "_type" : "Callout",
                                    "def" : {
                                      "kind" : "remix",
                                      "shape" : "shape-rectangle",
                                      "style" : "bold",
                                      "fill-color-blue" : 0.2196078431,
                                      "fill-color-green" : 0.8745098039,
                                      "fill-color-opacity" : 1.0,
                                      "fill-color-red" : 1.0,
                                      "hasDropShadow" : 0.0,
                                      "height" : 163.002035140991,
                                      "savedXScale" : 1.0,
                                      "savedYScale" : 1.0,
                                      "stroke-color-blue" : 1.0,
                                      "stroke-color-green" : 1.0,
                                      "stroke-color-opacity" : 1.0,
                                      "stroke-color-red" : 1.0,
                                      "stroke-width" : 0.0,
                                      "width" : 1403.00212860107,
                                      "custom" : "Y",
                                      "fill-style" : "solid",
                                      "stroke-style" : "solid"
                                    },
                                    "attributes" : {
                                      "ident" : "",
                                      "autoRotateText" : true
                                    },
                                    "parameters" : {
                                      "anchor0" : -1.0,
                                      "anchor1" : 2.0,
                                      "sourceCrop0" : 0.0,
                                      "sourceCrop1" : 0.0,
                                      "sourceCrop2" : 0.0,
                                      "sourceCrop3" : 0.0,
                                      "geometryCrop0" : 0.0,
                                      "geometryCrop1" : 0.0,
                                      "geometryCrop2" : 0.0,
                                      "geometryCrop3" : 0.0
                                    },
                                    "effects" : [

                                    ],
                                    "start" : 0,
                                    "duration" : 3528000000,
                                    "mediaStart" : 0,
                                    "mediaDuration" : 3528000000,
                                    "scalar" : 1,
                                    "metadata" : {
                                      "AppliedThemeId" : "",
                                      "clipSpeedAttribute" : false,
                                      "effectApplied" : "none",
                                      "lockAspectRatio" : false
                                    },
                                    "animationTracks" : {

                                    }
                                  }
                                ],
                                  "ident" : "",
                                  "audioMuted" : false,
                                  "videoHidden" : false,
                                  "magnetic" : false,
                                  "matte" : 0,
                                  "solo" : false,
                                  "metadata" : {
                                    "IsLocked" : "False",
                                    "WinTrackHeight" : "56",
                                    "trackHeight" : "54"
                                  }
                              },
                              {
                                "trackIndex" : 1,
                                "medias" : [
                                  {
                                    "id" : 115,
                                    "_type" : "Callout",
                                    "def" : {
                                      "kind" : "remix",
                                      "shape" : "shape-rectangle",
                                      "style" : "bold",
                                      "fill-color-blue" : 0.756862759590149,
                                      "fill-color-green" : 0.18823529779911,
                                      "fill-color-opacity" : 1.0,
                                      "fill-color-red" : 0.960784316062927,
                                      "hasDropShadow" : 0.0,
                                      "height" : 160.0,
                                      "savedXScale" : 1.0,
                                      "savedYScale" : 1.0,
                                      "stroke-color-blue" : 0.886274516582489,
                                      "stroke-color-green" : 0.200000002980232,
                                      "stroke-color-opacity" : 0.0,
                                      "stroke-color-red" : 0.376470595598221,
                                      "stroke-width" : 0.0,
                                      "width" : 1400.0,
                                      "custom" : "Y",
                                      "fill-style" : "solid",
                                      "stroke-style" : "solid"
                                    },
                                    "attributes" : {
                                      "ident" : "",
                                      "autoRotateText" : true
                                    },
                                    "parameters" : {
                                      "translation1" : {
                                        "type" : "double",
                                        "defaultValue" : -1.0,
                                        "keyframes" : [
                                          {
                                            "endTime" : 270480000,
                                            "time" : 0,
                                            "value" : 0.0,
                                            "duration" : 270480000
                                          }
                                        ]
                                      },
                                      "scale0" : {
                                        "type" : "double",
                                        "defaultValue" : 1.0,
                                        "keyframes" : [
                                          {
                                            "endTime" : 270480000,
                                            "time" : 0,
                                            "value" : 1.0,
                                            "duration" : 270480000
                                          }
                                        ]
                                      },
                                      "scale1" : {
                                        "type" : "double",
                                        "defaultValue" : 0.125,
                                        "keyframes" : [
                                          {
                                            "endTime" : 270480000,
                                            "time" : 0,
                                            "value" : 0.5,
                                            "duration" : 270480000
                                          },
                                          {
                                            "endTime" : 552720000,
                                            "time" : 282240000,
                                            "value" : 0.125,
                                            "duration" : 270480000
                                          }
                                        ]
                                      },
                                      "sourceCrop0" : 0.0,
                                      "sourceCrop1" : 0.0,
                                      "sourceCrop2" : 0.0,
                                      "sourceCrop3" : 0.0,
                                      "geometryCrop0" : 0.0,
                                      "geometryCrop1" : 0.0,
                                      "geometryCrop2" : 0.0,
                                      "geometryCrop3" : 0.0
                                    },
                                    "effects" : [

                                    ],
                                    "start" : 0,
                                    "duration" : 3528000000,
                                    "mediaStart" : 0,
                                    "mediaDuration" : 3528000000,
                                    "scalar" : 1,
                                    "metadata" : {
                                      "AppliedThemeId" : "",
                                      "clipSpeedAttribute" : false,
                                      "effectApplied" : "none"
                                    },
                                    "animationTracks" : {
                                      "visual" : [
                                        {
                                          "endTime" : 270480000,
                                          "duration" : 270480000,
                                          "range" : [ 0, 270480000]
                                        },
                                        {
                                          "endTime" : 552720000,
                                          "duration" : 270480000,
                                          "range" : [ 282240000, 270480000]
                                        }
                                      ]
                                    }
                                  }
                                ],
                                  "ident" : "",
                                  "audioMuted" : false,
                                  "videoHidden" : false,
                                  "magnetic" : false,
                                  "matte" : 1,
                                  "solo" : false,
                                  "metadata" : {
                                    "IsLocked" : "False",
                                    "WinTrackHeight" : "56",
                                    "trackHeight" : "54"
                                  }
                              }
                            ],
                            "attributes" : {
                              "ident" : "Animated-Pulse-1400x20-To-1400x80",
                              "widthAttr" : 1405.0,
                              "heightAttr" : 167.002,
                              "gain" : 1.0,
                              "mixToMono" : false,
                              "assetProperties" : [
                                {
                                  "type" : 1,
                                  "name" : "Color",
                                  "objects" : [ 114 ],
                                  "themeMappings" :  {
                                    "fill" : "accent-1"
                                  }
                                }
                              ]
                            },
                            "effects" : [

                            ],
                            "start" : 0,
                            "duration" : 3528000000,
                            "mediaStart" : 0.0,
                            "mediaDuration" : 3528000000.0,
                            "scalar" : 1,
                            "metadata" : {
                              "AppliedThemeId" : "8e797988-b823-4beb-b251-1d31b461ba07",
                              "clipSpeedAttribute" : false,
                              "effectApplied" : "none",
                              "isOpen" : false,
                              "lockAspectRatio" : true
                            },
                            "animationTracks" : {
                              "visual" : [
                                {
                                  "endTime" : 552720000,
                                  "duration" : 552720000,
                                  "range" : [ 0, 552720000],
                                  "interp" : "eioe"
                                },
                                {
                                  "endTime" : 1775760000,
                                  "duration" : 399840000,
                                  "range" : [ 1375920000, 399840000],
                                  "interp" : "eioe"
                                }
                              ]
                            }
                          }
                        ],
                          "ident" : "",
                          "audioMuted" : false,
                          "videoHidden" : false,
                          "magnetic" : false,
                          "matte" : 0,
                          "solo" : false,
                          "metadata" : {
                            "IsLocked" : "False",
                            "WinTrackHeight" : "56",
                            "trackHeight" : "54"
                          }
                      },
                      {
                        "trackIndex" : 3,
                        "medias" : [
                          {
                            "id" : 116,
                            "_type" : "Group",
                            "parameters" : {
                              "translation0" : {
                                "type" : "double",
                                "defaultValue" : 0.0,
                                "keyframes" : [
                                  {
                                    "endTime" : 552720000,
                                    "time" : 0,
                                    "value" : 0.0,
                                    "interp" : "eioe",
                                    "duration" : 552720000
                                  },
                                  {
                                    "endTime" : 1775760000,
                                    "time" : 1375920000,
                                    "value" : 0.0,
                                    "interp" : "eioe",
                                    "duration" : 399840000
                                  }
                                ]
                              },
                              "translation1" : {
                                "type" : "double",
                                "defaultValue" : -143.610046386719,
                                "keyframes" : [
                                  {
                                    "endTime" : 552720000,
                                    "time" : 0,
                                    "value" : 0.0,
                                    "interp" : "eioe",
                                    "duration" : 552720000
                                  },
                                  {
                                    "endTime" : 1775760000,
                                    "time" : 1375920000,
                                    "value" : -143.610046386719,
                                    "interp" : "eioe",
                                    "duration" : 399840000
                                  }
                                ]
                              },
                              "sourceCrop0" : 0.0,
                              "sourceCrop1" : 0.0,
                              "sourceCrop2" : 0.0,
                              "sourceCrop3" : 0.0,
                              "geometryCrop0" : 0.0,
                              "geometryCrop1" : 0.0,
                              "geometryCrop2" : 0.0,
                              "geometryCrop3" : 0.0,
                              "opacity" : {
                                "type" : "double",
                                "defaultValue" : 1.0,
                                "keyframes" : [
                                  {
                                    "endTime" : 552720000,
                                    "time" : 0,
                                    "value" : 1.0,
                                    "interp" : "eioe",
                                    "duration" : 552720000
                                  }
                                ]
                              },
                              "volume" : 1.0
                            },
                            "tracks" : [
                              {
                                "trackIndex" : 0,
                                "medias" : [
                                  {
                                    "id" : 117,
                                    "_type" : "Callout",
                                    "def" : {
                                      "kind" : "remix",
                                      "shape" : "shape-rectangle",
                                      "style" : "bold",
                                      "fill-color-blue" : 0.913725490196078,
                                      "fill-color-green" : 0.949019607843137,
                                      "fill-color-opacity" : 1.0,
                                      "fill-color-red" : 0.933333333333333,
                                      "hasDropShadow" : 0.0,
                                      "height" : 163.002035140991,
                                      "savedXScale" : 1.0,
                                      "savedYScale" : 1.0,
                                      "stroke-color-blue" : 1.0,
                                      "stroke-color-green" : 1.0,
                                      "stroke-color-opacity" : 1.0,
                                      "stroke-color-red" : 1.0,
                                      "stroke-width" : 0.0,
                                      "width" : 1403.00212860107,
                                      "custom" : "Y",
                                      "fill-style" : "solid",
                                      "stroke-style" : "solid"
                                    },
                                    "attributes" : {
                                      "ident" : "",
                                      "autoRotateText" : true
                                    },
                                    "parameters" : {
                                      "anchor0" : -1.0,
                                      "anchor1" : 2.0,
                                      "sourceCrop0" : 0.0,
                                      "sourceCrop1" : 0.0,
                                      "sourceCrop2" : 0.0,
                                      "sourceCrop3" : 0.0,
                                      "geometryCrop0" : 0.0,
                                      "geometryCrop1" : 0.0,
                                      "geometryCrop2" : 0.0,
                                      "geometryCrop3" : 0.0
                                    },
                                    "effects" : [

                                    ],
                                    "start" : 0,
                                    "duration" : 3528000000,
                                    "mediaStart" : 0,
                                    "mediaDuration" : 3528000000,
                                    "scalar" : 1,
                                    "metadata" : {
                                      "AppliedThemeId" : "",
                                      "clipSpeedAttribute" : false,
                                      "effectApplied" : "none",
                                      "lockAspectRatio" : false
                                    },
                                    "animationTracks" : {

                                    }
                                  }
                                ],
                                  "ident" : "",
                                  "audioMuted" : false,
                                  "videoHidden" : false,
                                  "magnetic" : false,
                                  "matte" : 0,
                                  "solo" : false,
                                  "metadata" : {
                                    "IsLocked" : "False",
                                    "WinTrackHeight" : "56",
                                    "trackHeight" : "54"
                                  }
                              },
                              {
                                "trackIndex" : 1,
                                "medias" : [
                                  {
                                    "id" : 118,
                                    "_type" : "Callout",
                                    "def" : {
                                      "kind" : "remix",
                                      "shape" : "shape-rectangle",
                                      "style" : "bold",
                                      "fill-color-blue" : 0.756862759590149,
                                      "fill-color-green" : 0.18823529779911,
                                      "fill-color-opacity" : 1.0,
                                      "fill-color-red" : 0.960784316062927,
                                      "hasDropShadow" : 0.0,
                                      "height" : 160.0,
                                      "savedXScale" : 1.0,
                                      "savedYScale" : 1.0,
                                      "stroke-color-blue" : 0.886274516582489,
                                      "stroke-color-green" : 0.200000002980232,
                                      "stroke-color-opacity" : 0.0,
                                      "stroke-color-red" : 0.376470595598221,
                                      "stroke-width" : 0.0,
                                      "width" : 1400.0,
                                      "custom" : "Y",
                                      "fill-style" : "solid",
                                      "stroke-style" : "solid"
                                    },
                                    "attributes" : {
                                      "ident" : "",
                                      "autoRotateText" : true
                                    },
                                    "parameters" : {
                                      "sourceCrop0" : 0.0,
                                      "sourceCrop1" : 0.0,
                                      "sourceCrop2" : 0.0,
                                      "sourceCrop3" : 0.0,
                                      "geometryCrop0" : 0.0,
                                      "geometryCrop1" : 0.0,
                                      "geometryCrop2" : 0.0,
                                      "geometryCrop3" : 0.0
                                    },
                                    "effects" : [

                                    ],
                                    "start" : 0,
                                    "duration" : 3528000000,
                                    "mediaStart" : 0,
                                    "mediaDuration" : 3528000000,
                                    "scalar" : 1,
                                    "metadata" : {
                                      "AppliedThemeId" : "",
                                      "clipSpeedAttribute" : false,
                                      "effectApplied" : "none"
                                    },
                                    "animationTracks" : {

                                    }
                                  }
                                ],
                                  "ident" : "",
                                  "audioMuted" : false,
                                  "videoHidden" : false,
                                  "magnetic" : false,
                                  "matte" : 1,
                                  "solo" : false,
                                  "metadata" : {
                                    "IsLocked" : "False",
                                    "WinTrackHeight" : "56",
                                    "trackHeight" : "54"
                                  }
                              }
                            ],
                            "attributes" : {
                              "ident" : "Rect-1400x1600-Mask",
                              "widthAttr" : 1405.0,
                              "heightAttr" : 167.002,
                              "gain" : 1.0,
                              "mixToMono" : false
                            },
                            "effects" : [

                            ],
                            "start" : 0,
                            "duration" : 3528000000,
                            "mediaStart" : 0.0,
                            "mediaDuration" : 3528000000.0,
                            "scalar" : 1,
                            "metadata" : {
                              "clipSpeedAttribute" : false,
                              "effectApplied" : "none",
                              "isOpen" : false,
                              "lockAspectRatio" : true
                            },
                            "animationTracks" : {
                              "visual" : [
                                {
                                  "endTime" : 552720000,
                                  "duration" : 552720000,
                                  "range" : [ 0, 552720000],
                                  "interp" : "eioe"
                                },
                                {
                                  "endTime" : 1775760000,
                                  "duration" : 399840000,
                                  "range" : [ 1375920000, 399840000],
                                  "interp" : "eioe"
                                }
                              ]
                            }
                          }
                        ],
                          "ident" : "",
                          "audioMuted" : false,
                          "videoHidden" : false,
                          "magnetic" : false,
                          "matte" : 1,
                          "solo" : false,
                          "metadata" : {
                            "IsLocked" : "False",
                            "WinTrackHeight" : "56",
                            "trackHeight" : "54"
                          }
                      }
                    ],
                    "attributes" : {
                      "ident" : "Broadcast-Title-012",
                      "widthAttr" : 1405.0,
                      "heightAttr" : 160.0,
                      "gain" : 1.0,
                      "mixToMono" : false,
                      "assetProperties" : [
                        {
                          "type" : 0,
                          "name" : "Title",
                          "objects" : [ 109 ],
                          "themeMappings" :  {
                            "font-color" : "foreground-1"
                          }
                        },
                        {
                          "type" : 1,
                          "name" : "Fill",
                          "objects" : [ 107 ],
                          "themeMappings" :  {
                            "fill" : "background-1"
                          }
                        },
                        {
                          "type" : 1,
                          "name" : "Wiper",
                          "objects" : [ 114 ],
                          "themeMappings" :  {
                            "fill" : "foreground-1"
                          }
                        }
                      ]
                    },
                    "effects" : [

                    ],
                    "start" : 1928640000,
                    "duration" : 1764000000,
                    "mediaStart" : 0.0,
                    "mediaDuration" : 1764000000.0,
                    "scalar" : 1,
                    "metadata" : {
                      "AppliedThemeId" : "170ba59c-db5d-4b9a-a310-e7e99853a4b7",
                      "clipSpeedAttribute" : false,
                      "default-anchor0" : 0.0,
                      "default-anchor1" : 0.0,
                      "default-anchor2" : 0.0,
                      "default-geometryCrop0" : 0.0,
                      "default-geometryCrop2" : 0.0,
                      "default-height" : 160.0,
                      "default-rotation0" : 0.0,
                      "default-rotation1" : 0.0,
                      "default-rotation2" : 0.0,
                      "default-scale0" : 1.0,
                      "default-scale1" : 1.0,
                      "default-scale2" : 1.0,
                      "default-shear0" : 0.0,
                      "default-shear1" : 0.0,
                      "default-shear2" : 0.0,
                      "default-translation0" : 0.0,
                      "default-translation1" : 0.0,
                      "default-translation2" : 0.0,
                      "default-width" : 1405.0,
                      "effectApplied" : "none",
                      "isOpen" : false,
                      "lockAspectRatio" : true
                    },
                    "animationTracks" : {

                    }
                  }
                ]
              },
              {
                "trackIndex" : 93,
                "medias" : [
                  {
                    "id" : 119,
                    "_type" : "Group",
                    "parameters" : {
                      "translation0" : 350.0,
                      "translation1" : 500.0,
                      "scale0" : 0.21505376344086,
                      "scale1" : 0.21875,
                      "sourceCrop0" : 0.0,
                      "sourceCrop1" : 0.0,
                      "sourceCrop2" : 0.0,
                      "sourceCrop3" : 0.0,
                      "geometryCrop0" : 0.0,
                      "geometryCrop1" : 0.0,
                      "geometryCrop2" : 9.99999999999943,
                      "geometryCrop3" : 0.0,
                      "volume" : 1.0
                    },
                    "tracks" : [
                      {
                        "trackIndex" : 0,
                        "medias" : [
                          {
                            "id" : 120,
                            "_type" : "Group",
                            "parameters" : {
                              "translation0" : {
                                "type" : "double",
                                "defaultValue" : 0.0,
                                "keyframes" : [
                                  {
                                    "endTime" : 552720000,
                                    "time" : 0,
                                    "value" : 0.0,
                                    "interp" : "eioe",
                                    "duration" : 552720000
                                  },
                                  {
                                    "endTime" : 1775760000,
                                    "time" : 1375920000,
                                    "value" : 0.0,
                                    "interp" : "eioe",
                                    "duration" : 399840000
                                  }
                                ]
                              },
                              "translation1" : {
                                "type" : "double",
                                "defaultValue" : -305.610046386719,
                                "keyframes" : [
                                  {
                                    "endTime" : 552720000,
                                    "time" : 0,
                                    "value" : 0.0,
                                    "interp" : "eioe",
                                    "duration" : 552720000
                                  },
                                  {
                                    "endTime" : 1775760000,
                                    "time" : 1375920000,
                                    "value" : -304.610046386719,
                                    "interp" : "eioe",
                                    "duration" : 399840000
                                  }
                                ]
                              },
                              "sourceCrop0" : 0.0,
                              "sourceCrop1" : 0.0,
                              "sourceCrop2" : 0.0,
                              "sourceCrop3" : 0.0,
                              "geometryCrop0" : 0.0,
                              "geometryCrop1" : 0.0,
                              "geometryCrop2" : 0.0,
                              "geometryCrop3" : 0.0,
                              "volume" : 1.0
                            },
                            "tracks" : [
                              {
                                "trackIndex" : 0,
                                "medias" : [
                                  {
                                    "id" : 121,
                                    "_type" : "Group",
                                    "parameters" : {
                                      "sourceCrop0" : 0.0,
                                      "sourceCrop1" : 0.0,
                                      "sourceCrop2" : 0.0,
                                      "sourceCrop3" : 0.0,
                                      "geometryCrop0" : 0.0,
                                      "geometryCrop1" : 0.0,
                                      "geometryCrop2" : 0.0,
                                      "geometryCrop3" : 0.0,
                                      "volume" : 1.0
                                    },
                                    "tracks" : [
                                      {
                                        "trackIndex" : 0,
                                        "medias" : [
                                          {
                                            "id" : 122,
                                            "_type" : "Callout",
                                            "def" : {
                                              "kind" : "remix",
                                              "shape" : "shape-rectangle",
                                              "style" : "bold",
                                              "fill-color-blue" : 1.0,
                                              "fill-color-green" : 1.0,
                                              "fill-color-opacity" : 1.0,
                                              "fill-color-red" : 1.0,
                                              "hasDropShadow" : 0.0,
                                              "height" : 163.002035140991,
                                              "savedXScale" : 1.0,
                                              "savedYScale" : 1.0,
                                              "stroke-color-blue" : 1.0,
                                              "stroke-color-green" : 1.0,
                                              "stroke-color-opacity" : 1.0,
                                              "stroke-color-red" : 1.0,
                                              "stroke-width" : 0.0,
                                              "width" : 1403.00212860107,
                                              "custom" : "Y",
                                              "fill-style" : "solid",
                                              "stroke-style" : "solid"
                                            },
                                            "attributes" : {
                                              "ident" : "",
                                              "autoRotateText" : true
                                            },
                                            "parameters" : {
                                              "anchor0" : -1.0,
                                              "anchor1" : 2.0,
                                              "sourceCrop0" : 0.0,
                                              "sourceCrop1" : 0.0,
                                              "sourceCrop2" : 0.0,
                                              "sourceCrop3" : 0.0,
                                              "geometryCrop0" : 0.0,
                                              "geometryCrop1" : 0.0,
                                              "geometryCrop2" : 0.0,
                                              "geometryCrop3" : 0.0
                                            },
                                            "effects" : [

                                            ],
                                            "start" : 0,
                                            "duration" : 3528000000,
                                            "mediaStart" : 0,
                                            "mediaDuration" : 3528000000,
                                            "scalar" : 1,
                                            "metadata" : {
                                              "AppliedThemeId" : "",
                                              "clipSpeedAttribute" : false,
                                              "effectApplied" : "none",
                                              "lockAspectRatio" : false
                                            },
                                            "animationTracks" : {

                                            }
                                          }
                                        ],
                                          "ident" : "",
                                          "audioMuted" : false,
                                          "videoHidden" : false,
                                          "magnetic" : false,
                                          "matte" : 0,
                                          "solo" : false,
                                          "metadata" : {
                                            "IsLocked" : "False",
                                            "WinTrackHeight" : "56",
                                            "trackHeight" : "54"
                                          }
                                      },
                                      {
                                        "trackIndex" : 1,
                                        "medias" : [
                                          {
                                            "id" : 123,
                                            "_type" : "Callout",
                                            "def" : {
                                              "kind" : "remix",
                                              "shape" : "shape-rectangle",
                                              "style" : "bold",
                                              "fill-color-blue" : 0.756862759590149,
                                              "fill-color-green" : 0.18823529779911,
                                              "fill-color-opacity" : 1.0,
                                              "fill-color-red" : 0.960784316062927,
                                              "hasDropShadow" : 0.0,
                                              "height" : 160.0,
                                              "savedXScale" : 1.0,
                                              "savedYScale" : 1.0,
                                              "stroke-color-blue" : 0.886274516582489,
                                              "stroke-color-green" : 0.200000002980232,
                                              "stroke-color-opacity" : 0.0,
                                              "stroke-color-red" : 0.376470595598221,
                                              "stroke-width" : 0.0,
                                              "width" : 1400.0,
                                              "custom" : "Y",
                                              "fill-style" : "solid",
                                              "stroke-style" : "solid"
                                            },
                                            "attributes" : {
                                              "ident" : "",
                                              "autoRotateText" : true
                                            },
                                            "parameters" : {
                                              "sourceCrop0" : 0.0,
                                              "sourceCrop1" : 0.0,
                                              "sourceCrop2" : 0.0,
                                              "sourceCrop3" : 0.0,
                                              "geometryCrop0" : 0.0,
                                              "geometryCrop1" : 0.0,
                                              "geometryCrop2" : 0.0,
                                              "geometryCrop3" : 0.0
                                            },
                                            "effects" : [

                                            ],
                                            "start" : 0,
                                            "duration" : 3528000000,
                                            "mediaStart" : 0,
                                            "mediaDuration" : 3528000000,
                                            "scalar" : 1,
                                            "metadata" : {
                                              "AppliedThemeId" : "",
                                              "clipSpeedAttribute" : false,
                                              "effectApplied" : "none"
                                            },
                                            "animationTracks" : {

                                            }
                                          }
                                        ],
                                          "ident" : "",
                                          "audioMuted" : false,
                                          "videoHidden" : false,
                                          "magnetic" : false,
                                          "matte" : 1,
                                          "solo" : false,
                                          "metadata" : {
                                            "IsLocked" : "False",
                                            "WinTrackHeight" : "56",
                                            "trackHeight" : "54"
                                          }
                                      }
                                    ],
                                    "attributes" : {
                                      "ident" : "Fill-1400x160",
                                      "widthAttr" : 1405.0,
                                      "heightAttr" : 167.002,
                                      "gain" : 1.0,
                                      "mixToMono" : false
                                    },
                                    "effects" : [

                                    ],
                                    "start" : 0,
                                    "duration" : 3528000000,
                                    "mediaStart" : 0.0,
                                    "mediaDuration" : 3528000000.0,
                                    "scalar" : 1,
                                    "metadata" : {
                                      "clipSpeedAttribute" : false,
                                      "effectApplied" : "none",
                                      "isOpen" : false,
                                      "lockAspectRatio" : true
                                    },
                                    "animationTracks" : {

                                    }
                                  }
                                ],
                                  "ident" : "",
                                  "audioMuted" : false,
                                  "videoHidden" : false,
                                  "magnetic" : false,
                                  "matte" : 0,
                                  "solo" : false,
                                  "metadata" : {
                                    "IsLocked" : "False",
                                    "WinTrackHeight" : "56",
                                    "trackHeight" : "54"
                                  }
                              },
                              {
                                "trackIndex" : 1,
                                "medias" : [
                                  {
                                    "id" : 124,
                                    "_type" : "Callout",
                                    "def" : {
                                      "kind" : "remix",
                                      "shape" : "text",
                                      "style" : "urban",
                                      "enable-ligatures" : 1.0,
                                      "hasDropShadow" : 0.0,
                                      "height" : 170.0,
                                      "line-spacing" : 0.0,
                                      "savedXScale" : 1.0,
                                      "savedYScale" : 1.0,
                                      "width" : 1400.0,
                                      "word-wrap" : 1.0,
                                      "custom" : "Y",
                                      "horizontal-alignment" : "left",
                                      "resize-behavior" : "resizeText",
                                      "text" : "move to right (last data)",
                                      "vertical-alignment" : "center",
                                      "font" : {
                                        "color-blue" : 1.0,
                                        "color-green" : 1.0,
                                        "color-red" : 1.0,
                                        "size" : 96.0,
                                        "tracking" : 0.0,
                                        "name" : "Dosis",
                                        "weight" : "Semi Bold"
                                      },
                                      "textAttributes" : {
                                        "type" : "textAttributeList",
                                        "keyframes" : [
                                          {
                                            "endTime" : 0,
                                            "time" : 0,
                                            "value" : [{"name":"underline","rangeEnd":25,"rangeStart":0,"value":0,"valueType":"int"},{"name":"strikethrough","rangeEnd":25,"rangeStart":0,"value":0,"valueType":"int"},{"name":"fontName","rangeEnd":25,"rangeStart":0,"value":"Roboto","valueType":"string"},{"name":"kerning","rangeEnd":25,"rangeStart":0,"value":0.049883078231292483,"valueType":"double"},{"name":"fontItalic","rangeEnd":25,"rangeStart":0,"value":0,"valueType":"int"},{"name":"fontWeight","rangeEnd":25,"rangeStart":0,"value":700,"valueType":"int"},{"name":"fontSize","rangeEnd":25,"rangeStart":0,"value":86,"valueType":"double"},{"name":"fgColor","rangeEnd":25,"rangeStart":0,"value":"(110,110,110,255)","valueType":"color"}],
                                            "duration" : 0
                                          }
                                        ]
                                      }
                                    },
                                    "attributes" : {
                                      "ident" : "",
                                      "autoRotateText" : true
                                    },
                                    "parameters" : {
                                      "translation1" : -2.0,
                                      "sourceCrop0" : 0.0,
                                      "sourceCrop1" : 0.0,
                                      "sourceCrop2" : 0.0,
                                      "sourceCrop3" : 0.0,
                                      "geometryCrop0" : 0.0,
                                      "geometryCrop1" : 0.0,
                                      "geometryCrop2" : 0.0,
                                      "geometryCrop3" : 0.0
                                    },
                                    "effects" : [

                                    ],
                                    "start" : 0,
                                    "duration" : 3528000000,
                                    "mediaStart" : 0,
                                    "mediaDuration" : 3528000000,
                                    "scalar" : 1,
                                    "metadata" : {
                                      "AppliedThemeId" : "",
                                      "clipSpeedAttribute" : false,
                                      "effectApplied" : "none",
                                      "lockAspectRatio" : false
                                    },
                                    "animationTracks" : {

                                    }
                                  }
                                ],
                                  "ident" : "",
                                  "audioMuted" : false,
                                  "videoHidden" : false,
                                  "magnetic" : false,
                                  "matte" : 0,
                                  "solo" : false,
                                  "metadata" : {
                                    "IsLocked" : "False",
                                    "WinTrackHeight" : "56",
                                    "trackHeight" : "54"
                                  }
                              }
                            ],
                            "attributes" : {
                              "ident" : "BP-Title-11",
                              "widthAttr" : 1405.0,
                              "heightAttr" : 167.002,
                              "gain" : 1.0,
                              "mixToMono" : false,
                              "assetProperties" : [
                                {
                                  "type" : 0,
                                  "name" : "Title",
                                  "objects" : [ 124 ],
                                  "themeMappings" :  {
                                    "font-color" : "foreground-1"
                                  }
                                },
                                {
                                  "type" : 1,
                                  "name" : "Fill",
                                  "objects" : [ 122 ],
                                  "themeMappings" :  {
                                    "fill" : "background-1"
                                  }
                                }
                              ]
                            },
                            "effects" : [

                            ],
                            "start" : 0,
                            "duration" : 3528000000,
                            "mediaStart" : 0.0,
                            "mediaDuration" : 3528000000.0,
                            "scalar" : 1,
                            "metadata" : {
                              "clipSpeedAttribute" : false,
                              "effectApplied" : "none",
                              "isOpen" : false,
                              "lockAspectRatio" : true
                            },
                            "animationTracks" : {
                              "visual" : [
                                {
                                  "endTime" : 552720000,
                                  "duration" : 552720000,
                                  "range" : [ 0, 552720000],
                                  "interp" : "eioe"
                                },
                                {
                                  "endTime" : 1775760000,
                                  "duration" : 399840000,
                                  "range" : [ 1375920000, 399840000],
                                  "interp" : "eioe"
                                }
                              ]
                            }
                          }
                        ],
                          "ident" : "",
                          "audioMuted" : false,
                          "videoHidden" : false,
                          "magnetic" : false,
                          "matte" : 0,
                          "solo" : false,
                          "metadata" : {
                            "IsLocked" : "False",
                            "WinTrackHeight" : "56",
                            "trackHeight" : "54"
                          }
                      },
                      {
                        "trackIndex" : 1,
                        "medias" : [
                          {
                            "id" : 125,
                            "_type" : "Group",
                            "parameters" : {
                              "translation0" : {
                                "type" : "double",
                                "defaultValue" : 0.0,
                                "keyframes" : [
                                  {
                                    "endTime" : 552720000,
                                    "time" : 0,
                                    "value" : 0.0,
                                    "interp" : "eioe",
                                    "duration" : 552720000
                                  },
                                  {
                                    "endTime" : 1775760000,
                                    "time" : 1375920000,
                                    "value" : 0.0,
                                    "interp" : "eioe",
                                    "duration" : 399840000
                                  }
                                ]
                              },
                              "translation1" : {
                                "type" : "double",
                                "defaultValue" : -144.610046386719,
                                "keyframes" : [
                                  {
                                    "endTime" : 552720000,
                                    "time" : 0,
                                    "value" : 0.0,
                                    "interp" : "eioe",
                                    "duration" : 552720000
                                  },
                                  {
                                    "endTime" : 1775760000,
                                    "time" : 1375920000,
                                    "value" : -144.610046386719,
                                    "interp" : "eioe",
                                    "duration" : 399840000
                                  }
                                ]
                              },
                              "sourceCrop0" : 0.0,
                              "sourceCrop1" : 0.0,
                              "sourceCrop2" : 0.0,
                              "sourceCrop3" : 0.0,
                              "geometryCrop0" : 0.0,
                              "geometryCrop1" : 0.0,
                              "geometryCrop2" : 0.0,
                              "geometryCrop3" : 0.0,
                              "opacity" : {
                                "type" : "double",
                                "defaultValue" : 1.0,
                                "keyframes" : [
                                  {
                                    "endTime" : 552720000,
                                    "time" : 0,
                                    "value" : 1.0,
                                    "interp" : "eioe",
                                    "duration" : 552720000
                                  }
                                ]
                              },
                              "volume" : 1.0
                            },
                            "tracks" : [
                              {
                                "trackIndex" : 0,
                                "medias" : [
                                  {
                                    "id" : 126,
                                    "_type" : "Callout",
                                    "def" : {
                                      "kind" : "remix",
                                      "shape" : "shape-rectangle",
                                      "style" : "bold",
                                      "fill-color-blue" : 0.913725490196078,
                                      "fill-color-green" : 0.949019607843137,
                                      "fill-color-opacity" : 1.0,
                                      "fill-color-red" : 0.933333333333333,
                                      "hasDropShadow" : 0.0,
                                      "height" : 163.002035140991,
                                      "savedXScale" : 1.0,
                                      "savedYScale" : 1.0,
                                      "stroke-color-blue" : 1.0,
                                      "stroke-color-green" : 1.0,
                                      "stroke-color-opacity" : 1.0,
                                      "stroke-color-red" : 1.0,
                                      "stroke-width" : 0.0,
                                      "width" : 1403.00212860107,
                                      "custom" : "Y",
                                      "fill-style" : "solid",
                                      "stroke-style" : "solid"
                                    },
                                    "attributes" : {
                                      "ident" : "",
                                      "autoRotateText" : true
                                    },
                                    "parameters" : {
                                      "anchor0" : -1.0,
                                      "anchor1" : 2.0,
                                      "sourceCrop0" : 0.0,
                                      "sourceCrop1" : 0.0,
                                      "sourceCrop2" : 0.0,
                                      "sourceCrop3" : 0.0,
                                      "geometryCrop0" : 0.0,
                                      "geometryCrop1" : 0.0,
                                      "geometryCrop2" : 0.0,
                                      "geometryCrop3" : 0.0
                                    },
                                    "effects" : [

                                    ],
                                    "start" : 0,
                                    "duration" : 3528000000,
                                    "mediaStart" : 0,
                                    "mediaDuration" : 3528000000,
                                    "scalar" : 1,
                                    "metadata" : {
                                      "AppliedThemeId" : "",
                                      "clipSpeedAttribute" : false,
                                      "effectApplied" : "none",
                                      "lockAspectRatio" : false
                                    },
                                    "animationTracks" : {

                                    }
                                  }
                                ],
                                  "ident" : "",
                                  "audioMuted" : false,
                                  "videoHidden" : false,
                                  "magnetic" : false,
                                  "matte" : 0,
                                  "solo" : false,
                                  "metadata" : {
                                    "IsLocked" : "False",
                                    "WinTrackHeight" : "56",
                                    "trackHeight" : "54"
                                  }
                              },
                              {
                                "trackIndex" : 1,
                                "medias" : [
                                  {
                                    "id" : 127,
                                    "_type" : "Callout",
                                    "def" : {
                                      "kind" : "remix",
                                      "shape" : "shape-rectangle",
                                      "style" : "bold",
                                      "fill-color-blue" : 0.756862759590149,
                                      "fill-color-green" : 0.18823529779911,
                                      "fill-color-opacity" : 1.0,
                                      "fill-color-red" : 0.960784316062927,
                                      "hasDropShadow" : 0.0,
                                      "height" : 160.0,
                                      "savedXScale" : 1.0,
                                      "savedYScale" : 1.0,
                                      "stroke-color-blue" : 0.886274516582489,
                                      "stroke-color-green" : 0.200000002980232,
                                      "stroke-color-opacity" : 0.0,
                                      "stroke-color-red" : 0.376470595598221,
                                      "stroke-width" : 0.0,
                                      "width" : 1400.0,
                                      "custom" : "Y",
                                      "fill-style" : "solid",
                                      "stroke-style" : "solid"
                                    },
                                    "attributes" : {
                                      "ident" : "",
                                      "autoRotateText" : true
                                    },
                                    "parameters" : {
                                      "sourceCrop0" : 0.0,
                                      "sourceCrop1" : 0.0,
                                      "sourceCrop2" : 0.0,
                                      "sourceCrop3" : 0.0,
                                      "geometryCrop0" : 0.0,
                                      "geometryCrop1" : 0.0,
                                      "geometryCrop2" : 0.0,
                                      "geometryCrop3" : 0.0
                                    },
                                    "effects" : [

                                    ],
                                    "start" : 0,
                                    "duration" : 3528000000,
                                    "mediaStart" : 0,
                                    "mediaDuration" : 3528000000,
                                    "scalar" : 1,
                                    "metadata" : {
                                      "AppliedThemeId" : "",
                                      "clipSpeedAttribute" : false,
                                      "effectApplied" : "none"
                                    },
                                    "animationTracks" : {

                                    }
                                  }
                                ],
                                  "ident" : "",
                                  "audioMuted" : false,
                                  "videoHidden" : false,
                                  "magnetic" : false,
                                  "matte" : 1,
                                  "solo" : false,
                                  "metadata" : {
                                    "IsLocked" : "False",
                                    "WinTrackHeight" : "56",
                                    "trackHeight" : "54"
                                  }
                              }
                            ],
                            "attributes" : {
                              "ident" : "Rect-1400x1600-Mask",
                              "widthAttr" : 1405.0,
                              "heightAttr" : 167.002,
                              "gain" : 1.0,
                              "mixToMono" : false
                            },
                            "effects" : [

                            ],
                            "start" : 0,
                            "duration" : 3528000000,
                            "mediaStart" : 0.0,
                            "mediaDuration" : 3528000000.0,
                            "scalar" : 1,
                            "metadata" : {
                              "clipSpeedAttribute" : false,
                              "effectApplied" : "none",
                              "isOpen" : false,
                              "lockAspectRatio" : true
                            },
                            "animationTracks" : {
                              "visual" : [
                                {
                                  "endTime" : 552720000,
                                  "duration" : 552720000,
                                  "range" : [ 0, 552720000],
                                  "interp" : "eioe"
                                },
                                {
                                  "endTime" : 1775760000,
                                  "duration" : 399840000,
                                  "range" : [ 1375920000, 399840000],
                                  "interp" : "eioe"
                                }
                              ]
                            }
                          }
                        ],
                          "ident" : "",
                          "audioMuted" : false,
                          "videoHidden" : false,
                          "magnetic" : false,
                          "matte" : 1,
                          "solo" : false,
                          "metadata" : {
                            "IsLocked" : "False",
                            "WinTrackHeight" : "56",
                            "trackHeight" : "54"
                          }
                      },
                      {
                        "trackIndex" : 2,
                        "medias" : [
                          {
                            "id" : 128,
                            "_type" : "Group",
                            "parameters" : {
                              "translation0" : {
                                "type" : "double",
                                "defaultValue" : 0.0,
                                "keyframes" : [
                                  {
                                    "endTime" : 552720000,
                                    "time" : 0,
                                    "value" : 0.0,
                                    "interp" : "eioe",
                                    "duration" : 552720000
                                  },
                                  {
                                    "endTime" : 1775760000,
                                    "time" : 1375920000,
                                    "value" : 0.0,
                                    "interp" : "eioe",
                                    "duration" : 399840000
                                  }
                                ]
                              },
                              "translation1" : {
                                "type" : "double",
                                "defaultValue" : -233.610046386719,
                                "keyframes" : [
                                  {
                                    "endTime" : 552720000,
                                    "time" : 0,
                                    "value" : 90.0,
                                    "interp" : "eioe",
                                    "duration" : 552720000
                                  },
                                  {
                                    "endTime" : 1775760000,
                                    "time" : 1375920000,
                                    "value" : -233.610046386719,
                                    "interp" : "eioe",
                                    "duration" : 399840000
                                  }
                                ]
                              },
                              "sourceCrop0" : 0.0,
                              "sourceCrop1" : 0.0,
                              "sourceCrop2" : 0.0,
                              "sourceCrop3" : 0.0,
                              "geometryCrop0" : 0.0,
                              "geometryCrop1" : 0.0,
                              "geometryCrop2" : 0.0,
                              "geometryCrop3" : 0.0,
                              "opacity" : {
                                "type" : "double",
                                "defaultValue" : 1.0,
                                "keyframes" : [
                                  {
                                    "endTime" : 552720000,
                                    "time" : 0,
                                    "value" : 1.0,
                                    "interp" : "eioe",
                                    "duration" : 552720000
                                  }
                                ]
                              },
                              "volume" : 1.0
                            },
                            "tracks" : [
                              {
                                "trackIndex" : 0,
                                "medias" : [
                                  {
                                    "id" : 129,
                                    "_type" : "Callout",
                                    "def" : {
                                      "kind" : "remix",
                                      "shape" : "shape-rectangle",
                                      "style" : "bold",
                                      "fill-color-blue" : 0.2196078431,
                                      "fill-color-green" : 0.8745098039,
                                      "fill-color-opacity" : 1.0,
                                      "fill-color-red" : 1.0,
                                      "hasDropShadow" : 0.0,
                                      "height" : 163.002035140991,
                                      "savedXScale" : 1.0,
                                      "savedYScale" : 1.0,
                                      "stroke-color-blue" : 1.0,
                                      "stroke-color-green" : 1.0,
                                      "stroke-color-opacity" : 1.0,
                                      "stroke-color-red" : 1.0,
                                      "stroke-width" : 0.0,
                                      "width" : 1403.00212860107,
                                      "custom" : "Y",
                                      "fill-style" : "solid",
                                      "stroke-style" : "solid"
                                    },
                                    "attributes" : {
                                      "ident" : "",
                                      "autoRotateText" : true
                                    },
                                    "parameters" : {
                                      "anchor0" : -1.0,
                                      "anchor1" : 2.0,
                                      "sourceCrop0" : 0.0,
                                      "sourceCrop1" : 0.0,
                                      "sourceCrop2" : 0.0,
                                      "sourceCrop3" : 0.0,
                                      "geometryCrop0" : 0.0,
                                      "geometryCrop1" : 0.0,
                                      "geometryCrop2" : 0.0,
                                      "geometryCrop3" : 0.0
                                    },
                                    "effects" : [

                                    ],
                                    "start" : 0,
                                    "duration" : 3528000000,
                                    "mediaStart" : 0,
                                    "mediaDuration" : 3528000000,
                                    "scalar" : 1,
                                    "metadata" : {
                                      "AppliedThemeId" : "",
                                      "clipSpeedAttribute" : false,
                                      "effectApplied" : "none",
                                      "lockAspectRatio" : false
                                    },
                                    "animationTracks" : {

                                    }
                                  }
                                ],
                                  "ident" : "",
                                  "audioMuted" : false,
                                  "videoHidden" : false,
                                  "magnetic" : false,
                                  "matte" : 0,
                                  "solo" : false,
                                  "metadata" : {
                                    "IsLocked" : "False",
                                    "WinTrackHeight" : "56",
                                    "trackHeight" : "54"
                                  }
                              },
                              {
                                "trackIndex" : 1,
                                "medias" : [
                                  {
                                    "id" : 130,
                                    "_type" : "Callout",
                                    "def" : {
                                      "kind" : "remix",
                                      "shape" : "shape-rectangle",
                                      "style" : "bold",
                                      "fill-color-blue" : 0.756862759590149,
                                      "fill-color-green" : 0.18823529779911,
                                      "fill-color-opacity" : 1.0,
                                      "fill-color-red" : 0.960784316062927,
                                      "hasDropShadow" : 0.0,
                                      "height" : 160.0,
                                      "savedXScale" : 1.0,
                                      "savedYScale" : 1.0,
                                      "stroke-color-blue" : 0.886274516582489,
                                      "stroke-color-green" : 0.200000002980232,
                                      "stroke-color-opacity" : 0.0,
                                      "stroke-color-red" : 0.376470595598221,
                                      "stroke-width" : 0.0,
                                      "width" : 1400.0,
                                      "custom" : "Y",
                                      "fill-style" : "solid",
                                      "stroke-style" : "solid"
                                    },
                                    "attributes" : {
                                      "ident" : "",
                                      "autoRotateText" : true
                                    },
                                    "parameters" : {
                                      "translation1" : {
                                        "type" : "double",
                                        "defaultValue" : -1.0,
                                        "keyframes" : [
                                          {
                                            "endTime" : 270480000,
                                            "time" : 0,
                                            "value" : 0.0,
                                            "duration" : 270480000
                                          }
                                        ]
                                      },
                                      "scale0" : {
                                        "type" : "double",
                                        "defaultValue" : 1.0,
                                        "keyframes" : [
                                          {
                                            "endTime" : 270480000,
                                            "time" : 0,
                                            "value" : 1.0,
                                            "duration" : 270480000
                                          }
                                        ]
                                      },
                                      "scale1" : {
                                        "type" : "double",
                                        "defaultValue" : 0.125,
                                        "keyframes" : [
                                          {
                                            "endTime" : 270480000,
                                            "time" : 0,
                                            "value" : 0.5,
                                            "duration" : 270480000
                                          },
                                          {
                                            "endTime" : 552720000,
                                            "time" : 282240000,
                                            "value" : 0.125,
                                            "duration" : 270480000
                                          }
                                        ]
                                      },
                                      "sourceCrop0" : 0.0,
                                      "sourceCrop1" : 0.0,
                                      "sourceCrop2" : 0.0,
                                      "sourceCrop3" : 0.0,
                                      "geometryCrop0" : 0.0,
                                      "geometryCrop1" : 0.0,
                                      "geometryCrop2" : 0.0,
                                      "geometryCrop3" : 0.0
                                    },
                                    "effects" : [

                                    ],
                                    "start" : 0,
                                    "duration" : 3528000000,
                                    "mediaStart" : 0,
                                    "mediaDuration" : 3528000000,
                                    "scalar" : 1,
                                    "metadata" : {
                                      "AppliedThemeId" : "",
                                      "clipSpeedAttribute" : false,
                                      "effectApplied" : "none"
                                    },
                                    "animationTracks" : {
                                      "visual" : [
                                        {
                                          "endTime" : 270480000,
                                          "duration" : 270480000,
                                          "range" : [ 0, 270480000]
                                        },
                                        {
                                          "endTime" : 552720000,
                                          "duration" : 270480000,
                                          "range" : [ 282240000, 270480000]
                                        }
                                      ]
                                    }
                                  }
                                ],
                                  "ident" : "",
                                  "audioMuted" : false,
                                  "videoHidden" : false,
                                  "magnetic" : false,
                                  "matte" : 1,
                                  "solo" : false,
                                  "metadata" : {
                                    "IsLocked" : "False",
                                    "WinTrackHeight" : "56",
                                    "trackHeight" : "54"
                                  }
                              }
                            ],
                            "attributes" : {
                              "ident" : "Animated-Pulse-1400x20-To-1400x80",
                              "widthAttr" : 1405.0,
                              "heightAttr" : 167.002,
                              "gain" : 1.0,
                              "mixToMono" : false,
                              "assetProperties" : [
                                {
                                  "type" : 1,
                                  "name" : "Color",
                                  "objects" : [ 129 ],
                                  "themeMappings" :  {
                                    "fill" : "accent-1"
                                  }
                                }
                              ]
                            },
                            "effects" : [

                            ],
                            "start" : 0,
                            "duration" : 3528000000,
                            "mediaStart" : 0.0,
                            "mediaDuration" : 3528000000.0,
                            "scalar" : 1,
                            "metadata" : {
                              "AppliedThemeId" : "8e797988-b823-4beb-b251-1d31b461ba07",
                              "clipSpeedAttribute" : false,
                              "effectApplied" : "none",
                              "isOpen" : false,
                              "lockAspectRatio" : true
                            },
                            "animationTracks" : {
                              "visual" : [
                                {
                                  "endTime" : 552720000,
                                  "duration" : 552720000,
                                  "range" : [ 0, 552720000],
                                  "interp" : "eioe"
                                },
                                {
                                  "endTime" : 1775760000,
                                  "duration" : 399840000,
                                  "range" : [ 1375920000, 399840000],
                                  "interp" : "eioe"
                                }
                              ]
                            }
                          }
                        ],
                          "ident" : "",
                          "audioMuted" : false,
                          "videoHidden" : false,
                          "magnetic" : false,
                          "matte" : 0,
                          "solo" : false,
                          "metadata" : {
                            "IsLocked" : "False",
                            "WinTrackHeight" : "56",
                            "trackHeight" : "54"
                          }
                      },
                      {
                        "trackIndex" : 3,
                        "medias" : [
                          {
                            "id" : 131,
                            "_type" : "Group",
                            "parameters" : {
                              "translation0" : {
                                "type" : "double",
                                "defaultValue" : 0.0,
                                "keyframes" : [
                                  {
                                    "endTime" : 552720000,
                                    "time" : 0,
                                    "value" : 0.0,
                                    "interp" : "eioe",
                                    "duration" : 552720000
                                  },
                                  {
                                    "endTime" : 1775760000,
                                    "time" : 1375920000,
                                    "value" : 0.0,
                                    "interp" : "eioe",
                                    "duration" : 399840000
                                  }
                                ]
                              },
                              "translation1" : {
                                "type" : "double",
                                "defaultValue" : -143.610046386719,
                                "keyframes" : [
                                  {
                                    "endTime" : 552720000,
                                    "time" : 0,
                                    "value" : 0.0,
                                    "interp" : "eioe",
                                    "duration" : 552720000
                                  },
                                  {
                                    "endTime" : 1775760000,
                                    "time" : 1375920000,
                                    "value" : -143.610046386719,
                                    "interp" : "eioe",
                                    "duration" : 399840000
                                  }
                                ]
                              },
                              "sourceCrop0" : 0.0,
                              "sourceCrop1" : 0.0,
                              "sourceCrop2" : 0.0,
                              "sourceCrop3" : 0.0,
                              "geometryCrop0" : 0.0,
                              "geometryCrop1" : 0.0,
                              "geometryCrop2" : 0.0,
                              "geometryCrop3" : 0.0,
                              "opacity" : {
                                "type" : "double",
                                "defaultValue" : 1.0,
                                "keyframes" : [
                                  {
                                    "endTime" : 552720000,
                                    "time" : 0,
                                    "value" : 1.0,
                                    "interp" : "eioe",
                                    "duration" : 552720000
                                  }
                                ]
                              },
                              "volume" : 1.0
                            },
                            "tracks" : [
                              {
                                "trackIndex" : 0,
                                "medias" : [
                                  {
                                    "id" : 132,
                                    "_type" : "Callout",
                                    "def" : {
                                      "kind" : "remix",
                                      "shape" : "shape-rectangle",
                                      "style" : "bold",
                                      "fill-color-blue" : 0.913725490196078,
                                      "fill-color-green" : 0.949019607843137,
                                      "fill-color-opacity" : 1.0,
                                      "fill-color-red" : 0.933333333333333,
                                      "hasDropShadow" : 0.0,
                                      "height" : 163.002035140991,
                                      "savedXScale" : 1.0,
                                      "savedYScale" : 1.0,
                                      "stroke-color-blue" : 1.0,
                                      "stroke-color-green" : 1.0,
                                      "stroke-color-opacity" : 1.0,
                                      "stroke-color-red" : 1.0,
                                      "stroke-width" : 0.0,
                                      "width" : 1403.00212860107,
                                      "custom" : "Y",
                                      "fill-style" : "solid",
                                      "stroke-style" : "solid"
                                    },
                                    "attributes" : {
                                      "ident" : "",
                                      "autoRotateText" : true
                                    },
                                    "parameters" : {
                                      "anchor0" : -1.0,
                                      "anchor1" : 2.0,
                                      "sourceCrop0" : 0.0,
                                      "sourceCrop1" : 0.0,
                                      "sourceCrop2" : 0.0,
                                      "sourceCrop3" : 0.0,
                                      "geometryCrop0" : 0.0,
                                      "geometryCrop1" : 0.0,
                                      "geometryCrop2" : 0.0,
                                      "geometryCrop3" : 0.0
                                    },
                                    "effects" : [

                                    ],
                                    "start" : 0,
                                    "duration" : 3528000000,
                                    "mediaStart" : 0,
                                    "mediaDuration" : 3528000000,
                                    "scalar" : 1,
                                    "metadata" : {
                                      "AppliedThemeId" : "",
                                      "clipSpeedAttribute" : false,
                                      "effectApplied" : "none",
                                      "lockAspectRatio" : false
                                    },
                                    "animationTracks" : {

                                    }
                                  }
                                ],
                                  "ident" : "",
                                  "audioMuted" : false,
                                  "videoHidden" : false,
                                  "magnetic" : false,
                                  "matte" : 0,
                                  "solo" : false,
                                  "metadata" : {
                                    "IsLocked" : "False",
                                    "WinTrackHeight" : "56",
                                    "trackHeight" : "54"
                                  }
                              },
                              {
                                "trackIndex" : 1,
                                "medias" : [
                                  {
                                    "id" : 133,
                                    "_type" : "Callout",
                                    "def" : {
                                      "kind" : "remix",
                                      "shape" : "shape-rectangle",
                                      "style" : "bold",
                                      "fill-color-blue" : 0.756862759590149,
                                      "fill-color-green" : 0.18823529779911,
                                      "fill-color-opacity" : 1.0,
                                      "fill-color-red" : 0.960784316062927,
                                      "hasDropShadow" : 0.0,
                                      "height" : 160.0,
                                      "savedXScale" : 1.0,
                                      "savedYScale" : 1.0,
                                      "stroke-color-blue" : 0.886274516582489,
                                      "stroke-color-green" : 0.200000002980232,
                                      "stroke-color-opacity" : 0.0,
                                      "stroke-color-red" : 0.376470595598221,
                                      "stroke-width" : 0.0,
                                      "width" : 1400.0,
                                      "custom" : "Y",
                                      "fill-style" : "solid",
                                      "stroke-style" : "solid"
                                    },
                                    "attributes" : {
                                      "ident" : "",
                                      "autoRotateText" : true
                                    },
                                    "parameters" : {
                                      "sourceCrop0" : 0.0,
                                      "sourceCrop1" : 0.0,
                                      "sourceCrop2" : 0.0,
                                      "sourceCrop3" : 0.0,
                                      "geometryCrop0" : 0.0,
                                      "geometryCrop1" : 0.0,
                                      "geometryCrop2" : 0.0,
                                      "geometryCrop3" : 0.0
                                    },
                                    "effects" : [

                                    ],
                                    "start" : 0,
                                    "duration" : 3528000000,
                                    "mediaStart" : 0,
                                    "mediaDuration" : 3528000000,
                                    "scalar" : 1,
                                    "metadata" : {
                                      "AppliedThemeId" : "",
                                      "clipSpeedAttribute" : false,
                                      "effectApplied" : "none"
                                    },
                                    "animationTracks" : {

                                    }
                                  }
                                ],
                                  "ident" : "",
                                  "audioMuted" : false,
                                  "videoHidden" : false,
                                  "magnetic" : false,
                                  "matte" : 1,
                                  "solo" : false,
                                  "metadata" : {
                                    "IsLocked" : "False",
                                    "WinTrackHeight" : "56",
                                    "trackHeight" : "54"
                                  }
                              }
                            ],
                            "attributes" : {
                              "ident" : "Rect-1400x1600-Mask",
                              "widthAttr" : 1405.0,
                              "heightAttr" : 167.002,
                              "gain" : 1.0,
                              "mixToMono" : false
                            },
                            "effects" : [

                            ],
                            "start" : 0,
                            "duration" : 3528000000,
                            "mediaStart" : 0.0,
                            "mediaDuration" : 3528000000.0,
                            "scalar" : 1,
                            "metadata" : {
                              "clipSpeedAttribute" : false,
                              "effectApplied" : "none",
                              "isOpen" : false,
                              "lockAspectRatio" : true
                            },
                            "animationTracks" : {
                              "visual" : [
                                {
                                  "endTime" : 552720000,
                                  "duration" : 552720000,
                                  "range" : [ 0, 552720000],
                                  "interp" : "eioe"
                                },
                                {
                                  "endTime" : 1775760000,
                                  "duration" : 399840000,
                                  "range" : [ 1375920000, 399840000],
                                  "interp" : "eioe"
                                }
                              ]
                            }
                          }
                        ],
                          "ident" : "",
                          "audioMuted" : false,
                          "videoHidden" : false,
                          "magnetic" : false,
                          "matte" : 1,
                          "solo" : false,
                          "metadata" : {
                            "IsLocked" : "False",
                            "WinTrackHeight" : "56",
                            "trackHeight" : "54"
                          }
                      }
                    ],
                    "attributes" : {
                      "ident" : "Broadcast-Title-012",
                      "widthAttr" : 1405.0,
                      "heightAttr" : 160.0,
                      "gain" : 1.0,
                      "mixToMono" : false,
                      "assetProperties" : [
                        {
                          "type" : 0,
                          "name" : "Title",
                          "objects" : [ 124 ],
                          "themeMappings" :  {
                            "font-color" : "foreground-1"
                          }
                        },
                        {
                          "type" : 1,
                          "name" : "Fill",
                          "objects" : [ 122 ],
                          "themeMappings" :  {
                            "fill" : "background-1"
                          }
                        },
                        {
                          "type" : 1,
                          "name" : "Wiper",
                          "objects" : [ 129 ],
                          "themeMappings" :  {
                            "fill" : "foreground-1"
                          }
                        }
                      ]
                    },
                    "effects" : [

                    ],
                    "start" : 1928640000,
                    "duration" : 1764000000,
                    "mediaStart" : 0.0,
                    "mediaDuration" : 1764000000.0,
                    "scalar" : 1,
                    "metadata" : {
                      "AppliedThemeId" : "170ba59c-db5d-4b9a-a310-e7e99853a4b7",
                      "clipSpeedAttribute" : false,
                      "default-anchor0" : 0.0,
                      "default-anchor1" : 0.0,
                      "default-anchor2" : 0.0,
                      "default-geometryCrop0" : 0.0,
                      "default-geometryCrop2" : 0.0,
                      "default-height" : 160.0,
                      "default-rotation0" : 0.0,
                      "default-rotation1" : 0.0,
                      "default-rotation2" : 0.0,
                      "default-scale0" : 1.0,
                      "default-scale1" : 1.0,
                      "default-scale2" : 1.0,
                      "default-shear0" : 0.0,
                      "default-shear1" : 0.0,
                      "default-shear2" : 0.0,
                      "default-translation0" : 0.0,
                      "default-translation1" : 0.0,
                      "default-translation2" : 0.0,
                      "default-width" : 1405.0,
                      "effectApplied" : "none",
                      "isOpen" : false,
                      "lockAspectRatio" : true
                    },
                    "animationTracks" : {

                    }
                  }
                ]
              },
              {
                "trackIndex" : 94,
                "medias" : [
                  {
                    "id" : 134,
                    "_type" : "Group",
                    "parameters" : {
                      "translation0" : -415.0,
                      "translation1" : -299.34375,
                      "scale0" : 0.213523131672598,
                      "scale1" : 0.21875,
                      "sourceCrop0" : 0.0,
                      "sourceCrop1" : 0.0,
                      "sourceCrop2" : 0.0,
                      "sourceCrop3" : 0.0,
                      "geometryCrop0" : 0.0,
                      "geometryCrop1" : 0.0,
                      "geometryCrop2" : 0.0,
                      "geometryCrop3" : 0.0,
                      "volume" : 1.0
                    },
                    "tracks" : [
                      {
                        "trackIndex" : 0,
                        "medias" : [
                          {
                            "id" : 135,
                            "_type" : "Group",
                            "parameters" : {
                              "translation0" : {
                                "type" : "double",
                                "defaultValue" : 0.0,
                                "keyframes" : [
                                  {
                                    "endTime" : 552720000,
                                    "time" : 0,
                                    "value" : 0.0,
                                    "interp" : "eioe",
                                    "duration" : 552720000
                                  },
                                  {
                                    "endTime" : 1775760000,
                                    "time" : 1375920000,
                                    "value" : 0.0,
                                    "interp" : "eioe",
                                    "duration" : 399840000
                                  }
                                ]
                              },
                              "translation1" : {
                                "type" : "double",
                                "defaultValue" : -305.610046386719,
                                "keyframes" : [
                                  {
                                    "endTime" : 552720000,
                                    "time" : 0,
                                    "value" : 0.0,
                                    "interp" : "eioe",
                                    "duration" : 552720000
                                  },
                                  {
                                    "endTime" : 1775760000,
                                    "time" : 1375920000,
                                    "value" : -304.610046386719,
                                    "interp" : "eioe",
                                    "duration" : 399840000
                                  }
                                ]
                              },
                              "sourceCrop0" : 0.0,
                              "sourceCrop1" : 0.0,
                              "sourceCrop2" : 0.0,
                              "sourceCrop3" : 0.0,
                              "geometryCrop0" : 0.0,
                              "geometryCrop1" : 0.0,
                              "geometryCrop2" : 0.0,
                              "geometryCrop3" : 0.0,
                              "volume" : 1.0
                            },
                            "tracks" : [
                              {
                                "trackIndex" : 0,
                                "medias" : [
                                  {
                                    "id" : 136,
                                    "_type" : "Group",
                                    "parameters" : {
                                      "sourceCrop0" : 0.0,
                                      "sourceCrop1" : 0.0,
                                      "sourceCrop2" : 0.0,
                                      "sourceCrop3" : 0.0,
                                      "geometryCrop0" : 0.0,
                                      "geometryCrop1" : 0.0,
                                      "geometryCrop2" : 0.0,
                                      "geometryCrop3" : 0.0,
                                      "volume" : 1.0
                                    },
                                    "tracks" : [
                                      {
                                        "trackIndex" : 0,
                                        "medias" : [
                                          {
                                            "id" : 137,
                                            "_type" : "Callout",
                                            "def" : {
                                              "kind" : "remix",
                                              "shape" : "shape-rectangle",
                                              "style" : "bold",
                                              "fill-color-blue" : 1.0,
                                              "fill-color-green" : 1.0,
                                              "fill-color-opacity" : 1.0,
                                              "fill-color-red" : 1.0,
                                              "hasDropShadow" : 0.0,
                                              "height" : 163.002035140991,
                                              "savedXScale" : 1.0,
                                              "savedYScale" : 1.0,
                                              "stroke-color-blue" : 1.0,
                                              "stroke-color-green" : 1.0,
                                              "stroke-color-opacity" : 1.0,
                                              "stroke-color-red" : 1.0,
                                              "stroke-width" : 0.0,
                                              "width" : 1403.00212860107,
                                              "custom" : "Y",
                                              "fill-style" : "solid",
                                              "stroke-style" : "solid"
                                            },
                                            "attributes" : {
                                              "ident" : "",
                                              "autoRotateText" : true
                                            },
                                            "parameters" : {
                                              "anchor0" : -1.0,
                                              "anchor1" : 2.0,
                                              "sourceCrop0" : 0.0,
                                              "sourceCrop1" : 0.0,
                                              "sourceCrop2" : 0.0,
                                              "sourceCrop3" : 0.0,
                                              "geometryCrop0" : 0.0,
                                              "geometryCrop1" : 0.0,
                                              "geometryCrop2" : 0.0,
                                              "geometryCrop3" : 0.0
                                            },
                                            "effects" : [

                                            ],
                                            "start" : 0,
                                            "duration" : 3528000000,
                                            "mediaStart" : 0,
                                            "mediaDuration" : 3528000000,
                                            "scalar" : 1,
                                            "metadata" : {
                                              "AppliedThemeId" : "",
                                              "clipSpeedAttribute" : false,
                                              "effectApplied" : "none",
                                              "lockAspectRatio" : false
                                            },
                                            "animationTracks" : {

                                            }
                                          }
                                        ],
                                          "ident" : "",
                                          "audioMuted" : false,
                                          "videoHidden" : false,
                                          "magnetic" : false,
                                          "matte" : 0,
                                          "solo" : false,
                                          "metadata" : {
                                            "IsLocked" : "False",
                                            "WinTrackHeight" : "56",
                                            "trackHeight" : "54"
                                          }
                                      },
                                      {
                                        "trackIndex" : 1,
                                        "medias" : [
                                          {
                                            "id" : 138,
                                            "_type" : "Callout",
                                            "def" : {
                                              "kind" : "remix",
                                              "shape" : "shape-rectangle",
                                              "style" : "bold",
                                              "fill-color-blue" : 0.756862759590149,
                                              "fill-color-green" : 0.18823529779911,
                                              "fill-color-opacity" : 1.0,
                                              "fill-color-red" : 0.960784316062927,
                                              "hasDropShadow" : 0.0,
                                              "height" : 160.0,
                                              "savedXScale" : 1.0,
                                              "savedYScale" : 1.0,
                                              "stroke-color-blue" : 0.886274516582489,
                                              "stroke-color-green" : 0.200000002980232,
                                              "stroke-color-opacity" : 0.0,
                                              "stroke-color-red" : 0.376470595598221,
                                              "stroke-width" : 0.0,
                                              "width" : 1400.0,
                                              "custom" : "Y",
                                              "fill-style" : "solid",
                                              "stroke-style" : "solid"
                                            },
                                            "attributes" : {
                                              "ident" : "",
                                              "autoRotateText" : true
                                            },
                                            "parameters" : {
                                              "sourceCrop0" : 0.0,
                                              "sourceCrop1" : 0.0,
                                              "sourceCrop2" : 0.0,
                                              "sourceCrop3" : 0.0,
                                              "geometryCrop0" : 0.0,
                                              "geometryCrop1" : 0.0,
                                              "geometryCrop2" : 0.0,
                                              "geometryCrop3" : 0.0
                                            },
                                            "effects" : [

                                            ],
                                            "start" : 0,
                                            "duration" : 3528000000,
                                            "mediaStart" : 0,
                                            "mediaDuration" : 3528000000,
                                            "scalar" : 1,
                                            "metadata" : {
                                              "AppliedThemeId" : "",
                                              "clipSpeedAttribute" : false,
                                              "effectApplied" : "none"
                                            },
                                            "animationTracks" : {

                                            }
                                          }
                                        ],
                                          "ident" : "",
                                          "audioMuted" : false,
                                          "videoHidden" : false,
                                          "magnetic" : false,
                                          "matte" : 1,
                                          "solo" : false,
                                          "metadata" : {
                                            "IsLocked" : "False",
                                            "WinTrackHeight" : "56",
                                            "trackHeight" : "54"
                                          }
                                      }
                                    ],
                                    "attributes" : {
                                      "ident" : "Fill-1400x160",
                                      "widthAttr" : 1405.0,
                                      "heightAttr" : 167.002,
                                      "gain" : 1.0,
                                      "mixToMono" : false
                                    },
                                    "effects" : [

                                    ],
                                    "start" : 0,
                                    "duration" : 3528000000,
                                    "mediaStart" : 0.0,
                                    "mediaDuration" : 3528000000.0,
                                    "scalar" : 1,
                                    "metadata" : {
                                      "clipSpeedAttribute" : false,
                                      "effectApplied" : "none",
                                      "isOpen" : false,
                                      "lockAspectRatio" : true
                                    },
                                    "animationTracks" : {

                                    }
                                  }
                                ],
                                  "ident" : "",
                                  "audioMuted" : false,
                                  "videoHidden" : false,
                                  "magnetic" : false,
                                  "matte" : 0,
                                  "solo" : false,
                                  "metadata" : {
                                    "IsLocked" : "False",
                                    "WinTrackHeight" : "56",
                                    "trackHeight" : "54"
                                  }
                              },
                              {
                                "trackIndex" : 1,
                                "medias" : [
                                  {
                                    "id" : 139,
                                    "_type" : "Callout",
                                    "def" : {
                                      "kind" : "remix",
                                      "shape" : "text",
                                      "style" : "urban",
                                      "enable-ligatures" : 1.0,
                                      "hasDropShadow" : 0.0,
                                      "height" : 170.0,
                                      "line-spacing" : 0.0,
                                      "savedXScale" : 1.0,
                                      "savedYScale" : 1.0,
                                      "width" : 1400.0,
                                      "word-wrap" : 1.0,
                                      "custom" : "Y",
                                      "horizontal-alignment" : "left",
                                      "resize-behavior" : "resizeText",
                                      "text" : "toogle show/hide groups",
                                      "vertical-alignment" : "center",
                                      "font" : {
                                        "color-blue" : 1.0,
                                        "color-green" : 1.0,
                                        "color-red" : 1.0,
                                        "size" : 96.0,
                                        "tracking" : 0.0,
                                        "name" : "Dosis",
                                        "weight" : "Semi Bold"
                                      },
                                      "textAttributes" : {
                                        "type" : "textAttributeList",
                                        "keyframes" : [
                                          {
                                            "endTime" : 0,
                                            "time" : 0,
                                            "value" : [{"name":"underline","rangeEnd":23,"rangeStart":0,"value":0,"valueType":"int"},{"name":"strikethrough","rangeEnd":23,"rangeStart":0,"value":0,"valueType":"int"},{"name":"fontName","rangeEnd":23,"rangeStart":0,"value":"Roboto","valueType":"string"},{"name":"kerning","rangeEnd":23,"rangeStart":0,"value":0.049883078231292483,"valueType":"double"},{"name":"fontItalic","rangeEnd":23,"rangeStart":0,"value":0,"valueType":"int"},{"name":"fontWeight","rangeEnd":23,"rangeStart":0,"value":700,"valueType":"int"},{"name":"fontSize","rangeEnd":23,"rangeStart":0,"value":86,"valueType":"double"},{"name":"fgColor","rangeEnd":23,"rangeStart":0,"value":"(110,110,110,255)","valueType":"color"}],
                                            "duration" : 0
                                          }
                                        ]
                                      }
                                    },
                                    "attributes" : {
                                      "ident" : "",
                                      "autoRotateText" : true
                                    },
                                    "parameters" : {
                                      "translation1" : -2.0,
                                      "sourceCrop0" : 0.0,
                                      "sourceCrop1" : 0.0,
                                      "sourceCrop2" : 0.0,
                                      "sourceCrop3" : 0.0,
                                      "geometryCrop0" : 0.0,
                                      "geometryCrop1" : 0.0,
                                      "geometryCrop2" : 0.0,
                                      "geometryCrop3" : 0.0
                                    },
                                    "effects" : [

                                    ],
                                    "start" : 0,
                                    "duration" : 3528000000,
                                    "mediaStart" : 0,
                                    "mediaDuration" : 3528000000,
                                    "scalar" : 1,
                                    "metadata" : {
                                      "AppliedThemeId" : "",
                                      "clipSpeedAttribute" : false,
                                      "effectApplied" : "none",
                                      "lockAspectRatio" : false
                                    },
                                    "animationTracks" : {

                                    }
                                  }
                                ],
                                  "ident" : "",
                                  "audioMuted" : false,
                                  "videoHidden" : false,
                                  "magnetic" : false,
                                  "matte" : 0,
                                  "solo" : false,
                                  "metadata" : {
                                    "IsLocked" : "False",
                                    "WinTrackHeight" : "56",
                                    "trackHeight" : "54"
                                  }
                              }
                            ],
                            "attributes" : {
                              "ident" : "BP-Title-11",
                              "widthAttr" : 1405.0,
                              "heightAttr" : 167.002,
                              "gain" : 1.0,
                              "mixToMono" : false,
                              "assetProperties" : [
                                {
                                  "type" : 0,
                                  "name" : "Title",
                                  "objects" : [ 139 ],
                                  "themeMappings" :  {
                                    "font-color" : "foreground-1"
                                  }
                                },
                                {
                                  "type" : 1,
                                  "name" : "Fill",
                                  "objects" : [ 137 ],
                                  "themeMappings" :  {
                                    "fill" : "background-1"
                                  }
                                }
                              ]
                            },
                            "effects" : [

                            ],
                            "start" : 0,
                            "duration" : 3528000000,
                            "mediaStart" : 0.0,
                            "mediaDuration" : 3528000000.0,
                            "scalar" : 1,
                            "metadata" : {
                              "clipSpeedAttribute" : false,
                              "effectApplied" : "none",
                              "isOpen" : false,
                              "lockAspectRatio" : true
                            },
                            "animationTracks" : {
                              "visual" : [
                                {
                                  "endTime" : 552720000,
                                  "duration" : 552720000,
                                  "range" : [ 0, 552720000],
                                  "interp" : "eioe"
                                },
                                {
                                  "endTime" : 1775760000,
                                  "duration" : 399840000,
                                  "range" : [ 1375920000, 399840000],
                                  "interp" : "eioe"
                                }
                              ]
                            }
                          }
                        ],
                          "ident" : "",
                          "audioMuted" : false,
                          "videoHidden" : false,
                          "magnetic" : false,
                          "matte" : 0,
                          "solo" : false,
                          "metadata" : {
                            "IsLocked" : "False",
                            "WinTrackHeight" : "56",
                            "trackHeight" : "54"
                          }
                      },
                      {
                        "trackIndex" : 1,
                        "medias" : [
                          {
                            "id" : 140,
                            "_type" : "Group",
                            "parameters" : {
                              "translation0" : {
                                "type" : "double",
                                "defaultValue" : 0.0,
                                "keyframes" : [
                                  {
                                    "endTime" : 552720000,
                                    "time" : 0,
                                    "value" : 0.0,
                                    "interp" : "eioe",
                                    "duration" : 552720000
                                  },
                                  {
                                    "endTime" : 1775760000,
                                    "time" : 1375920000,
                                    "value" : 0.0,
                                    "interp" : "eioe",
                                    "duration" : 399840000
                                  }
                                ]
                              },
                              "translation1" : {
                                "type" : "double",
                                "defaultValue" : -144.610046386719,
                                "keyframes" : [
                                  {
                                    "endTime" : 552720000,
                                    "time" : 0,
                                    "value" : 0.0,
                                    "interp" : "eioe",
                                    "duration" : 552720000
                                  },
                                  {
                                    "endTime" : 1775760000,
                                    "time" : 1375920000,
                                    "value" : -144.610046386719,
                                    "interp" : "eioe",
                                    "duration" : 399840000
                                  }
                                ]
                              },
                              "sourceCrop0" : 0.0,
                              "sourceCrop1" : 0.0,
                              "sourceCrop2" : 0.0,
                              "sourceCrop3" : 0.0,
                              "geometryCrop0" : 0.0,
                              "geometryCrop1" : 0.0,
                              "geometryCrop2" : 0.0,
                              "geometryCrop3" : 0.0,
                              "opacity" : {
                                "type" : "double",
                                "defaultValue" : 1.0,
                                "keyframes" : [
                                  {
                                    "endTime" : 552720000,
                                    "time" : 0,
                                    "value" : 1.0,
                                    "interp" : "eioe",
                                    "duration" : 552720000
                                  }
                                ]
                              },
                              "volume" : 1.0
                            },
                            "tracks" : [
                              {
                                "trackIndex" : 0,
                                "medias" : [
                                  {
                                    "id" : 141,
                                    "_type" : "Callout",
                                    "def" : {
                                      "kind" : "remix",
                                      "shape" : "shape-rectangle",
                                      "style" : "bold",
                                      "fill-color-blue" : 0.913725490196078,
                                      "fill-color-green" : 0.949019607843137,
                                      "fill-color-opacity" : 1.0,
                                      "fill-color-red" : 0.933333333333333,
                                      "hasDropShadow" : 0.0,
                                      "height" : 163.002035140991,
                                      "savedXScale" : 1.0,
                                      "savedYScale" : 1.0,
                                      "stroke-color-blue" : 1.0,
                                      "stroke-color-green" : 1.0,
                                      "stroke-color-opacity" : 1.0,
                                      "stroke-color-red" : 1.0,
                                      "stroke-width" : 0.0,
                                      "width" : 1403.00212860107,
                                      "custom" : "Y",
                                      "fill-style" : "solid",
                                      "stroke-style" : "solid"
                                    },
                                    "attributes" : {
                                      "ident" : "",
                                      "autoRotateText" : true
                                    },
                                    "parameters" : {
                                      "anchor0" : -1.0,
                                      "anchor1" : 2.0,
                                      "sourceCrop0" : 0.0,
                                      "sourceCrop1" : 0.0,
                                      "sourceCrop2" : 0.0,
                                      "sourceCrop3" : 0.0,
                                      "geometryCrop0" : 0.0,
                                      "geometryCrop1" : 0.0,
                                      "geometryCrop2" : 0.0,
                                      "geometryCrop3" : 0.0
                                    },
                                    "effects" : [

                                    ],
                                    "start" : 0,
                                    "duration" : 3528000000,
                                    "mediaStart" : 0,
                                    "mediaDuration" : 3528000000,
                                    "scalar" : 1,
                                    "metadata" : {
                                      "AppliedThemeId" : "",
                                      "clipSpeedAttribute" : false,
                                      "effectApplied" : "none",
                                      "lockAspectRatio" : false
                                    },
                                    "animationTracks" : {

                                    }
                                  }
                                ],
                                  "ident" : "",
                                  "audioMuted" : false,
                                  "videoHidden" : false,
                                  "magnetic" : false,
                                  "matte" : 0,
                                  "solo" : false,
                                  "metadata" : {
                                    "IsLocked" : "False",
                                    "WinTrackHeight" : "56",
                                    "trackHeight" : "54"
                                  }
                              },
                              {
                                "trackIndex" : 1,
                                "medias" : [
                                  {
                                    "id" : 142,
                                    "_type" : "Callout",
                                    "def" : {
                                      "kind" : "remix",
                                      "shape" : "shape-rectangle",
                                      "style" : "bold",
                                      "fill-color-blue" : 0.756862759590149,
                                      "fill-color-green" : 0.18823529779911,
                                      "fill-color-opacity" : 1.0,
                                      "fill-color-red" : 0.960784316062927,
                                      "hasDropShadow" : 0.0,
                                      "height" : 160.0,
                                      "savedXScale" : 1.0,
                                      "savedYScale" : 1.0,
                                      "stroke-color-blue" : 0.886274516582489,
                                      "stroke-color-green" : 0.200000002980232,
                                      "stroke-color-opacity" : 0.0,
                                      "stroke-color-red" : 0.376470595598221,
                                      "stroke-width" : 0.0,
                                      "width" : 1400.0,
                                      "custom" : "Y",
                                      "fill-style" : "solid",
                                      "stroke-style" : "solid"
                                    },
                                    "attributes" : {
                                      "ident" : "",
                                      "autoRotateText" : true
                                    },
                                    "parameters" : {
                                      "sourceCrop0" : 0.0,
                                      "sourceCrop1" : 0.0,
                                      "sourceCrop2" : 0.0,
                                      "sourceCrop3" : 0.0,
                                      "geometryCrop0" : 0.0,
                                      "geometryCrop1" : 0.0,
                                      "geometryCrop2" : 0.0,
                                      "geometryCrop3" : 0.0
                                    },
                                    "effects" : [

                                    ],
                                    "start" : 0,
                                    "duration" : 3528000000,
                                    "mediaStart" : 0,
                                    "mediaDuration" : 3528000000,
                                    "scalar" : 1,
                                    "metadata" : {
                                      "AppliedThemeId" : "",
                                      "clipSpeedAttribute" : false,
                                      "effectApplied" : "none"
                                    },
                                    "animationTracks" : {

                                    }
                                  }
                                ],
                                  "ident" : "",
                                  "audioMuted" : false,
                                  "videoHidden" : false,
                                  "magnetic" : false,
                                  "matte" : 1,
                                  "solo" : false,
                                  "metadata" : {
                                    "IsLocked" : "False",
                                    "WinTrackHeight" : "56",
                                    "trackHeight" : "54"
                                  }
                              }
                            ],
                            "attributes" : {
                              "ident" : "Rect-1400x1600-Mask",
                              "widthAttr" : 1405.0,
                              "heightAttr" : 167.002,
                              "gain" : 1.0,
                              "mixToMono" : false
                            },
                            "effects" : [

                            ],
                            "start" : 0,
                            "duration" : 3528000000,
                            "mediaStart" : 0.0,
                            "mediaDuration" : 3528000000.0,
                            "scalar" : 1,
                            "metadata" : {
                              "clipSpeedAttribute" : false,
                              "effectApplied" : "none",
                              "isOpen" : false,
                              "lockAspectRatio" : true
                            },
                            "animationTracks" : {
                              "visual" : [
                                {
                                  "endTime" : 552720000,
                                  "duration" : 552720000,
                                  "range" : [ 0, 552720000],
                                  "interp" : "eioe"
                                },
                                {
                                  "endTime" : 1775760000,
                                  "duration" : 399840000,
                                  "range" : [ 1375920000, 399840000],
                                  "interp" : "eioe"
                                }
                              ]
                            }
                          }
                        ],
                          "ident" : "",
                          "audioMuted" : false,
                          "videoHidden" : false,
                          "magnetic" : false,
                          "matte" : 1,
                          "solo" : false,
                          "metadata" : {
                            "IsLocked" : "False",
                            "WinTrackHeight" : "56",
                            "trackHeight" : "54"
                          }
                      },
                      {
                        "trackIndex" : 2,
                        "medias" : [
                          {
                            "id" : 143,
                            "_type" : "Group",
                            "parameters" : {
                              "translation0" : {
                                "type" : "double",
                                "defaultValue" : 0.0,
                                "keyframes" : [
                                  {
                                    "endTime" : 552720000,
                                    "time" : 0,
                                    "value" : 0.0,
                                    "interp" : "eioe",
                                    "duration" : 552720000
                                  },
                                  {
                                    "endTime" : 1775760000,
                                    "time" : 1375920000,
                                    "value" : 0.0,
                                    "interp" : "eioe",
                                    "duration" : 399840000
                                  }
                                ]
                              },
                              "translation1" : {
                                "type" : "double",
                                "defaultValue" : -233.610046386719,
                                "keyframes" : [
                                  {
                                    "endTime" : 552720000,
                                    "time" : 0,
                                    "value" : 90.0,
                                    "interp" : "eioe",
                                    "duration" : 552720000
                                  },
                                  {
                                    "endTime" : 1775760000,
                                    "time" : 1375920000,
                                    "value" : -233.610046386719,
                                    "interp" : "eioe",
                                    "duration" : 399840000
                                  }
                                ]
                              },
                              "sourceCrop0" : 0.0,
                              "sourceCrop1" : 0.0,
                              "sourceCrop2" : 0.0,
                              "sourceCrop3" : 0.0,
                              "geometryCrop0" : 0.0,
                              "geometryCrop1" : 0.0,
                              "geometryCrop2" : 0.0,
                              "geometryCrop3" : 0.0,
                              "opacity" : {
                                "type" : "double",
                                "defaultValue" : 1.0,
                                "keyframes" : [
                                  {
                                    "endTime" : 552720000,
                                    "time" : 0,
                                    "value" : 1.0,
                                    "interp" : "eioe",
                                    "duration" : 552720000
                                  }
                                ]
                              },
                              "volume" : 1.0
                            },
                            "tracks" : [
                              {
                                "trackIndex" : 0,
                                "medias" : [
                                  {
                                    "id" : 144,
                                    "_type" : "Callout",
                                    "def" : {
                                      "kind" : "remix",
                                      "shape" : "shape-rectangle",
                                      "style" : "bold",
                                      "fill-color-blue" : 0.2196078431,
                                      "fill-color-green" : 0.8745098039,
                                      "fill-color-opacity" : 1.0,
                                      "fill-color-red" : 1.0,
                                      "hasDropShadow" : 0.0,
                                      "height" : 163.002035140991,
                                      "savedXScale" : 1.0,
                                      "savedYScale" : 1.0,
                                      "stroke-color-blue" : 1.0,
                                      "stroke-color-green" : 1.0,
                                      "stroke-color-opacity" : 1.0,
                                      "stroke-color-red" : 1.0,
                                      "stroke-width" : 0.0,
                                      "width" : 1403.00212860107,
                                      "custom" : "Y",
                                      "fill-style" : "solid",
                                      "stroke-style" : "solid"
                                    },
                                    "attributes" : {
                                      "ident" : "",
                                      "autoRotateText" : true
                                    },
                                    "parameters" : {
                                      "anchor0" : -1.0,
                                      "anchor1" : 2.0,
                                      "sourceCrop0" : 0.0,
                                      "sourceCrop1" : 0.0,
                                      "sourceCrop2" : 0.0,
                                      "sourceCrop3" : 0.0,
                                      "geometryCrop0" : 0.0,
                                      "geometryCrop1" : 0.0,
                                      "geometryCrop2" : 0.0,
                                      "geometryCrop3" : 0.0
                                    },
                                    "effects" : [

                                    ],
                                    "start" : 0,
                                    "duration" : 3528000000,
                                    "mediaStart" : 0,
                                    "mediaDuration" : 3528000000,
                                    "scalar" : 1,
                                    "metadata" : {
                                      "AppliedThemeId" : "",
                                      "clipSpeedAttribute" : false,
                                      "effectApplied" : "none",
                                      "lockAspectRatio" : false
                                    },
                                    "animationTracks" : {

                                    }
                                  }
                                ],
                                  "ident" : "",
                                  "audioMuted" : false,
                                  "videoHidden" : false,
                                  "magnetic" : false,
                                  "matte" : 0,
                                  "solo" : false,
                                  "metadata" : {
                                    "IsLocked" : "False",
                                    "WinTrackHeight" : "56",
                                    "trackHeight" : "54"
                                  }
                              },
                              {
                                "trackIndex" : 1,
                                "medias" : [
                                  {
                                    "id" : 145,
                                    "_type" : "Callout",
                                    "def" : {
                                      "kind" : "remix",
                                      "shape" : "shape-rectangle",
                                      "style" : "bold",
                                      "fill-color-blue" : 0.756862759590149,
                                      "fill-color-green" : 0.18823529779911,
                                      "fill-color-opacity" : 1.0,
                                      "fill-color-red" : 0.960784316062927,
                                      "hasDropShadow" : 0.0,
                                      "height" : 160.0,
                                      "savedXScale" : 1.0,
                                      "savedYScale" : 1.0,
                                      "stroke-color-blue" : 0.886274516582489,
                                      "stroke-color-green" : 0.200000002980232,
                                      "stroke-color-opacity" : 0.0,
                                      "stroke-color-red" : 0.376470595598221,
                                      "stroke-width" : 0.0,
                                      "width" : 1400.0,
                                      "custom" : "Y",
                                      "fill-style" : "solid",
                                      "stroke-style" : "solid"
                                    },
                                    "attributes" : {
                                      "ident" : "",
                                      "autoRotateText" : true
                                    },
                                    "parameters" : {
                                      "translation1" : {
                                        "type" : "double",
                                        "defaultValue" : -1.0,
                                        "keyframes" : [
                                          {
                                            "endTime" : 270480000,
                                            "time" : 0,
                                            "value" : 0.0,
                                            "duration" : 270480000
                                          }
                                        ]
                                      },
                                      "scale0" : {
                                        "type" : "double",
                                        "defaultValue" : 1.0,
                                        "keyframes" : [
                                          {
                                            "endTime" : 270480000,
                                            "time" : 0,
                                            "value" : 1.0,
                                            "duration" : 270480000
                                          }
                                        ]
                                      },
                                      "scale1" : {
                                        "type" : "double",
                                        "defaultValue" : 0.125,
                                        "keyframes" : [
                                          {
                                            "endTime" : 270480000,
                                            "time" : 0,
                                            "value" : 0.5,
                                            "duration" : 270480000
                                          },
                                          {
                                            "endTime" : 552720000,
                                            "time" : 282240000,
                                            "value" : 0.125,
                                            "duration" : 270480000
                                          }
                                        ]
                                      },
                                      "sourceCrop0" : 0.0,
                                      "sourceCrop1" : 0.0,
                                      "sourceCrop2" : 0.0,
                                      "sourceCrop3" : 0.0,
                                      "geometryCrop0" : 0.0,
                                      "geometryCrop1" : 0.0,
                                      "geometryCrop2" : 0.0,
                                      "geometryCrop3" : 0.0
                                    },
                                    "effects" : [

                                    ],
                                    "start" : 0,
                                    "duration" : 3528000000,
                                    "mediaStart" : 0,
                                    "mediaDuration" : 3528000000,
                                    "scalar" : 1,
                                    "metadata" : {
                                      "AppliedThemeId" : "",
                                      "clipSpeedAttribute" : false,
                                      "effectApplied" : "none"
                                    },
                                    "animationTracks" : {
                                      "visual" : [
                                        {
                                          "endTime" : 270480000,
                                          "duration" : 270480000,
                                          "range" : [ 0, 270480000]
                                        },
                                        {
                                          "endTime" : 552720000,
                                          "duration" : 270480000,
                                          "range" : [ 282240000, 270480000]
                                        }
                                      ]
                                    }
                                  }
                                ],
                                  "ident" : "",
                                  "audioMuted" : false,
                                  "videoHidden" : false,
                                  "magnetic" : false,
                                  "matte" : 1,
                                  "solo" : false,
                                  "metadata" : {
                                    "IsLocked" : "False",
                                    "WinTrackHeight" : "56",
                                    "trackHeight" : "54"
                                  }
                              }
                            ],
                            "attributes" : {
                              "ident" : "Animated-Pulse-1400x20-To-1400x80",
                              "widthAttr" : 1405.0,
                              "heightAttr" : 167.002,
                              "gain" : 1.0,
                              "mixToMono" : false,
                              "assetProperties" : [
                                {
                                  "type" : 1,
                                  "name" : "Color",
                                  "objects" : [ 144 ],
                                  "themeMappings" :  {
                                    "fill" : "accent-1"
                                  }
                                }
                              ]
                            },
                            "effects" : [

                            ],
                            "start" : 0,
                            "duration" : 3528000000,
                            "mediaStart" : 0.0,
                            "mediaDuration" : 3528000000.0,
                            "scalar" : 1,
                            "metadata" : {
                              "AppliedThemeId" : "8e797988-b823-4beb-b251-1d31b461ba07",
                              "clipSpeedAttribute" : false,
                              "effectApplied" : "none",
                              "isOpen" : false,
                              "lockAspectRatio" : true
                            },
                            "animationTracks" : {
                              "visual" : [
                                {
                                  "endTime" : 552720000,
                                  "duration" : 552720000,
                                  "range" : [ 0, 552720000],
                                  "interp" : "eioe"
                                },
                                {
                                  "endTime" : 1775760000,
                                  "duration" : 399840000,
                                  "range" : [ 1375920000, 399840000],
                                  "interp" : "eioe"
                                }
                              ]
                            }
                          }
                        ],
                          "ident" : "",
                          "audioMuted" : false,
                          "videoHidden" : false,
                          "magnetic" : false,
                          "matte" : 0,
                          "solo" : false,
                          "metadata" : {
                            "IsLocked" : "False",
                            "WinTrackHeight" : "56",
                            "trackHeight" : "54"
                          }
                      },
                      {
                        "trackIndex" : 3,
                        "medias" : [
                          {
                            "id" : 146,
                            "_type" : "Group",
                            "parameters" : {
                              "translation0" : {
                                "type" : "double",
                                "defaultValue" : 0.0,
                                "keyframes" : [
                                  {
                                    "endTime" : 552720000,
                                    "time" : 0,
                                    "value" : 0.0,
                                    "interp" : "eioe",
                                    "duration" : 552720000
                                  },
                                  {
                                    "endTime" : 1775760000,
                                    "time" : 1375920000,
                                    "value" : 0.0,
                                    "interp" : "eioe",
                                    "duration" : 399840000
                                  }
                                ]
                              },
                              "translation1" : {
                                "type" : "double",
                                "defaultValue" : -143.610046386719,
                                "keyframes" : [
                                  {
                                    "endTime" : 552720000,
                                    "time" : 0,
                                    "value" : 0.0,
                                    "interp" : "eioe",
                                    "duration" : 552720000
                                  },
                                  {
                                    "endTime" : 1775760000,
                                    "time" : 1375920000,
                                    "value" : -143.610046386719,
                                    "interp" : "eioe",
                                    "duration" : 399840000
                                  }
                                ]
                              },
                              "sourceCrop0" : 0.0,
                              "sourceCrop1" : 0.0,
                              "sourceCrop2" : 0.0,
                              "sourceCrop3" : 0.0,
                              "geometryCrop0" : 0.0,
                              "geometryCrop1" : 0.0,
                              "geometryCrop2" : 0.0,
                              "geometryCrop3" : 0.0,
                              "opacity" : {
                                "type" : "double",
                                "defaultValue" : 1.0,
                                "keyframes" : [
                                  {
                                    "endTime" : 552720000,
                                    "time" : 0,
                                    "value" : 1.0,
                                    "interp" : "eioe",
                                    "duration" : 552720000
                                  }
                                ]
                              },
                              "volume" : 1.0
                            },
                            "tracks" : [
                              {
                                "trackIndex" : 0,
                                "medias" : [
                                  {
                                    "id" : 147,
                                    "_type" : "Callout",
                                    "def" : {
                                      "kind" : "remix",
                                      "shape" : "shape-rectangle",
                                      "style" : "bold",
                                      "fill-color-blue" : 0.913725490196078,
                                      "fill-color-green" : 0.949019607843137,
                                      "fill-color-opacity" : 1.0,
                                      "fill-color-red" : 0.933333333333333,
                                      "hasDropShadow" : 0.0,
                                      "height" : 163.002035140991,
                                      "savedXScale" : 1.0,
                                      "savedYScale" : 1.0,
                                      "stroke-color-blue" : 1.0,
                                      "stroke-color-green" : 1.0,
                                      "stroke-color-opacity" : 1.0,
                                      "stroke-color-red" : 1.0,
                                      "stroke-width" : 0.0,
                                      "width" : 1403.00212860107,
                                      "custom" : "Y",
                                      "fill-style" : "solid",
                                      "stroke-style" : "solid"
                                    },
                                    "attributes" : {
                                      "ident" : "",
                                      "autoRotateText" : true
                                    },
                                    "parameters" : {
                                      "anchor0" : -1.0,
                                      "anchor1" : 2.0,
                                      "sourceCrop0" : 0.0,
                                      "sourceCrop1" : 0.0,
                                      "sourceCrop2" : 0.0,
                                      "sourceCrop3" : 0.0,
                                      "geometryCrop0" : 0.0,
                                      "geometryCrop1" : 0.0,
                                      "geometryCrop2" : 0.0,
                                      "geometryCrop3" : 0.0
                                    },
                                    "effects" : [

                                    ],
                                    "start" : 0,
                                    "duration" : 3528000000,
                                    "mediaStart" : 0,
                                    "mediaDuration" : 3528000000,
                                    "scalar" : 1,
                                    "metadata" : {
                                      "AppliedThemeId" : "",
                                      "clipSpeedAttribute" : false,
                                      "effectApplied" : "none",
                                      "lockAspectRatio" : false
                                    },
                                    "animationTracks" : {

                                    }
                                  }
                                ],
                                  "ident" : "",
                                  "audioMuted" : false,
                                  "videoHidden" : false,
                                  "magnetic" : false,
                                  "matte" : 0,
                                  "solo" : false,
                                  "metadata" : {
                                    "IsLocked" : "False",
                                    "WinTrackHeight" : "56",
                                    "trackHeight" : "54"
                                  }
                              },
                              {
                                "trackIndex" : 1,
                                "medias" : [
                                  {
                                    "id" : 148,
                                    "_type" : "Callout",
                                    "def" : {
                                      "kind" : "remix",
                                      "shape" : "shape-rectangle",
                                      "style" : "bold",
                                      "fill-color-blue" : 0.756862759590149,
                                      "fill-color-green" : 0.18823529779911,
                                      "fill-color-opacity" : 1.0,
                                      "fill-color-red" : 0.960784316062927,
                                      "hasDropShadow" : 0.0,
                                      "height" : 160.0,
                                      "savedXScale" : 1.0,
                                      "savedYScale" : 1.0,
                                      "stroke-color-blue" : 0.886274516582489,
                                      "stroke-color-green" : 0.200000002980232,
                                      "stroke-color-opacity" : 0.0,
                                      "stroke-color-red" : 0.376470595598221,
                                      "stroke-width" : 0.0,
                                      "width" : 1400.0,
                                      "custom" : "Y",
                                      "fill-style" : "solid",
                                      "stroke-style" : "solid"
                                    },
                                    "attributes" : {
                                      "ident" : "",
                                      "autoRotateText" : true
                                    },
                                    "parameters" : {
                                      "sourceCrop0" : 0.0,
                                      "sourceCrop1" : 0.0,
                                      "sourceCrop2" : 0.0,
                                      "sourceCrop3" : 0.0,
                                      "geometryCrop0" : 0.0,
                                      "geometryCrop1" : 0.0,
                                      "geometryCrop2" : 0.0,
                                      "geometryCrop3" : 0.0
                                    },
                                    "effects" : [

                                    ],
                                    "start" : 0,
                                    "duration" : 3528000000,
                                    "mediaStart" : 0,
                                    "mediaDuration" : 3528000000,
                                    "scalar" : 1,
                                    "metadata" : {
                                      "AppliedThemeId" : "",
                                      "clipSpeedAttribute" : false,
                                      "effectApplied" : "none"
                                    },
                                    "animationTracks" : {

                                    }
                                  }
                                ],
                                  "ident" : "",
                                  "audioMuted" : false,
                                  "videoHidden" : false,
                                  "magnetic" : false,
                                  "matte" : 1,
                                  "solo" : false,
                                  "metadata" : {
                                    "IsLocked" : "False",
                                    "WinTrackHeight" : "56",
                                    "trackHeight" : "54"
                                  }
                              }
                            ],
                            "attributes" : {
                              "ident" : "Rect-1400x1600-Mask",
                              "widthAttr" : 1405.0,
                              "heightAttr" : 167.002,
                              "gain" : 1.0,
                              "mixToMono" : false
                            },
                            "effects" : [

                            ],
                            "start" : 0,
                            "duration" : 3528000000,
                            "mediaStart" : 0.0,
                            "mediaDuration" : 3528000000.0,
                            "scalar" : 1,
                            "metadata" : {
                              "clipSpeedAttribute" : false,
                              "effectApplied" : "none",
                              "isOpen" : false,
                              "lockAspectRatio" : true
                            },
                            "animationTracks" : {
                              "visual" : [
                                {
                                  "endTime" : 552720000,
                                  "duration" : 552720000,
                                  "range" : [ 0, 552720000],
                                  "interp" : "eioe"
                                },
                                {
                                  "endTime" : 1775760000,
                                  "duration" : 399840000,
                                  "range" : [ 1375920000, 399840000],
                                  "interp" : "eioe"
                                }
                              ]
                            }
                          }
                        ],
                          "ident" : "",
                          "audioMuted" : false,
                          "videoHidden" : false,
                          "magnetic" : false,
                          "matte" : 1,
                          "solo" : false,
                          "metadata" : {
                            "IsLocked" : "False",
                            "WinTrackHeight" : "56",
                            "trackHeight" : "54"
                          }
                      }
                    ],
                    "attributes" : {
                      "ident" : "Broadcast-Title-012",
                      "widthAttr" : 1405.0,
                      "heightAttr" : 160.0,
                      "gain" : 1.0,
                      "mixToMono" : false,
                      "assetProperties" : [
                        {
                          "type" : 0,
                          "name" : "Title",
                          "objects" : [ 139 ],
                          "themeMappings" :  {
                            "font-color" : "foreground-1"
                          }
                        },
                        {
                          "type" : 1,
                          "name" : "Fill",
                          "objects" : [ 137 ],
                          "themeMappings" :  {
                            "fill" : "background-1"
                          }
                        },
                        {
                          "type" : 1,
                          "name" : "Wiper",
                          "objects" : [ 144 ],
                          "themeMappings" :  {
                            "fill" : "foreground-1"
                          }
                        }
                      ]
                    },
                    "effects" : [

                    ],
                    "start" : 1928640000,
                    "duration" : 1764000000,
                    "mediaStart" : 0.0,
                    "mediaDuration" : 1764000000.0,
                    "scalar" : 1,
                    "metadata" : {
                      "AppliedThemeId" : "170ba59c-db5d-4b9a-a310-e7e99853a4b7",
                      "clipSpeedAttribute" : false,
                      "default-anchor0" : 0.0,
                      "default-anchor1" : 0.0,
                      "default-anchor2" : 0.0,
                      "default-geometryCrop0" : 0.0,
                      "default-height" : 160.0,
                      "default-rotation0" : 0.0,
                      "default-rotation1" : 0.0,
                      "default-rotation2" : 0.0,
                      "default-scale0" : 1.0,
                      "default-scale1" : 1.0,
                      "default-scale2" : 1.0,
                      "default-shear0" : 0.0,
                      "default-shear1" : 0.0,
                      "default-shear2" : 0.0,
                      "default-translation0" : 0.0,
                      "default-translation1" : 0.0,
                      "default-translation2" : 0.0,
                      "default-width" : 1405.0,
                      "effectApplied" : "none",
                      "isOpen" : false,
                      "lockAspectRatio" : true
                    },
                    "animationTracks" : {

                    }
                  }
                ]
              },
              {
                "trackIndex" : 95,
                "medias" : [
                ]
              },
              {
                "trackIndex" : 96,
                "medias" : [
                  {
                    "id" : 149,
                    "_type" : "Group",
                    "parameters" : {
                      "translation0" : 350.0,
                      "translation1" : 300.0,
                      "scale0" : 0.213523131672598,
                      "scale1" : 0.21875,
                      "sourceCrop0" : 0.0,
                      "sourceCrop1" : 0.0,
                      "sourceCrop2" : 0.0,
                      "sourceCrop3" : 0.0,
                      "geometryCrop0" : 0.0,
                      "geometryCrop1" : 0.0,
                      "geometryCrop2" : 0.0,
                      "geometryCrop3" : 0.0,
                      "volume" : 1.0
                    },
                    "tracks" : [
                      {
                        "trackIndex" : 0,
                        "medias" : [
                          {
                            "id" : 150,
                            "_type" : "Group",
                            "parameters" : {
                              "translation0" : {
                                "type" : "double",
                                "defaultValue" : 0.0,
                                "keyframes" : [
                                  {
                                    "endTime" : 552720000,
                                    "time" : 0,
                                    "value" : 0.0,
                                    "interp" : "eioe",
                                    "duration" : 552720000
                                  },
                                  {
                                    "endTime" : 1775760000,
                                    "time" : 1375920000,
                                    "value" : 0.0,
                                    "interp" : "eioe",
                                    "duration" : 399840000
                                  }
                                ]
                              },
                              "translation1" : {
                                "type" : "double",
                                "defaultValue" : -305.610046386719,
                                "keyframes" : [
                                  {
                                    "endTime" : 552720000,
                                    "time" : 0,
                                    "value" : 0.0,
                                    "interp" : "eioe",
                                    "duration" : 552720000
                                  },
                                  {
                                    "endTime" : 1775760000,
                                    "time" : 1375920000,
                                    "value" : -304.610046386719,
                                    "interp" : "eioe",
                                    "duration" : 399840000
                                  }
                                ]
                              },
                              "sourceCrop0" : 0.0,
                              "sourceCrop1" : 0.0,
                              "sourceCrop2" : 0.0,
                              "sourceCrop3" : 0.0,
                              "geometryCrop0" : 0.0,
                              "geometryCrop1" : 0.0,
                              "geometryCrop2" : 0.0,
                              "geometryCrop3" : 0.0,
                              "volume" : 1.0
                            },
                            "tracks" : [
                              {
                                "trackIndex" : 0,
                                "medias" : [
                                  {
                                    "id" : 151,
                                    "_type" : "Group",
                                    "parameters" : {
                                      "sourceCrop0" : 0.0,
                                      "sourceCrop1" : 0.0,
                                      "sourceCrop2" : 0.0,
                                      "sourceCrop3" : 0.0,
                                      "geometryCrop0" : 0.0,
                                      "geometryCrop1" : 0.0,
                                      "geometryCrop2" : 0.0,
                                      "geometryCrop3" : 0.0,
                                      "volume" : 1.0
                                    },
                                    "tracks" : [
                                      {
                                        "trackIndex" : 0,
                                        "medias" : [
                                          {
                                            "id" : 152,
                                            "_type" : "Callout",
                                            "def" : {
                                              "kind" : "remix",
                                              "shape" : "shape-rectangle",
                                              "style" : "bold",
                                              "fill-color-blue" : 1.0,
                                              "fill-color-green" : 1.0,
                                              "fill-color-opacity" : 1.0,
                                              "fill-color-red" : 1.0,
                                              "hasDropShadow" : 0.0,
                                              "height" : 163.002035140991,
                                              "savedXScale" : 1.0,
                                              "savedYScale" : 1.0,
                                              "stroke-color-blue" : 1.0,
                                              "stroke-color-green" : 1.0,
                                              "stroke-color-opacity" : 1.0,
                                              "stroke-color-red" : 1.0,
                                              "stroke-width" : 0.0,
                                              "width" : 1403.00212860107,
                                              "custom" : "Y",
                                              "fill-style" : "solid",
                                              "stroke-style" : "solid"
                                            },
                                            "attributes" : {
                                              "ident" : "",
                                              "autoRotateText" : true
                                            },
                                            "parameters" : {
                                              "anchor0" : -1.0,
                                              "anchor1" : 2.0,
                                              "sourceCrop0" : 0.0,
                                              "sourceCrop1" : 0.0,
                                              "sourceCrop2" : 0.0,
                                              "sourceCrop3" : 0.0,
                                              "geometryCrop0" : 0.0,
                                              "geometryCrop1" : 0.0,
                                              "geometryCrop2" : 0.0,
                                              "geometryCrop3" : 0.0
                                            },
                                            "effects" : [

                                            ],
                                            "start" : 0,
                                            "duration" : 3528000000,
                                            "mediaStart" : 0,
                                            "mediaDuration" : 3528000000,
                                            "scalar" : 1,
                                            "metadata" : {
                                              "AppliedThemeId" : "",
                                              "clipSpeedAttribute" : false,
                                              "effectApplied" : "none",
                                              "lockAspectRatio" : false
                                            },
                                            "animationTracks" : {

                                            }
                                          }
                                        ],
                                          "ident" : "",
                                          "audioMuted" : false,
                                          "videoHidden" : false,
                                          "magnetic" : false,
                                          "matte" : 0,
                                          "solo" : false,
                                          "metadata" : {
                                            "IsLocked" : "False",
                                            "WinTrackHeight" : "56",
                                            "trackHeight" : "54"
                                          }
                                      },
                                      {
                                        "trackIndex" : 1,
                                        "medias" : [
                                          {
                                            "id" : 153,
                                            "_type" : "Callout",
                                            "def" : {
                                              "kind" : "remix",
                                              "shape" : "shape-rectangle",
                                              "style" : "bold",
                                              "fill-color-blue" : 0.756862759590149,
                                              "fill-color-green" : 0.18823529779911,
                                              "fill-color-opacity" : 1.0,
                                              "fill-color-red" : 0.960784316062927,
                                              "hasDropShadow" : 0.0,
                                              "height" : 160.0,
                                              "savedXScale" : 1.0,
                                              "savedYScale" : 1.0,
                                              "stroke-color-blue" : 0.886274516582489,
                                              "stroke-color-green" : 0.200000002980232,
                                              "stroke-color-opacity" : 0.0,
                                              "stroke-color-red" : 0.376470595598221,
                                              "stroke-width" : 0.0,
                                              "width" : 1400.0,
                                              "custom" : "Y",
                                              "fill-style" : "solid",
                                              "stroke-style" : "solid"
                                            },
                                            "attributes" : {
                                              "ident" : "",
                                              "autoRotateText" : true
                                            },
                                            "parameters" : {
                                              "sourceCrop0" : 0.0,
                                              "sourceCrop1" : 0.0,
                                              "sourceCrop2" : 0.0,
                                              "sourceCrop3" : 0.0,
                                              "geometryCrop0" : 0.0,
                                              "geometryCrop1" : 0.0,
                                              "geometryCrop2" : 0.0,
                                              "geometryCrop3" : 0.0
                                            },
                                            "effects" : [

                                            ],
                                            "start" : 0,
                                            "duration" : 3528000000,
                                            "mediaStart" : 0,
                                            "mediaDuration" : 3528000000,
                                            "scalar" : 1,
                                            "metadata" : {
                                              "AppliedThemeId" : "",
                                              "clipSpeedAttribute" : false,
                                              "effectApplied" : "none"
                                            },
                                            "animationTracks" : {

                                            }
                                          }
                                        ],
                                          "ident" : "",
                                          "audioMuted" : false,
                                          "videoHidden" : false,
                                          "magnetic" : false,
                                          "matte" : 1,
                                          "solo" : false,
                                          "metadata" : {
                                            "IsLocked" : "False",
                                            "WinTrackHeight" : "56",
                                            "trackHeight" : "54"
                                          }
                                      }
                                    ],
                                    "attributes" : {
                                      "ident" : "Fill-1400x160",
                                      "widthAttr" : 1405.0,
                                      "heightAttr" : 167.002,
                                      "gain" : 1.0,
                                      "mixToMono" : false
                                    },
                                    "effects" : [

                                    ],
                                    "start" : 0,
                                    "duration" : 3528000000,
                                    "mediaStart" : 0.0,
                                    "mediaDuration" : 3528000000.0,
                                    "scalar" : 1,
                                    "metadata" : {
                                      "clipSpeedAttribute" : false,
                                      "effectApplied" : "none",
                                      "isOpen" : false,
                                      "lockAspectRatio" : true
                                    },
                                    "animationTracks" : {

                                    }
                                  }
                                ],
                                  "ident" : "",
                                  "audioMuted" : false,
                                  "videoHidden" : false,
                                  "magnetic" : false,
                                  "matte" : 0,
                                  "solo" : false,
                                  "metadata" : {
                                    "IsLocked" : "False",
                                    "WinTrackHeight" : "56",
                                    "trackHeight" : "54"
                                  }
                              },
                              {
                                "trackIndex" : 1,
                                "medias" : [
                                  {
                                    "id" : 154,
                                    "_type" : "Callout",
                                    "def" : {
                                      "kind" : "remix",
                                      "shape" : "text",
                                      "style" : "urban",
                                      "enable-ligatures" : 1.0,
                                      "hasDropShadow" : 0.0,
                                      "height" : 170.0,
                                      "line-spacing" : 0.0,
                                      "savedXScale" : 1.0,
                                      "savedYScale" : 1.0,
                                      "width" : 1400.0,
                                      "word-wrap" : 1.0,
                                      "custom" : "Y",
                                      "horizontal-alignment" : "left",
                                      "resize-behavior" : "resizeText",
                                      "text" : "extend selection to right",
                                      "vertical-alignment" : "center",
                                      "font" : {
                                        "color-blue" : 1.0,
                                        "color-green" : 1.0,
                                        "color-red" : 1.0,
                                        "size" : 96.0,
                                        "tracking" : 0.0,
                                        "name" : "Dosis",
                                        "weight" : "Semi Bold"
                                      },
                                      "textAttributes" : {
                                        "type" : "textAttributeList",
                                        "keyframes" : [
                                          {
                                            "endTime" : 0,
                                            "time" : 0,
                                            "value" : [{"name":"underline","rangeEnd":25,"rangeStart":0,"value":0,"valueType":"int"},{"name":"strikethrough","rangeEnd":25,"rangeStart":0,"value":0,"valueType":"int"},{"name":"fontName","rangeEnd":25,"rangeStart":0,"value":"Roboto","valueType":"string"},{"name":"kerning","rangeEnd":25,"rangeStart":0,"value":0.049883078231292483,"valueType":"double"},{"name":"fontItalic","rangeEnd":25,"rangeStart":0,"value":0,"valueType":"int"},{"name":"fontWeight","rangeEnd":25,"rangeStart":0,"value":700,"valueType":"int"},{"name":"fontSize","rangeEnd":25,"rangeStart":0,"value":86,"valueType":"double"},{"name":"fgColor","rangeEnd":25,"rangeStart":0,"value":"(110,110,110,255)","valueType":"color"}],
                                            "duration" : 0
                                          }
                                        ]
                                      }
                                    },
                                    "attributes" : {
                                      "ident" : "",
                                      "autoRotateText" : true
                                    },
                                    "parameters" : {
                                      "translation1" : -2.0,
                                      "sourceCrop0" : 0.0,
                                      "sourceCrop1" : 0.0,
                                      "sourceCrop2" : 0.0,
                                      "sourceCrop3" : 0.0,
                                      "geometryCrop0" : 0.0,
                                      "geometryCrop1" : 0.0,
                                      "geometryCrop2" : 0.0,
                                      "geometryCrop3" : 0.0
                                    },
                                    "effects" : [

                                    ],
                                    "start" : 0,
                                    "duration" : 3528000000,
                                    "mediaStart" : 0,
                                    "mediaDuration" : 3528000000,
                                    "scalar" : 1,
                                    "metadata" : {
                                      "AppliedThemeId" : "",
                                      "clipSpeedAttribute" : false,
                                      "effectApplied" : "none",
                                      "lockAspectRatio" : false
                                    },
                                    "animationTracks" : {

                                    }
                                  }
                                ],
                                  "ident" : "",
                                  "audioMuted" : false,
                                  "videoHidden" : false,
                                  "magnetic" : false,
                                  "matte" : 0,
                                  "solo" : false,
                                  "metadata" : {
                                    "IsLocked" : "False",
                                    "WinTrackHeight" : "56",
                                    "trackHeight" : "54"
                                  }
                              }
                            ],
                            "attributes" : {
                              "ident" : "BP-Title-11",
                              "widthAttr" : 1405.0,
                              "heightAttr" : 167.002,
                              "gain" : 1.0,
                              "mixToMono" : false,
                              "assetProperties" : [
                                {
                                  "type" : 0,
                                  "name" : "Title",
                                  "objects" : [ 154 ],
                                  "themeMappings" :  {
                                    "font-color" : "foreground-1"
                                  }
                                },
                                {
                                  "type" : 1,
                                  "name" : "Fill",
                                  "objects" : [ 152 ],
                                  "themeMappings" :  {
                                    "fill" : "background-1"
                                  }
                                }
                              ]
                            },
                            "effects" : [

                            ],
                            "start" : 0,
                            "duration" : 3528000000,
                            "mediaStart" : 0.0,
                            "mediaDuration" : 3528000000.0,
                            "scalar" : 1,
                            "metadata" : {
                              "clipSpeedAttribute" : false,
                              "effectApplied" : "none",
                              "isOpen" : false,
                              "lockAspectRatio" : true
                            },
                            "animationTracks" : {
                              "visual" : [
                                {
                                  "endTime" : 552720000,
                                  "duration" : 552720000,
                                  "range" : [ 0, 552720000],
                                  "interp" : "eioe"
                                },
                                {
                                  "endTime" : 1775760000,
                                  "duration" : 399840000,
                                  "range" : [ 1375920000, 399840000],
                                  "interp" : "eioe"
                                }
                              ]
                            }
                          }
                        ],
                          "ident" : "",
                          "audioMuted" : false,
                          "videoHidden" : false,
                          "magnetic" : false,
                          "matte" : 0,
                          "solo" : false,
                          "metadata" : {
                            "IsLocked" : "False",
                            "WinTrackHeight" : "56",
                            "trackHeight" : "54"
                          }
                      },
                      {
                        "trackIndex" : 1,
                        "medias" : [
                          {
                            "id" : 155,
                            "_type" : "Group",
                            "parameters" : {
                              "translation0" : {
                                "type" : "double",
                                "defaultValue" : 0.0,
                                "keyframes" : [
                                  {
                                    "endTime" : 552720000,
                                    "time" : 0,
                                    "value" : 0.0,
                                    "interp" : "eioe",
                                    "duration" : 552720000
                                  },
                                  {
                                    "endTime" : 1775760000,
                                    "time" : 1375920000,
                                    "value" : 0.0,
                                    "interp" : "eioe",
                                    "duration" : 399840000
                                  }
                                ]
                              },
                              "translation1" : {
                                "type" : "double",
                                "defaultValue" : -144.610046386719,
                                "keyframes" : [
                                  {
                                    "endTime" : 552720000,
                                    "time" : 0,
                                    "value" : 0.0,
                                    "interp" : "eioe",
                                    "duration" : 552720000
                                  },
                                  {
                                    "endTime" : 1775760000,
                                    "time" : 1375920000,
                                    "value" : -144.610046386719,
                                    "interp" : "eioe",
                                    "duration" : 399840000
                                  }
                                ]
                              },
                              "sourceCrop0" : 0.0,
                              "sourceCrop1" : 0.0,
                              "sourceCrop2" : 0.0,
                              "sourceCrop3" : 0.0,
                              "geometryCrop0" : 0.0,
                              "geometryCrop1" : 0.0,
                              "geometryCrop2" : 0.0,
                              "geometryCrop3" : 0.0,
                              "opacity" : {
                                "type" : "double",
                                "defaultValue" : 1.0,
                                "keyframes" : [
                                  {
                                    "endTime" : 552720000,
                                    "time" : 0,
                                    "value" : 1.0,
                                    "interp" : "eioe",
                                    "duration" : 552720000
                                  }
                                ]
                              },
                              "volume" : 1.0
                            },
                            "tracks" : [
                              {
                                "trackIndex" : 0,
                                "medias" : [
                                  {
                                    "id" : 156,
                                    "_type" : "Callout",
                                    "def" : {
                                      "kind" : "remix",
                                      "shape" : "shape-rectangle",
                                      "style" : "bold",
                                      "fill-color-blue" : 0.913725490196078,
                                      "fill-color-green" : 0.949019607843137,
                                      "fill-color-opacity" : 1.0,
                                      "fill-color-red" : 0.933333333333333,
                                      "hasDropShadow" : 0.0,
                                      "height" : 163.002035140991,
                                      "savedXScale" : 1.0,
                                      "savedYScale" : 1.0,
                                      "stroke-color-blue" : 1.0,
                                      "stroke-color-green" : 1.0,
                                      "stroke-color-opacity" : 1.0,
                                      "stroke-color-red" : 1.0,
                                      "stroke-width" : 0.0,
                                      "width" : 1403.00212860107,
                                      "custom" : "Y",
                                      "fill-style" : "solid",
                                      "stroke-style" : "solid"
                                    },
                                    "attributes" : {
                                      "ident" : "",
                                      "autoRotateText" : true
                                    },
                                    "parameters" : {
                                      "anchor0" : -1.0,
                                      "anchor1" : 2.0,
                                      "sourceCrop0" : 0.0,
                                      "sourceCrop1" : 0.0,
                                      "sourceCrop2" : 0.0,
                                      "sourceCrop3" : 0.0,
                                      "geometryCrop0" : 0.0,
                                      "geometryCrop1" : 0.0,
                                      "geometryCrop2" : 0.0,
                                      "geometryCrop3" : 0.0
                                    },
                                    "effects" : [

                                    ],
                                    "start" : 0,
                                    "duration" : 3528000000,
                                    "mediaStart" : 0,
                                    "mediaDuration" : 3528000000,
                                    "scalar" : 1,
                                    "metadata" : {
                                      "AppliedThemeId" : "",
                                      "clipSpeedAttribute" : false,
                                      "effectApplied" : "none",
                                      "lockAspectRatio" : false
                                    },
                                    "animationTracks" : {

                                    }
                                  }
                                ],
                                  "ident" : "",
                                  "audioMuted" : false,
                                  "videoHidden" : false,
                                  "magnetic" : false,
                                  "matte" : 0,
                                  "solo" : false,
                                  "metadata" : {
                                    "IsLocked" : "False",
                                    "WinTrackHeight" : "56",
                                    "trackHeight" : "54"
                                  }
                              },
                              {
                                "trackIndex" : 1,
                                "medias" : [
                                  {
                                    "id" : 157,
                                    "_type" : "Callout",
                                    "def" : {
                                      "kind" : "remix",
                                      "shape" : "shape-rectangle",
                                      "style" : "bold",
                                      "fill-color-blue" : 0.756862759590149,
                                      "fill-color-green" : 0.18823529779911,
                                      "fill-color-opacity" : 1.0,
                                      "fill-color-red" : 0.960784316062927,
                                      "hasDropShadow" : 0.0,
                                      "height" : 160.0,
                                      "savedXScale" : 1.0,
                                      "savedYScale" : 1.0,
                                      "stroke-color-blue" : 0.886274516582489,
                                      "stroke-color-green" : 0.200000002980232,
                                      "stroke-color-opacity" : 0.0,
                                      "stroke-color-red" : 0.376470595598221,
                                      "stroke-width" : 0.0,
                                      "width" : 1400.0,
                                      "custom" : "Y",
                                      "fill-style" : "solid",
                                      "stroke-style" : "solid"
                                    },
                                    "attributes" : {
                                      "ident" : "",
                                      "autoRotateText" : true
                                    },
                                    "parameters" : {
                                      "sourceCrop0" : 0.0,
                                      "sourceCrop1" : 0.0,
                                      "sourceCrop2" : 0.0,
                                      "sourceCrop3" : 0.0,
                                      "geometryCrop0" : 0.0,
                                      "geometryCrop1" : 0.0,
                                      "geometryCrop2" : 0.0,
                                      "geometryCrop3" : 0.0
                                    },
                                    "effects" : [

                                    ],
                                    "start" : 0,
                                    "duration" : 3528000000,
                                    "mediaStart" : 0,
                                    "mediaDuration" : 3528000000,
                                    "scalar" : 1,
                                    "metadata" : {
                                      "AppliedThemeId" : "",
                                      "clipSpeedAttribute" : false,
                                      "effectApplied" : "none"
                                    },
                                    "animationTracks" : {

                                    }
                                  }
                                ],
                                  "ident" : "",
                                  "audioMuted" : false,
                                  "videoHidden" : false,
                                  "magnetic" : false,
                                  "matte" : 1,
                                  "solo" : false,
                                  "metadata" : {
                                    "IsLocked" : "False",
                                    "WinTrackHeight" : "56",
                                    "trackHeight" : "54"
                                  }
                              }
                            ],
                            "attributes" : {
                              "ident" : "Rect-1400x1600-Mask",
                              "widthAttr" : 1405.0,
                              "heightAttr" : 167.002,
                              "gain" : 1.0,
                              "mixToMono" : false
                            },
                            "effects" : [

                            ],
                            "start" : 0,
                            "duration" : 3528000000,
                            "mediaStart" : 0.0,
                            "mediaDuration" : 3528000000.0,
                            "scalar" : 1,
                            "metadata" : {
                              "clipSpeedAttribute" : false,
                              "effectApplied" : "none",
                              "isOpen" : false,
                              "lockAspectRatio" : true
                            },
                            "animationTracks" : {
                              "visual" : [
                                {
                                  "endTime" : 552720000,
                                  "duration" : 552720000,
                                  "range" : [ 0, 552720000],
                                  "interp" : "eioe"
                                },
                                {
                                  "endTime" : 1775760000,
                                  "duration" : 399840000,
                                  "range" : [ 1375920000, 399840000],
                                  "interp" : "eioe"
                                }
                              ]
                            }
                          }
                        ],
                          "ident" : "",
                          "audioMuted" : false,
                          "videoHidden" : false,
                          "magnetic" : false,
                          "matte" : 1,
                          "solo" : false,
                          "metadata" : {
                            "IsLocked" : "False",
                            "WinTrackHeight" : "56",
                            "trackHeight" : "54"
                          }
                      },
                      {
                        "trackIndex" : 2,
                        "medias" : [
                          {
                            "id" : 158,
                            "_type" : "Group",
                            "parameters" : {
                              "translation0" : {
                                "type" : "double",
                                "defaultValue" : 0.0,
                                "keyframes" : [
                                  {
                                    "endTime" : 552720000,
                                    "time" : 0,
                                    "value" : 0.0,
                                    "interp" : "eioe",
                                    "duration" : 552720000
                                  },
                                  {
                                    "endTime" : 1775760000,
                                    "time" : 1375920000,
                                    "value" : 0.0,
                                    "interp" : "eioe",
                                    "duration" : 399840000
                                  }
                                ]
                              },
                              "translation1" : {
                                "type" : "double",
                                "defaultValue" : -233.610046386719,
                                "keyframes" : [
                                  {
                                    "endTime" : 552720000,
                                    "time" : 0,
                                    "value" : 90.0,
                                    "interp" : "eioe",
                                    "duration" : 552720000
                                  },
                                  {
                                    "endTime" : 1775760000,
                                    "time" : 1375920000,
                                    "value" : -233.610046386719,
                                    "interp" : "eioe",
                                    "duration" : 399840000
                                  }
                                ]
                              },
                              "sourceCrop0" : 0.0,
                              "sourceCrop1" : 0.0,
                              "sourceCrop2" : 0.0,
                              "sourceCrop3" : 0.0,
                              "geometryCrop0" : 0.0,
                              "geometryCrop1" : 0.0,
                              "geometryCrop2" : 0.0,
                              "geometryCrop3" : 0.0,
                              "opacity" : {
                                "type" : "double",
                                "defaultValue" : 1.0,
                                "keyframes" : [
                                  {
                                    "endTime" : 552720000,
                                    "time" : 0,
                                    "value" : 1.0,
                                    "interp" : "eioe",
                                    "duration" : 552720000
                                  }
                                ]
                              },
                              "volume" : 1.0
                            },
                            "tracks" : [
                              {
                                "trackIndex" : 0,
                                "medias" : [
                                  {
                                    "id" : 159,
                                    "_type" : "Callout",
                                    "def" : {
                                      "kind" : "remix",
                                      "shape" : "shape-rectangle",
                                      "style" : "bold",
                                      "fill-color-blue" : 0.2196078431,
                                      "fill-color-green" : 0.8745098039,
                                      "fill-color-opacity" : 1.0,
                                      "fill-color-red" : 1.0,
                                      "hasDropShadow" : 0.0,
                                      "height" : 163.002035140991,
                                      "savedXScale" : 1.0,
                                      "savedYScale" : 1.0,
                                      "stroke-color-blue" : 1.0,
                                      "stroke-color-green" : 1.0,
                                      "stroke-color-opacity" : 1.0,
                                      "stroke-color-red" : 1.0,
                                      "stroke-width" : 0.0,
                                      "width" : 1403.00212860107,
                                      "custom" : "Y",
                                      "fill-style" : "solid",
                                      "stroke-style" : "solid"
                                    },
                                    "attributes" : {
                                      "ident" : "",
                                      "autoRotateText" : true
                                    },
                                    "parameters" : {
                                      "anchor0" : -1.0,
                                      "anchor1" : 2.0,
                                      "sourceCrop0" : 0.0,
                                      "sourceCrop1" : 0.0,
                                      "sourceCrop2" : 0.0,
                                      "sourceCrop3" : 0.0,
                                      "geometryCrop0" : 0.0,
                                      "geometryCrop1" : 0.0,
                                      "geometryCrop2" : 0.0,
                                      "geometryCrop3" : 0.0
                                    },
                                    "effects" : [

                                    ],
                                    "start" : 0,
                                    "duration" : 3528000000,
                                    "mediaStart" : 0,
                                    "mediaDuration" : 3528000000,
                                    "scalar" : 1,
                                    "metadata" : {
                                      "AppliedThemeId" : "",
                                      "clipSpeedAttribute" : false,
                                      "effectApplied" : "none",
                                      "lockAspectRatio" : false
                                    },
                                    "animationTracks" : {

                                    }
                                  }
                                ],
                                  "ident" : "",
                                  "audioMuted" : false,
                                  "videoHidden" : false,
                                  "magnetic" : false,
                                  "matte" : 0,
                                  "solo" : false,
                                  "metadata" : {
                                    "IsLocked" : "False",
                                    "WinTrackHeight" : "56",
                                    "trackHeight" : "54"
                                  }
                              },
                              {
                                "trackIndex" : 1,
                                "medias" : [
                                  {
                                    "id" : 160,
                                    "_type" : "Callout",
                                    "def" : {
                                      "kind" : "remix",
                                      "shape" : "shape-rectangle",
                                      "style" : "bold",
                                      "fill-color-blue" : 0.756862759590149,
                                      "fill-color-green" : 0.18823529779911,
                                      "fill-color-opacity" : 1.0,
                                      "fill-color-red" : 0.960784316062927,
                                      "hasDropShadow" : 0.0,
                                      "height" : 160.0,
                                      "savedXScale" : 1.0,
                                      "savedYScale" : 1.0,
                                      "stroke-color-blue" : 0.886274516582489,
                                      "stroke-color-green" : 0.200000002980232,
                                      "stroke-color-opacity" : 0.0,
                                      "stroke-color-red" : 0.376470595598221,
                                      "stroke-width" : 0.0,
                                      "width" : 1400.0,
                                      "custom" : "Y",
                                      "fill-style" : "solid",
                                      "stroke-style" : "solid"
                                    },
                                    "attributes" : {
                                      "ident" : "",
                                      "autoRotateText" : true
                                    },
                                    "parameters" : {
                                      "translation1" : {
                                        "type" : "double",
                                        "defaultValue" : -1.0,
                                        "keyframes" : [
                                          {
                                            "endTime" : 270480000,
                                            "time" : 0,
                                            "value" : 0.0,
                                            "duration" : 270480000
                                          }
                                        ]
                                      },
                                      "scale0" : {
                                        "type" : "double",
                                        "defaultValue" : 1.0,
                                        "keyframes" : [
                                          {
                                            "endTime" : 270480000,
                                            "time" : 0,
                                            "value" : 1.0,
                                            "duration" : 270480000
                                          }
                                        ]
                                      },
                                      "scale1" : {
                                        "type" : "double",
                                        "defaultValue" : 0.125,
                                        "keyframes" : [
                                          {
                                            "endTime" : 270480000,
                                            "time" : 0,
                                            "value" : 0.5,
                                            "duration" : 270480000
                                          },
                                          {
                                            "endTime" : 552720000,
                                            "time" : 282240000,
                                            "value" : 0.125,
                                            "duration" : 270480000
                                          }
                                        ]
                                      },
                                      "sourceCrop0" : 0.0,
                                      "sourceCrop1" : 0.0,
                                      "sourceCrop2" : 0.0,
                                      "sourceCrop3" : 0.0,
                                      "geometryCrop0" : 0.0,
                                      "geometryCrop1" : 0.0,
                                      "geometryCrop2" : 0.0,
                                      "geometryCrop3" : 0.0
                                    },
                                    "effects" : [

                                    ],
                                    "start" : 0,
                                    "duration" : 3528000000,
                                    "mediaStart" : 0,
                                    "mediaDuration" : 3528000000,
                                    "scalar" : 1,
                                    "metadata" : {
                                      "AppliedThemeId" : "",
                                      "clipSpeedAttribute" : false,
                                      "effectApplied" : "none"
                                    },
                                    "animationTracks" : {
                                      "visual" : [
                                        {
                                          "endTime" : 270480000,
                                          "duration" : 270480000,
                                          "range" : [ 0, 270480000]
                                        },
                                        {
                                          "endTime" : 552720000,
                                          "duration" : 270480000,
                                          "range" : [ 282240000, 270480000]
                                        }
                                      ]
                                    }
                                  }
                                ],
                                  "ident" : "",
                                  "audioMuted" : false,
                                  "videoHidden" : false,
                                  "magnetic" : false,
                                  "matte" : 1,
                                  "solo" : false,
                                  "metadata" : {
                                    "IsLocked" : "False",
                                    "WinTrackHeight" : "56",
                                    "trackHeight" : "54"
                                  }
                              }
                            ],
                            "attributes" : {
                              "ident" : "Animated-Pulse-1400x20-To-1400x80",
                              "widthAttr" : 1405.0,
                              "heightAttr" : 167.002,
                              "gain" : 1.0,
                              "mixToMono" : false,
                              "assetProperties" : [
                                {
                                  "type" : 1,
                                  "name" : "Color",
                                  "objects" : [ 159 ],
                                  "themeMappings" :  {
                                    "fill" : "accent-1"
                                  }
                                }
                              ]
                            },
                            "effects" : [

                            ],
                            "start" : 0,
                            "duration" : 3528000000,
                            "mediaStart" : 0.0,
                            "mediaDuration" : 3528000000.0,
                            "scalar" : 1,
                            "metadata" : {
                              "AppliedThemeId" : "8e797988-b823-4beb-b251-1d31b461ba07",
                              "clipSpeedAttribute" : false,
                              "effectApplied" : "none",
                              "isOpen" : false,
                              "lockAspectRatio" : true
                            },
                            "animationTracks" : {
                              "visual" : [
                                {
                                  "endTime" : 552720000,
                                  "duration" : 552720000,
                                  "range" : [ 0, 552720000],
                                  "interp" : "eioe"
                                },
                                {
                                  "endTime" : 1775760000,
                                  "duration" : 399840000,
                                  "range" : [ 1375920000, 399840000],
                                  "interp" : "eioe"
                                }
                              ]
                            }
                          }
                        ],
                          "ident" : "",
                          "audioMuted" : false,
                          "videoHidden" : false,
                          "magnetic" : false,
                          "matte" : 0,
                          "solo" : false,
                          "metadata" : {
                            "IsLocked" : "False",
                            "WinTrackHeight" : "56",
                            "trackHeight" : "54"
                          }
                      },
                      {
                        "trackIndex" : 3,
                        "medias" : [
                          {
                            "id" : 161,
                            "_type" : "Group",
                            "parameters" : {
                              "translation0" : {
                                "type" : "double",
                                "defaultValue" : 0.0,
                                "keyframes" : [
                                  {
                                    "endTime" : 552720000,
                                    "time" : 0,
                                    "value" : 0.0,
                                    "interp" : "eioe",
                                    "duration" : 552720000
                                  },
                                  {
                                    "endTime" : 1775760000,
                                    "time" : 1375920000,
                                    "value" : 0.0,
                                    "interp" : "eioe",
                                    "duration" : 399840000
                                  }
                                ]
                              },
                              "translation1" : {
                                "type" : "double",
                                "defaultValue" : -143.610046386719,
                                "keyframes" : [
                                  {
                                    "endTime" : 552720000,
                                    "time" : 0,
                                    "value" : 0.0,
                                    "interp" : "eioe",
                                    "duration" : 552720000
                                  },
                                  {
                                    "endTime" : 1775760000,
                                    "time" : 1375920000,
                                    "value" : -143.610046386719,
                                    "interp" : "eioe",
                                    "duration" : 399840000
                                  }
                                ]
                              },
                              "sourceCrop0" : 0.0,
                              "sourceCrop1" : 0.0,
                              "sourceCrop2" : 0.0,
                              "sourceCrop3" : 0.0,
                              "geometryCrop0" : 0.0,
                              "geometryCrop1" : 0.0,
                              "geometryCrop2" : 0.0,
                              "geometryCrop3" : 0.0,
                              "opacity" : {
                                "type" : "double",
                                "defaultValue" : 1.0,
                                "keyframes" : [
                                  {
                                    "endTime" : 552720000,
                                    "time" : 0,
                                    "value" : 1.0,
                                    "interp" : "eioe",
                                    "duration" : 552720000
                                  }
                                ]
                              },
                              "volume" : 1.0
                            },
                            "tracks" : [
                              {
                                "trackIndex" : 0,
                                "medias" : [
                                  {
                                    "id" : 162,
                                    "_type" : "Callout",
                                    "def" : {
                                      "kind" : "remix",
                                      "shape" : "shape-rectangle",
                                      "style" : "bold",
                                      "fill-color-blue" : 0.913725490196078,
                                      "fill-color-green" : 0.949019607843137,
                                      "fill-color-opacity" : 1.0,
                                      "fill-color-red" : 0.933333333333333,
                                      "hasDropShadow" : 0.0,
                                      "height" : 163.002035140991,
                                      "savedXScale" : 1.0,
                                      "savedYScale" : 1.0,
                                      "stroke-color-blue" : 1.0,
                                      "stroke-color-green" : 1.0,
                                      "stroke-color-opacity" : 1.0,
                                      "stroke-color-red" : 1.0,
                                      "stroke-width" : 0.0,
                                      "width" : 1403.00212860107,
                                      "custom" : "Y",
                                      "fill-style" : "solid",
                                      "stroke-style" : "solid"
                                    },
                                    "attributes" : {
                                      "ident" : "",
                                      "autoRotateText" : true
                                    },
                                    "parameters" : {
                                      "anchor0" : -1.0,
                                      "anchor1" : 2.0,
                                      "sourceCrop0" : 0.0,
                                      "sourceCrop1" : 0.0,
                                      "sourceCrop2" : 0.0,
                                      "sourceCrop3" : 0.0,
                                      "geometryCrop0" : 0.0,
                                      "geometryCrop1" : 0.0,
                                      "geometryCrop2" : 0.0,
                                      "geometryCrop3" : 0.0
                                    },
                                    "effects" : [

                                    ],
                                    "start" : 0,
                                    "duration" : 3528000000,
                                    "mediaStart" : 0,
                                    "mediaDuration" : 3528000000,
                                    "scalar" : 1,
                                    "metadata" : {
                                      "AppliedThemeId" : "",
                                      "clipSpeedAttribute" : false,
                                      "effectApplied" : "none",
                                      "lockAspectRatio" : false
                                    },
                                    "animationTracks" : {

                                    }
                                  }
                                ],
                                  "ident" : "",
                                  "audioMuted" : false,
                                  "videoHidden" : false,
                                  "magnetic" : false,
                                  "matte" : 0,
                                  "solo" : false,
                                  "metadata" : {
                                    "IsLocked" : "False",
                                    "WinTrackHeight" : "56",
                                    "trackHeight" : "54"
                                  }
                              },
                              {
                                "trackIndex" : 1,
                                "medias" : [
                                  {
                                    "id" : 163,
                                    "_type" : "Callout",
                                    "def" : {
                                      "kind" : "remix",
                                      "shape" : "shape-rectangle",
                                      "style" : "bold",
                                      "fill-color-blue" : 0.756862759590149,
                                      "fill-color-green" : 0.18823529779911,
                                      "fill-color-opacity" : 1.0,
                                      "fill-color-red" : 0.960784316062927,
                                      "hasDropShadow" : 0.0,
                                      "height" : 160.0,
                                      "savedXScale" : 1.0,
                                      "savedYScale" : 1.0,
                                      "stroke-color-blue" : 0.886274516582489,
                                      "stroke-color-green" : 0.200000002980232,
                                      "stroke-color-opacity" : 0.0,
                                      "stroke-color-red" : 0.376470595598221,
                                      "stroke-width" : 0.0,
                                      "width" : 1400.0,
                                      "custom" : "Y",
                                      "fill-style" : "solid",
                                      "stroke-style" : "solid"
                                    },
                                    "attributes" : {
                                      "ident" : "",
                                      "autoRotateText" : true
                                    },
                                    "parameters" : {
                                      "sourceCrop0" : 0.0,
                                      "sourceCrop1" : 0.0,
                                      "sourceCrop2" : 0.0,
                                      "sourceCrop3" : 0.0,
                                      "geometryCrop0" : 0.0,
                                      "geometryCrop1" : 0.0,
                                      "geometryCrop2" : 0.0,
                                      "geometryCrop3" : 0.0
                                    },
                                    "effects" : [

                                    ],
                                    "start" : 0,
                                    "duration" : 3528000000,
                                    "mediaStart" : 0,
                                    "mediaDuration" : 3528000000,
                                    "scalar" : 1,
                                    "metadata" : {
                                      "AppliedThemeId" : "",
                                      "clipSpeedAttribute" : false,
                                      "effectApplied" : "none"
                                    },
                                    "animationTracks" : {

                                    }
                                  }
                                ],
                                  "ident" : "",
                                  "audioMuted" : false,
                                  "videoHidden" : false,
                                  "magnetic" : false,
                                  "matte" : 1,
                                  "solo" : false,
                                  "metadata" : {
                                    "IsLocked" : "False",
                                    "WinTrackHeight" : "56",
                                    "trackHeight" : "54"
                                  }
                              }
                            ],
                            "attributes" : {
                              "ident" : "Rect-1400x1600-Mask",
                              "widthAttr" : 1405.0,
                              "heightAttr" : 167.002,
                              "gain" : 1.0,
                              "mixToMono" : false
                            },
                            "effects" : [

                            ],
                            "start" : 0,
                            "duration" : 3528000000,
                            "mediaStart" : 0.0,
                            "mediaDuration" : 3528000000.0,
                            "scalar" : 1,
                            "metadata" : {
                              "clipSpeedAttribute" : false,
                              "effectApplied" : "none",
                              "isOpen" : false,
                              "lockAspectRatio" : true
                            },
                            "animationTracks" : {
                              "visual" : [
                                {
                                  "endTime" : 552720000,
                                  "duration" : 552720000,
                                  "range" : [ 0, 552720000],
                                  "interp" : "eioe"
                                },
                                {
                                  "endTime" : 1775760000,
                                  "duration" : 399840000,
                                  "range" : [ 1375920000, 399840000],
                                  "interp" : "eioe"
                                }
                              ]
                            }
                          }
                        ],
                          "ident" : "",
                          "audioMuted" : false,
                          "videoHidden" : false,
                          "magnetic" : false,
                          "matte" : 1,
                          "solo" : false,
                          "metadata" : {
                            "IsLocked" : "False",
                            "WinTrackHeight" : "56",
                            "trackHeight" : "54"
                          }
                      }
                    ],
                    "attributes" : {
                      "ident" : "Broadcast-Title-012",
                      "widthAttr" : 1405.0,
                      "heightAttr" : 160.0,
                      "gain" : 1.0,
                      "mixToMono" : false,
                      "assetProperties" : [
                        {
                          "type" : 0,
                          "name" : "Title",
                          "objects" : [ 154 ],
                          "themeMappings" :  {
                            "font-color" : "foreground-1"
                          }
                        },
                        {
                          "type" : 1,
                          "name" : "Fill",
                          "objects" : [ 152 ],
                          "themeMappings" :  {
                            "fill" : "background-1"
                          }
                        },
                        {
                          "type" : 1,
                          "name" : "Wiper",
                          "objects" : [ 159 ],
                          "themeMappings" :  {
                            "fill" : "foreground-1"
                          }
                        }
                      ]
                    },
                    "effects" : [

                    ],
                    "start" : 1928640000,
                    "duration" : 1764000000,
                    "mediaStart" : 0.0,
                    "mediaDuration" : 1764000000.0,
                    "scalar" : 1,
                    "metadata" : {
                      "AppliedThemeId" : "170ba59c-db5d-4b9a-a310-e7e99853a4b7",
                      "clipSpeedAttribute" : false,
                      "default-anchor0" : 0.0,
                      "default-anchor1" : 0.0,
                      "default-anchor2" : 0.0,
                      "default-geometryCrop0" : 0.0,
                      "default-height" : 160.0,
                      "default-rotation0" : 0.0,
                      "default-rotation1" : 0.0,
                      "default-rotation2" : 0.0,
                      "default-scale0" : 1.0,
                      "default-scale1" : 1.0,
                      "default-scale2" : 1.0,
                      "default-shear0" : 0.0,
                      "default-shear1" : 0.0,
                      "default-shear2" : 0.0,
                      "default-translation0" : 0.0,
                      "default-translation1" : 0.0,
                      "default-translation2" : 0.0,
                      "default-width" : 1405.0,
                      "effectApplied" : "none",
                      "isOpen" : false,
                      "lockAspectRatio" : true
                    },
                    "animationTracks" : {

                    }
                  }
                ]
              },
              {
                "trackIndex" : 97,
                "medias" : [
                  {
                    "id" : 164,
                    "_type" : "Group",
                    "parameters" : {
                      "translation0" : -415.0,
                      "translation1" : -199.34375,
                      "scale0" : 0.213523131672598,
                      "scale1" : 0.21875,
                      "sourceCrop0" : 0.0,
                      "sourceCrop1" : 0.0,
                      "sourceCrop2" : 0.0,
                      "sourceCrop3" : 0.0,
                      "geometryCrop0" : 0.0,
                      "geometryCrop1" : 0.0,
                      "geometryCrop2" : 0.0,
                      "geometryCrop3" : 0.0,
                      "volume" : 1.0
                    },
                    "tracks" : [
                      {
                        "trackIndex" : 0,
                        "medias" : [
                          {
                            "id" : 165,
                            "_type" : "Group",
                            "parameters" : {
                              "translation0" : {
                                "type" : "double",
                                "defaultValue" : 0.0,
                                "keyframes" : [
                                  {
                                    "endTime" : 552720000,
                                    "time" : 0,
                                    "value" : 0.0,
                                    "interp" : "eioe",
                                    "duration" : 552720000
                                  },
                                  {
                                    "endTime" : 1775760000,
                                    "time" : 1375920000,
                                    "value" : 0.0,
                                    "interp" : "eioe",
                                    "duration" : 399840000
                                  }
                                ]
                              },
                              "translation1" : {
                                "type" : "double",
                                "defaultValue" : -305.610046386719,
                                "keyframes" : [
                                  {
                                    "endTime" : 552720000,
                                    "time" : 0,
                                    "value" : 0.0,
                                    "interp" : "eioe",
                                    "duration" : 552720000
                                  },
                                  {
                                    "endTime" : 1775760000,
                                    "time" : 1375920000,
                                    "value" : -304.610046386719,
                                    "interp" : "eioe",
                                    "duration" : 399840000
                                  }
                                ]
                              },
                              "sourceCrop0" : 0.0,
                              "sourceCrop1" : 0.0,
                              "sourceCrop2" : 0.0,
                              "sourceCrop3" : 0.0,
                              "geometryCrop0" : 0.0,
                              "geometryCrop1" : 0.0,
                              "geometryCrop2" : 0.0,
                              "geometryCrop3" : 0.0,
                              "volume" : 1.0
                            },
                            "tracks" : [
                              {
                                "trackIndex" : 0,
                                "medias" : [
                                  {
                                    "id" : 166,
                                    "_type" : "Group",
                                    "parameters" : {
                                      "sourceCrop0" : 0.0,
                                      "sourceCrop1" : 0.0,
                                      "sourceCrop2" : 0.0,
                                      "sourceCrop3" : 0.0,
                                      "geometryCrop0" : 0.0,
                                      "geometryCrop1" : 0.0,
                                      "geometryCrop2" : 0.0,
                                      "geometryCrop3" : 0.0,
                                      "volume" : 1.0
                                    },
                                    "tracks" : [
                                      {
                                        "trackIndex" : 0,
                                        "medias" : [
                                          {
                                            "id" : 167,
                                            "_type" : "Callout",
                                            "def" : {
                                              "kind" : "remix",
                                              "shape" : "shape-rectangle",
                                              "style" : "bold",
                                              "fill-color-blue" : 1.0,
                                              "fill-color-green" : 1.0,
                                              "fill-color-opacity" : 1.0,
                                              "fill-color-red" : 1.0,
                                              "hasDropShadow" : 0.0,
                                              "height" : 163.002035140991,
                                              "savedXScale" : 1.0,
                                              "savedYScale" : 1.0,
                                              "stroke-color-blue" : 1.0,
                                              "stroke-color-green" : 1.0,
                                              "stroke-color-opacity" : 1.0,
                                              "stroke-color-red" : 1.0,
                                              "stroke-width" : 0.0,
                                              "width" : 1403.00212860107,
                                              "custom" : "Y",
                                              "fill-style" : "solid",
                                              "stroke-style" : "solid"
                                            },
                                            "attributes" : {
                                              "ident" : "",
                                              "autoRotateText" : true
                                            },
                                            "parameters" : {
                                              "anchor0" : -1.0,
                                              "anchor1" : 2.0,
                                              "sourceCrop0" : 0.0,
                                              "sourceCrop1" : 0.0,
                                              "sourceCrop2" : 0.0,
                                              "sourceCrop3" : 0.0,
                                              "geometryCrop0" : 0.0,
                                              "geometryCrop1" : 0.0,
                                              "geometryCrop2" : 0.0,
                                              "geometryCrop3" : 0.0
                                            },
                                            "effects" : [

                                            ],
                                            "start" : 0,
                                            "duration" : 3528000000,
                                            "mediaStart" : 0,
                                            "mediaDuration" : 3528000000,
                                            "scalar" : 1,
                                            "metadata" : {
                                              "AppliedThemeId" : "",
                                              "clipSpeedAttribute" : false,
                                              "effectApplied" : "none",
                                              "lockAspectRatio" : false
                                            },
                                            "animationTracks" : {

                                            }
                                          }
                                        ],
                                          "ident" : "",
                                          "audioMuted" : false,
                                          "videoHidden" : false,
                                          "magnetic" : false,
                                          "matte" : 0,
                                          "solo" : false,
                                          "metadata" : {
                                            "IsLocked" : "False",
                                            "WinTrackHeight" : "56",
                                            "trackHeight" : "54"
                                          }
                                      },
                                      {
                                        "trackIndex" : 1,
                                        "medias" : [
                                          {
                                            "id" : 168,
                                            "_type" : "Callout",
                                            "def" : {
                                              "kind" : "remix",
                                              "shape" : "shape-rectangle",
                                              "style" : "bold",
                                              "fill-color-blue" : 0.756862759590149,
                                              "fill-color-green" : 0.18823529779911,
                                              "fill-color-opacity" : 1.0,
                                              "fill-color-red" : 0.960784316062927,
                                              "hasDropShadow" : 0.0,
                                              "height" : 160.0,
                                              "savedXScale" : 1.0,
                                              "savedYScale" : 1.0,
                                              "stroke-color-blue" : 0.886274516582489,
                                              "stroke-color-green" : 0.200000002980232,
                                              "stroke-color-opacity" : 0.0,
                                              "stroke-color-red" : 0.376470595598221,
                                              "stroke-width" : 0.0,
                                              "width" : 1400.0,
                                              "custom" : "Y",
                                              "fill-style" : "solid",
                                              "stroke-style" : "solid"
                                            },
                                            "attributes" : {
                                              "ident" : "",
                                              "autoRotateText" : true
                                            },
                                            "parameters" : {
                                              "sourceCrop0" : 0.0,
                                              "sourceCrop1" : 0.0,
                                              "sourceCrop2" : 0.0,
                                              "sourceCrop3" : 0.0,
                                              "geometryCrop0" : 0.0,
                                              "geometryCrop1" : 0.0,
                                              "geometryCrop2" : 0.0,
                                              "geometryCrop3" : 0.0
                                            },
                                            "effects" : [

                                            ],
                                            "start" : 0,
                                            "duration" : 3528000000,
                                            "mediaStart" : 0,
                                            "mediaDuration" : 3528000000,
                                            "scalar" : 1,
                                            "metadata" : {
                                              "AppliedThemeId" : "",
                                              "clipSpeedAttribute" : false,
                                              "effectApplied" : "none"
                                            },
                                            "animationTracks" : {

                                            }
                                          }
                                        ],
                                          "ident" : "",
                                          "audioMuted" : false,
                                          "videoHidden" : false,
                                          "magnetic" : false,
                                          "matte" : 1,
                                          "solo" : false,
                                          "metadata" : {
                                            "IsLocked" : "False",
                                            "WinTrackHeight" : "56",
                                            "trackHeight" : "54"
                                          }
                                      }
                                    ],
                                    "attributes" : {
                                      "ident" : "Fill-1400x160",
                                      "widthAttr" : 1405.0,
                                      "heightAttr" : 167.002,
                                      "gain" : 1.0,
                                      "mixToMono" : false
                                    },
                                    "effects" : [

                                    ],
                                    "start" : 0,
                                    "duration" : 3528000000,
                                    "mediaStart" : 0.0,
                                    "mediaDuration" : 3528000000.0,
                                    "scalar" : 1,
                                    "metadata" : {
                                      "clipSpeedAttribute" : false,
                                      "effectApplied" : "none",
                                      "isOpen" : false,
                                      "lockAspectRatio" : true
                                    },
                                    "animationTracks" : {

                                    }
                                  }
                                ],
                                  "ident" : "",
                                  "audioMuted" : false,
                                  "videoHidden" : false,
                                  "magnetic" : false,
                                  "matte" : 0,
                                  "solo" : false,
                                  "metadata" : {
                                    "IsLocked" : "False",
                                    "WinTrackHeight" : "56",
                                    "trackHeight" : "54"
                                  }
                              },
                              {
                                "trackIndex" : 1,
                                "medias" : [
                                  {
                                    "id" : 169,
                                    "_type" : "Callout",
                                    "def" : {
                                      "kind" : "remix",
                                      "shape" : "text",
                                      "style" : "urban",
                                      "enable-ligatures" : 1.0,
                                      "hasDropShadow" : 0.0,
                                      "height" : 170.0,
                                      "line-spacing" : 0.0,
                                      "savedXScale" : 1.0,
                                      "savedYScale" : 1.0,
                                      "width" : 1400.0,
                                      "word-wrap" : 1.0,
                                      "custom" : "Y",
                                      "horizontal-alignment" : "left",
                                      "resize-behavior" : "resizeText",
                                      "text" : "ungroup selected rows",
                                      "vertical-alignment" : "center",
                                      "font" : {
                                        "color-blue" : 1.0,
                                        "color-green" : 1.0,
                                        "color-red" : 1.0,
                                        "size" : 96.0,
                                        "tracking" : 0.0,
                                        "name" : "Dosis",
                                        "weight" : "Semi Bold"
                                      },
                                      "textAttributes" : {
                                        "type" : "textAttributeList",
                                        "keyframes" : [
                                          {
                                            "endTime" : 0,
                                            "time" : 0,
                                            "value" : [{"name":"underline","rangeEnd":21,"rangeStart":0,"value":0,"valueType":"int"},{"name":"strikethrough","rangeEnd":21,"rangeStart":0,"value":0,"valueType":"int"},{"name":"fontName","rangeEnd":21,"rangeStart":0,"value":"Roboto","valueType":"string"},{"name":"kerning","rangeEnd":21,"rangeStart":0,"value":0.049883078231292483,"valueType":"double"},{"name":"fontItalic","rangeEnd":21,"rangeStart":0,"value":0,"valueType":"int"},{"name":"fontWeight","rangeEnd":21,"rangeStart":0,"value":700,"valueType":"int"},{"name":"fontSize","rangeEnd":21,"rangeStart":0,"value":86,"valueType":"double"},{"name":"fgColor","rangeEnd":21,"rangeStart":0,"value":"(110,110,110,255)","valueType":"color"}],
                                            "duration" : 0
                                          }
                                        ]
                                      }
                                    },
                                    "attributes" : {
                                      "ident" : "",
                                      "autoRotateText" : true
                                    },
                                    "parameters" : {
                                      "translation1" : -2.0,
                                      "sourceCrop0" : 0.0,
                                      "sourceCrop1" : 0.0,
                                      "sourceCrop2" : 0.0,
                                      "sourceCrop3" : 0.0,
                                      "geometryCrop0" : 0.0,
                                      "geometryCrop1" : 0.0,
                                      "geometryCrop2" : 0.0,
                                      "geometryCrop3" : 0.0
                                    },
                                    "effects" : [

                                    ],
                                    "start" : 0,
                                    "duration" : 3528000000,
                                    "mediaStart" : 0,
                                    "mediaDuration" : 3528000000,
                                    "scalar" : 1,
                                    "metadata" : {
                                      "AppliedThemeId" : "",
                                      "clipSpeedAttribute" : false,
                                      "effectApplied" : "none",
                                      "lockAspectRatio" : false
                                    },
                                    "animationTracks" : {

                                    }
                                  }
                                ],
                                  "ident" : "",
                                  "audioMuted" : false,
                                  "videoHidden" : false,
                                  "magnetic" : false,
                                  "matte" : 0,
                                  "solo" : false,
                                  "metadata" : {
                                    "IsLocked" : "False",
                                    "WinTrackHeight" : "56",
                                    "trackHeight" : "54"
                                  }
                              }
                            ],
                            "attributes" : {
                              "ident" : "BP-Title-11",
                              "widthAttr" : 1405.0,
                              "heightAttr" : 167.002,
                              "gain" : 1.0,
                              "mixToMono" : false,
                              "assetProperties" : [
                                {
                                  "type" : 0,
                                  "name" : "Title",
                                  "objects" : [ 169 ],
                                  "themeMappings" :  {
                                    "font-color" : "foreground-1"
                                  }
                                },
                                {
                                  "type" : 1,
                                  "name" : "Fill",
                                  "objects" : [ 167 ],
                                  "themeMappings" :  {
                                    "fill" : "background-1"
                                  }
                                }
                              ]
                            },
                            "effects" : [

                            ],
                            "start" : 0,
                            "duration" : 3528000000,
                            "mediaStart" : 0.0,
                            "mediaDuration" : 3528000000.0,
                            "scalar" : 1,
                            "metadata" : {
                              "clipSpeedAttribute" : false,
                              "effectApplied" : "none",
                              "isOpen" : false,
                              "lockAspectRatio" : true
                            },
                            "animationTracks" : {
                              "visual" : [
                                {
                                  "endTime" : 552720000,
                                  "duration" : 552720000,
                                  "range" : [ 0, 552720000],
                                  "interp" : "eioe"
                                },
                                {
                                  "endTime" : 1775760000,
                                  "duration" : 399840000,
                                  "range" : [ 1375920000, 399840000],
                                  "interp" : "eioe"
                                }
                              ]
                            }
                          }
                        ],
                          "ident" : "",
                          "audioMuted" : false,
                          "videoHidden" : false,
                          "magnetic" : false,
                          "matte" : 0,
                          "solo" : false,
                          "metadata" : {
                            "IsLocked" : "False",
                            "WinTrackHeight" : "56",
                            "trackHeight" : "54"
                          }
                      },
                      {
                        "trackIndex" : 1,
                        "medias" : [
                          {
                            "id" : 170,
                            "_type" : "Group",
                            "parameters" : {
                              "translation0" : {
                                "type" : "double",
                                "defaultValue" : 0.0,
                                "keyframes" : [
                                  {
                                    "endTime" : 552720000,
                                    "time" : 0,
                                    "value" : 0.0,
                                    "interp" : "eioe",
                                    "duration" : 552720000
                                  },
                                  {
                                    "endTime" : 1775760000,
                                    "time" : 1375920000,
                                    "value" : 0.0,
                                    "interp" : "eioe",
                                    "duration" : 399840000
                                  }
                                ]
                              },
                              "translation1" : {
                                "type" : "double",
                                "defaultValue" : -144.610046386719,
                                "keyframes" : [
                                  {
                                    "endTime" : 552720000,
                                    "time" : 0,
                                    "value" : 0.0,
                                    "interp" : "eioe",
                                    "duration" : 552720000
                                  },
                                  {
                                    "endTime" : 1775760000,
                                    "time" : 1375920000,
                                    "value" : -144.610046386719,
                                    "interp" : "eioe",
                                    "duration" : 399840000
                                  }
                                ]
                              },
                              "sourceCrop0" : 0.0,
                              "sourceCrop1" : 0.0,
                              "sourceCrop2" : 0.0,
                              "sourceCrop3" : 0.0,
                              "geometryCrop0" : 0.0,
                              "geometryCrop1" : 0.0,
                              "geometryCrop2" : 0.0,
                              "geometryCrop3" : 0.0,
                              "opacity" : {
                                "type" : "double",
                                "defaultValue" : 1.0,
                                "keyframes" : [
                                  {
                                    "endTime" : 552720000,
                                    "time" : 0,
                                    "value" : 1.0,
                                    "interp" : "eioe",
                                    "duration" : 552720000
                                  }
                                ]
                              },
                              "volume" : 1.0
                            },
                            "tracks" : [
                              {
                                "trackIndex" : 0,
                                "medias" : [
                                  {
                                    "id" : 171,
                                    "_type" : "Callout",
                                    "def" : {
                                      "kind" : "remix",
                                      "shape" : "shape-rectangle",
                                      "style" : "bold",
                                      "fill-color-blue" : 0.913725490196078,
                                      "fill-color-green" : 0.949019607843137,
                                      "fill-color-opacity" : 1.0,
                                      "fill-color-red" : 0.933333333333333,
                                      "hasDropShadow" : 0.0,
                                      "height" : 163.002035140991,
                                      "savedXScale" : 1.0,
                                      "savedYScale" : 1.0,
                                      "stroke-color-blue" : 1.0,
                                      "stroke-color-green" : 1.0,
                                      "stroke-color-opacity" : 1.0,
                                      "stroke-color-red" : 1.0,
                                      "stroke-width" : 0.0,
                                      "width" : 1403.00212860107,
                                      "custom" : "Y",
                                      "fill-style" : "solid",
                                      "stroke-style" : "solid"
                                    },
                                    "attributes" : {
                                      "ident" : "",
                                      "autoRotateText" : true
                                    },
                                    "parameters" : {
                                      "anchor0" : -1.0,
                                      "anchor1" : 2.0,
                                      "sourceCrop0" : 0.0,
                                      "sourceCrop1" : 0.0,
                                      "sourceCrop2" : 0.0,
                                      "sourceCrop3" : 0.0,
                                      "geometryCrop0" : 0.0,
                                      "geometryCrop1" : 0.0,
                                      "geometryCrop2" : 0.0,
                                      "geometryCrop3" : 0.0
                                    },
                                    "effects" : [

                                    ],
                                    "start" : 0,
                                    "duration" : 3528000000,
                                    "mediaStart" : 0,
                                    "mediaDuration" : 3528000000,
                                    "scalar" : 1,
                                    "metadata" : {
                                      "AppliedThemeId" : "",
                                      "clipSpeedAttribute" : false,
                                      "effectApplied" : "none",
                                      "lockAspectRatio" : false
                                    },
                                    "animationTracks" : {

                                    }
                                  }
                                ],
                                  "ident" : "",
                                  "audioMuted" : false,
                                  "videoHidden" : false,
                                  "magnetic" : false,
                                  "matte" : 0,
                                  "solo" : false,
                                  "metadata" : {
                                    "IsLocked" : "False",
                                    "WinTrackHeight" : "56",
                                    "trackHeight" : "54"
                                  }
                              },
                              {
                                "trackIndex" : 1,
                                "medias" : [
                                  {
                                    "id" : 172,
                                    "_type" : "Callout",
                                    "def" : {
                                      "kind" : "remix",
                                      "shape" : "shape-rectangle",
                                      "style" : "bold",
                                      "fill-color-blue" : 0.756862759590149,
                                      "fill-color-green" : 0.18823529779911,
                                      "fill-color-opacity" : 1.0,
                                      "fill-color-red" : 0.960784316062927,
                                      "hasDropShadow" : 0.0,
                                      "height" : 160.0,
                                      "savedXScale" : 1.0,
                                      "savedYScale" : 1.0,
                                      "stroke-color-blue" : 0.886274516582489,
                                      "stroke-color-green" : 0.200000002980232,
                                      "stroke-color-opacity" : 0.0,
                                      "stroke-color-red" : 0.376470595598221,
                                      "stroke-width" : 0.0,
                                      "width" : 1400.0,
                                      "custom" : "Y",
                                      "fill-style" : "solid",
                                      "stroke-style" : "solid"
                                    },
                                    "attributes" : {
                                      "ident" : "",
                                      "autoRotateText" : true
                                    },
                                    "parameters" : {
                                      "sourceCrop0" : 0.0,
                                      "sourceCrop1" : 0.0,
                                      "sourceCrop2" : 0.0,
                                      "sourceCrop3" : 0.0,
                                      "geometryCrop0" : 0.0,
                                      "geometryCrop1" : 0.0,
                                      "geometryCrop2" : 0.0,
                                      "geometryCrop3" : 0.0
                                    },
                                    "effects" : [

                                    ],
                                    "start" : 0,
                                    "duration" : 3528000000,
                                    "mediaStart" : 0,
                                    "mediaDuration" : 3528000000,
                                    "scalar" : 1,
                                    "metadata" : {
                                      "AppliedThemeId" : "",
                                      "clipSpeedAttribute" : false,
                                      "effectApplied" : "none"
                                    },
                                    "animationTracks" : {

                                    }
                                  }
                                ],
                                  "ident" : "",
                                  "audioMuted" : false,
                                  "videoHidden" : false,
                                  "magnetic" : false,
                                  "matte" : 1,
                                  "solo" : false,
                                  "metadata" : {
                                    "IsLocked" : "False",
                                    "WinTrackHeight" : "56",
                                    "trackHeight" : "54"
                                  }
                              }
                            ],
                            "attributes" : {
                              "ident" : "Rect-1400x1600-Mask",
                              "widthAttr" : 1405.0,
                              "heightAttr" : 167.002,
                              "gain" : 1.0,
                              "mixToMono" : false
                            },
                            "effects" : [

                            ],
                            "start" : 0,
                            "duration" : 3528000000,
                            "mediaStart" : 0.0,
                            "mediaDuration" : 3528000000.0,
                            "scalar" : 1,
                            "metadata" : {
                              "clipSpeedAttribute" : false,
                              "effectApplied" : "none",
                              "isOpen" : false,
                              "lockAspectRatio" : true
                            },
                            "animationTracks" : {
                              "visual" : [
                                {
                                  "endTime" : 552720000,
                                  "duration" : 552720000,
                                  "range" : [ 0, 552720000],
                                  "interp" : "eioe"
                                },
                                {
                                  "endTime" : 1775760000,
                                  "duration" : 399840000,
                                  "range" : [ 1375920000, 399840000],
                                  "interp" : "eioe"
                                }
                              ]
                            }
                          }
                        ],
                          "ident" : "",
                          "audioMuted" : false,
                          "videoHidden" : false,
                          "magnetic" : false,
                          "matte" : 1,
                          "solo" : false,
                          "metadata" : {
                            "IsLocked" : "False",
                            "WinTrackHeight" : "56",
                            "trackHeight" : "54"
                          }
                      },
                      {
                        "trackIndex" : 2,
                        "medias" : [
                          {
                            "id" : 173,
                            "_type" : "Group",
                            "parameters" : {
                              "translation0" : {
                                "type" : "double",
                                "defaultValue" : 0.0,
                                "keyframes" : [
                                  {
                                    "endTime" : 552720000,
                                    "time" : 0,
                                    "value" : 0.0,
                                    "interp" : "eioe",
                                    "duration" : 552720000
                                  },
                                  {
                                    "endTime" : 1775760000,
                                    "time" : 1375920000,
                                    "value" : 0.0,
                                    "interp" : "eioe",
                                    "duration" : 399840000
                                  }
                                ]
                              },
                              "translation1" : {
                                "type" : "double",
                                "defaultValue" : -233.610046386719,
                                "keyframes" : [
                                  {
                                    "endTime" : 552720000,
                                    "time" : 0,
                                    "value" : 90.0,
                                    "interp" : "eioe",
                                    "duration" : 552720000
                                  },
                                  {
                                    "endTime" : 1775760000,
                                    "time" : 1375920000,
                                    "value" : -233.610046386719,
                                    "interp" : "eioe",
                                    "duration" : 399840000
                                  }
                                ]
                              },
                              "sourceCrop0" : 0.0,
                              "sourceCrop1" : 0.0,
                              "sourceCrop2" : 0.0,
                              "sourceCrop3" : 0.0,
                              "geometryCrop0" : 0.0,
                              "geometryCrop1" : 0.0,
                              "geometryCrop2" : 0.0,
                              "geometryCrop3" : 0.0,
                              "opacity" : {
                                "type" : "double",
                                "defaultValue" : 1.0,
                                "keyframes" : [
                                  {
                                    "endTime" : 552720000,
                                    "time" : 0,
                                    "value" : 1.0,
                                    "interp" : "eioe",
                                    "duration" : 552720000
                                  }
                                ]
                              },
                              "volume" : 1.0
                            },
                            "tracks" : [
                              {
                                "trackIndex" : 0,
                                "medias" : [
                                  {
                                    "id" : 174,
                                    "_type" : "Callout",
                                    "def" : {
                                      "kind" : "remix",
                                      "shape" : "shape-rectangle",
                                      "style" : "bold",
                                      "fill-color-blue" : 0.2196078431,
                                      "fill-color-green" : 0.8745098039,
                                      "fill-color-opacity" : 1.0,
                                      "fill-color-red" : 1.0,
                                      "hasDropShadow" : 0.0,
                                      "height" : 163.002035140991,
                                      "savedXScale" : 1.0,
                                      "savedYScale" : 1.0,
                                      "stroke-color-blue" : 1.0,
                                      "stroke-color-green" : 1.0,
                                      "stroke-color-opacity" : 1.0,
                                      "stroke-color-red" : 1.0,
                                      "stroke-width" : 0.0,
                                      "width" : 1403.00212860107,
                                      "custom" : "Y",
                                      "fill-style" : "solid",
                                      "stroke-style" : "solid"
                                    },
                                    "attributes" : {
                                      "ident" : "",
                                      "autoRotateText" : true
                                    },
                                    "parameters" : {
                                      "anchor0" : -1.0,
                                      "anchor1" : 2.0,
                                      "sourceCrop0" : 0.0,
                                      "sourceCrop1" : 0.0,
                                      "sourceCrop2" : 0.0,
                                      "sourceCrop3" : 0.0,
                                      "geometryCrop0" : 0.0,
                                      "geometryCrop1" : 0.0,
                                      "geometryCrop2" : 0.0,
                                      "geometryCrop3" : 0.0
                                    },
                                    "effects" : [

                                    ],
                                    "start" : 0,
                                    "duration" : 3528000000,
                                    "mediaStart" : 0,
                                    "mediaDuration" : 3528000000,
                                    "scalar" : 1,
                                    "metadata" : {
                                      "AppliedThemeId" : "",
                                      "clipSpeedAttribute" : false,
                                      "effectApplied" : "none",
                                      "lockAspectRatio" : false
                                    },
                                    "animationTracks" : {

                                    }
                                  }
                                ],
                                  "ident" : "",
                                  "audioMuted" : false,
                                  "videoHidden" : false,
                                  "magnetic" : false,
                                  "matte" : 0,
                                  "solo" : false,
                                  "metadata" : {
                                    "IsLocked" : "False",
                                    "WinTrackHeight" : "56",
                                    "trackHeight" : "54"
                                  }
                              },
                              {
                                "trackIndex" : 1,
                                "medias" : [
                                  {
                                    "id" : 175,
                                    "_type" : "Callout",
                                    "def" : {
                                      "kind" : "remix",
                                      "shape" : "shape-rectangle",
                                      "style" : "bold",
                                      "fill-color-blue" : 0.756862759590149,
                                      "fill-color-green" : 0.18823529779911,
                                      "fill-color-opacity" : 1.0,
                                      "fill-color-red" : 0.960784316062927,
                                      "hasDropShadow" : 0.0,
                                      "height" : 160.0,
                                      "savedXScale" : 1.0,
                                      "savedYScale" : 1.0,
                                      "stroke-color-blue" : 0.886274516582489,
                                      "stroke-color-green" : 0.200000002980232,
                                      "stroke-color-opacity" : 0.0,
                                      "stroke-color-red" : 0.376470595598221,
                                      "stroke-width" : 0.0,
                                      "width" : 1400.0,
                                      "custom" : "Y",
                                      "fill-style" : "solid",
                                      "stroke-style" : "solid"
                                    },
                                    "attributes" : {
                                      "ident" : "",
                                      "autoRotateText" : true
                                    },
                                    "parameters" : {
                                      "translation1" : {
                                        "type" : "double",
                                        "defaultValue" : -1.0,
                                        "keyframes" : [
                                          {
                                            "endTime" : 270480000,
                                            "time" : 0,
                                            "value" : 0.0,
                                            "duration" : 270480000
                                          }
                                        ]
                                      },
                                      "scale0" : {
                                        "type" : "double",
                                        "defaultValue" : 1.0,
                                        "keyframes" : [
                                          {
                                            "endTime" : 270480000,
                                            "time" : 0,
                                            "value" : 1.0,
                                            "duration" : 270480000
                                          }
                                        ]
                                      },
                                      "scale1" : {
                                        "type" : "double",
                                        "defaultValue" : 0.125,
                                        "keyframes" : [
                                          {
                                            "endTime" : 270480000,
                                            "time" : 0,
                                            "value" : 0.5,
                                            "duration" : 270480000
                                          },
                                          {
                                            "endTime" : 552720000,
                                            "time" : 282240000,
                                            "value" : 0.125,
                                            "duration" : 270480000
                                          }
                                        ]
                                      },
                                      "sourceCrop0" : 0.0,
                                      "sourceCrop1" : 0.0,
                                      "sourceCrop2" : 0.0,
                                      "sourceCrop3" : 0.0,
                                      "geometryCrop0" : 0.0,
                                      "geometryCrop1" : 0.0,
                                      "geometryCrop2" : 0.0,
                                      "geometryCrop3" : 0.0
                                    },
                                    "effects" : [

                                    ],
                                    "start" : 0,
                                    "duration" : 3528000000,
                                    "mediaStart" : 0,
                                    "mediaDuration" : 3528000000,
                                    "scalar" : 1,
                                    "metadata" : {
                                      "AppliedThemeId" : "",
                                      "clipSpeedAttribute" : false,
                                      "effectApplied" : "none"
                                    },
                                    "animationTracks" : {
                                      "visual" : [
                                        {
                                          "endTime" : 270480000,
                                          "duration" : 270480000,
                                          "range" : [ 0, 270480000]
                                        },
                                        {
                                          "endTime" : 552720000,
                                          "duration" : 270480000,
                                          "range" : [ 282240000, 270480000]
                                        }
                                      ]
                                    }
                                  }
                                ],
                                  "ident" : "",
                                  "audioMuted" : false,
                                  "videoHidden" : false,
                                  "magnetic" : false,
                                  "matte" : 1,
                                  "solo" : false,
                                  "metadata" : {
                                    "IsLocked" : "False",
                                    "WinTrackHeight" : "56",
                                    "trackHeight" : "54"
                                  }
                              }
                            ],
                            "attributes" : {
                              "ident" : "Animated-Pulse-1400x20-To-1400x80",
                              "widthAttr" : 1405.0,
                              "heightAttr" : 167.002,
                              "gain" : 1.0,
                              "mixToMono" : false,
                              "assetProperties" : [
                                {
                                  "type" : 1,
                                  "name" : "Color",
                                  "objects" : [ 174 ],
                                  "themeMappings" :  {
                                    "fill" : "accent-1"
                                  }
                                }
                              ]
                            },
                            "effects" : [

                            ],
                            "start" : 0,
                            "duration" : 3528000000,
                            "mediaStart" : 0.0,
                            "mediaDuration" : 3528000000.0,
                            "scalar" : 1,
                            "metadata" : {
                              "AppliedThemeId" : "8e797988-b823-4beb-b251-1d31b461ba07",
                              "clipSpeedAttribute" : false,
                              "effectApplied" : "none",
                              "isOpen" : false,
                              "lockAspectRatio" : true
                            },
                            "animationTracks" : {
                              "visual" : [
                                {
                                  "endTime" : 552720000,
                                  "duration" : 552720000,
                                  "range" : [ 0, 552720000],
                                  "interp" : "eioe"
                                },
                                {
                                  "endTime" : 1775760000,
                                  "duration" : 399840000,
                                  "range" : [ 1375920000, 399840000],
                                  "interp" : "eioe"
                                }
                              ]
                            }
                          }
                        ],
                          "ident" : "",
                          "audioMuted" : false,
                          "videoHidden" : false,
                          "magnetic" : false,
                          "matte" : 0,
                          "solo" : false,
                          "metadata" : {
                            "IsLocked" : "False",
                            "WinTrackHeight" : "56",
                            "trackHeight" : "54"
                          }
                      },
                      {
                        "trackIndex" : 3,
                        "medias" : [
                          {
                            "id" : 176,
                            "_type" : "Group",
                            "parameters" : {
                              "translation0" : {
                                "type" : "double",
                                "defaultValue" : 0.0,
                                "keyframes" : [
                                  {
                                    "endTime" : 552720000,
                                    "time" : 0,
                                    "value" : 0.0,
                                    "interp" : "eioe",
                                    "duration" : 552720000
                                  },
                                  {
                                    "endTime" : 1775760000,
                                    "time" : 1375920000,
                                    "value" : 0.0,
                                    "interp" : "eioe",
                                    "duration" : 399840000
                                  }
                                ]
                              },
                              "translation1" : {
                                "type" : "double",
                                "defaultValue" : -143.610046386719,
                                "keyframes" : [
                                  {
                                    "endTime" : 552720000,
                                    "time" : 0,
                                    "value" : 0.0,
                                    "interp" : "eioe",
                                    "duration" : 552720000
                                  },
                                  {
                                    "endTime" : 1775760000,
                                    "time" : 1375920000,
                                    "value" : -143.610046386719,
                                    "interp" : "eioe",
                                    "duration" : 399840000
                                  }
                                ]
                              },
                              "sourceCrop0" : 0.0,
                              "sourceCrop1" : 0.0,
                              "sourceCrop2" : 0.0,
                              "sourceCrop3" : 0.0,
                              "geometryCrop0" : 0.0,
                              "geometryCrop1" : 0.0,
                              "geometryCrop2" : 0.0,
                              "geometryCrop3" : 0.0,
                              "opacity" : {
                                "type" : "double",
                                "defaultValue" : 1.0,
                                "keyframes" : [
                                  {
                                    "endTime" : 552720000,
                                    "time" : 0,
                                    "value" : 1.0,
                                    "interp" : "eioe",
                                    "duration" : 552720000
                                  }
                                ]
                              },
                              "volume" : 1.0
                            },
                            "tracks" : [
                              {
                                "trackIndex" : 0,
                                "medias" : [
                                  {
                                    "id" : 177,
                                    "_type" : "Callout",
                                    "def" : {
                                      "kind" : "remix",
                                      "shape" : "shape-rectangle",
                                      "style" : "bold",
                                      "fill-color-blue" : 0.913725490196078,
                                      "fill-color-green" : 0.949019607843137,
                                      "fill-color-opacity" : 1.0,
                                      "fill-color-red" : 0.933333333333333,
                                      "hasDropShadow" : 0.0,
                                      "height" : 163.002035140991,
                                      "savedXScale" : 1.0,
                                      "savedYScale" : 1.0,
                                      "stroke-color-blue" : 1.0,
                                      "stroke-color-green" : 1.0,
                                      "stroke-color-opacity" : 1.0,
                                      "stroke-color-red" : 1.0,
                                      "stroke-width" : 0.0,
                                      "width" : 1403.00212860107,
                                      "custom" : "Y",
                                      "fill-style" : "solid",
                                      "stroke-style" : "solid"
                                    },
                                    "attributes" : {
                                      "ident" : "",
                                      "autoRotateText" : true
                                    },
                                    "parameters" : {
                                      "anchor0" : -1.0,
                                      "anchor1" : 2.0,
                                      "sourceCrop0" : 0.0,
                                      "sourceCrop1" : 0.0,
                                      "sourceCrop2" : 0.0,
                                      "sourceCrop3" : 0.0,
                                      "geometryCrop0" : 0.0,
                                      "geometryCrop1" : 0.0,
                                      "geometryCrop2" : 0.0,
                                      "geometryCrop3" : 0.0
                                    },
                                    "effects" : [

                                    ],
                                    "start" : 0,
                                    "duration" : 3528000000,
                                    "mediaStart" : 0,
                                    "mediaDuration" : 3528000000,
                                    "scalar" : 1,
                                    "metadata" : {
                                      "AppliedThemeId" : "",
                                      "clipSpeedAttribute" : false,
                                      "effectApplied" : "none",
                                      "lockAspectRatio" : false
                                    },
                                    "animationTracks" : {

                                    }
                                  }
                                ],
                                  "ident" : "",
                                  "audioMuted" : false,
                                  "videoHidden" : false,
                                  "magnetic" : false,
                                  "matte" : 0,
                                  "solo" : false,
                                  "metadata" : {
                                    "IsLocked" : "False",
                                    "WinTrackHeight" : "56",
                                    "trackHeight" : "54"
                                  }
                              },
                              {
                                "trackIndex" : 1,
                                "medias" : [
                                  {
                                    "id" : 178,
                                    "_type" : "Callout",
                                    "def" : {
                                      "kind" : "remix",
                                      "shape" : "shape-rectangle",
                                      "style" : "bold",
                                      "fill-color-blue" : 0.756862759590149,
                                      "fill-color-green" : 0.18823529779911,
                                      "fill-color-opacity" : 1.0,
                                      "fill-color-red" : 0.960784316062927,
                                      "hasDropShadow" : 0.0,
                                      "height" : 160.0,
                                      "savedXScale" : 1.0,
                                      "savedYScale" : 1.0,
                                      "stroke-color-blue" : 0.886274516582489,
                                      "stroke-color-green" : 0.200000002980232,
                                      "stroke-color-opacity" : 0.0,
                                      "stroke-color-red" : 0.376470595598221,
                                      "stroke-width" : 0.0,
                                      "width" : 1400.0,
                                      "custom" : "Y",
                                      "fill-style" : "solid",
                                      "stroke-style" : "solid"
                                    },
                                    "attributes" : {
                                      "ident" : "",
                                      "autoRotateText" : true
                                    },
                                    "parameters" : {
                                      "sourceCrop0" : 0.0,
                                      "sourceCrop1" : 0.0,
                                      "sourceCrop2" : 0.0,
                                      "sourceCrop3" : 0.0,
                                      "geometryCrop0" : 0.0,
                                      "geometryCrop1" : 0.0,
                                      "geometryCrop2" : 0.0,
                                      "geometryCrop3" : 0.0
                                    },
                                    "effects" : [

                                    ],
                                    "start" : 0,
                                    "duration" : 3528000000,
                                    "mediaStart" : 0,
                                    "mediaDuration" : 3528000000,
                                    "scalar" : 1,
                                    "metadata" : {
                                      "AppliedThemeId" : "",
                                      "clipSpeedAttribute" : false,
                                      "effectApplied" : "none"
                                    },
                                    "animationTracks" : {

                                    }
                                  }
                                ],
                                  "ident" : "",
                                  "audioMuted" : false,
                                  "videoHidden" : false,
                                  "magnetic" : false,
                                  "matte" : 1,
                                  "solo" : false,
                                  "metadata" : {
                                    "IsLocked" : "False",
                                    "WinTrackHeight" : "56",
                                    "trackHeight" : "54"
                                  }
                              }
                            ],
                            "attributes" : {
                              "ident" : "Rect-1400x1600-Mask",
                              "widthAttr" : 1405.0,
                              "heightAttr" : 167.002,
                              "gain" : 1.0,
                              "mixToMono" : false
                            },
                            "effects" : [

                            ],
                            "start" : 0,
                            "duration" : 3528000000,
                            "mediaStart" : 0.0,
                            "mediaDuration" : 3528000000.0,
                            "scalar" : 1,
                            "metadata" : {
                              "clipSpeedAttribute" : false,
                              "effectApplied" : "none",
                              "isOpen" : false,
                              "lockAspectRatio" : true
                            },
                            "animationTracks" : {
                              "visual" : [
                                {
                                  "endTime" : 552720000,
                                  "duration" : 552720000,
                                  "range" : [ 0, 552720000],
                                  "interp" : "eioe"
                                },
                                {
                                  "endTime" : 1775760000,
                                  "duration" : 399840000,
                                  "range" : [ 1375920000, 399840000],
                                  "interp" : "eioe"
                                }
                              ]
                            }
                          }
                        ],
                          "ident" : "",
                          "audioMuted" : false,
                          "videoHidden" : false,
                          "magnetic" : false,
                          "matte" : 1,
                          "solo" : false,
                          "metadata" : {
                            "IsLocked" : "False",
                            "WinTrackHeight" : "56",
                            "trackHeight" : "54"
                          }
                      }
                    ],
                    "attributes" : {
                      "ident" : "Broadcast-Title-012",
                      "widthAttr" : 1405.0,
                      "heightAttr" : 160.0,
                      "gain" : 1.0,
                      "mixToMono" : false,
                      "assetProperties" : [
                        {
                          "type" : 0,
                          "name" : "Title",
                          "objects" : [ 169 ],
                          "themeMappings" :  {
                            "font-color" : "foreground-1"
                          }
                        },
                        {
                          "type" : 1,
                          "name" : "Fill",
                          "objects" : [ 167 ],
                          "themeMappings" :  {
                            "fill" : "background-1"
                          }
                        },
                        {
                          "type" : 1,
                          "name" : "Wiper",
                          "objects" : [ 174 ],
                          "themeMappings" :  {
                            "fill" : "foreground-1"
                          }
                        }
                      ]
                    },
                    "effects" : [

                    ],
                    "start" : 1928640000,
                    "duration" : 1764000000,
                    "mediaStart" : 0.0,
                    "mediaDuration" : 1764000000.0,
                    "scalar" : 1,
                    "metadata" : {
                      "AppliedThemeId" : "170ba59c-db5d-4b9a-a310-e7e99853a4b7",
                      "clipSpeedAttribute" : false,
                      "default-anchor0" : 0.0,
                      "default-anchor1" : 0.0,
                      "default-anchor2" : 0.0,
                      "default-geometryCrop0" : 0.0,
                      "default-height" : 160.0,
                      "default-rotation0" : 0.0,
                      "default-rotation1" : 0.0,
                      "default-rotation2" : 0.0,
                      "default-scale0" : 1.0,
                      "default-scale1" : 1.0,
                      "default-scale2" : 1.0,
                      "default-shear0" : 0.0,
                      "default-shear1" : 0.0,
                      "default-shear2" : 0.0,
                      "default-translation0" : 0.0,
                      "default-translation1" : 0.0,
                      "default-translation2" : 0.0,
                      "default-width" : 1405.0,
                      "effectApplied" : "none",
                      "isOpen" : false,
                      "lockAspectRatio" : true
                    },
                    "animationTracks" : {

                    }
                  }
                ]
              },
              {
                "trackIndex" : 98,
                "medias" : [
                  {
                    "id" : 179,
                    "_type" : "Group",
                    "parameters" : {
                      "translation0" : 350.0,
                      "translation1" : -150.0,
                      "scale0" : 0.213523131672598,
                      "scale1" : 0.21875,
                      "sourceCrop0" : 0.0,
                      "sourceCrop1" : 0.0,
                      "sourceCrop2" : 0.0,
                      "sourceCrop3" : 0.0,
                      "geometryCrop0" : 0.0,
                      "geometryCrop1" : 0.0,
                      "geometryCrop2" : 0.0,
                      "geometryCrop3" : 0.0,
                      "volume" : 1.0
                    },
                    "tracks" : [
                      {
                        "trackIndex" : 0,
                        "medias" : [
                          {
                            "id" : 180,
                            "_type" : "Group",
                            "parameters" : {
                              "translation0" : {
                                "type" : "double",
                                "defaultValue" : 0.0,
                                "keyframes" : [
                                  {
                                    "endTime" : 552720000,
                                    "time" : 0,
                                    "value" : 0.0,
                                    "interp" : "eioe",
                                    "duration" : 552720000
                                  },
                                  {
                                    "endTime" : 1775760000,
                                    "time" : 1375920000,
                                    "value" : 0.0,
                                    "interp" : "eioe",
                                    "duration" : 399840000
                                  }
                                ]
                              },
                              "translation1" : {
                                "type" : "double",
                                "defaultValue" : -305.610046386719,
                                "keyframes" : [
                                  {
                                    "endTime" : 552720000,
                                    "time" : 0,
                                    "value" : 0.0,
                                    "interp" : "eioe",
                                    "duration" : 552720000
                                  },
                                  {
                                    "endTime" : 1775760000,
                                    "time" : 1375920000,
                                    "value" : -304.610046386719,
                                    "interp" : "eioe",
                                    "duration" : 399840000
                                  }
                                ]
                              },
                              "sourceCrop0" : 0.0,
                              "sourceCrop1" : 0.0,
                              "sourceCrop2" : 0.0,
                              "sourceCrop3" : 0.0,
                              "geometryCrop0" : 0.0,
                              "geometryCrop1" : 0.0,
                              "geometryCrop2" : 0.0,
                              "geometryCrop3" : 0.0,
                              "volume" : 1.0
                            },
                            "tracks" : [
                              {
                                "trackIndex" : 0,
                                "medias" : [
                                  {
                                    "id" : 181,
                                    "_type" : "Group",
                                    "parameters" : {
                                      "sourceCrop0" : 0.0,
                                      "sourceCrop1" : 0.0,
                                      "sourceCrop2" : 0.0,
                                      "sourceCrop3" : 0.0,
                                      "geometryCrop0" : 0.0,
                                      "geometryCrop1" : 0.0,
                                      "geometryCrop2" : 0.0,
                                      "geometryCrop3" : 0.0,
                                      "volume" : 1.0
                                    },
                                    "tracks" : [
                                      {
                                        "trackIndex" : 0,
                                        "medias" : [
                                          {
                                            "id" : 182,
                                            "_type" : "Callout",
                                            "def" : {
                                              "kind" : "remix",
                                              "shape" : "shape-rectangle",
                                              "style" : "bold",
                                              "fill-color-blue" : 1.0,
                                              "fill-color-green" : 1.0,
                                              "fill-color-opacity" : 1.0,
                                              "fill-color-red" : 1.0,
                                              "hasDropShadow" : 0.0,
                                              "height" : 163.002035140991,
                                              "savedXScale" : 1.0,
                                              "savedYScale" : 1.0,
                                              "stroke-color-blue" : 1.0,
                                              "stroke-color-green" : 1.0,
                                              "stroke-color-opacity" : 1.0,
                                              "stroke-color-red" : 1.0,
                                              "stroke-width" : 0.0,
                                              "width" : 1403.00212860107,
                                              "custom" : "Y",
                                              "fill-style" : "solid",
                                              "stroke-style" : "solid"
                                            },
                                            "attributes" : {
                                              "ident" : "",
                                              "autoRotateText" : true
                                            },
                                            "parameters" : {
                                              "anchor0" : -1.0,
                                              "anchor1" : 2.0,
                                              "sourceCrop0" : 0.0,
                                              "sourceCrop1" : 0.0,
                                              "sourceCrop2" : 0.0,
                                              "sourceCrop3" : 0.0,
                                              "geometryCrop0" : 0.0,
                                              "geometryCrop1" : 0.0,
                                              "geometryCrop2" : 0.0,
                                              "geometryCrop3" : 0.0
                                            },
                                            "effects" : [

                                            ],
                                            "start" : 0,
                                            "duration" : 3528000000,
                                            "mediaStart" : 0,
                                            "mediaDuration" : 3528000000,
                                            "scalar" : 1,
                                            "metadata" : {
                                              "AppliedThemeId" : "",
                                              "clipSpeedAttribute" : false,
                                              "effectApplied" : "none",
                                              "lockAspectRatio" : false
                                            },
                                            "animationTracks" : {

                                            }
                                          }
                                        ],
                                          "ident" : "",
                                          "audioMuted" : false,
                                          "videoHidden" : false,
                                          "magnetic" : false,
                                          "matte" : 0,
                                          "solo" : false,
                                          "metadata" : {
                                            "IsLocked" : "False",
                                            "WinTrackHeight" : "56",
                                            "trackHeight" : "54"
                                          }
                                      },
                                      {
                                        "trackIndex" : 1,
                                        "medias" : [
                                          {
                                            "id" : 183,
                                            "_type" : "Callout",
                                            "def" : {
                                              "kind" : "remix",
                                              "shape" : "shape-rectangle",
                                              "style" : "bold",
                                              "fill-color-blue" : 0.756862759590149,
                                              "fill-color-green" : 0.18823529779911,
                                              "fill-color-opacity" : 1.0,
                                              "fill-color-red" : 0.960784316062927,
                                              "hasDropShadow" : 0.0,
                                              "height" : 160.0,
                                              "savedXScale" : 1.0,
                                              "savedYScale" : 1.0,
                                              "stroke-color-blue" : 0.886274516582489,
                                              "stroke-color-green" : 0.200000002980232,
                                              "stroke-color-opacity" : 0.0,
                                              "stroke-color-red" : 0.376470595598221,
                                              "stroke-width" : 0.0,
                                              "width" : 1400.0,
                                              "custom" : "Y",
                                              "fill-style" : "solid",
                                              "stroke-style" : "solid"
                                            },
                                            "attributes" : {
                                              "ident" : "",
                                              "autoRotateText" : true
                                            },
                                            "parameters" : {
                                              "sourceCrop0" : 0.0,
                                              "sourceCrop1" : 0.0,
                                              "sourceCrop2" : 0.0,
                                              "sourceCrop3" : 0.0,
                                              "geometryCrop0" : 0.0,
                                              "geometryCrop1" : 0.0,
                                              "geometryCrop2" : 0.0,
                                              "geometryCrop3" : 0.0
                                            },
                                            "effects" : [

                                            ],
                                            "start" : 0,
                                            "duration" : 3528000000,
                                            "mediaStart" : 0,
                                            "mediaDuration" : 3528000000,
                                            "scalar" : 1,
                                            "metadata" : {
                                              "AppliedThemeId" : "",
                                              "clipSpeedAttribute" : false,
                                              "effectApplied" : "none"
                                            },
                                            "animationTracks" : {

                                            }
                                          }
                                        ],
                                          "ident" : "",
                                          "audioMuted" : false,
                                          "videoHidden" : false,
                                          "magnetic" : false,
                                          "matte" : 1,
                                          "solo" : false,
                                          "metadata" : {
                                            "IsLocked" : "False",
                                            "WinTrackHeight" : "56",
                                            "trackHeight" : "54"
                                          }
                                      }
                                    ],
                                    "attributes" : {
                                      "ident" : "Fill-1400x160",
                                      "widthAttr" : 1405.0,
                                      "heightAttr" : 167.002,
                                      "gain" : 1.0,
                                      "mixToMono" : false
                                    },
                                    "effects" : [

                                    ],
                                    "start" : 0,
                                    "duration" : 3528000000,
                                    "mediaStart" : 0.0,
                                    "mediaDuration" : 3528000000.0,
                                    "scalar" : 1,
                                    "metadata" : {
                                      "clipSpeedAttribute" : false,
                                      "effectApplied" : "none",
                                      "isOpen" : false,
                                      "lockAspectRatio" : true
                                    },
                                    "animationTracks" : {

                                    }
                                  }
                                ],
                                  "ident" : "",
                                  "audioMuted" : false,
                                  "videoHidden" : false,
                                  "magnetic" : false,
                                  "matte" : 0,
                                  "solo" : false,
                                  "metadata" : {
                                    "IsLocked" : "False",
                                    "WinTrackHeight" : "56",
                                    "trackHeight" : "54"
                                  }
                              },
                              {
                                "trackIndex" : 1,
                                "medias" : [
                                  {
                                    "id" : 184,
                                    "_type" : "Callout",
                                    "def" : {
                                      "kind" : "remix",
                                      "shape" : "text",
                                      "style" : "urban",
                                      "enable-ligatures" : 1.0,
                                      "hasDropShadow" : 0.0,
                                      "height" : 170.0,
                                      "line-spacing" : 0.0,
                                      "savedXScale" : 1.0,
                                      "savedYScale" : 1.0,
                                      "width" : 1400.0,
                                      "word-wrap" : 1.0,
                                      "custom" : "Y",
                                      "horizontal-alignment" : "left",
                                      "resize-behavior" : "resizeText",
                                      "text" : "clear notes from cells",
                                      "vertical-alignment" : "center",
                                      "font" : {
                                        "color-blue" : 1.0,
                                        "color-green" : 1.0,
                                        "color-red" : 1.0,
                                        "size" : 96.0,
                                        "tracking" : 0.0,
                                        "name" : "Dosis",
                                        "weight" : "Semi Bold"
                                      },
                                      "textAttributes" : {
                                        "type" : "textAttributeList",
                                        "keyframes" : [
                                          {
                                            "endTime" : 0,
                                            "time" : 0,
                                            "value" : [{"name":"underline","rangeEnd":22,"rangeStart":0,"value":0,"valueType":"int"},{"name":"strikethrough","rangeEnd":22,"rangeStart":0,"value":0,"valueType":"int"},{"name":"fontName","rangeEnd":22,"rangeStart":0,"value":"Roboto","valueType":"string"},{"name":"kerning","rangeEnd":22,"rangeStart":0,"value":0.049883078231292483,"valueType":"double"},{"name":"fontItalic","rangeEnd":22,"rangeStart":0,"value":0,"valueType":"int"},{"name":"fontWeight","rangeEnd":22,"rangeStart":0,"value":700,"valueType":"int"},{"name":"fontSize","rangeEnd":22,"rangeStart":0,"value":86,"valueType":"double"},{"name":"fgColor","rangeEnd":22,"rangeStart":0,"value":"(110,110,110,255)","valueType":"color"}],
                                            "duration" : 0
                                          }
                                        ]
                                      }
                                    },
                                    "attributes" : {
                                      "ident" : "",
                                      "autoRotateText" : true
                                    },
                                    "parameters" : {
                                      "translation1" : -2.0,
                                      "sourceCrop0" : 0.0,
                                      "sourceCrop1" : 0.0,
                                      "sourceCrop2" : 0.0,
                                      "sourceCrop3" : 0.0,
                                      "geometryCrop0" : 0.0,
                                      "geometryCrop1" : 0.0,
                                      "geometryCrop2" : 0.0,
                                      "geometryCrop3" : 0.0
                                    },
                                    "effects" : [

                                    ],
                                    "start" : 0,
                                    "duration" : 3528000000,
                                    "mediaStart" : 0,
                                    "mediaDuration" : 3528000000,
                                    "scalar" : 1,
                                    "metadata" : {
                                      "AppliedThemeId" : "",
                                      "clipSpeedAttribute" : false,
                                      "effectApplied" : "none",
                                      "lockAspectRatio" : false
                                    },
                                    "animationTracks" : {

                                    }
                                  }
                                ],
                                  "ident" : "",
                                  "audioMuted" : false,
                                  "videoHidden" : false,
                                  "magnetic" : false,
                                  "matte" : 0,
                                  "solo" : false,
                                  "metadata" : {
                                    "IsLocked" : "False",
                                    "WinTrackHeight" : "56",
                                    "trackHeight" : "54"
                                  }
                              }
                            ],
                            "attributes" : {
                              "ident" : "BP-Title-11",
                              "widthAttr" : 1405.0,
                              "heightAttr" : 167.002,
                              "gain" : 1.0,
                              "mixToMono" : false,
                              "assetProperties" : [
                                {
                                  "type" : 0,
                                  "name" : "Title",
                                  "objects" : [ 184 ],
                                  "themeMappings" :  {
                                    "font-color" : "foreground-1"
                                  }
                                },
                                {
                                  "type" : 1,
                                  "name" : "Fill",
                                  "objects" : [ 182 ],
                                  "themeMappings" :  {
                                    "fill" : "background-1"
                                  }
                                }
                              ]
                            },
                            "effects" : [

                            ],
                            "start" : 0,
                            "duration" : 3528000000,
                            "mediaStart" : 0.0,
                            "mediaDuration" : 3528000000.0,
                            "scalar" : 1,
                            "metadata" : {
                              "clipSpeedAttribute" : false,
                              "effectApplied" : "none",
                              "isOpen" : false,
                              "lockAspectRatio" : true
                            },
                            "animationTracks" : {
                              "visual" : [
                                {
                                  "endTime" : 552720000,
                                  "duration" : 552720000,
                                  "range" : [ 0, 552720000],
                                  "interp" : "eioe"
                                },
                                {
                                  "endTime" : 1775760000,
                                  "duration" : 399840000,
                                  "range" : [ 1375920000, 399840000],
                                  "interp" : "eioe"
                                }
                              ]
                            }
                          }
                        ],
                          "ident" : "",
                          "audioMuted" : false,
                          "videoHidden" : false,
                          "magnetic" : false,
                          "matte" : 0,
                          "solo" : false,
                          "metadata" : {
                            "IsLocked" : "False",
                            "WinTrackHeight" : "56",
                            "trackHeight" : "54"
                          }
                      },
                      {
                        "trackIndex" : 1,
                        "medias" : [
                          {
                            "id" : 185,
                            "_type" : "Group",
                            "parameters" : {
                              "translation0" : {
                                "type" : "double",
                                "defaultValue" : 0.0,
                                "keyframes" : [
                                  {
                                    "endTime" : 552720000,
                                    "time" : 0,
                                    "value" : 0.0,
                                    "interp" : "eioe",
                                    "duration" : 552720000
                                  },
                                  {
                                    "endTime" : 1775760000,
                                    "time" : 1375920000,
                                    "value" : 0.0,
                                    "interp" : "eioe",
                                    "duration" : 399840000
                                  }
                                ]
                              },
                              "translation1" : {
                                "type" : "double",
                                "defaultValue" : -144.610046386719,
                                "keyframes" : [
                                  {
                                    "endTime" : 552720000,
                                    "time" : 0,
                                    "value" : 0.0,
                                    "interp" : "eioe",
                                    "duration" : 552720000
                                  },
                                  {
                                    "endTime" : 1775760000,
                                    "time" : 1375920000,
                                    "value" : -144.610046386719,
                                    "interp" : "eioe",
                                    "duration" : 399840000
                                  }
                                ]
                              },
                              "sourceCrop0" : 0.0,
                              "sourceCrop1" : 0.0,
                              "sourceCrop2" : 0.0,
                              "sourceCrop3" : 0.0,
                              "geometryCrop0" : 0.0,
                              "geometryCrop1" : 0.0,
                              "geometryCrop2" : 0.0,
                              "geometryCrop3" : 0.0,
                              "opacity" : {
                                "type" : "double",
                                "defaultValue" : 1.0,
                                "keyframes" : [
                                  {
                                    "endTime" : 552720000,
                                    "time" : 0,
                                    "value" : 1.0,
                                    "interp" : "eioe",
                                    "duration" : 552720000
                                  }
                                ]
                              },
                              "volume" : 1.0
                            },
                            "tracks" : [
                              {
                                "trackIndex" : 0,
                                "medias" : [
                                  {
                                    "id" : 186,
                                    "_type" : "Callout",
                                    "def" : {
                                      "kind" : "remix",
                                      "shape" : "shape-rectangle",
                                      "style" : "bold",
                                      "fill-color-blue" : 0.913725490196078,
                                      "fill-color-green" : 0.949019607843137,
                                      "fill-color-opacity" : 1.0,
                                      "fill-color-red" : 0.933333333333333,
                                      "hasDropShadow" : 0.0,
                                      "height" : 163.002035140991,
                                      "savedXScale" : 1.0,
                                      "savedYScale" : 1.0,
                                      "stroke-color-blue" : 1.0,
                                      "stroke-color-green" : 1.0,
                                      "stroke-color-opacity" : 1.0,
                                      "stroke-color-red" : 1.0,
                                      "stroke-width" : 0.0,
                                      "width" : 1403.00212860107,
                                      "custom" : "Y",
                                      "fill-style" : "solid",
                                      "stroke-style" : "solid"
                                    },
                                    "attributes" : {
                                      "ident" : "",
                                      "autoRotateText" : true
                                    },
                                    "parameters" : {
                                      "anchor0" : -1.0,
                                      "anchor1" : 2.0,
                                      "sourceCrop0" : 0.0,
                                      "sourceCrop1" : 0.0,
                                      "sourceCrop2" : 0.0,
                                      "sourceCrop3" : 0.0,
                                      "geometryCrop0" : 0.0,
                                      "geometryCrop1" : 0.0,
                                      "geometryCrop2" : 0.0,
                                      "geometryCrop3" : 0.0
                                    },
                                    "effects" : [

                                    ],
                                    "start" : 0,
                                    "duration" : 3528000000,
                                    "mediaStart" : 0,
                                    "mediaDuration" : 3528000000,
                                    "scalar" : 1,
                                    "metadata" : {
                                      "AppliedThemeId" : "",
                                      "clipSpeedAttribute" : false,
                                      "effectApplied" : "none",
                                      "lockAspectRatio" : false
                                    },
                                    "animationTracks" : {

                                    }
                                  }
                                ],
                                  "ident" : "",
                                  "audioMuted" : false,
                                  "videoHidden" : false,
                                  "magnetic" : false,
                                  "matte" : 0,
                                  "solo" : false,
                                  "metadata" : {
                                    "IsLocked" : "False",
                                    "WinTrackHeight" : "56",
                                    "trackHeight" : "54"
                                  }
                              },
                              {
                                "trackIndex" : 1,
                                "medias" : [
                                  {
                                    "id" : 187,
                                    "_type" : "Callout",
                                    "def" : {
                                      "kind" : "remix",
                                      "shape" : "shape-rectangle",
                                      "style" : "bold",
                                      "fill-color-blue" : 0.756862759590149,
                                      "fill-color-green" : 0.18823529779911,
                                      "fill-color-opacity" : 1.0,
                                      "fill-color-red" : 0.960784316062927,
                                      "hasDropShadow" : 0.0,
                                      "height" : 160.0,
                                      "savedXScale" : 1.0,
                                      "savedYScale" : 1.0,
                                      "stroke-color-blue" : 0.886274516582489,
                                      "stroke-color-green" : 0.200000002980232,
                                      "stroke-color-opacity" : 0.0,
                                      "stroke-color-red" : 0.376470595598221,
                                      "stroke-width" : 0.0,
                                      "width" : 1400.0,
                                      "custom" : "Y",
                                      "fill-style" : "solid",
                                      "stroke-style" : "solid"
                                    },
                                    "attributes" : {
                                      "ident" : "",
                                      "autoRotateText" : true
                                    },
                                    "parameters" : {
                                      "sourceCrop0" : 0.0,
                                      "sourceCrop1" : 0.0,
                                      "sourceCrop2" : 0.0,
                                      "sourceCrop3" : 0.0,
                                      "geometryCrop0" : 0.0,
                                      "geometryCrop1" : 0.0,
                                      "geometryCrop2" : 0.0,
                                      "geometryCrop3" : 0.0
                                    },
                                    "effects" : [

                                    ],
                                    "start" : 0,
                                    "duration" : 3528000000,
                                    "mediaStart" : 0,
                                    "mediaDuration" : 3528000000,
                                    "scalar" : 1,
                                    "metadata" : {
                                      "AppliedThemeId" : "",
                                      "clipSpeedAttribute" : false,
                                      "effectApplied" : "none"
                                    },
                                    "animationTracks" : {

                                    }
                                  }
                                ],
                                  "ident" : "",
                                  "audioMuted" : false,
                                  "videoHidden" : false,
                                  "magnetic" : false,
                                  "matte" : 1,
                                  "solo" : false,
                                  "metadata" : {
                                    "IsLocked" : "False",
                                    "WinTrackHeight" : "56",
                                    "trackHeight" : "54"
                                  }
                              }
                            ],
                            "attributes" : {
                              "ident" : "Rect-1400x1600-Mask",
                              "widthAttr" : 1405.0,
                              "heightAttr" : 167.002,
                              "gain" : 1.0,
                              "mixToMono" : false
                            },
                            "effects" : [

                            ],
                            "start" : 0,
                            "duration" : 3528000000,
                            "mediaStart" : 0.0,
                            "mediaDuration" : 3528000000.0,
                            "scalar" : 1,
                            "metadata" : {
                              "clipSpeedAttribute" : false,
                              "effectApplied" : "none",
                              "isOpen" : false,
                              "lockAspectRatio" : true
                            },
                            "animationTracks" : {
                              "visual" : [
                                {
                                  "endTime" : 552720000,
                                  "duration" : 552720000,
                                  "range" : [ 0, 552720000],
                                  "interp" : "eioe"
                                },
                                {
                                  "endTime" : 1775760000,
                                  "duration" : 399840000,
                                  "range" : [ 1375920000, 399840000],
                                  "interp" : "eioe"
                                }
                              ]
                            }
                          }
                        ],
                          "ident" : "",
                          "audioMuted" : false,
                          "videoHidden" : false,
                          "magnetic" : false,
                          "matte" : 1,
                          "solo" : false,
                          "metadata" : {
                            "IsLocked" : "False",
                            "WinTrackHeight" : "56",
                            "trackHeight" : "54"
                          }
                      },
                      {
                        "trackIndex" : 2,
                        "medias" : [
                          {
                            "id" : 188,
                            "_type" : "Group",
                            "parameters" : {
                              "translation0" : {
                                "type" : "double",
                                "defaultValue" : 0.0,
                                "keyframes" : [
                                  {
                                    "endTime" : 552720000,
                                    "time" : 0,
                                    "value" : 0.0,
                                    "interp" : "eioe",
                                    "duration" : 552720000
                                  },
                                  {
                                    "endTime" : 1775760000,
                                    "time" : 1375920000,
                                    "value" : 0.0,
                                    "interp" : "eioe",
                                    "duration" : 399840000
                                  }
                                ]
                              },
                              "translation1" : {
                                "type" : "double",
                                "defaultValue" : -233.610046386719,
                                "keyframes" : [
                                  {
                                    "endTime" : 552720000,
                                    "time" : 0,
                                    "value" : 90.0,
                                    "interp" : "eioe",
                                    "duration" : 552720000
                                  },
                                  {
                                    "endTime" : 1775760000,
                                    "time" : 1375920000,
                                    "value" : -233.610046386719,
                                    "interp" : "eioe",
                                    "duration" : 399840000
                                  }
                                ]
                              },
                              "sourceCrop0" : 0.0,
                              "sourceCrop1" : 0.0,
                              "sourceCrop2" : 0.0,
                              "sourceCrop3" : 0.0,
                              "geometryCrop0" : 0.0,
                              "geometryCrop1" : 0.0,
                              "geometryCrop2" : 0.0,
                              "geometryCrop3" : 0.0,
                              "opacity" : {
                                "type" : "double",
                                "defaultValue" : 1.0,
                                "keyframes" : [
                                  {
                                    "endTime" : 552720000,
                                    "time" : 0,
                                    "value" : 1.0,
                                    "interp" : "eioe",
                                    "duration" : 552720000
                                  }
                                ]
                              },
                              "volume" : 1.0
                            },
                            "tracks" : [
                              {
                                "trackIndex" : 0,
                                "medias" : [
                                  {
                                    "id" : 189,
                                    "_type" : "Callout",
                                    "def" : {
                                      "kind" : "remix",
                                      "shape" : "shape-rectangle",
                                      "style" : "bold",
                                      "fill-color-blue" : 0.2196078431,
                                      "fill-color-green" : 0.8745098039,
                                      "fill-color-opacity" : 1.0,
                                      "fill-color-red" : 1.0,
                                      "hasDropShadow" : 0.0,
                                      "height" : 163.002035140991,
                                      "savedXScale" : 1.0,
                                      "savedYScale" : 1.0,
                                      "stroke-color-blue" : 1.0,
                                      "stroke-color-green" : 1.0,
                                      "stroke-color-opacity" : 1.0,
                                      "stroke-color-red" : 1.0,
                                      "stroke-width" : 0.0,
                                      "width" : 1403.00212860107,
                                      "custom" : "Y",
                                      "fill-style" : "solid",
                                      "stroke-style" : "solid"
                                    },
                                    "attributes" : {
                                      "ident" : "",
                                      "autoRotateText" : true
                                    },
                                    "parameters" : {
                                      "anchor0" : -1.0,
                                      "anchor1" : 2.0,
                                      "sourceCrop0" : 0.0,
                                      "sourceCrop1" : 0.0,
                                      "sourceCrop2" : 0.0,
                                      "sourceCrop3" : 0.0,
                                      "geometryCrop0" : 0.0,
                                      "geometryCrop1" : 0.0,
                                      "geometryCrop2" : 0.0,
                                      "geometryCrop3" : 0.0
                                    },
                                    "effects" : [

                                    ],
                                    "start" : 0,
                                    "duration" : 3528000000,
                                    "mediaStart" : 0,
                                    "mediaDuration" : 3528000000,
                                    "scalar" : 1,
                                    "metadata" : {
                                      "AppliedThemeId" : "",
                                      "clipSpeedAttribute" : false,
                                      "effectApplied" : "none",
                                      "lockAspectRatio" : false
                                    },
                                    "animationTracks" : {

                                    }
                                  }
                                ],
                                  "ident" : "",
                                  "audioMuted" : false,
                                  "videoHidden" : false,
                                  "magnetic" : false,
                                  "matte" : 0,
                                  "solo" : false,
                                  "metadata" : {
                                    "IsLocked" : "False",
                                    "WinTrackHeight" : "56",
                                    "trackHeight" : "54"
                                  }
                              },
                              {
                                "trackIndex" : 1,
                                "medias" : [
                                  {
                                    "id" : 190,
                                    "_type" : "Callout",
                                    "def" : {
                                      "kind" : "remix",
                                      "shape" : "shape-rectangle",
                                      "style" : "bold",
                                      "fill-color-blue" : 0.756862759590149,
                                      "fill-color-green" : 0.18823529779911,
                                      "fill-color-opacity" : 1.0,
                                      "fill-color-red" : 0.960784316062927,
                                      "hasDropShadow" : 0.0,
                                      "height" : 160.0,
                                      "savedXScale" : 1.0,
                                      "savedYScale" : 1.0,
                                      "stroke-color-blue" : 0.886274516582489,
                                      "stroke-color-green" : 0.200000002980232,
                                      "stroke-color-opacity" : 0.0,
                                      "stroke-color-red" : 0.376470595598221,
                                      "stroke-width" : 0.0,
                                      "width" : 1400.0,
                                      "custom" : "Y",
                                      "fill-style" : "solid",
                                      "stroke-style" : "solid"
                                    },
                                    "attributes" : {
                                      "ident" : "",
                                      "autoRotateText" : true
                                    },
                                    "parameters" : {
                                      "translation1" : {
                                        "type" : "double",
                                        "defaultValue" : -1.0,
                                        "keyframes" : [
                                          {
                                            "endTime" : 270480000,
                                            "time" : 0,
                                            "value" : 0.0,
                                            "duration" : 270480000
                                          }
                                        ]
                                      },
                                      "scale0" : {
                                        "type" : "double",
                                        "defaultValue" : 1.0,
                                        "keyframes" : [
                                          {
                                            "endTime" : 270480000,
                                            "time" : 0,
                                            "value" : 1.0,
                                            "duration" : 270480000
                                          }
                                        ]
                                      },
                                      "scale1" : {
                                        "type" : "double",
                                        "defaultValue" : 0.125,
                                        "keyframes" : [
                                          {
                                            "endTime" : 270480000,
                                            "time" : 0,
                                            "value" : 0.5,
                                            "duration" : 270480000
                                          },
                                          {
                                            "endTime" : 552720000,
                                            "time" : 282240000,
                                            "value" : 0.125,
                                            "duration" : 270480000
                                          }
                                        ]
                                      },
                                      "sourceCrop0" : 0.0,
                                      "sourceCrop1" : 0.0,
                                      "sourceCrop2" : 0.0,
                                      "sourceCrop3" : 0.0,
                                      "geometryCrop0" : 0.0,
                                      "geometryCrop1" : 0.0,
                                      "geometryCrop2" : 0.0,
                                      "geometryCrop3" : 0.0
                                    },
                                    "effects" : [

                                    ],
                                    "start" : 0,
                                    "duration" : 3528000000,
                                    "mediaStart" : 0,
                                    "mediaDuration" : 3528000000,
                                    "scalar" : 1,
                                    "metadata" : {
                                      "AppliedThemeId" : "",
                                      "clipSpeedAttribute" : false,
                                      "effectApplied" : "none"
                                    },
                                    "animationTracks" : {
                                      "visual" : [
                                        {
                                          "endTime" : 270480000,
                                          "duration" : 270480000,
                                          "range" : [ 0, 270480000]
                                        },
                                        {
                                          "endTime" : 552720000,
                                          "duration" : 270480000,
                                          "range" : [ 282240000, 270480000]
                                        }
                                      ]
                                    }
                                  }
                                ],
                                  "ident" : "",
                                  "audioMuted" : false,
                                  "videoHidden" : false,
                                  "magnetic" : false,
                                  "matte" : 1,
                                  "solo" : false,
                                  "metadata" : {
                                    "IsLocked" : "False",
                                    "WinTrackHeight" : "56",
                                    "trackHeight" : "54"
                                  }
                              }
                            ],
                            "attributes" : {
                              "ident" : "Animated-Pulse-1400x20-To-1400x80",
                              "widthAttr" : 1405.0,
                              "heightAttr" : 167.002,
                              "gain" : 1.0,
                              "mixToMono" : false,
                              "assetProperties" : [
                                {
                                  "type" : 1,
                                  "name" : "Color",
                                  "objects" : [ 189 ],
                                  "themeMappings" :  {
                                    "fill" : "accent-1"
                                  }
                                }
                              ]
                            },
                            "effects" : [

                            ],
                            "start" : 0,
                            "duration" : 3528000000,
                            "mediaStart" : 0.0,
                            "mediaDuration" : 3528000000.0,
                            "scalar" : 1,
                            "metadata" : {
                              "AppliedThemeId" : "8e797988-b823-4beb-b251-1d31b461ba07",
                              "clipSpeedAttribute" : false,
                              "effectApplied" : "none",
                              "isOpen" : false,
                              "lockAspectRatio" : true
                            },
                            "animationTracks" : {
                              "visual" : [
                                {
                                  "endTime" : 552720000,
                                  "duration" : 552720000,
                                  "range" : [ 0, 552720000],
                                  "interp" : "eioe"
                                },
                                {
                                  "endTime" : 1775760000,
                                  "duration" : 399840000,
                                  "range" : [ 1375920000, 399840000],
                                  "interp" : "eioe"
                                }
                              ]
                            }
                          }
                        ],
                          "ident" : "",
                          "audioMuted" : false,
                          "videoHidden" : false,
                          "magnetic" : false,
                          "matte" : 0,
                          "solo" : false,
                          "metadata" : {
                            "IsLocked" : "False",
                            "WinTrackHeight" : "56",
                            "trackHeight" : "54"
                          }
                      },
                      {
                        "trackIndex" : 3,
                        "medias" : [
                          {
                            "id" : 191,
                            "_type" : "Group",
                            "parameters" : {
                              "translation0" : {
                                "type" : "double",
                                "defaultValue" : 0.0,
                                "keyframes" : [
                                  {
                                    "endTime" : 552720000,
                                    "time" : 0,
                                    "value" : 0.0,
                                    "interp" : "eioe",
                                    "duration" : 552720000
                                  },
                                  {
                                    "endTime" : 1775760000,
                                    "time" : 1375920000,
                                    "value" : 0.0,
                                    "interp" : "eioe",
                                    "duration" : 399840000
                                  }
                                ]
                              },
                              "translation1" : {
                                "type" : "double",
                                "defaultValue" : -143.610046386719,
                                "keyframes" : [
                                  {
                                    "endTime" : 552720000,
                                    "time" : 0,
                                    "value" : 0.0,
                                    "interp" : "eioe",
                                    "duration" : 552720000
                                  },
                                  {
                                    "endTime" : 1775760000,
                                    "time" : 1375920000,
                                    "value" : -143.610046386719,
                                    "interp" : "eioe",
                                    "duration" : 399840000
                                  }
                                ]
                              },
                              "sourceCrop0" : 0.0,
                              "sourceCrop1" : 0.0,
                              "sourceCrop2" : 0.0,
                              "sourceCrop3" : 0.0,
                              "geometryCrop0" : 0.0,
                              "geometryCrop1" : 0.0,
                              "geometryCrop2" : 0.0,
                              "geometryCrop3" : 0.0,
                              "opacity" : {
                                "type" : "double",
                                "defaultValue" : 1.0,
                                "keyframes" : [
                                  {
                                    "endTime" : 552720000,
                                    "time" : 0,
                                    "value" : 1.0,
                                    "interp" : "eioe",
                                    "duration" : 552720000
                                  }
                                ]
                              },
                              "volume" : 1.0
                            },
                            "tracks" : [
                              {
                                "trackIndex" : 0,
                                "medias" : [
                                  {
                                    "id" : 192,
                                    "_type" : "Callout",
                                    "def" : {
                                      "kind" : "remix",
                                      "shape" : "shape-rectangle",
                                      "style" : "bold",
                                      "fill-color-blue" : 0.913725490196078,
                                      "fill-color-green" : 0.949019607843137,
                                      "fill-color-opacity" : 1.0,
                                      "fill-color-red" : 0.933333333333333,
                                      "hasDropShadow" : 0.0,
                                      "height" : 163.002035140991,
                                      "savedXScale" : 1.0,
                                      "savedYScale" : 1.0,
                                      "stroke-color-blue" : 1.0,
                                      "stroke-color-green" : 1.0,
                                      "stroke-color-opacity" : 1.0,
                                      "stroke-color-red" : 1.0,
                                      "stroke-width" : 0.0,
                                      "width" : 1403.00212860107,
                                      "custom" : "Y",
                                      "fill-style" : "solid",
                                      "stroke-style" : "solid"
                                    },
                                    "attributes" : {
                                      "ident" : "",
                                      "autoRotateText" : true
                                    },
                                    "parameters" : {
                                      "anchor0" : -1.0,
                                      "anchor1" : 2.0,
                                      "sourceCrop0" : 0.0,
                                      "sourceCrop1" : 0.0,
                                      "sourceCrop2" : 0.0,
                                      "sourceCrop3" : 0.0,
                                      "geometryCrop0" : 0.0,
                                      "geometryCrop1" : 0.0,
                                      "geometryCrop2" : 0.0,
                                      "geometryCrop3" : 0.0
                                    },
                                    "effects" : [

                                    ],
                                    "start" : 0,
                                    "duration" : 3528000000,
                                    "mediaStart" : 0,
                                    "mediaDuration" : 3528000000,
                                    "scalar" : 1,
                                    "metadata" : {
                                      "AppliedThemeId" : "",
                                      "clipSpeedAttribute" : false,
                                      "effectApplied" : "none",
                                      "lockAspectRatio" : false
                                    },
                                    "animationTracks" : {

                                    }
                                  }
                                ],
                                  "ident" : "",
                                  "audioMuted" : false,
                                  "videoHidden" : false,
                                  "magnetic" : false,
                                  "matte" : 0,
                                  "solo" : false,
                                  "metadata" : {
                                    "IsLocked" : "False",
                                    "WinTrackHeight" : "56",
                                    "trackHeight" : "54"
                                  }
                              },
                              {
                                "trackIndex" : 1,
                                "medias" : [
                                  {
                                    "id" : 193,
                                    "_type" : "Callout",
                                    "def" : {
                                      "kind" : "remix",
                                      "shape" : "shape-rectangle",
                                      "style" : "bold",
                                      "fill-color-blue" : 0.756862759590149,
                                      "fill-color-green" : 0.18823529779911,
                                      "fill-color-opacity" : 1.0,
                                      "fill-color-red" : 0.960784316062927,
                                      "hasDropShadow" : 0.0,
                                      "height" : 160.0,
                                      "savedXScale" : 1.0,
                                      "savedYScale" : 1.0,
                                      "stroke-color-blue" : 0.886274516582489,
                                      "stroke-color-green" : 0.200000002980232,
                                      "stroke-color-opacity" : 0.0,
                                      "stroke-color-red" : 0.376470595598221,
                                      "stroke-width" : 0.0,
                                      "width" : 1400.0,
                                      "custom" : "Y",
                                      "fill-style" : "solid",
                                      "stroke-style" : "solid"
                                    },
                                    "attributes" : {
                                      "ident" : "",
                                      "autoRotateText" : true
                                    },
                                    "parameters" : {
                                      "sourceCrop0" : 0.0,
                                      "sourceCrop1" : 0.0,
                                      "sourceCrop2" : 0.0,
                                      "sourceCrop3" : 0.0,
                                      "geometryCrop0" : 0.0,
                                      "geometryCrop1" : 0.0,
                                      "geometryCrop2" : 0.0,
                                      "geometryCrop3" : 0.0
                                    },
                                    "effects" : [

                                    ],
                                    "start" : 0,
                                    "duration" : 3528000000,
                                    "mediaStart" : 0,
                                    "mediaDuration" : 3528000000,
                                    "scalar" : 1,
                                    "metadata" : {
                                      "AppliedThemeId" : "",
                                      "clipSpeedAttribute" : false,
                                      "effectApplied" : "none"
                                    },
                                    "animationTracks" : {

                                    }
                                  }
                                ],
                                  "ident" : "",
                                  "audioMuted" : false,
                                  "videoHidden" : false,
                                  "magnetic" : false,
                                  "matte" : 1,
                                  "solo" : false,
                                  "metadata" : {
                                    "IsLocked" : "False",
                                    "WinTrackHeight" : "56",
                                    "trackHeight" : "54"
                                  }
                              }
                            ],
                            "attributes" : {
                              "ident" : "Rect-1400x1600-Mask",
                              "widthAttr" : 1405.0,
                              "heightAttr" : 167.002,
                              "gain" : 1.0,
                              "mixToMono" : false
                            },
                            "effects" : [

                            ],
                            "start" : 0,
                            "duration" : 3528000000,
                            "mediaStart" : 0.0,
                            "mediaDuration" : 3528000000.0,
                            "scalar" : 1,
                            "metadata" : {
                              "clipSpeedAttribute" : false,
                              "effectApplied" : "none",
                              "isOpen" : false,
                              "lockAspectRatio" : true
                            },
                            "animationTracks" : {
                              "visual" : [
                                {
                                  "endTime" : 552720000,
                                  "duration" : 552720000,
                                  "range" : [ 0, 552720000],
                                  "interp" : "eioe"
                                },
                                {
                                  "endTime" : 1775760000,
                                  "duration" : 399840000,
                                  "range" : [ 1375920000, 399840000],
                                  "interp" : "eioe"
                                }
                              ]
                            }
                          }
                        ],
                          "ident" : "",
                          "audioMuted" : false,
                          "videoHidden" : false,
                          "magnetic" : false,
                          "matte" : 1,
                          "solo" : false,
                          "metadata" : {
                            "IsLocked" : "False",
                            "WinTrackHeight" : "56",
                            "trackHeight" : "54"
                          }
                      }
                    ],
                    "attributes" : {
                      "ident" : "Broadcast-Title-012",
                      "widthAttr" : 1405.0,
                      "heightAttr" : 160.0,
                      "gain" : 1.0,
                      "mixToMono" : false,
                      "assetProperties" : [
                        {
                          "type" : 0,
                          "name" : "Title",
                          "objects" : [ 184 ],
                          "themeMappings" :  {
                            "font-color" : "foreground-1"
                          }
                        },
                        {
                          "type" : 1,
                          "name" : "Fill",
                          "objects" : [ 182 ],
                          "themeMappings" :  {
                            "fill" : "background-1"
                          }
                        },
                        {
                          "type" : 1,
                          "name" : "Wiper",
                          "objects" : [ 189 ],
                          "themeMappings" :  {
                            "fill" : "foreground-1"
                          }
                        }
                      ]
                    },
                    "effects" : [

                    ],
                    "start" : 1928640000,
                    "duration" : 1764000000,
                    "mediaStart" : 0.0,
                    "mediaDuration" : 1764000000.0,
                    "scalar" : 1,
                    "metadata" : {
                      "AppliedThemeId" : "170ba59c-db5d-4b9a-a310-e7e99853a4b7",
                      "clipSpeedAttribute" : false,
                      "default-anchor0" : 0.0,
                      "default-anchor1" : 0.0,
                      "default-anchor2" : 0.0,
                      "default-geometryCrop0" : 0.0,
                      "default-height" : 160.0,
                      "default-rotation0" : 0.0,
                      "default-rotation1" : 0.0,
                      "default-rotation2" : 0.0,
                      "default-scale0" : 1.0,
                      "default-scale1" : 1.0,
                      "default-scale2" : 1.0,
                      "default-shear0" : 0.0,
                      "default-shear1" : 0.0,
                      "default-shear2" : 0.0,
                      "default-translation0" : 0.0,
                      "default-translation1" : 0.0,
                      "default-translation2" : 0.0,
                      "default-width" : 1405.0,
                      "effectApplied" : "none",
                      "isOpen" : false,
                      "lockAspectRatio" : true
                    },
                    "animationTracks" : {

                    }
                  }
                ]
              },
              {
                "trackIndex" : 99,
                "medias" : [
                  {
                    "id" : 194,
                    "_type" : "Group",
                    "parameters" : {
                      "translation0" : 350.0,
                      "translation1" : -200.0,
                      "scale0" : 0.213523131672598,
                      "scale1" : 0.21875,
                      "sourceCrop0" : 0.0,
                      "sourceCrop1" : 0.0,
                      "sourceCrop2" : 0.0,
                      "sourceCrop3" : 0.0,
                      "geometryCrop0" : 0.0,
                      "geometryCrop1" : 0.0,
                      "geometryCrop2" : 0.0,
                      "geometryCrop3" : 0.0,
                      "volume" : 1.0
                    },
                    "tracks" : [
                      {
                        "trackIndex" : 0,
                        "medias" : [
                          {
                            "id" : 195,
                            "_type" : "Group",
                            "parameters" : {
                              "translation0" : {
                                "type" : "double",
                                "defaultValue" : 0.0,
                                "keyframes" : [
                                  {
                                    "endTime" : 552720000,
                                    "time" : 0,
                                    "value" : 0.0,
                                    "interp" : "eioe",
                                    "duration" : 552720000
                                  },
                                  {
                                    "endTime" : 1775760000,
                                    "time" : 1375920000,
                                    "value" : 0.0,
                                    "interp" : "eioe",
                                    "duration" : 399840000
                                  }
                                ]
                              },
                              "translation1" : {
                                "type" : "double",
                                "defaultValue" : -305.610046386719,
                                "keyframes" : [
                                  {
                                    "endTime" : 552720000,
                                    "time" : 0,
                                    "value" : 0.0,
                                    "interp" : "eioe",
                                    "duration" : 552720000
                                  },
                                  {
                                    "endTime" : 1775760000,
                                    "time" : 1375920000,
                                    "value" : -304.610046386719,
                                    "interp" : "eioe",
                                    "duration" : 399840000
                                  }
                                ]
                              },
                              "sourceCrop0" : 0.0,
                              "sourceCrop1" : 0.0,
                              "sourceCrop2" : 0.0,
                              "sourceCrop3" : 0.0,
                              "geometryCrop0" : 0.0,
                              "geometryCrop1" : 0.0,
                              "geometryCrop2" : 0.0,
                              "geometryCrop3" : 0.0,
                              "volume" : 1.0
                            },
                            "tracks" : [
                              {
                                "trackIndex" : 0,
                                "medias" : [
                                  {
                                    "id" : 196,
                                    "_type" : "Group",
                                    "parameters" : {
                                      "sourceCrop0" : 0.0,
                                      "sourceCrop1" : 0.0,
                                      "sourceCrop2" : 0.0,
                                      "sourceCrop3" : 0.0,
                                      "geometryCrop0" : 0.0,
                                      "geometryCrop1" : 0.0,
                                      "geometryCrop2" : 0.0,
                                      "geometryCrop3" : 0.0,
                                      "volume" : 1.0
                                    },
                                    "tracks" : [
                                      {
                                        "trackIndex" : 0,
                                        "medias" : [
                                          {
                                            "id" : 197,
                                            "_type" : "Callout",
                                            "def" : {
                                              "kind" : "remix",
                                              "shape" : "shape-rectangle",
                                              "style" : "bold",
                                              "fill-color-blue" : 1.0,
                                              "fill-color-green" : 1.0,
                                              "fill-color-opacity" : 1.0,
                                              "fill-color-red" : 1.0,
                                              "hasDropShadow" : 0.0,
                                              "height" : 163.002035140991,
                                              "savedXScale" : 1.0,
                                              "savedYScale" : 1.0,
                                              "stroke-color-blue" : 1.0,
                                              "stroke-color-green" : 1.0,
                                              "stroke-color-opacity" : 1.0,
                                              "stroke-color-red" : 1.0,
                                              "stroke-width" : 0.0,
                                              "width" : 1403.00212860107,
                                              "custom" : "Y",
                                              "fill-style" : "solid",
                                              "stroke-style" : "solid"
                                            },
                                            "attributes" : {
                                              "ident" : "",
                                              "autoRotateText" : true
                                            },
                                            "parameters" : {
                                              "anchor0" : -1.0,
                                              "anchor1" : 2.0,
                                              "sourceCrop0" : 0.0,
                                              "sourceCrop1" : 0.0,
                                              "sourceCrop2" : 0.0,
                                              "sourceCrop3" : 0.0,
                                              "geometryCrop0" : 0.0,
                                              "geometryCrop1" : 0.0,
                                              "geometryCrop2" : 0.0,
                                              "geometryCrop3" : 0.0
                                            },
                                            "effects" : [

                                            ],
                                            "start" : 0,
                                            "duration" : 3528000000,
                                            "mediaStart" : 0,
                                            "mediaDuration" : 3528000000,
                                            "scalar" : 1,
                                            "metadata" : {
                                              "AppliedThemeId" : "",
                                              "clipSpeedAttribute" : false,
                                              "effectApplied" : "none",
                                              "lockAspectRatio" : false
                                            },
                                            "animationTracks" : {

                                            }
                                          }
                                        ],
                                          "ident" : "",
                                          "audioMuted" : false,
                                          "videoHidden" : false,
                                          "magnetic" : false,
                                          "matte" : 0,
                                          "solo" : false,
                                          "metadata" : {
                                            "IsLocked" : "False",
                                            "WinTrackHeight" : "56",
                                            "trackHeight" : "54"
                                          }
                                      },
                                      {
                                        "trackIndex" : 1,
                                        "medias" : [
                                          {
                                            "id" : 198,
                                            "_type" : "Callout",
                                            "def" : {
                                              "kind" : "remix",
                                              "shape" : "shape-rectangle",
                                              "style" : "bold",
                                              "fill-color-blue" : 0.756862759590149,
                                              "fill-color-green" : 0.18823529779911,
                                              "fill-color-opacity" : 1.0,
                                              "fill-color-red" : 0.960784316062927,
                                              "hasDropShadow" : 0.0,
                                              "height" : 160.0,
                                              "savedXScale" : 1.0,
                                              "savedYScale" : 1.0,
                                              "stroke-color-blue" : 0.886274516582489,
                                              "stroke-color-green" : 0.200000002980232,
                                              "stroke-color-opacity" : 0.0,
                                              "stroke-color-red" : 0.376470595598221,
                                              "stroke-width" : 0.0,
                                              "width" : 1400.0,
                                              "custom" : "Y",
                                              "fill-style" : "solid",
                                              "stroke-style" : "solid"
                                            },
                                            "attributes" : {
                                              "ident" : "",
                                              "autoRotateText" : true
                                            },
                                            "parameters" : {
                                              "sourceCrop0" : 0.0,
                                              "sourceCrop1" : 0.0,
                                              "sourceCrop2" : 0.0,
                                              "sourceCrop3" : 0.0,
                                              "geometryCrop0" : 0.0,
                                              "geometryCrop1" : 0.0,
                                              "geometryCrop2" : 0.0,
                                              "geometryCrop3" : 0.0
                                            },
                                            "effects" : [

                                            ],
                                            "start" : 0,
                                            "duration" : 3528000000,
                                            "mediaStart" : 0,
                                            "mediaDuration" : 3528000000,
                                            "scalar" : 1,
                                            "metadata" : {
                                              "AppliedThemeId" : "",
                                              "clipSpeedAttribute" : false,
                                              "effectApplied" : "none"
                                            },
                                            "animationTracks" : {

                                            }
                                          }
                                        ],
                                          "ident" : "",
                                          "audioMuted" : false,
                                          "videoHidden" : false,
                                          "magnetic" : false,
                                          "matte" : 1,
                                          "solo" : false,
                                          "metadata" : {
                                            "IsLocked" : "False",
                                            "WinTrackHeight" : "56",
                                            "trackHeight" : "54"
                                          }
                                      }
                                    ],
                                    "attributes" : {
                                      "ident" : "Fill-1400x160",
                                      "widthAttr" : 1405.0,
                                      "heightAttr" : 167.002,
                                      "gain" : 1.0,
                                      "mixToMono" : false
                                    },
                                    "effects" : [

                                    ],
                                    "start" : 0,
                                    "duration" : 3528000000,
                                    "mediaStart" : 0.0,
                                    "mediaDuration" : 3528000000.0,
                                    "scalar" : 1,
                                    "metadata" : {
                                      "clipSpeedAttribute" : false,
                                      "effectApplied" : "none",
                                      "isOpen" : false,
                                      "lockAspectRatio" : true
                                    },
                                    "animationTracks" : {

                                    }
                                  }
                                ],
                                  "ident" : "",
                                  "audioMuted" : false,
                                  "videoHidden" : false,
                                  "magnetic" : false,
                                  "matte" : 0,
                                  "solo" : false,
                                  "metadata" : {
                                    "IsLocked" : "False",
                                    "WinTrackHeight" : "56",
                                    "trackHeight" : "54"
                                  }
                              },
                              {
                                "trackIndex" : 1,
                                "medias" : [
                                  {
                                    "id" : 199,
                                    "_type" : "Callout",
                                    "def" : {
                                      "kind" : "remix",
                                      "shape" : "text",
                                      "style" : "urban",
                                      "enable-ligatures" : 1.0,
                                      "hasDropShadow" : 0.0,
                                      "height" : 170.0,
                                      "line-spacing" : 0.0,
                                      "savedXScale" : 1.0,
                                      "savedYScale" : 1.0,
                                      "width" : 1400.0,
                                      "word-wrap" : 1.0,
                                      "custom" : "Y",
                                      "horizontal-alignment" : "left",
                                      "resize-behavior" : "resizeText",
                                      "text" : "clear notes from cells",
                                      "vertical-alignment" : "center",
                                      "font" : {
                                        "color-blue" : 1.0,
                                        "color-green" : 1.0,
                                        "color-red" : 1.0,
                                        "size" : 96.0,
                                        "tracking" : 0.0,
                                        "name" : "Dosis",
                                        "weight" : "Semi Bold"
                                      },
                                      "textAttributes" : {
                                        "type" : "textAttributeList",
                                        "keyframes" : [
                                          {
                                            "endTime" : 0,
                                            "time" : 0,
                                            "value" : [{"name":"underline","rangeEnd":22,"rangeStart":0,"value":0,"valueType":"int"},{"name":"strikethrough","rangeEnd":22,"rangeStart":0,"value":0,"valueType":"int"},{"name":"fontName","rangeEnd":22,"rangeStart":0,"value":"Roboto","valueType":"string"},{"name":"kerning","rangeEnd":22,"rangeStart":0,"value":0.049883078231292483,"valueType":"double"},{"name":"fontItalic","rangeEnd":22,"rangeStart":0,"value":0,"valueType":"int"},{"name":"fontWeight","rangeEnd":22,"rangeStart":0,"value":700,"valueType":"int"},{"name":"fontSize","rangeEnd":22,"rangeStart":0,"value":86,"valueType":"double"},{"name":"fgColor","rangeEnd":22,"rangeStart":0,"value":"(110,110,110,255)","valueType":"color"}],
                                            "duration" : 0
                                          }
                                        ]
                                      }
                                    },
                                    "attributes" : {
                                      "ident" : "",
                                      "autoRotateText" : true
                                    },
                                    "parameters" : {
                                      "translation1" : -2.0,
                                      "sourceCrop0" : 0.0,
                                      "sourceCrop1" : 0.0,
                                      "sourceCrop2" : 0.0,
                                      "sourceCrop3" : 0.0,
                                      "geometryCrop0" : 0.0,
                                      "geometryCrop1" : 0.0,
                                      "geometryCrop2" : 0.0,
                                      "geometryCrop3" : 0.0
                                    },
                                    "effects" : [

                                    ],
                                    "start" : 0,
                                    "duration" : 3528000000,
                                    "mediaStart" : 0,
                                    "mediaDuration" : 3528000000,
                                    "scalar" : 1,
                                    "metadata" : {
                                      "AppliedThemeId" : "",
                                      "clipSpeedAttribute" : false,
                                      "effectApplied" : "none",
                                      "lockAspectRatio" : false
                                    },
                                    "animationTracks" : {

                                    }
                                  }
                                ],
                                  "ident" : "",
                                  "audioMuted" : false,
                                  "videoHidden" : false,
                                  "magnetic" : false,
                                  "matte" : 0,
                                  "solo" : false,
                                  "metadata" : {
                                    "IsLocked" : "False",
                                    "WinTrackHeight" : "56",
                                    "trackHeight" : "54"
                                  }
                              }
                            ],
                            "attributes" : {
                              "ident" : "BP-Title-11",
                              "widthAttr" : 1405.0,
                              "heightAttr" : 167.002,
                              "gain" : 1.0,
                              "mixToMono" : false,
                              "assetProperties" : [
                                {
                                  "type" : 0,
                                  "name" : "Title",
                                  "objects" : [ 199 ],
                                  "themeMappings" :  {
                                    "font-color" : "foreground-1"
                                  }
                                },
                                {
                                  "type" : 1,
                                  "name" : "Fill",
                                  "objects" : [ 197 ],
                                  "themeMappings" :  {
                                    "fill" : "background-1"
                                  }
                                }
                              ]
                            },
                            "effects" : [

                            ],
                            "start" : 0,
                            "duration" : 3528000000,
                            "mediaStart" : 0.0,
                            "mediaDuration" : 3528000000.0,
                            "scalar" : 1,
                            "metadata" : {
                              "clipSpeedAttribute" : false,
                              "effectApplied" : "none",
                              "isOpen" : false,
                              "lockAspectRatio" : true
                            },
                            "animationTracks" : {
                              "visual" : [
                                {
                                  "endTime" : 552720000,
                                  "duration" : 552720000,
                                  "range" : [ 0, 552720000],
                                  "interp" : "eioe"
                                },
                                {
                                  "endTime" : 1775760000,
                                  "duration" : 399840000,
                                  "range" : [ 1375920000, 399840000],
                                  "interp" : "eioe"
                                }
                              ]
                            }
                          }
                        ],
                          "ident" : "",
                          "audioMuted" : false,
                          "videoHidden" : false,
                          "magnetic" : false,
                          "matte" : 0,
                          "solo" : false,
                          "metadata" : {
                            "IsLocked" : "False",
                            "WinTrackHeight" : "56",
                            "trackHeight" : "54"
                          }
                      },
                      {
                        "trackIndex" : 1,
                        "medias" : [
                          {
                            "id" : 200,
                            "_type" : "Group",
                            "parameters" : {
                              "translation0" : {
                                "type" : "double",
                                "defaultValue" : 0.0,
                                "keyframes" : [
                                  {
                                    "endTime" : 552720000,
                                    "time" : 0,
                                    "value" : 0.0,
                                    "interp" : "eioe",
                                    "duration" : 552720000
                                  },
                                  {
                                    "endTime" : 1775760000,
                                    "time" : 1375920000,
                                    "value" : 0.0,
                                    "interp" : "eioe",
                                    "duration" : 399840000
                                  }
                                ]
                              },
                              "translation1" : {
                                "type" : "double",
                                "defaultValue" : -144.610046386719,
                                "keyframes" : [
                                  {
                                    "endTime" : 552720000,
                                    "time" : 0,
                                    "value" : 0.0,
                                    "interp" : "eioe",
                                    "duration" : 552720000
                                  },
                                  {
                                    "endTime" : 1775760000,
                                    "time" : 1375920000,
                                    "value" : -144.610046386719,
                                    "interp" : "eioe",
                                    "duration" : 399840000
                                  }
                                ]
                              },
                              "sourceCrop0" : 0.0,
                              "sourceCrop1" : 0.0,
                              "sourceCrop2" : 0.0,
                              "sourceCrop3" : 0.0,
                              "geometryCrop0" : 0.0,
                              "geometryCrop1" : 0.0,
                              "geometryCrop2" : 0.0,
                              "geometryCrop3" : 0.0,
                              "opacity" : {
                                "type" : "double",
                                "defaultValue" : 1.0,
                                "keyframes" : [
                                  {
                                    "endTime" : 552720000,
                                    "time" : 0,
                                    "value" : 1.0,
                                    "interp" : "eioe",
                                    "duration" : 552720000
                                  }
                                ]
                              },
                              "volume" : 1.0
                            },
                            "tracks" : [
                              {
                                "trackIndex" : 0,
                                "medias" : [
                                  {
                                    "id" : 201,
                                    "_type" : "Callout",
                                    "def" : {
                                      "kind" : "remix",
                                      "shape" : "shape-rectangle",
                                      "style" : "bold",
                                      "fill-color-blue" : 0.913725490196078,
                                      "fill-color-green" : 0.949019607843137,
                                      "fill-color-opacity" : 1.0,
                                      "fill-color-red" : 0.933333333333333,
                                      "hasDropShadow" : 0.0,
                                      "height" : 163.002035140991,
                                      "savedXScale" : 1.0,
                                      "savedYScale" : 1.0,
                                      "stroke-color-blue" : 1.0,
                                      "stroke-color-green" : 1.0,
                                      "stroke-color-opacity" : 1.0,
                                      "stroke-color-red" : 1.0,
                                      "stroke-width" : 0.0,
                                      "width" : 1403.00212860107,
                                      "custom" : "Y",
                                      "fill-style" : "solid",
                                      "stroke-style" : "solid"
                                    },
                                    "attributes" : {
                                      "ident" : "",
                                      "autoRotateText" : true
                                    },
                                    "parameters" : {
                                      "anchor0" : -1.0,
                                      "anchor1" : 2.0,
                                      "sourceCrop0" : 0.0,
                                      "sourceCrop1" : 0.0,
                                      "sourceCrop2" : 0.0,
                                      "sourceCrop3" : 0.0,
                                      "geometryCrop0" : 0.0,
                                      "geometryCrop1" : 0.0,
                                      "geometryCrop2" : 0.0,
                                      "geometryCrop3" : 0.0
                                    },
                                    "effects" : [

                                    ],
                                    "start" : 0,
                                    "duration" : 3528000000,
                                    "mediaStart" : 0,
                                    "mediaDuration" : 3528000000,
                                    "scalar" : 1,
                                    "metadata" : {
                                      "AppliedThemeId" : "",
                                      "clipSpeedAttribute" : false,
                                      "effectApplied" : "none",
                                      "lockAspectRatio" : false
                                    },
                                    "animationTracks" : {

                                    }
                                  }
                                ],
                                  "ident" : "",
                                  "audioMuted" : false,
                                  "videoHidden" : false,
                                  "magnetic" : false,
                                  "matte" : 0,
                                  "solo" : false,
                                  "metadata" : {
                                    "IsLocked" : "False",
                                    "WinTrackHeight" : "56",
                                    "trackHeight" : "54"
                                  }
                              },
                              {
                                "trackIndex" : 1,
                                "medias" : [
                                  {
                                    "id" : 202,
                                    "_type" : "Callout",
                                    "def" : {
                                      "kind" : "remix",
                                      "shape" : "shape-rectangle",
                                      "style" : "bold",
                                      "fill-color-blue" : 0.756862759590149,
                                      "fill-color-green" : 0.18823529779911,
                                      "fill-color-opacity" : 1.0,
                                      "fill-color-red" : 0.960784316062927,
                                      "hasDropShadow" : 0.0,
                                      "height" : 160.0,
                                      "savedXScale" : 1.0,
                                      "savedYScale" : 1.0,
                                      "stroke-color-blue" : 0.886274516582489,
                                      "stroke-color-green" : 0.200000002980232,
                                      "stroke-color-opacity" : 0.0,
                                      "stroke-color-red" : 0.376470595598221,
                                      "stroke-width" : 0.0,
                                      "width" : 1400.0,
                                      "custom" : "Y",
                                      "fill-style" : "solid",
                                      "stroke-style" : "solid"
                                    },
                                    "attributes" : {
                                      "ident" : "",
                                      "autoRotateText" : true
                                    },
                                    "parameters" : {
                                      "sourceCrop0" : 0.0,
                                      "sourceCrop1" : 0.0,
                                      "sourceCrop2" : 0.0,
                                      "sourceCrop3" : 0.0,
                                      "geometryCrop0" : 0.0,
                                      "geometryCrop1" : 0.0,
                                      "geometryCrop2" : 0.0,
                                      "geometryCrop3" : 0.0
                                    },
                                    "effects" : [

                                    ],
                                    "start" : 0,
                                    "duration" : 3528000000,
                                    "mediaStart" : 0,
                                    "mediaDuration" : 3528000000,
                                    "scalar" : 1,
                                    "metadata" : {
                                      "AppliedThemeId" : "",
                                      "clipSpeedAttribute" : false,
                                      "effectApplied" : "none"
                                    },
                                    "animationTracks" : {

                                    }
                                  }
                                ],
                                  "ident" : "",
                                  "audioMuted" : false,
                                  "videoHidden" : false,
                                  "magnetic" : false,
                                  "matte" : 1,
                                  "solo" : false,
                                  "metadata" : {
                                    "IsLocked" : "False",
                                    "WinTrackHeight" : "56",
                                    "trackHeight" : "54"
                                  }
                              }
                            ],
                            "attributes" : {
                              "ident" : "Rect-1400x1600-Mask",
                              "widthAttr" : 1405.0,
                              "heightAttr" : 167.002,
                              "gain" : 1.0,
                              "mixToMono" : false
                            },
                            "effects" : [

                            ],
                            "start" : 0,
                            "duration" : 3528000000,
                            "mediaStart" : 0.0,
                            "mediaDuration" : 3528000000.0,
                            "scalar" : 1,
                            "metadata" : {
                              "clipSpeedAttribute" : false,
                              "effectApplied" : "none",
                              "isOpen" : false,
                              "lockAspectRatio" : true
                            },
                            "animationTracks" : {
                              "visual" : [
                                {
                                  "endTime" : 552720000,
                                  "duration" : 552720000,
                                  "range" : [ 0, 552720000],
                                  "interp" : "eioe"
                                },
                                {
                                  "endTime" : 1775760000,
                                  "duration" : 399840000,
                                  "range" : [ 1375920000, 399840000],
                                  "interp" : "eioe"
                                }
                              ]
                            }
                          }
                        ],
                          "ident" : "",
                          "audioMuted" : false,
                          "videoHidden" : false,
                          "magnetic" : false,
                          "matte" : 1,
                          "solo" : false,
                          "metadata" : {
                            "IsLocked" : "False",
                            "WinTrackHeight" : "56",
                            "trackHeight" : "54"
                          }
                      },
                      {
                        "trackIndex" : 2,
                        "medias" : [
                          {
                            "id" : 203,
                            "_type" : "Group",
                            "parameters" : {
                              "translation0" : {
                                "type" : "double",
                                "defaultValue" : 0.0,
                                "keyframes" : [
                                  {
                                    "endTime" : 552720000,
                                    "time" : 0,
                                    "value" : 0.0,
                                    "interp" : "eioe",
                                    "duration" : 552720000
                                  },
                                  {
                                    "endTime" : 1775760000,
                                    "time" : 1375920000,
                                    "value" : 0.0,
                                    "interp" : "eioe",
                                    "duration" : 399840000
                                  }
                                ]
                              },
                              "translation1" : {
                                "type" : "double",
                                "defaultValue" : -233.610046386719,
                                "keyframes" : [
                                  {
                                    "endTime" : 552720000,
                                    "time" : 0,
                                    "value" : 90.0,
                                    "interp" : "eioe",
                                    "duration" : 552720000
                                  },
                                  {
                                    "endTime" : 1775760000,
                                    "time" : 1375920000,
                                    "value" : -233.610046386719,
                                    "interp" : "eioe",
                                    "duration" : 399840000
                                  }
                                ]
                              },
                              "sourceCrop0" : 0.0,
                              "sourceCrop1" : 0.0,
                              "sourceCrop2" : 0.0,
                              "sourceCrop3" : 0.0,
                              "geometryCrop0" : 0.0,
                              "geometryCrop1" : 0.0,
                              "geometryCrop2" : 0.0,
                              "geometryCrop3" : 0.0,
                              "opacity" : {
                                "type" : "double",
                                "defaultValue" : 1.0,
                                "keyframes" : [
                                  {
                                    "endTime" : 552720000,
                                    "time" : 0,
                                    "value" : 1.0,
                                    "interp" : "eioe",
                                    "duration" : 552720000
                                  }
                                ]
                              },
                              "volume" : 1.0
                            },
                            "tracks" : [
                              {
                                "trackIndex" : 0,
                                "medias" : [
                                  {
                                    "id" : 204,
                                    "_type" : "Callout",
                                    "def" : {
                                      "kind" : "remix",
                                      "shape" : "shape-rectangle",
                                      "style" : "bold",
                                      "fill-color-blue" : 0.2196078431,
                                      "fill-color-green" : 0.8745098039,
                                      "fill-color-opacity" : 1.0,
                                      "fill-color-red" : 1.0,
                                      "hasDropShadow" : 0.0,
                                      "height" : 163.002035140991,
                                      "savedXScale" : 1.0,
                                      "savedYScale" : 1.0,
                                      "stroke-color-blue" : 1.0,
                                      "stroke-color-green" : 1.0,
                                      "stroke-color-opacity" : 1.0,
                                      "stroke-color-red" : 1.0,
                                      "stroke-width" : 0.0,
                                      "width" : 1403.00212860107,
                                      "custom" : "Y",
                                      "fill-style" : "solid",
                                      "stroke-style" : "solid"
                                    },
                                    "attributes" : {
                                      "ident" : "",
                                      "autoRotateText" : true
                                    },
                                    "parameters" : {
                                      "anchor0" : -1.0,
                                      "anchor1" : 2.0,
                                      "sourceCrop0" : 0.0,
                                      "sourceCrop1" : 0.0,
                                      "sourceCrop2" : 0.0,
                                      "sourceCrop3" : 0.0,
                                      "geometryCrop0" : 0.0,
                                      "geometryCrop1" : 0.0,
                                      "geometryCrop2" : 0.0,
                                      "geometryCrop3" : 0.0
                                    },
                                    "effects" : [

                                    ],
                                    "start" : 0,
                                    "duration" : 3528000000,
                                    "mediaStart" : 0,
                                    "mediaDuration" : 3528000000,
                                    "scalar" : 1,
                                    "metadata" : {
                                      "AppliedThemeId" : "",
                                      "clipSpeedAttribute" : false,
                                      "effectApplied" : "none",
                                      "lockAspectRatio" : false
                                    },
                                    "animationTracks" : {

                                    }
                                  }
                                ],
                                  "ident" : "",
                                  "audioMuted" : false,
                                  "videoHidden" : false,
                                  "magnetic" : false,
                                  "matte" : 0,
                                  "solo" : false,
                                  "metadata" : {
                                    "IsLocked" : "False",
                                    "WinTrackHeight" : "56",
                                    "trackHeight" : "54"
                                  }
                              },
                              {
                                "trackIndex" : 1,
                                "medias" : [
                                  {
                                    "id" : 205,
                                    "_type" : "Callout",
                                    "def" : {
                                      "kind" : "remix",
                                      "shape" : "shape-rectangle",
                                      "style" : "bold",
                                      "fill-color-blue" : 0.756862759590149,
                                      "fill-color-green" : 0.18823529779911,
                                      "fill-color-opacity" : 1.0,
                                      "fill-color-red" : 0.960784316062927,
                                      "hasDropShadow" : 0.0,
                                      "height" : 160.0,
                                      "savedXScale" : 1.0,
                                      "savedYScale" : 1.0,
                                      "stroke-color-blue" : 0.886274516582489,
                                      "stroke-color-green" : 0.200000002980232,
                                      "stroke-color-opacity" : 0.0,
                                      "stroke-color-red" : 0.376470595598221,
                                      "stroke-width" : 0.0,
                                      "width" : 1400.0,
                                      "custom" : "Y",
                                      "fill-style" : "solid",
                                      "stroke-style" : "solid"
                                    },
                                    "attributes" : {
                                      "ident" : "",
                                      "autoRotateText" : true
                                    },
                                    "parameters" : {
                                      "translation1" : {
                                        "type" : "double",
                                        "defaultValue" : -1.0,
                                        "keyframes" : [
                                          {
                                            "endTime" : 270480000,
                                            "time" : 0,
                                            "value" : 0.0,
                                            "duration" : 270480000
                                          }
                                        ]
                                      },
                                      "scale0" : {
                                        "type" : "double",
                                        "defaultValue" : 1.0,
                                        "keyframes" : [
                                          {
                                            "endTime" : 270480000,
                                            "time" : 0,
                                            "value" : 1.0,
                                            "duration" : 270480000
                                          }
                                        ]
                                      },
                                      "scale1" : {
                                        "type" : "double",
                                        "defaultValue" : 0.125,
                                        "keyframes" : [
                                          {
                                            "endTime" : 270480000,
                                            "time" : 0,
                                            "value" : 0.5,
                                            "duration" : 270480000
                                          },
                                          {
                                            "endTime" : 552720000,
                                            "time" : 282240000,
                                            "value" : 0.125,
                                            "duration" : 270480000
                                          }
                                        ]
                                      },
                                      "sourceCrop0" : 0.0,
                                      "sourceCrop1" : 0.0,
                                      "sourceCrop2" : 0.0,
                                      "sourceCrop3" : 0.0,
                                      "geometryCrop0" : 0.0,
                                      "geometryCrop1" : 0.0,
                                      "geometryCrop2" : 0.0,
                                      "geometryCrop3" : 0.0
                                    },
                                    "effects" : [

                                    ],
                                    "start" : 0,
                                    "duration" : 3528000000,
                                    "mediaStart" : 0,
                                    "mediaDuration" : 3528000000,
                                    "scalar" : 1,
                                    "metadata" : {
                                      "AppliedThemeId" : "",
                                      "clipSpeedAttribute" : false,
                                      "effectApplied" : "none"
                                    },
                                    "animationTracks" : {
                                      "visual" : [
                                        {
                                          "endTime" : 270480000,
                                          "duration" : 270480000,
                                          "range" : [ 0, 270480000]
                                        },
                                        {
                                          "endTime" : 552720000,
                                          "duration" : 270480000,
                                          "range" : [ 282240000, 270480000]
                                        }
                                      ]
                                    }
                                  }
                                ],
                                  "ident" : "",
                                  "audioMuted" : false,
                                  "videoHidden" : false,
                                  "magnetic" : false,
                                  "matte" : 1,
                                  "solo" : false,
                                  "metadata" : {
                                    "IsLocked" : "False",
                                    "WinTrackHeight" : "56",
                                    "trackHeight" : "54"
                                  }
                              }
                            ],
                            "attributes" : {
                              "ident" : "Animated-Pulse-1400x20-To-1400x80",
                              "widthAttr" : 1405.0,
                              "heightAttr" : 167.002,
                              "gain" : 1.0,
                              "mixToMono" : false,
                              "assetProperties" : [
                                {
                                  "type" : 1,
                                  "name" : "Color",
                                  "objects" : [ 204 ],
                                  "themeMappings" :  {
                                    "fill" : "accent-1"
                                  }
                                }
                              ]
                            },
                            "effects" : [

                            ],
                            "start" : 0,
                            "duration" : 3528000000,
                            "mediaStart" : 0.0,
                            "mediaDuration" : 3528000000.0,
                            "scalar" : 1,
                            "metadata" : {
                              "AppliedThemeId" : "8e797988-b823-4beb-b251-1d31b461ba07",
                              "clipSpeedAttribute" : false,
                              "effectApplied" : "none",
                              "isOpen" : false,
                              "lockAspectRatio" : true
                            },
                            "animationTracks" : {
                              "visual" : [
                                {
                                  "endTime" : 552720000,
                                  "duration" : 552720000,
                                  "range" : [ 0, 552720000],
                                  "interp" : "eioe"
                                },
                                {
                                  "endTime" : 1775760000,
                                  "duration" : 399840000,
                                  "range" : [ 1375920000, 399840000],
                                  "interp" : "eioe"
                                }
                              ]
                            }
                          }
                        ],
                          "ident" : "",
                          "audioMuted" : false,
                          "videoHidden" : false,
                          "magnetic" : false,
                          "matte" : 0,
                          "solo" : false,
                          "metadata" : {
                            "IsLocked" : "False",
                            "WinTrackHeight" : "56",
                            "trackHeight" : "54"
                          }
                      },
                      {
                        "trackIndex" : 3,
                        "medias" : [
                          {
                            "id" : 206,
                            "_type" : "Group",
                            "parameters" : {
                              "translation0" : {
                                "type" : "double",
                                "defaultValue" : 0.0,
                                "keyframes" : [
                                  {
                                    "endTime" : 552720000,
                                    "time" : 0,
                                    "value" : 0.0,
                                    "interp" : "eioe",
                                    "duration" : 552720000
                                  },
                                  {
                                    "endTime" : 1775760000,
                                    "time" : 1375920000,
                                    "value" : 0.0,
                                    "interp" : "eioe",
                                    "duration" : 399840000
                                  }
                                ]
                              },
                              "translation1" : {
                                "type" : "double",
                                "defaultValue" : -143.610046386719,
                                "keyframes" : [
                                  {
                                    "endTime" : 552720000,
                                    "time" : 0,
                                    "value" : 0.0,
                                    "interp" : "eioe",
                                    "duration" : 552720000
                                  },
                                  {
                                    "endTime" : 1775760000,
                                    "time" : 1375920000,
                                    "value" : -143.610046386719,
                                    "interp" : "eioe",
                                    "duration" : 399840000
                                  }
                                ]
                              },
                              "sourceCrop0" : 0.0,
                              "sourceCrop1" : 0.0,
                              "sourceCrop2" : 0.0,
                              "sourceCrop3" : 0.0,
                              "geometryCrop0" : 0.0,
                              "geometryCrop1" : 0.0,
                              "geometryCrop2" : 0.0,
                              "geometryCrop3" : 0.0,
                              "opacity" : {
                                "type" : "double",
                                "defaultValue" : 1.0,
                                "keyframes" : [
                                  {
                                    "endTime" : 552720000,
                                    "time" : 0,
                                    "value" : 1.0,
                                    "interp" : "eioe",
                                    "duration" : 552720000
                                  }
                                ]
                              },
                              "volume" : 1.0
                            },
                            "tracks" : [
                              {
                                "trackIndex" : 0,
                                "medias" : [
                                  {
                                    "id" : 207,
                                    "_type" : "Callout",
                                    "def" : {
                                      "kind" : "remix",
                                      "shape" : "shape-rectangle",
                                      "style" : "bold",
                                      "fill-color-blue" : 0.913725490196078,
                                      "fill-color-green" : 0.949019607843137,
                                      "fill-color-opacity" : 1.0,
                                      "fill-color-red" : 0.933333333333333,
                                      "hasDropShadow" : 0.0,
                                      "height" : 163.002035140991,
                                      "savedXScale" : 1.0,
                                      "savedYScale" : 1.0,
                                      "stroke-color-blue" : 1.0,
                                      "stroke-color-green" : 1.0,
                                      "stroke-color-opacity" : 1.0,
                                      "stroke-color-red" : 1.0,
                                      "stroke-width" : 0.0,
                                      "width" : 1403.00212860107,
                                      "custom" : "Y",
                                      "fill-style" : "solid",
                                      "stroke-style" : "solid"
                                    },
                                    "attributes" : {
                                      "ident" : "",
                                      "autoRotateText" : true
                                    },
                                    "parameters" : {
                                      "anchor0" : -1.0,
                                      "anchor1" : 2.0,
                                      "sourceCrop0" : 0.0,
                                      "sourceCrop1" : 0.0,
                                      "sourceCrop2" : 0.0,
                                      "sourceCrop3" : 0.0,
                                      "geometryCrop0" : 0.0,
                                      "geometryCrop1" : 0.0,
                                      "geometryCrop2" : 0.0,
                                      "geometryCrop3" : 0.0
                                    },
                                    "effects" : [

                                    ],
                                    "start" : 0,
                                    "duration" : 3528000000,
                                    "mediaStart" : 0,
                                    "mediaDuration" : 3528000000,
                                    "scalar" : 1,
                                    "metadata" : {
                                      "AppliedThemeId" : "",
                                      "clipSpeedAttribute" : false,
                                      "effectApplied" : "none",
                                      "lockAspectRatio" : false
                                    },
                                    "animationTracks" : {

                                    }
                                  }
                                ],
                                  "ident" : "",
                                  "audioMuted" : false,
                                  "videoHidden" : false,
                                  "magnetic" : false,
                                  "matte" : 0,
                                  "solo" : false,
                                  "metadata" : {
                                    "IsLocked" : "False",
                                    "WinTrackHeight" : "56",
                                    "trackHeight" : "54"
                                  }
                              },
                              {
                                "trackIndex" : 1,
                                "medias" : [
                                  {
                                    "id" : 208,
                                    "_type" : "Callout",
                                    "def" : {
                                      "kind" : "remix",
                                      "shape" : "shape-rectangle",
                                      "style" : "bold",
                                      "fill-color-blue" : 0.756862759590149,
                                      "fill-color-green" : 0.18823529779911,
                                      "fill-color-opacity" : 1.0,
                                      "fill-color-red" : 0.960784316062927,
                                      "hasDropShadow" : 0.0,
                                      "height" : 160.0,
                                      "savedXScale" : 1.0,
                                      "savedYScale" : 1.0,
                                      "stroke-color-blue" : 0.886274516582489,
                                      "stroke-color-green" : 0.200000002980232,
                                      "stroke-color-opacity" : 0.0,
                                      "stroke-color-red" : 0.376470595598221,
                                      "stroke-width" : 0.0,
                                      "width" : 1400.0,
                                      "custom" : "Y",
                                      "fill-style" : "solid",
                                      "stroke-style" : "solid"
                                    },
                                    "attributes" : {
                                      "ident" : "",
                                      "autoRotateText" : true
                                    },
                                    "parameters" : {
                                      "sourceCrop0" : 0.0,
                                      "sourceCrop1" : 0.0,
                                      "sourceCrop2" : 0.0,
                                      "sourceCrop3" : 0.0,
                                      "geometryCrop0" : 0.0,
                                      "geometryCrop1" : 0.0,
                                      "geometryCrop2" : 0.0,
                                      "geometryCrop3" : 0.0
                                    },
                                    "effects" : [

                                    ],
                                    "start" : 0,
                                    "duration" : 3528000000,
                                    "mediaStart" : 0,
                                    "mediaDuration" : 3528000000,
                                    "scalar" : 1,
                                    "metadata" : {
                                      "AppliedThemeId" : "",
                                      "clipSpeedAttribute" : false,
                                      "effectApplied" : "none"
                                    },
                                    "animationTracks" : {

                                    }
                                  }
                                ],
                                  "ident" : "",
                                  "audioMuted" : false,
                                  "videoHidden" : false,
                                  "magnetic" : false,
                                  "matte" : 1,
                                  "solo" : false,
                                  "metadata" : {
                                    "IsLocked" : "False",
                                    "WinTrackHeight" : "56",
                                    "trackHeight" : "54"
                                  }
                              }
                            ],
                            "attributes" : {
                              "ident" : "Rect-1400x1600-Mask",
                              "widthAttr" : 1405.0,
                              "heightAttr" : 167.002,
                              "gain" : 1.0,
                              "mixToMono" : false
                            },
                            "effects" : [

                            ],
                            "start" : 0,
                            "duration" : 3528000000,
                            "mediaStart" : 0.0,
                            "mediaDuration" : 3528000000.0,
                            "scalar" : 1,
                            "metadata" : {
                              "clipSpeedAttribute" : false,
                              "effectApplied" : "none",
                              "isOpen" : false,
                              "lockAspectRatio" : true
                            },
                            "animationTracks" : {
                              "visual" : [
                                {
                                  "endTime" : 552720000,
                                  "duration" : 552720000,
                                  "range" : [ 0, 552720000],
                                  "interp" : "eioe"
                                },
                                {
                                  "endTime" : 1775760000,
                                  "duration" : 399840000,
                                  "range" : [ 1375920000, 399840000],
                                  "interp" : "eioe"
                                }
                              ]
                            }
                          }
                        ],
                          "ident" : "",
                          "audioMuted" : false,
                          "videoHidden" : false,
                          "magnetic" : false,
                          "matte" : 1,
                          "solo" : false,
                          "metadata" : {
                            "IsLocked" : "False",
                            "WinTrackHeight" : "56",
                            "trackHeight" : "54"
                          }
                      }
                    ],
                    "attributes" : {
                      "ident" : "Broadcast-Title-012",
                      "widthAttr" : 1405.0,
                      "heightAttr" : 160.0,
                      "gain" : 1.0,
                      "mixToMono" : false,
                      "assetProperties" : [
                        {
                          "type" : 0,
                          "name" : "Title",
                          "objects" : [ 199 ],
                          "themeMappings" :  {
                            "font-color" : "foreground-1"
                          }
                        },
                        {
                          "type" : 1,
                          "name" : "Fill",
                          "objects" : [ 197 ],
                          "themeMappings" :  {
                            "fill" : "background-1"
                          }
                        },
                        {
                          "type" : 1,
                          "name" : "Wiper",
                          "objects" : [ 204 ],
                          "themeMappings" :  {
                            "fill" : "foreground-1"
                          }
                        }
                      ]
                    },
                    "effects" : [

                    ],
                    "start" : 1928640000,
                    "duration" : 1764000000,
                    "mediaStart" : 0.0,
                    "mediaDuration" : 1764000000.0,
                    "scalar" : 1,
                    "metadata" : {
                      "AppliedThemeId" : "170ba59c-db5d-4b9a-a310-e7e99853a4b7",
                      "clipSpeedAttribute" : false,
                      "default-anchor0" : 0.0,
                      "default-anchor1" : 0.0,
                      "default-anchor2" : 0.0,
                      "default-geometryCrop0" : 0.0,
                      "default-height" : 160.0,
                      "default-rotation0" : 0.0,
                      "default-rotation1" : 0.0,
                      "default-rotation2" : 0.0,
                      "default-scale0" : 1.0,
                      "default-scale1" : 1.0,
                      "default-scale2" : 1.0,
                      "default-shear0" : 0.0,
                      "default-shear1" : 0.0,
                      "default-shear2" : 0.0,
                      "default-translation0" : 0.0,
                      "default-translation1" : 0.0,
                      "default-translation2" : 0.0,
                      "default-width" : 1405.0,
                      "effectApplied" : "none",
                      "isOpen" : false,
                      "lockAspectRatio" : true
                    },
                    "animationTracks" : {

                    }
                  }
                ]
              },
              {
                "trackIndex" : 100,
                "medias" : [
                  {
                    "id" : 209,
                    "_type" : "Group",
                    "parameters" : {
                      "translation0" : -415.0,
                      "translation1" : 400.0,
                      "scale0" : 0.213523131672598,
                      "scale1" : 0.21875,
                      "sourceCrop0" : 0.0,
                      "sourceCrop1" : 0.0,
                      "sourceCrop2" : 0.0,
                      "sourceCrop3" : 0.0,
                      "geometryCrop0" : 0.0,
                      "geometryCrop1" : 0.0,
                      "geometryCrop2" : 0.0,
                      "geometryCrop3" : 0.0,
                      "volume" : 1.0
                    },
                    "tracks" : [
                      {
                        "trackIndex" : 0,
                        "medias" : [
                          {
                            "id" : 210,
                            "_type" : "Group",
                            "parameters" : {
                              "translation0" : {
                                "type" : "double",
                                "defaultValue" : 0.0,
                                "keyframes" : [
                                  {
                                    "endTime" : 552720000,
                                    "time" : 0,
                                    "value" : 0.0,
                                    "interp" : "eioe",
                                    "duration" : 552720000
                                  },
                                  {
                                    "endTime" : 1775760000,
                                    "time" : 1375920000,
                                    "value" : 0.0,
                                    "interp" : "eioe",
                                    "duration" : 399840000
                                  }
                                ]
                              },
                              "translation1" : {
                                "type" : "double",
                                "defaultValue" : -305.610046386719,
                                "keyframes" : [
                                  {
                                    "endTime" : 552720000,
                                    "time" : 0,
                                    "value" : 0.0,
                                    "interp" : "eioe",
                                    "duration" : 552720000
                                  },
                                  {
                                    "endTime" : 1775760000,
                                    "time" : 1375920000,
                                    "value" : -304.610046386719,
                                    "interp" : "eioe",
                                    "duration" : 399840000
                                  }
                                ]
                              },
                              "sourceCrop0" : 0.0,
                              "sourceCrop1" : 0.0,
                              "sourceCrop2" : 0.0,
                              "sourceCrop3" : 0.0,
                              "geometryCrop0" : 0.0,
                              "geometryCrop1" : 0.0,
                              "geometryCrop2" : 0.0,
                              "geometryCrop3" : 0.0,
                              "volume" : 1.0
                            },
                            "tracks" : [
                              {
                                "trackIndex" : 0,
                                "medias" : [
                                  {
                                    "id" : 211,
                                    "_type" : "Group",
                                    "parameters" : {
                                      "sourceCrop0" : 0.0,
                                      "sourceCrop1" : 0.0,
                                      "sourceCrop2" : 0.0,
                                      "sourceCrop3" : 0.0,
                                      "geometryCrop0" : 0.0,
                                      "geometryCrop1" : 0.0,
                                      "geometryCrop2" : 0.0,
                                      "geometryCrop3" : 0.0,
                                      "volume" : 1.0
                                    },
                                    "tracks" : [
                                      {
                                        "trackIndex" : 0,
                                        "medias" : [
                                          {
                                            "id" : 212,
                                            "_type" : "Callout",
                                            "def" : {
                                              "kind" : "remix",
                                              "shape" : "shape-rectangle",
                                              "style" : "bold",
                                              "fill-color-blue" : 1.0,
                                              "fill-color-green" : 1.0,
                                              "fill-color-opacity" : 1.0,
                                              "fill-color-red" : 1.0,
                                              "hasDropShadow" : 0.0,
                                              "height" : 163.002035140991,
                                              "savedXScale" : 1.0,
                                              "savedYScale" : 1.0,
                                              "stroke-color-blue" : 1.0,
                                              "stroke-color-green" : 1.0,
                                              "stroke-color-opacity" : 1.0,
                                              "stroke-color-red" : 1.0,
                                              "stroke-width" : 0.0,
                                              "width" : 1403.00212860107,
                                              "custom" : "Y",
                                              "fill-style" : "solid",
                                              "stroke-style" : "solid"
                                            },
                                            "attributes" : {
                                              "ident" : "",
                                              "autoRotateText" : true
                                            },
                                            "parameters" : {
                                              "anchor0" : -1.0,
                                              "anchor1" : 2.0,
                                              "sourceCrop0" : 0.0,
                                              "sourceCrop1" : 0.0,
                                              "sourceCrop2" : 0.0,
                                              "sourceCrop3" : 0.0,
                                              "geometryCrop0" : 0.0,
                                              "geometryCrop1" : 0.0,
                                              "geometryCrop2" : 0.0,
                                              "geometryCrop3" : 0.0
                                            },
                                            "effects" : [

                                            ],
                                            "start" : 0,
                                            "duration" : 3528000000,
                                            "mediaStart" : 0,
                                            "mediaDuration" : 3528000000,
                                            "scalar" : 1,
                                            "metadata" : {
                                              "AppliedThemeId" : "",
                                              "clipSpeedAttribute" : false,
                                              "effectApplied" : "none",
                                              "lockAspectRatio" : false
                                            },
                                            "animationTracks" : {

                                            }
                                          }
                                        ],
                                          "ident" : "",
                                          "audioMuted" : false,
                                          "videoHidden" : false,
                                          "magnetic" : false,
                                          "matte" : 0,
                                          "solo" : false,
                                          "metadata" : {
                                            "IsLocked" : "False",
                                            "WinTrackHeight" : "56",
                                            "trackHeight" : "54"
                                          }
                                      },
                                      {
                                        "trackIndex" : 1,
                                        "medias" : [
                                          {
                                            "id" : 213,
                                            "_type" : "Callout",
                                            "def" : {
                                              "kind" : "remix",
                                              "shape" : "shape-rectangle",
                                              "style" : "bold",
                                              "fill-color-blue" : 0.756862759590149,
                                              "fill-color-green" : 0.18823529779911,
                                              "fill-color-opacity" : 1.0,
                                              "fill-color-red" : 0.960784316062927,
                                              "hasDropShadow" : 0.0,
                                              "height" : 160.0,
                                              "savedXScale" : 1.0,
                                              "savedYScale" : 1.0,
                                              "stroke-color-blue" : 0.886274516582489,
                                              "stroke-color-green" : 0.200000002980232,
                                              "stroke-color-opacity" : 0.0,
                                              "stroke-color-red" : 0.376470595598221,
                                              "stroke-width" : 0.0,
                                              "width" : 1400.0,
                                              "custom" : "Y",
                                              "fill-style" : "solid",
                                              "stroke-style" : "solid"
                                            },
                                            "attributes" : {
                                              "ident" : "",
                                              "autoRotateText" : true
                                            },
                                            "parameters" : {
                                              "sourceCrop0" : 0.0,
                                              "sourceCrop1" : 0.0,
                                              "sourceCrop2" : 0.0,
                                              "sourceCrop3" : 0.0,
                                              "geometryCrop0" : 0.0,
                                              "geometryCrop1" : 0.0,
                                              "geometryCrop2" : 0.0,
                                              "geometryCrop3" : 0.0
                                            },
                                            "effects" : [

                                            ],
                                            "start" : 0,
                                            "duration" : 3528000000,
                                            "mediaStart" : 0,
                                            "mediaDuration" : 3528000000,
                                            "scalar" : 1,
                                            "metadata" : {
                                              "AppliedThemeId" : "",
                                              "clipSpeedAttribute" : false,
                                              "effectApplied" : "none"
                                            },
                                            "animationTracks" : {

                                            }
                                          }
                                        ],
                                          "ident" : "",
                                          "audioMuted" : false,
                                          "videoHidden" : false,
                                          "magnetic" : false,
                                          "matte" : 1,
                                          "solo" : false,
                                          "metadata" : {
                                            "IsLocked" : "False",
                                            "WinTrackHeight" : "56",
                                            "trackHeight" : "54"
                                          }
                                      }
                                    ],
                                    "attributes" : {
                                      "ident" : "Fill-1400x160",
                                      "widthAttr" : 1405.0,
                                      "heightAttr" : 167.002,
                                      "gain" : 1.0,
                                      "mixToMono" : false
                                    },
                                    "effects" : [

                                    ],
                                    "start" : 0,
                                    "duration" : 3528000000,
                                    "mediaStart" : 0.0,
                                    "mediaDuration" : 3528000000.0,
                                    "scalar" : 1,
                                    "metadata" : {
                                      "clipSpeedAttribute" : false,
                                      "effectApplied" : "none",
                                      "isOpen" : false,
                                      "lockAspectRatio" : true
                                    },
                                    "animationTracks" : {

                                    }
                                  }
                                ],
                                  "ident" : "",
                                  "audioMuted" : false,
                                  "videoHidden" : false,
                                  "magnetic" : false,
                                  "matte" : 0,
                                  "solo" : false,
                                  "metadata" : {
                                    "IsLocked" : "False",
                                    "WinTrackHeight" : "56",
                                    "trackHeight" : "54"
                                  }
                              },
                              {
                                "trackIndex" : 1,
                                "medias" : [
                                  {
                                    "id" : 214,
                                    "_type" : "Callout",
                                    "def" : {
                                      "kind" : "remix",
                                      "shape" : "text",
                                      "style" : "urban",
                                      "enable-ligatures" : 1.0,
                                      "hasDropShadow" : 0.0,
                                      "height" : 170.0,
                                      "line-spacing" : 0.0,
                                      "savedXScale" : 1.0,
                                      "savedYScale" : 1.0,
                                      "width" : 1400.0,
                                      "word-wrap" : 1.0,
                                      "custom" : "Y",
                                      "horizontal-alignment" : "left",
                                      "resize-behavior" : "resizeText",
                                      "text" : "flash fill from cell",
                                      "vertical-alignment" : "center",
                                      "font" : {
                                        "color-blue" : 1.0,
                                        "color-green" : 1.0,
                                        "color-red" : 1.0,
                                        "size" : 96.0,
                                        "tracking" : 0.0,
                                        "name" : "Dosis",
                                        "weight" : "Semi Bold"
                                      },
                                      "textAttributes" : {
                                        "type" : "textAttributeList",
                                        "keyframes" : [
                                          {
                                            "endTime" : 0,
                                            "time" : 0,
                                            "value" : [{"name":"underline","rangeEnd":20,"rangeStart":0,"value":0,"valueType":"int"},{"name":"strikethrough","rangeEnd":20,"rangeStart":0,"value":0,"valueType":"int"},{"name":"fontName","rangeEnd":20,"rangeStart":0,"value":"Roboto","valueType":"string"},{"name":"kerning","rangeEnd":20,"rangeStart":0,"value":0.049883078231292483,"valueType":"double"},{"name":"fontItalic","rangeEnd":20,"rangeStart":0,"value":0,"valueType":"int"},{"name":"fontWeight","rangeEnd":20,"rangeStart":0,"value":700,"valueType":"int"},{"name":"fontSize","rangeEnd":20,"rangeStart":0,"value":86,"valueType":"double"},{"name":"fgColor","rangeEnd":20,"rangeStart":0,"value":"(110,110,110,255)","valueType":"color"}],
                                            "duration" : 0
                                          }
                                        ]
                                      }
                                    },
                                    "attributes" : {
                                      "ident" : "",
                                      "autoRotateText" : true
                                    },
                                    "parameters" : {
                                      "translation1" : -2.0,
                                      "sourceCrop0" : 0.0,
                                      "sourceCrop1" : 0.0,
                                      "sourceCrop2" : 0.0,
                                      "sourceCrop3" : 0.0,
                                      "geometryCrop0" : 0.0,
                                      "geometryCrop1" : 0.0,
                                      "geometryCrop2" : 0.0,
                                      "geometryCrop3" : 0.0
                                    },
                                    "effects" : [

                                    ],
                                    "start" : 0,
                                    "duration" : 3528000000,
                                    "mediaStart" : 0,
                                    "mediaDuration" : 3528000000,
                                    "scalar" : 1,
                                    "metadata" : {
                                      "AppliedThemeId" : "",
                                      "clipSpeedAttribute" : false,
                                      "effectApplied" : "none",
                                      "lockAspectRatio" : false
                                    },
                                    "animationTracks" : {

                                    }
                                  }
                                ],
                                  "ident" : "",
                                  "audioMuted" : false,
                                  "videoHidden" : false,
                                  "magnetic" : false,
                                  "matte" : 0,
                                  "solo" : false,
                                  "metadata" : {
                                    "IsLocked" : "False",
                                    "WinTrackHeight" : "56",
                                    "trackHeight" : "54"
                                  }
                              }
                            ],
                            "attributes" : {
                              "ident" : "BP-Title-11",
                              "widthAttr" : 1405.0,
                              "heightAttr" : 167.002,
                              "gain" : 1.0,
                              "mixToMono" : false,
                              "assetProperties" : [
                                {
                                  "type" : 0,
                                  "name" : "Title",
                                  "objects" : [ 214 ],
                                  "themeMappings" :  {
                                    "font-color" : "foreground-1"
                                  }
                                },
                                {
                                  "type" : 1,
                                  "name" : "Fill",
                                  "objects" : [ 212 ],
                                  "themeMappings" :  {
                                    "fill" : "background-1"
                                  }
                                }
                              ]
                            },
                            "effects" : [

                            ],
                            "start" : 0,
                            "duration" : 3528000000,
                            "mediaStart" : 0.0,
                            "mediaDuration" : 3528000000.0,
                            "scalar" : 1,
                            "metadata" : {
                              "clipSpeedAttribute" : false,
                              "effectApplied" : "none",
                              "isOpen" : false,
                              "lockAspectRatio" : true
                            },
                            "animationTracks" : {
                              "visual" : [
                                {
                                  "endTime" : 552720000,
                                  "duration" : 552720000,
                                  "range" : [ 0, 552720000],
                                  "interp" : "eioe"
                                },
                                {
                                  "endTime" : 1775760000,
                                  "duration" : 399840000,
                                  "range" : [ 1375920000, 399840000],
                                  "interp" : "eioe"
                                }
                              ]
                            }
                          }
                        ],
                          "ident" : "",
                          "audioMuted" : false,
                          "videoHidden" : false,
                          "magnetic" : false,
                          "matte" : 0,
                          "solo" : false,
                          "metadata" : {
                            "IsLocked" : "False",
                            "WinTrackHeight" : "56",
                            "trackHeight" : "54"
                          }
                      },
                      {
                        "trackIndex" : 1,
                        "medias" : [
                          {
                            "id" : 215,
                            "_type" : "Group",
                            "parameters" : {
                              "translation0" : {
                                "type" : "double",
                                "defaultValue" : 0.0,
                                "keyframes" : [
                                  {
                                    "endTime" : 552720000,
                                    "time" : 0,
                                    "value" : 0.0,
                                    "interp" : "eioe",
                                    "duration" : 552720000
                                  },
                                  {
                                    "endTime" : 1775760000,
                                    "time" : 1375920000,
                                    "value" : 0.0,
                                    "interp" : "eioe",
                                    "duration" : 399840000
                                  }
                                ]
                              },
                              "translation1" : {
                                "type" : "double",
                                "defaultValue" : -144.610046386719,
                                "keyframes" : [
                                  {
                                    "endTime" : 552720000,
                                    "time" : 0,
                                    "value" : 0.0,
                                    "interp" : "eioe",
                                    "duration" : 552720000
                                  },
                                  {
                                    "endTime" : 1775760000,
                                    "time" : 1375920000,
                                    "value" : -144.610046386719,
                                    "interp" : "eioe",
                                    "duration" : 399840000
                                  }
                                ]
                              },
                              "sourceCrop0" : 0.0,
                              "sourceCrop1" : 0.0,
                              "sourceCrop2" : 0.0,
                              "sourceCrop3" : 0.0,
                              "geometryCrop0" : 0.0,
                              "geometryCrop1" : 0.0,
                              "geometryCrop2" : 0.0,
                              "geometryCrop3" : 0.0,
                              "opacity" : {
                                "type" : "double",
                                "defaultValue" : 1.0,
                                "keyframes" : [
                                  {
                                    "endTime" : 552720000,
                                    "time" : 0,
                                    "value" : 1.0,
                                    "interp" : "eioe",
                                    "duration" : 552720000
                                  }
                                ]
                              },
                              "volume" : 1.0
                            },
                            "tracks" : [
                              {
                                "trackIndex" : 0,
                                "medias" : [
                                  {
                                    "id" : 216,
                                    "_type" : "Callout",
                                    "def" : {
                                      "kind" : "remix",
                                      "shape" : "shape-rectangle",
                                      "style" : "bold",
                                      "fill-color-blue" : 0.913725490196078,
                                      "fill-color-green" : 0.949019607843137,
                                      "fill-color-opacity" : 1.0,
                                      "fill-color-red" : 0.933333333333333,
                                      "hasDropShadow" : 0.0,
                                      "height" : 163.002035140991,
                                      "savedXScale" : 1.0,
                                      "savedYScale" : 1.0,
                                      "stroke-color-blue" : 1.0,
                                      "stroke-color-green" : 1.0,
                                      "stroke-color-opacity" : 1.0,
                                      "stroke-color-red" : 1.0,
                                      "stroke-width" : 0.0,
                                      "width" : 1403.00212860107,
                                      "custom" : "Y",
                                      "fill-style" : "solid",
                                      "stroke-style" : "solid"
                                    },
                                    "attributes" : {
                                      "ident" : "",
                                      "autoRotateText" : true
                                    },
                                    "parameters" : {
                                      "anchor0" : -1.0,
                                      "anchor1" : 2.0,
                                      "sourceCrop0" : 0.0,
                                      "sourceCrop1" : 0.0,
                                      "sourceCrop2" : 0.0,
                                      "sourceCrop3" : 0.0,
                                      "geometryCrop0" : 0.0,
                                      "geometryCrop1" : 0.0,
                                      "geometryCrop2" : 0.0,
                                      "geometryCrop3" : 0.0
                                    },
                                    "effects" : [

                                    ],
                                    "start" : 0,
                                    "duration" : 3528000000,
                                    "mediaStart" : 0,
                                    "mediaDuration" : 3528000000,
                                    "scalar" : 1,
                                    "metadata" : {
                                      "AppliedThemeId" : "",
                                      "clipSpeedAttribute" : false,
                                      "effectApplied" : "none",
                                      "lockAspectRatio" : false
                                    },
                                    "animationTracks" : {

                                    }
                                  }
                                ],
                                  "ident" : "",
                                  "audioMuted" : false,
                                  "videoHidden" : false,
                                  "magnetic" : false,
                                  "matte" : 0,
                                  "solo" : false,
                                  "metadata" : {
                                    "IsLocked" : "False",
                                    "WinTrackHeight" : "56",
                                    "trackHeight" : "54"
                                  }
                              },
                              {
                                "trackIndex" : 1,
                                "medias" : [
                                  {
                                    "id" : 217,
                                    "_type" : "Callout",
                                    "def" : {
                                      "kind" : "remix",
                                      "shape" : "shape-rectangle",
                                      "style" : "bold",
                                      "fill-color-blue" : 0.756862759590149,
                                      "fill-color-green" : 0.18823529779911,
                                      "fill-color-opacity" : 1.0,
                                      "fill-color-red" : 0.960784316062927,
                                      "hasDropShadow" : 0.0,
                                      "height" : 160.0,
                                      "savedXScale" : 1.0,
                                      "savedYScale" : 1.0,
                                      "stroke-color-blue" : 0.886274516582489,
                                      "stroke-color-green" : 0.200000002980232,
                                      "stroke-color-opacity" : 0.0,
                                      "stroke-color-red" : 0.376470595598221,
                                      "stroke-width" : 0.0,
                                      "width" : 1400.0,
                                      "custom" : "Y",
                                      "fill-style" : "solid",
                                      "stroke-style" : "solid"
                                    },
                                    "attributes" : {
                                      "ident" : "",
                                      "autoRotateText" : true
                                    },
                                    "parameters" : {
                                      "sourceCrop0" : 0.0,
                                      "sourceCrop1" : 0.0,
                                      "sourceCrop2" : 0.0,
                                      "sourceCrop3" : 0.0,
                                      "geometryCrop0" : 0.0,
                                      "geometryCrop1" : 0.0,
                                      "geometryCrop2" : 0.0,
                                      "geometryCrop3" : 0.0
                                    },
                                    "effects" : [

                                    ],
                                    "start" : 0,
                                    "duration" : 3528000000,
                                    "mediaStart" : 0,
                                    "mediaDuration" : 3528000000,
                                    "scalar" : 1,
                                    "metadata" : {
                                      "AppliedThemeId" : "",
                                      "clipSpeedAttribute" : false,
                                      "effectApplied" : "none"
                                    },
                                    "animationTracks" : {

                                    }
                                  }
                                ],
                                  "ident" : "",
                                  "audioMuted" : false,
                                  "videoHidden" : false,
                                  "magnetic" : false,
                                  "matte" : 1,
                                  "solo" : false,
                                  "metadata" : {
                                    "IsLocked" : "False",
                                    "WinTrackHeight" : "56",
                                    "trackHeight" : "54"
                                  }
                              }
                            ],
                            "attributes" : {
                              "ident" : "Rect-1400x1600-Mask",
                              "widthAttr" : 1405.0,
                              "heightAttr" : 167.002,
                              "gain" : 1.0,
                              "mixToMono" : false
                            },
                            "effects" : [

                            ],
                            "start" : 0,
                            "duration" : 3528000000,
                            "mediaStart" : 0.0,
                            "mediaDuration" : 3528000000.0,
                            "scalar" : 1,
                            "metadata" : {
                              "clipSpeedAttribute" : false,
                              "effectApplied" : "none",
                              "isOpen" : false,
                              "lockAspectRatio" : true
                            },
                            "animationTracks" : {
                              "visual" : [
                                {
                                  "endTime" : 552720000,
                                  "duration" : 552720000,
                                  "range" : [ 0, 552720000],
                                  "interp" : "eioe"
                                },
                                {
                                  "endTime" : 1775760000,
                                  "duration" : 399840000,
                                  "range" : [ 1375920000, 399840000],
                                  "interp" : "eioe"
                                }
                              ]
                            }
                          }
                        ],
                          "ident" : "",
                          "audioMuted" : false,
                          "videoHidden" : false,
                          "magnetic" : false,
                          "matte" : 1,
                          "solo" : false,
                          "metadata" : {
                            "IsLocked" : "False",
                            "WinTrackHeight" : "56",
                            "trackHeight" : "54"
                          }
                      },
                      {
                        "trackIndex" : 2,
                        "medias" : [
                          {
                            "id" : 218,
                            "_type" : "Group",
                            "parameters" : {
                              "translation0" : {
                                "type" : "double",
                                "defaultValue" : 0.0,
                                "keyframes" : [
                                  {
                                    "endTime" : 552720000,
                                    "time" : 0,
                                    "value" : 0.0,
                                    "interp" : "eioe",
                                    "duration" : 552720000
                                  },
                                  {
                                    "endTime" : 1775760000,
                                    "time" : 1375920000,
                                    "value" : 0.0,
                                    "interp" : "eioe",
                                    "duration" : 399840000
                                  }
                                ]
                              },
                              "translation1" : {
                                "type" : "double",
                                "defaultValue" : -233.610046386719,
                                "keyframes" : [
                                  {
                                    "endTime" : 552720000,
                                    "time" : 0,
                                    "value" : 90.0,
                                    "interp" : "eioe",
                                    "duration" : 552720000
                                  },
                                  {
                                    "endTime" : 1775760000,
                                    "time" : 1375920000,
                                    "value" : -233.610046386719,
                                    "interp" : "eioe",
                                    "duration" : 399840000
                                  }
                                ]
                              },
                              "sourceCrop0" : 0.0,
                              "sourceCrop1" : 0.0,
                              "sourceCrop2" : 0.0,
                              "sourceCrop3" : 0.0,
                              "geometryCrop0" : 0.0,
                              "geometryCrop1" : 0.0,
                              "geometryCrop2" : 0.0,
                              "geometryCrop3" : 0.0,
                              "opacity" : {
                                "type" : "double",
                                "defaultValue" : 1.0,
                                "keyframes" : [
                                  {
                                    "endTime" : 552720000,
                                    "time" : 0,
                                    "value" : 1.0,
                                    "interp" : "eioe",
                                    "duration" : 552720000
                                  }
                                ]
                              },
                              "volume" : 1.0
                            },
                            "tracks" : [
                              {
                                "trackIndex" : 0,
                                "medias" : [
                                  {
                                    "id" : 219,
                                    "_type" : "Callout",
                                    "def" : {
                                      "kind" : "remix",
                                      "shape" : "shape-rectangle",
                                      "style" : "bold",
                                      "fill-color-blue" : 0.2196078431,
                                      "fill-color-green" : 0.8745098039,
                                      "fill-color-opacity" : 1.0,
                                      "fill-color-red" : 1.0,
                                      "hasDropShadow" : 0.0,
                                      "height" : 163.002035140991,
                                      "savedXScale" : 1.0,
                                      "savedYScale" : 1.0,
                                      "stroke-color-blue" : 1.0,
                                      "stroke-color-green" : 1.0,
                                      "stroke-color-opacity" : 1.0,
                                      "stroke-color-red" : 1.0,
                                      "stroke-width" : 0.0,
                                      "width" : 1403.00212860107,
                                      "custom" : "Y",
                                      "fill-style" : "solid",
                                      "stroke-style" : "solid"
                                    },
                                    "attributes" : {
                                      "ident" : "",
                                      "autoRotateText" : true
                                    },
                                    "parameters" : {
                                      "anchor0" : -1.0,
                                      "anchor1" : 2.0,
                                      "sourceCrop0" : 0.0,
                                      "sourceCrop1" : 0.0,
                                      "sourceCrop2" : 0.0,
                                      "sourceCrop3" : 0.0,
                                      "geometryCrop0" : 0.0,
                                      "geometryCrop1" : 0.0,
                                      "geometryCrop2" : 0.0,
                                      "geometryCrop3" : 0.0
                                    },
                                    "effects" : [

                                    ],
                                    "start" : 0,
                                    "duration" : 3528000000,
                                    "mediaStart" : 0,
                                    "mediaDuration" : 3528000000,
                                    "scalar" : 1,
                                    "metadata" : {
                                      "AppliedThemeId" : "",
                                      "clipSpeedAttribute" : false,
                                      "effectApplied" : "none",
                                      "lockAspectRatio" : false
                                    },
                                    "animationTracks" : {

                                    }
                                  }
                                ],
                                  "ident" : "",
                                  "audioMuted" : false,
                                  "videoHidden" : false,
                                  "magnetic" : false,
                                  "matte" : 0,
                                  "solo" : false,
                                  "metadata" : {
                                    "IsLocked" : "False",
                                    "WinTrackHeight" : "56",
                                    "trackHeight" : "54"
                                  }
                              },
                              {
                                "trackIndex" : 1,
                                "medias" : [
                                  {
                                    "id" : 220,
                                    "_type" : "Callout",
                                    "def" : {
                                      "kind" : "remix",
                                      "shape" : "shape-rectangle",
                                      "style" : "bold",
                                      "fill-color-blue" : 0.756862759590149,
                                      "fill-color-green" : 0.18823529779911,
                                      "fill-color-opacity" : 1.0,
                                      "fill-color-red" : 0.960784316062927,
                                      "hasDropShadow" : 0.0,
                                      "height" : 160.0,
                                      "savedXScale" : 1.0,
                                      "savedYScale" : 1.0,
                                      "stroke-color-blue" : 0.886274516582489,
                                      "stroke-color-green" : 0.200000002980232,
                                      "stroke-color-opacity" : 0.0,
                                      "stroke-color-red" : 0.376470595598221,
                                      "stroke-width" : 0.0,
                                      "width" : 1400.0,
                                      "custom" : "Y",
                                      "fill-style" : "solid",
                                      "stroke-style" : "solid"
                                    },
                                    "attributes" : {
                                      "ident" : "",
                                      "autoRotateText" : true
                                    },
                                    "parameters" : {
                                      "translation1" : {
                                        "type" : "double",
                                        "defaultValue" : -1.0,
                                        "keyframes" : [
                                          {
                                            "endTime" : 270480000,
                                            "time" : 0,
                                            "value" : 0.0,
                                            "duration" : 270480000
                                          }
                                        ]
                                      },
                                      "scale0" : {
                                        "type" : "double",
                                        "defaultValue" : 1.0,
                                        "keyframes" : [
                                          {
                                            "endTime" : 270480000,
                                            "time" : 0,
                                            "value" : 1.0,
                                            "duration" : 270480000
                                          }
                                        ]
                                      },
                                      "scale1" : {
                                        "type" : "double",
                                        "defaultValue" : 0.125,
                                        "keyframes" : [
                                          {
                                            "endTime" : 270480000,
                                            "time" : 0,
                                            "value" : 0.5,
                                            "duration" : 270480000
                                          },
                                          {
                                            "endTime" : 552720000,
                                            "time" : 282240000,
                                            "value" : 0.125,
                                            "duration" : 270480000
                                          }
                                        ]
                                      },
                                      "sourceCrop0" : 0.0,
                                      "sourceCrop1" : 0.0,
                                      "sourceCrop2" : 0.0,
                                      "sourceCrop3" : 0.0,
                                      "geometryCrop0" : 0.0,
                                      "geometryCrop1" : 0.0,
                                      "geometryCrop2" : 0.0,
                                      "geometryCrop3" : 0.0
                                    },
                                    "effects" : [

                                    ],
                                    "start" : 0,
                                    "duration" : 3528000000,
                                    "mediaStart" : 0,
                                    "mediaDuration" : 3528000000,
                                    "scalar" : 1,
                                    "metadata" : {
                                      "AppliedThemeId" : "",
                                      "clipSpeedAttribute" : false,
                                      "effectApplied" : "none"
                                    },
                                    "animationTracks" : {
                                      "visual" : [
                                        {
                                          "endTime" : 270480000,
                                          "duration" : 270480000,
                                          "range" : [ 0, 270480000]
                                        },
                                        {
                                          "endTime" : 552720000,
                                          "duration" : 270480000,
                                          "range" : [ 282240000, 270480000]
                                        }
                                      ]
                                    }
                                  }
                                ],
                                  "ident" : "",
                                  "audioMuted" : false,
                                  "videoHidden" : false,
                                  "magnetic" : false,
                                  "matte" : 1,
                                  "solo" : false,
                                  "metadata" : {
                                    "IsLocked" : "False",
                                    "WinTrackHeight" : "56",
                                    "trackHeight" : "54"
                                  }
                              }
                            ],
                            "attributes" : {
                              "ident" : "Animated-Pulse-1400x20-To-1400x80",
                              "widthAttr" : 1405.0,
                              "heightAttr" : 167.002,
                              "gain" : 1.0,
                              "mixToMono" : false,
                              "assetProperties" : [
                                {
                                  "type" : 1,
                                  "name" : "Color",
                                  "objects" : [ 219 ],
                                  "themeMappings" :  {
                                    "fill" : "accent-1"
                                  }
                                }
                              ]
                            },
                            "effects" : [

                            ],
                            "start" : 0,
                            "duration" : 3528000000,
                            "mediaStart" : 0.0,
                            "mediaDuration" : 3528000000.0,
                            "scalar" : 1,
                            "metadata" : {
                              "AppliedThemeId" : "8e797988-b823-4beb-b251-1d31b461ba07",
                              "clipSpeedAttribute" : false,
                              "effectApplied" : "none",
                              "isOpen" : false,
                              "lockAspectRatio" : true
                            },
                            "animationTracks" : {
                              "visual" : [
                                {
                                  "endTime" : 552720000,
                                  "duration" : 552720000,
                                  "range" : [ 0, 552720000],
                                  "interp" : "eioe"
                                },
                                {
                                  "endTime" : 1775760000,
                                  "duration" : 399840000,
                                  "range" : [ 1375920000, 399840000],
                                  "interp" : "eioe"
                                }
                              ]
                            }
                          }
                        ],
                          "ident" : "",
                          "audioMuted" : false,
                          "videoHidden" : false,
                          "magnetic" : false,
                          "matte" : 0,
                          "solo" : false,
                          "metadata" : {
                            "IsLocked" : "False",
                            "WinTrackHeight" : "56",
                            "trackHeight" : "54"
                          }
                      },
                      {
                        "trackIndex" : 3,
                        "medias" : [
                          {
                            "id" : 221,
                            "_type" : "Group",
                            "parameters" : {
                              "translation0" : {
                                "type" : "double",
                                "defaultValue" : 0.0,
                                "keyframes" : [
                                  {
                                    "endTime" : 552720000,
                                    "time" : 0,
                                    "value" : 0.0,
                                    "interp" : "eioe",
                                    "duration" : 552720000
                                  },
                                  {
                                    "endTime" : 1775760000,
                                    "time" : 1375920000,
                                    "value" : 0.0,
                                    "interp" : "eioe",
                                    "duration" : 399840000
                                  }
                                ]
                              },
                              "translation1" : {
                                "type" : "double",
                                "defaultValue" : -143.610046386719,
                                "keyframes" : [
                                  {
                                    "endTime" : 552720000,
                                    "time" : 0,
                                    "value" : 0.0,
                                    "interp" : "eioe",
                                    "duration" : 552720000
                                  },
                                  {
                                    "endTime" : 1775760000,
                                    "time" : 1375920000,
                                    "value" : -143.610046386719,
                                    "interp" : "eioe",
                                    "duration" : 399840000
                                  }
                                ]
                              },
                              "sourceCrop0" : 0.0,
                              "sourceCrop1" : 0.0,
                              "sourceCrop2" : 0.0,
                              "sourceCrop3" : 0.0,
                              "geometryCrop0" : 0.0,
                              "geometryCrop1" : 0.0,
                              "geometryCrop2" : 0.0,
                              "geometryCrop3" : 0.0,
                              "opacity" : {
                                "type" : "double",
                                "defaultValue" : 1.0,
                                "keyframes" : [
                                  {
                                    "endTime" : 552720000,
                                    "time" : 0,
                                    "value" : 1.0,
                                    "interp" : "eioe",
                                    "duration" : 552720000
                                  }
                                ]
                              },
                              "volume" : 1.0
                            },
                            "tracks" : [
                              {
                                "trackIndex" : 0,
                                "medias" : [
                                  {
                                    "id" : 222,
                                    "_type" : "Callout",
                                    "def" : {
                                      "kind" : "remix",
                                      "shape" : "shape-rectangle",
                                      "style" : "bold",
                                      "fill-color-blue" : 0.913725490196078,
                                      "fill-color-green" : 0.949019607843137,
                                      "fill-color-opacity" : 1.0,
                                      "fill-color-red" : 0.933333333333333,
                                      "hasDropShadow" : 0.0,
                                      "height" : 163.002035140991,
                                      "savedXScale" : 1.0,
                                      "savedYScale" : 1.0,
                                      "stroke-color-blue" : 1.0,
                                      "stroke-color-green" : 1.0,
                                      "stroke-color-opacity" : 1.0,
                                      "stroke-color-red" : 1.0,
                                      "stroke-width" : 0.0,
                                      "width" : 1403.00212860107,
                                      "custom" : "Y",
                                      "fill-style" : "solid",
                                      "stroke-style" : "solid"
                                    },
                                    "attributes" : {
                                      "ident" : "",
                                      "autoRotateText" : true
                                    },
                                    "parameters" : {
                                      "anchor0" : -1.0,
                                      "anchor1" : 2.0,
                                      "sourceCrop0" : 0.0,
                                      "sourceCrop1" : 0.0,
                                      "sourceCrop2" : 0.0,
                                      "sourceCrop3" : 0.0,
                                      "geometryCrop0" : 0.0,
                                      "geometryCrop1" : 0.0,
                                      "geometryCrop2" : 0.0,
                                      "geometryCrop3" : 0.0
                                    },
                                    "effects" : [

                                    ],
                                    "start" : 0,
                                    "duration" : 3528000000,
                                    "mediaStart" : 0,
                                    "mediaDuration" : 3528000000,
                                    "scalar" : 1,
                                    "metadata" : {
                                      "AppliedThemeId" : "",
                                      "clipSpeedAttribute" : false,
                                      "effectApplied" : "none",
                                      "lockAspectRatio" : false
                                    },
                                    "animationTracks" : {

                                    }
                                  }
                                ],
                                  "ident" : "",
                                  "audioMuted" : false,
                                  "videoHidden" : false,
                                  "magnetic" : false,
                                  "matte" : 0,
                                  "solo" : false,
                                  "metadata" : {
                                    "IsLocked" : "False",
                                    "WinTrackHeight" : "56",
                                    "trackHeight" : "54"
                                  }
                              },
                              {
                                "trackIndex" : 1,
                                "medias" : [
                                  {
                                    "id" : 223,
                                    "_type" : "Callout",
                                    "def" : {
                                      "kind" : "remix",
                                      "shape" : "shape-rectangle",
                                      "style" : "bold",
                                      "fill-color-blue" : 0.756862759590149,
                                      "fill-color-green" : 0.18823529779911,
                                      "fill-color-opacity" : 1.0,
                                      "fill-color-red" : 0.960784316062927,
                                      "hasDropShadow" : 0.0,
                                      "height" : 160.0,
                                      "savedXScale" : 1.0,
                                      "savedYScale" : 1.0,
                                      "stroke-color-blue" : 0.886274516582489,
                                      "stroke-color-green" : 0.200000002980232,
                                      "stroke-color-opacity" : 0.0,
                                      "stroke-color-red" : 0.376470595598221,
                                      "stroke-width" : 0.0,
                                      "width" : 1400.0,
                                      "custom" : "Y",
                                      "fill-style" : "solid",
                                      "stroke-style" : "solid"
                                    },
                                    "attributes" : {
                                      "ident" : "",
                                      "autoRotateText" : true
                                    },
                                    "parameters" : {
                                      "sourceCrop0" : 0.0,
                                      "sourceCrop1" : 0.0,
                                      "sourceCrop2" : 0.0,
                                      "sourceCrop3" : 0.0,
                                      "geometryCrop0" : 0.0,
                                      "geometryCrop1" : 0.0,
                                      "geometryCrop2" : 0.0,
                                      "geometryCrop3" : 0.0
                                    },
                                    "effects" : [

                                    ],
                                    "start" : 0,
                                    "duration" : 3528000000,
                                    "mediaStart" : 0,
                                    "mediaDuration" : 3528000000,
                                    "scalar" : 1,
                                    "metadata" : {
                                      "AppliedThemeId" : "",
                                      "clipSpeedAttribute" : false,
                                      "effectApplied" : "none"
                                    },
                                    "animationTracks" : {

                                    }
                                  }
                                ],
                                  "ident" : "",
                                  "audioMuted" : false,
                                  "videoHidden" : false,
                                  "magnetic" : false,
                                  "matte" : 1,
                                  "solo" : false,
                                  "metadata" : {
                                    "IsLocked" : "False",
                                    "WinTrackHeight" : "56",
                                    "trackHeight" : "54"
                                  }
                              }
                            ],
                            "attributes" : {
                              "ident" : "Rect-1400x1600-Mask",
                              "widthAttr" : 1405.0,
                              "heightAttr" : 167.002,
                              "gain" : 1.0,
                              "mixToMono" : false
                            },
                            "effects" : [

                            ],
                            "start" : 0,
                            "duration" : 3528000000,
                            "mediaStart" : 0.0,
                            "mediaDuration" : 3528000000.0,
                            "scalar" : 1,
                            "metadata" : {
                              "clipSpeedAttribute" : false,
                              "effectApplied" : "none",
                              "isOpen" : false,
                              "lockAspectRatio" : true
                            },
                            "animationTracks" : {
                              "visual" : [
                                {
                                  "endTime" : 552720000,
                                  "duration" : 552720000,
                                  "range" : [ 0, 552720000],
                                  "interp" : "eioe"
                                },
                                {
                                  "endTime" : 1775760000,
                                  "duration" : 399840000,
                                  "range" : [ 1375920000, 399840000],
                                  "interp" : "eioe"
                                }
                              ]
                            }
                          }
                        ],
                          "ident" : "",
                          "audioMuted" : false,
                          "videoHidden" : false,
                          "magnetic" : false,
                          "matte" : 1,
                          "solo" : false,
                          "metadata" : {
                            "IsLocked" : "False",
                            "WinTrackHeight" : "56",
                            "trackHeight" : "54"
                          }
                      }
                    ],
                    "attributes" : {
                      "ident" : "Broadcast-Title-012",
                      "widthAttr" : 1405.0,
                      "heightAttr" : 160.0,
                      "gain" : 1.0,
                      "mixToMono" : false,
                      "assetProperties" : [
                        {
                          "type" : 0,
                          "name" : "Title",
                          "objects" : [ 214 ],
                          "themeMappings" :  {
                            "font-color" : "foreground-1"
                          }
                        },
                        {
                          "type" : 1,
                          "name" : "Fill",
                          "objects" : [ 212 ],
                          "themeMappings" :  {
                            "fill" : "background-1"
                          }
                        },
                        {
                          "type" : 1,
                          "name" : "Wiper",
                          "objects" : [ 219 ],
                          "themeMappings" :  {
                            "fill" : "foreground-1"
                          }
                        }
                      ]
                    },
                    "effects" : [

                    ],
                    "start" : 1928640000,
                    "duration" : 1764000000,
                    "mediaStart" : 0.0,
                    "mediaDuration" : 1764000000.0,
                    "scalar" : 1,
                    "metadata" : {
                      "AppliedThemeId" : "170ba59c-db5d-4b9a-a310-e7e99853a4b7",
                      "clipSpeedAttribute" : false,
                      "default-anchor0" : 0.0,
                      "default-anchor1" : 0.0,
                      "default-anchor2" : 0.0,
                      "default-geometryCrop0" : 0.0,
                      "default-height" : 160.0,
                      "default-rotation0" : 0.0,
                      "default-rotation1" : 0.0,
                      "default-rotation2" : 0.0,
                      "default-scale0" : 1.0,
                      "default-scale1" : 1.0,
                      "default-scale2" : 1.0,
                      "default-shear0" : 0.0,
                      "default-shear1" : 0.0,
                      "default-shear2" : 0.0,
                      "default-translation0" : 0.0,
                      "default-translation1" : 0.0,
                      "default-translation2" : 0.0,
                      "default-width" : 1405.0,
                      "effectApplied" : "none",
                      "isOpen" : false,
                      "lockAspectRatio" : true
                    },
                    "animationTracks" : {

                    }
                  }
                ]
              },
              {
                "trackIndex" : 101,
                "medias" : [
                  {
                    "id" : 224,
                    "_type" : "Group",
                    "parameters" : {
                      "translation0" : 350.0,
                      "translation1" : 400.0,
                      "scale0" : 0.213523131672598,
                      "scale1" : 0.21875,
                      "sourceCrop0" : 0.0,
                      "sourceCrop1" : 0.0,
                      "sourceCrop2" : 0.0,
                      "sourceCrop3" : 0.0,
                      "geometryCrop0" : 0.0,
                      "geometryCrop1" : 0.0,
                      "geometryCrop2" : 0.0,
                      "geometryCrop3" : 0.0,
                      "volume" : 1.0
                    },
                    "tracks" : [
                      {
                        "trackIndex" : 0,
                        "medias" : [
                          {
                            "id" : 225,
                            "_type" : "Group",
                            "parameters" : {
                              "translation0" : {
                                "type" : "double",
                                "defaultValue" : 0.0,
                                "keyframes" : [
                                  {
                                    "endTime" : 552720000,
                                    "time" : 0,
                                    "value" : 0.0,
                                    "interp" : "eioe",
                                    "duration" : 552720000
                                  },
                                  {
                                    "endTime" : 1775760000,
                                    "time" : 1375920000,
                                    "value" : 0.0,
                                    "interp" : "eioe",
                                    "duration" : 399840000
                                  }
                                ]
                              },
                              "translation1" : {
                                "type" : "double",
                                "defaultValue" : -305.610046386719,
                                "keyframes" : [
                                  {
                                    "endTime" : 552720000,
                                    "time" : 0,
                                    "value" : 0.0,
                                    "interp" : "eioe",
                                    "duration" : 552720000
                                  },
                                  {
                                    "endTime" : 1775760000,
                                    "time" : 1375920000,
                                    "value" : -304.610046386719,
                                    "interp" : "eioe",
                                    "duration" : 399840000
                                  }
                                ]
                              },
                              "sourceCrop0" : 0.0,
                              "sourceCrop1" : 0.0,
                              "sourceCrop2" : 0.0,
                              "sourceCrop3" : 0.0,
                              "geometryCrop0" : 0.0,
                              "geometryCrop1" : 0.0,
                              "geometryCrop2" : 0.0,
                              "geometryCrop3" : 0.0,
                              "volume" : 1.0
                            },
                            "tracks" : [
                              {
                                "trackIndex" : 0,
                                "medias" : [
                                  {
                                    "id" : 226,
                                    "_type" : "Group",
                                    "parameters" : {
                                      "sourceCrop0" : 0.0,
                                      "sourceCrop1" : 0.0,
                                      "sourceCrop2" : 0.0,
                                      "sourceCrop3" : 0.0,
                                      "geometryCrop0" : 0.0,
                                      "geometryCrop1" : 0.0,
                                      "geometryCrop2" : 0.0,
                                      "geometryCrop3" : 0.0,
                                      "volume" : 1.0
                                    },
                                    "tracks" : [
                                      {
                                        "trackIndex" : 0,
                                        "medias" : [
                                          {
                                            "id" : 227,
                                            "_type" : "Callout",
                                            "def" : {
                                              "kind" : "remix",
                                              "shape" : "shape-rectangle",
                                              "style" : "bold",
                                              "fill-color-blue" : 1.0,
                                              "fill-color-green" : 1.0,
                                              "fill-color-opacity" : 1.0,
                                              "fill-color-red" : 1.0,
                                              "hasDropShadow" : 0.0,
                                              "height" : 163.002035140991,
                                              "savedXScale" : 1.0,
                                              "savedYScale" : 1.0,
                                              "stroke-color-blue" : 1.0,
                                              "stroke-color-green" : 1.0,
                                              "stroke-color-opacity" : 1.0,
                                              "stroke-color-red" : 1.0,
                                              "stroke-width" : 0.0,
                                              "width" : 1403.00212860107,
                                              "custom" : "Y",
                                              "fill-style" : "solid",
                                              "stroke-style" : "solid"
                                            },
                                            "attributes" : {
                                              "ident" : "",
                                              "autoRotateText" : true
                                            },
                                            "parameters" : {
                                              "anchor0" : -1.0,
                                              "anchor1" : 2.0,
                                              "sourceCrop0" : 0.0,
                                              "sourceCrop1" : 0.0,
                                              "sourceCrop2" : 0.0,
                                              "sourceCrop3" : 0.0,
                                              "geometryCrop0" : 0.0,
                                              "geometryCrop1" : 0.0,
                                              "geometryCrop2" : 0.0,
                                              "geometryCrop3" : 0.0
                                            },
                                            "effects" : [

                                            ],
                                            "start" : 0,
                                            "duration" : 3528000000,
                                            "mediaStart" : 0,
                                            "mediaDuration" : 3528000000,
                                            "scalar" : 1,
                                            "metadata" : {
                                              "AppliedThemeId" : "",
                                              "clipSpeedAttribute" : false,
                                              "effectApplied" : "none",
                                              "lockAspectRatio" : false
                                            },
                                            "animationTracks" : {

                                            }
                                          }
                                        ],
                                          "ident" : "",
                                          "audioMuted" : false,
                                          "videoHidden" : false,
                                          "magnetic" : false,
                                          "matte" : 0,
                                          "solo" : false,
                                          "metadata" : {
                                            "IsLocked" : "False",
                                            "WinTrackHeight" : "56",
                                            "trackHeight" : "54"
                                          }
                                      },
                                      {
                                        "trackIndex" : 1,
                                        "medias" : [
                                          {
                                            "id" : 228,
                                            "_type" : "Callout",
                                            "def" : {
                                              "kind" : "remix",
                                              "shape" : "shape-rectangle",
                                              "style" : "bold",
                                              "fill-color-blue" : 0.756862759590149,
                                              "fill-color-green" : 0.18823529779911,
                                              "fill-color-opacity" : 1.0,
                                              "fill-color-red" : 0.960784316062927,
                                              "hasDropShadow" : 0.0,
                                              "height" : 160.0,
                                              "savedXScale" : 1.0,
                                              "savedYScale" : 1.0,
                                              "stroke-color-blue" : 0.886274516582489,
                                              "stroke-color-green" : 0.200000002980232,
                                              "stroke-color-opacity" : 0.0,
                                              "stroke-color-red" : 0.376470595598221,
                                              "stroke-width" : 0.0,
                                              "width" : 1400.0,
                                              "custom" : "Y",
                                              "fill-style" : "solid",
                                              "stroke-style" : "solid"
                                            },
                                            "attributes" : {
                                              "ident" : "",
                                              "autoRotateText" : true
                                            },
                                            "parameters" : {
                                              "sourceCrop0" : 0.0,
                                              "sourceCrop1" : 0.0,
                                              "sourceCrop2" : 0.0,
                                              "sourceCrop3" : 0.0,
                                              "geometryCrop0" : 0.0,
                                              "geometryCrop1" : 0.0,
                                              "geometryCrop2" : 0.0,
                                              "geometryCrop3" : 0.0
                                            },
                                            "effects" : [

                                            ],
                                            "start" : 0,
                                            "duration" : 3528000000,
                                            "mediaStart" : 0,
                                            "mediaDuration" : 3528000000,
                                            "scalar" : 1,
                                            "metadata" : {
                                              "AppliedThemeId" : "",
                                              "clipSpeedAttribute" : false,
                                              "effectApplied" : "none"
                                            },
                                            "animationTracks" : {

                                            }
                                          }
                                        ],
                                          "ident" : "",
                                          "audioMuted" : false,
                                          "videoHidden" : false,
                                          "magnetic" : false,
                                          "matte" : 1,
                                          "solo" : false,
                                          "metadata" : {
                                            "IsLocked" : "False",
                                            "WinTrackHeight" : "56",
                                            "trackHeight" : "54"
                                          }
                                      }
                                    ],
                                    "attributes" : {
                                      "ident" : "Fill-1400x160",
                                      "widthAttr" : 1405.0,
                                      "heightAttr" : 167.002,
                                      "gain" : 1.0,
                                      "mixToMono" : false
                                    },
                                    "effects" : [

                                    ],
                                    "start" : 0,
                                    "duration" : 3528000000,
                                    "mediaStart" : 0.0,
                                    "mediaDuration" : 3528000000.0,
                                    "scalar" : 1,
                                    "metadata" : {
                                      "clipSpeedAttribute" : false,
                                      "effectApplied" : "none",
                                      "isOpen" : false,
                                      "lockAspectRatio" : true
                                    },
                                    "animationTracks" : {

                                    }
                                  }
                                ],
                                  "ident" : "",
                                  "audioMuted" : false,
                                  "videoHidden" : false,
                                  "magnetic" : false,
                                  "matte" : 0,
                                  "solo" : false,
                                  "metadata" : {
                                    "IsLocked" : "False",
                                    "WinTrackHeight" : "56",
                                    "trackHeight" : "54"
                                  }
                              },
                              {
                                "trackIndex" : 1,
                                "medias" : [
                                  {
                                    "id" : 229,
                                    "_type" : "Callout",
                                    "def" : {
                                      "kind" : "remix",
                                      "shape" : "text",
                                      "style" : "urban",
                                      "enable-ligatures" : 1.0,
                                      "hasDropShadow" : 0.0,
                                      "height" : 170.0,
                                      "line-spacing" : 0.0,
                                      "savedXScale" : 1.0,
                                      "savedYScale" : 1.0,
                                      "width" : 1400.0,
                                      "word-wrap" : 1.0,
                                      "custom" : "Y",
                                      "horizontal-alignment" : "left",
                                      "resize-behavior" : "resizeText",
                                      "text" : "move to top (first data)",
                                      "vertical-alignment" : "center",
                                      "font" : {
                                        "color-blue" : 1.0,
                                        "color-green" : 1.0,
                                        "color-red" : 1.0,
                                        "size" : 96.0,
                                        "tracking" : 0.0,
                                        "name" : "Dosis",
                                        "weight" : "Semi Bold"
                                      },
                                      "textAttributes" : {
                                        "type" : "textAttributeList",
                                        "keyframes" : [
                                          {
                                            "endTime" : 0,
                                            "time" : 0,
                                            "value" : [{"name":"underline","rangeEnd":24,"rangeStart":0,"value":0,"valueType":"int"},{"name":"strikethrough","rangeEnd":24,"rangeStart":0,"value":0,"valueType":"int"},{"name":"fontName","rangeEnd":24,"rangeStart":0,"value":"Roboto","valueType":"string"},{"name":"kerning","rangeEnd":24,"rangeStart":0,"value":0.049883078231292483,"valueType":"double"},{"name":"fontItalic","rangeEnd":24,"rangeStart":0,"value":0,"valueType":"int"},{"name":"fontWeight","rangeEnd":24,"rangeStart":0,"value":700,"valueType":"int"},{"name":"fontSize","rangeEnd":24,"rangeStart":0,"value":86,"valueType":"double"},{"name":"fgColor","rangeEnd":24,"rangeStart":0,"value":"(110,110,110,255)","valueType":"color"}],
                                            "duration" : 0
                                          }
                                        ]
                                      }
                                    },
                                    "attributes" : {
                                      "ident" : "",
                                      "autoRotateText" : true
                                    },
                                    "parameters" : {
                                      "translation1" : -2.0,
                                      "sourceCrop0" : 0.0,
                                      "sourceCrop1" : 0.0,
                                      "sourceCrop2" : 0.0,
                                      "sourceCrop3" : 0.0,
                                      "geometryCrop0" : 0.0,
                                      "geometryCrop1" : 0.0,
                                      "geometryCrop2" : 0.0,
                                      "geometryCrop3" : 0.0
                                    },
                                    "effects" : [

                                    ],
                                    "start" : 0,
                                    "duration" : 3528000000,
                                    "mediaStart" : 0,
                                    "mediaDuration" : 3528000000,
                                    "scalar" : 1,
                                    "metadata" : {
                                      "AppliedThemeId" : "",
                                      "clipSpeedAttribute" : false,
                                      "effectApplied" : "none",
                                      "lockAspectRatio" : false
                                    },
                                    "animationTracks" : {

                                    }
                                  }
                                ],
                                  "ident" : "",
                                  "audioMuted" : false,
                                  "videoHidden" : false,
                                  "magnetic" : false,
                                  "matte" : 0,
                                  "solo" : false,
                                  "metadata" : {
                                    "IsLocked" : "False",
                                    "WinTrackHeight" : "56",
                                    "trackHeight" : "54"
                                  }
                              }
                            ],
                            "attributes" : {
                              "ident" : "BP-Title-11",
                              "widthAttr" : 1405.0,
                              "heightAttr" : 167.002,
                              "gain" : 1.0,
                              "mixToMono" : false,
                              "assetProperties" : [
                                {
                                  "type" : 0,
                                  "name" : "Title",
                                  "objects" : [ 229 ],
                                  "themeMappings" :  {
                                    "font-color" : "foreground-1"
                                  }
                                },
                                {
                                  "type" : 1,
                                  "name" : "Fill",
                                  "objects" : [ 227 ],
                                  "themeMappings" :  {
                                    "fill" : "background-1"
                                  }
                                }
                              ]
                            },
                            "effects" : [

                            ],
                            "start" : 0,
                            "duration" : 3528000000,
                            "mediaStart" : 0.0,
                            "mediaDuration" : 3528000000.0,
                            "scalar" : 1,
                            "metadata" : {
                              "clipSpeedAttribute" : false,
                              "effectApplied" : "none",
                              "isOpen" : false,
                              "lockAspectRatio" : true
                            },
                            "animationTracks" : {
                              "visual" : [
                                {
                                  "endTime" : 552720000,
                                  "duration" : 552720000,
                                  "range" : [ 0, 552720000],
                                  "interp" : "eioe"
                                },
                                {
                                  "endTime" : 1775760000,
                                  "duration" : 399840000,
                                  "range" : [ 1375920000, 399840000],
                                  "interp" : "eioe"
                                }
                              ]
                            }
                          }
                        ],
                          "ident" : "",
                          "audioMuted" : false,
                          "videoHidden" : false,
                          "magnetic" : false,
                          "matte" : 0,
                          "solo" : false,
                          "metadata" : {
                            "IsLocked" : "False",
                            "WinTrackHeight" : "56",
                            "trackHeight" : "54"
                          }
                      },
                      {
                        "trackIndex" : 1,
                        "medias" : [
                          {
                            "id" : 230,
                            "_type" : "Group",
                            "parameters" : {
                              "translation0" : {
                                "type" : "double",
                                "defaultValue" : 0.0,
                                "keyframes" : [
                                  {
                                    "endTime" : 552720000,
                                    "time" : 0,
                                    "value" : 0.0,
                                    "interp" : "eioe",
                                    "duration" : 552720000
                                  },
                                  {
                                    "endTime" : 1775760000,
                                    "time" : 1375920000,
                                    "value" : 0.0,
                                    "interp" : "eioe",
                                    "duration" : 399840000
                                  }
                                ]
                              },
                              "translation1" : {
                                "type" : "double",
                                "defaultValue" : -144.610046386719,
                                "keyframes" : [
                                  {
                                    "endTime" : 552720000,
                                    "time" : 0,
                                    "value" : 0.0,
                                    "interp" : "eioe",
                                    "duration" : 552720000
                                  },
                                  {
                                    "endTime" : 1775760000,
                                    "time" : 1375920000,
                                    "value" : -144.610046386719,
                                    "interp" : "eioe",
                                    "duration" : 399840000
                                  }
                                ]
                              },
                              "sourceCrop0" : 0.0,
                              "sourceCrop1" : 0.0,
                              "sourceCrop2" : 0.0,
                              "sourceCrop3" : 0.0,
                              "geometryCrop0" : 0.0,
                              "geometryCrop1" : 0.0,
                              "geometryCrop2" : 0.0,
                              "geometryCrop3" : 0.0,
                              "opacity" : {
                                "type" : "double",
                                "defaultValue" : 1.0,
                                "keyframes" : [
                                  {
                                    "endTime" : 552720000,
                                    "time" : 0,
                                    "value" : 1.0,
                                    "interp" : "eioe",
                                    "duration" : 552720000
                                  }
                                ]
                              },
                              "volume" : 1.0
                            },
                            "tracks" : [
                              {
                                "trackIndex" : 0,
                                "medias" : [
                                  {
                                    "id" : 231,
                                    "_type" : "Callout",
                                    "def" : {
                                      "kind" : "remix",
                                      "shape" : "shape-rectangle",
                                      "style" : "bold",
                                      "fill-color-blue" : 0.913725490196078,
                                      "fill-color-green" : 0.949019607843137,
                                      "fill-color-opacity" : 1.0,
                                      "fill-color-red" : 0.933333333333333,
                                      "hasDropShadow" : 0.0,
                                      "height" : 163.002035140991,
                                      "savedXScale" : 1.0,
                                      "savedYScale" : 1.0,
                                      "stroke-color-blue" : 1.0,
                                      "stroke-color-green" : 1.0,
                                      "stroke-color-opacity" : 1.0,
                                      "stroke-color-red" : 1.0,
                                      "stroke-width" : 0.0,
                                      "width" : 1403.00212860107,
                                      "custom" : "Y",
                                      "fill-style" : "solid",
                                      "stroke-style" : "solid"
                                    },
                                    "attributes" : {
                                      "ident" : "",
                                      "autoRotateText" : true
                                    },
                                    "parameters" : {
                                      "anchor0" : -1.0,
                                      "anchor1" : 2.0,
                                      "sourceCrop0" : 0.0,
                                      "sourceCrop1" : 0.0,
                                      "sourceCrop2" : 0.0,
                                      "sourceCrop3" : 0.0,
                                      "geometryCrop0" : 0.0,
                                      "geometryCrop1" : 0.0,
                                      "geometryCrop2" : 0.0,
                                      "geometryCrop3" : 0.0
                                    },
                                    "effects" : [

                                    ],
                                    "start" : 0,
                                    "duration" : 3528000000,
                                    "mediaStart" : 0,
                                    "mediaDuration" : 3528000000,
                                    "scalar" : 1,
                                    "metadata" : {
                                      "AppliedThemeId" : "",
                                      "clipSpeedAttribute" : false,
                                      "effectApplied" : "none",
                                      "lockAspectRatio" : false
                                    },
                                    "animationTracks" : {

                                    }
                                  }
                                ],
                                  "ident" : "",
                                  "audioMuted" : false,
                                  "videoHidden" : false,
                                  "magnetic" : false,
                                  "matte" : 0,
                                  "solo" : false,
                                  "metadata" : {
                                    "IsLocked" : "False",
                                    "WinTrackHeight" : "56",
                                    "trackHeight" : "54"
                                  }
                              },
                              {
                                "trackIndex" : 1,
                                "medias" : [
                                  {
                                    "id" : 232,
                                    "_type" : "Callout",
                                    "def" : {
                                      "kind" : "remix",
                                      "shape" : "shape-rectangle",
                                      "style" : "bold",
                                      "fill-color-blue" : 0.756862759590149,
                                      "fill-color-green" : 0.18823529779911,
                                      "fill-color-opacity" : 1.0,
                                      "fill-color-red" : 0.960784316062927,
                                      "hasDropShadow" : 0.0,
                                      "height" : 160.0,
                                      "savedXScale" : 1.0,
                                      "savedYScale" : 1.0,
                                      "stroke-color-blue" : 0.886274516582489,
                                      "stroke-color-green" : 0.200000002980232,
                                      "stroke-color-opacity" : 0.0,
                                      "stroke-color-red" : 0.376470595598221,
                                      "stroke-width" : 0.0,
                                      "width" : 1400.0,
                                      "custom" : "Y",
                                      "fill-style" : "solid",
                                      "stroke-style" : "solid"
                                    },
                                    "attributes" : {
                                      "ident" : "",
                                      "autoRotateText" : true
                                    },
                                    "parameters" : {
                                      "sourceCrop0" : 0.0,
                                      "sourceCrop1" : 0.0,
                                      "sourceCrop2" : 0.0,
                                      "sourceCrop3" : 0.0,
                                      "geometryCrop0" : 0.0,
                                      "geometryCrop1" : 0.0,
                                      "geometryCrop2" : 0.0,
                                      "geometryCrop3" : 0.0
                                    },
                                    "effects" : [

                                    ],
                                    "start" : 0,
                                    "duration" : 3528000000,
                                    "mediaStart" : 0,
                                    "mediaDuration" : 3528000000,
                                    "scalar" : 1,
                                    "metadata" : {
                                      "AppliedThemeId" : "",
                                      "clipSpeedAttribute" : false,
                                      "effectApplied" : "none"
                                    },
                                    "animationTracks" : {

                                    }
                                  }
                                ],
                                  "ident" : "",
                                  "audioMuted" : false,
                                  "videoHidden" : false,
                                  "magnetic" : false,
                                  "matte" : 1,
                                  "solo" : false,
                                  "metadata" : {
                                    "IsLocked" : "False",
                                    "WinTrackHeight" : "56",
                                    "trackHeight" : "54"
                                  }
                              }
                            ],
                            "attributes" : {
                              "ident" : "Rect-1400x1600-Mask",
                              "widthAttr" : 1405.0,
                              "heightAttr" : 167.002,
                              "gain" : 1.0,
                              "mixToMono" : false
                            },
                            "effects" : [

                            ],
                            "start" : 0,
                            "duration" : 3528000000,
                            "mediaStart" : 0.0,
                            "mediaDuration" : 3528000000.0,
                            "scalar" : 1,
                            "metadata" : {
                              "clipSpeedAttribute" : false,
                              "effectApplied" : "none",
                              "isOpen" : false,
                              "lockAspectRatio" : true
                            },
                            "animationTracks" : {
                              "visual" : [
                                {
                                  "endTime" : 552720000,
                                  "duration" : 552720000,
                                  "range" : [ 0, 552720000],
                                  "interp" : "eioe"
                                },
                                {
                                  "endTime" : 1775760000,
                                  "duration" : 399840000,
                                  "range" : [ 1375920000, 399840000],
                                  "interp" : "eioe"
                                }
                              ]
                            }
                          }
                        ],
                          "ident" : "",
                          "audioMuted" : false,
                          "videoHidden" : false,
                          "magnetic" : false,
                          "matte" : 1,
                          "solo" : false,
                          "metadata" : {
                            "IsLocked" : "False",
                            "WinTrackHeight" : "56",
                            "trackHeight" : "54"
                          }
                      },
                      {
                        "trackIndex" : 2,
                        "medias" : [
                          {
                            "id" : 233,
                            "_type" : "Group",
                            "parameters" : {
                              "translation0" : {
                                "type" : "double",
                                "defaultValue" : 0.0,
                                "keyframes" : [
                                  {
                                    "endTime" : 552720000,
                                    "time" : 0,
                                    "value" : 0.0,
                                    "interp" : "eioe",
                                    "duration" : 552720000
                                  },
                                  {
                                    "endTime" : 1775760000,
                                    "time" : 1375920000,
                                    "value" : 0.0,
                                    "interp" : "eioe",
                                    "duration" : 399840000
                                  }
                                ]
                              },
                              "translation1" : {
                                "type" : "double",
                                "defaultValue" : -233.610046386719,
                                "keyframes" : [
                                  {
                                    "endTime" : 552720000,
                                    "time" : 0,
                                    "value" : 90.0,
                                    "interp" : "eioe",
                                    "duration" : 552720000
                                  },
                                  {
                                    "endTime" : 1775760000,
                                    "time" : 1375920000,
                                    "value" : -233.610046386719,
                                    "interp" : "eioe",
                                    "duration" : 399840000
                                  }
                                ]
                              },
                              "sourceCrop0" : 0.0,
                              "sourceCrop1" : 0.0,
                              "sourceCrop2" : 0.0,
                              "sourceCrop3" : 0.0,
                              "geometryCrop0" : 0.0,
                              "geometryCrop1" : 0.0,
                              "geometryCrop2" : 0.0,
                              "geometryCrop3" : 0.0,
                              "opacity" : {
                                "type" : "double",
                                "defaultValue" : 1.0,
                                "keyframes" : [
                                  {
                                    "endTime" : 552720000,
                                    "time" : 0,
                                    "value" : 1.0,
                                    "interp" : "eioe",
                                    "duration" : 552720000
                                  }
                                ]
                              },
                              "volume" : 1.0
                            },
                            "tracks" : [
                              {
                                "trackIndex" : 0,
                                "medias" : [
                                  {
                                    "id" : 234,
                                    "_type" : "Callout",
                                    "def" : {
                                      "kind" : "remix",
                                      "shape" : "shape-rectangle",
                                      "style" : "bold",
                                      "fill-color-blue" : 0.2196078431,
                                      "fill-color-green" : 0.8745098039,
                                      "fill-color-opacity" : 1.0,
                                      "fill-color-red" : 1.0,
                                      "hasDropShadow" : 0.0,
                                      "height" : 163.002035140991,
                                      "savedXScale" : 1.0,
                                      "savedYScale" : 1.0,
                                      "stroke-color-blue" : 1.0,
                                      "stroke-color-green" : 1.0,
                                      "stroke-color-opacity" : 1.0,
                                      "stroke-color-red" : 1.0,
                                      "stroke-width" : 0.0,
                                      "width" : 1403.00212860107,
                                      "custom" : "Y",
                                      "fill-style" : "solid",
                                      "stroke-style" : "solid"
                                    },
                                    "attributes" : {
                                      "ident" : "",
                                      "autoRotateText" : true
                                    },
                                    "parameters" : {
                                      "anchor0" : -1.0,
                                      "anchor1" : 2.0,
                                      "sourceCrop0" : 0.0,
                                      "sourceCrop1" : 0.0,
                                      "sourceCrop2" : 0.0,
                                      "sourceCrop3" : 0.0,
                                      "geometryCrop0" : 0.0,
                                      "geometryCrop1" : 0.0,
                                      "geometryCrop2" : 0.0,
                                      "geometryCrop3" : 0.0
                                    },
                                    "effects" : [

                                    ],
                                    "start" : 0,
                                    "duration" : 3528000000,
                                    "mediaStart" : 0,
                                    "mediaDuration" : 3528000000,
                                    "scalar" : 1,
                                    "metadata" : {
                                      "AppliedThemeId" : "",
                                      "clipSpeedAttribute" : false,
                                      "effectApplied" : "none",
                                      "lockAspectRatio" : false
                                    },
                                    "animationTracks" : {

                                    }
                                  }
                                ],
                                  "ident" : "",
                                  "audioMuted" : false,
                                  "videoHidden" : false,
                                  "magnetic" : false,
                                  "matte" : 0,
                                  "solo" : false,
                                  "metadata" : {
                                    "IsLocked" : "False",
                                    "WinTrackHeight" : "56",
                                    "trackHeight" : "54"
                                  }
                              },
                              {
                                "trackIndex" : 1,
                                "medias" : [
                                  {
                                    "id" : 235,
                                    "_type" : "Callout",
                                    "def" : {
                                      "kind" : "remix",
                                      "shape" : "shape-rectangle",
                                      "style" : "bold",
                                      "fill-color-blue" : 0.756862759590149,
                                      "fill-color-green" : 0.18823529779911,
                                      "fill-color-opacity" : 1.0,
                                      "fill-color-red" : 0.960784316062927,
                                      "hasDropShadow" : 0.0,
                                      "height" : 160.0,
                                      "savedXScale" : 1.0,
                                      "savedYScale" : 1.0,
                                      "stroke-color-blue" : 0.886274516582489,
                                      "stroke-color-green" : 0.200000002980232,
                                      "stroke-color-opacity" : 0.0,
                                      "stroke-color-red" : 0.376470595598221,
                                      "stroke-width" : 0.0,
                                      "width" : 1400.0,
                                      "custom" : "Y",
                                      "fill-style" : "solid",
                                      "stroke-style" : "solid"
                                    },
                                    "attributes" : {
                                      "ident" : "",
                                      "autoRotateText" : true
                                    },
                                    "parameters" : {
                                      "translation1" : {
                                        "type" : "double",
                                        "defaultValue" : -1.0,
                                        "keyframes" : [
                                          {
                                            "endTime" : 270480000,
                                            "time" : 0,
                                            "value" : 0.0,
                                            "duration" : 270480000
                                          }
                                        ]
                                      },
                                      "scale0" : {
                                        "type" : "double",
                                        "defaultValue" : 1.0,
                                        "keyframes" : [
                                          {
                                            "endTime" : 270480000,
                                            "time" : 0,
                                            "value" : 1.0,
                                            "duration" : 270480000
                                          }
                                        ]
                                      },
                                      "scale1" : {
                                        "type" : "double",
                                        "defaultValue" : 0.125,
                                        "keyframes" : [
                                          {
                                            "endTime" : 270480000,
                                            "time" : 0,
                                            "value" : 0.5,
                                            "duration" : 270480000
                                          },
                                          {
                                            "endTime" : 552720000,
                                            "time" : 282240000,
                                            "value" : 0.125,
                                            "duration" : 270480000
                                          }
                                        ]
                                      },
                                      "sourceCrop0" : 0.0,
                                      "sourceCrop1" : 0.0,
                                      "sourceCrop2" : 0.0,
                                      "sourceCrop3" : 0.0,
                                      "geometryCrop0" : 0.0,
                                      "geometryCrop1" : 0.0,
                                      "geometryCrop2" : 0.0,
                                      "geometryCrop3" : 0.0
                                    },
                                    "effects" : [

                                    ],
                                    "start" : 0,
                                    "duration" : 3528000000,
                                    "mediaStart" : 0,
                                    "mediaDuration" : 3528000000,
                                    "scalar" : 1,
                                    "metadata" : {
                                      "AppliedThemeId" : "",
                                      "clipSpeedAttribute" : false,
                                      "effectApplied" : "none"
                                    },
                                    "animationTracks" : {
                                      "visual" : [
                                        {
                                          "endTime" : 270480000,
                                          "duration" : 270480000,
                                          "range" : [ 0, 270480000]
                                        },
                                        {
                                          "endTime" : 552720000,
                                          "duration" : 270480000,
                                          "range" : [ 282240000, 270480000]
                                        }
                                      ]
                                    }
                                  }
                                ],
                                  "ident" : "",
                                  "audioMuted" : false,
                                  "videoHidden" : false,
                                  "magnetic" : false,
                                  "matte" : 1,
                                  "solo" : false,
                                  "metadata" : {
                                    "IsLocked" : "False",
                                    "WinTrackHeight" : "56",
                                    "trackHeight" : "54"
                                  }
                              }
                            ],
                            "attributes" : {
                              "ident" : "Animated-Pulse-1400x20-To-1400x80",
                              "widthAttr" : 1405.0,
                              "heightAttr" : 167.002,
                              "gain" : 1.0,
                              "mixToMono" : false,
                              "assetProperties" : [
                                {
                                  "type" : 1,
                                  "name" : "Color",
                                  "objects" : [ 234 ],
                                  "themeMappings" :  {
                                    "fill" : "accent-1"
                                  }
                                }
                              ]
                            },
                            "effects" : [

                            ],
                            "start" : 0,
                            "duration" : 3528000000,
                            "mediaStart" : 0.0,
                            "mediaDuration" : 3528000000.0,
                            "scalar" : 1,
                            "metadata" : {
                              "AppliedThemeId" : "8e797988-b823-4beb-b251-1d31b461ba07",
                              "clipSpeedAttribute" : false,
                              "effectApplied" : "none",
                              "isOpen" : false,
                              "lockAspectRatio" : true
                            },
                            "animationTracks" : {
                              "visual" : [
                                {
                                  "endTime" : 552720000,
                                  "duration" : 552720000,
                                  "range" : [ 0, 552720000],
                                  "interp" : "eioe"
                                },
                                {
                                  "endTime" : 1775760000,
                                  "duration" : 399840000,
                                  "range" : [ 1375920000, 399840000],
                                  "interp" : "eioe"
                                }
                              ]
                            }
                          }
                        ],
                          "ident" : "",
                          "audioMuted" : false,
                          "videoHidden" : false,
                          "magnetic" : false,
                          "matte" : 0,
                          "solo" : false,
                          "metadata" : {
                            "IsLocked" : "False",
                            "WinTrackHeight" : "56",
                            "trackHeight" : "54"
                          }
                      },
                      {
                        "trackIndex" : 3,
                        "medias" : [
                          {
                            "id" : 236,
                            "_type" : "Group",
                            "parameters" : {
                              "translation0" : {
                                "type" : "double",
                                "defaultValue" : 0.0,
                                "keyframes" : [
                                  {
                                    "endTime" : 552720000,
                                    "time" : 0,
                                    "value" : 0.0,
                                    "interp" : "eioe",
                                    "duration" : 552720000
                                  },
                                  {
                                    "endTime" : 1775760000,
                                    "time" : 1375920000,
                                    "value" : 0.0,
                                    "interp" : "eioe",
                                    "duration" : 399840000
                                  }
                                ]
                              },
                              "translation1" : {
                                "type" : "double",
                                "defaultValue" : -143.610046386719,
                                "keyframes" : [
                                  {
                                    "endTime" : 552720000,
                                    "time" : 0,
                                    "value" : 0.0,
                                    "interp" : "eioe",
                                    "duration" : 552720000
                                  },
                                  {
                                    "endTime" : 1775760000,
                                    "time" : 1375920000,
                                    "value" : -143.610046386719,
                                    "interp" : "eioe",
                                    "duration" : 399840000
                                  }
                                ]
                              },
                              "sourceCrop0" : 0.0,
                              "sourceCrop1" : 0.0,
                              "sourceCrop2" : 0.0,
                              "sourceCrop3" : 0.0,
                              "geometryCrop0" : 0.0,
                              "geometryCrop1" : 0.0,
                              "geometryCrop2" : 0.0,
                              "geometryCrop3" : 0.0,
                              "opacity" : {
                                "type" : "double",
                                "defaultValue" : 1.0,
                                "keyframes" : [
                                  {
                                    "endTime" : 552720000,
                                    "time" : 0,
                                    "value" : 1.0,
                                    "interp" : "eioe",
                                    "duration" : 552720000
                                  }
                                ]
                              },
                              "volume" : 1.0
                            },
                            "tracks" : [
                              {
                                "trackIndex" : 0,
                                "medias" : [
                                  {
                                    "id" : 237,
                                    "_type" : "Callout",
                                    "def" : {
                                      "kind" : "remix",
                                      "shape" : "shape-rectangle",
                                      "style" : "bold",
                                      "fill-color-blue" : 0.913725490196078,
                                      "fill-color-green" : 0.949019607843137,
                                      "fill-color-opacity" : 1.0,
                                      "fill-color-red" : 0.933333333333333,
                                      "hasDropShadow" : 0.0,
                                      "height" : 163.002035140991,
                                      "savedXScale" : 1.0,
                                      "savedYScale" : 1.0,
                                      "stroke-color-blue" : 1.0,
                                      "stroke-color-green" : 1.0,
                                      "stroke-color-opacity" : 1.0,
                                      "stroke-color-red" : 1.0,
                                      "stroke-width" : 0.0,
                                      "width" : 1403.00212860107,
                                      "custom" : "Y",
                                      "fill-style" : "solid",
                                      "stroke-style" : "solid"
                                    },
                                    "attributes" : {
                                      "ident" : "",
                                      "autoRotateText" : true
                                    },
                                    "parameters" : {
                                      "anchor0" : -1.0,
                                      "anchor1" : 2.0,
                                      "sourceCrop0" : 0.0,
                                      "sourceCrop1" : 0.0,
                                      "sourceCrop2" : 0.0,
                                      "sourceCrop3" : 0.0,
                                      "geometryCrop0" : 0.0,
                                      "geometryCrop1" : 0.0,
                                      "geometryCrop2" : 0.0,
                                      "geometryCrop3" : 0.0
                                    },
                                    "effects" : [

                                    ],
                                    "start" : 0,
                                    "duration" : 3528000000,
                                    "mediaStart" : 0,
                                    "mediaDuration" : 3528000000,
                                    "scalar" : 1,
                                    "metadata" : {
                                      "AppliedThemeId" : "",
                                      "clipSpeedAttribute" : false,
                                      "effectApplied" : "none",
                                      "lockAspectRatio" : false
                                    },
                                    "animationTracks" : {

                                    }
                                  }
                                ],
                                  "ident" : "",
                                  "audioMuted" : false,
                                  "videoHidden" : false,
                                  "magnetic" : false,
                                  "matte" : 0,
                                  "solo" : false,
                                  "metadata" : {
                                    "IsLocked" : "False",
                                    "WinTrackHeight" : "56",
                                    "trackHeight" : "54"
                                  }
                              },
                              {
                                "trackIndex" : 1,
                                "medias" : [
                                  {
                                    "id" : 238,
                                    "_type" : "Callout",
                                    "def" : {
                                      "kind" : "remix",
                                      "shape" : "shape-rectangle",
                                      "style" : "bold",
                                      "fill-color-blue" : 0.756862759590149,
                                      "fill-color-green" : 0.18823529779911,
                                      "fill-color-opacity" : 1.0,
                                      "fill-color-red" : 0.960784316062927,
                                      "hasDropShadow" : 0.0,
                                      "height" : 160.0,
                                      "savedXScale" : 1.0,
                                      "savedYScale" : 1.0,
                                      "stroke-color-blue" : 0.886274516582489,
                                      "stroke-color-green" : 0.200000002980232,
                                      "stroke-color-opacity" : 0.0,
                                      "stroke-color-red" : 0.376470595598221,
                                      "stroke-width" : 0.0,
                                      "width" : 1400.0,
                                      "custom" : "Y",
                                      "fill-style" : "solid",
                                      "stroke-style" : "solid"
                                    },
                                    "attributes" : {
                                      "ident" : "",
                                      "autoRotateText" : true
                                    },
                                    "parameters" : {
                                      "sourceCrop0" : 0.0,
                                      "sourceCrop1" : 0.0,
                                      "sourceCrop2" : 0.0,
                                      "sourceCrop3" : 0.0,
                                      "geometryCrop0" : 0.0,
                                      "geometryCrop1" : 0.0,
                                      "geometryCrop2" : 0.0,
                                      "geometryCrop3" : 0.0
                                    },
                                    "effects" : [

                                    ],
                                    "start" : 0,
                                    "duration" : 3528000000,
                                    "mediaStart" : 0,
                                    "mediaDuration" : 3528000000,
                                    "scalar" : 1,
                                    "metadata" : {
                                      "AppliedThemeId" : "",
                                      "clipSpeedAttribute" : false,
                                      "effectApplied" : "none"
                                    },
                                    "animationTracks" : {

                                    }
                                  }
                                ],
                                  "ident" : "",
                                  "audioMuted" : false,
                                  "videoHidden" : false,
                                  "magnetic" : false,
                                  "matte" : 1,
                                  "solo" : false,
                                  "metadata" : {
                                    "IsLocked" : "False",
                                    "WinTrackHeight" : "56",
                                    "trackHeight" : "54"
                                  }
                              }
                            ],
                            "attributes" : {
                              "ident" : "Rect-1400x1600-Mask",
                              "widthAttr" : 1405.0,
                              "heightAttr" : 167.002,
                              "gain" : 1.0,
                              "mixToMono" : false
                            },
                            "effects" : [

                            ],
                            "start" : 0,
                            "duration" : 3528000000,
                            "mediaStart" : 0.0,
                            "mediaDuration" : 3528000000.0,
                            "scalar" : 1,
                            "metadata" : {
                              "clipSpeedAttribute" : false,
                              "effectApplied" : "none",
                              "isOpen" : false,
                              "lockAspectRatio" : true
                            },
                            "animationTracks" : {
                              "visual" : [
                                {
                                  "endTime" : 552720000,
                                  "duration" : 552720000,
                                  "range" : [ 0, 552720000],
                                  "interp" : "eioe"
                                },
                                {
                                  "endTime" : 1775760000,
                                  "duration" : 399840000,
                                  "range" : [ 1375920000, 399840000],
                                  "interp" : "eioe"
                                }
                              ]
                            }
                          }
                        ],
                          "ident" : "",
                          "audioMuted" : false,
                          "videoHidden" : false,
                          "magnetic" : false,
                          "matte" : 1,
                          "solo" : false,
                          "metadata" : {
                            "IsLocked" : "False",
                            "WinTrackHeight" : "56",
                            "trackHeight" : "54"
                          }
                      }
                    ],
                    "attributes" : {
                      "ident" : "Broadcast-Title-012",
                      "widthAttr" : 1405.0,
                      "heightAttr" : 160.0,
                      "gain" : 1.0,
                      "mixToMono" : false,
                      "assetProperties" : [
                        {
                          "type" : 0,
                          "name" : "Title",
                          "objects" : [ 229 ],
                          "themeMappings" :  {
                            "font-color" : "foreground-1"
                          }
                        },
                        {
                          "type" : 1,
                          "name" : "Fill",
                          "objects" : [ 227 ],
                          "themeMappings" :  {
                            "fill" : "background-1"
                          }
                        },
                        {
                          "type" : 1,
                          "name" : "Wiper",
                          "objects" : [ 234 ],
                          "themeMappings" :  {
                            "fill" : "foreground-1"
                          }
                        }
                      ]
                    },
                    "effects" : [

                    ],
                    "start" : 1928640000,
                    "duration" : 1764000000,
                    "mediaStart" : 0.0,
                    "mediaDuration" : 1764000000.0,
                    "scalar" : 1,
                    "metadata" : {
                      "AppliedThemeId" : "170ba59c-db5d-4b9a-a310-e7e99853a4b7",
                      "clipSpeedAttribute" : false,
                      "default-anchor0" : 0.0,
                      "default-anchor1" : 0.0,
                      "default-anchor2" : 0.0,
                      "default-geometryCrop0" : 0.0,
                      "default-height" : 160.0,
                      "default-rotation0" : 0.0,
                      "default-rotation1" : 0.0,
                      "default-rotation2" : 0.0,
                      "default-scale0" : 1.0,
                      "default-scale1" : 1.0,
                      "default-scale2" : 1.0,
                      "default-shear0" : 0.0,
                      "default-shear1" : 0.0,
                      "default-shear2" : 0.0,
                      "default-translation0" : 0.0,
                      "default-translation1" : 0.0,
                      "default-translation2" : 0.0,
                      "default-width" : 1405.0,
                      "effectApplied" : "none",
                      "isOpen" : false,
                      "lockAspectRatio" : true
                    },
                    "animationTracks" : {

                    }
                  }
                ]
              },
              {
                "trackIndex" : 102,
                "medias" : [
                  {
                    "id" : 239,
                    "_type" : "Group",
                    "parameters" : {
                      "translation0" : -415.0,
                      "translation1" : -399.34375,
                      "scale0" : 0.213523131672598,
                      "scale1" : 0.21875,
                      "sourceCrop0" : 0.0,
                      "sourceCrop1" : 0.0,
                      "sourceCrop2" : 0.0,
                      "sourceCrop3" : 0.0,
                      "geometryCrop0" : 0.0,
                      "geometryCrop1" : 0.0,
                      "geometryCrop2" : 0.0,
                      "geometryCrop3" : 0.0,
                      "volume" : 1.0
                    },
                    "tracks" : [
                      {
                        "trackIndex" : 0,
                        "medias" : [
                          {
                            "id" : 240,
                            "_type" : "Group",
                            "parameters" : {
                              "translation0" : {
                                "type" : "double",
                                "defaultValue" : 0.0,
                                "keyframes" : [
                                  {
                                    "endTime" : 552720000,
                                    "time" : 0,
                                    "value" : 0.0,
                                    "interp" : "eioe",
                                    "duration" : 552720000
                                  },
                                  {
                                    "endTime" : 1775760000,
                                    "time" : 1375920000,
                                    "value" : 0.0,
                                    "interp" : "eioe",
                                    "duration" : 399840000
                                  }
                                ]
                              },
                              "translation1" : {
                                "type" : "double",
                                "defaultValue" : -305.610046386719,
                                "keyframes" : [
                                  {
                                    "endTime" : 552720000,
                                    "time" : 0,
                                    "value" : 0.0,
                                    "interp" : "eioe",
                                    "duration" : 552720000
                                  },
                                  {
                                    "endTime" : 1775760000,
                                    "time" : 1375920000,
                                    "value" : -304.610046386719,
                                    "interp" : "eioe",
                                    "duration" : 399840000
                                  }
                                ]
                              },
                              "sourceCrop0" : 0.0,
                              "sourceCrop1" : 0.0,
                              "sourceCrop2" : 0.0,
                              "sourceCrop3" : 0.0,
                              "geometryCrop0" : 0.0,
                              "geometryCrop1" : 0.0,
                              "geometryCrop2" : 0.0,
                              "geometryCrop3" : 0.0,
                              "volume" : 1.0
                            },
                            "tracks" : [
                              {
                                "trackIndex" : 0,
                                "medias" : [
                                  {
                                    "id" : 241,
                                    "_type" : "Group",
                                    "parameters" : {
                                      "sourceCrop0" : 0.0,
                                      "sourceCrop1" : 0.0,
                                      "sourceCrop2" : 0.0,
                                      "sourceCrop3" : 0.0,
                                      "geometryCrop0" : 0.0,
                                      "geometryCrop1" : 0.0,
                                      "geometryCrop2" : 0.0,
                                      "geometryCrop3" : 0.0,
                                      "volume" : 1.0
                                    },
                                    "tracks" : [
                                      {
                                        "trackIndex" : 0,
                                        "medias" : [
                                          {
                                            "id" : 242,
                                            "_type" : "Callout",
                                            "def" : {
                                              "kind" : "remix",
                                              "shape" : "shape-rectangle",
                                              "style" : "bold",
                                              "fill-color-blue" : 1.0,
                                              "fill-color-green" : 1.0,
                                              "fill-color-opacity" : 1.0,
                                              "fill-color-red" : 1.0,
                                              "hasDropShadow" : 0.0,
                                              "height" : 163.002035140991,
                                              "savedXScale" : 1.0,
                                              "savedYScale" : 1.0,
                                              "stroke-color-blue" : 1.0,
                                              "stroke-color-green" : 1.0,
                                              "stroke-color-opacity" : 1.0,
                                              "stroke-color-red" : 1.0,
                                              "stroke-width" : 0.0,
                                              "width" : 1403.00212860107,
                                              "custom" : "Y",
                                              "fill-style" : "solid",
                                              "stroke-style" : "solid"
                                            },
                                            "attributes" : {
                                              "ident" : "",
                                              "autoRotateText" : true
                                            },
                                            "parameters" : {
                                              "anchor0" : -1.0,
                                              "anchor1" : 2.0,
                                              "sourceCrop0" : 0.0,
                                              "sourceCrop1" : 0.0,
                                              "sourceCrop2" : 0.0,
                                              "sourceCrop3" : 0.0,
                                              "geometryCrop0" : 0.0,
                                              "geometryCrop1" : 0.0,
                                              "geometryCrop2" : 0.0,
                                              "geometryCrop3" : 0.0
                                            },
                                            "effects" : [

                                            ],
                                            "start" : 0,
                                            "duration" : 3528000000,
                                            "mediaStart" : 0,
                                            "mediaDuration" : 3528000000,
                                            "scalar" : 1,
                                            "metadata" : {
                                              "AppliedThemeId" : "",
                                              "clipSpeedAttribute" : false,
                                              "effectApplied" : "none",
                                              "lockAspectRatio" : false
                                            },
                                            "animationTracks" : {

                                            }
                                          }
                                        ],
                                          "ident" : "",
                                          "audioMuted" : false,
                                          "videoHidden" : false,
                                          "magnetic" : false,
                                          "matte" : 0,
                                          "solo" : false,
                                          "metadata" : {
                                            "IsLocked" : "False",
                                            "WinTrackHeight" : "56",
                                            "trackHeight" : "54"
                                          }
                                      },
                                      {
                                        "trackIndex" : 1,
                                        "medias" : [
                                          {
                                            "id" : 243,
                                            "_type" : "Callout",
                                            "def" : {
                                              "kind" : "remix",
                                              "shape" : "shape-rectangle",
                                              "style" : "bold",
                                              "fill-color-blue" : 0.756862759590149,
                                              "fill-color-green" : 0.18823529779911,
                                              "fill-color-opacity" : 1.0,
                                              "fill-color-red" : 0.960784316062927,
                                              "hasDropShadow" : 0.0,
                                              "height" : 160.0,
                                              "savedXScale" : 1.0,
                                              "savedYScale" : 1.0,
                                              "stroke-color-blue" : 0.886274516582489,
                                              "stroke-color-green" : 0.200000002980232,
                                              "stroke-color-opacity" : 0.0,
                                              "stroke-color-red" : 0.376470595598221,
                                              "stroke-width" : 0.0,
                                              "width" : 1400.0,
                                              "custom" : "Y",
                                              "fill-style" : "solid",
                                              "stroke-style" : "solid"
                                            },
                                            "attributes" : {
                                              "ident" : "",
                                              "autoRotateText" : true
                                            },
                                            "parameters" : {
                                              "sourceCrop0" : 0.0,
                                              "sourceCrop1" : 0.0,
                                              "sourceCrop2" : 0.0,
                                              "sourceCrop3" : 0.0,
                                              "geometryCrop0" : 0.0,
                                              "geometryCrop1" : 0.0,
                                              "geometryCrop2" : 0.0,
                                              "geometryCrop3" : 0.0
                                            },
                                            "effects" : [

                                            ],
                                            "start" : 0,
                                            "duration" : 3528000000,
                                            "mediaStart" : 0,
                                            "mediaDuration" : 3528000000,
                                            "scalar" : 1,
                                            "metadata" : {
                                              "AppliedThemeId" : "",
                                              "clipSpeedAttribute" : false,
                                              "effectApplied" : "none"
                                            },
                                            "animationTracks" : {

                                            }
                                          }
                                        ],
                                          "ident" : "",
                                          "audioMuted" : false,
                                          "videoHidden" : false,
                                          "magnetic" : false,
                                          "matte" : 1,
                                          "solo" : false,
                                          "metadata" : {
                                            "IsLocked" : "False",
                                            "WinTrackHeight" : "56",
                                            "trackHeight" : "54"
                                          }
                                      }
                                    ],
                                    "attributes" : {
                                      "ident" : "Fill-1400x160",
                                      "widthAttr" : 1405.0,
                                      "heightAttr" : 167.002,
                                      "gain" : 1.0,
                                      "mixToMono" : false
                                    },
                                    "effects" : [

                                    ],
                                    "start" : 0,
                                    "duration" : 3528000000,
                                    "mediaStart" : 0.0,
                                    "mediaDuration" : 3528000000.0,
                                    "scalar" : 1,
                                    "metadata" : {
                                      "clipSpeedAttribute" : false,
                                      "effectApplied" : "none",
                                      "isOpen" : false,
                                      "lockAspectRatio" : true
                                    },
                                    "animationTracks" : {

                                    }
                                  }
                                ],
                                  "ident" : "",
                                  "audioMuted" : false,
                                  "videoHidden" : false,
                                  "magnetic" : false,
                                  "matte" : 0,
                                  "solo" : false,
                                  "metadata" : {
                                    "IsLocked" : "False",
                                    "WinTrackHeight" : "56",
                                    "trackHeight" : "54"
                                  }
                              },
                              {
                                "trackIndex" : 1,
                                "medias" : [
                                  {
                                    "id" : 244,
                                    "_type" : "Callout",
                                    "def" : {
                                      "kind" : "remix",
                                      "shape" : "text",
                                      "style" : "urban",
                                      "enable-ligatures" : 1.0,
                                      "hasDropShadow" : 0.0,
                                      "height" : 170.0,
                                      "line-spacing" : 0.0,
                                      "savedXScale" : 1.0,
                                      "savedYScale" : 1.0,
                                      "width" : 1400.0,
                                      "word-wrap" : 1.0,
                                      "custom" : "Y",
                                      "horizontal-alignment" : "left",
                                      "resize-behavior" : "resizeText",
                                      "text" : "group show level 2",
                                      "vertical-alignment" : "center",
                                      "font" : {
                                        "color-blue" : 1.0,
                                        "color-green" : 1.0,
                                        "color-red" : 1.0,
                                        "size" : 96.0,
                                        "tracking" : 0.0,
                                        "name" : "Dosis",
                                        "weight" : "Semi Bold"
                                      },
                                      "textAttributes" : {
                                        "type" : "textAttributeList",
                                        "keyframes" : [
                                          {
                                            "endTime" : 0,
                                            "time" : 0,
                                            "value" : [{"name":"underline","rangeEnd":18,"rangeStart":0,"value":0,"valueType":"int"},{"name":"strikethrough","rangeEnd":18,"rangeStart":0,"value":0,"valueType":"int"},{"name":"fontName","rangeEnd":18,"rangeStart":0,"value":"Roboto","valueType":"string"},{"name":"kerning","rangeEnd":18,"rangeStart":0,"value":0.049883078231292483,"valueType":"double"},{"name":"fontItalic","rangeEnd":18,"rangeStart":0,"value":0,"valueType":"int"},{"name":"fontWeight","rangeEnd":18,"rangeStart":0,"value":700,"valueType":"int"},{"name":"fontSize","rangeEnd":18,"rangeStart":0,"value":86,"valueType":"double"},{"name":"fgColor","rangeEnd":18,"rangeStart":0,"value":"(110,110,110,255)","valueType":"color"}],
                                            "duration" : 0
                                          }
                                        ]
                                      }
                                    },
                                    "attributes" : {
                                      "ident" : "",
                                      "autoRotateText" : true
                                    },
                                    "parameters" : {
                                      "translation1" : -2.0,
                                      "sourceCrop0" : 0.0,
                                      "sourceCrop1" : 0.0,
                                      "sourceCrop2" : 0.0,
                                      "sourceCrop3" : 0.0,
                                      "geometryCrop0" : 0.0,
                                      "geometryCrop1" : 0.0,
                                      "geometryCrop2" : 0.0,
                                      "geometryCrop3" : 0.0
                                    },
                                    "effects" : [

                                    ],
                                    "start" : 0,
                                    "duration" : 3528000000,
                                    "mediaStart" : 0,
                                    "mediaDuration" : 3528000000,
                                    "scalar" : 1,
                                    "metadata" : {
                                      "AppliedThemeId" : "",
                                      "clipSpeedAttribute" : false,
                                      "effectApplied" : "none",
                                      "lockAspectRatio" : false
                                    },
                                    "animationTracks" : {

                                    }
                                  }
                                ],
                                  "ident" : "",
                                  "audioMuted" : false,
                                  "videoHidden" : false,
                                  "magnetic" : false,
                                  "matte" : 0,
                                  "solo" : false,
                                  "metadata" : {
                                    "IsLocked" : "False",
                                    "WinTrackHeight" : "56",
                                    "trackHeight" : "54"
                                  }
                              }
                            ],
                            "attributes" : {
                              "ident" : "BP-Title-11",
                              "widthAttr" : 1405.0,
                              "heightAttr" : 167.002,
                              "gain" : 1.0,
                              "mixToMono" : false,
                              "assetProperties" : [
                                {
                                  "type" : 0,
                                  "name" : "Title",
                                  "objects" : [ 244 ],
                                  "themeMappings" :  {
                                    "font-color" : "foreground-1"
                                  }
                                },
                                {
                                  "type" : 1,
                                  "name" : "Fill",
                                  "objects" : [ 242 ],
                                  "themeMappings" :  {
                                    "fill" : "background-1"
                                  }
                                }
                              ]
                            },
                            "effects" : [

                            ],
                            "start" : 0,
                            "duration" : 3528000000,
                            "mediaStart" : 0.0,
                            "mediaDuration" : 3528000000.0,
                            "scalar" : 1,
                            "metadata" : {
                              "clipSpeedAttribute" : false,
                              "effectApplied" : "none",
                              "isOpen" : false,
                              "lockAspectRatio" : true
                            },
                            "animationTracks" : {
                              "visual" : [
                                {
                                  "endTime" : 552720000,
                                  "duration" : 552720000,
                                  "range" : [ 0, 552720000],
                                  "interp" : "eioe"
                                },
                                {
                                  "endTime" : 1775760000,
                                  "duration" : 399840000,
                                  "range" : [ 1375920000, 399840000],
                                  "interp" : "eioe"
                                }
                              ]
                            }
                          }
                        ],
                          "ident" : "",
                          "audioMuted" : false,
                          "videoHidden" : false,
                          "magnetic" : false,
                          "matte" : 0,
                          "solo" : false,
                          "metadata" : {
                            "IsLocked" : "False",
                            "WinTrackHeight" : "56",
                            "trackHeight" : "54"
                          }
                      },
                      {
                        "trackIndex" : 1,
                        "medias" : [
                          {
                            "id" : 245,
                            "_type" : "Group",
                            "parameters" : {
                              "translation0" : {
                                "type" : "double",
                                "defaultValue" : 0.0,
                                "keyframes" : [
                                  {
                                    "endTime" : 552720000,
                                    "time" : 0,
                                    "value" : 0.0,
                                    "interp" : "eioe",
                                    "duration" : 552720000
                                  },
                                  {
                                    "endTime" : 1775760000,
                                    "time" : 1375920000,
                                    "value" : 0.0,
                                    "interp" : "eioe",
                                    "duration" : 399840000
                                  }
                                ]
                              },
                              "translation1" : {
                                "type" : "double",
                                "defaultValue" : -144.610046386719,
                                "keyframes" : [
                                  {
                                    "endTime" : 552720000,
                                    "time" : 0,
                                    "value" : 0.0,
                                    "interp" : "eioe",
                                    "duration" : 552720000
                                  },
                                  {
                                    "endTime" : 1775760000,
                                    "time" : 1375920000,
                                    "value" : -144.610046386719,
                                    "interp" : "eioe",
                                    "duration" : 399840000
                                  }
                                ]
                              },
                              "sourceCrop0" : 0.0,
                              "sourceCrop1" : 0.0,
                              "sourceCrop2" : 0.0,
                              "sourceCrop3" : 0.0,
                              "geometryCrop0" : 0.0,
                              "geometryCrop1" : 0.0,
                              "geometryCrop2" : 0.0,
                              "geometryCrop3" : 0.0,
                              "opacity" : {
                                "type" : "double",
                                "defaultValue" : 1.0,
                                "keyframes" : [
                                  {
                                    "endTime" : 552720000,
                                    "time" : 0,
                                    "value" : 1.0,
                                    "interp" : "eioe",
                                    "duration" : 552720000
                                  }
                                ]
                              },
                              "volume" : 1.0
                            },
                            "tracks" : [
                              {
                                "trackIndex" : 0,
                                "medias" : [
                                  {
                                    "id" : 246,
                                    "_type" : "Callout",
                                    "def" : {
                                      "kind" : "remix",
                                      "shape" : "shape-rectangle",
                                      "style" : "bold",
                                      "fill-color-blue" : 0.913725490196078,
                                      "fill-color-green" : 0.949019607843137,
                                      "fill-color-opacity" : 1.0,
                                      "fill-color-red" : 0.933333333333333,
                                      "hasDropShadow" : 0.0,
                                      "height" : 163.002035140991,
                                      "savedXScale" : 1.0,
                                      "savedYScale" : 1.0,
                                      "stroke-color-blue" : 1.0,
                                      "stroke-color-green" : 1.0,
                                      "stroke-color-opacity" : 1.0,
                                      "stroke-color-red" : 1.0,
                                      "stroke-width" : 0.0,
                                      "width" : 1403.00212860107,
                                      "custom" : "Y",
                                      "fill-style" : "solid",
                                      "stroke-style" : "solid"
                                    },
                                    "attributes" : {
                                      "ident" : "",
                                      "autoRotateText" : true
                                    },
                                    "parameters" : {
                                      "anchor0" : -1.0,
                                      "anchor1" : 2.0,
                                      "sourceCrop0" : 0.0,
                                      "sourceCrop1" : 0.0,
                                      "sourceCrop2" : 0.0,
                                      "sourceCrop3" : 0.0,
                                      "geometryCrop0" : 0.0,
                                      "geometryCrop1" : 0.0,
                                      "geometryCrop2" : 0.0,
                                      "geometryCrop3" : 0.0
                                    },
                                    "effects" : [

                                    ],
                                    "start" : 0,
                                    "duration" : 3528000000,
                                    "mediaStart" : 0,
                                    "mediaDuration" : 3528000000,
                                    "scalar" : 1,
                                    "metadata" : {
                                      "AppliedThemeId" : "",
                                      "clipSpeedAttribute" : false,
                                      "effectApplied" : "none",
                                      "lockAspectRatio" : false
                                    },
                                    "animationTracks" : {

                                    }
                                  }
                                ],
                                  "ident" : "",
                                  "audioMuted" : false,
                                  "videoHidden" : false,
                                  "magnetic" : false,
                                  "matte" : 0,
                                  "solo" : false,
                                  "metadata" : {
                                    "IsLocked" : "False",
                                    "WinTrackHeight" : "56",
                                    "trackHeight" : "54"
                                  }
                              },
                              {
                                "trackIndex" : 1,
                                "medias" : [
                                  {
                                    "id" : 247,
                                    "_type" : "Callout",
                                    "def" : {
                                      "kind" : "remix",
                                      "shape" : "shape-rectangle",
                                      "style" : "bold",
                                      "fill-color-blue" : 0.756862759590149,
                                      "fill-color-green" : 0.18823529779911,
                                      "fill-color-opacity" : 1.0,
                                      "fill-color-red" : 0.960784316062927,
                                      "hasDropShadow" : 0.0,
                                      "height" : 160.0,
                                      "savedXScale" : 1.0,
                                      "savedYScale" : 1.0,
                                      "stroke-color-blue" : 0.886274516582489,
                                      "stroke-color-green" : 0.200000002980232,
                                      "stroke-color-opacity" : 0.0,
                                      "stroke-color-red" : 0.376470595598221,
                                      "stroke-width" : 0.0,
                                      "width" : 1400.0,
                                      "custom" : "Y",
                                      "fill-style" : "solid",
                                      "stroke-style" : "solid"
                                    },
                                    "attributes" : {
                                      "ident" : "",
                                      "autoRotateText" : true
                                    },
                                    "parameters" : {
                                      "sourceCrop0" : 0.0,
                                      "sourceCrop1" : 0.0,
                                      "sourceCrop2" : 0.0,
                                      "sourceCrop3" : 0.0,
                                      "geometryCrop0" : 0.0,
                                      "geometryCrop1" : 0.0,
                                      "geometryCrop2" : 0.0,
                                      "geometryCrop3" : 0.0
                                    },
                                    "effects" : [

                                    ],
                                    "start" : 0,
                                    "duration" : 3528000000,
                                    "mediaStart" : 0,
                                    "mediaDuration" : 3528000000,
                                    "scalar" : 1,
                                    "metadata" : {
                                      "AppliedThemeId" : "",
                                      "clipSpeedAttribute" : false,
                                      "effectApplied" : "none"
                                    },
                                    "animationTracks" : {

                                    }
                                  }
                                ],
                                  "ident" : "",
                                  "audioMuted" : false,
                                  "videoHidden" : false,
                                  "magnetic" : false,
                                  "matte" : 1,
                                  "solo" : false,
                                  "metadata" : {
                                    "IsLocked" : "False",
                                    "WinTrackHeight" : "56",
                                    "trackHeight" : "54"
                                  }
                              }
                            ],
                            "attributes" : {
                              "ident" : "Rect-1400x1600-Mask",
                              "widthAttr" : 1405.0,
                              "heightAttr" : 167.002,
                              "gain" : 1.0,
                              "mixToMono" : false
                            },
                            "effects" : [

                            ],
                            "start" : 0,
                            "duration" : 3528000000,
                            "mediaStart" : 0.0,
                            "mediaDuration" : 3528000000.0,
                            "scalar" : 1,
                            "metadata" : {
                              "clipSpeedAttribute" : false,
                              "effectApplied" : "none",
                              "isOpen" : false,
                              "lockAspectRatio" : true
                            },
                            "animationTracks" : {
                              "visual" : [
                                {
                                  "endTime" : 552720000,
                                  "duration" : 552720000,
                                  "range" : [ 0, 552720000],
                                  "interp" : "eioe"
                                },
                                {
                                  "endTime" : 1775760000,
                                  "duration" : 399840000,
                                  "range" : [ 1375920000, 399840000],
                                  "interp" : "eioe"
                                }
                              ]
                            }
                          }
                        ],
                          "ident" : "",
                          "audioMuted" : false,
                          "videoHidden" : false,
                          "magnetic" : false,
                          "matte" : 1,
                          "solo" : false,
                          "metadata" : {
                            "IsLocked" : "False",
                            "WinTrackHeight" : "56",
                            "trackHeight" : "54"
                          }
                      },
                      {
                        "trackIndex" : 2,
                        "medias" : [
                          {
                            "id" : 248,
                            "_type" : "Group",
                            "parameters" : {
                              "translation0" : {
                                "type" : "double",
                                "defaultValue" : 0.0,
                                "keyframes" : [
                                  {
                                    "endTime" : 552720000,
                                    "time" : 0,
                                    "value" : 0.0,
                                    "interp" : "eioe",
                                    "duration" : 552720000
                                  },
                                  {
                                    "endTime" : 1775760000,
                                    "time" : 1375920000,
                                    "value" : 0.0,
                                    "interp" : "eioe",
                                    "duration" : 399840000
                                  }
                                ]
                              },
                              "translation1" : {
                                "type" : "double",
                                "defaultValue" : -233.610046386719,
                                "keyframes" : [
                                  {
                                    "endTime" : 552720000,
                                    "time" : 0,
                                    "value" : 90.0,
                                    "interp" : "eioe",
                                    "duration" : 552720000
                                  },
                                  {
                                    "endTime" : 1775760000,
                                    "time" : 1375920000,
                                    "value" : -233.610046386719,
                                    "interp" : "eioe",
                                    "duration" : 399840000
                                  }
                                ]
                              },
                              "sourceCrop0" : 0.0,
                              "sourceCrop1" : 0.0,
                              "sourceCrop2" : 0.0,
                              "sourceCrop3" : 0.0,
                              "geometryCrop0" : 0.0,
                              "geometryCrop1" : 0.0,
                              "geometryCrop2" : 0.0,
                              "geometryCrop3" : 0.0,
                              "opacity" : {
                                "type" : "double",
                                "defaultValue" : 1.0,
                                "keyframes" : [
                                  {
                                    "endTime" : 552720000,
                                    "time" : 0,
                                    "value" : 1.0,
                                    "interp" : "eioe",
                                    "duration" : 552720000
                                  }
                                ]
                              },
                              "volume" : 1.0
                            },
                            "tracks" : [
                              {
                                "trackIndex" : 0,
                                "medias" : [
                                  {
                                    "id" : 249,
                                    "_type" : "Callout",
                                    "def" : {
                                      "kind" : "remix",
                                      "shape" : "shape-rectangle",
                                      "style" : "bold",
                                      "fill-color-blue" : 0.2196078431,
                                      "fill-color-green" : 0.8745098039,
                                      "fill-color-opacity" : 1.0,
                                      "fill-color-red" : 1.0,
                                      "hasDropShadow" : 0.0,
                                      "height" : 163.002035140991,
                                      "savedXScale" : 1.0,
                                      "savedYScale" : 1.0,
                                      "stroke-color-blue" : 1.0,
                                      "stroke-color-green" : 1.0,
                                      "stroke-color-opacity" : 1.0,
                                      "stroke-color-red" : 1.0,
                                      "stroke-width" : 0.0,
                                      "width" : 1403.00212860107,
                                      "custom" : "Y",
                                      "fill-style" : "solid",
                                      "stroke-style" : "solid"
                                    },
                                    "attributes" : {
                                      "ident" : "",
                                      "autoRotateText" : true
                                    },
                                    "parameters" : {
                                      "anchor0" : -1.0,
                                      "anchor1" : 2.0,
                                      "sourceCrop0" : 0.0,
                                      "sourceCrop1" : 0.0,
                                      "sourceCrop2" : 0.0,
                                      "sourceCrop3" : 0.0,
                                      "geometryCrop0" : 0.0,
                                      "geometryCrop1" : 0.0,
                                      "geometryCrop2" : 0.0,
                                      "geometryCrop3" : 0.0
                                    },
                                    "effects" : [

                                    ],
                                    "start" : 0,
                                    "duration" : 3528000000,
                                    "mediaStart" : 0,
                                    "mediaDuration" : 3528000000,
                                    "scalar" : 1,
                                    "metadata" : {
                                      "AppliedThemeId" : "",
                                      "clipSpeedAttribute" : false,
                                      "effectApplied" : "none",
                                      "lockAspectRatio" : false
                                    },
                                    "animationTracks" : {

                                    }
                                  }
                                ],
                                  "ident" : "",
                                  "audioMuted" : false,
                                  "videoHidden" : false,
                                  "magnetic" : false,
                                  "matte" : 0,
                                  "solo" : false,
                                  "metadata" : {
                                    "IsLocked" : "False",
                                    "WinTrackHeight" : "56",
                                    "trackHeight" : "54"
                                  }
                              },
                              {
                                "trackIndex" : 1,
                                "medias" : [
                                  {
                                    "id" : 250,
                                    "_type" : "Callout",
                                    "def" : {
                                      "kind" : "remix",
                                      "shape" : "shape-rectangle",
                                      "style" : "bold",
                                      "fill-color-blue" : 0.756862759590149,
                                      "fill-color-green" : 0.18823529779911,
                                      "fill-color-opacity" : 1.0,
                                      "fill-color-red" : 0.960784316062927,
                                      "hasDropShadow" : 0.0,
                                      "height" : 160.0,
                                      "savedXScale" : 1.0,
                                      "savedYScale" : 1.0,
                                      "stroke-color-blue" : 0.886274516582489,
                                      "stroke-color-green" : 0.200000002980232,
                                      "stroke-color-opacity" : 0.0,
                                      "stroke-color-red" : 0.376470595598221,
                                      "stroke-width" : 0.0,
                                      "width" : 1400.0,
                                      "custom" : "Y",
                                      "fill-style" : "solid",
                                      "stroke-style" : "solid"
                                    },
                                    "attributes" : {
                                      "ident" : "",
                                      "autoRotateText" : true
                                    },
                                    "parameters" : {
                                      "translation1" : {
                                        "type" : "double",
                                        "defaultValue" : -1.0,
                                        "keyframes" : [
                                          {
                                            "endTime" : 270480000,
                                            "time" : 0,
                                            "value" : 0.0,
                                            "duration" : 270480000
                                          }
                                        ]
                                      },
                                      "scale0" : {
                                        "type" : "double",
                                        "defaultValue" : 1.0,
                                        "keyframes" : [
                                          {
                                            "endTime" : 270480000,
                                            "time" : 0,
                                            "value" : 1.0,
                                            "duration" : 270480000
                                          }
                                        ]
                                      },
                                      "scale1" : {
                                        "type" : "double",
                                        "defaultValue" : 0.125,
                                        "keyframes" : [
                                          {
                                            "endTime" : 270480000,
                                            "time" : 0,
                                            "value" : 0.5,
                                            "duration" : 270480000
                                          },
                                          {
                                            "endTime" : 552720000,
                                            "time" : 282240000,
                                            "value" : 0.125,
                                            "duration" : 270480000
                                          }
                                        ]
                                      },
                                      "sourceCrop0" : 0.0,
                                      "sourceCrop1" : 0.0,
                                      "sourceCrop2" : 0.0,
                                      "sourceCrop3" : 0.0,
                                      "geometryCrop0" : 0.0,
                                      "geometryCrop1" : 0.0,
                                      "geometryCrop2" : 0.0,
                                      "geometryCrop3" : 0.0
                                    },
                                    "effects" : [

                                    ],
                                    "start" : 0,
                                    "duration" : 3528000000,
                                    "mediaStart" : 0,
                                    "mediaDuration" : 3528000000,
                                    "scalar" : 1,
                                    "metadata" : {
                                      "AppliedThemeId" : "",
                                      "clipSpeedAttribute" : false,
                                      "effectApplied" : "none"
                                    },
                                    "animationTracks" : {
                                      "visual" : [
                                        {
                                          "endTime" : 270480000,
                                          "duration" : 270480000,
                                          "range" : [ 0, 270480000]
                                        },
                                        {
                                          "endTime" : 552720000,
                                          "duration" : 270480000,
                                          "range" : [ 282240000, 270480000]
                                        }
                                      ]
                                    }
                                  }
                                ],
                                  "ident" : "",
                                  "audioMuted" : false,
                                  "videoHidden" : false,
                                  "magnetic" : false,
                                  "matte" : 1,
                                  "solo" : false,
                                  "metadata" : {
                                    "IsLocked" : "False",
                                    "WinTrackHeight" : "56",
                                    "trackHeight" : "54"
                                  }
                              }
                            ],
                            "attributes" : {
                              "ident" : "Animated-Pulse-1400x20-To-1400x80",
                              "widthAttr" : 1405.0,
                              "heightAttr" : 167.002,
                              "gain" : 1.0,
                              "mixToMono" : false,
                              "assetProperties" : [
                                {
                                  "type" : 1,
                                  "name" : "Color",
                                  "objects" : [ 249 ],
                                  "themeMappings" :  {
                                    "fill" : "accent-1"
                                  }
                                }
                              ]
                            },
                            "effects" : [

                            ],
                            "start" : 0,
                            "duration" : 3528000000,
                            "mediaStart" : 0.0,
                            "mediaDuration" : 3528000000.0,
                            "scalar" : 1,
                            "metadata" : {
                              "AppliedThemeId" : "8e797988-b823-4beb-b251-1d31b461ba07",
                              "clipSpeedAttribute" : false,
                              "effectApplied" : "none",
                              "isOpen" : false,
                              "lockAspectRatio" : true
                            },
                            "animationTracks" : {
                              "visual" : [
                                {
                                  "endTime" : 552720000,
                                  "duration" : 552720000,
                                  "range" : [ 0, 552720000],
                                  "interp" : "eioe"
                                },
                                {
                                  "endTime" : 1775760000,
                                  "duration" : 399840000,
                                  "range" : [ 1375920000, 399840000],
                                  "interp" : "eioe"
                                }
                              ]
                            }
                          }
                        ],
                          "ident" : "",
                          "audioMuted" : false,
                          "videoHidden" : false,
                          "magnetic" : false,
                          "matte" : 0,
                          "solo" : false,
                          "metadata" : {
                            "IsLocked" : "False",
                            "WinTrackHeight" : "56",
                            "trackHeight" : "54"
                          }
                      },
                      {
                        "trackIndex" : 3,
                        "medias" : [
                          {
                            "id" : 251,
                            "_type" : "Group",
                            "parameters" : {
                              "translation0" : {
                                "type" : "double",
                                "defaultValue" : 0.0,
                                "keyframes" : [
                                  {
                                    "endTime" : 552720000,
                                    "time" : 0,
                                    "value" : 0.0,
                                    "interp" : "eioe",
                                    "duration" : 552720000
                                  },
                                  {
                                    "endTime" : 1775760000,
                                    "time" : 1375920000,
                                    "value" : 0.0,
                                    "interp" : "eioe",
                                    "duration" : 399840000
                                  }
                                ]
                              },
                              "translation1" : {
                                "type" : "double",
                                "defaultValue" : -143.610046386719,
                                "keyframes" : [
                                  {
                                    "endTime" : 552720000,
                                    "time" : 0,
                                    "value" : 0.0,
                                    "interp" : "eioe",
                                    "duration" : 552720000
                                  },
                                  {
                                    "endTime" : 1775760000,
                                    "time" : 1375920000,
                                    "value" : -143.610046386719,
                                    "interp" : "eioe",
                                    "duration" : 399840000
                                  }
                                ]
                              },
                              "sourceCrop0" : 0.0,
                              "sourceCrop1" : 0.0,
                              "sourceCrop2" : 0.0,
                              "sourceCrop3" : 0.0,
                              "geometryCrop0" : 0.0,
                              "geometryCrop1" : 0.0,
                              "geometryCrop2" : 0.0,
                              "geometryCrop3" : 0.0,
                              "opacity" : {
                                "type" : "double",
                                "defaultValue" : 1.0,
                                "keyframes" : [
                                  {
                                    "endTime" : 552720000,
                                    "time" : 0,
                                    "value" : 1.0,
                                    "interp" : "eioe",
                                    "duration" : 552720000
                                  }
                                ]
                              },
                              "volume" : 1.0
                            },
                            "tracks" : [
                              {
                                "trackIndex" : 0,
                                "medias" : [
                                  {
                                    "id" : 252,
                                    "_type" : "Callout",
                                    "def" : {
                                      "kind" : "remix",
                                      "shape" : "shape-rectangle",
                                      "style" : "bold",
                                      "fill-color-blue" : 0.913725490196078,
                                      "fill-color-green" : 0.949019607843137,
                                      "fill-color-opacity" : 1.0,
                                      "fill-color-red" : 0.933333333333333,
                                      "hasDropShadow" : 0.0,
                                      "height" : 163.002035140991,
                                      "savedXScale" : 1.0,
                                      "savedYScale" : 1.0,
                                      "stroke-color-blue" : 1.0,
                                      "stroke-color-green" : 1.0,
                                      "stroke-color-opacity" : 1.0,
                                      "stroke-color-red" : 1.0,
                                      "stroke-width" : 0.0,
                                      "width" : 1403.00212860107,
                                      "custom" : "Y",
                                      "fill-style" : "solid",
                                      "stroke-style" : "solid"
                                    },
                                    "attributes" : {
                                      "ident" : "",
                                      "autoRotateText" : true
                                    },
                                    "parameters" : {
                                      "anchor0" : -1.0,
                                      "anchor1" : 2.0,
                                      "sourceCrop0" : 0.0,
                                      "sourceCrop1" : 0.0,
                                      "sourceCrop2" : 0.0,
                                      "sourceCrop3" : 0.0,
                                      "geometryCrop0" : 0.0,
                                      "geometryCrop1" : 0.0,
                                      "geometryCrop2" : 0.0,
                                      "geometryCrop3" : 0.0
                                    },
                                    "effects" : [

                                    ],
                                    "start" : 0,
                                    "duration" : 3528000000,
                                    "mediaStart" : 0,
                                    "mediaDuration" : 3528000000,
                                    "scalar" : 1,
                                    "metadata" : {
                                      "AppliedThemeId" : "",
                                      "clipSpeedAttribute" : false,
                                      "effectApplied" : "none",
                                      "lockAspectRatio" : false
                                    },
                                    "animationTracks" : {

                                    }
                                  }
                                ],
                                  "ident" : "",
                                  "audioMuted" : false,
                                  "videoHidden" : false,
                                  "magnetic" : false,
                                  "matte" : 0,
                                  "solo" : false,
                                  "metadata" : {
                                    "IsLocked" : "False",
                                    "WinTrackHeight" : "56",
                                    "trackHeight" : "54"
                                  }
                              },
                              {
                                "trackIndex" : 1,
                                "medias" : [
                                  {
                                    "id" : 253,
                                    "_type" : "Callout",
                                    "def" : {
                                      "kind" : "remix",
                                      "shape" : "shape-rectangle",
                                      "style" : "bold",
                                      "fill-color-blue" : 0.756862759590149,
                                      "fill-color-green" : 0.18823529779911,
                                      "fill-color-opacity" : 1.0,
                                      "fill-color-red" : 0.960784316062927,
                                      "hasDropShadow" : 0.0,
                                      "height" : 160.0,
                                      "savedXScale" : 1.0,
                                      "savedYScale" : 1.0,
                                      "stroke-color-blue" : 0.886274516582489,
                                      "stroke-color-green" : 0.200000002980232,
                                      "stroke-color-opacity" : 0.0,
                                      "stroke-color-red" : 0.376470595598221,
                                      "stroke-width" : 0.0,
                                      "width" : 1400.0,
                                      "custom" : "Y",
                                      "fill-style" : "solid",
                                      "stroke-style" : "solid"
                                    },
                                    "attributes" : {
                                      "ident" : "",
                                      "autoRotateText" : true
                                    },
                                    "parameters" : {
                                      "sourceCrop0" : 0.0,
                                      "sourceCrop1" : 0.0,
                                      "sourceCrop2" : 0.0,
                                      "sourceCrop3" : 0.0,
                                      "geometryCrop0" : 0.0,
                                      "geometryCrop1" : 0.0,
                                      "geometryCrop2" : 0.0,
                                      "geometryCrop3" : 0.0
                                    },
                                    "effects" : [

                                    ],
                                    "start" : 0,
                                    "duration" : 3528000000,
                                    "mediaStart" : 0,
                                    "mediaDuration" : 3528000000,
                                    "scalar" : 1,
                                    "metadata" : {
                                      "AppliedThemeId" : "",
                                      "clipSpeedAttribute" : false,
                                      "effectApplied" : "none"
                                    },
                                    "animationTracks" : {

                                    }
                                  }
                                ],
                                  "ident" : "",
                                  "audioMuted" : false,
                                  "videoHidden" : false,
                                  "magnetic" : false,
                                  "matte" : 1,
                                  "solo" : false,
                                  "metadata" : {
                                    "IsLocked" : "False",
                                    "WinTrackHeight" : "56",
                                    "trackHeight" : "54"
                                  }
                              }
                            ],
                            "attributes" : {
                              "ident" : "Rect-1400x1600-Mask",
                              "widthAttr" : 1405.0,
                              "heightAttr" : 167.002,
                              "gain" : 1.0,
                              "mixToMono" : false
                            },
                            "effects" : [

                            ],
                            "start" : 0,
                            "duration" : 3528000000,
                            "mediaStart" : 0.0,
                            "mediaDuration" : 3528000000.0,
                            "scalar" : 1,
                            "metadata" : {
                              "clipSpeedAttribute" : false,
                              "effectApplied" : "none",
                              "isOpen" : false,
                              "lockAspectRatio" : true
                            },
                            "animationTracks" : {
                              "visual" : [
                                {
                                  "endTime" : 552720000,
                                  "duration" : 552720000,
                                  "range" : [ 0, 552720000],
                                  "interp" : "eioe"
                                },
                                {
                                  "endTime" : 1775760000,
                                  "duration" : 399840000,
                                  "range" : [ 1375920000, 399840000],
                                  "interp" : "eioe"
                                }
                              ]
                            }
                          }
                        ],
                          "ident" : "",
                          "audioMuted" : false,
                          "videoHidden" : false,
                          "magnetic" : false,
                          "matte" : 1,
                          "solo" : false,
                          "metadata" : {
                            "IsLocked" : "False",
                            "WinTrackHeight" : "56",
                            "trackHeight" : "54"
                          }
                      }
                    ],
                    "attributes" : {
                      "ident" : "Broadcast-Title-012",
                      "widthAttr" : 1405.0,
                      "heightAttr" : 160.0,
                      "gain" : 1.0,
                      "mixToMono" : false,
                      "assetProperties" : [
                        {
                          "type" : 0,
                          "name" : "Title",
                          "objects" : [ 244 ],
                          "themeMappings" :  {
                            "font-color" : "foreground-1"
                          }
                        },
                        {
                          "type" : 1,
                          "name" : "Fill",
                          "objects" : [ 242 ],
                          "themeMappings" :  {
                            "fill" : "background-1"
                          }
                        },
                        {
                          "type" : 1,
                          "name" : "Wiper",
                          "objects" : [ 249 ],
                          "themeMappings" :  {
                            "fill" : "foreground-1"
                          }
                        }
                      ]
                    },
                    "effects" : [

                    ],
                    "start" : 1928640000,
                    "duration" : 1764000000,
                    "mediaStart" : 0.0,
                    "mediaDuration" : 1764000000.0,
                    "scalar" : 1,
                    "metadata" : {
                      "AppliedThemeId" : "170ba59c-db5d-4b9a-a310-e7e99853a4b7",
                      "clipSpeedAttribute" : false,
                      "default-anchor0" : 0.0,
                      "default-anchor1" : 0.0,
                      "default-anchor2" : 0.0,
                      "default-geometryCrop0" : 0.0,
                      "default-height" : 160.0,
                      "default-rotation0" : 0.0,
                      "default-rotation1" : 0.0,
                      "default-rotation2" : 0.0,
                      "default-scale0" : 1.0,
                      "default-scale1" : 1.0,
                      "default-scale2" : 1.0,
                      "default-shear0" : 0.0,
                      "default-shear1" : 0.0,
                      "default-shear2" : 0.0,
                      "default-translation0" : 0.0,
                      "default-translation1" : 0.0,
                      "default-translation2" : 0.0,
                      "default-width" : 1405.0,
                      "effectApplied" : "none",
                      "isOpen" : false,
                      "lockAspectRatio" : true
                    },
                    "animationTracks" : {

                    }
                  }
                ]
              },
              {
                "trackIndex" : 103,
                "medias" : [
                  {
                    "id" : 254,
                    "_type" : "Group",
                    "parameters" : {
                      "translation0" : 348.924731182796,
                      "translation1" : -300.0,
                      "scale0" : 0.213523131672598,
                      "scale1" : 0.21875,
                      "sourceCrop0" : 0.0,
                      "sourceCrop1" : 0.0,
                      "sourceCrop2" : 0.0,
                      "sourceCrop3" : 0.0,
                      "geometryCrop0" : 0.0,
                      "geometryCrop1" : 0.0,
                      "geometryCrop2" : 0.0,
                      "geometryCrop3" : 0.0,
                      "volume" : 1.0
                    },
                    "tracks" : [
                      {
                        "trackIndex" : 0,
                        "medias" : [
                          {
                            "id" : 255,
                            "_type" : "Group",
                            "parameters" : {
                              "translation0" : {
                                "type" : "double",
                                "defaultValue" : 0.0,
                                "keyframes" : [
                                  {
                                    "endTime" : 552720000,
                                    "time" : 0,
                                    "value" : 0.0,
                                    "interp" : "eioe",
                                    "duration" : 552720000
                                  },
                                  {
                                    "endTime" : 1775760000,
                                    "time" : 1375920000,
                                    "value" : 0.0,
                                    "interp" : "eioe",
                                    "duration" : 399840000
                                  }
                                ]
                              },
                              "translation1" : {
                                "type" : "double",
                                "defaultValue" : -305.610046386719,
                                "keyframes" : [
                                  {
                                    "endTime" : 552720000,
                                    "time" : 0,
                                    "value" : 0.0,
                                    "interp" : "eioe",
                                    "duration" : 552720000
                                  },
                                  {
                                    "endTime" : 1775760000,
                                    "time" : 1375920000,
                                    "value" : -304.610046386719,
                                    "interp" : "eioe",
                                    "duration" : 399840000
                                  }
                                ]
                              },
                              "sourceCrop0" : 0.0,
                              "sourceCrop1" : 0.0,
                              "sourceCrop2" : 0.0,
                              "sourceCrop3" : 0.0,
                              "geometryCrop0" : 0.0,
                              "geometryCrop1" : 0.0,
                              "geometryCrop2" : 0.0,
                              "geometryCrop3" : 0.0,
                              "volume" : 1.0
                            },
                            "tracks" : [
                              {
                                "trackIndex" : 0,
                                "medias" : [
                                  {
                                    "id" : 256,
                                    "_type" : "Group",
                                    "parameters" : {
                                      "sourceCrop0" : 0.0,
                                      "sourceCrop1" : 0.0,
                                      "sourceCrop2" : 0.0,
                                      "sourceCrop3" : 0.0,
                                      "geometryCrop0" : 0.0,
                                      "geometryCrop1" : 0.0,
                                      "geometryCrop2" : 0.0,
                                      "geometryCrop3" : 0.0,
                                      "volume" : 1.0
                                    },
                                    "tracks" : [
                                      {
                                        "trackIndex" : 0,
                                        "medias" : [
                                          {
                                            "id" : 257,
                                            "_type" : "Callout",
                                            "def" : {
                                              "kind" : "remix",
                                              "shape" : "shape-rectangle",
                                              "style" : "bold",
                                              "fill-color-blue" : 1.0,
                                              "fill-color-green" : 1.0,
                                              "fill-color-opacity" : 1.0,
                                              "fill-color-red" : 1.0,
                                              "hasDropShadow" : 0.0,
                                              "height" : 163.002035140991,
                                              "savedXScale" : 1.0,
                                              "savedYScale" : 1.0,
                                              "stroke-color-blue" : 1.0,
                                              "stroke-color-green" : 1.0,
                                              "stroke-color-opacity" : 1.0,
                                              "stroke-color-red" : 1.0,
                                              "stroke-width" : 0.0,
                                              "width" : 1403.00212860107,
                                              "custom" : "Y",
                                              "fill-style" : "solid",
                                              "stroke-style" : "solid"
                                            },
                                            "attributes" : {
                                              "ident" : "",
                                              "autoRotateText" : true
                                            },
                                            "parameters" : {
                                              "anchor0" : -1.0,
                                              "anchor1" : 2.0,
                                              "sourceCrop0" : 0.0,
                                              "sourceCrop1" : 0.0,
                                              "sourceCrop2" : 0.0,
                                              "sourceCrop3" : 0.0,
                                              "geometryCrop0" : 0.0,
                                              "geometryCrop1" : 0.0,
                                              "geometryCrop2" : 0.0,
                                              "geometryCrop3" : 0.0
                                            },
                                            "effects" : [

                                            ],
                                            "start" : 0,
                                            "duration" : 3528000000,
                                            "mediaStart" : 0,
                                            "mediaDuration" : 3528000000,
                                            "scalar" : 1,
                                            "metadata" : {
                                              "AppliedThemeId" : "",
                                              "clipSpeedAttribute" : false,
                                              "effectApplied" : "none",
                                              "lockAspectRatio" : false
                                            },
                                            "animationTracks" : {

                                            }
                                          }
                                        ],
                                          "ident" : "",
                                          "audioMuted" : false,
                                          "videoHidden" : false,
                                          "magnetic" : false,
                                          "matte" : 0,
                                          "solo" : false,
                                          "metadata" : {
                                            "IsLocked" : "False",
                                            "WinTrackHeight" : "56",
                                            "trackHeight" : "54"
                                          }
                                      },
                                      {
                                        "trackIndex" : 1,
                                        "medias" : [
                                          {
                                            "id" : 258,
                                            "_type" : "Callout",
                                            "def" : {
                                              "kind" : "remix",
                                              "shape" : "shape-rectangle",
                                              "style" : "bold",
                                              "fill-color-blue" : 0.756862759590149,
                                              "fill-color-green" : 0.18823529779911,
                                              "fill-color-opacity" : 1.0,
                                              "fill-color-red" : 0.960784316062927,
                                              "hasDropShadow" : 0.0,
                                              "height" : 160.0,
                                              "savedXScale" : 1.0,
                                              "savedYScale" : 1.0,
                                              "stroke-color-blue" : 0.886274516582489,
                                              "stroke-color-green" : 0.200000002980232,
                                              "stroke-color-opacity" : 0.0,
                                              "stroke-color-red" : 0.376470595598221,
                                              "stroke-width" : 0.0,
                                              "width" : 1400.0,
                                              "custom" : "Y",
                                              "fill-style" : "solid",
                                              "stroke-style" : "solid"
                                            },
                                            "attributes" : {
                                              "ident" : "",
                                              "autoRotateText" : true
                                            },
                                            "parameters" : {
                                              "sourceCrop0" : 0.0,
                                              "sourceCrop1" : 0.0,
                                              "sourceCrop2" : 0.0,
                                              "sourceCrop3" : 0.0,
                                              "geometryCrop0" : 0.0,
                                              "geometryCrop1" : 0.0,
                                              "geometryCrop2" : 0.0,
                                              "geometryCrop3" : 0.0
                                            },
                                            "effects" : [

                                            ],
                                            "start" : 0,
                                            "duration" : 3528000000,
                                            "mediaStart" : 0,
                                            "mediaDuration" : 3528000000,
                                            "scalar" : 1,
                                            "metadata" : {
                                              "AppliedThemeId" : "",
                                              "clipSpeedAttribute" : false,
                                              "effectApplied" : "none"
                                            },
                                            "animationTracks" : {

                                            }
                                          }
                                        ],
                                          "ident" : "",
                                          "audioMuted" : false,
                                          "videoHidden" : false,
                                          "magnetic" : false,
                                          "matte" : 1,
                                          "solo" : false,
                                          "metadata" : {
                                            "IsLocked" : "False",
                                            "WinTrackHeight" : "56",
                                            "trackHeight" : "54"
                                          }
                                      }
                                    ],
                                    "attributes" : {
                                      "ident" : "Fill-1400x160",
                                      "widthAttr" : 1405.0,
                                      "heightAttr" : 167.002,
                                      "gain" : 1.0,
                                      "mixToMono" : false
                                    },
                                    "effects" : [

                                    ],
                                    "start" : 0,
                                    "duration" : 3528000000,
                                    "mediaStart" : 0.0,
                                    "mediaDuration" : 3528000000.0,
                                    "scalar" : 1,
                                    "metadata" : {
                                      "clipSpeedAttribute" : false,
                                      "effectApplied" : "none",
                                      "isOpen" : false,
                                      "lockAspectRatio" : true
                                    },
                                    "animationTracks" : {

                                    }
                                  }
                                ],
                                  "ident" : "",
                                  "audioMuted" : false,
                                  "videoHidden" : false,
                                  "magnetic" : false,
                                  "matte" : 0,
                                  "solo" : false,
                                  "metadata" : {
                                    "IsLocked" : "False",
                                    "WinTrackHeight" : "56",
                                    "trackHeight" : "54"
                                  }
                              },
                              {
                                "trackIndex" : 1,
                                "medias" : [
                                  {
                                    "id" : 259,
                                    "_type" : "Callout",
                                    "def" : {
                                      "kind" : "remix",
                                      "shape" : "text",
                                      "style" : "urban",
                                      "enable-ligatures" : 1.0,
                                      "hasDropShadow" : 0.0,
                                      "height" : 170.0,
                                      "line-spacing" : 0.0,
                                      "savedXScale" : 1.0,
                                      "savedYScale" : 1.0,
                                      "width" : 1400.0,
                                      "word-wrap" : 1.0,
                                      "custom" : "Y",
                                      "horizontal-alignment" : "left",
                                      "resize-behavior" : "resizeText",
                                      "text" : "paste values only",
                                      "vertical-alignment" : "center",
                                      "font" : {
                                        "color-blue" : 1.0,
                                        "color-green" : 1.0,
                                        "color-red" : 1.0,
                                        "size" : 96.0,
                                        "tracking" : 0.0,
                                        "name" : "Dosis",
                                        "weight" : "Semi Bold"
                                      },
                                      "textAttributes" : {
                                        "type" : "textAttributeList",
                                        "keyframes" : [
                                          {
                                            "endTime" : 0,
                                            "time" : 0,
                                            "value" : [{"name":"underline","rangeEnd":17,"rangeStart":0,"value":0,"valueType":"int"},{"name":"strikethrough","rangeEnd":17,"rangeStart":0,"value":0,"valueType":"int"},{"name":"fontName","rangeEnd":17,"rangeStart":0,"value":"Roboto","valueType":"string"},{"name":"kerning","rangeEnd":17,"rangeStart":0,"value":0.049883078231292483,"valueType":"double"},{"name":"fontItalic","rangeEnd":17,"rangeStart":0,"value":0,"valueType":"int"},{"name":"fontWeight","rangeEnd":17,"rangeStart":0,"value":700,"valueType":"int"},{"name":"fontSize","rangeEnd":17,"rangeStart":0,"value":86,"valueType":"double"},{"name":"fgColor","rangeEnd":17,"rangeStart":0,"value":"(110,110,110,255)","valueType":"color"}],
                                            "duration" : 0
                                          }
                                        ]
                                      }
                                    },
                                    "attributes" : {
                                      "ident" : "",
                                      "autoRotateText" : true
                                    },
                                    "parameters" : {
                                      "translation1" : -2.0,
                                      "sourceCrop0" : 0.0,
                                      "sourceCrop1" : 0.0,
                                      "sourceCrop2" : 0.0,
                                      "sourceCrop3" : 0.0,
                                      "geometryCrop0" : 0.0,
                                      "geometryCrop1" : 0.0,
                                      "geometryCrop2" : 0.0,
                                      "geometryCrop3" : 0.0
                                    },
                                    "effects" : [

                                    ],
                                    "start" : 0,
                                    "duration" : 3528000000,
                                    "mediaStart" : 0,
                                    "mediaDuration" : 3528000000,
                                    "scalar" : 1,
                                    "metadata" : {
                                      "AppliedThemeId" : "",
                                      "clipSpeedAttribute" : false,
                                      "effectApplied" : "none",
                                      "lockAspectRatio" : false
                                    },
                                    "animationTracks" : {

                                    }
                                  }
                                ],
                                  "ident" : "",
                                  "audioMuted" : false,
                                  "videoHidden" : false,
                                  "magnetic" : false,
                                  "matte" : 0,
                                  "solo" : false,
                                  "metadata" : {
                                    "IsLocked" : "False",
                                    "WinTrackHeight" : "56",
                                    "trackHeight" : "54"
                                  }
                              }
                            ],
                            "attributes" : {
                              "ident" : "BP-Title-11",
                              "widthAttr" : 1405.0,
                              "heightAttr" : 167.002,
                              "gain" : 1.0,
                              "mixToMono" : false,
                              "assetProperties" : [
                                {
                                  "type" : 0,
                                  "name" : "Title",
                                  "objects" : [ 259 ],
                                  "themeMappings" :  {
                                    "font-color" : "foreground-1"
                                  }
                                },
                                {
                                  "type" : 1,
                                  "name" : "Fill",
                                  "objects" : [ 257 ],
                                  "themeMappings" :  {
                                    "fill" : "background-1"
                                  }
                                }
                              ]
                            },
                            "effects" : [

                            ],
                            "start" : 0,
                            "duration" : 3528000000,
                            "mediaStart" : 0.0,
                            "mediaDuration" : 3528000000.0,
                            "scalar" : 1,
                            "metadata" : {
                              "clipSpeedAttribute" : false,
                              "effectApplied" : "none",
                              "isOpen" : false,
                              "lockAspectRatio" : true
                            },
                            "animationTracks" : {
                              "visual" : [
                                {
                                  "endTime" : 552720000,
                                  "duration" : 552720000,
                                  "range" : [ 0, 552720000],
                                  "interp" : "eioe"
                                },
                                {
                                  "endTime" : 1775760000,
                                  "duration" : 399840000,
                                  "range" : [ 1375920000, 399840000],
                                  "interp" : "eioe"
                                }
                              ]
                            }
                          }
                        ],
                          "ident" : "",
                          "audioMuted" : false,
                          "videoHidden" : false,
                          "magnetic" : false,
                          "matte" : 0,
                          "solo" : false,
                          "metadata" : {
                            "IsLocked" : "False",
                            "WinTrackHeight" : "56",
                            "trackHeight" : "54"
                          }
                      },
                      {
                        "trackIndex" : 1,
                        "medias" : [
                          {
                            "id" : 260,
                            "_type" : "Group",
                            "parameters" : {
                              "translation0" : {
                                "type" : "double",
                                "defaultValue" : 0.0,
                                "keyframes" : [
                                  {
                                    "endTime" : 552720000,
                                    "time" : 0,
                                    "value" : 0.0,
                                    "interp" : "eioe",
                                    "duration" : 552720000
                                  },
                                  {
                                    "endTime" : 1775760000,
                                    "time" : 1375920000,
                                    "value" : 0.0,
                                    "interp" : "eioe",
                                    "duration" : 399840000
                                  }
                                ]
                              },
                              "translation1" : {
                                "type" : "double",
                                "defaultValue" : -144.610046386719,
                                "keyframes" : [
                                  {
                                    "endTime" : 552720000,
                                    "time" : 0,
                                    "value" : 0.0,
                                    "interp" : "eioe",
                                    "duration" : 552720000
                                  },
                                  {
                                    "endTime" : 1775760000,
                                    "time" : 1375920000,
                                    "value" : -144.610046386719,
                                    "interp" : "eioe",
                                    "duration" : 399840000
                                  }
                                ]
                              },
                              "sourceCrop0" : 0.0,
                              "sourceCrop1" : 0.0,
                              "sourceCrop2" : 0.0,
                              "sourceCrop3" : 0.0,
                              "geometryCrop0" : 0.0,
                              "geometryCrop1" : 0.0,
                              "geometryCrop2" : 0.0,
                              "geometryCrop3" : 0.0,
                              "opacity" : {
                                "type" : "double",
                                "defaultValue" : 1.0,
                                "keyframes" : [
                                  {
                                    "endTime" : 552720000,
                                    "time" : 0,
                                    "value" : 1.0,
                                    "interp" : "eioe",
                                    "duration" : 552720000
                                  }
                                ]
                              },
                              "volume" : 1.0
                            },
                            "tracks" : [
                              {
                                "trackIndex" : 0,
                                "medias" : [
                                  {
                                    "id" : 261,
                                    "_type" : "Callout",
                                    "def" : {
                                      "kind" : "remix",
                                      "shape" : "shape-rectangle",
                                      "style" : "bold",
                                      "fill-color-blue" : 0.913725490196078,
                                      "fill-color-green" : 0.949019607843137,
                                      "fill-color-opacity" : 1.0,
                                      "fill-color-red" : 0.933333333333333,
                                      "hasDropShadow" : 0.0,
                                      "height" : 163.002035140991,
                                      "savedXScale" : 1.0,
                                      "savedYScale" : 1.0,
                                      "stroke-color-blue" : 1.0,
                                      "stroke-color-green" : 1.0,
                                      "stroke-color-opacity" : 1.0,
                                      "stroke-color-red" : 1.0,
                                      "stroke-width" : 0.0,
                                      "width" : 1403.00212860107,
                                      "custom" : "Y",
                                      "fill-style" : "solid",
                                      "stroke-style" : "solid"
                                    },
                                    "attributes" : {
                                      "ident" : "",
                                      "autoRotateText" : true
                                    },
                                    "parameters" : {
                                      "anchor0" : -1.0,
                                      "anchor1" : 2.0,
                                      "sourceCrop0" : 0.0,
                                      "sourceCrop1" : 0.0,
                                      "sourceCrop2" : 0.0,
                                      "sourceCrop3" : 0.0,
                                      "geometryCrop0" : 0.0,
                                      "geometryCrop1" : 0.0,
                                      "geometryCrop2" : 0.0,
                                      "geometryCrop3" : 0.0
                                    },
                                    "effects" : [

                                    ],
                                    "start" : 0,
                                    "duration" : 3528000000,
                                    "mediaStart" : 0,
                                    "mediaDuration" : 3528000000,
                                    "scalar" : 1,
                                    "metadata" : {
                                      "AppliedThemeId" : "",
                                      "clipSpeedAttribute" : false,
                                      "effectApplied" : "none",
                                      "lockAspectRatio" : false
                                    },
                                    "animationTracks" : {

                                    }
                                  }
                                ],
                                  "ident" : "",
                                  "audioMuted" : false,
                                  "videoHidden" : false,
                                  "magnetic" : false,
                                  "matte" : 0,
                                  "solo" : false,
                                  "metadata" : {
                                    "IsLocked" : "False",
                                    "WinTrackHeight" : "56",
                                    "trackHeight" : "54"
                                  }
                              },
                              {
                                "trackIndex" : 1,
                                "medias" : [
                                  {
                                    "id" : 262,
                                    "_type" : "Callout",
                                    "def" : {
                                      "kind" : "remix",
                                      "shape" : "shape-rectangle",
                                      "style" : "bold",
                                      "fill-color-blue" : 0.756862759590149,
                                      "fill-color-green" : 0.18823529779911,
                                      "fill-color-opacity" : 1.0,
                                      "fill-color-red" : 0.960784316062927,
                                      "hasDropShadow" : 0.0,
                                      "height" : 160.0,
                                      "savedXScale" : 1.0,
                                      "savedYScale" : 1.0,
                                      "stroke-color-blue" : 0.886274516582489,
                                      "stroke-color-green" : 0.200000002980232,
                                      "stroke-color-opacity" : 0.0,
                                      "stroke-color-red" : 0.376470595598221,
                                      "stroke-width" : 0.0,
                                      "width" : 1400.0,
                                      "custom" : "Y",
                                      "fill-style" : "solid",
                                      "stroke-style" : "solid"
                                    },
                                    "attributes" : {
                                      "ident" : "",
                                      "autoRotateText" : true
                                    },
                                    "parameters" : {
                                      "sourceCrop0" : 0.0,
                                      "sourceCrop1" : 0.0,
                                      "sourceCrop2" : 0.0,
                                      "sourceCrop3" : 0.0,
                                      "geometryCrop0" : 0.0,
                                      "geometryCrop1" : 0.0,
                                      "geometryCrop2" : 0.0,
                                      "geometryCrop3" : 0.0
                                    },
                                    "effects" : [

                                    ],
                                    "start" : 0,
                                    "duration" : 3528000000,
                                    "mediaStart" : 0,
                                    "mediaDuration" : 3528000000,
                                    "scalar" : 1,
                                    "metadata" : {
                                      "AppliedThemeId" : "",
                                      "clipSpeedAttribute" : false,
                                      "effectApplied" : "none"
                                    },
                                    "animationTracks" : {

                                    }
                                  }
                                ],
                                  "ident" : "",
                                  "audioMuted" : false,
                                  "videoHidden" : false,
                                  "magnetic" : false,
                                  "matte" : 1,
                                  "solo" : false,
                                  "metadata" : {
                                    "IsLocked" : "False",
                                    "WinTrackHeight" : "56",
                                    "trackHeight" : "54"
                                  }
                              }
                            ],
                            "attributes" : {
                              "ident" : "Rect-1400x1600-Mask",
                              "widthAttr" : 1405.0,
                              "heightAttr" : 167.002,
                              "gain" : 1.0,
                              "mixToMono" : false
                            },
                            "effects" : [

                            ],
                            "start" : 0,
                            "duration" : 3528000000,
                            "mediaStart" : 0.0,
                            "mediaDuration" : 3528000000.0,
                            "scalar" : 1,
                            "metadata" : {
                              "clipSpeedAttribute" : false,
                              "effectApplied" : "none",
                              "isOpen" : false,
                              "lockAspectRatio" : true
                            },
                            "animationTracks" : {
                              "visual" : [
                                {
                                  "endTime" : 552720000,
                                  "duration" : 552720000,
                                  "range" : [ 0, 552720000],
                                  "interp" : "eioe"
                                },
                                {
                                  "endTime" : 1775760000,
                                  "duration" : 399840000,
                                  "range" : [ 1375920000, 399840000],
                                  "interp" : "eioe"
                                }
                              ]
                            }
                          }
                        ],
                          "ident" : "",
                          "audioMuted" : false,
                          "videoHidden" : false,
                          "magnetic" : false,
                          "matte" : 1,
                          "solo" : false,
                          "metadata" : {
                            "IsLocked" : "False",
                            "WinTrackHeight" : "56",
                            "trackHeight" : "54"
                          }
                      },
                      {
                        "trackIndex" : 2,
                        "medias" : [
                          {
                            "id" : 263,
                            "_type" : "Group",
                            "parameters" : {
                              "translation0" : {
                                "type" : "double",
                                "defaultValue" : 0.0,
                                "keyframes" : [
                                  {
                                    "endTime" : 552720000,
                                    "time" : 0,
                                    "value" : 0.0,
                                    "interp" : "eioe",
                                    "duration" : 552720000
                                  },
                                  {
                                    "endTime" : 1775760000,
                                    "time" : 1375920000,
                                    "value" : 0.0,
                                    "interp" : "eioe",
                                    "duration" : 399840000
                                  }
                                ]
                              },
                              "translation1" : {
                                "type" : "double",
                                "defaultValue" : -233.610046386719,
                                "keyframes" : [
                                  {
                                    "endTime" : 552720000,
                                    "time" : 0,
                                    "value" : 90.0,
                                    "interp" : "eioe",
                                    "duration" : 552720000
                                  },
                                  {
                                    "endTime" : 1775760000,
                                    "time" : 1375920000,
                                    "value" : -233.610046386719,
                                    "interp" : "eioe",
                                    "duration" : 399840000
                                  }
                                ]
                              },
                              "sourceCrop0" : 0.0,
                              "sourceCrop1" : 0.0,
                              "sourceCrop2" : 0.0,
                              "sourceCrop3" : 0.0,
                              "geometryCrop0" : 0.0,
                              "geometryCrop1" : 0.0,
                              "geometryCrop2" : 0.0,
                              "geometryCrop3" : 0.0,
                              "opacity" : {
                                "type" : "double",
                                "defaultValue" : 1.0,
                                "keyframes" : [
                                  {
                                    "endTime" : 552720000,
                                    "time" : 0,
                                    "value" : 1.0,
                                    "interp" : "eioe",
                                    "duration" : 552720000
                                  }
                                ]
                              },
                              "volume" : 1.0
                            },
                            "tracks" : [
                              {
                                "trackIndex" : 0,
                                "medias" : [
                                  {
                                    "id" : 264,
                                    "_type" : "Callout",
                                    "def" : {
                                      "kind" : "remix",
                                      "shape" : "shape-rectangle",
                                      "style" : "bold",
                                      "fill-color-blue" : 0.2196078431,
                                      "fill-color-green" : 0.8745098039,
                                      "fill-color-opacity" : 1.0,
                                      "fill-color-red" : 1.0,
                                      "hasDropShadow" : 0.0,
                                      "height" : 163.002035140991,
                                      "savedXScale" : 1.0,
                                      "savedYScale" : 1.0,
                                      "stroke-color-blue" : 1.0,
                                      "stroke-color-green" : 1.0,
                                      "stroke-color-opacity" : 1.0,
                                      "stroke-color-red" : 1.0,
                                      "stroke-width" : 0.0,
                                      "width" : 1403.00212860107,
                                      "custom" : "Y",
                                      "fill-style" : "solid",
                                      "stroke-style" : "solid"
                                    },
                                    "attributes" : {
                                      "ident" : "",
                                      "autoRotateText" : true
                                    },
                                    "parameters" : {
                                      "anchor0" : -1.0,
                                      "anchor1" : 2.0,
                                      "sourceCrop0" : 0.0,
                                      "sourceCrop1" : 0.0,
                                      "sourceCrop2" : 0.0,
                                      "sourceCrop3" : 0.0,
                                      "geometryCrop0" : 0.0,
                                      "geometryCrop1" : 0.0,
                                      "geometryCrop2" : 0.0,
                                      "geometryCrop3" : 0.0
                                    },
                                    "effects" : [

                                    ],
                                    "start" : 0,
                                    "duration" : 3528000000,
                                    "mediaStart" : 0,
                                    "mediaDuration" : 3528000000,
                                    "scalar" : 1,
                                    "metadata" : {
                                      "AppliedThemeId" : "",
                                      "clipSpeedAttribute" : false,
                                      "effectApplied" : "none",
                                      "lockAspectRatio" : false
                                    },
                                    "animationTracks" : {

                                    }
                                  }
                                ],
                                  "ident" : "",
                                  "audioMuted" : false,
                                  "videoHidden" : false,
                                  "magnetic" : false,
                                  "matte" : 0,
                                  "solo" : false,
                                  "metadata" : {
                                    "IsLocked" : "False",
                                    "WinTrackHeight" : "56",
                                    "trackHeight" : "54"
                                  }
                              },
                              {
                                "trackIndex" : 1,
                                "medias" : [
                                  {
                                    "id" : 265,
                                    "_type" : "Callout",
                                    "def" : {
                                      "kind" : "remix",
                                      "shape" : "shape-rectangle",
                                      "style" : "bold",
                                      "fill-color-blue" : 0.756862759590149,
                                      "fill-color-green" : 0.18823529779911,
                                      "fill-color-opacity" : 1.0,
                                      "fill-color-red" : 0.960784316062927,
                                      "hasDropShadow" : 0.0,
                                      "height" : 160.0,
                                      "savedXScale" : 1.0,
                                      "savedYScale" : 1.0,
                                      "stroke-color-blue" : 0.886274516582489,
                                      "stroke-color-green" : 0.200000002980232,
                                      "stroke-color-opacity" : 0.0,
                                      "stroke-color-red" : 0.376470595598221,
                                      "stroke-width" : 0.0,
                                      "width" : 1400.0,
                                      "custom" : "Y",
                                      "fill-style" : "solid",
                                      "stroke-style" : "solid"
                                    },
                                    "attributes" : {
                                      "ident" : "",
                                      "autoRotateText" : true
                                    },
                                    "parameters" : {
                                      "translation1" : {
                                        "type" : "double",
                                        "defaultValue" : -1.0,
                                        "keyframes" : [
                                          {
                                            "endTime" : 270480000,
                                            "time" : 0,
                                            "value" : 0.0,
                                            "duration" : 270480000
                                          }
                                        ]
                                      },
                                      "scale0" : {
                                        "type" : "double",
                                        "defaultValue" : 1.0,
                                        "keyframes" : [
                                          {
                                            "endTime" : 270480000,
                                            "time" : 0,
                                            "value" : 1.0,
                                            "duration" : 270480000
                                          }
                                        ]
                                      },
                                      "scale1" : {
                                        "type" : "double",
                                        "defaultValue" : 0.125,
                                        "keyframes" : [
                                          {
                                            "endTime" : 270480000,
                                            "time" : 0,
                                            "value" : 0.5,
                                            "duration" : 270480000
                                          },
                                          {
                                            "endTime" : 552720000,
                                            "time" : 282240000,
                                            "value" : 0.125,
                                            "duration" : 270480000
                                          }
                                        ]
                                      },
                                      "sourceCrop0" : 0.0,
                                      "sourceCrop1" : 0.0,
                                      "sourceCrop2" : 0.0,
                                      "sourceCrop3" : 0.0,
                                      "geometryCrop0" : 0.0,
                                      "geometryCrop1" : 0.0,
                                      "geometryCrop2" : 0.0,
                                      "geometryCrop3" : 0.0
                                    },
                                    "effects" : [

                                    ],
                                    "start" : 0,
                                    "duration" : 3528000000,
                                    "mediaStart" : 0,
                                    "mediaDuration" : 3528000000,
                                    "scalar" : 1,
                                    "metadata" : {
                                      "AppliedThemeId" : "",
                                      "clipSpeedAttribute" : false,
                                      "effectApplied" : "none"
                                    },
                                    "animationTracks" : {
                                      "visual" : [
                                        {
                                          "endTime" : 270480000,
                                          "duration" : 270480000,
                                          "range" : [ 0, 270480000]
                                        },
                                        {
                                          "endTime" : 552720000,
                                          "duration" : 270480000,
                                          "range" : [ 282240000, 270480000]
                                        }
                                      ]
                                    }
                                  }
                                ],
                                  "ident" : "",
                                  "audioMuted" : false,
                                  "videoHidden" : false,
                                  "magnetic" : false,
                                  "matte" : 1,
                                  "solo" : false,
                                  "metadata" : {
                                    "IsLocked" : "False",
                                    "WinTrackHeight" : "56",
                                    "trackHeight" : "54"
                                  }
                              }
                            ],
                            "attributes" : {
                              "ident" : "Animated-Pulse-1400x20-To-1400x80",
                              "widthAttr" : 1405.0,
                              "heightAttr" : 167.002,
                              "gain" : 1.0,
                              "mixToMono" : false,
                              "assetProperties" : [
                                {
                                  "type" : 1,
                                  "name" : "Color",
                                  "objects" : [ 264 ],
                                  "themeMappings" :  {
                                    "fill" : "accent-1"
                                  }
                                }
                              ]
                            },
                            "effects" : [

                            ],
                            "start" : 0,
                            "duration" : 3528000000,
                            "mediaStart" : 0.0,
                            "mediaDuration" : 3528000000.0,
                            "scalar" : 1,
                            "metadata" : {
                              "AppliedThemeId" : "8e797988-b823-4beb-b251-1d31b461ba07",
                              "clipSpeedAttribute" : false,
                              "effectApplied" : "none",
                              "isOpen" : false,
                              "lockAspectRatio" : true
                            },
                            "animationTracks" : {
                              "visual" : [
                                {
                                  "endTime" : 552720000,
                                  "duration" : 552720000,
                                  "range" : [ 0, 552720000],
                                  "interp" : "eioe"
                                },
                                {
                                  "endTime" : 1775760000,
                                  "duration" : 399840000,
                                  "range" : [ 1375920000, 399840000],
                                  "interp" : "eioe"
                                }
                              ]
                            }
                          }
                        ],
                          "ident" : "",
                          "audioMuted" : false,
                          "videoHidden" : false,
                          "magnetic" : false,
                          "matte" : 0,
                          "solo" : false,
                          "metadata" : {
                            "IsLocked" : "False",
                            "WinTrackHeight" : "56",
                            "trackHeight" : "54"
                          }
                      },
                      {
                        "trackIndex" : 3,
                        "medias" : [
                          {
                            "id" : 266,
                            "_type" : "Group",
                            "parameters" : {
                              "translation0" : {
                                "type" : "double",
                                "defaultValue" : 0.0,
                                "keyframes" : [
                                  {
                                    "endTime" : 552720000,
                                    "time" : 0,
                                    "value" : 0.0,
                                    "interp" : "eioe",
                                    "duration" : 552720000
                                  },
                                  {
                                    "endTime" : 1775760000,
                                    "time" : 1375920000,
                                    "value" : 0.0,
                                    "interp" : "eioe",
                                    "duration" : 399840000
                                  }
                                ]
                              },
                              "translation1" : {
                                "type" : "double",
                                "defaultValue" : -143.610046386719,
                                "keyframes" : [
                                  {
                                    "endTime" : 552720000,
                                    "time" : 0,
                                    "value" : 0.0,
                                    "interp" : "eioe",
                                    "duration" : 552720000
                                  },
                                  {
                                    "endTime" : 1775760000,
                                    "time" : 1375920000,
                                    "value" : -143.610046386719,
                                    "interp" : "eioe",
                                    "duration" : 399840000
                                  }
                                ]
                              },
                              "sourceCrop0" : 0.0,
                              "sourceCrop1" : 0.0,
                              "sourceCrop2" : 0.0,
                              "sourceCrop3" : 0.0,
                              "geometryCrop0" : 0.0,
                              "geometryCrop1" : 0.0,
                              "geometryCrop2" : 0.0,
                              "geometryCrop3" : 0.0,
                              "opacity" : {
                                "type" : "double",
                                "defaultValue" : 1.0,
                                "keyframes" : [
                                  {
                                    "endTime" : 552720000,
                                    "time" : 0,
                                    "value" : 1.0,
                                    "interp" : "eioe",
                                    "duration" : 552720000
                                  }
                                ]
                              },
                              "volume" : 1.0
                            },
                            "tracks" : [
                              {
                                "trackIndex" : 0,
                                "medias" : [
                                  {
                                    "id" : 267,
                                    "_type" : "Callout",
                                    "def" : {
                                      "kind" : "remix",
                                      "shape" : "shape-rectangle",
                                      "style" : "bold",
                                      "fill-color-blue" : 0.913725490196078,
                                      "fill-color-green" : 0.949019607843137,
                                      "fill-color-opacity" : 1.0,
                                      "fill-color-red" : 0.933333333333333,
                                      "hasDropShadow" : 0.0,
                                      "height" : 163.002035140991,
                                      "savedXScale" : 1.0,
                                      "savedYScale" : 1.0,
                                      "stroke-color-blue" : 1.0,
                                      "stroke-color-green" : 1.0,
                                      "stroke-color-opacity" : 1.0,
                                      "stroke-color-red" : 1.0,
                                      "stroke-width" : 0.0,
                                      "width" : 1403.00212860107,
                                      "custom" : "Y",
                                      "fill-style" : "solid",
                                      "stroke-style" : "solid"
                                    },
                                    "attributes" : {
                                      "ident" : "",
                                      "autoRotateText" : true
                                    },
                                    "parameters" : {
                                      "anchor0" : -1.0,
                                      "anchor1" : 2.0,
                                      "sourceCrop0" : 0.0,
                                      "sourceCrop1" : 0.0,
                                      "sourceCrop2" : 0.0,
                                      "sourceCrop3" : 0.0,
                                      "geometryCrop0" : 0.0,
                                      "geometryCrop1" : 0.0,
                                      "geometryCrop2" : 0.0,
                                      "geometryCrop3" : 0.0
                                    },
                                    "effects" : [

                                    ],
                                    "start" : 0,
                                    "duration" : 3528000000,
                                    "mediaStart" : 0,
                                    "mediaDuration" : 3528000000,
                                    "scalar" : 1,
                                    "metadata" : {
                                      "AppliedThemeId" : "",
                                      "clipSpeedAttribute" : false,
                                      "effectApplied" : "none",
                                      "lockAspectRatio" : false
                                    },
                                    "animationTracks" : {

                                    }
                                  }
                                ],
                                  "ident" : "",
                                  "audioMuted" : false,
                                  "videoHidden" : false,
                                  "magnetic" : false,
                                  "matte" : 0,
                                  "solo" : false,
                                  "metadata" : {
                                    "IsLocked" : "False",
                                    "WinTrackHeight" : "56",
                                    "trackHeight" : "54"
                                  }
                              },
                              {
                                "trackIndex" : 1,
                                "medias" : [
                                  {
                                    "id" : 268,
                                    "_type" : "Callout",
                                    "def" : {
                                      "kind" : "remix",
                                      "shape" : "shape-rectangle",
                                      "style" : "bold",
                                      "fill-color-blue" : 0.756862759590149,
                                      "fill-color-green" : 0.18823529779911,
                                      "fill-color-opacity" : 1.0,
                                      "fill-color-red" : 0.960784316062927,
                                      "hasDropShadow" : 0.0,
                                      "height" : 160.0,
                                      "savedXScale" : 1.0,
                                      "savedYScale" : 1.0,
                                      "stroke-color-blue" : 0.886274516582489,
                                      "stroke-color-green" : 0.200000002980232,
                                      "stroke-color-opacity" : 0.0,
                                      "stroke-color-red" : 0.376470595598221,
                                      "stroke-width" : 0.0,
                                      "width" : 1400.0,
                                      "custom" : "Y",
                                      "fill-style" : "solid",
                                      "stroke-style" : "solid"
                                    },
                                    "attributes" : {
                                      "ident" : "",
                                      "autoRotateText" : true
                                    },
                                    "parameters" : {
                                      "sourceCrop0" : 0.0,
                                      "sourceCrop1" : 0.0,
                                      "sourceCrop2" : 0.0,
                                      "sourceCrop3" : 0.0,
                                      "geometryCrop0" : 0.0,
                                      "geometryCrop1" : 0.0,
                                      "geometryCrop2" : 0.0,
                                      "geometryCrop3" : 0.0
                                    },
                                    "effects" : [

                                    ],
                                    "start" : 0,
                                    "duration" : 3528000000,
                                    "mediaStart" : 0,
                                    "mediaDuration" : 3528000000,
                                    "scalar" : 1,
                                    "metadata" : {
                                      "AppliedThemeId" : "",
                                      "clipSpeedAttribute" : false,
                                      "effectApplied" : "none"
                                    },
                                    "animationTracks" : {

                                    }
                                  }
                                ],
                                  "ident" : "",
                                  "audioMuted" : false,
                                  "videoHidden" : false,
                                  "magnetic" : false,
                                  "matte" : 1,
                                  "solo" : false,
                                  "metadata" : {
                                    "IsLocked" : "False",
                                    "WinTrackHeight" : "56",
                                    "trackHeight" : "54"
                                  }
                              }
                            ],
                            "attributes" : {
                              "ident" : "Rect-1400x1600-Mask",
                              "widthAttr" : 1405.0,
                              "heightAttr" : 167.002,
                              "gain" : 1.0,
                              "mixToMono" : false
                            },
                            "effects" : [

                            ],
                            "start" : 0,
                            "duration" : 3528000000,
                            "mediaStart" : 0.0,
                            "mediaDuration" : 3528000000.0,
                            "scalar" : 1,
                            "metadata" : {
                              "clipSpeedAttribute" : false,
                              "effectApplied" : "none",
                              "isOpen" : false,
                              "lockAspectRatio" : true
                            },
                            "animationTracks" : {
                              "visual" : [
                                {
                                  "endTime" : 552720000,
                                  "duration" : 552720000,
                                  "range" : [ 0, 552720000],
                                  "interp" : "eioe"
                                },
                                {
                                  "endTime" : 1775760000,
                                  "duration" : 399840000,
                                  "range" : [ 1375920000, 399840000],
                                  "interp" : "eioe"
                                }
                              ]
                            }
                          }
                        ],
                          "ident" : "",
                          "audioMuted" : false,
                          "videoHidden" : false,
                          "magnetic" : false,
                          "matte" : 1,
                          "solo" : false,
                          "metadata" : {
                            "IsLocked" : "False",
                            "WinTrackHeight" : "56",
                            "trackHeight" : "54"
                          }
                      }
                    ],
                    "attributes" : {
                      "ident" : "Broadcast-Title-012",
                      "widthAttr" : 1405.0,
                      "heightAttr" : 160.0,
                      "gain" : 1.0,
                      "mixToMono" : false,
                      "assetProperties" : [
                        {
                          "type" : 0,
                          "name" : "Title",
                          "objects" : [ 259 ],
                          "themeMappings" :  {
                            "font-color" : "foreground-1"
                          }
                        },
                        {
                          "type" : 1,
                          "name" : "Fill",
                          "objects" : [ 257 ],
                          "themeMappings" :  {
                            "fill" : "background-1"
                          }
                        },
                        {
                          "type" : 1,
                          "name" : "Wiper",
                          "objects" : [ 264 ],
                          "themeMappings" :  {
                            "fill" : "foreground-1"
                          }
                        }
                      ]
                    },
                    "effects" : [

                    ],
                    "start" : 1928640000,
                    "duration" : 1764000000,
                    "mediaStart" : 0.0,
                    "mediaDuration" : 1764000000.0,
                    "scalar" : 1,
                    "metadata" : {
                      "AppliedThemeId" : "170ba59c-db5d-4b9a-a310-e7e99853a4b7",
                      "clipSpeedAttribute" : false,
                      "default-anchor0" : 0.0,
                      "default-anchor1" : 0.0,
                      "default-anchor2" : 0.0,
                      "default-geometryCrop0" : 0.0,
                      "default-height" : 160.0,
                      "default-rotation0" : 0.0,
                      "default-rotation1" : 0.0,
                      "default-rotation2" : 0.0,
                      "default-scale0" : 1.0,
                      "default-scale1" : 1.0,
                      "default-scale2" : 1.0,
                      "default-shear0" : 0.0,
                      "default-shear1" : 0.0,
                      "default-shear2" : 0.0,
                      "default-translation0" : 0.0,
                      "default-translation1" : 0.0,
                      "default-translation2" : 0.0,
                      "default-width" : 1405.0,
                      "effectApplied" : "none",
                      "isOpen" : false,
                      "lockAspectRatio" : true
                    },
                    "animationTracks" : {

                    }
                  }
                ]
              },
              {
                "trackIndex" : 104,
                "medias" : [
                  {
                    "id" : 269,
                    "_type" : "Group",
                    "parameters" : {
                      "translation0" : -414.2,
                      "translation1" : 250.0,
                      "scale0" : 0.213523131672598,
                      "scale1" : 0.21875,
                      "sourceCrop0" : 0.0,
                      "sourceCrop1" : 0.0,
                      "sourceCrop2" : 0.0,
                      "sourceCrop3" : 0.0,
                      "geometryCrop0" : 0.0,
                      "geometryCrop1" : 0.0,
                      "geometryCrop2" : 0.0,
                      "geometryCrop3" : 0.0,
                      "volume" : 1.0
                    },
                    "tracks" : [
                      {
                        "trackIndex" : 0,
                        "medias" : [
                          {
                            "id" : 270,
                            "_type" : "Group",
                            "parameters" : {
                              "translation0" : {
                                "type" : "double",
                                "defaultValue" : 0.0,
                                "keyframes" : [
                                  {
                                    "endTime" : 552720000,
                                    "time" : 0,
                                    "value" : 0.0,
                                    "interp" : "eioe",
                                    "duration" : 552720000
                                  },
                                  {
                                    "endTime" : 1775760000,
                                    "time" : 1375920000,
                                    "value" : 0.0,
                                    "interp" : "eioe",
                                    "duration" : 399840000
                                  }
                                ]
                              },
                              "translation1" : {
                                "type" : "double",
                                "defaultValue" : -305.610046386719,
                                "keyframes" : [
                                  {
                                    "endTime" : 552720000,
                                    "time" : 0,
                                    "value" : 0.0,
                                    "interp" : "eioe",
                                    "duration" : 552720000
                                  },
                                  {
                                    "endTime" : 1775760000,
                                    "time" : 1375920000,
                                    "value" : -304.610046386719,
                                    "interp" : "eioe",
                                    "duration" : 399840000
                                  }
                                ]
                              },
                              "sourceCrop0" : 0.0,
                              "sourceCrop1" : 0.0,
                              "sourceCrop2" : 0.0,
                              "sourceCrop3" : 0.0,
                              "geometryCrop0" : 0.0,
                              "geometryCrop1" : 0.0,
                              "geometryCrop2" : 0.0,
                              "geometryCrop3" : 0.0,
                              "volume" : 1.0
                            },
                            "tracks" : [
                              {
                                "trackIndex" : 0,
                                "medias" : [
                                  {
                                    "id" : 271,
                                    "_type" : "Group",
                                    "parameters" : {
                                      "sourceCrop0" : 0.0,
                                      "sourceCrop1" : 0.0,
                                      "sourceCrop2" : 0.0,
                                      "sourceCrop3" : 0.0,
                                      "geometryCrop0" : 0.0,
                                      "geometryCrop1" : 0.0,
                                      "geometryCrop2" : 0.0,
                                      "geometryCrop3" : 0.0,
                                      "volume" : 1.0
                                    },
                                    "tracks" : [
                                      {
                                        "trackIndex" : 0,
                                        "medias" : [
                                          {
                                            "id" : 272,
                                            "_type" : "Callout",
                                            "def" : {
                                              "kind" : "remix",
                                              "shape" : "shape-rectangle",
                                              "style" : "bold",
                                              "fill-color-blue" : 1.0,
                                              "fill-color-green" : 1.0,
                                              "fill-color-opacity" : 1.0,
                                              "fill-color-red" : 1.0,
                                              "hasDropShadow" : 0.0,
                                              "height" : 163.002035140991,
                                              "savedXScale" : 1.0,
                                              "savedYScale" : 1.0,
                                              "stroke-color-blue" : 1.0,
                                              "stroke-color-green" : 1.0,
                                              "stroke-color-opacity" : 1.0,
                                              "stroke-color-red" : 1.0,
                                              "stroke-width" : 0.0,
                                              "width" : 1403.00212860107,
                                              "custom" : "Y",
                                              "fill-style" : "solid",
                                              "stroke-style" : "solid"
                                            },
                                            "attributes" : {
                                              "ident" : "",
                                              "autoRotateText" : true
                                            },
                                            "parameters" : {
                                              "anchor0" : -1.0,
                                              "anchor1" : 2.0,
                                              "sourceCrop0" : 0.0,
                                              "sourceCrop1" : 0.0,
                                              "sourceCrop2" : 0.0,
                                              "sourceCrop3" : 0.0,
                                              "geometryCrop0" : 0.0,
                                              "geometryCrop1" : 0.0,
                                              "geometryCrop2" : 0.0,
                                              "geometryCrop3" : 0.0
                                            },
                                            "effects" : [

                                            ],
                                            "start" : 0,
                                            "duration" : 3528000000,
                                            "mediaStart" : 0,
                                            "mediaDuration" : 3528000000,
                                            "scalar" : 1,
                                            "metadata" : {
                                              "AppliedThemeId" : "",
                                              "clipSpeedAttribute" : false,
                                              "effectApplied" : "none",
                                              "lockAspectRatio" : false
                                            },
                                            "animationTracks" : {

                                            }
                                          }
                                        ],
                                          "ident" : "",
                                          "audioMuted" : false,
                                          "videoHidden" : false,
                                          "magnetic" : false,
                                          "matte" : 0,
                                          "solo" : false,
                                          "metadata" : {
                                            "IsLocked" : "False",
                                            "WinTrackHeight" : "56",
                                            "trackHeight" : "54"
                                          }
                                      },
                                      {
                                        "trackIndex" : 1,
                                        "medias" : [
                                          {
                                            "id" : 273,
                                            "_type" : "Callout",
                                            "def" : {
                                              "kind" : "remix",
                                              "shape" : "shape-rectangle",
                                              "style" : "bold",
                                              "fill-color-blue" : 0.756862759590149,
                                              "fill-color-green" : 0.18823529779911,
                                              "fill-color-opacity" : 1.0,
                                              "fill-color-red" : 0.960784316062927,
                                              "hasDropShadow" : 0.0,
                                              "height" : 160.0,
                                              "savedXScale" : 1.0,
                                              "savedYScale" : 1.0,
                                              "stroke-color-blue" : 0.886274516582489,
                                              "stroke-color-green" : 0.200000002980232,
                                              "stroke-color-opacity" : 0.0,
                                              "stroke-color-red" : 0.376470595598221,
                                              "stroke-width" : 0.0,
                                              "width" : 1400.0,
                                              "custom" : "Y",
                                              "fill-style" : "solid",
                                              "stroke-style" : "solid"
                                            },
                                            "attributes" : {
                                              "ident" : "",
                                              "autoRotateText" : true
                                            },
                                            "parameters" : {
                                              "sourceCrop0" : 0.0,
                                              "sourceCrop1" : 0.0,
                                              "sourceCrop2" : 0.0,
                                              "sourceCrop3" : 0.0,
                                              "geometryCrop0" : 0.0,
                                              "geometryCrop1" : 0.0,
                                              "geometryCrop2" : 0.0,
                                              "geometryCrop3" : 0.0
                                            },
                                            "effects" : [

                                            ],
                                            "start" : 0,
                                            "duration" : 3528000000,
                                            "mediaStart" : 0,
                                            "mediaDuration" : 3528000000,
                                            "scalar" : 1,
                                            "metadata" : {
                                              "AppliedThemeId" : "",
                                              "clipSpeedAttribute" : false,
                                              "effectApplied" : "none"
                                            },
                                            "animationTracks" : {

                                            }
                                          }
                                        ],
                                          "ident" : "",
                                          "audioMuted" : false,
                                          "videoHidden" : false,
                                          "magnetic" : false,
                                          "matte" : 1,
                                          "solo" : false,
                                          "metadata" : {
                                            "IsLocked" : "False",
                                            "WinTrackHeight" : "56",
                                            "trackHeight" : "54"
                                          }
                                      }
                                    ],
                                    "attributes" : {
                                      "ident" : "Fill-1400x160",
                                      "widthAttr" : 1405.0,
                                      "heightAttr" : 167.002,
                                      "gain" : 1.0,
                                      "mixToMono" : false
                                    },
                                    "effects" : [

                                    ],
                                    "start" : 0,
                                    "duration" : 3528000000,
                                    "mediaStart" : 0.0,
                                    "mediaDuration" : 3528000000.0,
                                    "scalar" : 1,
                                    "metadata" : {
                                      "clipSpeedAttribute" : false,
                                      "effectApplied" : "none",
                                      "isOpen" : false,
                                      "lockAspectRatio" : true
                                    },
                                    "animationTracks" : {

                                    }
                                  }
                                ],
                                  "ident" : "",
                                  "audioMuted" : false,
                                  "videoHidden" : false,
                                  "magnetic" : false,
                                  "matte" : 0,
                                  "solo" : false,
                                  "metadata" : {
                                    "IsLocked" : "False",
                                    "WinTrackHeight" : "56",
                                    "trackHeight" : "54"
                                  }
                              },
                              {
                                "trackIndex" : 1,
                                "medias" : [
                                  {
                                    "id" : 274,
                                    "_type" : "Callout",
                                    "def" : {
                                      "kind" : "remix",
                                      "shape" : "text",
                                      "style" : "urban",
                                      "enable-ligatures" : 1.0,
                                      "hasDropShadow" : 0.0,
                                      "height" : 170.0,
                                      "line-spacing" : 0.0,
                                      "savedXScale" : 1.0,
                                      "savedYScale" : 1.0,
                                      "width" : 1400.0,
                                      "word-wrap" : 1.0,
                                      "custom" : "Y",
                                      "horizontal-alignment" : "left",
                                      "resize-behavior" : "resizeText",
                                      "text" : "fill right formula from cell",
                                      "vertical-alignment" : "center",
                                      "font" : {
                                        "color-blue" : 1.0,
                                        "color-green" : 1.0,
                                        "color-red" : 1.0,
                                        "size" : 96.0,
                                        "tracking" : 0.0,
                                        "name" : "Dosis",
                                        "weight" : "Semi Bold"
                                      },
                                      "textAttributes" : {
                                        "type" : "textAttributeList",
                                        "keyframes" : [
                                          {
                                            "endTime" : 0,
                                            "time" : 0,
                                            "value" : [{"name":"underline","rangeEnd":28,"rangeStart":0,"value":0,"valueType":"int"},{"name":"strikethrough","rangeEnd":28,"rangeStart":0,"value":0,"valueType":"int"},{"name":"fontName","rangeEnd":28,"rangeStart":0,"value":"Roboto","valueType":"string"},{"name":"kerning","rangeEnd":28,"rangeStart":0,"value":0.049883078231292483,"valueType":"double"},{"name":"fontItalic","rangeEnd":28,"rangeStart":0,"value":0,"valueType":"int"},{"name":"fontWeight","rangeEnd":28,"rangeStart":0,"value":700,"valueType":"int"},{"name":"fontSize","rangeEnd":28,"rangeStart":0,"value":86,"valueType":"double"},{"name":"fgColor","rangeEnd":28,"rangeStart":0,"value":"(110,110,110,255)","valueType":"color"}],
                                            "duration" : 0
                                          }
                                        ]
                                      }
                                    },
                                    "attributes" : {
                                      "ident" : "",
                                      "autoRotateText" : true
                                    },
                                    "parameters" : {
                                      "translation1" : -2.0,
                                      "sourceCrop0" : 0.0,
                                      "sourceCrop1" : 0.0,
                                      "sourceCrop2" : 0.0,
                                      "sourceCrop3" : 0.0,
                                      "geometryCrop0" : 0.0,
                                      "geometryCrop1" : 0.0,
                                      "geometryCrop2" : 0.0,
                                      "geometryCrop3" : 0.0
                                    },
                                    "effects" : [

                                    ],
                                    "start" : 0,
                                    "duration" : 3528000000,
                                    "mediaStart" : 0,
                                    "mediaDuration" : 3528000000,
                                    "scalar" : 1,
                                    "metadata" : {
                                      "AppliedThemeId" : "",
                                      "clipSpeedAttribute" : false,
                                      "effectApplied" : "none",
                                      "lockAspectRatio" : false
                                    },
                                    "animationTracks" : {

                                    }
                                  }
                                ],
                                  "ident" : "",
                                  "audioMuted" : false,
                                  "videoHidden" : false,
                                  "magnetic" : false,
                                  "matte" : 0,
                                  "solo" : false,
                                  "metadata" : {
                                    "IsLocked" : "False",
                                    "WinTrackHeight" : "56",
                                    "trackHeight" : "54"
                                  }
                              }
                            ],
                            "attributes" : {
                              "ident" : "BP-Title-11",
                              "widthAttr" : 1405.0,
                              "heightAttr" : 167.002,
                              "gain" : 1.0,
                              "mixToMono" : false,
                              "assetProperties" : [
                                {
                                  "type" : 0,
                                  "name" : "Title",
                                  "objects" : [ 274 ],
                                  "themeMappings" :  {
                                    "font-color" : "foreground-1"
                                  }
                                },
                                {
                                  "type" : 1,
                                  "name" : "Fill",
                                  "objects" : [ 272 ],
                                  "themeMappings" :  {
                                    "fill" : "background-1"
                                  }
                                }
                              ]
                            },
                            "effects" : [

                            ],
                            "start" : 0,
                            "duration" : 3528000000,
                            "mediaStart" : 0.0,
                            "mediaDuration" : 3528000000.0,
                            "scalar" : 1,
                            "metadata" : {
                              "clipSpeedAttribute" : false,
                              "effectApplied" : "none",
                              "isOpen" : false,
                              "lockAspectRatio" : true
                            },
                            "animationTracks" : {
                              "visual" : [
                                {
                                  "endTime" : 552720000,
                                  "duration" : 552720000,
                                  "range" : [ 0, 552720000],
                                  "interp" : "eioe"
                                },
                                {
                                  "endTime" : 1775760000,
                                  "duration" : 399840000,
                                  "range" : [ 1375920000, 399840000],
                                  "interp" : "eioe"
                                }
                              ]
                            }
                          }
                        ],
                          "ident" : "",
                          "audioMuted" : false,
                          "videoHidden" : false,
                          "magnetic" : false,
                          "matte" : 0,
                          "solo" : false,
                          "metadata" : {
                            "IsLocked" : "False",
                            "WinTrackHeight" : "56",
                            "trackHeight" : "54"
                          }
                      },
                      {
                        "trackIndex" : 1,
                        "medias" : [
                          {
                            "id" : 275,
                            "_type" : "Group",
                            "parameters" : {
                              "translation0" : {
                                "type" : "double",
                                "defaultValue" : 0.0,
                                "keyframes" : [
                                  {
                                    "endTime" : 552720000,
                                    "time" : 0,
                                    "value" : 0.0,
                                    "interp" : "eioe",
                                    "duration" : 552720000
                                  },
                                  {
                                    "endTime" : 1775760000,
                                    "time" : 1375920000,
                                    "value" : 0.0,
                                    "interp" : "eioe",
                                    "duration" : 399840000
                                  }
                                ]
                              },
                              "translation1" : {
                                "type" : "double",
                                "defaultValue" : -144.610046386719,
                                "keyframes" : [
                                  {
                                    "endTime" : 552720000,
                                    "time" : 0,
                                    "value" : 0.0,
                                    "interp" : "eioe",
                                    "duration" : 552720000
                                  },
                                  {
                                    "endTime" : 1775760000,
                                    "time" : 1375920000,
                                    "value" : -144.610046386719,
                                    "interp" : "eioe",
                                    "duration" : 399840000
                                  }
                                ]
                              },
                              "sourceCrop0" : 0.0,
                              "sourceCrop1" : 0.0,
                              "sourceCrop2" : 0.0,
                              "sourceCrop3" : 0.0,
                              "geometryCrop0" : 0.0,
                              "geometryCrop1" : 0.0,
                              "geometryCrop2" : 0.0,
                              "geometryCrop3" : 0.0,
                              "opacity" : {
                                "type" : "double",
                                "defaultValue" : 1.0,
                                "keyframes" : [
                                  {
                                    "endTime" : 552720000,
                                    "time" : 0,
                                    "value" : 1.0,
                                    "interp" : "eioe",
                                    "duration" : 552720000
                                  }
                                ]
                              },
                              "volume" : 1.0
                            },
                            "tracks" : [
                              {
                                "trackIndex" : 0,
                                "medias" : [
                                  {
                                    "id" : 276,
                                    "_type" : "Callout",
                                    "def" : {
                                      "kind" : "remix",
                                      "shape" : "shape-rectangle",
                                      "style" : "bold",
                                      "fill-color-blue" : 0.913725490196078,
                                      "fill-color-green" : 0.949019607843137,
                                      "fill-color-opacity" : 1.0,
                                      "fill-color-red" : 0.933333333333333,
                                      "hasDropShadow" : 0.0,
                                      "height" : 163.002035140991,
                                      "savedXScale" : 1.0,
                                      "savedYScale" : 1.0,
                                      "stroke-color-blue" : 1.0,
                                      "stroke-color-green" : 1.0,
                                      "stroke-color-opacity" : 1.0,
                                      "stroke-color-red" : 1.0,
                                      "stroke-width" : 0.0,
                                      "width" : 1403.00212860107,
                                      "custom" : "Y",
                                      "fill-style" : "solid",
                                      "stroke-style" : "solid"
                                    },
                                    "attributes" : {
                                      "ident" : "",
                                      "autoRotateText" : true
                                    },
                                    "parameters" : {
                                      "anchor0" : -1.0,
                                      "anchor1" : 2.0,
                                      "sourceCrop0" : 0.0,
                                      "sourceCrop1" : 0.0,
                                      "sourceCrop2" : 0.0,
                                      "sourceCrop3" : 0.0,
                                      "geometryCrop0" : 0.0,
                                      "geometryCrop1" : 0.0,
                                      "geometryCrop2" : 0.0,
                                      "geometryCrop3" : 0.0
                                    },
                                    "effects" : [

                                    ],
                                    "start" : 0,
                                    "duration" : 3528000000,
                                    "mediaStart" : 0,
                                    "mediaDuration" : 3528000000,
                                    "scalar" : 1,
                                    "metadata" : {
                                      "AppliedThemeId" : "",
                                      "clipSpeedAttribute" : false,
                                      "effectApplied" : "none",
                                      "lockAspectRatio" : false
                                    },
                                    "animationTracks" : {

                                    }
                                  }
                                ],
                                  "ident" : "",
                                  "audioMuted" : false,
                                  "videoHidden" : false,
                                  "magnetic" : false,
                                  "matte" : 0,
                                  "solo" : false,
                                  "metadata" : {
                                    "IsLocked" : "False",
                                    "WinTrackHeight" : "56",
                                    "trackHeight" : "54"
                                  }
                              },
                              {
                                "trackIndex" : 1,
                                "medias" : [
                                  {
                                    "id" : 277,
                                    "_type" : "Callout",
                                    "def" : {
                                      "kind" : "remix",
                                      "shape" : "shape-rectangle",
                                      "style" : "bold",
                                      "fill-color-blue" : 0.756862759590149,
                                      "fill-color-green" : 0.18823529779911,
                                      "fill-color-opacity" : 1.0,
                                      "fill-color-red" : 0.960784316062927,
                                      "hasDropShadow" : 0.0,
                                      "height" : 160.0,
                                      "savedXScale" : 1.0,
                                      "savedYScale" : 1.0,
                                      "stroke-color-blue" : 0.886274516582489,
                                      "stroke-color-green" : 0.200000002980232,
                                      "stroke-color-opacity" : 0.0,
                                      "stroke-color-red" : 0.376470595598221,
                                      "stroke-width" : 0.0,
                                      "width" : 1400.0,
                                      "custom" : "Y",
                                      "fill-style" : "solid",
                                      "stroke-style" : "solid"
                                    },
                                    "attributes" : {
                                      "ident" : "",
                                      "autoRotateText" : true
                                    },
                                    "parameters" : {
                                      "sourceCrop0" : 0.0,
                                      "sourceCrop1" : 0.0,
                                      "sourceCrop2" : 0.0,
                                      "sourceCrop3" : 0.0,
                                      "geometryCrop0" : 0.0,
                                      "geometryCrop1" : 0.0,
                                      "geometryCrop2" : 0.0,
                                      "geometryCrop3" : 0.0
                                    },
                                    "effects" : [

                                    ],
                                    "start" : 0,
                                    "duration" : 3528000000,
                                    "mediaStart" : 0,
                                    "mediaDuration" : 3528000000,
                                    "scalar" : 1,
                                    "metadata" : {
                                      "AppliedThemeId" : "",
                                      "clipSpeedAttribute" : false,
                                      "effectApplied" : "none"
                                    },
                                    "animationTracks" : {

                                    }
                                  }
                                ],
                                  "ident" : "",
                                  "audioMuted" : false,
                                  "videoHidden" : false,
                                  "magnetic" : false,
                                  "matte" : 1,
                                  "solo" : false,
                                  "metadata" : {
                                    "IsLocked" : "False",
                                    "WinTrackHeight" : "56",
                                    "trackHeight" : "54"
                                  }
                              }
                            ],
                            "attributes" : {
                              "ident" : "Rect-1400x1600-Mask",
                              "widthAttr" : 1405.0,
                              "heightAttr" : 167.002,
                              "gain" : 1.0,
                              "mixToMono" : false
                            },
                            "effects" : [

                            ],
                            "start" : 0,
                            "duration" : 3528000000,
                            "mediaStart" : 0.0,
                            "mediaDuration" : 3528000000.0,
                            "scalar" : 1,
                            "metadata" : {
                              "clipSpeedAttribute" : false,
                              "effectApplied" : "none",
                              "isOpen" : false,
                              "lockAspectRatio" : true
                            },
                            "animationTracks" : {
                              "visual" : [
                                {
                                  "endTime" : 552720000,
                                  "duration" : 552720000,
                                  "range" : [ 0, 552720000],
                                  "interp" : "eioe"
                                },
                                {
                                  "endTime" : 1775760000,
                                  "duration" : 399840000,
                                  "range" : [ 1375920000, 399840000],
                                  "interp" : "eioe"
                                }
                              ]
                            }
                          }
                        ],
                          "ident" : "",
                          "audioMuted" : false,
                          "videoHidden" : false,
                          "magnetic" : false,
                          "matte" : 1,
                          "solo" : false,
                          "metadata" : {
                            "IsLocked" : "False",
                            "WinTrackHeight" : "56",
                            "trackHeight" : "54"
                          }
                      },
                      {
                        "trackIndex" : 2,
                        "medias" : [
                          {
                            "id" : 278,
                            "_type" : "Group",
                            "parameters" : {
                              "translation0" : {
                                "type" : "double",
                                "defaultValue" : 0.0,
                                "keyframes" : [
                                  {
                                    "endTime" : 552720000,
                                    "time" : 0,
                                    "value" : 0.0,
                                    "interp" : "eioe",
                                    "duration" : 552720000
                                  },
                                  {
                                    "endTime" : 1775760000,
                                    "time" : 1375920000,
                                    "value" : 0.0,
                                    "interp" : "eioe",
                                    "duration" : 399840000
                                  }
                                ]
                              },
                              "translation1" : {
                                "type" : "double",
                                "defaultValue" : -233.610046386719,
                                "keyframes" : [
                                  {
                                    "endTime" : 552720000,
                                    "time" : 0,
                                    "value" : 90.0,
                                    "interp" : "eioe",
                                    "duration" : 552720000
                                  },
                                  {
                                    "endTime" : 1775760000,
                                    "time" : 1375920000,
                                    "value" : -233.610046386719,
                                    "interp" : "eioe",
                                    "duration" : 399840000
                                  }
                                ]
                              },
                              "sourceCrop0" : 0.0,
                              "sourceCrop1" : 0.0,
                              "sourceCrop2" : 0.0,
                              "sourceCrop3" : 0.0,
                              "geometryCrop0" : 0.0,
                              "geometryCrop1" : 0.0,
                              "geometryCrop2" : 0.0,
                              "geometryCrop3" : 0.0,
                              "opacity" : {
                                "type" : "double",
                                "defaultValue" : 1.0,
                                "keyframes" : [
                                  {
                                    "endTime" : 552720000,
                                    "time" : 0,
                                    "value" : 1.0,
                                    "interp" : "eioe",
                                    "duration" : 552720000
                                  }
                                ]
                              },
                              "volume" : 1.0
                            },
                            "tracks" : [
                              {
                                "trackIndex" : 0,
                                "medias" : [
                                  {
                                    "id" : 279,
                                    "_type" : "Callout",
                                    "def" : {
                                      "kind" : "remix",
                                      "shape" : "shape-rectangle",
                                      "style" : "bold",
                                      "fill-color-blue" : 0.2196078431,
                                      "fill-color-green" : 0.8745098039,
                                      "fill-color-opacity" : 1.0,
                                      "fill-color-red" : 1.0,
                                      "hasDropShadow" : 0.0,
                                      "height" : 163.002035140991,
                                      "savedXScale" : 1.0,
                                      "savedYScale" : 1.0,
                                      "stroke-color-blue" : 1.0,
                                      "stroke-color-green" : 1.0,
                                      "stroke-color-opacity" : 1.0,
                                      "stroke-color-red" : 1.0,
                                      "stroke-width" : 0.0,
                                      "width" : 1403.00212860107,
                                      "custom" : "Y",
                                      "fill-style" : "solid",
                                      "stroke-style" : "solid"
                                    },
                                    "attributes" : {
                                      "ident" : "",
                                      "autoRotateText" : true
                                    },
                                    "parameters" : {
                                      "anchor0" : -1.0,
                                      "anchor1" : 2.0,
                                      "sourceCrop0" : 0.0,
                                      "sourceCrop1" : 0.0,
                                      "sourceCrop2" : 0.0,
                                      "sourceCrop3" : 0.0,
                                      "geometryCrop0" : 0.0,
                                      "geometryCrop1" : 0.0,
                                      "geometryCrop2" : 0.0,
                                      "geometryCrop3" : 0.0
                                    },
                                    "effects" : [

                                    ],
                                    "start" : 0,
                                    "duration" : 3528000000,
                                    "mediaStart" : 0,
                                    "mediaDuration" : 3528000000,
                                    "scalar" : 1,
                                    "metadata" : {
                                      "AppliedThemeId" : "",
                                      "clipSpeedAttribute" : false,
                                      "effectApplied" : "none",
                                      "lockAspectRatio" : false
                                    },
                                    "animationTracks" : {

                                    }
                                  }
                                ],
                                  "ident" : "",
                                  "audioMuted" : false,
                                  "videoHidden" : false,
                                  "magnetic" : false,
                                  "matte" : 0,
                                  "solo" : false,
                                  "metadata" : {
                                    "IsLocked" : "False",
                                    "WinTrackHeight" : "56",
                                    "trackHeight" : "54"
                                  }
                              },
                              {
                                "trackIndex" : 1,
                                "medias" : [
                                  {
                                    "id" : 280,
                                    "_type" : "Callout",
                                    "def" : {
                                      "kind" : "remix",
                                      "shape" : "shape-rectangle",
                                      "style" : "bold",
                                      "fill-color-blue" : 0.756862759590149,
                                      "fill-color-green" : 0.18823529779911,
                                      "fill-color-opacity" : 1.0,
                                      "fill-color-red" : 0.960784316062927,
                                      "hasDropShadow" : 0.0,
                                      "height" : 160.0,
                                      "savedXScale" : 1.0,
                                      "savedYScale" : 1.0,
                                      "stroke-color-blue" : 0.886274516582489,
                                      "stroke-color-green" : 0.200000002980232,
                                      "stroke-color-opacity" : 0.0,
                                      "stroke-color-red" : 0.376470595598221,
                                      "stroke-width" : 0.0,
                                      "width" : 1400.0,
                                      "custom" : "Y",
                                      "fill-style" : "solid",
                                      "stroke-style" : "solid"
                                    },
                                    "attributes" : {
                                      "ident" : "",
                                      "autoRotateText" : true
                                    },
                                    "parameters" : {
                                      "translation1" : {
                                        "type" : "double",
                                        "defaultValue" : -1.0,
                                        "keyframes" : [
                                          {
                                            "endTime" : 270480000,
                                            "time" : 0,
                                            "value" : 0.0,
                                            "duration" : 270480000
                                          }
                                        ]
                                      },
                                      "scale0" : {
                                        "type" : "double",
                                        "defaultValue" : 1.0,
                                        "keyframes" : [
                                          {
                                            "endTime" : 270480000,
                                            "time" : 0,
                                            "value" : 1.0,
                                            "duration" : 270480000
                                          }
                                        ]
                                      },
                                      "scale1" : {
                                        "type" : "double",
                                        "defaultValue" : 0.125,
                                        "keyframes" : [
                                          {
                                            "endTime" : 270480000,
                                            "time" : 0,
                                            "value" : 0.5,
                                            "duration" : 270480000
                                          },
                                          {
                                            "endTime" : 552720000,
                                            "time" : 282240000,
                                            "value" : 0.125,
                                            "duration" : 270480000
                                          }
                                        ]
                                      },
                                      "sourceCrop0" : 0.0,
                                      "sourceCrop1" : 0.0,
                                      "sourceCrop2" : 0.0,
                                      "sourceCrop3" : 0.0,
                                      "geometryCrop0" : 0.0,
                                      "geometryCrop1" : 0.0,
                                      "geometryCrop2" : 0.0,
                                      "geometryCrop3" : 0.0
                                    },
                                    "effects" : [

                                    ],
                                    "start" : 0,
                                    "duration" : 3528000000,
                                    "mediaStart" : 0,
                                    "mediaDuration" : 3528000000,
                                    "scalar" : 1,
                                    "metadata" : {
                                      "AppliedThemeId" : "",
                                      "clipSpeedAttribute" : false,
                                      "effectApplied" : "none"
                                    },
                                    "animationTracks" : {
                                      "visual" : [
                                        {
                                          "endTime" : 270480000,
                                          "duration" : 270480000,
                                          "range" : [ 0, 270480000]
                                        },
                                        {
                                          "endTime" : 552720000,
                                          "duration" : 270480000,
                                          "range" : [ 282240000, 270480000]
                                        }
                                      ]
                                    }
                                  }
                                ],
                                  "ident" : "",
                                  "audioMuted" : false,
                                  "videoHidden" : false,
                                  "magnetic" : false,
                                  "matte" : 1,
                                  "solo" : false,
                                  "metadata" : {
                                    "IsLocked" : "False",
                                    "WinTrackHeight" : "56",
                                    "trackHeight" : "54"
                                  }
                              }
                            ],
                            "attributes" : {
                              "ident" : "Animated-Pulse-1400x20-To-1400x80",
                              "widthAttr" : 1405.0,
                              "heightAttr" : 167.002,
                              "gain" : 1.0,
                              "mixToMono" : false,
                              "assetProperties" : [
                                {
                                  "type" : 1,
                                  "name" : "Color",
                                  "objects" : [ 279 ],
                                  "themeMappings" :  {
                                    "fill" : "accent-1"
                                  }
                                }
                              ]
                            },
                            "effects" : [

                            ],
                            "start" : 0,
                            "duration" : 3528000000,
                            "mediaStart" : 0.0,
                            "mediaDuration" : 3528000000.0,
                            "scalar" : 1,
                            "metadata" : {
                              "AppliedThemeId" : "8e797988-b823-4beb-b251-1d31b461ba07",
                              "clipSpeedAttribute" : false,
                              "effectApplied" : "none",
                              "isOpen" : false,
                              "lockAspectRatio" : true
                            },
                            "animationTracks" : {
                              "visual" : [
                                {
                                  "endTime" : 552720000,
                                  "duration" : 552720000,
                                  "range" : [ 0, 552720000],
                                  "interp" : "eioe"
                                },
                                {
                                  "endTime" : 1775760000,
                                  "duration" : 399840000,
                                  "range" : [ 1375920000, 399840000],
                                  "interp" : "eioe"
                                }
                              ]
                            }
                          }
                        ],
                          "ident" : "",
                          "audioMuted" : false,
                          "videoHidden" : false,
                          "magnetic" : false,
                          "matte" : 0,
                          "solo" : false,
                          "metadata" : {
                            "IsLocked" : "False",
                            "WinTrackHeight" : "56",
                            "trackHeight" : "54"
                          }
                      },
                      {
                        "trackIndex" : 3,
                        "medias" : [
                          {
                            "id" : 281,
                            "_type" : "Group",
                            "parameters" : {
                              "translation0" : {
                                "type" : "double",
                                "defaultValue" : 0.0,
                                "keyframes" : [
                                  {
                                    "endTime" : 552720000,
                                    "time" : 0,
                                    "value" : 0.0,
                                    "interp" : "eioe",
                                    "duration" : 552720000
                                  },
                                  {
                                    "endTime" : 1775760000,
                                    "time" : 1375920000,
                                    "value" : 0.0,
                                    "interp" : "eioe",
                                    "duration" : 399840000
                                  }
                                ]
                              },
                              "translation1" : {
                                "type" : "double",
                                "defaultValue" : -143.610046386719,
                                "keyframes" : [
                                  {
                                    "endTime" : 552720000,
                                    "time" : 0,
                                    "value" : 0.0,
                                    "interp" : "eioe",
                                    "duration" : 552720000
                                  },
                                  {
                                    "endTime" : 1775760000,
                                    "time" : 1375920000,
                                    "value" : -143.610046386719,
                                    "interp" : "eioe",
                                    "duration" : 399840000
                                  }
                                ]
                              },
                              "sourceCrop0" : 0.0,
                              "sourceCrop1" : 0.0,
                              "sourceCrop2" : 0.0,
                              "sourceCrop3" : 0.0,
                              "geometryCrop0" : 0.0,
                              "geometryCrop1" : 0.0,
                              "geometryCrop2" : 0.0,
                              "geometryCrop3" : 0.0,
                              "opacity" : {
                                "type" : "double",
                                "defaultValue" : 1.0,
                                "keyframes" : [
                                  {
                                    "endTime" : 552720000,
                                    "time" : 0,
                                    "value" : 1.0,
                                    "interp" : "eioe",
                                    "duration" : 552720000
                                  }
                                ]
                              },
                              "volume" : 1.0
                            },
                            "tracks" : [
                              {
                                "trackIndex" : 0,
                                "medias" : [
                                  {
                                    "id" : 282,
                                    "_type" : "Callout",
                                    "def" : {
                                      "kind" : "remix",
                                      "shape" : "shape-rectangle",
                                      "style" : "bold",
                                      "fill-color-blue" : 0.913725490196078,
                                      "fill-color-green" : 0.949019607843137,
                                      "fill-color-opacity" : 1.0,
                                      "fill-color-red" : 0.933333333333333,
                                      "hasDropShadow" : 0.0,
                                      "height" : 163.002035140991,
                                      "savedXScale" : 1.0,
                                      "savedYScale" : 1.0,
                                      "stroke-color-blue" : 1.0,
                                      "stroke-color-green" : 1.0,
                                      "stroke-color-opacity" : 1.0,
                                      "stroke-color-red" : 1.0,
                                      "stroke-width" : 0.0,
                                      "width" : 1403.00212860107,
                                      "custom" : "Y",
                                      "fill-style" : "solid",
                                      "stroke-style" : "solid"
                                    },
                                    "attributes" : {
                                      "ident" : "",
                                      "autoRotateText" : true
                                    },
                                    "parameters" : {
                                      "anchor0" : -1.0,
                                      "anchor1" : 2.0,
                                      "sourceCrop0" : 0.0,
                                      "sourceCrop1" : 0.0,
                                      "sourceCrop2" : 0.0,
                                      "sourceCrop3" : 0.0,
                                      "geometryCrop0" : 0.0,
                                      "geometryCrop1" : 0.0,
                                      "geometryCrop2" : 0.0,
                                      "geometryCrop3" : 0.0
                                    },
                                    "effects" : [

                                    ],
                                    "start" : 0,
                                    "duration" : 3528000000,
                                    "mediaStart" : 0,
                                    "mediaDuration" : 3528000000,
                                    "scalar" : 1,
                                    "metadata" : {
                                      "AppliedThemeId" : "",
                                      "clipSpeedAttribute" : false,
                                      "effectApplied" : "none",
                                      "lockAspectRatio" : false
                                    },
                                    "animationTracks" : {

                                    }
                                  }
                                ],
                                  "ident" : "",
                                  "audioMuted" : false,
                                  "videoHidden" : false,
                                  "magnetic" : false,
                                  "matte" : 0,
                                  "solo" : false,
                                  "metadata" : {
                                    "IsLocked" : "False",
                                    "WinTrackHeight" : "56",
                                    "trackHeight" : "54"
                                  }
                              },
                              {
                                "trackIndex" : 1,
                                "medias" : [
                                  {
                                    "id" : 283,
                                    "_type" : "Callout",
                                    "def" : {
                                      "kind" : "remix",
                                      "shape" : "shape-rectangle",
                                      "style" : "bold",
                                      "fill-color-blue" : 0.756862759590149,
                                      "fill-color-green" : 0.18823529779911,
                                      "fill-color-opacity" : 1.0,
                                      "fill-color-red" : 0.960784316062927,
                                      "hasDropShadow" : 0.0,
                                      "height" : 160.0,
                                      "savedXScale" : 1.0,
                                      "savedYScale" : 1.0,
                                      "stroke-color-blue" : 0.886274516582489,
                                      "stroke-color-green" : 0.200000002980232,
                                      "stroke-color-opacity" : 0.0,
                                      "stroke-color-red" : 0.376470595598221,
                                      "stroke-width" : 0.0,
                                      "width" : 1400.0,
                                      "custom" : "Y",
                                      "fill-style" : "solid",
                                      "stroke-style" : "solid"
                                    },
                                    "attributes" : {
                                      "ident" : "",
                                      "autoRotateText" : true
                                    },
                                    "parameters" : {
                                      "sourceCrop0" : 0.0,
                                      "sourceCrop1" : 0.0,
                                      "sourceCrop2" : 0.0,
                                      "sourceCrop3" : 0.0,
                                      "geometryCrop0" : 0.0,
                                      "geometryCrop1" : 0.0,
                                      "geometryCrop2" : 0.0,
                                      "geometryCrop3" : 0.0
                                    },
                                    "effects" : [

                                    ],
                                    "start" : 0,
                                    "duration" : 3528000000,
                                    "mediaStart" : 0,
                                    "mediaDuration" : 3528000000,
                                    "scalar" : 1,
                                    "metadata" : {
                                      "AppliedThemeId" : "",
                                      "clipSpeedAttribute" : false,
                                      "effectApplied" : "none"
                                    },
                                    "animationTracks" : {

                                    }
                                  }
                                ],
                                  "ident" : "",
                                  "audioMuted" : false,
                                  "videoHidden" : false,
                                  "magnetic" : false,
                                  "matte" : 1,
                                  "solo" : false,
                                  "metadata" : {
                                    "IsLocked" : "False",
                                    "WinTrackHeight" : "56",
                                    "trackHeight" : "54"
                                  }
                              }
                            ],
                            "attributes" : {
                              "ident" : "Rect-1400x1600-Mask",
                              "widthAttr" : 1405.0,
                              "heightAttr" : 167.002,
                              "gain" : 1.0,
                              "mixToMono" : false
                            },
                            "effects" : [

                            ],
                            "start" : 0,
                            "duration" : 3528000000,
                            "mediaStart" : 0.0,
                            "mediaDuration" : 3528000000.0,
                            "scalar" : 1,
                            "metadata" : {
                              "clipSpeedAttribute" : false,
                              "effectApplied" : "none",
                              "isOpen" : false,
                              "lockAspectRatio" : true
                            },
                            "animationTracks" : {
                              "visual" : [
                                {
                                  "endTime" : 552720000,
                                  "duration" : 552720000,
                                  "range" : [ 0, 552720000],
                                  "interp" : "eioe"
                                },
                                {
                                  "endTime" : 1775760000,
                                  "duration" : 399840000,
                                  "range" : [ 1375920000, 399840000],
                                  "interp" : "eioe"
                                }
                              ]
                            }
                          }
                        ],
                          "ident" : "",
                          "audioMuted" : false,
                          "videoHidden" : false,
                          "magnetic" : false,
                          "matte" : 1,
                          "solo" : false,
                          "metadata" : {
                            "IsLocked" : "False",
                            "WinTrackHeight" : "56",
                            "trackHeight" : "54"
                          }
                      }
                    ],
                    "attributes" : {
                      "ident" : "Broadcast-Title-012",
                      "widthAttr" : 1405.0,
                      "heightAttr" : 160.0,
                      "gain" : 1.0,
                      "mixToMono" : false,
                      "assetProperties" : [
                        {
                          "type" : 0,
                          "name" : "Title",
                          "objects" : [ 274 ],
                          "themeMappings" :  {
                            "font-color" : "foreground-1"
                          }
                        },
                        {
                          "type" : 1,
                          "name" : "Fill",
                          "objects" : [ 272 ],
                          "themeMappings" :  {
                            "fill" : "background-1"
                          }
                        },
                        {
                          "type" : 1,
                          "name" : "Wiper",
                          "objects" : [ 279 ],
                          "themeMappings" :  {
                            "fill" : "foreground-1"
                          }
                        }
                      ]
                    },
                    "effects" : [

                    ],
                    "start" : 1928640000,
                    "duration" : 1764000000,
                    "mediaStart" : 0.0,
                    "mediaDuration" : 1764000000.0,
                    "scalar" : 1,
                    "metadata" : {
                      "AppliedThemeId" : "170ba59c-db5d-4b9a-a310-e7e99853a4b7",
                      "clipSpeedAttribute" : false,
                      "default-anchor0" : 0.0,
                      "default-anchor1" : 0.0,
                      "default-anchor2" : 0.0,
                      "default-geometryCrop0" : 0.0,
                      "default-height" : 160.0,
                      "default-rotation0" : 0.0,
                      "default-rotation1" : 0.0,
                      "default-rotation2" : 0.0,
                      "default-scale0" : 1.0,
                      "default-scale1" : 1.0,
                      "default-scale2" : 1.0,
                      "default-shear0" : 0.0,
                      "default-shear1" : 0.0,
                      "default-shear2" : 0.0,
                      "default-translation0" : 0.0,
                      "default-translation1" : 0.0,
                      "default-translation2" : 0.0,
                      "default-width" : 1405.0,
                      "effectApplied" : "none",
                      "isOpen" : false,
                      "lockAspectRatio" : true
                    },
                    "animationTracks" : {

                    }
                  }
                ]
              },
              {
                "trackIndex" : 105,
                "medias" : [
                  {
                    "id" : 284,
                    "_type" : "Group",
                    "parameters" : {
                      "translation0" : 350.0,
                      "translation1" : 200.0,
                      "scale0" : 0.213523131672598,
                      "scale1" : 0.21875,
                      "sourceCrop0" : 0.0,
                      "sourceCrop1" : 0.0,
                      "sourceCrop2" : 0.0,
                      "sourceCrop3" : 0.0,
                      "geometryCrop0" : 0.0,
                      "geometryCrop1" : 0.0,
                      "geometryCrop2" : 0.0,
                      "geometryCrop3" : 0.0,
                      "volume" : 1.0
                    },
                    "tracks" : [
                      {
                        "trackIndex" : 0,
                        "medias" : [
                          {
                            "id" : 285,
                            "_type" : "Group",
                            "parameters" : {
                              "translation0" : {
                                "type" : "double",
                                "defaultValue" : 0.0,
                                "keyframes" : [
                                  {
                                    "endTime" : 552720000,
                                    "time" : 0,
                                    "value" : 0.0,
                                    "interp" : "eioe",
                                    "duration" : 552720000
                                  },
                                  {
                                    "endTime" : 1775760000,
                                    "time" : 1375920000,
                                    "value" : 0.0,
                                    "interp" : "eioe",
                                    "duration" : 399840000
                                  }
                                ]
                              },
                              "translation1" : {
                                "type" : "double",
                                "defaultValue" : -305.610046386719,
                                "keyframes" : [
                                  {
                                    "endTime" : 552720000,
                                    "time" : 0,
                                    "value" : 0.0,
                                    "interp" : "eioe",
                                    "duration" : 552720000
                                  },
                                  {
                                    "endTime" : 1775760000,
                                    "time" : 1375920000,
                                    "value" : -304.610046386719,
                                    "interp" : "eioe",
                                    "duration" : 399840000
                                  }
                                ]
                              },
                              "sourceCrop0" : 0.0,
                              "sourceCrop1" : 0.0,
                              "sourceCrop2" : 0.0,
                              "sourceCrop3" : 0.0,
                              "geometryCrop0" : 0.0,
                              "geometryCrop1" : 0.0,
                              "geometryCrop2" : 0.0,
                              "geometryCrop3" : 0.0,
                              "volume" : 1.0
                            },
                            "tracks" : [
                              {
                                "trackIndex" : 0,
                                "medias" : [
                                  {
                                    "id" : 286,
                                    "_type" : "Group",
                                    "parameters" : {
                                      "sourceCrop0" : 0.0,
                                      "sourceCrop1" : 0.0,
                                      "sourceCrop2" : 0.0,
                                      "sourceCrop3" : 0.0,
                                      "geometryCrop0" : 0.0,
                                      "geometryCrop1" : 0.0,
                                      "geometryCrop2" : 0.0,
                                      "geometryCrop3" : 0.0,
                                      "volume" : 1.0
                                    },
                                    "tracks" : [
                                      {
                                        "trackIndex" : 0,
                                        "medias" : [
                                          {
                                            "id" : 287,
                                            "_type" : "Callout",
                                            "def" : {
                                              "kind" : "remix",
                                              "shape" : "shape-rectangle",
                                              "style" : "bold",
                                              "fill-color-blue" : 1.0,
                                              "fill-color-green" : 1.0,
                                              "fill-color-opacity" : 1.0,
                                              "fill-color-red" : 1.0,
                                              "hasDropShadow" : 0.0,
                                              "height" : 163.002035140991,
                                              "savedXScale" : 1.0,
                                              "savedYScale" : 1.0,
                                              "stroke-color-blue" : 1.0,
                                              "stroke-color-green" : 1.0,
                                              "stroke-color-opacity" : 1.0,
                                              "stroke-color-red" : 1.0,
                                              "stroke-width" : 0.0,
                                              "width" : 1403.00212860107,
                                              "custom" : "Y",
                                              "fill-style" : "solid",
                                              "stroke-style" : "solid"
                                            },
                                            "attributes" : {
                                              "ident" : "",
                                              "autoRotateText" : true
                                            },
                                            "parameters" : {
                                              "anchor0" : -1.0,
                                              "anchor1" : 2.0,
                                              "sourceCrop0" : 0.0,
                                              "sourceCrop1" : 0.0,
                                              "sourceCrop2" : 0.0,
                                              "sourceCrop3" : 0.0,
                                              "geometryCrop0" : 0.0,
                                              "geometryCrop1" : 0.0,
                                              "geometryCrop2" : 0.0,
                                              "geometryCrop3" : 0.0
                                            },
                                            "effects" : [

                                            ],
                                            "start" : 0,
                                            "duration" : 3528000000,
                                            "mediaStart" : 0,
                                            "mediaDuration" : 3528000000,
                                            "scalar" : 1,
                                            "metadata" : {
                                              "AppliedThemeId" : "",
                                              "clipSpeedAttribute" : false,
                                              "effectApplied" : "none",
                                              "lockAspectRatio" : false
                                            },
                                            "animationTracks" : {

                                            }
                                          }
                                        ],
                                          "ident" : "",
                                          "audioMuted" : false,
                                          "videoHidden" : false,
                                          "magnetic" : false,
                                          "matte" : 0,
                                          "solo" : false,
                                          "metadata" : {
                                            "IsLocked" : "False",
                                            "WinTrackHeight" : "56",
                                            "trackHeight" : "54"
                                          }
                                      },
                                      {
                                        "trackIndex" : 1,
                                        "medias" : [
                                          {
                                            "id" : 288,
                                            "_type" : "Callout",
                                            "def" : {
                                              "kind" : "remix",
                                              "shape" : "shape-rectangle",
                                              "style" : "bold",
                                              "fill-color-blue" : 0.756862759590149,
                                              "fill-color-green" : 0.18823529779911,
                                              "fill-color-opacity" : 1.0,
                                              "fill-color-red" : 0.960784316062927,
                                              "hasDropShadow" : 0.0,
                                              "height" : 160.0,
                                              "savedXScale" : 1.0,
                                              "savedYScale" : 1.0,
                                              "stroke-color-blue" : 0.886274516582489,
                                              "stroke-color-green" : 0.200000002980232,
                                              "stroke-color-opacity" : 0.0,
                                              "stroke-color-red" : 0.376470595598221,
                                              "stroke-width" : 0.0,
                                              "width" : 1400.0,
                                              "custom" : "Y",
                                              "fill-style" : "solid",
                                              "stroke-style" : "solid"
                                            },
                                            "attributes" : {
                                              "ident" : "",
                                              "autoRotateText" : true
                                            },
                                            "parameters" : {
                                              "sourceCrop0" : 0.0,
                                              "sourceCrop1" : 0.0,
                                              "sourceCrop2" : 0.0,
                                              "sourceCrop3" : 0.0,
                                              "geometryCrop0" : 0.0,
                                              "geometryCrop1" : 0.0,
                                              "geometryCrop2" : 0.0,
                                              "geometryCrop3" : 0.0
                                            },
                                            "effects" : [

                                            ],
                                            "start" : 0,
                                            "duration" : 3528000000,
                                            "mediaStart" : 0,
                                            "mediaDuration" : 3528000000,
                                            "scalar" : 1,
                                            "metadata" : {
                                              "AppliedThemeId" : "",
                                              "clipSpeedAttribute" : false,
                                              "effectApplied" : "none"
                                            },
                                            "animationTracks" : {

                                            }
                                          }
                                        ],
                                          "ident" : "",
                                          "audioMuted" : false,
                                          "videoHidden" : false,
                                          "magnetic" : false,
                                          "matte" : 1,
                                          "solo" : false,
                                          "metadata" : {
                                            "IsLocked" : "False",
                                            "WinTrackHeight" : "56",
                                            "trackHeight" : "54"
                                          }
                                      }
                                    ],
                                    "attributes" : {
                                      "ident" : "Fill-1400x160",
                                      "widthAttr" : 1405.0,
                                      "heightAttr" : 167.002,
                                      "gain" : 1.0,
                                      "mixToMono" : false
                                    },
                                    "effects" : [

                                    ],
                                    "start" : 0,
                                    "duration" : 3528000000,
                                    "mediaStart" : 0.0,
                                    "mediaDuration" : 3528000000.0,
                                    "scalar" : 1,
                                    "metadata" : {
                                      "clipSpeedAttribute" : false,
                                      "effectApplied" : "none",
                                      "isOpen" : false,
                                      "lockAspectRatio" : true
                                    },
                                    "animationTracks" : {

                                    }
                                  }
                                ],
                                  "ident" : "",
                                  "audioMuted" : false,
                                  "videoHidden" : false,
                                  "magnetic" : false,
                                  "matte" : 0,
                                  "solo" : false,
                                  "metadata" : {
                                    "IsLocked" : "False",
                                    "WinTrackHeight" : "56",
                                    "trackHeight" : "54"
                                  }
                              },
                              {
                                "trackIndex" : 1,
                                "medias" : [
                                  {
                                    "id" : 289,
                                    "_type" : "Callout",
                                    "def" : {
                                      "kind" : "remix",
                                      "shape" : "text",
                                      "style" : "urban",
                                      "enable-ligatures" : 1.0,
                                      "hasDropShadow" : 0.0,
                                      "height" : 170.0,
                                      "line-spacing" : 0.0,
                                      "savedXScale" : 1.0,
                                      "savedYScale" : 1.0,
                                      "width" : 1400.0,
                                      "word-wrap" : 1.0,
                                      "custom" : "Y",
                                      "horizontal-alignment" : "left",
                                      "resize-behavior" : "resizeText",
                                      "text" : "extend selection to top",
                                      "vertical-alignment" : "center",
                                      "font" : {
                                        "color-blue" : 1.0,
                                        "color-green" : 1.0,
                                        "color-red" : 1.0,
                                        "size" : 96.0,
                                        "tracking" : 0.0,
                                        "name" : "Dosis",
                                        "weight" : "Semi Bold"
                                      },
                                      "textAttributes" : {
                                        "type" : "textAttributeList",
                                        "keyframes" : [
                                          {
                                            "endTime" : 0,
                                            "time" : 0,
                                            "value" : [{"name":"underline","rangeEnd":23,"rangeStart":0,"value":0,"valueType":"int"},{"name":"strikethrough","rangeEnd":23,"rangeStart":0,"value":0,"valueType":"int"},{"name":"fontName","rangeEnd":23,"rangeStart":0,"value":"Roboto","valueType":"string"},{"name":"kerning","rangeEnd":23,"rangeStart":0,"value":0.049883078231292483,"valueType":"double"},{"name":"fontItalic","rangeEnd":23,"rangeStart":0,"value":0,"valueType":"int"},{"name":"fontWeight","rangeEnd":23,"rangeStart":0,"value":700,"valueType":"int"},{"name":"fontSize","rangeEnd":23,"rangeStart":0,"value":86,"valueType":"double"},{"name":"fgColor","rangeEnd":23,"rangeStart":0,"value":"(110,110,110,255)","valueType":"color"}],
                                            "duration" : 0
                                          }
                                        ]
                                      }
                                    },
                                    "attributes" : {
                                      "ident" : "",
                                      "autoRotateText" : true
                                    },
                                    "parameters" : {
                                      "translation1" : -2.0,
                                      "sourceCrop0" : 0.0,
                                      "sourceCrop1" : 0.0,
                                      "sourceCrop2" : 0.0,
                                      "sourceCrop3" : 0.0,
                                      "geometryCrop0" : 0.0,
                                      "geometryCrop1" : 0.0,
                                      "geometryCrop2" : 0.0,
                                      "geometryCrop3" : 0.0
                                    },
                                    "effects" : [

                                    ],
                                    "start" : 0,
                                    "duration" : 3528000000,
                                    "mediaStart" : 0,
                                    "mediaDuration" : 3528000000,
                                    "scalar" : 1,
                                    "metadata" : {
                                      "AppliedThemeId" : "",
                                      "clipSpeedAttribute" : false,
                                      "effectApplied" : "none",
                                      "lockAspectRatio" : false
                                    },
                                    "animationTracks" : {

                                    }
                                  }
                                ],
                                  "ident" : "",
                                  "audioMuted" : false,
                                  "videoHidden" : false,
                                  "magnetic" : false,
                                  "matte" : 0,
                                  "solo" : false,
                                  "metadata" : {
                                    "IsLocked" : "False",
                                    "WinTrackHeight" : "56",
                                    "trackHeight" : "54"
                                  }
                              }
                            ],
                            "attributes" : {
                              "ident" : "BP-Title-11",
                              "widthAttr" : 1405.0,
                              "heightAttr" : 167.002,
                              "gain" : 1.0,
                              "mixToMono" : false,
                              "assetProperties" : [
                                {
                                  "type" : 0,
                                  "name" : "Title",
                                  "objects" : [ 289 ],
                                  "themeMappings" :  {
                                    "font-color" : "foreground-1"
                                  }
                                },
                                {
                                  "type" : 1,
                                  "name" : "Fill",
                                  "objects" : [ 287 ],
                                  "themeMappings" :  {
                                    "fill" : "background-1"
                                  }
                                }
                              ]
                            },
                            "effects" : [

                            ],
                            "start" : 0,
                            "duration" : 3528000000,
                            "mediaStart" : 0.0,
                            "mediaDuration" : 3528000000.0,
                            "scalar" : 1,
                            "metadata" : {
                              "clipSpeedAttribute" : false,
                              "effectApplied" : "none",
                              "isOpen" : false,
                              "lockAspectRatio" : true
                            },
                            "animationTracks" : {
                              "visual" : [
                                {
                                  "endTime" : 552720000,
                                  "duration" : 552720000,
                                  "range" : [ 0, 552720000],
                                  "interp" : "eioe"
                                },
                                {
                                  "endTime" : 1775760000,
                                  "duration" : 399840000,
                                  "range" : [ 1375920000, 399840000],
                                  "interp" : "eioe"
                                }
                              ]
                            }
                          }
                        ],
                          "ident" : "",
                          "audioMuted" : false,
                          "videoHidden" : false,
                          "magnetic" : false,
                          "matte" : 0,
                          "solo" : false,
                          "metadata" : {
                            "IsLocked" : "False",
                            "WinTrackHeight" : "56",
                            "trackHeight" : "54"
                          }
                      },
                      {
                        "trackIndex" : 1,
                        "medias" : [
                          {
                            "id" : 290,
                            "_type" : "Group",
                            "parameters" : {
                              "translation0" : {
                                "type" : "double",
                                "defaultValue" : 0.0,
                                "keyframes" : [
                                  {
                                    "endTime" : 552720000,
                                    "time" : 0,
                                    "value" : 0.0,
                                    "interp" : "eioe",
                                    "duration" : 552720000
                                  },
                                  {
                                    "endTime" : 1775760000,
                                    "time" : 1375920000,
                                    "value" : 0.0,
                                    "interp" : "eioe",
                                    "duration" : 399840000
                                  }
                                ]
                              },
                              "translation1" : {
                                "type" : "double",
                                "defaultValue" : -144.610046386719,
                                "keyframes" : [
                                  {
                                    "endTime" : 552720000,
                                    "time" : 0,
                                    "value" : 0.0,
                                    "interp" : "eioe",
                                    "duration" : 552720000
                                  },
                                  {
                                    "endTime" : 1775760000,
                                    "time" : 1375920000,
                                    "value" : -144.610046386719,
                                    "interp" : "eioe",
                                    "duration" : 399840000
                                  }
                                ]
                              },
                              "sourceCrop0" : 0.0,
                              "sourceCrop1" : 0.0,
                              "sourceCrop2" : 0.0,
                              "sourceCrop3" : 0.0,
                              "geometryCrop0" : 0.0,
                              "geometryCrop1" : 0.0,
                              "geometryCrop2" : 0.0,
                              "geometryCrop3" : 0.0,
                              "opacity" : {
                                "type" : "double",
                                "defaultValue" : 1.0,
                                "keyframes" : [
                                  {
                                    "endTime" : 552720000,
                                    "time" : 0,
                                    "value" : 1.0,
                                    "interp" : "eioe",
                                    "duration" : 552720000
                                  }
                                ]
                              },
                              "volume" : 1.0
                            },
                            "tracks" : [
                              {
                                "trackIndex" : 0,
                                "medias" : [
                                  {
                                    "id" : 291,
                                    "_type" : "Callout",
                                    "def" : {
                                      "kind" : "remix",
                                      "shape" : "shape-rectangle",
                                      "style" : "bold",
                                      "fill-color-blue" : 0.913725490196078,
                                      "fill-color-green" : 0.949019607843137,
                                      "fill-color-opacity" : 1.0,
                                      "fill-color-red" : 0.933333333333333,
                                      "hasDropShadow" : 0.0,
                                      "height" : 163.002035140991,
                                      "savedXScale" : 1.0,
                                      "savedYScale" : 1.0,
                                      "stroke-color-blue" : 1.0,
                                      "stroke-color-green" : 1.0,
                                      "stroke-color-opacity" : 1.0,
                                      "stroke-color-red" : 1.0,
                                      "stroke-width" : 0.0,
                                      "width" : 1403.00212860107,
                                      "custom" : "Y",
                                      "fill-style" : "solid",
                                      "stroke-style" : "solid"
                                    },
                                    "attributes" : {
                                      "ident" : "",
                                      "autoRotateText" : true
                                    },
                                    "parameters" : {
                                      "anchor0" : -1.0,
                                      "anchor1" : 2.0,
                                      "sourceCrop0" : 0.0,
                                      "sourceCrop1" : 0.0,
                                      "sourceCrop2" : 0.0,
                                      "sourceCrop3" : 0.0,
                                      "geometryCrop0" : 0.0,
                                      "geometryCrop1" : 0.0,
                                      "geometryCrop2" : 0.0,
                                      "geometryCrop3" : 0.0
                                    },
                                    "effects" : [

                                    ],
                                    "start" : 0,
                                    "duration" : 3528000000,
                                    "mediaStart" : 0,
                                    "mediaDuration" : 3528000000,
                                    "scalar" : 1,
                                    "metadata" : {
                                      "AppliedThemeId" : "",
                                      "clipSpeedAttribute" : false,
                                      "effectApplied" : "none",
                                      "lockAspectRatio" : false
                                    },
                                    "animationTracks" : {

                                    }
                                  }
                                ],
                                  "ident" : "",
                                  "audioMuted" : false,
                                  "videoHidden" : false,
                                  "magnetic" : false,
                                  "matte" : 0,
                                  "solo" : false,
                                  "metadata" : {
                                    "IsLocked" : "False",
                                    "WinTrackHeight" : "56",
                                    "trackHeight" : "54"
                                  }
                              },
                              {
                                "trackIndex" : 1,
                                "medias" : [
                                  {
                                    "id" : 292,
                                    "_type" : "Callout",
                                    "def" : {
                                      "kind" : "remix",
                                      "shape" : "shape-rectangle",
                                      "style" : "bold",
                                      "fill-color-blue" : 0.756862759590149,
                                      "fill-color-green" : 0.18823529779911,
                                      "fill-color-opacity" : 1.0,
                                      "fill-color-red" : 0.960784316062927,
                                      "hasDropShadow" : 0.0,
                                      "height" : 160.0,
                                      "savedXScale" : 1.0,
                                      "savedYScale" : 1.0,
                                      "stroke-color-blue" : 0.886274516582489,
                                      "stroke-color-green" : 0.200000002980232,
                                      "stroke-color-opacity" : 0.0,
                                      "stroke-color-red" : 0.376470595598221,
                                      "stroke-width" : 0.0,
                                      "width" : 1400.0,
                                      "custom" : "Y",
                                      "fill-style" : "solid",
                                      "stroke-style" : "solid"
                                    },
                                    "attributes" : {
                                      "ident" : "",
                                      "autoRotateText" : true
                                    },
                                    "parameters" : {
                                      "sourceCrop0" : 0.0,
                                      "sourceCrop1" : 0.0,
                                      "sourceCrop2" : 0.0,
                                      "sourceCrop3" : 0.0,
                                      "geometryCrop0" : 0.0,
                                      "geometryCrop1" : 0.0,
                                      "geometryCrop2" : 0.0,
                                      "geometryCrop3" : 0.0
                                    },
                                    "effects" : [

                                    ],
                                    "start" : 0,
                                    "duration" : 3528000000,
                                    "mediaStart" : 0,
                                    "mediaDuration" : 3528000000,
                                    "scalar" : 1,
                                    "metadata" : {
                                      "AppliedThemeId" : "",
                                      "clipSpeedAttribute" : false,
                                      "effectApplied" : "none"
                                    },
                                    "animationTracks" : {

                                    }
                                  }
                                ],
                                  "ident" : "",
                                  "audioMuted" : false,
                                  "videoHidden" : false,
                                  "magnetic" : false,
                                  "matte" : 1,
                                  "solo" : false,
                                  "metadata" : {
                                    "IsLocked" : "False",
                                    "WinTrackHeight" : "56",
                                    "trackHeight" : "54"
                                  }
                              }
                            ],
                            "attributes" : {
                              "ident" : "Rect-1400x1600-Mask",
                              "widthAttr" : 1405.0,
                              "heightAttr" : 167.002,
                              "gain" : 1.0,
                              "mixToMono" : false
                            },
                            "effects" : [

                            ],
                            "start" : 0,
                            "duration" : 3528000000,
                            "mediaStart" : 0.0,
                            "mediaDuration" : 3528000000.0,
                            "scalar" : 1,
                            "metadata" : {
                              "clipSpeedAttribute" : false,
                              "effectApplied" : "none",
                              "isOpen" : false,
                              "lockAspectRatio" : true
                            },
                            "animationTracks" : {
                              "visual" : [
                                {
                                  "endTime" : 552720000,
                                  "duration" : 552720000,
                                  "range" : [ 0, 552720000],
                                  "interp" : "eioe"
                                },
                                {
                                  "endTime" : 1775760000,
                                  "duration" : 399840000,
                                  "range" : [ 1375920000, 399840000],
                                  "interp" : "eioe"
                                }
                              ]
                            }
                          }
                        ],
                          "ident" : "",
                          "audioMuted" : false,
                          "videoHidden" : false,
                          "magnetic" : false,
                          "matte" : 1,
                          "solo" : false,
                          "metadata" : {
                            "IsLocked" : "False",
                            "WinTrackHeight" : "56",
                            "trackHeight" : "54"
                          }
                      },
                      {
                        "trackIndex" : 2,
                        "medias" : [
                          {
                            "id" : 293,
                            "_type" : "Group",
                            "parameters" : {
                              "translation0" : {
                                "type" : "double",
                                "defaultValue" : 0.0,
                                "keyframes" : [
                                  {
                                    "endTime" : 552720000,
                                    "time" : 0,
                                    "value" : 0.0,
                                    "interp" : "eioe",
                                    "duration" : 552720000
                                  },
                                  {
                                    "endTime" : 1775760000,
                                    "time" : 1375920000,
                                    "value" : 0.0,
                                    "interp" : "eioe",
                                    "duration" : 399840000
                                  }
                                ]
                              },
                              "translation1" : {
                                "type" : "double",
                                "defaultValue" : -233.610046386719,
                                "keyframes" : [
                                  {
                                    "endTime" : 552720000,
                                    "time" : 0,
                                    "value" : 90.0,
                                    "interp" : "eioe",
                                    "duration" : 552720000
                                  },
                                  {
                                    "endTime" : 1775760000,
                                    "time" : 1375920000,
                                    "value" : -233.610046386719,
                                    "interp" : "eioe",
                                    "duration" : 399840000
                                  }
                                ]
                              },
                              "sourceCrop0" : 0.0,
                              "sourceCrop1" : 0.0,
                              "sourceCrop2" : 0.0,
                              "sourceCrop3" : 0.0,
                              "geometryCrop0" : 0.0,
                              "geometryCrop1" : 0.0,
                              "geometryCrop2" : 0.0,
                              "geometryCrop3" : 0.0,
                              "opacity" : {
                                "type" : "double",
                                "defaultValue" : 1.0,
                                "keyframes" : [
                                  {
                                    "endTime" : 552720000,
                                    "time" : 0,
                                    "value" : 1.0,
                                    "interp" : "eioe",
                                    "duration" : 552720000
                                  }
                                ]
                              },
                              "volume" : 1.0
                            },
                            "tracks" : [
                              {
                                "trackIndex" : 0,
                                "medias" : [
                                  {
                                    "id" : 294,
                                    "_type" : "Callout",
                                    "def" : {
                                      "kind" : "remix",
                                      "shape" : "shape-rectangle",
                                      "style" : "bold",
                                      "fill-color-blue" : 0.2196078431,
                                      "fill-color-green" : 0.8745098039,
                                      "fill-color-opacity" : 1.0,
                                      "fill-color-red" : 1.0,
                                      "hasDropShadow" : 0.0,
                                      "height" : 163.002035140991,
                                      "savedXScale" : 1.0,
                                      "savedYScale" : 1.0,
                                      "stroke-color-blue" : 1.0,
                                      "stroke-color-green" : 1.0,
                                      "stroke-color-opacity" : 1.0,
                                      "stroke-color-red" : 1.0,
                                      "stroke-width" : 0.0,
                                      "width" : 1403.00212860107,
                                      "custom" : "Y",
                                      "fill-style" : "solid",
                                      "stroke-style" : "solid"
                                    },
                                    "attributes" : {
                                      "ident" : "",
                                      "autoRotateText" : true
                                    },
                                    "parameters" : {
                                      "anchor0" : -1.0,
                                      "anchor1" : 2.0,
                                      "sourceCrop0" : 0.0,
                                      "sourceCrop1" : 0.0,
                                      "sourceCrop2" : 0.0,
                                      "sourceCrop3" : 0.0,
                                      "geometryCrop0" : 0.0,
                                      "geometryCrop1" : 0.0,
                                      "geometryCrop2" : 0.0,
                                      "geometryCrop3" : 0.0
                                    },
                                    "effects" : [

                                    ],
                                    "start" : 0,
                                    "duration" : 3528000000,
                                    "mediaStart" : 0,
                                    "mediaDuration" : 3528000000,
                                    "scalar" : 1,
                                    "metadata" : {
                                      "AppliedThemeId" : "",
                                      "clipSpeedAttribute" : false,
                                      "effectApplied" : "none",
                                      "lockAspectRatio" : false
                                    },
                                    "animationTracks" : {

                                    }
                                  }
                                ],
                                  "ident" : "",
                                  "audioMuted" : false,
                                  "videoHidden" : false,
                                  "magnetic" : false,
                                  "matte" : 0,
                                  "solo" : false,
                                  "metadata" : {
                                    "IsLocked" : "False",
                                    "WinTrackHeight" : "56",
                                    "trackHeight" : "54"
                                  }
                              },
                              {
                                "trackIndex" : 1,
                                "medias" : [
                                  {
                                    "id" : 295,
                                    "_type" : "Callout",
                                    "def" : {
                                      "kind" : "remix",
                                      "shape" : "shape-rectangle",
                                      "style" : "bold",
                                      "fill-color-blue" : 0.756862759590149,
                                      "fill-color-green" : 0.18823529779911,
                                      "fill-color-opacity" : 1.0,
                                      "fill-color-red" : 0.960784316062927,
                                      "hasDropShadow" : 0.0,
                                      "height" : 160.0,
                                      "savedXScale" : 1.0,
                                      "savedYScale" : 1.0,
                                      "stroke-color-blue" : 0.886274516582489,
                                      "stroke-color-green" : 0.200000002980232,
                                      "stroke-color-opacity" : 0.0,
                                      "stroke-color-red" : 0.376470595598221,
                                      "stroke-width" : 0.0,
                                      "width" : 1400.0,
                                      "custom" : "Y",
                                      "fill-style" : "solid",
                                      "stroke-style" : "solid"
                                    },
                                    "attributes" : {
                                      "ident" : "",
                                      "autoRotateText" : true
                                    },
                                    "parameters" : {
                                      "translation1" : {
                                        "type" : "double",
                                        "defaultValue" : -1.0,
                                        "keyframes" : [
                                          {
                                            "endTime" : 270480000,
                                            "time" : 0,
                                            "value" : 0.0,
                                            "duration" : 270480000
                                          }
                                        ]
                                      },
                                      "scale0" : {
                                        "type" : "double",
                                        "defaultValue" : 1.0,
                                        "keyframes" : [
                                          {
                                            "endTime" : 270480000,
                                            "time" : 0,
                                            "value" : 1.0,
                                            "duration" : 270480000
                                          }
                                        ]
                                      },
                                      "scale1" : {
                                        "type" : "double",
                                        "defaultValue" : 0.125,
                                        "keyframes" : [
                                          {
                                            "endTime" : 270480000,
                                            "time" : 0,
                                            "value" : 0.5,
                                            "duration" : 270480000
                                          },
                                          {
                                            "endTime" : 552720000,
                                            "time" : 282240000,
                                            "value" : 0.125,
                                            "duration" : 270480000
                                          }
                                        ]
                                      },
                                      "sourceCrop0" : 0.0,
                                      "sourceCrop1" : 0.0,
                                      "sourceCrop2" : 0.0,
                                      "sourceCrop3" : 0.0,
                                      "geometryCrop0" : 0.0,
                                      "geometryCrop1" : 0.0,
                                      "geometryCrop2" : 0.0,
                                      "geometryCrop3" : 0.0
                                    },
                                    "effects" : [

                                    ],
                                    "start" : 0,
                                    "duration" : 3528000000,
                                    "mediaStart" : 0,
                                    "mediaDuration" : 3528000000,
                                    "scalar" : 1,
                                    "metadata" : {
                                      "AppliedThemeId" : "",
                                      "clipSpeedAttribute" : false,
                                      "effectApplied" : "none"
                                    },
                                    "animationTracks" : {
                                      "visual" : [
                                        {
                                          "endTime" : 270480000,
                                          "duration" : 270480000,
                                          "range" : [ 0, 270480000]
                                        },
                                        {
                                          "endTime" : 552720000,
                                          "duration" : 270480000,
                                          "range" : [ 282240000, 270480000]
                                        }
                                      ]
                                    }
                                  }
                                ],
                                  "ident" : "",
                                  "audioMuted" : false,
                                  "videoHidden" : false,
                                  "magnetic" : false,
                                  "matte" : 1,
                                  "solo" : false,
                                  "metadata" : {
                                    "IsLocked" : "False",
                                    "WinTrackHeight" : "56",
                                    "trackHeight" : "54"
                                  }
                              }
                            ],
                            "attributes" : {
                              "ident" : "Animated-Pulse-1400x20-To-1400x80",
                              "widthAttr" : 1405.0,
                              "heightAttr" : 167.002,
                              "gain" : 1.0,
                              "mixToMono" : false,
                              "assetProperties" : [
                                {
                                  "type" : 1,
                                  "name" : "Color",
                                  "objects" : [ 294 ],
                                  "themeMappings" :  {
                                    "fill" : "accent-1"
                                  }
                                }
                              ]
                            },
                            "effects" : [

                            ],
                            "start" : 0,
                            "duration" : 3528000000,
                            "mediaStart" : 0.0,
                            "mediaDuration" : 3528000000.0,
                            "scalar" : 1,
                            "metadata" : {
                              "AppliedThemeId" : "8e797988-b823-4beb-b251-1d31b461ba07",
                              "clipSpeedAttribute" : false,
                              "effectApplied" : "none",
                              "isOpen" : false,
                              "lockAspectRatio" : true
                            },
                            "animationTracks" : {
                              "visual" : [
                                {
                                  "endTime" : 552720000,
                                  "duration" : 552720000,
                                  "range" : [ 0, 552720000],
                                  "interp" : "eioe"
                                },
                                {
                                  "endTime" : 1775760000,
                                  "duration" : 399840000,
                                  "range" : [ 1375920000, 399840000],
                                  "interp" : "eioe"
                                }
                              ]
                            }
                          }
                        ],
                          "ident" : "",
                          "audioMuted" : false,
                          "videoHidden" : false,
                          "magnetic" : false,
                          "matte" : 0,
                          "solo" : false,
                          "metadata" : {
                            "IsLocked" : "False",
                            "WinTrackHeight" : "56",
                            "trackHeight" : "54"
                          }
                      },
                      {
                        "trackIndex" : 3,
                        "medias" : [
                          {
                            "id" : 296,
                            "_type" : "Group",
                            "parameters" : {
                              "translation0" : {
                                "type" : "double",
                                "defaultValue" : 0.0,
                                "keyframes" : [
                                  {
                                    "endTime" : 552720000,
                                    "time" : 0,
                                    "value" : 0.0,
                                    "interp" : "eioe",
                                    "duration" : 552720000
                                  },
                                  {
                                    "endTime" : 1775760000,
                                    "time" : 1375920000,
                                    "value" : 0.0,
                                    "interp" : "eioe",
                                    "duration" : 399840000
                                  }
                                ]
                              },
                              "translation1" : {
                                "type" : "double",
                                "defaultValue" : -143.610046386719,
                                "keyframes" : [
                                  {
                                    "endTime" : 552720000,
                                    "time" : 0,
                                    "value" : 0.0,
                                    "interp" : "eioe",
                                    "duration" : 552720000
                                  },
                                  {
                                    "endTime" : 1775760000,
                                    "time" : 1375920000,
                                    "value" : -143.610046386719,
                                    "interp" : "eioe",
                                    "duration" : 399840000
                                  }
                                ]
                              },
                              "sourceCrop0" : 0.0,
                              "sourceCrop1" : 0.0,
                              "sourceCrop2" : 0.0,
                              "sourceCrop3" : 0.0,
                              "geometryCrop0" : 0.0,
                              "geometryCrop1" : 0.0,
                              "geometryCrop2" : 0.0,
                              "geometryCrop3" : 0.0,
                              "opacity" : {
                                "type" : "double",
                                "defaultValue" : 1.0,
                                "keyframes" : [
                                  {
                                    "endTime" : 552720000,
                                    "time" : 0,
                                    "value" : 1.0,
                                    "interp" : "eioe",
                                    "duration" : 552720000
                                  }
                                ]
                              },
                              "volume" : 1.0
                            },
                            "tracks" : [
                              {
                                "trackIndex" : 0,
                                "medias" : [
                                  {
                                    "id" : 297,
                                    "_type" : "Callout",
                                    "def" : {
                                      "kind" : "remix",
                                      "shape" : "shape-rectangle",
                                      "style" : "bold",
                                      "fill-color-blue" : 0.913725490196078,
                                      "fill-color-green" : 0.949019607843137,
                                      "fill-color-opacity" : 1.0,
                                      "fill-color-red" : 0.933333333333333,
                                      "hasDropShadow" : 0.0,
                                      "height" : 163.002035140991,
                                      "savedXScale" : 1.0,
                                      "savedYScale" : 1.0,
                                      "stroke-color-blue" : 1.0,
                                      "stroke-color-green" : 1.0,
                                      "stroke-color-opacity" : 1.0,
                                      "stroke-color-red" : 1.0,
                                      "stroke-width" : 0.0,
                                      "width" : 1403.00212860107,
                                      "custom" : "Y",
                                      "fill-style" : "solid",
                                      "stroke-style" : "solid"
                                    },
                                    "attributes" : {
                                      "ident" : "",
                                      "autoRotateText" : true
                                    },
                                    "parameters" : {
                                      "anchor0" : -1.0,
                                      "anchor1" : 2.0,
                                      "sourceCrop0" : 0.0,
                                      "sourceCrop1" : 0.0,
                                      "sourceCrop2" : 0.0,
                                      "sourceCrop3" : 0.0,
                                      "geometryCrop0" : 0.0,
                                      "geometryCrop1" : 0.0,
                                      "geometryCrop2" : 0.0,
                                      "geometryCrop3" : 0.0
                                    },
                                    "effects" : [

                                    ],
                                    "start" : 0,
                                    "duration" : 3528000000,
                                    "mediaStart" : 0,
                                    "mediaDuration" : 3528000000,
                                    "scalar" : 1,
                                    "metadata" : {
                                      "AppliedThemeId" : "",
                                      "clipSpeedAttribute" : false,
                                      "effectApplied" : "none",
                                      "lockAspectRatio" : false
                                    },
                                    "animationTracks" : {

                                    }
                                  }
                                ],
                                  "ident" : "",
                                  "audioMuted" : false,
                                  "videoHidden" : false,
                                  "magnetic" : false,
                                  "matte" : 0,
                                  "solo" : false,
                                  "metadata" : {
                                    "IsLocked" : "False",
                                    "WinTrackHeight" : "56",
                                    "trackHeight" : "54"
                                  }
                              },
                              {
                                "trackIndex" : 1,
                                "medias" : [
                                  {
                                    "id" : 298,
                                    "_type" : "Callout",
                                    "def" : {
                                      "kind" : "remix",
                                      "shape" : "shape-rectangle",
                                      "style" : "bold",
                                      "fill-color-blue" : 0.756862759590149,
                                      "fill-color-green" : 0.18823529779911,
                                      "fill-color-opacity" : 1.0,
                                      "fill-color-red" : 0.960784316062927,
                                      "hasDropShadow" : 0.0,
                                      "height" : 160.0,
                                      "savedXScale" : 1.0,
                                      "savedYScale" : 1.0,
                                      "stroke-color-blue" : 0.886274516582489,
                                      "stroke-color-green" : 0.200000002980232,
                                      "stroke-color-opacity" : 0.0,
                                      "stroke-color-red" : 0.376470595598221,
                                      "stroke-width" : 0.0,
                                      "width" : 1400.0,
                                      "custom" : "Y",
                                      "fill-style" : "solid",
                                      "stroke-style" : "solid"
                                    },
                                    "attributes" : {
                                      "ident" : "",
                                      "autoRotateText" : true
                                    },
                                    "parameters" : {
                                      "sourceCrop0" : 0.0,
                                      "sourceCrop1" : 0.0,
                                      "sourceCrop2" : 0.0,
                                      "sourceCrop3" : 0.0,
                                      "geometryCrop0" : 0.0,
                                      "geometryCrop1" : 0.0,
                                      "geometryCrop2" : 0.0,
                                      "geometryCrop3" : 0.0
                                    },
                                    "effects" : [

                                    ],
                                    "start" : 0,
                                    "duration" : 3528000000,
                                    "mediaStart" : 0,
                                    "mediaDuration" : 3528000000,
                                    "scalar" : 1,
                                    "metadata" : {
                                      "AppliedThemeId" : "",
                                      "clipSpeedAttribute" : false,
                                      "effectApplied" : "none"
                                    },
                                    "animationTracks" : {

                                    }
                                  }
                                ],
                                  "ident" : "",
                                  "audioMuted" : false,
                                  "videoHidden" : false,
                                  "magnetic" : false,
                                  "matte" : 1,
                                  "solo" : false,
                                  "metadata" : {
                                    "IsLocked" : "False",
                                    "WinTrackHeight" : "56",
                                    "trackHeight" : "54"
                                  }
                              }
                            ],
                            "attributes" : {
                              "ident" : "Rect-1400x1600-Mask",
                              "widthAttr" : 1405.0,
                              "heightAttr" : 167.002,
                              "gain" : 1.0,
                              "mixToMono" : false
                            },
                            "effects" : [

                            ],
                            "start" : 0,
                            "duration" : 3528000000,
                            "mediaStart" : 0.0,
                            "mediaDuration" : 3528000000.0,
                            "scalar" : 1,
                            "metadata" : {
                              "clipSpeedAttribute" : false,
                              "effectApplied" : "none",
                              "isOpen" : false,
                              "lockAspectRatio" : true
                            },
                            "animationTracks" : {
                              "visual" : [
                                {
                                  "endTime" : 552720000,
                                  "duration" : 552720000,
                                  "range" : [ 0, 552720000],
                                  "interp" : "eioe"
                                },
                                {
                                  "endTime" : 1775760000,
                                  "duration" : 399840000,
                                  "range" : [ 1375920000, 399840000],
                                  "interp" : "eioe"
                                }
                              ]
                            }
                          }
                        ],
                          "ident" : "",
                          "audioMuted" : false,
                          "videoHidden" : false,
                          "magnetic" : false,
                          "matte" : 1,
                          "solo" : false,
                          "metadata" : {
                            "IsLocked" : "False",
                            "WinTrackHeight" : "56",
                            "trackHeight" : "54"
                          }
                      }
                    ],
                    "attributes" : {
                      "ident" : "Broadcast-Title-012",
                      "widthAttr" : 1405.0,
                      "heightAttr" : 160.0,
                      "gain" : 1.0,
                      "mixToMono" : false,
                      "assetProperties" : [
                        {
                          "type" : 0,
                          "name" : "Title",
                          "objects" : [ 289 ],
                          "themeMappings" :  {
                            "font-color" : "foreground-1"
                          }
                        },
                        {
                          "type" : 1,
                          "name" : "Fill",
                          "objects" : [ 287 ],
                          "themeMappings" :  {
                            "fill" : "background-1"
                          }
                        },
                        {
                          "type" : 1,
                          "name" : "Wiper",
                          "objects" : [ 294 ],
                          "themeMappings" :  {
                            "fill" : "foreground-1"
                          }
                        }
                      ]
                    },
                    "effects" : [

                    ],
                    "start" : 1928640000,
                    "duration" : 1764000000,
                    "mediaStart" : 0.0,
                    "mediaDuration" : 1764000000.0,
                    "scalar" : 1,
                    "metadata" : {
                      "AppliedThemeId" : "170ba59c-db5d-4b9a-a310-e7e99853a4b7",
                      "clipSpeedAttribute" : false,
                      "default-anchor0" : 0.0,
                      "default-anchor1" : 0.0,
                      "default-anchor2" : 0.0,
                      "default-geometryCrop0" : 0.0,
                      "default-height" : 160.0,
                      "default-rotation0" : 0.0,
                      "default-rotation1" : 0.0,
                      "default-rotation2" : 0.0,
                      "default-scale0" : 1.0,
                      "default-scale1" : 1.0,
                      "default-scale2" : 1.0,
                      "default-shear0" : 0.0,
                      "default-shear1" : 0.0,
                      "default-shear2" : 0.0,
                      "default-translation0" : 0.0,
                      "default-translation1" : 0.0,
                      "default-translation2" : 0.0,
                      "default-width" : 1405.0,
                      "effectApplied" : "none",
                      "isOpen" : false,
                      "lockAspectRatio" : true
                    },
                    "animationTracks" : {

                    }
                  }
                ]
              },
              {
                "trackIndex" : 106,
                "medias" : [
                  {
                    "id" : 299,
                    "_type" : "Group",
                    "parameters" : {
                      "translation0" : -415.0,
                      "translation1" : 3.65625,
                      "scale0" : 0.213523131672598,
                      "scale1" : 0.21875,
                      "sourceCrop0" : 0.0,
                      "sourceCrop1" : 0.0,
                      "sourceCrop2" : 0.0,
                      "sourceCrop3" : 0.0,
                      "geometryCrop0" : 0.0,
                      "geometryCrop1" : 0.0,
                      "geometryCrop2" : 0.0,
                      "geometryCrop3" : 0.0,
                      "volume" : 1.0
                    },
                    "tracks" : [
                      {
                        "trackIndex" : 0,
                        "medias" : [
                          {
                            "id" : 300,
                            "_type" : "Group",
                            "parameters" : {
                              "translation0" : {
                                "type" : "double",
                                "defaultValue" : 0.0,
                                "keyframes" : [
                                  {
                                    "endTime" : 552720000,
                                    "time" : 0,
                                    "value" : 0.0,
                                    "interp" : "eioe",
                                    "duration" : 552720000
                                  },
                                  {
                                    "endTime" : 1775760000,
                                    "time" : 1375920000,
                                    "value" : 0.0,
                                    "interp" : "eioe",
                                    "duration" : 399840000
                                  }
                                ]
                              },
                              "translation1" : {
                                "type" : "double",
                                "defaultValue" : -305.610046386719,
                                "keyframes" : [
                                  {
                                    "endTime" : 552720000,
                                    "time" : 0,
                                    "value" : 0.0,
                                    "interp" : "eioe",
                                    "duration" : 552720000
                                  },
                                  {
                                    "endTime" : 1775760000,
                                    "time" : 1375920000,
                                    "value" : -304.610046386719,
                                    "interp" : "eioe",
                                    "duration" : 399840000
                                  }
                                ]
                              },
                              "sourceCrop0" : 0.0,
                              "sourceCrop1" : 0.0,
                              "sourceCrop2" : 0.0,
                              "sourceCrop3" : 0.0,
                              "geometryCrop0" : 0.0,
                              "geometryCrop1" : 0.0,
                              "geometryCrop2" : 0.0,
                              "geometryCrop3" : 0.0,
                              "volume" : 1.0
                            },
                            "tracks" : [
                              {
                                "trackIndex" : 0,
                                "medias" : [
                                  {
                                    "id" : 301,
                                    "_type" : "Group",
                                    "parameters" : {
                                      "sourceCrop0" : 0.0,
                                      "sourceCrop1" : 0.0,
                                      "sourceCrop2" : 0.0,
                                      "sourceCrop3" : 0.0,
                                      "geometryCrop0" : 0.0,
                                      "geometryCrop1" : 0.0,
                                      "geometryCrop2" : 0.0,
                                      "geometryCrop3" : 0.0,
                                      "volume" : 1.0
                                    },
                                    "tracks" : [
                                      {
                                        "trackIndex" : 0,
                                        "medias" : [
                                          {
                                            "id" : 302,
                                            "_type" : "Callout",
                                            "def" : {
                                              "kind" : "remix",
                                              "shape" : "shape-rectangle",
                                              "style" : "bold",
                                              "fill-color-blue" : 1.0,
                                              "fill-color-green" : 1.0,
                                              "fill-color-opacity" : 1.0,
                                              "fill-color-red" : 1.0,
                                              "hasDropShadow" : 0.0,
                                              "height" : 163.002035140991,
                                              "savedXScale" : 1.0,
                                              "savedYScale" : 1.0,
                                              "stroke-color-blue" : 1.0,
                                              "stroke-color-green" : 1.0,
                                              "stroke-color-opacity" : 1.0,
                                              "stroke-color-red" : 1.0,
                                              "stroke-width" : 0.0,
                                              "width" : 1403.00212860107,
                                              "custom" : "Y",
                                              "fill-style" : "solid",
                                              "stroke-style" : "solid"
                                            },
                                            "attributes" : {
                                              "ident" : "",
                                              "autoRotateText" : true
                                            },
                                            "parameters" : {
                                              "anchor0" : -1.0,
                                              "anchor1" : 2.0,
                                              "sourceCrop0" : 0.0,
                                              "sourceCrop1" : 0.0,
                                              "sourceCrop2" : 0.0,
                                              "sourceCrop3" : 0.0,
                                              "geometryCrop0" : 0.0,
                                              "geometryCrop1" : 0.0,
                                              "geometryCrop2" : 0.0,
                                              "geometryCrop3" : 0.0
                                            },
                                            "effects" : [

                                            ],
                                            "start" : 0,
                                            "duration" : 3528000000,
                                            "mediaStart" : 0,
                                            "mediaDuration" : 3528000000,
                                            "scalar" : 1,
                                            "metadata" : {
                                              "AppliedThemeId" : "",
                                              "clipSpeedAttribute" : false,
                                              "effectApplied" : "none",
                                              "lockAspectRatio" : false
                                            },
                                            "animationTracks" : {

                                            }
                                          }
                                        ],
                                          "ident" : "",
                                          "audioMuted" : false,
                                          "videoHidden" : false,
                                          "magnetic" : false,
                                          "matte" : 0,
                                          "solo" : false,
                                          "metadata" : {
                                            "IsLocked" : "False",
                                            "WinTrackHeight" : "56",
                                            "trackHeight" : "54"
                                          }
                                      },
                                      {
                                        "trackIndex" : 1,
                                        "medias" : [
                                          {
                                            "id" : 303,
                                            "_type" : "Callout",
                                            "def" : {
                                              "kind" : "remix",
                                              "shape" : "shape-rectangle",
                                              "style" : "bold",
                                              "fill-color-blue" : 0.756862759590149,
                                              "fill-color-green" : 0.18823529779911,
                                              "fill-color-opacity" : 1.0,
                                              "fill-color-red" : 0.960784316062927,
                                              "hasDropShadow" : 0.0,
                                              "height" : 160.0,
                                              "savedXScale" : 1.0,
                                              "savedYScale" : 1.0,
                                              "stroke-color-blue" : 0.886274516582489,
                                              "stroke-color-green" : 0.200000002980232,
                                              "stroke-color-opacity" : 0.0,
                                              "stroke-color-red" : 0.376470595598221,
                                              "stroke-width" : 0.0,
                                              "width" : 1400.0,
                                              "custom" : "Y",
                                              "fill-style" : "solid",
                                              "stroke-style" : "solid"
                                            },
                                            "attributes" : {
                                              "ident" : "",
                                              "autoRotateText" : true
                                            },
                                            "parameters" : {
                                              "sourceCrop0" : 0.0,
                                              "sourceCrop1" : 0.0,
                                              "sourceCrop2" : 0.0,
                                              "sourceCrop3" : 0.0,
                                              "geometryCrop0" : 0.0,
                                              "geometryCrop1" : 0.0,
                                              "geometryCrop2" : 0.0,
                                              "geometryCrop3" : 0.0
                                            },
                                            "effects" : [

                                            ],
                                            "start" : 0,
                                            "duration" : 3528000000,
                                            "mediaStart" : 0,
                                            "mediaDuration" : 3528000000,
                                            "scalar" : 1,
                                            "metadata" : {
                                              "AppliedThemeId" : "",
                                              "clipSpeedAttribute" : false,
                                              "effectApplied" : "none"
                                            },
                                            "animationTracks" : {

                                            }
                                          }
                                        ],
                                          "ident" : "",
                                          "audioMuted" : false,
                                          "videoHidden" : false,
                                          "magnetic" : false,
                                          "matte" : 1,
                                          "solo" : false,
                                          "metadata" : {
                                            "IsLocked" : "False",
                                            "WinTrackHeight" : "56",
                                            "trackHeight" : "54"
                                          }
                                      }
                                    ],
                                    "attributes" : {
                                      "ident" : "Fill-1400x160",
                                      "widthAttr" : 1405.0,
                                      "heightAttr" : 167.002,
                                      "gain" : 1.0,
                                      "mixToMono" : false
                                    },
                                    "effects" : [

                                    ],
                                    "start" : 0,
                                    "duration" : 3528000000,
                                    "mediaStart" : 0.0,
                                    "mediaDuration" : 3528000000.0,
                                    "scalar" : 1,
                                    "metadata" : {
                                      "clipSpeedAttribute" : false,
                                      "effectApplied" : "none",
                                      "isOpen" : false,
                                      "lockAspectRatio" : true
                                    },
                                    "animationTracks" : {

                                    }
                                  }
                                ],
                                  "ident" : "",
                                  "audioMuted" : false,
                                  "videoHidden" : false,
                                  "magnetic" : false,
                                  "matte" : 0,
                                  "solo" : false,
                                  "metadata" : {
                                    "IsLocked" : "False",
                                    "WinTrackHeight" : "56",
                                    "trackHeight" : "54"
                                  }
                              },
                              {
                                "trackIndex" : 1,
                                "medias" : [
                                  {
                                    "id" : 304,
                                    "_type" : "Callout",
                                    "def" : {
                                      "kind" : "remix",
                                      "shape" : "text",
                                      "style" : "urban",
                                      "enable-ligatures" : 1.0,
                                      "hasDropShadow" : 0.0,
                                      "height" : 170.0,
                                      "line-spacing" : 0.0,
                                      "savedXScale" : 1.0,
                                      "savedYScale" : 1.0,
                                      "width" : 1400.0,
                                      "word-wrap" : 1.0,
                                      "custom" : "Y",
                                      "horizontal-alignment" : "left",
                                      "resize-behavior" : "resizeText",
                                      "text" : "align center (H) + center (V)",
                                      "vertical-alignment" : "center",
                                      "font" : {
                                        "color-blue" : 1.0,
                                        "color-green" : 1.0,
                                        "color-red" : 1.0,
                                        "size" : 96.0,
                                        "tracking" : 0.0,
                                        "name" : "Dosis",
                                        "weight" : "Semi Bold"
                                      },
                                      "textAttributes" : {
                                        "type" : "textAttributeList",
                                        "keyframes" : [
                                          {
                                            "endTime" : 0,
                                            "time" : 0,
                                            "value" : [{"name":"underline","rangeEnd":29,"rangeStart":0,"value":0,"valueType":"int"},{"name":"strikethrough","rangeEnd":29,"rangeStart":0,"value":0,"valueType":"int"},{"name":"fontName","rangeEnd":29,"rangeStart":0,"value":"Roboto","valueType":"string"},{"name":"kerning","rangeEnd":29,"rangeStart":0,"value":0.049883078231292483,"valueType":"double"},{"name":"fontItalic","rangeEnd":29,"rangeStart":0,"value":0,"valueType":"int"},{"name":"fontWeight","rangeEnd":29,"rangeStart":0,"value":700,"valueType":"int"},{"name":"fontSize","rangeEnd":29,"rangeStart":0,"value":86,"valueType":"double"},{"name":"fgColor","rangeEnd":29,"rangeStart":0,"value":"(110,110,110,255)","valueType":"color"}],
                                            "duration" : 0
                                          }
                                        ]
                                      }
                                    },
                                    "attributes" : {
                                      "ident" : "",
                                      "autoRotateText" : true
                                    },
                                    "parameters" : {
                                      "translation1" : -2.0,
                                      "sourceCrop0" : 0.0,
                                      "sourceCrop1" : 0.0,
                                      "sourceCrop2" : 0.0,
                                      "sourceCrop3" : 0.0,
                                      "geometryCrop0" : 0.0,
                                      "geometryCrop1" : 0.0,
                                      "geometryCrop2" : 0.0,
                                      "geometryCrop3" : 0.0
                                    },
                                    "effects" : [

                                    ],
                                    "start" : 0,
                                    "duration" : 3528000000,
                                    "mediaStart" : 0,
                                    "mediaDuration" : 3528000000,
                                    "scalar" : 1,
                                    "metadata" : {
                                      "AppliedThemeId" : "",
                                      "clipSpeedAttribute" : false,
                                      "effectApplied" : "none",
                                      "lockAspectRatio" : false
                                    },
                                    "animationTracks" : {

                                    }
                                  }
                                ],
                                  "ident" : "",
                                  "audioMuted" : false,
                                  "videoHidden" : false,
                                  "magnetic" : false,
                                  "matte" : 0,
                                  "solo" : false,
                                  "metadata" : {
                                    "IsLocked" : "False",
                                    "WinTrackHeight" : "56",
                                    "trackHeight" : "54"
                                  }
                              }
                            ],
                            "attributes" : {
                              "ident" : "BP-Title-11",
                              "widthAttr" : 1405.0,
                              "heightAttr" : 167.002,
                              "gain" : 1.0,
                              "mixToMono" : false,
                              "assetProperties" : [
                                {
                                  "type" : 0,
                                  "name" : "Title",
                                  "objects" : [ 304 ],
                                  "themeMappings" :  {
                                    "font-color" : "foreground-1"
                                  }
                                },
                                {
                                  "type" : 1,
                                  "name" : "Fill",
                                  "objects" : [ 302 ],
                                  "themeMappings" :  {
                                    "fill" : "background-1"
                                  }
                                }
                              ]
                            },
                            "effects" : [

                            ],
                            "start" : 0,
                            "duration" : 3528000000,
                            "mediaStart" : 0.0,
                            "mediaDuration" : 3528000000.0,
                            "scalar" : 1,
                            "metadata" : {
                              "clipSpeedAttribute" : false,
                              "effectApplied" : "none",
                              "isOpen" : false,
                              "lockAspectRatio" : true
                            },
                            "animationTracks" : {
                              "visual" : [
                                {
                                  "endTime" : 552720000,
                                  "duration" : 552720000,
                                  "range" : [ 0, 552720000],
                                  "interp" : "eioe"
                                },
                                {
                                  "endTime" : 1775760000,
                                  "duration" : 399840000,
                                  "range" : [ 1375920000, 399840000],
                                  "interp" : "eioe"
                                }
                              ]
                            }
                          }
                        ],
                          "ident" : "",
                          "audioMuted" : false,
                          "videoHidden" : false,
                          "magnetic" : false,
                          "matte" : 0,
                          "solo" : false,
                          "metadata" : {
                            "IsLocked" : "False",
                            "WinTrackHeight" : "56",
                            "trackHeight" : "54"
                          }
                      },
                      {
                        "trackIndex" : 1,
                        "medias" : [
                          {
                            "id" : 305,
                            "_type" : "Group",
                            "parameters" : {
                              "translation0" : {
                                "type" : "double",
                                "defaultValue" : 0.0,
                                "keyframes" : [
                                  {
                                    "endTime" : 552720000,
                                    "time" : 0,
                                    "value" : 0.0,
                                    "interp" : "eioe",
                                    "duration" : 552720000
                                  },
                                  {
                                    "endTime" : 1775760000,
                                    "time" : 1375920000,
                                    "value" : 0.0,
                                    "interp" : "eioe",
                                    "duration" : 399840000
                                  }
                                ]
                              },
                              "translation1" : {
                                "type" : "double",
                                "defaultValue" : -144.610046386719,
                                "keyframes" : [
                                  {
                                    "endTime" : 552720000,
                                    "time" : 0,
                                    "value" : 0.0,
                                    "interp" : "eioe",
                                    "duration" : 552720000
                                  },
                                  {
                                    "endTime" : 1775760000,
                                    "time" : 1375920000,
                                    "value" : -144.610046386719,
                                    "interp" : "eioe",
                                    "duration" : 399840000
                                  }
                                ]
                              },
                              "sourceCrop0" : 0.0,
                              "sourceCrop1" : 0.0,
                              "sourceCrop2" : 0.0,
                              "sourceCrop3" : 0.0,
                              "geometryCrop0" : 0.0,
                              "geometryCrop1" : 0.0,
                              "geometryCrop2" : 0.0,
                              "geometryCrop3" : 0.0,
                              "opacity" : {
                                "type" : "double",
                                "defaultValue" : 1.0,
                                "keyframes" : [
                                  {
                                    "endTime" : 552720000,
                                    "time" : 0,
                                    "value" : 1.0,
                                    "interp" : "eioe",
                                    "duration" : 552720000
                                  }
                                ]
                              },
                              "volume" : 1.0
                            },
                            "tracks" : [
                              {
                                "trackIndex" : 0,
                                "medias" : [
                                  {
                                    "id" : 306,
                                    "_type" : "Callout",
                                    "def" : {
                                      "kind" : "remix",
                                      "shape" : "shape-rectangle",
                                      "style" : "bold",
                                      "fill-color-blue" : 0.913725490196078,
                                      "fill-color-green" : 0.949019607843137,
                                      "fill-color-opacity" : 1.0,
                                      "fill-color-red" : 0.933333333333333,
                                      "hasDropShadow" : 0.0,
                                      "height" : 163.002035140991,
                                      "savedXScale" : 1.0,
                                      "savedYScale" : 1.0,
                                      "stroke-color-blue" : 1.0,
                                      "stroke-color-green" : 1.0,
                                      "stroke-color-opacity" : 1.0,
                                      "stroke-color-red" : 1.0,
                                      "stroke-width" : 0.0,
                                      "width" : 1403.00212860107,
                                      "custom" : "Y",
                                      "fill-style" : "solid",
                                      "stroke-style" : "solid"
                                    },
                                    "attributes" : {
                                      "ident" : "",
                                      "autoRotateText" : true
                                    },
                                    "parameters" : {
                                      "anchor0" : -1.0,
                                      "anchor1" : 2.0,
                                      "sourceCrop0" : 0.0,
                                      "sourceCrop1" : 0.0,
                                      "sourceCrop2" : 0.0,
                                      "sourceCrop3" : 0.0,
                                      "geometryCrop0" : 0.0,
                                      "geometryCrop1" : 0.0,
                                      "geometryCrop2" : 0.0,
                                      "geometryCrop3" : 0.0
                                    },
                                    "effects" : [

                                    ],
                                    "start" : 0,
                                    "duration" : 3528000000,
                                    "mediaStart" : 0,
                                    "mediaDuration" : 3528000000,
                                    "scalar" : 1,
                                    "metadata" : {
                                      "AppliedThemeId" : "",
                                      "clipSpeedAttribute" : false,
                                      "effectApplied" : "none",
                                      "lockAspectRatio" : false
                                    },
                                    "animationTracks" : {

                                    }
                                  }
                                ],
                                  "ident" : "",
                                  "audioMuted" : false,
                                  "videoHidden" : false,
                                  "magnetic" : false,
                                  "matte" : 0,
                                  "solo" : false,
                                  "metadata" : {
                                    "IsLocked" : "False",
                                    "WinTrackHeight" : "56",
                                    "trackHeight" : "54"
                                  }
                              },
                              {
                                "trackIndex" : 1,
                                "medias" : [
                                  {
                                    "id" : 307,
                                    "_type" : "Callout",
                                    "def" : {
                                      "kind" : "remix",
                                      "shape" : "shape-rectangle",
                                      "style" : "bold",
                                      "fill-color-blue" : 0.756862759590149,
                                      "fill-color-green" : 0.18823529779911,
                                      "fill-color-opacity" : 1.0,
                                      "fill-color-red" : 0.960784316062927,
                                      "hasDropShadow" : 0.0,
                                      "height" : 160.0,
                                      "savedXScale" : 1.0,
                                      "savedYScale" : 1.0,
                                      "stroke-color-blue" : 0.886274516582489,
                                      "stroke-color-green" : 0.200000002980232,
                                      "stroke-color-opacity" : 0.0,
                                      "stroke-color-red" : 0.376470595598221,
                                      "stroke-width" : 0.0,
                                      "width" : 1400.0,
                                      "custom" : "Y",
                                      "fill-style" : "solid",
                                      "stroke-style" : "solid"
                                    },
                                    "attributes" : {
                                      "ident" : "",
                                      "autoRotateText" : true
                                    },
                                    "parameters" : {
                                      "sourceCrop0" : 0.0,
                                      "sourceCrop1" : 0.0,
                                      "sourceCrop2" : 0.0,
                                      "sourceCrop3" : 0.0,
                                      "geometryCrop0" : 0.0,
                                      "geometryCrop1" : 0.0,
                                      "geometryCrop2" : 0.0,
                                      "geometryCrop3" : 0.0
                                    },
                                    "effects" : [

                                    ],
                                    "start" : 0,
                                    "duration" : 3528000000,
                                    "mediaStart" : 0,
                                    "mediaDuration" : 3528000000,
                                    "scalar" : 1,
                                    "metadata" : {
                                      "AppliedThemeId" : "",
                                      "clipSpeedAttribute" : false,
                                      "effectApplied" : "none"
                                    },
                                    "animationTracks" : {

                                    }
                                  }
                                ],
                                  "ident" : "",
                                  "audioMuted" : false,
                                  "videoHidden" : false,
                                  "magnetic" : false,
                                  "matte" : 1,
                                  "solo" : false,
                                  "metadata" : {
                                    "IsLocked" : "False",
                                    "WinTrackHeight" : "56",
                                    "trackHeight" : "54"
                                  }
                              }
                            ],
                            "attributes" : {
                              "ident" : "Rect-1400x1600-Mask",
                              "widthAttr" : 1405.0,
                              "heightAttr" : 167.002,
                              "gain" : 1.0,
                              "mixToMono" : false
                            },
                            "effects" : [

                            ],
                            "start" : 0,
                            "duration" : 3528000000,
                            "mediaStart" : 0.0,
                            "mediaDuration" : 3528000000.0,
                            "scalar" : 1,
                            "metadata" : {
                              "clipSpeedAttribute" : false,
                              "effectApplied" : "none",
                              "isOpen" : false,
                              "lockAspectRatio" : true
                            },
                            "animationTracks" : {
                              "visual" : [
                                {
                                  "endTime" : 552720000,
                                  "duration" : 552720000,
                                  "range" : [ 0, 552720000],
                                  "interp" : "eioe"
                                },
                                {
                                  "endTime" : 1775760000,
                                  "duration" : 399840000,
                                  "range" : [ 1375920000, 399840000],
                                  "interp" : "eioe"
                                }
                              ]
                            }
                          }
                        ],
                          "ident" : "",
                          "audioMuted" : false,
                          "videoHidden" : false,
                          "magnetic" : false,
                          "matte" : 1,
                          "solo" : false,
                          "metadata" : {
                            "IsLocked" : "False",
                            "WinTrackHeight" : "56",
                            "trackHeight" : "54"
                          }
                      },
                      {
                        "trackIndex" : 2,
                        "medias" : [
                          {
                            "id" : 308,
                            "_type" : "Group",
                            "parameters" : {
                              "translation0" : {
                                "type" : "double",
                                "defaultValue" : 0.0,
                                "keyframes" : [
                                  {
                                    "endTime" : 552720000,
                                    "time" : 0,
                                    "value" : 0.0,
                                    "interp" : "eioe",
                                    "duration" : 552720000
                                  },
                                  {
                                    "endTime" : 1775760000,
                                    "time" : 1375920000,
                                    "value" : 0.0,
                                    "interp" : "eioe",
                                    "duration" : 399840000
                                  }
                                ]
                              },
                              "translation1" : {
                                "type" : "double",
                                "defaultValue" : -233.610046386719,
                                "keyframes" : [
                                  {
                                    "endTime" : 552720000,
                                    "time" : 0,
                                    "value" : 90.0,
                                    "interp" : "eioe",
                                    "duration" : 552720000
                                  },
                                  {
                                    "endTime" : 1775760000,
                                    "time" : 1375920000,
                                    "value" : -233.610046386719,
                                    "interp" : "eioe",
                                    "duration" : 399840000
                                  }
                                ]
                              },
                              "sourceCrop0" : 0.0,
                              "sourceCrop1" : 0.0,
                              "sourceCrop2" : 0.0,
                              "sourceCrop3" : 0.0,
                              "geometryCrop0" : 0.0,
                              "geometryCrop1" : 0.0,
                              "geometryCrop2" : 0.0,
                              "geometryCrop3" : 0.0,
                              "opacity" : {
                                "type" : "double",
                                "defaultValue" : 1.0,
                                "keyframes" : [
                                  {
                                    "endTime" : 552720000,
                                    "time" : 0,
                                    "value" : 1.0,
                                    "interp" : "eioe",
                                    "duration" : 552720000
                                  }
                                ]
                              },
                              "volume" : 1.0
                            },
                            "tracks" : [
                              {
                                "trackIndex" : 0,
                                "medias" : [
                                  {
                                    "id" : 309,
                                    "_type" : "Callout",
                                    "def" : {
                                      "kind" : "remix",
                                      "shape" : "shape-rectangle",
                                      "style" : "bold",
                                      "fill-color-blue" : 0.2196078431,
                                      "fill-color-green" : 0.8745098039,
                                      "fill-color-opacity" : 1.0,
                                      "fill-color-red" : 1.0,
                                      "hasDropShadow" : 0.0,
                                      "height" : 163.002035140991,
                                      "savedXScale" : 1.0,
                                      "savedYScale" : 1.0,
                                      "stroke-color-blue" : 1.0,
                                      "stroke-color-green" : 1.0,
                                      "stroke-color-opacity" : 1.0,
                                      "stroke-color-red" : 1.0,
                                      "stroke-width" : 0.0,
                                      "width" : 1403.00212860107,
                                      "custom" : "Y",
                                      "fill-style" : "solid",
                                      "stroke-style" : "solid"
                                    },
                                    "attributes" : {
                                      "ident" : "",
                                      "autoRotateText" : true
                                    },
                                    "parameters" : {
                                      "anchor0" : -1.0,
                                      "anchor1" : 2.0,
                                      "sourceCrop0" : 0.0,
                                      "sourceCrop1" : 0.0,
                                      "sourceCrop2" : 0.0,
                                      "sourceCrop3" : 0.0,
                                      "geometryCrop0" : 0.0,
                                      "geometryCrop1" : 0.0,
                                      "geometryCrop2" : 0.0,
                                      "geometryCrop3" : 0.0
                                    },
                                    "effects" : [

                                    ],
                                    "start" : 0,
                                    "duration" : 3528000000,
                                    "mediaStart" : 0,
                                    "mediaDuration" : 3528000000,
                                    "scalar" : 1,
                                    "metadata" : {
                                      "AppliedThemeId" : "",
                                      "clipSpeedAttribute" : false,
                                      "effectApplied" : "none",
                                      "lockAspectRatio" : false
                                    },
                                    "animationTracks" : {

                                    }
                                  }
                                ],
                                  "ident" : "",
                                  "audioMuted" : false,
                                  "videoHidden" : false,
                                  "magnetic" : false,
                                  "matte" : 0,
                                  "solo" : false,
                                  "metadata" : {
                                    "IsLocked" : "False",
                                    "WinTrackHeight" : "56",
                                    "trackHeight" : "54"
                                  }
                              },
                              {
                                "trackIndex" : 1,
                                "medias" : [
                                  {
                                    "id" : 310,
                                    "_type" : "Callout",
                                    "def" : {
                                      "kind" : "remix",
                                      "shape" : "shape-rectangle",
                                      "style" : "bold",
                                      "fill-color-blue" : 0.756862759590149,
                                      "fill-color-green" : 0.18823529779911,
                                      "fill-color-opacity" : 1.0,
                                      "fill-color-red" : 0.960784316062927,
                                      "hasDropShadow" : 0.0,
                                      "height" : 160.0,
                                      "savedXScale" : 1.0,
                                      "savedYScale" : 1.0,
                                      "stroke-color-blue" : 0.886274516582489,
                                      "stroke-color-green" : 0.200000002980232,
                                      "stroke-color-opacity" : 0.0,
                                      "stroke-color-red" : 0.376470595598221,
                                      "stroke-width" : 0.0,
                                      "width" : 1400.0,
                                      "custom" : "Y",
                                      "fill-style" : "solid",
                                      "stroke-style" : "solid"
                                    },
                                    "attributes" : {
                                      "ident" : "",
                                      "autoRotateText" : true
                                    },
                                    "parameters" : {
                                      "translation1" : {
                                        "type" : "double",
                                        "defaultValue" : -1.0,
                                        "keyframes" : [
                                          {
                                            "endTime" : 270480000,
                                            "time" : 0,
                                            "value" : 0.0,
                                            "duration" : 270480000
                                          }
                                        ]
                                      },
                                      "scale0" : {
                                        "type" : "double",
                                        "defaultValue" : 1.0,
                                        "keyframes" : [
                                          {
                                            "endTime" : 270480000,
                                            "time" : 0,
                                            "value" : 1.0,
                                            "duration" : 270480000
                                          }
                                        ]
                                      },
                                      "scale1" : {
                                        "type" : "double",
                                        "defaultValue" : 0.125,
                                        "keyframes" : [
                                          {
                                            "endTime" : 270480000,
                                            "time" : 0,
                                            "value" : 0.5,
                                            "duration" : 270480000
                                          },
                                          {
                                            "endTime" : 552720000,
                                            "time" : 282240000,
                                            "value" : 0.125,
                                            "duration" : 270480000
                                          }
                                        ]
                                      },
                                      "sourceCrop0" : 0.0,
                                      "sourceCrop1" : 0.0,
                                      "sourceCrop2" : 0.0,
                                      "sourceCrop3" : 0.0,
                                      "geometryCrop0" : 0.0,
                                      "geometryCrop1" : 0.0,
                                      "geometryCrop2" : 0.0,
                                      "geometryCrop3" : 0.0
                                    },
                                    "effects" : [

                                    ],
                                    "start" : 0,
                                    "duration" : 3528000000,
                                    "mediaStart" : 0,
                                    "mediaDuration" : 3528000000,
                                    "scalar" : 1,
                                    "metadata" : {
                                      "AppliedThemeId" : "",
                                      "clipSpeedAttribute" : false,
                                      "effectApplied" : "none"
                                    },
                                    "animationTracks" : {
                                      "visual" : [
                                        {
                                          "endTime" : 270480000,
                                          "duration" : 270480000,
                                          "range" : [ 0, 270480000]
                                        },
                                        {
                                          "endTime" : 552720000,
                                          "duration" : 270480000,
                                          "range" : [ 282240000, 270480000]
                                        }
                                      ]
                                    }
                                  }
                                ],
                                  "ident" : "",
                                  "audioMuted" : false,
                                  "videoHidden" : false,
                                  "magnetic" : false,
                                  "matte" : 1,
                                  "solo" : false,
                                  "metadata" : {
                                    "IsLocked" : "False",
                                    "WinTrackHeight" : "56",
                                    "trackHeight" : "54"
                                  }
                              }
                            ],
                            "attributes" : {
                              "ident" : "Animated-Pulse-1400x20-To-1400x80",
                              "widthAttr" : 1405.0,
                              "heightAttr" : 167.002,
                              "gain" : 1.0,
                              "mixToMono" : false,
                              "assetProperties" : [
                                {
                                  "type" : 1,
                                  "name" : "Color",
                                  "objects" : [ 309 ],
                                  "themeMappings" :  {
                                    "fill" : "accent-1"
                                  }
                                }
                              ]
                            },
                            "effects" : [

                            ],
                            "start" : 0,
                            "duration" : 3528000000,
                            "mediaStart" : 0.0,
                            "mediaDuration" : 3528000000.0,
                            "scalar" : 1,
                            "metadata" : {
                              "AppliedThemeId" : "8e797988-b823-4beb-b251-1d31b461ba07",
                              "clipSpeedAttribute" : false,
                              "effectApplied" : "none",
                              "isOpen" : false,
                              "lockAspectRatio" : true
                            },
                            "animationTracks" : {
                              "visual" : [
                                {
                                  "endTime" : 552720000,
                                  "duration" : 552720000,
                                  "range" : [ 0, 552720000],
                                  "interp" : "eioe"
                                },
                                {
                                  "endTime" : 1775760000,
                                  "duration" : 399840000,
                                  "range" : [ 1375920000, 399840000],
                                  "interp" : "eioe"
                                }
                              ]
                            }
                          }
                        ],
                          "ident" : "",
                          "audioMuted" : false,
                          "videoHidden" : false,
                          "magnetic" : false,
                          "matte" : 0,
                          "solo" : false,
                          "metadata" : {
                            "IsLocked" : "False",
                            "WinTrackHeight" : "56",
                            "trackHeight" : "54"
                          }
                      },
                      {
                        "trackIndex" : 3,
                        "medias" : [
                          {
                            "id" : 311,
                            "_type" : "Group",
                            "parameters" : {
                              "translation0" : {
                                "type" : "double",
                                "defaultValue" : 0.0,
                                "keyframes" : [
                                  {
                                    "endTime" : 552720000,
                                    "time" : 0,
                                    "value" : 0.0,
                                    "interp" : "eioe",
                                    "duration" : 552720000
                                  },
                                  {
                                    "endTime" : 1775760000,
                                    "time" : 1375920000,
                                    "value" : 0.0,
                                    "interp" : "eioe",
                                    "duration" : 399840000
                                  }
                                ]
                              },
                              "translation1" : {
                                "type" : "double",
                                "defaultValue" : -143.610046386719,
                                "keyframes" : [
                                  {
                                    "endTime" : 552720000,
                                    "time" : 0,
                                    "value" : 0.0,
                                    "interp" : "eioe",
                                    "duration" : 552720000
                                  },
                                  {
                                    "endTime" : 1775760000,
                                    "time" : 1375920000,
                                    "value" : -143.610046386719,
                                    "interp" : "eioe",
                                    "duration" : 399840000
                                  }
                                ]
                              },
                              "sourceCrop0" : 0.0,
                              "sourceCrop1" : 0.0,
                              "sourceCrop2" : 0.0,
                              "sourceCrop3" : 0.0,
                              "geometryCrop0" : 0.0,
                              "geometryCrop1" : 0.0,
                              "geometryCrop2" : 0.0,
                              "geometryCrop3" : 0.0,
                              "opacity" : {
                                "type" : "double",
                                "defaultValue" : 1.0,
                                "keyframes" : [
                                  {
                                    "endTime" : 552720000,
                                    "time" : 0,
                                    "value" : 1.0,
                                    "interp" : "eioe",
                                    "duration" : 552720000
                                  }
                                ]
                              },
                              "volume" : 1.0
                            },
                            "tracks" : [
                              {
                                "trackIndex" : 0,
                                "medias" : [
                                  {
                                    "id" : 312,
                                    "_type" : "Callout",
                                    "def" : {
                                      "kind" : "remix",
                                      "shape" : "shape-rectangle",
                                      "style" : "bold",
                                      "fill-color-blue" : 0.913725490196078,
                                      "fill-color-green" : 0.949019607843137,
                                      "fill-color-opacity" : 1.0,
                                      "fill-color-red" : 0.933333333333333,
                                      "hasDropShadow" : 0.0,
                                      "height" : 163.002035140991,
                                      "savedXScale" : 1.0,
                                      "savedYScale" : 1.0,
                                      "stroke-color-blue" : 1.0,
                                      "stroke-color-green" : 1.0,
                                      "stroke-color-opacity" : 1.0,
                                      "stroke-color-red" : 1.0,
                                      "stroke-width" : 0.0,
                                      "width" : 1403.00212860107,
                                      "custom" : "Y",
                                      "fill-style" : "solid",
                                      "stroke-style" : "solid"
                                    },
                                    "attributes" : {
                                      "ident" : "",
                                      "autoRotateText" : true
                                    },
                                    "parameters" : {
                                      "anchor0" : -1.0,
                                      "anchor1" : 2.0,
                                      "sourceCrop0" : 0.0,
                                      "sourceCrop1" : 0.0,
                                      "sourceCrop2" : 0.0,
                                      "sourceCrop3" : 0.0,
                                      "geometryCrop0" : 0.0,
                                      "geometryCrop1" : 0.0,
                                      "geometryCrop2" : 0.0,
                                      "geometryCrop3" : 0.0
                                    },
                                    "effects" : [

                                    ],
                                    "start" : 0,
                                    "duration" : 3528000000,
                                    "mediaStart" : 0,
                                    "mediaDuration" : 3528000000,
                                    "scalar" : 1,
                                    "metadata" : {
                                      "AppliedThemeId" : "",
                                      "clipSpeedAttribute" : false,
                                      "effectApplied" : "none",
                                      "lockAspectRatio" : false
                                    },
                                    "animationTracks" : {

                                    }
                                  }
                                ],
                                  "ident" : "",
                                  "audioMuted" : false,
                                  "videoHidden" : false,
                                  "magnetic" : false,
                                  "matte" : 0,
                                  "solo" : false,
                                  "metadata" : {
                                    "IsLocked" : "False",
                                    "WinTrackHeight" : "56",
                                    "trackHeight" : "54"
                                  }
                              },
                              {
                                "trackIndex" : 1,
                                "medias" : [
                                  {
                                    "id" : 313,
                                    "_type" : "Callout",
                                    "def" : {
                                      "kind" : "remix",
                                      "shape" : "shape-rectangle",
                                      "style" : "bold",
                                      "fill-color-blue" : 0.756862759590149,
                                      "fill-color-green" : 0.18823529779911,
                                      "fill-color-opacity" : 1.0,
                                      "fill-color-red" : 0.960784316062927,
                                      "hasDropShadow" : 0.0,
                                      "height" : 160.0,
                                      "savedXScale" : 1.0,
                                      "savedYScale" : 1.0,
                                      "stroke-color-blue" : 0.886274516582489,
                                      "stroke-color-green" : 0.200000002980232,
                                      "stroke-color-opacity" : 0.0,
                                      "stroke-color-red" : 0.376470595598221,
                                      "stroke-width" : 0.0,
                                      "width" : 1400.0,
                                      "custom" : "Y",
                                      "fill-style" : "solid",
                                      "stroke-style" : "solid"
                                    },
                                    "attributes" : {
                                      "ident" : "",
                                      "autoRotateText" : true
                                    },
                                    "parameters" : {
                                      "sourceCrop0" : 0.0,
                                      "sourceCrop1" : 0.0,
                                      "sourceCrop2" : 0.0,
                                      "sourceCrop3" : 0.0,
                                      "geometryCrop0" : 0.0,
                                      "geometryCrop1" : 0.0,
                                      "geometryCrop2" : 0.0,
                                      "geometryCrop3" : 0.0
                                    },
                                    "effects" : [

                                    ],
                                    "start" : 0,
                                    "duration" : 3528000000,
                                    "mediaStart" : 0,
                                    "mediaDuration" : 3528000000,
                                    "scalar" : 1,
                                    "metadata" : {
                                      "AppliedThemeId" : "",
                                      "clipSpeedAttribute" : false,
                                      "effectApplied" : "none"
                                    },
                                    "animationTracks" : {

                                    }
                                  }
                                ],
                                  "ident" : "",
                                  "audioMuted" : false,
                                  "videoHidden" : false,
                                  "magnetic" : false,
                                  "matte" : 1,
                                  "solo" : false,
                                  "metadata" : {
                                    "IsLocked" : "False",
                                    "WinTrackHeight" : "56",
                                    "trackHeight" : "54"
                                  }
                              }
                            ],
                            "attributes" : {
                              "ident" : "Rect-1400x1600-Mask",
                              "widthAttr" : 1405.0,
                              "heightAttr" : 167.002,
                              "gain" : 1.0,
                              "mixToMono" : false
                            },
                            "effects" : [

                            ],
                            "start" : 0,
                            "duration" : 3528000000,
                            "mediaStart" : 0.0,
                            "mediaDuration" : 3528000000.0,
                            "scalar" : 1,
                            "metadata" : {
                              "clipSpeedAttribute" : false,
                              "effectApplied" : "none",
                              "isOpen" : false,
                              "lockAspectRatio" : true
                            },
                            "animationTracks" : {
                              "visual" : [
                                {
                                  "endTime" : 552720000,
                                  "duration" : 552720000,
                                  "range" : [ 0, 552720000],
                                  "interp" : "eioe"
                                },
                                {
                                  "endTime" : 1775760000,
                                  "duration" : 399840000,
                                  "range" : [ 1375920000, 399840000],
                                  "interp" : "eioe"
                                }
                              ]
                            }
                          }
                        ],
                          "ident" : "",
                          "audioMuted" : false,
                          "videoHidden" : false,
                          "magnetic" : false,
                          "matte" : 1,
                          "solo" : false,
                          "metadata" : {
                            "IsLocked" : "False",
                            "WinTrackHeight" : "56",
                            "trackHeight" : "54"
                          }
                      }
                    ],
                    "attributes" : {
                      "ident" : "Broadcast-Title-012",
                      "widthAttr" : 1405.0,
                      "heightAttr" : 160.0,
                      "gain" : 1.0,
                      "mixToMono" : false,
                      "assetProperties" : [
                        {
                          "type" : 0,
                          "name" : "Title",
                          "objects" : [ 304 ],
                          "themeMappings" :  {
                            "font-color" : "foreground-1"
                          }
                        },
                        {
                          "type" : 1,
                          "name" : "Fill",
                          "objects" : [ 302 ],
                          "themeMappings" :  {
                            "fill" : "background-1"
                          }
                        },
                        {
                          "type" : 1,
                          "name" : "Wiper",
                          "objects" : [ 309 ],
                          "themeMappings" :  {
                            "fill" : "foreground-1"
                          }
                        }
                      ]
                    },
                    "effects" : [

                    ],
                    "start" : 1928640000,
                    "duration" : 1764000000,
                    "mediaStart" : 0.0,
                    "mediaDuration" : 1764000000.0,
                    "scalar" : 1,
                    "metadata" : {
                      "AppliedThemeId" : "170ba59c-db5d-4b9a-a310-e7e99853a4b7",
                      "clipSpeedAttribute" : false,
                      "default-anchor0" : 0.0,
                      "default-anchor1" : 0.0,
                      "default-anchor2" : 0.0,
                      "default-geometryCrop0" : 0.0,
                      "default-geometryCrop2" : 0.0,
                      "default-height" : 160.0,
                      "default-rotation0" : 0.0,
                      "default-rotation1" : 0.0,
                      "default-rotation2" : 0.0,
                      "default-scale0" : 1.0,
                      "default-scale1" : 1.0,
                      "default-scale2" : 1.0,
                      "default-shear0" : 0.0,
                      "default-shear1" : 0.0,
                      "default-shear2" : 0.0,
                      "default-translation0" : 0.0,
                      "default-translation1" : 0.0,
                      "default-translation2" : 0.0,
                      "default-width" : 1405.0,
                      "effectApplied" : "none",
                      "isOpen" : false,
                      "lockAspectRatio" : true
                    },
                    "animationTracks" : {

                    }
                  }
                ]
              },
              {
                "trackIndex" : 107,
                "medias" : [
                  {
                    "id" : 314,
                    "_type" : "Group",
                    "parameters" : {
                      "translation0" : 350.0,
                      "translation1" : 53.0,
                      "scale0" : 0.213523131672598,
                      "scale1" : 0.21875,
                      "sourceCrop0" : 0.0,
                      "sourceCrop1" : 0.0,
                      "sourceCrop2" : 0.0,
                      "sourceCrop3" : 0.0,
                      "geometryCrop0" : 0.0,
                      "geometryCrop1" : 0.0,
                      "geometryCrop2" : 0.0,
                      "geometryCrop3" : 0.0,
                      "volume" : 1.0
                    },
                    "tracks" : [
                      {
                        "trackIndex" : 0,
                        "medias" : [
                          {
                            "id" : 315,
                            "_type" : "Group",
                            "parameters" : {
                              "translation0" : {
                                "type" : "double",
                                "defaultValue" : 0.0,
                                "keyframes" : [
                                  {
                                    "endTime" : 552720000,
                                    "time" : 0,
                                    "value" : 0.0,
                                    "interp" : "eioe",
                                    "duration" : 552720000
                                  },
                                  {
                                    "endTime" : 1775760000,
                                    "time" : 1375920000,
                                    "value" : 0.0,
                                    "interp" : "eioe",
                                    "duration" : 399840000
                                  }
                                ]
                              },
                              "translation1" : {
                                "type" : "double",
                                "defaultValue" : -305.610046386719,
                                "keyframes" : [
                                  {
                                    "endTime" : 552720000,
                                    "time" : 0,
                                    "value" : 0.0,
                                    "interp" : "eioe",
                                    "duration" : 552720000
                                  },
                                  {
                                    "endTime" : 1775760000,
                                    "time" : 1375920000,
                                    "value" : -304.610046386719,
                                    "interp" : "eioe",
                                    "duration" : 399840000
                                  }
                                ]
                              },
                              "sourceCrop0" : 0.0,
                              "sourceCrop1" : 0.0,
                              "sourceCrop2" : 0.0,
                              "sourceCrop3" : 0.0,
                              "geometryCrop0" : 0.0,
                              "geometryCrop1" : 0.0,
                              "geometryCrop2" : 0.0,
                              "geometryCrop3" : 0.0,
                              "volume" : 1.0
                            },
                            "tracks" : [
                              {
                                "trackIndex" : 0,
                                "medias" : [
                                  {
                                    "id" : 316,
                                    "_type" : "Group",
                                    "parameters" : {
                                      "sourceCrop0" : 0.0,
                                      "sourceCrop1" : 0.0,
                                      "sourceCrop2" : 0.0,
                                      "sourceCrop3" : 0.0,
                                      "geometryCrop0" : 0.0,
                                      "geometryCrop1" : 0.0,
                                      "geometryCrop2" : 0.0,
                                      "geometryCrop3" : 0.0,
                                      "volume" : 1.0
                                    },
                                    "tracks" : [
                                      {
                                        "trackIndex" : 0,
                                        "medias" : [
                                          {
                                            "id" : 317,
                                            "_type" : "Callout",
                                            "def" : {
                                              "kind" : "remix",
                                              "shape" : "shape-rectangle",
                                              "style" : "bold",
                                              "fill-color-blue" : 1.0,
                                              "fill-color-green" : 1.0,
                                              "fill-color-opacity" : 1.0,
                                              "fill-color-red" : 1.0,
                                              "hasDropShadow" : 0.0,
                                              "height" : 163.002035140991,
                                              "savedXScale" : 1.0,
                                              "savedYScale" : 1.0,
                                              "stroke-color-blue" : 1.0,
                                              "stroke-color-green" : 1.0,
                                              "stroke-color-opacity" : 1.0,
                                              "stroke-color-red" : 1.0,
                                              "stroke-width" : 0.0,
                                              "width" : 1403.00212860107,
                                              "custom" : "Y",
                                              "fill-style" : "solid",
                                              "stroke-style" : "solid"
                                            },
                                            "attributes" : {
                                              "ident" : "",
                                              "autoRotateText" : true
                                            },
                                            "parameters" : {
                                              "anchor0" : -1.0,
                                              "anchor1" : 2.0,
                                              "sourceCrop0" : 0.0,
                                              "sourceCrop1" : 0.0,
                                              "sourceCrop2" : 0.0,
                                              "sourceCrop3" : 0.0,
                                              "geometryCrop0" : 0.0,
                                              "geometryCrop1" : 0.0,
                                              "geometryCrop2" : 0.0,
                                              "geometryCrop3" : 0.0
                                            },
                                            "effects" : [

                                            ],
                                            "start" : 0,
                                            "duration" : 3528000000,
                                            "mediaStart" : 0,
                                            "mediaDuration" : 3528000000,
                                            "scalar" : 1,
                                            "metadata" : {
                                              "AppliedThemeId" : "",
                                              "clipSpeedAttribute" : false,
                                              "effectApplied" : "none",
                                              "lockAspectRatio" : false
                                            },
                                            "animationTracks" : {

                                            }
                                          }
                                        ],
                                          "ident" : "",
                                          "audioMuted" : false,
                                          "videoHidden" : false,
                                          "magnetic" : false,
                                          "matte" : 0,
                                          "solo" : false,
                                          "metadata" : {
                                            "IsLocked" : "False",
                                            "WinTrackHeight" : "56",
                                            "trackHeight" : "54"
                                          }
                                      },
                                      {
                                        "trackIndex" : 1,
                                        "medias" : [
                                          {
                                            "id" : 318,
                                            "_type" : "Callout",
                                            "def" : {
                                              "kind" : "remix",
                                              "shape" : "shape-rectangle",
                                              "style" : "bold",
                                              "fill-color-blue" : 0.756862759590149,
                                              "fill-color-green" : 0.18823529779911,
                                              "fill-color-opacity" : 1.0,
                                              "fill-color-red" : 0.960784316062927,
                                              "hasDropShadow" : 0.0,
                                              "height" : 160.0,
                                              "savedXScale" : 1.0,
                                              "savedYScale" : 1.0,
                                              "stroke-color-blue" : 0.886274516582489,
                                              "stroke-color-green" : 0.200000002980232,
                                              "stroke-color-opacity" : 0.0,
                                              "stroke-color-red" : 0.376470595598221,
                                              "stroke-width" : 0.0,
                                              "width" : 1400.0,
                                              "custom" : "Y",
                                              "fill-style" : "solid",
                                              "stroke-style" : "solid"
                                            },
                                            "attributes" : {
                                              "ident" : "",
                                              "autoRotateText" : true
                                            },
                                            "parameters" : {
                                              "sourceCrop0" : 0.0,
                                              "sourceCrop1" : 0.0,
                                              "sourceCrop2" : 0.0,
                                              "sourceCrop3" : 0.0,
                                              "geometryCrop0" : 0.0,
                                              "geometryCrop1" : 0.0,
                                              "geometryCrop2" : 0.0,
                                              "geometryCrop3" : 0.0
                                            },
                                            "effects" : [

                                            ],
                                            "start" : 0,
                                            "duration" : 3528000000,
                                            "mediaStart" : 0,
                                            "mediaDuration" : 3528000000,
                                            "scalar" : 1,
                                            "metadata" : {
                                              "AppliedThemeId" : "",
                                              "clipSpeedAttribute" : false,
                                              "effectApplied" : "none"
                                            },
                                            "animationTracks" : {

                                            }
                                          }
                                        ],
                                          "ident" : "",
                                          "audioMuted" : false,
                                          "videoHidden" : false,
                                          "magnetic" : false,
                                          "matte" : 1,
                                          "solo" : false,
                                          "metadata" : {
                                            "IsLocked" : "False",
                                            "WinTrackHeight" : "56",
                                            "trackHeight" : "54"
                                          }
                                      }
                                    ],
                                    "attributes" : {
                                      "ident" : "Fill-1400x160",
                                      "widthAttr" : 1405.0,
                                      "heightAttr" : 167.002,
                                      "gain" : 1.0,
                                      "mixToMono" : false
                                    },
                                    "effects" : [

                                    ],
                                    "start" : 0,
                                    "duration" : 3528000000,
                                    "mediaStart" : 0.0,
                                    "mediaDuration" : 3528000000.0,
                                    "scalar" : 1,
                                    "metadata" : {
                                      "clipSpeedAttribute" : false,
                                      "effectApplied" : "none",
                                      "isOpen" : false,
                                      "lockAspectRatio" : true
                                    },
                                    "animationTracks" : {

                                    }
                                  }
                                ],
                                  "ident" : "",
                                  "audioMuted" : false,
                                  "videoHidden" : false,
                                  "magnetic" : false,
                                  "matte" : 0,
                                  "solo" : false,
                                  "metadata" : {
                                    "IsLocked" : "False",
                                    "WinTrackHeight" : "56",
                                    "trackHeight" : "54"
                                  }
                              },
                              {
                                "trackIndex" : 1,
                                "medias" : [
                                  {
                                    "id" : 319,
                                    "_type" : "Callout",
                                    "def" : {
                                      "kind" : "remix",
                                      "shape" : "text",
                                      "style" : "urban",
                                      "enable-ligatures" : 1.0,
                                      "hasDropShadow" : 0.0,
                                      "height" : 170.0,
                                      "line-spacing" : 0.0,
                                      "savedXScale" : 1.0,
                                      "savedYScale" : 1.0,
                                      "width" : 1400.0,
                                      "word-wrap" : 1.0,
                                      "custom" : "Y",
                                      "horizontal-alignment" : "left",
                                      "resize-behavior" : "resizeText",
                                      "text" : "clear comments from cells",
                                      "vertical-alignment" : "center",
                                      "font" : {
                                        "color-blue" : 1.0,
                                        "color-green" : 1.0,
                                        "color-red" : 1.0,
                                        "size" : 96.0,
                                        "tracking" : 0.0,
                                        "name" : "Dosis",
                                        "weight" : "Semi Bold"
                                      },
                                      "textAttributes" : {
                                        "type" : "textAttributeList",
                                        "keyframes" : [
                                          {
                                            "endTime" : 0,
                                            "time" : 0,
                                            "value" : [{"name":"underline","rangeEnd":25,"rangeStart":0,"value":0,"valueType":"int"},{"name":"strikethrough","rangeEnd":25,"rangeStart":0,"value":0,"valueType":"int"},{"name":"fontName","rangeEnd":25,"rangeStart":0,"value":"Roboto","valueType":"string"},{"name":"kerning","rangeEnd":25,"rangeStart":0,"value":0.049883078231292483,"valueType":"double"},{"name":"fontItalic","rangeEnd":25,"rangeStart":0,"value":0,"valueType":"int"},{"name":"fontWeight","rangeEnd":25,"rangeStart":0,"value":700,"valueType":"int"},{"name":"fontSize","rangeEnd":25,"rangeStart":0,"value":86,"valueType":"double"},{"name":"fgColor","rangeEnd":25,"rangeStart":0,"value":"(110,110,110,255)","valueType":"color"}],
                                            "duration" : 0
                                          }
                                        ]
                                      }
                                    },
                                    "attributes" : {
                                      "ident" : "",
                                      "autoRotateText" : true
                                    },
                                    "parameters" : {
                                      "translation1" : -2.0,
                                      "sourceCrop0" : 0.0,
                                      "sourceCrop1" : 0.0,
                                      "sourceCrop2" : 0.0,
                                      "sourceCrop3" : 0.0,
                                      "geometryCrop0" : 0.0,
                                      "geometryCrop1" : 0.0,
                                      "geometryCrop2" : 0.0,
                                      "geometryCrop3" : 0.0
                                    },
                                    "effects" : [

                                    ],
                                    "start" : 0,
                                    "duration" : 3528000000,
                                    "mediaStart" : 0,
                                    "mediaDuration" : 3528000000,
                                    "scalar" : 1,
                                    "metadata" : {
                                      "AppliedThemeId" : "",
                                      "clipSpeedAttribute" : false,
                                      "effectApplied" : "none",
                                      "lockAspectRatio" : false
                                    },
                                    "animationTracks" : {

                                    }
                                  }
                                ],
                                  "ident" : "",
                                  "audioMuted" : false,
                                  "videoHidden" : false,
                                  "magnetic" : false,
                                  "matte" : 0,
                                  "solo" : false,
                                  "metadata" : {
                                    "IsLocked" : "False",
                                    "WinTrackHeight" : "56",
                                    "trackHeight" : "54"
                                  }
                              }
                            ],
                            "attributes" : {
                              "ident" : "BP-Title-11",
                              "widthAttr" : 1405.0,
                              "heightAttr" : 167.002,
                              "gain" : 1.0,
                              "mixToMono" : false,
                              "assetProperties" : [
                                {
                                  "type" : 0,
                                  "name" : "Title",
                                  "objects" : [ 319 ],
                                  "themeMappings" :  {
                                    "font-color" : "foreground-1"
                                  }
                                },
                                {
                                  "type" : 1,
                                  "name" : "Fill",
                                  "objects" : [ 317 ],
                                  "themeMappings" :  {
                                    "fill" : "background-1"
                                  }
                                }
                              ]
                            },
                            "effects" : [

                            ],
                            "start" : 0,
                            "duration" : 3528000000,
                            "mediaStart" : 0.0,
                            "mediaDuration" : 3528000000.0,
                            "scalar" : 1,
                            "metadata" : {
                              "clipSpeedAttribute" : false,
                              "effectApplied" : "none",
                              "isOpen" : false,
                              "lockAspectRatio" : true
                            },
                            "animationTracks" : {
                              "visual" : [
                                {
                                  "endTime" : 552720000,
                                  "duration" : 552720000,
                                  "range" : [ 0, 552720000],
                                  "interp" : "eioe"
                                },
                                {
                                  "endTime" : 1775760000,
                                  "duration" : 399840000,
                                  "range" : [ 1375920000, 399840000],
                                  "interp" : "eioe"
                                }
                              ]
                            }
                          }
                        ],
                          "ident" : "",
                          "audioMuted" : false,
                          "videoHidden" : false,
                          "magnetic" : false,
                          "matte" : 0,
                          "solo" : false,
                          "metadata" : {
                            "IsLocked" : "False",
                            "WinTrackHeight" : "56",
                            "trackHeight" : "54"
                          }
                      },
                      {
                        "trackIndex" : 1,
                        "medias" : [
                          {
                            "id" : 320,
                            "_type" : "Group",
                            "parameters" : {
                              "translation0" : {
                                "type" : "double",
                                "defaultValue" : 0.0,
                                "keyframes" : [
                                  {
                                    "endTime" : 552720000,
                                    "time" : 0,
                                    "value" : 0.0,
                                    "interp" : "eioe",
                                    "duration" : 552720000
                                  },
                                  {
                                    "endTime" : 1775760000,
                                    "time" : 1375920000,
                                    "value" : 0.0,
                                    "interp" : "eioe",
                                    "duration" : 399840000
                                  }
                                ]
                              },
                              "translation1" : {
                                "type" : "double",
                                "defaultValue" : -144.610046386719,
                                "keyframes" : [
                                  {
                                    "endTime" : 552720000,
                                    "time" : 0,
                                    "value" : 0.0,
                                    "interp" : "eioe",
                                    "duration" : 552720000
                                  },
                                  {
                                    "endTime" : 1775760000,
                                    "time" : 1375920000,
                                    "value" : -144.610046386719,
                                    "interp" : "eioe",
                                    "duration" : 399840000
                                  }
                                ]
                              },
                              "sourceCrop0" : 0.0,
                              "sourceCrop1" : 0.0,
                              "sourceCrop2" : 0.0,
                              "sourceCrop3" : 0.0,
                              "geometryCrop0" : 0.0,
                              "geometryCrop1" : 0.0,
                              "geometryCrop2" : 0.0,
                              "geometryCrop3" : 0.0,
                              "opacity" : {
                                "type" : "double",
                                "defaultValue" : 1.0,
                                "keyframes" : [
                                  {
                                    "endTime" : 552720000,
                                    "time" : 0,
                                    "value" : 1.0,
                                    "interp" : "eioe",
                                    "duration" : 552720000
                                  }
                                ]
                              },
                              "volume" : 1.0
                            },
                            "tracks" : [
                              {
                                "trackIndex" : 0,
                                "medias" : [
                                  {
                                    "id" : 321,
                                    "_type" : "Callout",
                                    "def" : {
                                      "kind" : "remix",
                                      "shape" : "shape-rectangle",
                                      "style" : "bold",
                                      "fill-color-blue" : 0.913725490196078,
                                      "fill-color-green" : 0.949019607843137,
                                      "fill-color-opacity" : 1.0,
                                      "fill-color-red" : 0.933333333333333,
                                      "hasDropShadow" : 0.0,
                                      "height" : 163.002035140991,
                                      "savedXScale" : 1.0,
                                      "savedYScale" : 1.0,
                                      "stroke-color-blue" : 1.0,
                                      "stroke-color-green" : 1.0,
                                      "stroke-color-opacity" : 1.0,
                                      "stroke-color-red" : 1.0,
                                      "stroke-width" : 0.0,
                                      "width" : 1403.00212860107,
                                      "custom" : "Y",
                                      "fill-style" : "solid",
                                      "stroke-style" : "solid"
                                    },
                                    "attributes" : {
                                      "ident" : "",
                                      "autoRotateText" : true
                                    },
                                    "parameters" : {
                                      "anchor0" : -1.0,
                                      "anchor1" : 2.0,
                                      "sourceCrop0" : 0.0,
                                      "sourceCrop1" : 0.0,
                                      "sourceCrop2" : 0.0,
                                      "sourceCrop3" : 0.0,
                                      "geometryCrop0" : 0.0,
                                      "geometryCrop1" : 0.0,
                                      "geometryCrop2" : 0.0,
                                      "geometryCrop3" : 0.0
                                    },
                                    "effects" : [

                                    ],
                                    "start" : 0,
                                    "duration" : 3528000000,
                                    "mediaStart" : 0,
                                    "mediaDuration" : 3528000000,
                                    "scalar" : 1,
                                    "metadata" : {
                                      "AppliedThemeId" : "",
                                      "clipSpeedAttribute" : false,
                                      "effectApplied" : "none",
                                      "lockAspectRatio" : false
                                    },
                                    "animationTracks" : {

                                    }
                                  }
                                ],
                                  "ident" : "",
                                  "audioMuted" : false,
                                  "videoHidden" : false,
                                  "magnetic" : false,
                                  "matte" : 0,
                                  "solo" : false,
                                  "metadata" : {
                                    "IsLocked" : "False",
                                    "WinTrackHeight" : "56",
                                    "trackHeight" : "54"
                                  }
                              },
                              {
                                "trackIndex" : 1,
                                "medias" : [
                                  {
                                    "id" : 322,
                                    "_type" : "Callout",
                                    "def" : {
                                      "kind" : "remix",
                                      "shape" : "shape-rectangle",
                                      "style" : "bold",
                                      "fill-color-blue" : 0.756862759590149,
                                      "fill-color-green" : 0.18823529779911,
                                      "fill-color-opacity" : 1.0,
                                      "fill-color-red" : 0.960784316062927,
                                      "hasDropShadow" : 0.0,
                                      "height" : 160.0,
                                      "savedXScale" : 1.0,
                                      "savedYScale" : 1.0,
                                      "stroke-color-blue" : 0.886274516582489,
                                      "stroke-color-green" : 0.200000002980232,
                                      "stroke-color-opacity" : 0.0,
                                      "stroke-color-red" : 0.376470595598221,
                                      "stroke-width" : 0.0,
                                      "width" : 1400.0,
                                      "custom" : "Y",
                                      "fill-style" : "solid",
                                      "stroke-style" : "solid"
                                    },
                                    "attributes" : {
                                      "ident" : "",
                                      "autoRotateText" : true
                                    },
                                    "parameters" : {
                                      "sourceCrop0" : 0.0,
                                      "sourceCrop1" : 0.0,
                                      "sourceCrop2" : 0.0,
                                      "sourceCrop3" : 0.0,
                                      "geometryCrop0" : 0.0,
                                      "geometryCrop1" : 0.0,
                                      "geometryCrop2" : 0.0,
                                      "geometryCrop3" : 0.0
                                    },
                                    "effects" : [

                                    ],
                                    "start" : 0,
                                    "duration" : 3528000000,
                                    "mediaStart" : 0,
                                    "mediaDuration" : 3528000000,
                                    "scalar" : 1,
                                    "metadata" : {
                                      "AppliedThemeId" : "",
                                      "clipSpeedAttribute" : false,
                                      "effectApplied" : "none"
                                    },
                                    "animationTracks" : {

                                    }
                                  }
                                ],
                                  "ident" : "",
                                  "audioMuted" : false,
                                  "videoHidden" : false,
                                  "magnetic" : false,
                                  "matte" : 1,
                                  "solo" : false,
                                  "metadata" : {
                                    "IsLocked" : "False",
                                    "WinTrackHeight" : "56",
                                    "trackHeight" : "54"
                                  }
                              }
                            ],
                            "attributes" : {
                              "ident" : "Rect-1400x1600-Mask",
                              "widthAttr" : 1405.0,
                              "heightAttr" : 167.002,
                              "gain" : 1.0,
                              "mixToMono" : false
                            },
                            "effects" : [

                            ],
                            "start" : 0,
                            "duration" : 3528000000,
                            "mediaStart" : 0.0,
                            "mediaDuration" : 3528000000.0,
                            "scalar" : 1,
                            "metadata" : {
                              "clipSpeedAttribute" : false,
                              "effectApplied" : "none",
                              "isOpen" : false,
                              "lockAspectRatio" : true
                            },
                            "animationTracks" : {
                              "visual" : [
                                {
                                  "endTime" : 552720000,
                                  "duration" : 552720000,
                                  "range" : [ 0, 552720000],
                                  "interp" : "eioe"
                                },
                                {
                                  "endTime" : 1775760000,
                                  "duration" : 399840000,
                                  "range" : [ 1375920000, 399840000],
                                  "interp" : "eioe"
                                }
                              ]
                            }
                          }
                        ],
                          "ident" : "",
                          "audioMuted" : false,
                          "videoHidden" : false,
                          "magnetic" : false,
                          "matte" : 1,
                          "solo" : false,
                          "metadata" : {
                            "IsLocked" : "False",
                            "WinTrackHeight" : "56",
                            "trackHeight" : "54"
                          }
                      },
                      {
                        "trackIndex" : 2,
                        "medias" : [
                          {
                            "id" : 323,
                            "_type" : "Group",
                            "parameters" : {
                              "translation0" : {
                                "type" : "double",
                                "defaultValue" : 0.0,
                                "keyframes" : [
                                  {
                                    "endTime" : 552720000,
                                    "time" : 0,
                                    "value" : 0.0,
                                    "interp" : "eioe",
                                    "duration" : 552720000
                                  },
                                  {
                                    "endTime" : 1775760000,
                                    "time" : 1375920000,
                                    "value" : 0.0,
                                    "interp" : "eioe",
                                    "duration" : 399840000
                                  }
                                ]
                              },
                              "translation1" : {
                                "type" : "double",
                                "defaultValue" : -233.610046386719,
                                "keyframes" : [
                                  {
                                    "endTime" : 552720000,
                                    "time" : 0,
                                    "value" : 90.0,
                                    "interp" : "eioe",
                                    "duration" : 552720000
                                  },
                                  {
                                    "endTime" : 1775760000,
                                    "time" : 1375920000,
                                    "value" : -233.610046386719,
                                    "interp" : "eioe",
                                    "duration" : 399840000
                                  }
                                ]
                              },
                              "sourceCrop0" : 0.0,
                              "sourceCrop1" : 0.0,
                              "sourceCrop2" : 0.0,
                              "sourceCrop3" : 0.0,
                              "geometryCrop0" : 0.0,
                              "geometryCrop1" : 0.0,
                              "geometryCrop2" : 0.0,
                              "geometryCrop3" : 0.0,
                              "opacity" : {
                                "type" : "double",
                                "defaultValue" : 1.0,
                                "keyframes" : [
                                  {
                                    "endTime" : 552720000,
                                    "time" : 0,
                                    "value" : 1.0,
                                    "interp" : "eioe",
                                    "duration" : 552720000
                                  }
                                ]
                              },
                              "volume" : 1.0
                            },
                            "tracks" : [
                              {
                                "trackIndex" : 0,
                                "medias" : [
                                  {
                                    "id" : 324,
                                    "_type" : "Callout",
                                    "def" : {
                                      "kind" : "remix",
                                      "shape" : "shape-rectangle",
                                      "style" : "bold",
                                      "fill-color-blue" : 0.2196078431,
                                      "fill-color-green" : 0.8745098039,
                                      "fill-color-opacity" : 1.0,
                                      "fill-color-red" : 1.0,
                                      "hasDropShadow" : 0.0,
                                      "height" : 163.002035140991,
                                      "savedXScale" : 1.0,
                                      "savedYScale" : 1.0,
                                      "stroke-color-blue" : 1.0,
                                      "stroke-color-green" : 1.0,
                                      "stroke-color-opacity" : 1.0,
                                      "stroke-color-red" : 1.0,
                                      "stroke-width" : 0.0,
                                      "width" : 1403.00212860107,
                                      "custom" : "Y",
                                      "fill-style" : "solid",
                                      "stroke-style" : "solid"
                                    },
                                    "attributes" : {
                                      "ident" : "",
                                      "autoRotateText" : true
                                    },
                                    "parameters" : {
                                      "anchor0" : -1.0,
                                      "anchor1" : 2.0,
                                      "sourceCrop0" : 0.0,
                                      "sourceCrop1" : 0.0,
                                      "sourceCrop2" : 0.0,
                                      "sourceCrop3" : 0.0,
                                      "geometryCrop0" : 0.0,
                                      "geometryCrop1" : 0.0,
                                      "geometryCrop2" : 0.0,
                                      "geometryCrop3" : 0.0
                                    },
                                    "effects" : [

                                    ],
                                    "start" : 0,
                                    "duration" : 3528000000,
                                    "mediaStart" : 0,
                                    "mediaDuration" : 3528000000,
                                    "scalar" : 1,
                                    "metadata" : {
                                      "AppliedThemeId" : "",
                                      "clipSpeedAttribute" : false,
                                      "effectApplied" : "none",
                                      "lockAspectRatio" : false
                                    },
                                    "animationTracks" : {

                                    }
                                  }
                                ],
                                  "ident" : "",
                                  "audioMuted" : false,
                                  "videoHidden" : false,
                                  "magnetic" : false,
                                  "matte" : 0,
                                  "solo" : false,
                                  "metadata" : {
                                    "IsLocked" : "False",
                                    "WinTrackHeight" : "56",
                                    "trackHeight" : "54"
                                  }
                              },
                              {
                                "trackIndex" : 1,
                                "medias" : [
                                  {
                                    "id" : 325,
                                    "_type" : "Callout",
                                    "def" : {
                                      "kind" : "remix",
                                      "shape" : "shape-rectangle",
                                      "style" : "bold",
                                      "fill-color-blue" : 0.756862759590149,
                                      "fill-color-green" : 0.18823529779911,
                                      "fill-color-opacity" : 1.0,
                                      "fill-color-red" : 0.960784316062927,
                                      "hasDropShadow" : 0.0,
                                      "height" : 160.0,
                                      "savedXScale" : 1.0,
                                      "savedYScale" : 1.0,
                                      "stroke-color-blue" : 0.886274516582489,
                                      "stroke-color-green" : 0.200000002980232,
                                      "stroke-color-opacity" : 0.0,
                                      "stroke-color-red" : 0.376470595598221,
                                      "stroke-width" : 0.0,
                                      "width" : 1400.0,
                                      "custom" : "Y",
                                      "fill-style" : "solid",
                                      "stroke-style" : "solid"
                                    },
                                    "attributes" : {
                                      "ident" : "",
                                      "autoRotateText" : true
                                    },
                                    "parameters" : {
                                      "translation1" : {
                                        "type" : "double",
                                        "defaultValue" : -1.0,
                                        "keyframes" : [
                                          {
                                            "endTime" : 270480000,
                                            "time" : 0,
                                            "value" : 0.0,
                                            "duration" : 270480000
                                          }
                                        ]
                                      },
                                      "scale0" : {
                                        "type" : "double",
                                        "defaultValue" : 1.0,
                                        "keyframes" : [
                                          {
                                            "endTime" : 270480000,
                                            "time" : 0,
                                            "value" : 1.0,
                                            "duration" : 270480000
                                          }
                                        ]
                                      },
                                      "scale1" : {
                                        "type" : "double",
                                        "defaultValue" : 0.125,
                                        "keyframes" : [
                                          {
                                            "endTime" : 270480000,
                                            "time" : 0,
                                            "value" : 0.5,
                                            "duration" : 270480000
                                          },
                                          {
                                            "endTime" : 552720000,
                                            "time" : 282240000,
                                            "value" : 0.125,
                                            "duration" : 270480000
                                          }
                                        ]
                                      },
                                      "sourceCrop0" : 0.0,
                                      "sourceCrop1" : 0.0,
                                      "sourceCrop2" : 0.0,
                                      "sourceCrop3" : 0.0,
                                      "geometryCrop0" : 0.0,
                                      "geometryCrop1" : 0.0,
                                      "geometryCrop2" : 0.0,
                                      "geometryCrop3" : 0.0
                                    },
                                    "effects" : [

                                    ],
                                    "start" : 0,
                                    "duration" : 3528000000,
                                    "mediaStart" : 0,
                                    "mediaDuration" : 3528000000,
                                    "scalar" : 1,
                                    "metadata" : {
                                      "AppliedThemeId" : "",
                                      "clipSpeedAttribute" : false,
                                      "effectApplied" : "none"
                                    },
                                    "animationTracks" : {
                                      "visual" : [
                                        {
                                          "endTime" : 270480000,
                                          "duration" : 270480000,
                                          "range" : [ 0, 270480000]
                                        },
                                        {
                                          "endTime" : 552720000,
                                          "duration" : 270480000,
                                          "range" : [ 282240000, 270480000]
                                        }
                                      ]
                                    }
                                  }
                                ],
                                  "ident" : "",
                                  "audioMuted" : false,
                                  "videoHidden" : false,
                                  "magnetic" : false,
                                  "matte" : 1,
                                  "solo" : false,
                                  "metadata" : {
                                    "IsLocked" : "False",
                                    "WinTrackHeight" : "56",
                                    "trackHeight" : "54"
                                  }
                              }
                            ],
                            "attributes" : {
                              "ident" : "Animated-Pulse-1400x20-To-1400x80",
                              "widthAttr" : 1405.0,
                              "heightAttr" : 167.002,
                              "gain" : 1.0,
                              "mixToMono" : false,
                              "assetProperties" : [
                                {
                                  "type" : 1,
                                  "name" : "Color",
                                  "objects" : [ 324 ],
                                  "themeMappings" :  {
                                    "fill" : "accent-1"
                                  }
                                }
                              ]
                            },
                            "effects" : [

                            ],
                            "start" : 0,
                            "duration" : 3528000000,
                            "mediaStart" : 0.0,
                            "mediaDuration" : 3528000000.0,
                            "scalar" : 1,
                            "metadata" : {
                              "AppliedThemeId" : "8e797988-b823-4beb-b251-1d31b461ba07",
                              "clipSpeedAttribute" : false,
                              "effectApplied" : "none",
                              "isOpen" : false,
                              "lockAspectRatio" : true
                            },
                            "animationTracks" : {
                              "visual" : [
                                {
                                  "endTime" : 552720000,
                                  "duration" : 552720000,
                                  "range" : [ 0, 552720000],
                                  "interp" : "eioe"
                                },
                                {
                                  "endTime" : 1775760000,
                                  "duration" : 399840000,
                                  "range" : [ 1375920000, 399840000],
                                  "interp" : "eioe"
                                }
                              ]
                            }
                          }
                        ],
                          "ident" : "",
                          "audioMuted" : false,
                          "videoHidden" : false,
                          "magnetic" : false,
                          "matte" : 0,
                          "solo" : false,
                          "metadata" : {
                            "IsLocked" : "False",
                            "WinTrackHeight" : "56",
                            "trackHeight" : "54"
                          }
                      },
                      {
                        "trackIndex" : 3,
                        "medias" : [
                          {
                            "id" : 326,
                            "_type" : "Group",
                            "parameters" : {
                              "translation0" : {
                                "type" : "double",
                                "defaultValue" : 0.0,
                                "keyframes" : [
                                  {
                                    "endTime" : 552720000,
                                    "time" : 0,
                                    "value" : 0.0,
                                    "interp" : "eioe",
                                    "duration" : 552720000
                                  },
                                  {
                                    "endTime" : 1775760000,
                                    "time" : 1375920000,
                                    "value" : 0.0,
                                    "interp" : "eioe",
                                    "duration" : 399840000
                                  }
                                ]
                              },
                              "translation1" : {
                                "type" : "double",
                                "defaultValue" : -143.610046386719,
                                "keyframes" : [
                                  {
                                    "endTime" : 552720000,
                                    "time" : 0,
                                    "value" : 0.0,
                                    "interp" : "eioe",
                                    "duration" : 552720000
                                  },
                                  {
                                    "endTime" : 1775760000,
                                    "time" : 1375920000,
                                    "value" : -143.610046386719,
                                    "interp" : "eioe",
                                    "duration" : 399840000
                                  }
                                ]
                              },
                              "sourceCrop0" : 0.0,
                              "sourceCrop1" : 0.0,
                              "sourceCrop2" : 0.0,
                              "sourceCrop3" : 0.0,
                              "geometryCrop0" : 0.0,
                              "geometryCrop1" : 0.0,
                              "geometryCrop2" : 0.0,
                              "geometryCrop3" : 0.0,
                              "opacity" : {
                                "type" : "double",
                                "defaultValue" : 1.0,
                                "keyframes" : [
                                  {
                                    "endTime" : 552720000,
                                    "time" : 0,
                                    "value" : 1.0,
                                    "interp" : "eioe",
                                    "duration" : 552720000
                                  }
                                ]
                              },
                              "volume" : 1.0
                            },
                            "tracks" : [
                              {
                                "trackIndex" : 0,
                                "medias" : [
                                  {
                                    "id" : 327,
                                    "_type" : "Callout",
                                    "def" : {
                                      "kind" : "remix",
                                      "shape" : "shape-rectangle",
                                      "style" : "bold",
                                      "fill-color-blue" : 0.913725490196078,
                                      "fill-color-green" : 0.949019607843137,
                                      "fill-color-opacity" : 1.0,
                                      "fill-color-red" : 0.933333333333333,
                                      "hasDropShadow" : 0.0,
                                      "height" : 163.002035140991,
                                      "savedXScale" : 1.0,
                                      "savedYScale" : 1.0,
                                      "stroke-color-blue" : 1.0,
                                      "stroke-color-green" : 1.0,
                                      "stroke-color-opacity" : 1.0,
                                      "stroke-color-red" : 1.0,
                                      "stroke-width" : 0.0,
                                      "width" : 1403.00212860107,
                                      "custom" : "Y",
                                      "fill-style" : "solid",
                                      "stroke-style" : "solid"
                                    },
                                    "attributes" : {
                                      "ident" : "",
                                      "autoRotateText" : true
                                    },
                                    "parameters" : {
                                      "anchor0" : -1.0,
                                      "anchor1" : 2.0,
                                      "sourceCrop0" : 0.0,
                                      "sourceCrop1" : 0.0,
                                      "sourceCrop2" : 0.0,
                                      "sourceCrop3" : 0.0,
                                      "geometryCrop0" : 0.0,
                                      "geometryCrop1" : 0.0,
                                      "geometryCrop2" : 0.0,
                                      "geometryCrop3" : 0.0
                                    },
                                    "effects" : [

                                    ],
                                    "start" : 0,
                                    "duration" : 3528000000,
                                    "mediaStart" : 0,
                                    "mediaDuration" : 3528000000,
                                    "scalar" : 1,
                                    "metadata" : {
                                      "AppliedThemeId" : "",
                                      "clipSpeedAttribute" : false,
                                      "effectApplied" : "none",
                                      "lockAspectRatio" : false
                                    },
                                    "animationTracks" : {

                                    }
                                  }
                                ],
                                  "ident" : "",
                                  "audioMuted" : false,
                                  "videoHidden" : false,
                                  "magnetic" : false,
                                  "matte" : 0,
                                  "solo" : false,
                                  "metadata" : {
                                    "IsLocked" : "False",
                                    "WinTrackHeight" : "56",
                                    "trackHeight" : "54"
                                  }
                              },
                              {
                                "trackIndex" : 1,
                                "medias" : [
                                  {
                                    "id" : 328,
                                    "_type" : "Callout",
                                    "def" : {
                                      "kind" : "remix",
                                      "shape" : "shape-rectangle",
                                      "style" : "bold",
                                      "fill-color-blue" : 0.756862759590149,
                                      "fill-color-green" : 0.18823529779911,
                                      "fill-color-opacity" : 1.0,
                                      "fill-color-red" : 0.960784316062927,
                                      "hasDropShadow" : 0.0,
                                      "height" : 160.0,
                                      "savedXScale" : 1.0,
                                      "savedYScale" : 1.0,
                                      "stroke-color-blue" : 0.886274516582489,
                                      "stroke-color-green" : 0.200000002980232,
                                      "stroke-color-opacity" : 0.0,
                                      "stroke-color-red" : 0.376470595598221,
                                      "stroke-width" : 0.0,
                                      "width" : 1400.0,
                                      "custom" : "Y",
                                      "fill-style" : "solid",
                                      "stroke-style" : "solid"
                                    },
                                    "attributes" : {
                                      "ident" : "",
                                      "autoRotateText" : true
                                    },
                                    "parameters" : {
                                      "sourceCrop0" : 0.0,
                                      "sourceCrop1" : 0.0,
                                      "sourceCrop2" : 0.0,
                                      "sourceCrop3" : 0.0,
                                      "geometryCrop0" : 0.0,
                                      "geometryCrop1" : 0.0,
                                      "geometryCrop2" : 0.0,
                                      "geometryCrop3" : 0.0
                                    },
                                    "effects" : [

                                    ],
                                    "start" : 0,
                                    "duration" : 3528000000,
                                    "mediaStart" : 0,
                                    "mediaDuration" : 3528000000,
                                    "scalar" : 1,
                                    "metadata" : {
                                      "AppliedThemeId" : "",
                                      "clipSpeedAttribute" : false,
                                      "effectApplied" : "none"
                                    },
                                    "animationTracks" : {

                                    }
                                  }
                                ],
                                  "ident" : "",
                                  "audioMuted" : false,
                                  "videoHidden" : false,
                                  "magnetic" : false,
                                  "matte" : 1,
                                  "solo" : false,
                                  "metadata" : {
                                    "IsLocked" : "False",
                                    "WinTrackHeight" : "56",
                                    "trackHeight" : "54"
                                  }
                              }
                            ],
                            "attributes" : {
                              "ident" : "Rect-1400x1600-Mask",
                              "widthAttr" : 1405.0,
                              "heightAttr" : 167.002,
                              "gain" : 1.0,
                              "mixToMono" : false
                            },
                            "effects" : [

                            ],
                            "start" : 0,
                            "duration" : 3528000000,
                            "mediaStart" : 0.0,
                            "mediaDuration" : 3528000000.0,
                            "scalar" : 1,
                            "metadata" : {
                              "clipSpeedAttribute" : false,
                              "effectApplied" : "none",
                              "isOpen" : false,
                              "lockAspectRatio" : true
                            },
                            "animationTracks" : {
                              "visual" : [
                                {
                                  "endTime" : 552720000,
                                  "duration" : 552720000,
                                  "range" : [ 0, 552720000],
                                  "interp" : "eioe"
                                },
                                {
                                  "endTime" : 1775760000,
                                  "duration" : 399840000,
                                  "range" : [ 1375920000, 399840000],
                                  "interp" : "eioe"
                                }
                              ]
                            }
                          }
                        ],
                          "ident" : "",
                          "audioMuted" : false,
                          "videoHidden" : false,
                          "magnetic" : false,
                          "matte" : 1,
                          "solo" : false,
                          "metadata" : {
                            "IsLocked" : "False",
                            "WinTrackHeight" : "56",
                            "trackHeight" : "54"
                          }
                      }
                    ],
                    "attributes" : {
                      "ident" : "Broadcast-Title-012",
                      "widthAttr" : 1405.0,
                      "heightAttr" : 160.0,
                      "gain" : 1.0,
                      "mixToMono" : false,
                      "assetProperties" : [
                        {
                          "type" : 0,
                          "name" : "Title",
                          "objects" : [ 319 ],
                          "themeMappings" :  {
                            "font-color" : "foreground-1"
                          }
                        },
                        {
                          "type" : 1,
                          "name" : "Fill",
                          "objects" : [ 317 ],
                          "themeMappings" :  {
                            "fill" : "background-1"
                          }
                        },
                        {
                          "type" : 1,
                          "name" : "Wiper",
                          "objects" : [ 324 ],
                          "themeMappings" :  {
                            "fill" : "foreground-1"
                          }
                        }
                      ]
                    },
                    "effects" : [

                    ],
                    "start" : 1928640000,
                    "duration" : 1764000000,
                    "mediaStart" : 0.0,
                    "mediaDuration" : 1764000000.0,
                    "scalar" : 1,
                    "metadata" : {
                      "AppliedThemeId" : "170ba59c-db5d-4b9a-a310-e7e99853a4b7",
                      "clipSpeedAttribute" : false,
                      "default-anchor0" : 0.0,
                      "default-anchor1" : 0.0,
                      "default-anchor2" : 0.0,
                      "default-geometryCrop0" : 0.0,
                      "default-geometryCrop2" : 0.0,
                      "default-height" : 160.0,
                      "default-rotation0" : 0.0,
                      "default-rotation1" : 0.0,
                      "default-rotation2" : 0.0,
                      "default-scale0" : 1.0,
                      "default-scale1" : 1.0,
                      "default-scale2" : 1.0,
                      "default-shear0" : 0.0,
                      "default-shear1" : 0.0,
                      "default-shear2" : 0.0,
                      "default-translation0" : 0.0,
                      "default-translation1" : 0.0,
                      "default-translation2" : 0.0,
                      "default-width" : 1405.0,
                      "effectApplied" : "none",
                      "isOpen" : false,
                      "lockAspectRatio" : true
                    },
                    "animationTracks" : {

                    }
                  }
                ]
              },
              {
                "trackIndex" : 108,
                "medias" : [
                  {
                    "id" : 329,
                    "_type" : "Group",
                    "parameters" : {
                      "translation0" : -415.0,
                      "translation1" : -149.34375,
                      "scale0" : 0.214669051878354,
                      "scale1" : 0.21875,
                      "sourceCrop0" : 0.0,
                      "sourceCrop1" : 0.0,
                      "sourceCrop2" : 0.0,
                      "sourceCrop3" : 0.0,
                      "geometryCrop0" : 0.0,
                      "geometryCrop1" : 0.0,
                      "geometryCrop2" : 7.4999999999992,
                      "geometryCrop3" : 0.0,
                      "volume" : 1.0
                    },
                    "tracks" : [
                      {
                        "trackIndex" : 0,
                        "medias" : [
                          {
                            "id" : 330,
                            "_type" : "Group",
                            "parameters" : {
                              "translation0" : {
                                "type" : "double",
                                "defaultValue" : 0.0,
                                "keyframes" : [
                                  {
                                    "endTime" : 552720000,
                                    "time" : 0,
                                    "value" : 0.0,
                                    "interp" : "eioe",
                                    "duration" : 552720000
                                  },
                                  {
                                    "endTime" : 1775760000,
                                    "time" : 1375920000,
                                    "value" : 0.0,
                                    "interp" : "eioe",
                                    "duration" : 399840000
                                  }
                                ]
                              },
                              "translation1" : {
                                "type" : "double",
                                "defaultValue" : -305.610046386719,
                                "keyframes" : [
                                  {
                                    "endTime" : 552720000,
                                    "time" : 0,
                                    "value" : 0.0,
                                    "interp" : "eioe",
                                    "duration" : 552720000
                                  },
                                  {
                                    "endTime" : 1775760000,
                                    "time" : 1375920000,
                                    "value" : -304.610046386719,
                                    "interp" : "eioe",
                                    "duration" : 399840000
                                  }
                                ]
                              },
                              "sourceCrop0" : 0.0,
                              "sourceCrop1" : 0.0,
                              "sourceCrop2" : 0.0,
                              "sourceCrop3" : 0.0,
                              "geometryCrop0" : 0.0,
                              "geometryCrop1" : 0.0,
                              "geometryCrop2" : 0.0,
                              "geometryCrop3" : 0.0,
                              "volume" : 1.0
                            },
                            "tracks" : [
                              {
                                "trackIndex" : 0,
                                "medias" : [
                                  {
                                    "id" : 331,
                                    "_type" : "Group",
                                    "parameters" : {
                                      "sourceCrop0" : 0.0,
                                      "sourceCrop1" : 0.0,
                                      "sourceCrop2" : 0.0,
                                      "sourceCrop3" : 0.0,
                                      "geometryCrop0" : 0.0,
                                      "geometryCrop1" : 0.0,
                                      "geometryCrop2" : 0.0,
                                      "geometryCrop3" : 0.0,
                                      "volume" : 1.0
                                    },
                                    "tracks" : [
                                      {
                                        "trackIndex" : 0,
                                        "medias" : [
                                          {
                                            "id" : 332,
                                            "_type" : "Callout",
                                            "def" : {
                                              "kind" : "remix",
                                              "shape" : "shape-rectangle",
                                              "style" : "bold",
                                              "fill-color-blue" : 1.0,
                                              "fill-color-green" : 1.0,
                                              "fill-color-opacity" : 1.0,
                                              "fill-color-red" : 1.0,
                                              "hasDropShadow" : 0.0,
                                              "height" : 163.002035140991,
                                              "savedXScale" : 1.0,
                                              "savedYScale" : 1.0,
                                              "stroke-color-blue" : 1.0,
                                              "stroke-color-green" : 1.0,
                                              "stroke-color-opacity" : 1.0,
                                              "stroke-color-red" : 1.0,
                                              "stroke-width" : 0.0,
                                              "width" : 1403.00212860107,
                                              "custom" : "Y",
                                              "fill-style" : "solid",
                                              "stroke-style" : "solid"
                                            },
                                            "attributes" : {
                                              "ident" : "",
                                              "autoRotateText" : true
                                            },
                                            "parameters" : {
                                              "anchor0" : -1.0,
                                              "anchor1" : 2.0,
                                              "sourceCrop0" : 0.0,
                                              "sourceCrop1" : 0.0,
                                              "sourceCrop2" : 0.0,
                                              "sourceCrop3" : 0.0,
                                              "geometryCrop0" : 0.0,
                                              "geometryCrop1" : 0.0,
                                              "geometryCrop2" : 0.0,
                                              "geometryCrop3" : 0.0
                                            },
                                            "effects" : [

                                            ],
                                            "start" : 0,
                                            "duration" : 3528000000,
                                            "mediaStart" : 0,
                                            "mediaDuration" : 3528000000,
                                            "scalar" : 1,
                                            "metadata" : {
                                              "AppliedThemeId" : "",
                                              "clipSpeedAttribute" : false,
                                              "effectApplied" : "none",
                                              "lockAspectRatio" : false
                                            },
                                            "animationTracks" : {

                                            }
                                          }
                                        ],
                                          "ident" : "",
                                          "audioMuted" : false,
                                          "videoHidden" : false,
                                          "magnetic" : false,
                                          "matte" : 0,
                                          "solo" : false,
                                          "metadata" : {
                                            "IsLocked" : "False",
                                            "WinTrackHeight" : "56",
                                            "trackHeight" : "54"
                                          }
                                      },
                                      {
                                        "trackIndex" : 1,
                                        "medias" : [
                                          {
                                            "id" : 333,
                                            "_type" : "Callout",
                                            "def" : {
                                              "kind" : "remix",
                                              "shape" : "shape-rectangle",
                                              "style" : "bold",
                                              "fill-color-blue" : 0.756862759590149,
                                              "fill-color-green" : 0.18823529779911,
                                              "fill-color-opacity" : 1.0,
                                              "fill-color-red" : 0.960784316062927,
                                              "hasDropShadow" : 0.0,
                                              "height" : 160.0,
                                              "savedXScale" : 1.0,
                                              "savedYScale" : 1.0,
                                              "stroke-color-blue" : 0.886274516582489,
                                              "stroke-color-green" : 0.200000002980232,
                                              "stroke-color-opacity" : 0.0,
                                              "stroke-color-red" : 0.376470595598221,
                                              "stroke-width" : 0.0,
                                              "width" : 1400.0,
                                              "custom" : "Y",
                                              "fill-style" : "solid",
                                              "stroke-style" : "solid"
                                            },
                                            "attributes" : {
                                              "ident" : "",
                                              "autoRotateText" : true
                                            },
                                            "parameters" : {
                                              "sourceCrop0" : 0.0,
                                              "sourceCrop1" : 0.0,
                                              "sourceCrop2" : 0.0,
                                              "sourceCrop3" : 0.0,
                                              "geometryCrop0" : 0.0,
                                              "geometryCrop1" : 0.0,
                                              "geometryCrop2" : 0.0,
                                              "geometryCrop3" : 0.0
                                            },
                                            "effects" : [

                                            ],
                                            "start" : 0,
                                            "duration" : 3528000000,
                                            "mediaStart" : 0,
                                            "mediaDuration" : 3528000000,
                                            "scalar" : 1,
                                            "metadata" : {
                                              "AppliedThemeId" : "",
                                              "clipSpeedAttribute" : false,
                                              "effectApplied" : "none"
                                            },
                                            "animationTracks" : {

                                            }
                                          }
                                        ],
                                          "ident" : "",
                                          "audioMuted" : false,
                                          "videoHidden" : false,
                                          "magnetic" : false,
                                          "matte" : 1,
                                          "solo" : false,
                                          "metadata" : {
                                            "IsLocked" : "False",
                                            "WinTrackHeight" : "56",
                                            "trackHeight" : "54"
                                          }
                                      }
                                    ],
                                    "attributes" : {
                                      "ident" : "Fill-1400x160",
                                      "widthAttr" : 1405.0,
                                      "heightAttr" : 167.002,
                                      "gain" : 1.0,
                                      "mixToMono" : false
                                    },
                                    "effects" : [

                                    ],
                                    "start" : 0,
                                    "duration" : 3528000000,
                                    "mediaStart" : 0.0,
                                    "mediaDuration" : 3528000000.0,
                                    "scalar" : 1,
                                    "metadata" : {
                                      "clipSpeedAttribute" : false,
                                      "effectApplied" : "none",
                                      "isOpen" : false,
                                      "lockAspectRatio" : true
                                    },
                                    "animationTracks" : {

                                    }
                                  }
                                ],
                                  "ident" : "",
                                  "audioMuted" : false,
                                  "videoHidden" : false,
                                  "magnetic" : false,
                                  "matte" : 0,
                                  "solo" : false,
                                  "metadata" : {
                                    "IsLocked" : "False",
                                    "WinTrackHeight" : "56",
                                    "trackHeight" : "54"
                                  }
                              },
                              {
                                "trackIndex" : 1,
                                "medias" : [
                                  {
                                    "id" : 334,
                                    "_type" : "Callout",
                                    "def" : {
                                      "kind" : "remix",
                                      "shape" : "text",
                                      "style" : "urban",
                                      "enable-ligatures" : 1.0,
                                      "hasDropShadow" : 0.0,
                                      "height" : 170.0,
                                      "line-spacing" : 0.0,
                                      "savedXScale" : 1.0,
                                      "savedYScale" : 1.0,
                                      "width" : 1400.0,
                                      "word-wrap" : 1.0,
                                      "custom" : "Y",
                                      "horizontal-alignment" : "left",
                                      "resize-behavior" : "resizeText",
                                      "text" : "group selected columns",
                                      "vertical-alignment" : "center",
                                      "font" : {
                                        "color-blue" : 1.0,
                                        "color-green" : 1.0,
                                        "color-red" : 1.0,
                                        "size" : 96.0,
                                        "tracking" : 0.0,
                                        "name" : "Dosis",
                                        "weight" : "Semi Bold"
                                      },
                                      "textAttributes" : {
                                        "type" : "textAttributeList",
                                        "keyframes" : [
                                          {
                                            "endTime" : 0,
                                            "time" : 0,
                                            "value" : [{"name":"underline","rangeEnd":22,"rangeStart":0,"value":0,"valueType":"int"},{"name":"strikethrough","rangeEnd":22,"rangeStart":0,"value":0,"valueType":"int"},{"name":"fontName","rangeEnd":22,"rangeStart":0,"value":"Roboto","valueType":"string"},{"name":"kerning","rangeEnd":22,"rangeStart":0,"value":0.049883078231292483,"valueType":"double"},{"name":"fontSize","rangeEnd":22,"rangeStart":0,"value":86,"valueType":"double"},{"name":"fgColor","rangeEnd":22,"rangeStart":0,"value":"(110,110,110,255)","valueType":"color"},{"name":"fontWeight","rangeEnd":22,"rangeStart":0,"value":700,"valueType":"int"},{"name":"fontItalic","rangeEnd":22,"rangeStart":0,"value":0,"valueType":"int"}],
                                            "duration" : 0
                                          }
                                        ]
                                      }
                                    },
                                    "attributes" : {
                                      "ident" : "",
                                      "autoRotateText" : true
                                    },
                                    "parameters" : {
                                      "translation1" : -2.0,
                                      "sourceCrop0" : 0.0,
                                      "sourceCrop1" : 0.0,
                                      "sourceCrop2" : 0.0,
                                      "sourceCrop3" : 0.0,
                                      "geometryCrop0" : 0.0,
                                      "geometryCrop1" : 0.0,
                                      "geometryCrop2" : 0.0,
                                      "geometryCrop3" : 0.0
                                    },
                                    "effects" : [

                                    ],
                                    "start" : 0,
                                    "duration" : 3528000000,
                                    "mediaStart" : 0,
                                    "mediaDuration" : 3528000000,
                                    "scalar" : 1,
                                    "metadata" : {
                                      "AppliedThemeId" : "",
                                      "clipSpeedAttribute" : false,
                                      "effectApplied" : "none",
                                      "lockAspectRatio" : false
                                    },
                                    "animationTracks" : {

                                    }
                                  }
                                ],
                                  "ident" : "",
                                  "audioMuted" : false,
                                  "videoHidden" : false,
                                  "magnetic" : false,
                                  "matte" : 0,
                                  "solo" : false,
                                  "metadata" : {
                                    "IsLocked" : "False",
                                    "WinTrackHeight" : "56",
                                    "trackHeight" : "54"
                                  }
                              }
                            ],
                            "attributes" : {
                              "ident" : "BP-Title-11",
                              "widthAttr" : 1405.0,
                              "heightAttr" : 167.002,
                              "gain" : 1.0,
                              "mixToMono" : false,
                              "assetProperties" : [
                                {
                                  "type" : 0,
                                  "name" : "Title",
                                  "objects" : [ 334 ],
                                  "themeMappings" :  {
                                    "font-color" : "foreground-1"
                                  }
                                },
                                {
                                  "type" : 1,
                                  "name" : "Fill",
                                  "objects" : [ 332 ],
                                  "themeMappings" :  {
                                    "fill" : "background-1"
                                  }
                                }
                              ]
                            },
                            "effects" : [

                            ],
                            "start" : 0,
                            "duration" : 3528000000,
                            "mediaStart" : 0.0,
                            "mediaDuration" : 3528000000.0,
                            "scalar" : 1,
                            "metadata" : {
                              "clipSpeedAttribute" : false,
                              "effectApplied" : "none",
                              "isOpen" : false,
                              "lockAspectRatio" : true
                            },
                            "animationTracks" : {
                              "visual" : [
                                {
                                  "endTime" : 552720000,
                                  "duration" : 552720000,
                                  "range" : [ 0, 552720000],
                                  "interp" : "eioe"
                                },
                                {
                                  "endTime" : 1775760000,
                                  "duration" : 399840000,
                                  "range" : [ 1375920000, 399840000],
                                  "interp" : "eioe"
                                }
                              ]
                            }
                          }
                        ],
                          "ident" : "",
                          "audioMuted" : false,
                          "videoHidden" : false,
                          "magnetic" : false,
                          "matte" : 0,
                          "solo" : false,
                          "metadata" : {
                            "IsLocked" : "False",
                            "WinTrackHeight" : "56",
                            "trackHeight" : "54"
                          }
                      },
                      {
                        "trackIndex" : 1,
                        "medias" : [
                          {
                            "id" : 335,
                            "_type" : "Group",
                            "parameters" : {
                              "translation0" : {
                                "type" : "double",
                                "defaultValue" : 0.0,
                                "keyframes" : [
                                  {
                                    "endTime" : 552720000,
                                    "time" : 0,
                                    "value" : 0.0,
                                    "interp" : "eioe",
                                    "duration" : 552720000
                                  },
                                  {
                                    "endTime" : 1775760000,
                                    "time" : 1375920000,
                                    "value" : 0.0,
                                    "interp" : "eioe",
                                    "duration" : 399840000
                                  }
                                ]
                              },
                              "translation1" : {
                                "type" : "double",
                                "defaultValue" : -144.610046386719,
                                "keyframes" : [
                                  {
                                    "endTime" : 552720000,
                                    "time" : 0,
                                    "value" : 0.0,
                                    "interp" : "eioe",
                                    "duration" : 552720000
                                  },
                                  {
                                    "endTime" : 1775760000,
                                    "time" : 1375920000,
                                    "value" : -144.610046386719,
                                    "interp" : "eioe",
                                    "duration" : 399840000
                                  }
                                ]
                              },
                              "sourceCrop0" : 0.0,
                              "sourceCrop1" : 0.0,
                              "sourceCrop2" : 0.0,
                              "sourceCrop3" : 0.0,
                              "geometryCrop0" : 0.0,
                              "geometryCrop1" : 0.0,
                              "geometryCrop2" : 0.0,
                              "geometryCrop3" : 0.0,
                              "opacity" : {
                                "type" : "double",
                                "defaultValue" : 1.0,
                                "keyframes" : [
                                  {
                                    "endTime" : 552720000,
                                    "time" : 0,
                                    "value" : 1.0,
                                    "interp" : "eioe",
                                    "duration" : 552720000
                                  }
                                ]
                              },
                              "volume" : 1.0
                            },
                            "tracks" : [
                              {
                                "trackIndex" : 0,
                                "medias" : [
                                  {
                                    "id" : 336,
                                    "_type" : "Callout",
                                    "def" : {
                                      "kind" : "remix",
                                      "shape" : "shape-rectangle",
                                      "style" : "bold",
                                      "fill-color-blue" : 0.913725490196078,
                                      "fill-color-green" : 0.949019607843137,
                                      "fill-color-opacity" : 1.0,
                                      "fill-color-red" : 0.933333333333333,
                                      "hasDropShadow" : 0.0,
                                      "height" : 163.002035140991,
                                      "savedXScale" : 1.0,
                                      "savedYScale" : 1.0,
                                      "stroke-color-blue" : 1.0,
                                      "stroke-color-green" : 1.0,
                                      "stroke-color-opacity" : 1.0,
                                      "stroke-color-red" : 1.0,
                                      "stroke-width" : 0.0,
                                      "width" : 1403.00212860107,
                                      "custom" : "Y",
                                      "fill-style" : "solid",
                                      "stroke-style" : "solid"
                                    },
                                    "attributes" : {
                                      "ident" : "",
                                      "autoRotateText" : true
                                    },
                                    "parameters" : {
                                      "anchor0" : -1.0,
                                      "anchor1" : 2.0,
                                      "sourceCrop0" : 0.0,
                                      "sourceCrop1" : 0.0,
                                      "sourceCrop2" : 0.0,
                                      "sourceCrop3" : 0.0,
                                      "geometryCrop0" : 0.0,
                                      "geometryCrop1" : 0.0,
                                      "geometryCrop2" : 0.0,
                                      "geometryCrop3" : 0.0
                                    },
                                    "effects" : [

                                    ],
                                    "start" : 0,
                                    "duration" : 3528000000,
                                    "mediaStart" : 0,
                                    "mediaDuration" : 3528000000,
                                    "scalar" : 1,
                                    "metadata" : {
                                      "AppliedThemeId" : "",
                                      "clipSpeedAttribute" : false,
                                      "effectApplied" : "none",
                                      "lockAspectRatio" : false
                                    },
                                    "animationTracks" : {

                                    }
                                  }
                                ],
                                  "ident" : "",
                                  "audioMuted" : false,
                                  "videoHidden" : false,
                                  "magnetic" : false,
                                  "matte" : 0,
                                  "solo" : false,
                                  "metadata" : {
                                    "IsLocked" : "False",
                                    "WinTrackHeight" : "56",
                                    "trackHeight" : "54"
                                  }
                              },
                              {
                                "trackIndex" : 1,
                                "medias" : [
                                  {
                                    "id" : 337,
                                    "_type" : "Callout",
                                    "def" : {
                                      "kind" : "remix",
                                      "shape" : "shape-rectangle",
                                      "style" : "bold",
                                      "fill-color-blue" : 0.756862759590149,
                                      "fill-color-green" : 0.18823529779911,
                                      "fill-color-opacity" : 1.0,
                                      "fill-color-red" : 0.960784316062927,
                                      "hasDropShadow" : 0.0,
                                      "height" : 160.0,
                                      "savedXScale" : 1.0,
                                      "savedYScale" : 1.0,
                                      "stroke-color-blue" : 0.886274516582489,
                                      "stroke-color-green" : 0.200000002980232,
                                      "stroke-color-opacity" : 0.0,
                                      "stroke-color-red" : 0.376470595598221,
                                      "stroke-width" : 0.0,
                                      "width" : 1400.0,
                                      "custom" : "Y",
                                      "fill-style" : "solid",
                                      "stroke-style" : "solid"
                                    },
                                    "attributes" : {
                                      "ident" : "",
                                      "autoRotateText" : true
                                    },
                                    "parameters" : {
                                      "sourceCrop0" : 0.0,
                                      "sourceCrop1" : 0.0,
                                      "sourceCrop2" : 0.0,
                                      "sourceCrop3" : 0.0,
                                      "geometryCrop0" : 0.0,
                                      "geometryCrop1" : 0.0,
                                      "geometryCrop2" : 0.0,
                                      "geometryCrop3" : 0.0
                                    },
                                    "effects" : [

                                    ],
                                    "start" : 0,
                                    "duration" : 3528000000,
                                    "mediaStart" : 0,
                                    "mediaDuration" : 3528000000,
                                    "scalar" : 1,
                                    "metadata" : {
                                      "AppliedThemeId" : "",
                                      "clipSpeedAttribute" : false,
                                      "effectApplied" : "none"
                                    },
                                    "animationTracks" : {

                                    }
                                  }
                                ],
                                  "ident" : "",
                                  "audioMuted" : false,
                                  "videoHidden" : false,
                                  "magnetic" : false,
                                  "matte" : 1,
                                  "solo" : false,
                                  "metadata" : {
                                    "IsLocked" : "False",
                                    "WinTrackHeight" : "56",
                                    "trackHeight" : "54"
                                  }
                              }
                            ],
                            "attributes" : {
                              "ident" : "Rect-1400x1600-Mask",
                              "widthAttr" : 1405.0,
                              "heightAttr" : 167.002,
                              "gain" : 1.0,
                              "mixToMono" : false
                            },
                            "effects" : [

                            ],
                            "start" : 0,
                            "duration" : 3528000000,
                            "mediaStart" : 0.0,
                            "mediaDuration" : 3528000000.0,
                            "scalar" : 1,
                            "metadata" : {
                              "clipSpeedAttribute" : false,
                              "effectApplied" : "none",
                              "isOpen" : false,
                              "lockAspectRatio" : true
                            },
                            "animationTracks" : {
                              "visual" : [
                                {
                                  "endTime" : 552720000,
                                  "duration" : 552720000,
                                  "range" : [ 0, 552720000],
                                  "interp" : "eioe"
                                },
                                {
                                  "endTime" : 1775760000,
                                  "duration" : 399840000,
                                  "range" : [ 1375920000, 399840000],
                                  "interp" : "eioe"
                                }
                              ]
                            }
                          }
                        ],
                          "ident" : "",
                          "audioMuted" : false,
                          "videoHidden" : false,
                          "magnetic" : false,
                          "matte" : 1,
                          "solo" : false,
                          "metadata" : {
                            "IsLocked" : "False",
                            "WinTrackHeight" : "56",
                            "trackHeight" : "54"
                          }
                      },
                      {
                        "trackIndex" : 2,
                        "medias" : [
                          {
                            "id" : 338,
                            "_type" : "Group",
                            "parameters" : {
                              "translation0" : {
                                "type" : "double",
                                "defaultValue" : 0.0,
                                "keyframes" : [
                                  {
                                    "endTime" : 552720000,
                                    "time" : 0,
                                    "value" : 0.0,
                                    "interp" : "eioe",
                                    "duration" : 552720000
                                  },
                                  {
                                    "endTime" : 1775760000,
                                    "time" : 1375920000,
                                    "value" : 0.0,
                                    "interp" : "eioe",
                                    "duration" : 399840000
                                  }
                                ]
                              },
                              "translation1" : {
                                "type" : "double",
                                "defaultValue" : -233.610046386719,
                                "keyframes" : [
                                  {
                                    "endTime" : 552720000,
                                    "time" : 0,
                                    "value" : 90.0,
                                    "interp" : "eioe",
                                    "duration" : 552720000
                                  },
                                  {
                                    "endTime" : 1775760000,
                                    "time" : 1375920000,
                                    "value" : -233.610046386719,
                                    "interp" : "eioe",
                                    "duration" : 399840000
                                  }
                                ]
                              },
                              "sourceCrop0" : 0.0,
                              "sourceCrop1" : 0.0,
                              "sourceCrop2" : 0.0,
                              "sourceCrop3" : 0.0,
                              "geometryCrop0" : 0.0,
                              "geometryCrop1" : 0.0,
                              "geometryCrop2" : 0.0,
                              "geometryCrop3" : 0.0,
                              "opacity" : {
                                "type" : "double",
                                "defaultValue" : 1.0,
                                "keyframes" : [
                                  {
                                    "endTime" : 552720000,
                                    "time" : 0,
                                    "value" : 1.0,
                                    "interp" : "eioe",
                                    "duration" : 552720000
                                  }
                                ]
                              },
                              "volume" : 1.0
                            },
                            "tracks" : [
                              {
                                "trackIndex" : 0,
                                "medias" : [
                                  {
                                    "id" : 339,
                                    "_type" : "Callout",
                                    "def" : {
                                      "kind" : "remix",
                                      "shape" : "shape-rectangle",
                                      "style" : "bold",
                                      "fill-color-blue" : 0.2196078431,
                                      "fill-color-green" : 0.8745098039,
                                      "fill-color-opacity" : 1.0,
                                      "fill-color-red" : 1.0,
                                      "hasDropShadow" : 0.0,
                                      "height" : 163.002035140991,
                                      "savedXScale" : 1.0,
                                      "savedYScale" : 1.0,
                                      "stroke-color-blue" : 1.0,
                                      "stroke-color-green" : 1.0,
                                      "stroke-color-opacity" : 1.0,
                                      "stroke-color-red" : 1.0,
                                      "stroke-width" : 0.0,
                                      "width" : 1403.00212860107,
                                      "custom" : "Y",
                                      "fill-style" : "solid",
                                      "stroke-style" : "solid"
                                    },
                                    "attributes" : {
                                      "ident" : "",
                                      "autoRotateText" : true
                                    },
                                    "parameters" : {
                                      "anchor0" : -1.0,
                                      "anchor1" : 2.0,
                                      "sourceCrop0" : 0.0,
                                      "sourceCrop1" : 0.0,
                                      "sourceCrop2" : 0.0,
                                      "sourceCrop3" : 0.0,
                                      "geometryCrop0" : 0.0,
                                      "geometryCrop1" : 0.0,
                                      "geometryCrop2" : 0.0,
                                      "geometryCrop3" : 0.0
                                    },
                                    "effects" : [

                                    ],
                                    "start" : 0,
                                    "duration" : 3528000000,
                                    "mediaStart" : 0,
                                    "mediaDuration" : 3528000000,
                                    "scalar" : 1,
                                    "metadata" : {
                                      "AppliedThemeId" : "",
                                      "clipSpeedAttribute" : false,
                                      "effectApplied" : "none",
                                      "lockAspectRatio" : false
                                    },
                                    "animationTracks" : {

                                    }
                                  }
                                ],
                                  "ident" : "",
                                  "audioMuted" : false,
                                  "videoHidden" : false,
                                  "magnetic" : false,
                                  "matte" : 0,
                                  "solo" : false,
                                  "metadata" : {
                                    "IsLocked" : "False",
                                    "WinTrackHeight" : "56",
                                    "trackHeight" : "54"
                                  }
                              },
                              {
                                "trackIndex" : 1,
                                "medias" : [
                                  {
                                    "id" : 340,
                                    "_type" : "Callout",
                                    "def" : {
                                      "kind" : "remix",
                                      "shape" : "shape-rectangle",
                                      "style" : "bold",
                                      "fill-color-blue" : 0.756862759590149,
                                      "fill-color-green" : 0.18823529779911,
                                      "fill-color-opacity" : 1.0,
                                      "fill-color-red" : 0.960784316062927,
                                      "hasDropShadow" : 0.0,
                                      "height" : 160.0,
                                      "savedXScale" : 1.0,
                                      "savedYScale" : 1.0,
                                      "stroke-color-blue" : 0.886274516582489,
                                      "stroke-color-green" : 0.200000002980232,
                                      "stroke-color-opacity" : 0.0,
                                      "stroke-color-red" : 0.376470595598221,
                                      "stroke-width" : 0.0,
                                      "width" : 1400.0,
                                      "custom" : "Y",
                                      "fill-style" : "solid",
                                      "stroke-style" : "solid"
                                    },
                                    "attributes" : {
                                      "ident" : "",
                                      "autoRotateText" : true
                                    },
                                    "parameters" : {
                                      "translation1" : {
                                        "type" : "double",
                                        "defaultValue" : -1.0,
                                        "keyframes" : [
                                          {
                                            "endTime" : 270480000,
                                            "time" : 0,
                                            "value" : 0.0,
                                            "duration" : 270480000
                                          }
                                        ]
                                      },
                                      "scale0" : {
                                        "type" : "double",
                                        "defaultValue" : 1.0,
                                        "keyframes" : [
                                          {
                                            "endTime" : 270480000,
                                            "time" : 0,
                                            "value" : 1.0,
                                            "duration" : 270480000
                                          }
                                        ]
                                      },
                                      "scale1" : {
                                        "type" : "double",
                                        "defaultValue" : 0.125,
                                        "keyframes" : [
                                          {
                                            "endTime" : 270480000,
                                            "time" : 0,
                                            "value" : 0.5,
                                            "duration" : 270480000
                                          },
                                          {
                                            "endTime" : 552720000,
                                            "time" : 282240000,
                                            "value" : 0.125,
                                            "duration" : 270480000
                                          }
                                        ]
                                      },
                                      "sourceCrop0" : 0.0,
                                      "sourceCrop1" : 0.0,
                                      "sourceCrop2" : 0.0,
                                      "sourceCrop3" : 0.0,
                                      "geometryCrop0" : 0.0,
                                      "geometryCrop1" : 0.0,
                                      "geometryCrop2" : 0.0,
                                      "geometryCrop3" : 0.0
                                    },
                                    "effects" : [

                                    ],
                                    "start" : 0,
                                    "duration" : 3528000000,
                                    "mediaStart" : 0,
                                    "mediaDuration" : 3528000000,
                                    "scalar" : 1,
                                    "metadata" : {
                                      "AppliedThemeId" : "",
                                      "clipSpeedAttribute" : false,
                                      "effectApplied" : "none"
                                    },
                                    "animationTracks" : {
                                      "visual" : [
                                        {
                                          "endTime" : 270480000,
                                          "duration" : 270480000,
                                          "range" : [ 0, 270480000]
                                        },
                                        {
                                          "endTime" : 552720000,
                                          "duration" : 270480000,
                                          "range" : [ 282240000, 270480000]
                                        }
                                      ]
                                    }
                                  }
                                ],
                                  "ident" : "",
                                  "audioMuted" : false,
                                  "videoHidden" : false,
                                  "magnetic" : false,
                                  "matte" : 1,
                                  "solo" : false,
                                  "metadata" : {
                                    "IsLocked" : "False",
                                    "WinTrackHeight" : "56",
                                    "trackHeight" : "54"
                                  }
                              }
                            ],
                            "attributes" : {
                              "ident" : "Animated-Pulse-1400x20-To-1400x80",
                              "widthAttr" : 1405.0,
                              "heightAttr" : 167.002,
                              "gain" : 1.0,
                              "mixToMono" : false,
                              "assetProperties" : [
                                {
                                  "type" : 1,
                                  "name" : "Color",
                                  "objects" : [ 339 ],
                                  "themeMappings" :  {
                                    "fill" : "accent-1"
                                  }
                                }
                              ]
                            },
                            "effects" : [

                            ],
                            "start" : 0,
                            "duration" : 3528000000,
                            "mediaStart" : 0.0,
                            "mediaDuration" : 3528000000.0,
                            "scalar" : 1,
                            "metadata" : {
                              "AppliedThemeId" : "8e797988-b823-4beb-b251-1d31b461ba07",
                              "clipSpeedAttribute" : false,
                              "effectApplied" : "none",
                              "isOpen" : false,
                              "lockAspectRatio" : true
                            },
                            "animationTracks" : {
                              "visual" : [
                                {
                                  "endTime" : 552720000,
                                  "duration" : 552720000,
                                  "range" : [ 0, 552720000],
                                  "interp" : "eioe"
                                },
                                {
                                  "endTime" : 1775760000,
                                  "duration" : 399840000,
                                  "range" : [ 1375920000, 399840000],
                                  "interp" : "eioe"
                                }
                              ]
                            }
                          }
                        ],
                          "ident" : "",
                          "audioMuted" : false,
                          "videoHidden" : false,
                          "magnetic" : false,
                          "matte" : 0,
                          "solo" : false,
                          "metadata" : {
                            "IsLocked" : "False",
                            "WinTrackHeight" : "56",
                            "trackHeight" : "54"
                          }
                      },
                      {
                        "trackIndex" : 3,
                        "medias" : [
                          {
                            "id" : 341,
                            "_type" : "Group",
                            "parameters" : {
                              "translation0" : {
                                "type" : "double",
                                "defaultValue" : 0.0,
                                "keyframes" : [
                                  {
                                    "endTime" : 552720000,
                                    "time" : 0,
                                    "value" : 0.0,
                                    "interp" : "eioe",
                                    "duration" : 552720000
                                  },
                                  {
                                    "endTime" : 1775760000,
                                    "time" : 1375920000,
                                    "value" : 0.0,
                                    "interp" : "eioe",
                                    "duration" : 399840000
                                  }
                                ]
                              },
                              "translation1" : {
                                "type" : "double",
                                "defaultValue" : -143.610046386719,
                                "keyframes" : [
                                  {
                                    "endTime" : 552720000,
                                    "time" : 0,
                                    "value" : 0.0,
                                    "interp" : "eioe",
                                    "duration" : 552720000
                                  },
                                  {
                                    "endTime" : 1775760000,
                                    "time" : 1375920000,
                                    "value" : -143.610046386719,
                                    "interp" : "eioe",
                                    "duration" : 399840000
                                  }
                                ]
                              },
                              "sourceCrop0" : 0.0,
                              "sourceCrop1" : 0.0,
                              "sourceCrop2" : 0.0,
                              "sourceCrop3" : 0.0,
                              "geometryCrop0" : 0.0,
                              "geometryCrop1" : 0.0,
                              "geometryCrop2" : 0.0,
                              "geometryCrop3" : 0.0,
                              "opacity" : {
                                "type" : "double",
                                "defaultValue" : 1.0,
                                "keyframes" : [
                                  {
                                    "endTime" : 552720000,
                                    "time" : 0,
                                    "value" : 1.0,
                                    "interp" : "eioe",
                                    "duration" : 552720000
                                  }
                                ]
                              },
                              "volume" : 1.0
                            },
                            "tracks" : [
                              {
                                "trackIndex" : 0,
                                "medias" : [
                                  {
                                    "id" : 342,
                                    "_type" : "Callout",
                                    "def" : {
                                      "kind" : "remix",
                                      "shape" : "shape-rectangle",
                                      "style" : "bold",
                                      "fill-color-blue" : 0.913725490196078,
                                      "fill-color-green" : 0.949019607843137,
                                      "fill-color-opacity" : 1.0,
                                      "fill-color-red" : 0.933333333333333,
                                      "hasDropShadow" : 0.0,
                                      "height" : 163.002035140991,
                                      "savedXScale" : 1.0,
                                      "savedYScale" : 1.0,
                                      "stroke-color-blue" : 1.0,
                                      "stroke-color-green" : 1.0,
                                      "stroke-color-opacity" : 1.0,
                                      "stroke-color-red" : 1.0,
                                      "stroke-width" : 0.0,
                                      "width" : 1403.00212860107,
                                      "custom" : "Y",
                                      "fill-style" : "solid",
                                      "stroke-style" : "solid"
                                    },
                                    "attributes" : {
                                      "ident" : "",
                                      "autoRotateText" : true
                                    },
                                    "parameters" : {
                                      "anchor0" : -1.0,
                                      "anchor1" : 2.0,
                                      "sourceCrop0" : 0.0,
                                      "sourceCrop1" : 0.0,
                                      "sourceCrop2" : 0.0,
                                      "sourceCrop3" : 0.0,
                                      "geometryCrop0" : 0.0,
                                      "geometryCrop1" : 0.0,
                                      "geometryCrop2" : 0.0,
                                      "geometryCrop3" : 0.0
                                    },
                                    "effects" : [

                                    ],
                                    "start" : 0,
                                    "duration" : 3528000000,
                                    "mediaStart" : 0,
                                    "mediaDuration" : 3528000000,
                                    "scalar" : 1,
                                    "metadata" : {
                                      "AppliedThemeId" : "",
                                      "clipSpeedAttribute" : false,
                                      "effectApplied" : "none",
                                      "lockAspectRatio" : false
                                    },
                                    "animationTracks" : {

                                    }
                                  }
                                ],
                                  "ident" : "",
                                  "audioMuted" : false,
                                  "videoHidden" : false,
                                  "magnetic" : false,
                                  "matte" : 0,
                                  "solo" : false,
                                  "metadata" : {
                                    "IsLocked" : "False",
                                    "WinTrackHeight" : "56",
                                    "trackHeight" : "54"
                                  }
                              },
                              {
                                "trackIndex" : 1,
                                "medias" : [
                                  {
                                    "id" : 343,
                                    "_type" : "Callout",
                                    "def" : {
                                      "kind" : "remix",
                                      "shape" : "shape-rectangle",
                                      "style" : "bold",
                                      "fill-color-blue" : 0.756862759590149,
                                      "fill-color-green" : 0.18823529779911,
                                      "fill-color-opacity" : 1.0,
                                      "fill-color-red" : 0.960784316062927,
                                      "hasDropShadow" : 0.0,
                                      "height" : 160.0,
                                      "savedXScale" : 1.0,
                                      "savedYScale" : 1.0,
                                      "stroke-color-blue" : 0.886274516582489,
                                      "stroke-color-green" : 0.200000002980232,
                                      "stroke-color-opacity" : 0.0,
                                      "stroke-color-red" : 0.376470595598221,
                                      "stroke-width" : 0.0,
                                      "width" : 1400.0,
                                      "custom" : "Y",
                                      "fill-style" : "solid",
                                      "stroke-style" : "solid"
                                    },
                                    "attributes" : {
                                      "ident" : "",
                                      "autoRotateText" : true
                                    },
                                    "parameters" : {
                                      "sourceCrop0" : 0.0,
                                      "sourceCrop1" : 0.0,
                                      "sourceCrop2" : 0.0,
                                      "sourceCrop3" : 0.0,
                                      "geometryCrop0" : 0.0,
                                      "geometryCrop1" : 0.0,
                                      "geometryCrop2" : 0.0,
                                      "geometryCrop3" : 0.0
                                    },
                                    "effects" : [

                                    ],
                                    "start" : 0,
                                    "duration" : 3528000000,
                                    "mediaStart" : 0,
                                    "mediaDuration" : 3528000000,
                                    "scalar" : 1,
                                    "metadata" : {
                                      "AppliedThemeId" : "",
                                      "clipSpeedAttribute" : false,
                                      "effectApplied" : "none"
                                    },
                                    "animationTracks" : {

                                    }
                                  }
                                ],
                                  "ident" : "",
                                  "audioMuted" : false,
                                  "videoHidden" : false,
                                  "magnetic" : false,
                                  "matte" : 1,
                                  "solo" : false,
                                  "metadata" : {
                                    "IsLocked" : "False",
                                    "WinTrackHeight" : "56",
                                    "trackHeight" : "54"
                                  }
                              }
                            ],
                            "attributes" : {
                              "ident" : "Rect-1400x1600-Mask",
                              "widthAttr" : 1405.0,
                              "heightAttr" : 167.002,
                              "gain" : 1.0,
                              "mixToMono" : false
                            },
                            "effects" : [

                            ],
                            "start" : 0,
                            "duration" : 3528000000,
                            "mediaStart" : 0.0,
                            "mediaDuration" : 3528000000.0,
                            "scalar" : 1,
                            "metadata" : {
                              "clipSpeedAttribute" : false,
                              "effectApplied" : "none",
                              "isOpen" : false,
                              "lockAspectRatio" : true
                            },
                            "animationTracks" : {
                              "visual" : [
                                {
                                  "endTime" : 552720000,
                                  "duration" : 552720000,
                                  "range" : [ 0, 552720000],
                                  "interp" : "eioe"
                                },
                                {
                                  "endTime" : 1775760000,
                                  "duration" : 399840000,
                                  "range" : [ 1375920000, 399840000],
                                  "interp" : "eioe"
                                }
                              ]
                            }
                          }
                        ],
                          "ident" : "",
                          "audioMuted" : false,
                          "videoHidden" : false,
                          "magnetic" : false,
                          "matte" : 1,
                          "solo" : false,
                          "metadata" : {
                            "IsLocked" : "False",
                            "WinTrackHeight" : "56",
                            "trackHeight" : "54"
                          }
                      }
                    ],
                    "attributes" : {
                      "ident" : "Broadcast-Title-012",
                      "widthAttr" : 1405.0,
                      "heightAttr" : 160.0,
                      "gain" : 1.0,
                      "mixToMono" : false,
                      "assetProperties" : [
                        {
                          "type" : 0,
                          "name" : "Title",
                          "objects" : [ 334 ],
                          "themeMappings" :  {
                            "font-color" : "foreground-1"
                          }
                        },
                        {
                          "type" : 1,
                          "name" : "Fill",
                          "objects" : [ 332 ],
                          "themeMappings" :  {
                            "fill" : "background-1"
                          }
                        },
                        {
                          "type" : 1,
                          "name" : "Wiper",
                          "objects" : [ 339 ],
                          "themeMappings" :  {
                            "fill" : "foreground-1"
                          }
                        }
                      ]
                    },
                    "effects" : [

                    ],
                    "start" : 1928640000,
                    "duration" : 1764000000,
                    "mediaStart" : 0.0,
                    "mediaDuration" : 1764000000.0,
                    "scalar" : 1,
                    "metadata" : {
                      "AppliedThemeId" : "170ba59c-db5d-4b9a-a310-e7e99853a4b7",
                      "clipSpeedAttribute" : false,
                      "default-anchor0" : 0.0,
                      "default-anchor1" : 0.0,
                      "default-anchor2" : 0.0,
                      "default-geometryCrop0" : 0.0,
                      "default-geometryCrop2" : 0.0,
                      "default-height" : 160.0,
                      "default-rotation0" : 0.0,
                      "default-rotation1" : 0.0,
                      "default-rotation2" : 0.0,
                      "default-scale0" : 1.0,
                      "default-scale1" : 1.0,
                      "default-scale2" : 1.0,
                      "default-shear0" : 0.0,
                      "default-shear1" : 0.0,
                      "default-shear2" : 0.0,
                      "default-translation0" : 0.0,
                      "default-translation1" : 0.0,
                      "default-translation2" : 0.0,
                      "default-width" : 1405.0,
                      "effectApplied" : "none",
                      "isOpen" : false,
                      "lockAspectRatio" : true
                    },
                    "animationTracks" : {

                    }
                  }
                ]
              },
              {
                "trackIndex" : 109,
                "medias" : [
                  {
                    "id" : 344,
                    "_type" : "Group",
                    "parameters" : {
                      "translation0" : 350.0,
                      "translation1" : -100.0,
                      "scale0" : 0.214669051878354,
                      "scale1" : 0.21875,
                      "sourceCrop0" : 0.0,
                      "sourceCrop1" : 0.0,
                      "sourceCrop2" : 0.0,
                      "sourceCrop3" : 0.0,
                      "geometryCrop0" : 0.0,
                      "geometryCrop1" : 0.0,
                      "geometryCrop2" : 7.4999999999992,
                      "geometryCrop3" : 0.0,
                      "volume" : 1.0
                    },
                    "tracks" : [
                      {
                        "trackIndex" : 0,
                        "medias" : [
                          {
                            "id" : 345,
                            "_type" : "Group",
                            "parameters" : {
                              "translation0" : {
                                "type" : "double",
                                "defaultValue" : 0.0,
                                "keyframes" : [
                                  {
                                    "endTime" : 552720000,
                                    "time" : 0,
                                    "value" : 0.0,
                                    "interp" : "eioe",
                                    "duration" : 552720000
                                  },
                                  {
                                    "endTime" : 1775760000,
                                    "time" : 1375920000,
                                    "value" : 0.0,
                                    "interp" : "eioe",
                                    "duration" : 399840000
                                  }
                                ]
                              },
                              "translation1" : {
                                "type" : "double",
                                "defaultValue" : -305.610046386719,
                                "keyframes" : [
                                  {
                                    "endTime" : 552720000,
                                    "time" : 0,
                                    "value" : 0.0,
                                    "interp" : "eioe",
                                    "duration" : 552720000
                                  },
                                  {
                                    "endTime" : 1775760000,
                                    "time" : 1375920000,
                                    "value" : -304.610046386719,
                                    "interp" : "eioe",
                                    "duration" : 399840000
                                  }
                                ]
                              },
                              "sourceCrop0" : 0.0,
                              "sourceCrop1" : 0.0,
                              "sourceCrop2" : 0.0,
                              "sourceCrop3" : 0.0,
                              "geometryCrop0" : 0.0,
                              "geometryCrop1" : 0.0,
                              "geometryCrop2" : 0.0,
                              "geometryCrop3" : 0.0,
                              "volume" : 1.0
                            },
                            "tracks" : [
                              {
                                "trackIndex" : 0,
                                "medias" : [
                                  {
                                    "id" : 346,
                                    "_type" : "Group",
                                    "parameters" : {
                                      "sourceCrop0" : 0.0,
                                      "sourceCrop1" : 0.0,
                                      "sourceCrop2" : 0.0,
                                      "sourceCrop3" : 0.0,
                                      "geometryCrop0" : 0.0,
                                      "geometryCrop1" : 0.0,
                                      "geometryCrop2" : 0.0,
                                      "geometryCrop3" : 0.0,
                                      "volume" : 1.0
                                    },
                                    "tracks" : [
                                      {
                                        "trackIndex" : 0,
                                        "medias" : [
                                          {
                                            "id" : 347,
                                            "_type" : "Callout",
                                            "def" : {
                                              "kind" : "remix",
                                              "shape" : "shape-rectangle",
                                              "style" : "bold",
                                              "fill-color-blue" : 1.0,
                                              "fill-color-green" : 1.0,
                                              "fill-color-opacity" : 1.0,
                                              "fill-color-red" : 1.0,
                                              "hasDropShadow" : 0.0,
                                              "height" : 163.002035140991,
                                              "savedXScale" : 1.0,
                                              "savedYScale" : 1.0,
                                              "stroke-color-blue" : 1.0,
                                              "stroke-color-green" : 1.0,
                                              "stroke-color-opacity" : 1.0,
                                              "stroke-color-red" : 1.0,
                                              "stroke-width" : 0.0,
                                              "width" : 1403.00212860107,
                                              "custom" : "Y",
                                              "fill-style" : "solid",
                                              "stroke-style" : "solid"
                                            },
                                            "attributes" : {
                                              "ident" : "",
                                              "autoRotateText" : true
                                            },
                                            "parameters" : {
                                              "anchor0" : -1.0,
                                              "anchor1" : 2.0,
                                              "sourceCrop0" : 0.0,
                                              "sourceCrop1" : 0.0,
                                              "sourceCrop2" : 0.0,
                                              "sourceCrop3" : 0.0,
                                              "geometryCrop0" : 0.0,
                                              "geometryCrop1" : 0.0,
                                              "geometryCrop2" : 0.0,
                                              "geometryCrop3" : 0.0
                                            },
                                            "effects" : [

                                            ],
                                            "start" : 0,
                                            "duration" : 3528000000,
                                            "mediaStart" : 0,
                                            "mediaDuration" : 3528000000,
                                            "scalar" : 1,
                                            "metadata" : {
                                              "AppliedThemeId" : "",
                                              "clipSpeedAttribute" : false,
                                              "effectApplied" : "none",
                                              "lockAspectRatio" : false
                                            },
                                            "animationTracks" : {

                                            }
                                          }
                                        ],
                                          "ident" : "",
                                          "audioMuted" : false,
                                          "videoHidden" : false,
                                          "magnetic" : false,
                                          "matte" : 0,
                                          "solo" : false,
                                          "metadata" : {
                                            "IsLocked" : "False",
                                            "WinTrackHeight" : "56",
                                            "trackHeight" : "54"
                                          }
                                      },
                                      {
                                        "trackIndex" : 1,
                                        "medias" : [
                                          {
                                            "id" : 348,
                                            "_type" : "Callout",
                                            "def" : {
                                              "kind" : "remix",
                                              "shape" : "shape-rectangle",
                                              "style" : "bold",
                                              "fill-color-blue" : 0.756862759590149,
                                              "fill-color-green" : 0.18823529779911,
                                              "fill-color-opacity" : 1.0,
                                              "fill-color-red" : 0.960784316062927,
                                              "hasDropShadow" : 0.0,
                                              "height" : 160.0,
                                              "savedXScale" : 1.0,
                                              "savedYScale" : 1.0,
                                              "stroke-color-blue" : 0.886274516582489,
                                              "stroke-color-green" : 0.200000002980232,
                                              "stroke-color-opacity" : 0.0,
                                              "stroke-color-red" : 0.376470595598221,
                                              "stroke-width" : 0.0,
                                              "width" : 1400.0,
                                              "custom" : "Y",
                                              "fill-style" : "solid",
                                              "stroke-style" : "solid"
                                            },
                                            "attributes" : {
                                              "ident" : "",
                                              "autoRotateText" : true
                                            },
                                            "parameters" : {
                                              "sourceCrop0" : 0.0,
                                              "sourceCrop1" : 0.0,
                                              "sourceCrop2" : 0.0,
                                              "sourceCrop3" : 0.0,
                                              "geometryCrop0" : 0.0,
                                              "geometryCrop1" : 0.0,
                                              "geometryCrop2" : 0.0,
                                              "geometryCrop3" : 0.0
                                            },
                                            "effects" : [

                                            ],
                                            "start" : 0,
                                            "duration" : 3528000000,
                                            "mediaStart" : 0,
                                            "mediaDuration" : 3528000000,
                                            "scalar" : 1,
                                            "metadata" : {
                                              "AppliedThemeId" : "",
                                              "clipSpeedAttribute" : false,
                                              "effectApplied" : "none"
                                            },
                                            "animationTracks" : {

                                            }
                                          }
                                        ],
                                          "ident" : "",
                                          "audioMuted" : false,
                                          "videoHidden" : false,
                                          "magnetic" : false,
                                          "matte" : 1,
                                          "solo" : false,
                                          "metadata" : {
                                            "IsLocked" : "False",
                                            "WinTrackHeight" : "56",
                                            "trackHeight" : "54"
                                          }
                                      }
                                    ],
                                    "attributes" : {
                                      "ident" : "Fill-1400x160",
                                      "widthAttr" : 1405.0,
                                      "heightAttr" : 167.002,
                                      "gain" : 1.0,
                                      "mixToMono" : false
                                    },
                                    "effects" : [

                                    ],
                                    "start" : 0,
                                    "duration" : 3528000000,
                                    "mediaStart" : 0.0,
                                    "mediaDuration" : 3528000000.0,
                                    "scalar" : 1,
                                    "metadata" : {
                                      "clipSpeedAttribute" : false,
                                      "effectApplied" : "none",
                                      "isOpen" : false,
                                      "lockAspectRatio" : true
                                    },
                                    "animationTracks" : {

                                    }
                                  }
                                ],
                                  "ident" : "",
                                  "audioMuted" : false,
                                  "videoHidden" : false,
                                  "magnetic" : false,
                                  "matte" : 0,
                                  "solo" : false,
                                  "metadata" : {
                                    "IsLocked" : "False",
                                    "WinTrackHeight" : "56",
                                    "trackHeight" : "54"
                                  }
                              },
                              {
                                "trackIndex" : 1,
                                "medias" : [
                                  {
                                    "id" : 349,
                                    "_type" : "Callout",
                                    "def" : {
                                      "kind" : "remix",
                                      "shape" : "text",
                                      "style" : "urban",
                                      "enable-ligatures" : 1.0,
                                      "hasDropShadow" : 0.0,
                                      "height" : 170.0,
                                      "line-spacing" : 0.0,
                                      "savedXScale" : 1.0,
                                      "savedYScale" : 1.0,
                                      "width" : 1400.0,
                                      "word-wrap" : 1.0,
                                      "custom" : "Y",
                                      "horizontal-alignment" : "left",
                                      "resize-behavior" : "resizeText",
                                      "text" : "clear groups",
                                      "vertical-alignment" : "center",
                                      "font" : {
                                        "color-blue" : 1.0,
                                        "color-green" : 1.0,
                                        "color-red" : 1.0,
                                        "size" : 96.0,
                                        "tracking" : 0.0,
                                        "name" : "Dosis",
                                        "weight" : "Semi Bold"
                                      },
                                      "textAttributes" : {
                                        "type" : "textAttributeList",
                                        "keyframes" : [
                                          {
                                            "endTime" : 0,
                                            "time" : 0,
                                            "value" : [{"name":"underline","rangeEnd":12,"rangeStart":0,"value":0,"valueType":"int"},{"name":"strikethrough","rangeEnd":12,"rangeStart":0,"value":0,"valueType":"int"},{"name":"fontName","rangeEnd":12,"rangeStart":0,"value":"Roboto","valueType":"string"},{"name":"kerning","rangeEnd":12,"rangeStart":0,"value":0.049883078231292483,"valueType":"double"},{"name":"fontSize","rangeEnd":12,"rangeStart":0,"value":86,"valueType":"double"},{"name":"fgColor","rangeEnd":12,"rangeStart":0,"value":"(110,110,110,255)","valueType":"color"},{"name":"fontWeight","rangeEnd":12,"rangeStart":0,"value":700,"valueType":"int"},{"name":"fontItalic","rangeEnd":12,"rangeStart":0,"value":0,"valueType":"int"}],
                                            "duration" : 0
                                          }
                                        ]
                                      }
                                    },
                                    "attributes" : {
                                      "ident" : "",
                                      "autoRotateText" : true
                                    },
                                    "parameters" : {
                                      "translation1" : -2.0,
                                      "sourceCrop0" : 0.0,
                                      "sourceCrop1" : 0.0,
                                      "sourceCrop2" : 0.0,
                                      "sourceCrop3" : 0.0,
                                      "geometryCrop0" : 0.0,
                                      "geometryCrop1" : 0.0,
                                      "geometryCrop2" : 0.0,
                                      "geometryCrop3" : 0.0
                                    },
                                    "effects" : [

                                    ],
                                    "start" : 0,
                                    "duration" : 3528000000,
                                    "mediaStart" : 0,
                                    "mediaDuration" : 3528000000,
                                    "scalar" : 1,
                                    "metadata" : {
                                      "AppliedThemeId" : "",
                                      "clipSpeedAttribute" : false,
                                      "effectApplied" : "none",
                                      "lockAspectRatio" : false
                                    },
                                    "animationTracks" : {

                                    }
                                  }
                                ],
                                  "ident" : "",
                                  "audioMuted" : false,
                                  "videoHidden" : false,
                                  "magnetic" : false,
                                  "matte" : 0,
                                  "solo" : false,
                                  "metadata" : {
                                    "IsLocked" : "False",
                                    "WinTrackHeight" : "56",
                                    "trackHeight" : "54"
                                  }
                              }
                            ],
                            "attributes" : {
                              "ident" : "BP-Title-11",
                              "widthAttr" : 1405.0,
                              "heightAttr" : 167.002,
                              "gain" : 1.0,
                              "mixToMono" : false,
                              "assetProperties" : [
                                {
                                  "type" : 0,
                                  "name" : "Title",
                                  "objects" : [ 349 ],
                                  "themeMappings" :  {
                                    "font-color" : "foreground-1"
                                  }
                                },
                                {
                                  "type" : 1,
                                  "name" : "Fill",
                                  "objects" : [ 347 ],
                                  "themeMappings" :  {
                                    "fill" : "background-1"
                                  }
                                }
                              ]
                            },
                            "effects" : [

                            ],
                            "start" : 0,
                            "duration" : 3528000000,
                            "mediaStart" : 0.0,
                            "mediaDuration" : 3528000000.0,
                            "scalar" : 1,
                            "metadata" : {
                              "clipSpeedAttribute" : false,
                              "effectApplied" : "none",
                              "isOpen" : false,
                              "lockAspectRatio" : true
                            },
                            "animationTracks" : {
                              "visual" : [
                                {
                                  "endTime" : 552720000,
                                  "duration" : 552720000,
                                  "range" : [ 0, 552720000],
                                  "interp" : "eioe"
                                },
                                {
                                  "endTime" : 1775760000,
                                  "duration" : 399840000,
                                  "range" : [ 1375920000, 399840000],
                                  "interp" : "eioe"
                                }
                              ]
                            }
                          }
                        ],
                          "ident" : "",
                          "audioMuted" : false,
                          "videoHidden" : false,
                          "magnetic" : false,
                          "matte" : 0,
                          "solo" : false,
                          "metadata" : {
                            "IsLocked" : "False",
                            "WinTrackHeight" : "56",
                            "trackHeight" : "54"
                          }
                      },
                      {
                        "trackIndex" : 1,
                        "medias" : [
                          {
                            "id" : 350,
                            "_type" : "Group",
                            "parameters" : {
                              "translation0" : {
                                "type" : "double",
                                "defaultValue" : 0.0,
                                "keyframes" : [
                                  {
                                    "endTime" : 552720000,
                                    "time" : 0,
                                    "value" : 0.0,
                                    "interp" : "eioe",
                                    "duration" : 552720000
                                  },
                                  {
                                    "endTime" : 1775760000,
                                    "time" : 1375920000,
                                    "value" : 0.0,
                                    "interp" : "eioe",
                                    "duration" : 399840000
                                  }
                                ]
                              },
                              "translation1" : {
                                "type" : "double",
                                "defaultValue" : -144.610046386719,
                                "keyframes" : [
                                  {
                                    "endTime" : 552720000,
                                    "time" : 0,
                                    "value" : 0.0,
                                    "interp" : "eioe",
                                    "duration" : 552720000
                                  },
                                  {
                                    "endTime" : 1775760000,
                                    "time" : 1375920000,
                                    "value" : -144.610046386719,
                                    "interp" : "eioe",
                                    "duration" : 399840000
                                  }
                                ]
                              },
                              "sourceCrop0" : 0.0,
                              "sourceCrop1" : 0.0,
                              "sourceCrop2" : 0.0,
                              "sourceCrop3" : 0.0,
                              "geometryCrop0" : 0.0,
                              "geometryCrop1" : 0.0,
                              "geometryCrop2" : 0.0,
                              "geometryCrop3" : 0.0,
                              "opacity" : {
                                "type" : "double",
                                "defaultValue" : 1.0,
                                "keyframes" : [
                                  {
                                    "endTime" : 552720000,
                                    "time" : 0,
                                    "value" : 1.0,
                                    "interp" : "eioe",
                                    "duration" : 552720000
                                  }
                                ]
                              },
                              "volume" : 1.0
                            },
                            "tracks" : [
                              {
                                "trackIndex" : 0,
                                "medias" : [
                                  {
                                    "id" : 351,
                                    "_type" : "Callout",
                                    "def" : {
                                      "kind" : "remix",
                                      "shape" : "shape-rectangle",
                                      "style" : "bold",
                                      "fill-color-blue" : 0.913725490196078,
                                      "fill-color-green" : 0.949019607843137,
                                      "fill-color-opacity" : 1.0,
                                      "fill-color-red" : 0.933333333333333,
                                      "hasDropShadow" : 0.0,
                                      "height" : 163.002035140991,
                                      "savedXScale" : 1.0,
                                      "savedYScale" : 1.0,
                                      "stroke-color-blue" : 1.0,
                                      "stroke-color-green" : 1.0,
                                      "stroke-color-opacity" : 1.0,
                                      "stroke-color-red" : 1.0,
                                      "stroke-width" : 0.0,
                                      "width" : 1403.00212860107,
                                      "custom" : "Y",
                                      "fill-style" : "solid",
                                      "stroke-style" : "solid"
                                    },
                                    "attributes" : {
                                      "ident" : "",
                                      "autoRotateText" : true
                                    },
                                    "parameters" : {
                                      "anchor0" : -1.0,
                                      "anchor1" : 2.0,
                                      "sourceCrop0" : 0.0,
                                      "sourceCrop1" : 0.0,
                                      "sourceCrop2" : 0.0,
                                      "sourceCrop3" : 0.0,
                                      "geometryCrop0" : 0.0,
                                      "geometryCrop1" : 0.0,
                                      "geometryCrop2" : 0.0,
                                      "geometryCrop3" : 0.0
                                    },
                                    "effects" : [

                                    ],
                                    "start" : 0,
                                    "duration" : 3528000000,
                                    "mediaStart" : 0,
                                    "mediaDuration" : 3528000000,
                                    "scalar" : 1,
                                    "metadata" : {
                                      "AppliedThemeId" : "",
                                      "clipSpeedAttribute" : false,
                                      "effectApplied" : "none",
                                      "lockAspectRatio" : false
                                    },
                                    "animationTracks" : {

                                    }
                                  }
                                ],
                                  "ident" : "",
                                  "audioMuted" : false,
                                  "videoHidden" : false,
                                  "magnetic" : false,
                                  "matte" : 0,
                                  "solo" : false,
                                  "metadata" : {
                                    "IsLocked" : "False",
                                    "WinTrackHeight" : "56",
                                    "trackHeight" : "54"
                                  }
                              },
                              {
                                "trackIndex" : 1,
                                "medias" : [
                                  {
                                    "id" : 352,
                                    "_type" : "Callout",
                                    "def" : {
                                      "kind" : "remix",
                                      "shape" : "shape-rectangle",
                                      "style" : "bold",
                                      "fill-color-blue" : 0.756862759590149,
                                      "fill-color-green" : 0.18823529779911,
                                      "fill-color-opacity" : 1.0,
                                      "fill-color-red" : 0.960784316062927,
                                      "hasDropShadow" : 0.0,
                                      "height" : 160.0,
                                      "savedXScale" : 1.0,
                                      "savedYScale" : 1.0,
                                      "stroke-color-blue" : 0.886274516582489,
                                      "stroke-color-green" : 0.200000002980232,
                                      "stroke-color-opacity" : 0.0,
                                      "stroke-color-red" : 0.376470595598221,
                                      "stroke-width" : 0.0,
                                      "width" : 1400.0,
                                      "custom" : "Y",
                                      "fill-style" : "solid",
                                      "stroke-style" : "solid"
                                    },
                                    "attributes" : {
                                      "ident" : "",
                                      "autoRotateText" : true
                                    },
                                    "parameters" : {
                                      "sourceCrop0" : 0.0,
                                      "sourceCrop1" : 0.0,
                                      "sourceCrop2" : 0.0,
                                      "sourceCrop3" : 0.0,
                                      "geometryCrop0" : 0.0,
                                      "geometryCrop1" : 0.0,
                                      "geometryCrop2" : 0.0,
                                      "geometryCrop3" : 0.0
                                    },
                                    "effects" : [

                                    ],
                                    "start" : 0,
                                    "duration" : 3528000000,
                                    "mediaStart" : 0,
                                    "mediaDuration" : 3528000000,
                                    "scalar" : 1,
                                    "metadata" : {
                                      "AppliedThemeId" : "",
                                      "clipSpeedAttribute" : false,
                                      "effectApplied" : "none"
                                    },
                                    "animationTracks" : {

                                    }
                                  }
                                ],
                                  "ident" : "",
                                  "audioMuted" : false,
                                  "videoHidden" : false,
                                  "magnetic" : false,
                                  "matte" : 1,
                                  "solo" : false,
                                  "metadata" : {
                                    "IsLocked" : "False",
                                    "WinTrackHeight" : "56",
                                    "trackHeight" : "54"
                                  }
                              }
                            ],
                            "attributes" : {
                              "ident" : "Rect-1400x1600-Mask",
                              "widthAttr" : 1405.0,
                              "heightAttr" : 167.002,
                              "gain" : 1.0,
                              "mixToMono" : false
                            },
                            "effects" : [

                            ],
                            "start" : 0,
                            "duration" : 3528000000,
                            "mediaStart" : 0.0,
                            "mediaDuration" : 3528000000.0,
                            "scalar" : 1,
                            "metadata" : {
                              "clipSpeedAttribute" : false,
                              "effectApplied" : "none",
                              "isOpen" : false,
                              "lockAspectRatio" : true
                            },
                            "animationTracks" : {
                              "visual" : [
                                {
                                  "endTime" : 552720000,
                                  "duration" : 552720000,
                                  "range" : [ 0, 552720000],
                                  "interp" : "eioe"
                                },
                                {
                                  "endTime" : 1775760000,
                                  "duration" : 399840000,
                                  "range" : [ 1375920000, 399840000],
                                  "interp" : "eioe"
                                }
                              ]
                            }
                          }
                        ],
                          "ident" : "",
                          "audioMuted" : false,
                          "videoHidden" : false,
                          "magnetic" : false,
                          "matte" : 1,
                          "solo" : false,
                          "metadata" : {
                            "IsLocked" : "False",
                            "WinTrackHeight" : "56",
                            "trackHeight" : "54"
                          }
                      },
                      {
                        "trackIndex" : 2,
                        "medias" : [
                          {
                            "id" : 353,
                            "_type" : "Group",
                            "parameters" : {
                              "translation0" : {
                                "type" : "double",
                                "defaultValue" : 0.0,
                                "keyframes" : [
                                  {
                                    "endTime" : 552720000,
                                    "time" : 0,
                                    "value" : 0.0,
                                    "interp" : "eioe",
                                    "duration" : 552720000
                                  },
                                  {
                                    "endTime" : 1775760000,
                                    "time" : 1375920000,
                                    "value" : 0.0,
                                    "interp" : "eioe",
                                    "duration" : 399840000
                                  }
                                ]
                              },
                              "translation1" : {
                                "type" : "double",
                                "defaultValue" : -233.610046386719,
                                "keyframes" : [
                                  {
                                    "endTime" : 552720000,
                                    "time" : 0,
                                    "value" : 90.0,
                                    "interp" : "eioe",
                                    "duration" : 552720000
                                  },
                                  {
                                    "endTime" : 1775760000,
                                    "time" : 1375920000,
                                    "value" : -233.610046386719,
                                    "interp" : "eioe",
                                    "duration" : 399840000
                                  }
                                ]
                              },
                              "sourceCrop0" : 0.0,
                              "sourceCrop1" : 0.0,
                              "sourceCrop2" : 0.0,
                              "sourceCrop3" : 0.0,
                              "geometryCrop0" : 0.0,
                              "geometryCrop1" : 0.0,
                              "geometryCrop2" : 0.0,
                              "geometryCrop3" : 0.0,
                              "opacity" : {
                                "type" : "double",
                                "defaultValue" : 1.0,
                                "keyframes" : [
                                  {
                                    "endTime" : 552720000,
                                    "time" : 0,
                                    "value" : 1.0,
                                    "interp" : "eioe",
                                    "duration" : 552720000
                                  }
                                ]
                              },
                              "volume" : 1.0
                            },
                            "tracks" : [
                              {
                                "trackIndex" : 0,
                                "medias" : [
                                  {
                                    "id" : 354,
                                    "_type" : "Callout",
                                    "def" : {
                                      "kind" : "remix",
                                      "shape" : "shape-rectangle",
                                      "style" : "bold",
                                      "fill-color-blue" : 0.2196078431,
                                      "fill-color-green" : 0.8745098039,
                                      "fill-color-opacity" : 1.0,
                                      "fill-color-red" : 1.0,
                                      "hasDropShadow" : 0.0,
                                      "height" : 163.002035140991,
                                      "savedXScale" : 1.0,
                                      "savedYScale" : 1.0,
                                      "stroke-color-blue" : 1.0,
                                      "stroke-color-green" : 1.0,
                                      "stroke-color-opacity" : 1.0,
                                      "stroke-color-red" : 1.0,
                                      "stroke-width" : 0.0,
                                      "width" : 1403.00212860107,
                                      "custom" : "Y",
                                      "fill-style" : "solid",
                                      "stroke-style" : "solid"
                                    },
                                    "attributes" : {
                                      "ident" : "",
                                      "autoRotateText" : true
                                    },
                                    "parameters" : {
                                      "anchor0" : -1.0,
                                      "anchor1" : 2.0,
                                      "sourceCrop0" : 0.0,
                                      "sourceCrop1" : 0.0,
                                      "sourceCrop2" : 0.0,
                                      "sourceCrop3" : 0.0,
                                      "geometryCrop0" : 0.0,
                                      "geometryCrop1" : 0.0,
                                      "geometryCrop2" : 0.0,
                                      "geometryCrop3" : 0.0
                                    },
                                    "effects" : [

                                    ],
                                    "start" : 0,
                                    "duration" : 3528000000,
                                    "mediaStart" : 0,
                                    "mediaDuration" : 3528000000,
                                    "scalar" : 1,
                                    "metadata" : {
                                      "AppliedThemeId" : "",
                                      "clipSpeedAttribute" : false,
                                      "effectApplied" : "none",
                                      "lockAspectRatio" : false
                                    },
                                    "animationTracks" : {

                                    }
                                  }
                                ],
                                  "ident" : "",
                                  "audioMuted" : false,
                                  "videoHidden" : false,
                                  "magnetic" : false,
                                  "matte" : 0,
                                  "solo" : false,
                                  "metadata" : {
                                    "IsLocked" : "False",
                                    "WinTrackHeight" : "56",
                                    "trackHeight" : "54"
                                  }
                              },
                              {
                                "trackIndex" : 1,
                                "medias" : [
                                  {
                                    "id" : 355,
                                    "_type" : "Callout",
                                    "def" : {
                                      "kind" : "remix",
                                      "shape" : "shape-rectangle",
                                      "style" : "bold",
                                      "fill-color-blue" : 0.756862759590149,
                                      "fill-color-green" : 0.18823529779911,
                                      "fill-color-opacity" : 1.0,
                                      "fill-color-red" : 0.960784316062927,
                                      "hasDropShadow" : 0.0,
                                      "height" : 160.0,
                                      "savedXScale" : 1.0,
                                      "savedYScale" : 1.0,
                                      "stroke-color-blue" : 0.886274516582489,
                                      "stroke-color-green" : 0.200000002980232,
                                      "stroke-color-opacity" : 0.0,
                                      "stroke-color-red" : 0.376470595598221,
                                      "stroke-width" : 0.0,
                                      "width" : 1400.0,
                                      "custom" : "Y",
                                      "fill-style" : "solid",
                                      "stroke-style" : "solid"
                                    },
                                    "attributes" : {
                                      "ident" : "",
                                      "autoRotateText" : true
                                    },
                                    "parameters" : {
                                      "translation1" : {
                                        "type" : "double",
                                        "defaultValue" : -1.0,
                                        "keyframes" : [
                                          {
                                            "endTime" : 270480000,
                                            "time" : 0,
                                            "value" : 0.0,
                                            "duration" : 270480000
                                          }
                                        ]
                                      },
                                      "scale0" : {
                                        "type" : "double",
                                        "defaultValue" : 1.0,
                                        "keyframes" : [
                                          {
                                            "endTime" : 270480000,
                                            "time" : 0,
                                            "value" : 1.0,
                                            "duration" : 270480000
                                          }
                                        ]
                                      },
                                      "scale1" : {
                                        "type" : "double",
                                        "defaultValue" : 0.125,
                                        "keyframes" : [
                                          {
                                            "endTime" : 270480000,
                                            "time" : 0,
                                            "value" : 0.5,
                                            "duration" : 270480000
                                          },
                                          {
                                            "endTime" : 552720000,
                                            "time" : 282240000,
                                            "value" : 0.125,
                                            "duration" : 270480000
                                          }
                                        ]
                                      },
                                      "sourceCrop0" : 0.0,
                                      "sourceCrop1" : 0.0,
                                      "sourceCrop2" : 0.0,
                                      "sourceCrop3" : 0.0,
                                      "geometryCrop0" : 0.0,
                                      "geometryCrop1" : 0.0,
                                      "geometryCrop2" : 0.0,
                                      "geometryCrop3" : 0.0
                                    },
                                    "effects" : [

                                    ],
                                    "start" : 0,
                                    "duration" : 3528000000,
                                    "mediaStart" : 0,
                                    "mediaDuration" : 3528000000,
                                    "scalar" : 1,
                                    "metadata" : {
                                      "AppliedThemeId" : "",
                                      "clipSpeedAttribute" : false,
                                      "effectApplied" : "none"
                                    },
                                    "animationTracks" : {
                                      "visual" : [
                                        {
                                          "endTime" : 270480000,
                                          "duration" : 270480000,
                                          "range" : [ 0, 270480000]
                                        },
                                        {
                                          "endTime" : 552720000,
                                          "duration" : 270480000,
                                          "range" : [ 282240000, 270480000]
                                        }
                                      ]
                                    }
                                  }
                                ],
                                  "ident" : "",
                                  "audioMuted" : false,
                                  "videoHidden" : false,
                                  "magnetic" : false,
                                  "matte" : 1,
                                  "solo" : false,
                                  "metadata" : {
                                    "IsLocked" : "False",
                                    "WinTrackHeight" : "56",
                                    "trackHeight" : "54"
                                  }
                              }
                            ],
                            "attributes" : {
                              "ident" : "Animated-Pulse-1400x20-To-1400x80",
                              "widthAttr" : 1405.0,
                              "heightAttr" : 167.002,
                              "gain" : 1.0,
                              "mixToMono" : false,
                              "assetProperties" : [
                                {
                                  "type" : 1,
                                  "name" : "Color",
                                  "objects" : [ 354 ],
                                  "themeMappings" :  {
                                    "fill" : "accent-1"
                                  }
                                }
                              ]
                            },
                            "effects" : [

                            ],
                            "start" : 0,
                            "duration" : 3528000000,
                            "mediaStart" : 0.0,
                            "mediaDuration" : 3528000000.0,
                            "scalar" : 1,
                            "metadata" : {
                              "AppliedThemeId" : "8e797988-b823-4beb-b251-1d31b461ba07",
                              "clipSpeedAttribute" : false,
                              "effectApplied" : "none",
                              "isOpen" : false,
                              "lockAspectRatio" : true
                            },
                            "animationTracks" : {
                              "visual" : [
                                {
                                  "endTime" : 552720000,
                                  "duration" : 552720000,
                                  "range" : [ 0, 552720000],
                                  "interp" : "eioe"
                                },
                                {
                                  "endTime" : 1775760000,
                                  "duration" : 399840000,
                                  "range" : [ 1375920000, 399840000],
                                  "interp" : "eioe"
                                }
                              ]
                            }
                          }
                        ],
                          "ident" : "",
                          "audioMuted" : false,
                          "videoHidden" : false,
                          "magnetic" : false,
                          "matte" : 0,
                          "solo" : false,
                          "metadata" : {
                            "IsLocked" : "False",
                            "WinTrackHeight" : "56",
                            "trackHeight" : "54"
                          }
                      },
                      {
                        "trackIndex" : 3,
                        "medias" : [
                          {
                            "id" : 356,
                            "_type" : "Group",
                            "parameters" : {
                              "translation0" : {
                                "type" : "double",
                                "defaultValue" : 0.0,
                                "keyframes" : [
                                  {
                                    "endTime" : 552720000,
                                    "time" : 0,
                                    "value" : 0.0,
                                    "interp" : "eioe",
                                    "duration" : 552720000
                                  },
                                  {
                                    "endTime" : 1775760000,
                                    "time" : 1375920000,
                                    "value" : 0.0,
                                    "interp" : "eioe",
                                    "duration" : 399840000
                                  }
                                ]
                              },
                              "translation1" : {
                                "type" : "double",
                                "defaultValue" : -143.610046386719,
                                "keyframes" : [
                                  {
                                    "endTime" : 552720000,
                                    "time" : 0,
                                    "value" : 0.0,
                                    "interp" : "eioe",
                                    "duration" : 552720000
                                  },
                                  {
                                    "endTime" : 1775760000,
                                    "time" : 1375920000,
                                    "value" : -143.610046386719,
                                    "interp" : "eioe",
                                    "duration" : 399840000
                                  }
                                ]
                              },
                              "sourceCrop0" : 0.0,
                              "sourceCrop1" : 0.0,
                              "sourceCrop2" : 0.0,
                              "sourceCrop3" : 0.0,
                              "geometryCrop0" : 0.0,
                              "geometryCrop1" : 0.0,
                              "geometryCrop2" : 0.0,
                              "geometryCrop3" : 0.0,
                              "opacity" : {
                                "type" : "double",
                                "defaultValue" : 1.0,
                                "keyframes" : [
                                  {
                                    "endTime" : 552720000,
                                    "time" : 0,
                                    "value" : 1.0,
                                    "interp" : "eioe",
                                    "duration" : 552720000
                                  }
                                ]
                              },
                              "volume" : 1.0
                            },
                            "tracks" : [
                              {
                                "trackIndex" : 0,
                                "medias" : [
                                  {
                                    "id" : 357,
                                    "_type" : "Callout",
                                    "def" : {
                                      "kind" : "remix",
                                      "shape" : "shape-rectangle",
                                      "style" : "bold",
                                      "fill-color-blue" : 0.913725490196078,
                                      "fill-color-green" : 0.949019607843137,
                                      "fill-color-opacity" : 1.0,
                                      "fill-color-red" : 0.933333333333333,
                                      "hasDropShadow" : 0.0,
                                      "height" : 163.002035140991,
                                      "savedXScale" : 1.0,
                                      "savedYScale" : 1.0,
                                      "stroke-color-blue" : 1.0,
                                      "stroke-color-green" : 1.0,
                                      "stroke-color-opacity" : 1.0,
                                      "stroke-color-red" : 1.0,
                                      "stroke-width" : 0.0,
                                      "width" : 1403.00212860107,
                                      "custom" : "Y",
                                      "fill-style" : "solid",
                                      "stroke-style" : "solid"
                                    },
                                    "attributes" : {
                                      "ident" : "",
                                      "autoRotateText" : true
                                    },
                                    "parameters" : {
                                      "anchor0" : -1.0,
                                      "anchor1" : 2.0,
                                      "sourceCrop0" : 0.0,
                                      "sourceCrop1" : 0.0,
                                      "sourceCrop2" : 0.0,
                                      "sourceCrop3" : 0.0,
                                      "geometryCrop0" : 0.0,
                                      "geometryCrop1" : 0.0,
                                      "geometryCrop2" : 0.0,
                                      "geometryCrop3" : 0.0
                                    },
                                    "effects" : [

                                    ],
                                    "start" : 0,
                                    "duration" : 3528000000,
                                    "mediaStart" : 0,
                                    "mediaDuration" : 3528000000,
                                    "scalar" : 1,
                                    "metadata" : {
                                      "AppliedThemeId" : "",
                                      "clipSpeedAttribute" : false,
                                      "effectApplied" : "none",
                                      "lockAspectRatio" : false
                                    },
                                    "animationTracks" : {

                                    }
                                  }
                                ],
                                  "ident" : "",
                                  "audioMuted" : false,
                                  "videoHidden" : false,
                                  "magnetic" : false,
                                  "matte" : 0,
                                  "solo" : false,
                                  "metadata" : {
                                    "IsLocked" : "False",
                                    "WinTrackHeight" : "56",
                                    "trackHeight" : "54"
                                  }
                              },
                              {
                                "trackIndex" : 1,
                                "medias" : [
                                  {
                                    "id" : 358,
                                    "_type" : "Callout",
                                    "def" : {
                                      "kind" : "remix",
                                      "shape" : "shape-rectangle",
                                      "style" : "bold",
                                      "fill-color-blue" : 0.756862759590149,
                                      "fill-color-green" : 0.18823529779911,
                                      "fill-color-opacity" : 1.0,
                                      "fill-color-red" : 0.960784316062927,
                                      "hasDropShadow" : 0.0,
                                      "height" : 160.0,
                                      "savedXScale" : 1.0,
                                      "savedYScale" : 1.0,
                                      "stroke-color-blue" : 0.886274516582489,
                                      "stroke-color-green" : 0.200000002980232,
                                      "stroke-color-opacity" : 0.0,
                                      "stroke-color-red" : 0.376470595598221,
                                      "stroke-width" : 0.0,
                                      "width" : 1400.0,
                                      "custom" : "Y",
                                      "fill-style" : "solid",
                                      "stroke-style" : "solid"
                                    },
                                    "attributes" : {
                                      "ident" : "",
                                      "autoRotateText" : true
                                    },
                                    "parameters" : {
                                      "sourceCrop0" : 0.0,
                                      "sourceCrop1" : 0.0,
                                      "sourceCrop2" : 0.0,
                                      "sourceCrop3" : 0.0,
                                      "geometryCrop0" : 0.0,
                                      "geometryCrop1" : 0.0,
                                      "geometryCrop2" : 0.0,
                                      "geometryCrop3" : 0.0
                                    },
                                    "effects" : [

                                    ],
                                    "start" : 0,
                                    "duration" : 3528000000,
                                    "mediaStart" : 0,
                                    "mediaDuration" : 3528000000,
                                    "scalar" : 1,
                                    "metadata" : {
                                      "AppliedThemeId" : "",
                                      "clipSpeedAttribute" : false,
                                      "effectApplied" : "none"
                                    },
                                    "animationTracks" : {

                                    }
                                  }
                                ],
                                  "ident" : "",
                                  "audioMuted" : false,
                                  "videoHidden" : false,
                                  "magnetic" : false,
                                  "matte" : 1,
                                  "solo" : false,
                                  "metadata" : {
                                    "IsLocked" : "False",
                                    "WinTrackHeight" : "56",
                                    "trackHeight" : "54"
                                  }
                              }
                            ],
                            "attributes" : {
                              "ident" : "Rect-1400x1600-Mask",
                              "widthAttr" : 1405.0,
                              "heightAttr" : 167.002,
                              "gain" : 1.0,
                              "mixToMono" : false
                            },
                            "effects" : [

                            ],
                            "start" : 0,
                            "duration" : 3528000000,
                            "mediaStart" : 0.0,
                            "mediaDuration" : 3528000000.0,
                            "scalar" : 1,
                            "metadata" : {
                              "clipSpeedAttribute" : false,
                              "effectApplied" : "none",
                              "isOpen" : false,
                              "lockAspectRatio" : true
                            },
                            "animationTracks" : {
                              "visual" : [
                                {
                                  "endTime" : 552720000,
                                  "duration" : 552720000,
                                  "range" : [ 0, 552720000],
                                  "interp" : "eioe"
                                },
                                {
                                  "endTime" : 1775760000,
                                  "duration" : 399840000,
                                  "range" : [ 1375920000, 399840000],
                                  "interp" : "eioe"
                                }
                              ]
                            }
                          }
                        ],
                          "ident" : "",
                          "audioMuted" : false,
                          "videoHidden" : false,
                          "magnetic" : false,
                          "matte" : 1,
                          "solo" : false,
                          "metadata" : {
                            "IsLocked" : "False",
                            "WinTrackHeight" : "56",
                            "trackHeight" : "54"
                          }
                      }
                    ],
                    "attributes" : {
                      "ident" : "Broadcast-Title-012",
                      "widthAttr" : 1405.0,
                      "heightAttr" : 160.0,
                      "gain" : 1.0,
                      "mixToMono" : false,
                      "assetProperties" : [
                        {
                          "type" : 0,
                          "name" : "Title",
                          "objects" : [ 349 ],
                          "themeMappings" :  {
                            "font-color" : "foreground-1"
                          }
                        },
                        {
                          "type" : 1,
                          "name" : "Fill",
                          "objects" : [ 347 ],
                          "themeMappings" :  {
                            "fill" : "background-1"
                          }
                        },
                        {
                          "type" : 1,
                          "name" : "Wiper",
                          "objects" : [ 354 ],
                          "themeMappings" :  {
                            "fill" : "foreground-1"
                          }
                        }
                      ]
                    },
                    "effects" : [

                    ],
                    "start" : 1928640000,
                    "duration" : 1764000000,
                    "mediaStart" : 0.0,
                    "mediaDuration" : 1764000000.0,
                    "scalar" : 1,
                    "metadata" : {
                      "AppliedThemeId" : "170ba59c-db5d-4b9a-a310-e7e99853a4b7",
                      "clipSpeedAttribute" : false,
                      "default-anchor0" : 0.0,
                      "default-anchor1" : 0.0,
                      "default-anchor2" : 0.0,
                      "default-geometryCrop0" : 0.0,
                      "default-geometryCrop2" : 0.0,
                      "default-height" : 160.0,
                      "default-rotation0" : 0.0,
                      "default-rotation1" : 0.0,
                      "default-rotation2" : 0.0,
                      "default-scale0" : 1.0,
                      "default-scale1" : 1.0,
                      "default-scale2" : 1.0,
                      "default-shear0" : 0.0,
                      "default-shear1" : 0.0,
                      "default-shear2" : 0.0,
                      "default-translation0" : 0.0,
                      "default-translation1" : 0.0,
                      "default-translation2" : 0.0,
                      "default-width" : 1405.0,
                      "effectApplied" : "none",
                      "isOpen" : false,
                      "lockAspectRatio" : true
                    },
                    "animationTracks" : {

                    }
                  }
                ]
              },
              {
                "trackIndex" : 110,
                "medias" : [
                  {
                    "id" : 359,
                    "_type" : "Group",
                    "parameters" : {
                      "translation0" : 350.0,
                      "translation1" : -150.0,
                      "scale0" : 0.214669051878354,
                      "scale1" : 0.21875,
                      "sourceCrop0" : 0.0,
                      "sourceCrop1" : 0.0,
                      "sourceCrop2" : 0.0,
                      "sourceCrop3" : 0.0,
                      "geometryCrop0" : 0.0,
                      "geometryCrop1" : 0.0,
                      "geometryCrop2" : 7.4999999999992,
                      "geometryCrop3" : 0.0,
                      "volume" : 1.0
                    },
                    "tracks" : [
                      {
                        "trackIndex" : 0,
                        "medias" : [
                          {
                            "id" : 360,
                            "_type" : "Group",
                            "parameters" : {
                              "translation0" : {
                                "type" : "double",
                                "defaultValue" : 0.0,
                                "keyframes" : [
                                  {
                                    "endTime" : 552720000,
                                    "time" : 0,
                                    "value" : 0.0,
                                    "interp" : "eioe",
                                    "duration" : 552720000
                                  },
                                  {
                                    "endTime" : 1775760000,
                                    "time" : 1375920000,
                                    "value" : 0.0,
                                    "interp" : "eioe",
                                    "duration" : 399840000
                                  }
                                ]
                              },
                              "translation1" : {
                                "type" : "double",
                                "defaultValue" : -305.610046386719,
                                "keyframes" : [
                                  {
                                    "endTime" : 552720000,
                                    "time" : 0,
                                    "value" : 0.0,
                                    "interp" : "eioe",
                                    "duration" : 552720000
                                  },
                                  {
                                    "endTime" : 1775760000,
                                    "time" : 1375920000,
                                    "value" : -304.610046386719,
                                    "interp" : "eioe",
                                    "duration" : 399840000
                                  }
                                ]
                              },
                              "sourceCrop0" : 0.0,
                              "sourceCrop1" : 0.0,
                              "sourceCrop2" : 0.0,
                              "sourceCrop3" : 0.0,
                              "geometryCrop0" : 0.0,
                              "geometryCrop1" : 0.0,
                              "geometryCrop2" : 0.0,
                              "geometryCrop3" : 0.0,
                              "volume" : 1.0
                            },
                            "tracks" : [
                              {
                                "trackIndex" : 0,
                                "medias" : [
                                  {
                                    "id" : 361,
                                    "_type" : "Group",
                                    "parameters" : {
                                      "sourceCrop0" : 0.0,
                                      "sourceCrop1" : 0.0,
                                      "sourceCrop2" : 0.0,
                                      "sourceCrop3" : 0.0,
                                      "geometryCrop0" : 0.0,
                                      "geometryCrop1" : 0.0,
                                      "geometryCrop2" : 0.0,
                                      "geometryCrop3" : 0.0,
                                      "volume" : 1.0
                                    },
                                    "tracks" : [
                                      {
                                        "trackIndex" : 0,
                                        "medias" : [
                                          {
                                            "id" : 362,
                                            "_type" : "Callout",
                                            "def" : {
                                              "kind" : "remix",
                                              "shape" : "shape-rectangle",
                                              "style" : "bold",
                                              "fill-color-blue" : 1.0,
                                              "fill-color-green" : 1.0,
                                              "fill-color-opacity" : 1.0,
                                              "fill-color-red" : 1.0,
                                              "hasDropShadow" : 0.0,
                                              "height" : 163.002035140991,
                                              "savedXScale" : 1.0,
                                              "savedYScale" : 1.0,
                                              "stroke-color-blue" : 1.0,
                                              "stroke-color-green" : 1.0,
                                              "stroke-color-opacity" : 1.0,
                                              "stroke-color-red" : 1.0,
                                              "stroke-width" : 0.0,
                                              "width" : 1403.00212860107,
                                              "custom" : "Y",
                                              "fill-style" : "solid",
                                              "stroke-style" : "solid"
                                            },
                                            "attributes" : {
                                              "ident" : "",
                                              "autoRotateText" : true
                                            },
                                            "parameters" : {
                                              "anchor0" : -1.0,
                                              "anchor1" : 2.0,
                                              "sourceCrop0" : 0.0,
                                              "sourceCrop1" : 0.0,
                                              "sourceCrop2" : 0.0,
                                              "sourceCrop3" : 0.0,
                                              "geometryCrop0" : 0.0,
                                              "geometryCrop1" : 0.0,
                                              "geometryCrop2" : 0.0,
                                              "geometryCrop3" : 0.0
                                            },
                                            "effects" : [

                                            ],
                                            "start" : 0,
                                            "duration" : 3528000000,
                                            "mediaStart" : 0,
                                            "mediaDuration" : 3528000000,
                                            "scalar" : 1,
                                            "metadata" : {
                                              "AppliedThemeId" : "",
                                              "clipSpeedAttribute" : false,
                                              "effectApplied" : "none",
                                              "lockAspectRatio" : false
                                            },
                                            "animationTracks" : {

                                            }
                                          }
                                        ],
                                          "ident" : "",
                                          "audioMuted" : false,
                                          "videoHidden" : false,
                                          "magnetic" : false,
                                          "matte" : 0,
                                          "solo" : false,
                                          "metadata" : {
                                            "IsLocked" : "False",
                                            "WinTrackHeight" : "56",
                                            "trackHeight" : "54"
                                          }
                                      },
                                      {
                                        "trackIndex" : 1,
                                        "medias" : [
                                          {
                                            "id" : 363,
                                            "_type" : "Callout",
                                            "def" : {
                                              "kind" : "remix",
                                              "shape" : "shape-rectangle",
                                              "style" : "bold",
                                              "fill-color-blue" : 0.756862759590149,
                                              "fill-color-green" : 0.18823529779911,
                                              "fill-color-opacity" : 1.0,
                                              "fill-color-red" : 0.960784316062927,
                                              "hasDropShadow" : 0.0,
                                              "height" : 160.0,
                                              "savedXScale" : 1.0,
                                              "savedYScale" : 1.0,
                                              "stroke-color-blue" : 0.886274516582489,
                                              "stroke-color-green" : 0.200000002980232,
                                              "stroke-color-opacity" : 0.0,
                                              "stroke-color-red" : 0.376470595598221,
                                              "stroke-width" : 0.0,
                                              "width" : 1400.0,
                                              "custom" : "Y",
                                              "fill-style" : "solid",
                                              "stroke-style" : "solid"
                                            },
                                            "attributes" : {
                                              "ident" : "",
                                              "autoRotateText" : true
                                            },
                                            "parameters" : {
                                              "sourceCrop0" : 0.0,
                                              "sourceCrop1" : 0.0,
                                              "sourceCrop2" : 0.0,
                                              "sourceCrop3" : 0.0,
                                              "geometryCrop0" : 0.0,
                                              "geometryCrop1" : 0.0,
                                              "geometryCrop2" : 0.0,
                                              "geometryCrop3" : 0.0
                                            },
                                            "effects" : [

                                            ],
                                            "start" : 0,
                                            "duration" : 3528000000,
                                            "mediaStart" : 0,
                                            "mediaDuration" : 3528000000,
                                            "scalar" : 1,
                                            "metadata" : {
                                              "AppliedThemeId" : "",
                                              "clipSpeedAttribute" : false,
                                              "effectApplied" : "none"
                                            },
                                            "animationTracks" : {

                                            }
                                          }
                                        ],
                                          "ident" : "",
                                          "audioMuted" : false,
                                          "videoHidden" : false,
                                          "magnetic" : false,
                                          "matte" : 1,
                                          "solo" : false,
                                          "metadata" : {
                                            "IsLocked" : "False",
                                            "WinTrackHeight" : "56",
                                            "trackHeight" : "54"
                                          }
                                      }
                                    ],
                                    "attributes" : {
                                      "ident" : "Fill-1400x160",
                                      "widthAttr" : 1405.0,
                                      "heightAttr" : 167.002,
                                      "gain" : 1.0,
                                      "mixToMono" : false
                                    },
                                    "effects" : [

                                    ],
                                    "start" : 0,
                                    "duration" : 3528000000,
                                    "mediaStart" : 0.0,
                                    "mediaDuration" : 3528000000.0,
                                    "scalar" : 1,
                                    "metadata" : {
                                      "clipSpeedAttribute" : false,
                                      "effectApplied" : "none",
                                      "isOpen" : false,
                                      "lockAspectRatio" : true
                                    },
                                    "animationTracks" : {

                                    }
                                  }
                                ],
                                  "ident" : "",
                                  "audioMuted" : false,
                                  "videoHidden" : false,
                                  "magnetic" : false,
                                  "matte" : 0,
                                  "solo" : false,
                                  "metadata" : {
                                    "IsLocked" : "False",
                                    "WinTrackHeight" : "56",
                                    "trackHeight" : "54"
                                  }
                              },
                              {
                                "trackIndex" : 1,
                                "medias" : [
                                  {
                                    "id" : 364,
                                    "_type" : "Callout",
                                    "def" : {
                                      "kind" : "remix",
                                      "shape" : "text",
                                      "style" : "urban",
                                      "enable-ligatures" : 1.0,
                                      "hasDropShadow" : 0.0,
                                      "height" : 170.0,
                                      "line-spacing" : 0.0,
                                      "savedXScale" : 1.0,
                                      "savedYScale" : 1.0,
                                      "width" : 1400.0,
                                      "word-wrap" : 1.0,
                                      "custom" : "Y",
                                      "horizontal-alignment" : "left",
                                      "resize-behavior" : "resizeText",
                                      "text" : "clear hypelinks from cells",
                                      "vertical-alignment" : "center",
                                      "font" : {
                                        "color-blue" : 1.0,
                                        "color-green" : 1.0,
                                        "color-red" : 1.0,
                                        "size" : 96.0,
                                        "tracking" : 0.0,
                                        "name" : "Dosis",
                                        "weight" : "Semi Bold"
                                      },
                                      "textAttributes" : {
                                        "type" : "textAttributeList",
                                        "keyframes" : [
                                          {
                                            "endTime" : 0,
                                            "time" : 0,
                                            "value" : [{"name":"underline","rangeEnd":26,"rangeStart":0,"value":0,"valueType":"int"},{"name":"strikethrough","rangeEnd":26,"rangeStart":0,"value":0,"valueType":"int"},{"name":"fontName","rangeEnd":26,"rangeStart":0,"value":"Roboto","valueType":"string"},{"name":"kerning","rangeEnd":26,"rangeStart":0,"value":0.049883078231292483,"valueType":"double"},{"name":"fontSize","rangeEnd":26,"rangeStart":0,"value":86,"valueType":"double"},{"name":"fgColor","rangeEnd":26,"rangeStart":0,"value":"(110,110,110,255)","valueType":"color"},{"name":"fontWeight","rangeEnd":26,"rangeStart":0,"value":700,"valueType":"int"},{"name":"fontItalic","rangeEnd":26,"rangeStart":0,"value":0,"valueType":"int"}],
                                            "duration" : 0
                                          }
                                        ]
                                      }
                                    },
                                    "attributes" : {
                                      "ident" : "",
                                      "autoRotateText" : true
                                    },
                                    "parameters" : {
                                      "translation1" : -2.0,
                                      "sourceCrop0" : 0.0,
                                      "sourceCrop1" : 0.0,
                                      "sourceCrop2" : 0.0,
                                      "sourceCrop3" : 0.0,
                                      "geometryCrop0" : 0.0,
                                      "geometryCrop1" : 0.0,
                                      "geometryCrop2" : 0.0,
                                      "geometryCrop3" : 0.0
                                    },
                                    "effects" : [

                                    ],
                                    "start" : 0,
                                    "duration" : 3528000000,
                                    "mediaStart" : 0,
                                    "mediaDuration" : 3528000000,
                                    "scalar" : 1,
                                    "metadata" : {
                                      "AppliedThemeId" : "",
                                      "clipSpeedAttribute" : false,
                                      "effectApplied" : "none",
                                      "lockAspectRatio" : false
                                    },
                                    "animationTracks" : {

                                    }
                                  }
                                ],
                                  "ident" : "",
                                  "audioMuted" : false,
                                  "videoHidden" : false,
                                  "magnetic" : false,
                                  "matte" : 0,
                                  "solo" : false,
                                  "metadata" : {
                                    "IsLocked" : "False",
                                    "WinTrackHeight" : "56",
                                    "trackHeight" : "54"
                                  }
                              }
                            ],
                            "attributes" : {
                              "ident" : "BP-Title-11",
                              "widthAttr" : 1405.0,
                              "heightAttr" : 167.002,
                              "gain" : 1.0,
                              "mixToMono" : false,
                              "assetProperties" : [
                                {
                                  "type" : 0,
                                  "name" : "Title",
                                  "objects" : [ 364 ],
                                  "themeMappings" :  {
                                    "font-color" : "foreground-1"
                                  }
                                },
                                {
                                  "type" : 1,
                                  "name" : "Fill",
                                  "objects" : [ 362 ],
                                  "themeMappings" :  {
                                    "fill" : "background-1"
                                  }
                                }
                              ]
                            },
                            "effects" : [

                            ],
                            "start" : 0,
                            "duration" : 3528000000,
                            "mediaStart" : 0.0,
                            "mediaDuration" : 3528000000.0,
                            "scalar" : 1,
                            "metadata" : {
                              "clipSpeedAttribute" : false,
                              "effectApplied" : "none",
                              "isOpen" : false,
                              "lockAspectRatio" : true
                            },
                            "animationTracks" : {
                              "visual" : [
                                {
                                  "endTime" : 552720000,
                                  "duration" : 552720000,
                                  "range" : [ 0, 552720000],
                                  "interp" : "eioe"
                                },
                                {
                                  "endTime" : 1775760000,
                                  "duration" : 399840000,
                                  "range" : [ 1375920000, 399840000],
                                  "interp" : "eioe"
                                }
                              ]
                            }
                          }
                        ],
                          "ident" : "",
                          "audioMuted" : false,
                          "videoHidden" : false,
                          "magnetic" : false,
                          "matte" : 0,
                          "solo" : false,
                          "metadata" : {
                            "IsLocked" : "False",
                            "WinTrackHeight" : "56",
                            "trackHeight" : "54"
                          }
                      },
                      {
                        "trackIndex" : 1,
                        "medias" : [
                          {
                            "id" : 365,
                            "_type" : "Group",
                            "parameters" : {
                              "translation0" : {
                                "type" : "double",
                                "defaultValue" : 0.0,
                                "keyframes" : [
                                  {
                                    "endTime" : 552720000,
                                    "time" : 0,
                                    "value" : 0.0,
                                    "interp" : "eioe",
                                    "duration" : 552720000
                                  },
                                  {
                                    "endTime" : 1775760000,
                                    "time" : 1375920000,
                                    "value" : 0.0,
                                    "interp" : "eioe",
                                    "duration" : 399840000
                                  }
                                ]
                              },
                              "translation1" : {
                                "type" : "double",
                                "defaultValue" : -144.610046386719,
                                "keyframes" : [
                                  {
                                    "endTime" : 552720000,
                                    "time" : 0,
                                    "value" : 0.0,
                                    "interp" : "eioe",
                                    "duration" : 552720000
                                  },
                                  {
                                    "endTime" : 1775760000,
                                    "time" : 1375920000,
                                    "value" : -144.610046386719,
                                    "interp" : "eioe",
                                    "duration" : 399840000
                                  }
                                ]
                              },
                              "sourceCrop0" : 0.0,
                              "sourceCrop1" : 0.0,
                              "sourceCrop2" : 0.0,
                              "sourceCrop3" : 0.0,
                              "geometryCrop0" : 0.0,
                              "geometryCrop1" : 0.0,
                              "geometryCrop2" : 0.0,
                              "geometryCrop3" : 0.0,
                              "opacity" : {
                                "type" : "double",
                                "defaultValue" : 1.0,
                                "keyframes" : [
                                  {
                                    "endTime" : 552720000,
                                    "time" : 0,
                                    "value" : 1.0,
                                    "interp" : "eioe",
                                    "duration" : 552720000
                                  }
                                ]
                              },
                              "volume" : 1.0
                            },
                            "tracks" : [
                              {
                                "trackIndex" : 0,
                                "medias" : [
                                  {
                                    "id" : 366,
                                    "_type" : "Callout",
                                    "def" : {
                                      "kind" : "remix",
                                      "shape" : "shape-rectangle",
                                      "style" : "bold",
                                      "fill-color-blue" : 0.913725490196078,
                                      "fill-color-green" : 0.949019607843137,
                                      "fill-color-opacity" : 1.0,
                                      "fill-color-red" : 0.933333333333333,
                                      "hasDropShadow" : 0.0,
                                      "height" : 163.002035140991,
                                      "savedXScale" : 1.0,
                                      "savedYScale" : 1.0,
                                      "stroke-color-blue" : 1.0,
                                      "stroke-color-green" : 1.0,
                                      "stroke-color-opacity" : 1.0,
                                      "stroke-color-red" : 1.0,
                                      "stroke-width" : 0.0,
                                      "width" : 1403.00212860107,
                                      "custom" : "Y",
                                      "fill-style" : "solid",
                                      "stroke-style" : "solid"
                                    },
                                    "attributes" : {
                                      "ident" : "",
                                      "autoRotateText" : true
                                    },
                                    "parameters" : {
                                      "anchor0" : -1.0,
                                      "anchor1" : 2.0,
                                      "sourceCrop0" : 0.0,
                                      "sourceCrop1" : 0.0,
                                      "sourceCrop2" : 0.0,
                                      "sourceCrop3" : 0.0,
                                      "geometryCrop0" : 0.0,
                                      "geometryCrop1" : 0.0,
                                      "geometryCrop2" : 0.0,
                                      "geometryCrop3" : 0.0
                                    },
                                    "effects" : [

                                    ],
                                    "start" : 0,
                                    "duration" : 3528000000,
                                    "mediaStart" : 0,
                                    "mediaDuration" : 3528000000,
                                    "scalar" : 1,
                                    "metadata" : {
                                      "AppliedThemeId" : "",
                                      "clipSpeedAttribute" : false,
                                      "effectApplied" : "none",
                                      "lockAspectRatio" : false
                                    },
                                    "animationTracks" : {

                                    }
                                  }
                                ],
                                  "ident" : "",
                                  "audioMuted" : false,
                                  "videoHidden" : false,
                                  "magnetic" : false,
                                  "matte" : 0,
                                  "solo" : false,
                                  "metadata" : {
                                    "IsLocked" : "False",
                                    "WinTrackHeight" : "56",
                                    "trackHeight" : "54"
                                  }
                              },
                              {
                                "trackIndex" : 1,
                                "medias" : [
                                  {
                                    "id" : 367,
                                    "_type" : "Callout",
                                    "def" : {
                                      "kind" : "remix",
                                      "shape" : "shape-rectangle",
                                      "style" : "bold",
                                      "fill-color-blue" : 0.756862759590149,
                                      "fill-color-green" : 0.18823529779911,
                                      "fill-color-opacity" : 1.0,
                                      "fill-color-red" : 0.960784316062927,
                                      "hasDropShadow" : 0.0,
                                      "height" : 160.0,
                                      "savedXScale" : 1.0,
                                      "savedYScale" : 1.0,
                                      "stroke-color-blue" : 0.886274516582489,
                                      "stroke-color-green" : 0.200000002980232,
                                      "stroke-color-opacity" : 0.0,
                                      "stroke-color-red" : 0.376470595598221,
                                      "stroke-width" : 0.0,
                                      "width" : 1400.0,
                                      "custom" : "Y",
                                      "fill-style" : "solid",
                                      "stroke-style" : "solid"
                                    },
                                    "attributes" : {
                                      "ident" : "",
                                      "autoRotateText" : true
                                    },
                                    "parameters" : {
                                      "sourceCrop0" : 0.0,
                                      "sourceCrop1" : 0.0,
                                      "sourceCrop2" : 0.0,
                                      "sourceCrop3" : 0.0,
                                      "geometryCrop0" : 0.0,
                                      "geometryCrop1" : 0.0,
                                      "geometryCrop2" : 0.0,
                                      "geometryCrop3" : 0.0
                                    },
                                    "effects" : [

                                    ],
                                    "start" : 0,
                                    "duration" : 3528000000,
                                    "mediaStart" : 0,
                                    "mediaDuration" : 3528000000,
                                    "scalar" : 1,
                                    "metadata" : {
                                      "AppliedThemeId" : "",
                                      "clipSpeedAttribute" : false,
                                      "effectApplied" : "none"
                                    },
                                    "animationTracks" : {

                                    }
                                  }
                                ],
                                  "ident" : "",
                                  "audioMuted" : false,
                                  "videoHidden" : false,
                                  "magnetic" : false,
                                  "matte" : 1,
                                  "solo" : false,
                                  "metadata" : {
                                    "IsLocked" : "False",
                                    "WinTrackHeight" : "56",
                                    "trackHeight" : "54"
                                  }
                              }
                            ],
                            "attributes" : {
                              "ident" : "Rect-1400x1600-Mask",
                              "widthAttr" : 1405.0,
                              "heightAttr" : 167.002,
                              "gain" : 1.0,
                              "mixToMono" : false
                            },
                            "effects" : [

                            ],
                            "start" : 0,
                            "duration" : 3528000000,
                            "mediaStart" : 0.0,
                            "mediaDuration" : 3528000000.0,
                            "scalar" : 1,
                            "metadata" : {
                              "clipSpeedAttribute" : false,
                              "effectApplied" : "none",
                              "isOpen" : false,
                              "lockAspectRatio" : true
                            },
                            "animationTracks" : {
                              "visual" : [
                                {
                                  "endTime" : 552720000,
                                  "duration" : 552720000,
                                  "range" : [ 0, 552720000],
                                  "interp" : "eioe"
                                },
                                {
                                  "endTime" : 1775760000,
                                  "duration" : 399840000,
                                  "range" : [ 1375920000, 399840000],
                                  "interp" : "eioe"
                                }
                              ]
                            }
                          }
                        ],
                          "ident" : "",
                          "audioMuted" : false,
                          "videoHidden" : false,
                          "magnetic" : false,
                          "matte" : 1,
                          "solo" : false,
                          "metadata" : {
                            "IsLocked" : "False",
                            "WinTrackHeight" : "56",
                            "trackHeight" : "54"
                          }
                      },
                      {
                        "trackIndex" : 2,
                        "medias" : [
                          {
                            "id" : 368,
                            "_type" : "Group",
                            "parameters" : {
                              "translation0" : {
                                "type" : "double",
                                "defaultValue" : 0.0,
                                "keyframes" : [
                                  {
                                    "endTime" : 552720000,
                                    "time" : 0,
                                    "value" : 0.0,
                                    "interp" : "eioe",
                                    "duration" : 552720000
                                  },
                                  {
                                    "endTime" : 1775760000,
                                    "time" : 1375920000,
                                    "value" : 0.0,
                                    "interp" : "eioe",
                                    "duration" : 399840000
                                  }
                                ]
                              },
                              "translation1" : {
                                "type" : "double",
                                "defaultValue" : -233.610046386719,
                                "keyframes" : [
                                  {
                                    "endTime" : 552720000,
                                    "time" : 0,
                                    "value" : 90.0,
                                    "interp" : "eioe",
                                    "duration" : 552720000
                                  },
                                  {
                                    "endTime" : 1775760000,
                                    "time" : 1375920000,
                                    "value" : -233.610046386719,
                                    "interp" : "eioe",
                                    "duration" : 399840000
                                  }
                                ]
                              },
                              "sourceCrop0" : 0.0,
                              "sourceCrop1" : 0.0,
                              "sourceCrop2" : 0.0,
                              "sourceCrop3" : 0.0,
                              "geometryCrop0" : 0.0,
                              "geometryCrop1" : 0.0,
                              "geometryCrop2" : 0.0,
                              "geometryCrop3" : 0.0,
                              "opacity" : {
                                "type" : "double",
                                "defaultValue" : 1.0,
                                "keyframes" : [
                                  {
                                    "endTime" : 552720000,
                                    "time" : 0,
                                    "value" : 1.0,
                                    "interp" : "eioe",
                                    "duration" : 552720000
                                  }
                                ]
                              },
                              "volume" : 1.0
                            },
                            "tracks" : [
                              {
                                "trackIndex" : 0,
                                "medias" : [
                                  {
                                    "id" : 369,
                                    "_type" : "Callout",
                                    "def" : {
                                      "kind" : "remix",
                                      "shape" : "shape-rectangle",
                                      "style" : "bold",
                                      "fill-color-blue" : 0.2196078431,
                                      "fill-color-green" : 0.8745098039,
                                      "fill-color-opacity" : 1.0,
                                      "fill-color-red" : 1.0,
                                      "hasDropShadow" : 0.0,
                                      "height" : 163.002035140991,
                                      "savedXScale" : 1.0,
                                      "savedYScale" : 1.0,
                                      "stroke-color-blue" : 1.0,
                                      "stroke-color-green" : 1.0,
                                      "stroke-color-opacity" : 1.0,
                                      "stroke-color-red" : 1.0,
                                      "stroke-width" : 0.0,
                                      "width" : 1403.00212860107,
                                      "custom" : "Y",
                                      "fill-style" : "solid",
                                      "stroke-style" : "solid"
                                    },
                                    "attributes" : {
                                      "ident" : "",
                                      "autoRotateText" : true
                                    },
                                    "parameters" : {
                                      "anchor0" : -1.0,
                                      "anchor1" : 2.0,
                                      "sourceCrop0" : 0.0,
                                      "sourceCrop1" : 0.0,
                                      "sourceCrop2" : 0.0,
                                      "sourceCrop3" : 0.0,
                                      "geometryCrop0" : 0.0,
                                      "geometryCrop1" : 0.0,
                                      "geometryCrop2" : 0.0,
                                      "geometryCrop3" : 0.0
                                    },
                                    "effects" : [

                                    ],
                                    "start" : 0,
                                    "duration" : 3528000000,
                                    "mediaStart" : 0,
                                    "mediaDuration" : 3528000000,
                                    "scalar" : 1,
                                    "metadata" : {
                                      "AppliedThemeId" : "",
                                      "clipSpeedAttribute" : false,
                                      "effectApplied" : "none",
                                      "lockAspectRatio" : false
                                    },
                                    "animationTracks" : {

                                    }
                                  }
                                ],
                                  "ident" : "",
                                  "audioMuted" : false,
                                  "videoHidden" : false,
                                  "magnetic" : false,
                                  "matte" : 0,
                                  "solo" : false,
                                  "metadata" : {
                                    "IsLocked" : "False",
                                    "WinTrackHeight" : "56",
                                    "trackHeight" : "54"
                                  }
                              },
                              {
                                "trackIndex" : 1,
                                "medias" : [
                                  {
                                    "id" : 370,
                                    "_type" : "Callout",
                                    "def" : {
                                      "kind" : "remix",
                                      "shape" : "shape-rectangle",
                                      "style" : "bold",
                                      "fill-color-blue" : 0.756862759590149,
                                      "fill-color-green" : 0.18823529779911,
                                      "fill-color-opacity" : 1.0,
                                      "fill-color-red" : 0.960784316062927,
                                      "hasDropShadow" : 0.0,
                                      "height" : 160.0,
                                      "savedXScale" : 1.0,
                                      "savedYScale" : 1.0,
                                      "stroke-color-blue" : 0.886274516582489,
                                      "stroke-color-green" : 0.200000002980232,
                                      "stroke-color-opacity" : 0.0,
                                      "stroke-color-red" : 0.376470595598221,
                                      "stroke-width" : 0.0,
                                      "width" : 1400.0,
                                      "custom" : "Y",
                                      "fill-style" : "solid",
                                      "stroke-style" : "solid"
                                    },
                                    "attributes" : {
                                      "ident" : "",
                                      "autoRotateText" : true
                                    },
                                    "parameters" : {
                                      "translation1" : {
                                        "type" : "double",
                                        "defaultValue" : -1.0,
                                        "keyframes" : [
                                          {
                                            "endTime" : 270480000,
                                            "time" : 0,
                                            "value" : 0.0,
                                            "duration" : 270480000
                                          }
                                        ]
                                      },
                                      "scale0" : {
                                        "type" : "double",
                                        "defaultValue" : 1.0,
                                        "keyframes" : [
                                          {
                                            "endTime" : 270480000,
                                            "time" : 0,
                                            "value" : 1.0,
                                            "duration" : 270480000
                                          }
                                        ]
                                      },
                                      "scale1" : {
                                        "type" : "double",
                                        "defaultValue" : 0.125,
                                        "keyframes" : [
                                          {
                                            "endTime" : 270480000,
                                            "time" : 0,
                                            "value" : 0.5,
                                            "duration" : 270480000
                                          },
                                          {
                                            "endTime" : 552720000,
                                            "time" : 282240000,
                                            "value" : 0.125,
                                            "duration" : 270480000
                                          }
                                        ]
                                      },
                                      "sourceCrop0" : 0.0,
                                      "sourceCrop1" : 0.0,
                                      "sourceCrop2" : 0.0,
                                      "sourceCrop3" : 0.0,
                                      "geometryCrop0" : 0.0,
                                      "geometryCrop1" : 0.0,
                                      "geometryCrop2" : 0.0,
                                      "geometryCrop3" : 0.0
                                    },
                                    "effects" : [

                                    ],
                                    "start" : 0,
                                    "duration" : 3528000000,
                                    "mediaStart" : 0,
                                    "mediaDuration" : 3528000000,
                                    "scalar" : 1,
                                    "metadata" : {
                                      "AppliedThemeId" : "",
                                      "clipSpeedAttribute" : false,
                                      "effectApplied" : "none"
                                    },
                                    "animationTracks" : {
                                      "visual" : [
                                        {
                                          "endTime" : 270480000,
                                          "duration" : 270480000,
                                          "range" : [ 0, 270480000]
                                        },
                                        {
                                          "endTime" : 552720000,
                                          "duration" : 270480000,
                                          "range" : [ 282240000, 270480000]
                                        }
                                      ]
                                    }
                                  }
                                ],
                                  "ident" : "",
                                  "audioMuted" : false,
                                  "videoHidden" : false,
                                  "magnetic" : false,
                                  "matte" : 1,
                                  "solo" : false,
                                  "metadata" : {
                                    "IsLocked" : "False",
                                    "WinTrackHeight" : "56",
                                    "trackHeight" : "54"
                                  }
                              }
                            ],
                            "attributes" : {
                              "ident" : "Animated-Pulse-1400x20-To-1400x80",
                              "widthAttr" : 1405.0,
                              "heightAttr" : 167.002,
                              "gain" : 1.0,
                              "mixToMono" : false,
                              "assetProperties" : [
                                {
                                  "type" : 1,
                                  "name" : "Color",
                                  "objects" : [ 369 ],
                                  "themeMappings" :  {
                                    "fill" : "accent-1"
                                  }
                                }
                              ]
                            },
                            "effects" : [

                            ],
                            "start" : 0,
                            "duration" : 3528000000,
                            "mediaStart" : 0.0,
                            "mediaDuration" : 3528000000.0,
                            "scalar" : 1,
                            "metadata" : {
                              "AppliedThemeId" : "8e797988-b823-4beb-b251-1d31b461ba07",
                              "clipSpeedAttribute" : false,
                              "effectApplied" : "none",
                              "isOpen" : false,
                              "lockAspectRatio" : true
                            },
                            "animationTracks" : {
                              "visual" : [
                                {
                                  "endTime" : 552720000,
                                  "duration" : 552720000,
                                  "range" : [ 0, 552720000],
                                  "interp" : "eioe"
                                },
                                {
                                  "endTime" : 1775760000,
                                  "duration" : 399840000,
                                  "range" : [ 1375920000, 399840000],
                                  "interp" : "eioe"
                                }
                              ]
                            }
                          }
                        ],
                          "ident" : "",
                          "audioMuted" : false,
                          "videoHidden" : false,
                          "magnetic" : false,
                          "matte" : 0,
                          "solo" : false,
                          "metadata" : {
                            "IsLocked" : "False",
                            "WinTrackHeight" : "56",
                            "trackHeight" : "54"
                          }
                      },
                      {
                        "trackIndex" : 3,
                        "medias" : [
                          {
                            "id" : 371,
                            "_type" : "Group",
                            "parameters" : {
                              "translation0" : {
                                "type" : "double",
                                "defaultValue" : 0.0,
                                "keyframes" : [
                                  {
                                    "endTime" : 552720000,
                                    "time" : 0,
                                    "value" : 0.0,
                                    "interp" : "eioe",
                                    "duration" : 552720000
                                  },
                                  {
                                    "endTime" : 1775760000,
                                    "time" : 1375920000,
                                    "value" : 0.0,
                                    "interp" : "eioe",
                                    "duration" : 399840000
                                  }
                                ]
                              },
                              "translation1" : {
                                "type" : "double",
                                "defaultValue" : -143.610046386719,
                                "keyframes" : [
                                  {
                                    "endTime" : 552720000,
                                    "time" : 0,
                                    "value" : 0.0,
                                    "interp" : "eioe",
                                    "duration" : 552720000
                                  },
                                  {
                                    "endTime" : 1775760000,
                                    "time" : 1375920000,
                                    "value" : -143.610046386719,
                                    "interp" : "eioe",
                                    "duration" : 399840000
                                  }
                                ]
                              },
                              "sourceCrop0" : 0.0,
                              "sourceCrop1" : 0.0,
                              "sourceCrop2" : 0.0,
                              "sourceCrop3" : 0.0,
                              "geometryCrop0" : 0.0,
                              "geometryCrop1" : 0.0,
                              "geometryCrop2" : 0.0,
                              "geometryCrop3" : 0.0,
                              "opacity" : {
                                "type" : "double",
                                "defaultValue" : 1.0,
                                "keyframes" : [
                                  {
                                    "endTime" : 552720000,
                                    "time" : 0,
                                    "value" : 1.0,
                                    "interp" : "eioe",
                                    "duration" : 552720000
                                  }
                                ]
                              },
                              "volume" : 1.0
                            },
                            "tracks" : [
                              {
                                "trackIndex" : 0,
                                "medias" : [
                                  {
                                    "id" : 372,
                                    "_type" : "Callout",
                                    "def" : {
                                      "kind" : "remix",
                                      "shape" : "shape-rectangle",
                                      "style" : "bold",
                                      "fill-color-blue" : 0.913725490196078,
                                      "fill-color-green" : 0.949019607843137,
                                      "fill-color-opacity" : 1.0,
                                      "fill-color-red" : 0.933333333333333,
                                      "hasDropShadow" : 0.0,
                                      "height" : 163.002035140991,
                                      "savedXScale" : 1.0,
                                      "savedYScale" : 1.0,
                                      "stroke-color-blue" : 1.0,
                                      "stroke-color-green" : 1.0,
                                      "stroke-color-opacity" : 1.0,
                                      "stroke-color-red" : 1.0,
                                      "stroke-width" : 0.0,
                                      "width" : 1403.00212860107,
                                      "custom" : "Y",
                                      "fill-style" : "solid",
                                      "stroke-style" : "solid"
                                    },
                                    "attributes" : {
                                      "ident" : "",
                                      "autoRotateText" : true
                                    },
                                    "parameters" : {
                                      "anchor0" : -1.0,
                                      "anchor1" : 2.0,
                                      "sourceCrop0" : 0.0,
                                      "sourceCrop1" : 0.0,
                                      "sourceCrop2" : 0.0,
                                      "sourceCrop3" : 0.0,
                                      "geometryCrop0" : 0.0,
                                      "geometryCrop1" : 0.0,
                                      "geometryCrop2" : 0.0,
                                      "geometryCrop3" : 0.0
                                    },
                                    "effects" : [

                                    ],
                                    "start" : 0,
                                    "duration" : 3528000000,
                                    "mediaStart" : 0,
                                    "mediaDuration" : 3528000000,
                                    "scalar" : 1,
                                    "metadata" : {
                                      "AppliedThemeId" : "",
                                      "clipSpeedAttribute" : false,
                                      "effectApplied" : "none",
                                      "lockAspectRatio" : false
                                    },
                                    "animationTracks" : {

                                    }
                                  }
                                ],
                                  "ident" : "",
                                  "audioMuted" : false,
                                  "videoHidden" : false,
                                  "magnetic" : false,
                                  "matte" : 0,
                                  "solo" : false,
                                  "metadata" : {
                                    "IsLocked" : "False",
                                    "WinTrackHeight" : "56",
                                    "trackHeight" : "54"
                                  }
                              },
                              {
                                "trackIndex" : 1,
                                "medias" : [
                                  {
                                    "id" : 373,
                                    "_type" : "Callout",
                                    "def" : {
                                      "kind" : "remix",
                                      "shape" : "shape-rectangle",
                                      "style" : "bold",
                                      "fill-color-blue" : 0.756862759590149,
                                      "fill-color-green" : 0.18823529779911,
                                      "fill-color-opacity" : 1.0,
                                      "fill-color-red" : 0.960784316062927,
                                      "hasDropShadow" : 0.0,
                                      "height" : 160.0,
                                      "savedXScale" : 1.0,
                                      "savedYScale" : 1.0,
                                      "stroke-color-blue" : 0.886274516582489,
                                      "stroke-color-green" : 0.200000002980232,
                                      "stroke-color-opacity" : 0.0,
                                      "stroke-color-red" : 0.376470595598221,
                                      "stroke-width" : 0.0,
                                      "width" : 1400.0,
                                      "custom" : "Y",
                                      "fill-style" : "solid",
                                      "stroke-style" : "solid"
                                    },
                                    "attributes" : {
                                      "ident" : "",
                                      "autoRotateText" : true
                                    },
                                    "parameters" : {
                                      "sourceCrop0" : 0.0,
                                      "sourceCrop1" : 0.0,
                                      "sourceCrop2" : 0.0,
                                      "sourceCrop3" : 0.0,
                                      "geometryCrop0" : 0.0,
                                      "geometryCrop1" : 0.0,
                                      "geometryCrop2" : 0.0,
                                      "geometryCrop3" : 0.0
                                    },
                                    "effects" : [

                                    ],
                                    "start" : 0,
                                    "duration" : 3528000000,
                                    "mediaStart" : 0,
                                    "mediaDuration" : 3528000000,
                                    "scalar" : 1,
                                    "metadata" : {
                                      "AppliedThemeId" : "",
                                      "clipSpeedAttribute" : false,
                                      "effectApplied" : "none"
                                    },
                                    "animationTracks" : {

                                    }
                                  }
                                ],
                                  "ident" : "",
                                  "audioMuted" : false,
                                  "videoHidden" : false,
                                  "magnetic" : false,
                                  "matte" : 1,
                                  "solo" : false,
                                  "metadata" : {
                                    "IsLocked" : "False",
                                    "WinTrackHeight" : "56",
                                    "trackHeight" : "54"
                                  }
                              }
                            ],
                            "attributes" : {
                              "ident" : "Rect-1400x1600-Mask",
                              "widthAttr" : 1405.0,
                              "heightAttr" : 167.002,
                              "gain" : 1.0,
                              "mixToMono" : false
                            },
                            "effects" : [

                            ],
                            "start" : 0,
                            "duration" : 3528000000,
                            "mediaStart" : 0.0,
                            "mediaDuration" : 3528000000.0,
                            "scalar" : 1,
                            "metadata" : {
                              "clipSpeedAttribute" : false,
                              "effectApplied" : "none",
                              "isOpen" : false,
                              "lockAspectRatio" : true
                            },
                            "animationTracks" : {
                              "visual" : [
                                {
                                  "endTime" : 552720000,
                                  "duration" : 552720000,
                                  "range" : [ 0, 552720000],
                                  "interp" : "eioe"
                                },
                                {
                                  "endTime" : 1775760000,
                                  "duration" : 399840000,
                                  "range" : [ 1375920000, 399840000],
                                  "interp" : "eioe"
                                }
                              ]
                            }
                          }
                        ],
                          "ident" : "",
                          "audioMuted" : false,
                          "videoHidden" : false,
                          "magnetic" : false,
                          "matte" : 1,
                          "solo" : false,
                          "metadata" : {
                            "IsLocked" : "False",
                            "WinTrackHeight" : "56",
                            "trackHeight" : "54"
                          }
                      }
                    ],
                    "attributes" : {
                      "ident" : "Broadcast-Title-012",
                      "widthAttr" : 1405.0,
                      "heightAttr" : 160.0,
                      "gain" : 1.0,
                      "mixToMono" : false,
                      "assetProperties" : [
                        {
                          "type" : 0,
                          "name" : "Title",
                          "objects" : [ 364 ],
                          "themeMappings" :  {
                            "font-color" : "foreground-1"
                          }
                        },
                        {
                          "type" : 1,
                          "name" : "Fill",
                          "objects" : [ 362 ],
                          "themeMappings" :  {
                            "fill" : "background-1"
                          }
                        },
                        {
                          "type" : 1,
                          "name" : "Wiper",
                          "objects" : [ 369 ],
                          "themeMappings" :  {
                            "fill" : "foreground-1"
                          }
                        }
                      ]
                    },
                    "effects" : [

                    ],
                    "start" : 1928640000,
                    "duration" : 1764000000,
                    "mediaStart" : 0.0,
                    "mediaDuration" : 1764000000.0,
                    "scalar" : 1,
                    "metadata" : {
                      "AppliedThemeId" : "170ba59c-db5d-4b9a-a310-e7e99853a4b7",
                      "clipSpeedAttribute" : false,
                      "default-anchor0" : 0.0,
                      "default-anchor1" : 0.0,
                      "default-anchor2" : 0.0,
                      "default-geometryCrop0" : 0.0,
                      "default-geometryCrop2" : 0.0,
                      "default-height" : 160.0,
                      "default-rotation0" : 0.0,
                      "default-rotation1" : 0.0,
                      "default-rotation2" : 0.0,
                      "default-scale0" : 1.0,
                      "default-scale1" : 1.0,
                      "default-scale2" : 1.0,
                      "default-shear0" : 0.0,
                      "default-shear1" : 0.0,
                      "default-shear2" : 0.0,
                      "default-translation0" : 0.0,
                      "default-translation1" : 0.0,
                      "default-translation2" : 0.0,
                      "default-width" : 1405.0,
                      "effectApplied" : "none",
                      "isOpen" : false,
                      "lockAspectRatio" : true
                    },
                    "animationTracks" : {

                    }
                  }
                ]
              },
              {
                "trackIndex" : 111,
                "medias" : [
                  {
                    "id" : 374,
                    "_type" : "Group",
                    "parameters" : {
                      "translation0" : -415.0,
                      "translation1" : 450.0,
                      "scale0" : 0.214669051878354,
                      "scale1" : 0.21875,
                      "sourceCrop0" : 0.0,
                      "sourceCrop1" : 0.0,
                      "sourceCrop2" : 0.0,
                      "sourceCrop3" : 0.0,
                      "geometryCrop0" : 0.0,
                      "geometryCrop1" : 0.0,
                      "geometryCrop2" : 7.4999999999992,
                      "geometryCrop3" : 0.0,
                      "volume" : 1.0
                    },
                    "tracks" : [
                      {
                        "trackIndex" : 0,
                        "medias" : [
                          {
                            "id" : 375,
                            "_type" : "Group",
                            "parameters" : {
                              "translation0" : {
                                "type" : "double",
                                "defaultValue" : 0.0,
                                "keyframes" : [
                                  {
                                    "endTime" : 552720000,
                                    "time" : 0,
                                    "value" : 0.0,
                                    "interp" : "eioe",
                                    "duration" : 552720000
                                  },
                                  {
                                    "endTime" : 1775760000,
                                    "time" : 1375920000,
                                    "value" : 0.0,
                                    "interp" : "eioe",
                                    "duration" : 399840000
                                  }
                                ]
                              },
                              "translation1" : {
                                "type" : "double",
                                "defaultValue" : -305.610046386719,
                                "keyframes" : [
                                  {
                                    "endTime" : 552720000,
                                    "time" : 0,
                                    "value" : 0.0,
                                    "interp" : "eioe",
                                    "duration" : 552720000
                                  },
                                  {
                                    "endTime" : 1775760000,
                                    "time" : 1375920000,
                                    "value" : -304.610046386719,
                                    "interp" : "eioe",
                                    "duration" : 399840000
                                  }
                                ]
                              },
                              "sourceCrop0" : 0.0,
                              "sourceCrop1" : 0.0,
                              "sourceCrop2" : 0.0,
                              "sourceCrop3" : 0.0,
                              "geometryCrop0" : 0.0,
                              "geometryCrop1" : 0.0,
                              "geometryCrop2" : 0.0,
                              "geometryCrop3" : 0.0,
                              "volume" : 1.0
                            },
                            "tracks" : [
                              {
                                "trackIndex" : 0,
                                "medias" : [
                                  {
                                    "id" : 376,
                                    "_type" : "Group",
                                    "parameters" : {
                                      "sourceCrop0" : 0.0,
                                      "sourceCrop1" : 0.0,
                                      "sourceCrop2" : 0.0,
                                      "sourceCrop3" : 0.0,
                                      "geometryCrop0" : 0.0,
                                      "geometryCrop1" : 0.0,
                                      "geometryCrop2" : 0.0,
                                      "geometryCrop3" : 0.0,
                                      "volume" : 1.0
                                    },
                                    "tracks" : [
                                      {
                                        "trackIndex" : 0,
                                        "medias" : [
                                          {
                                            "id" : 377,
                                            "_type" : "Callout",
                                            "def" : {
                                              "kind" : "remix",
                                              "shape" : "shape-rectangle",
                                              "style" : "bold",
                                              "fill-color-blue" : 1.0,
                                              "fill-color-green" : 1.0,
                                              "fill-color-opacity" : 1.0,
                                              "fill-color-red" : 1.0,
                                              "hasDropShadow" : 0.0,
                                              "height" : 163.002035140991,
                                              "savedXScale" : 1.0,
                                              "savedYScale" : 1.0,
                                              "stroke-color-blue" : 1.0,
                                              "stroke-color-green" : 1.0,
                                              "stroke-color-opacity" : 1.0,
                                              "stroke-color-red" : 1.0,
                                              "stroke-width" : 0.0,
                                              "width" : 1403.00212860107,
                                              "custom" : "Y",
                                              "fill-style" : "solid",
                                              "stroke-style" : "solid"
                                            },
                                            "attributes" : {
                                              "ident" : "",
                                              "autoRotateText" : true
                                            },
                                            "parameters" : {
                                              "anchor0" : -1.0,
                                              "anchor1" : 2.0,
                                              "sourceCrop0" : 0.0,
                                              "sourceCrop1" : 0.0,
                                              "sourceCrop2" : 0.0,
                                              "sourceCrop3" : 0.0,
                                              "geometryCrop0" : 0.0,
                                              "geometryCrop1" : 0.0,
                                              "geometryCrop2" : 0.0,
                                              "geometryCrop3" : 0.0
                                            },
                                            "effects" : [

                                            ],
                                            "start" : 0,
                                            "duration" : 3528000000,
                                            "mediaStart" : 0,
                                            "mediaDuration" : 3528000000,
                                            "scalar" : 1,
                                            "metadata" : {
                                              "AppliedThemeId" : "",
                                              "clipSpeedAttribute" : false,
                                              "effectApplied" : "none",
                                              "lockAspectRatio" : false
                                            },
                                            "animationTracks" : {

                                            }
                                          }
                                        ],
                                          "ident" : "",
                                          "audioMuted" : false,
                                          "videoHidden" : false,
                                          "magnetic" : false,
                                          "matte" : 0,
                                          "solo" : false,
                                          "metadata" : {
                                            "IsLocked" : "False",
                                            "WinTrackHeight" : "56",
                                            "trackHeight" : "54"
                                          }
                                      },
                                      {
                                        "trackIndex" : 1,
                                        "medias" : [
                                          {
                                            "id" : 378,
                                            "_type" : "Callout",
                                            "def" : {
                                              "kind" : "remix",
                                              "shape" : "shape-rectangle",
                                              "style" : "bold",
                                              "fill-color-blue" : 0.756862759590149,
                                              "fill-color-green" : 0.18823529779911,
                                              "fill-color-opacity" : 1.0,
                                              "fill-color-red" : 0.960784316062927,
                                              "hasDropShadow" : 0.0,
                                              "height" : 160.0,
                                              "savedXScale" : 1.0,
                                              "savedYScale" : 1.0,
                                              "stroke-color-blue" : 0.886274516582489,
                                              "stroke-color-green" : 0.200000002980232,
                                              "stroke-color-opacity" : 0.0,
                                              "stroke-color-red" : 0.376470595598221,
                                              "stroke-width" : 0.0,
                                              "width" : 1400.0,
                                              "custom" : "Y",
                                              "fill-style" : "solid",
                                              "stroke-style" : "solid"
                                            },
                                            "attributes" : {
                                              "ident" : "",
                                              "autoRotateText" : true
                                            },
                                            "parameters" : {
                                              "sourceCrop0" : 0.0,
                                              "sourceCrop1" : 0.0,
                                              "sourceCrop2" : 0.0,
                                              "sourceCrop3" : 0.0,
                                              "geometryCrop0" : 0.0,
                                              "geometryCrop1" : 0.0,
                                              "geometryCrop2" : 0.0,
                                              "geometryCrop3" : 0.0
                                            },
                                            "effects" : [

                                            ],
                                            "start" : 0,
                                            "duration" : 3528000000,
                                            "mediaStart" : 0,
                                            "mediaDuration" : 3528000000,
                                            "scalar" : 1,
                                            "metadata" : {
                                              "AppliedThemeId" : "",
                                              "clipSpeedAttribute" : false,
                                              "effectApplied" : "none"
                                            },
                                            "animationTracks" : {

                                            }
                                          }
                                        ],
                                          "ident" : "",
                                          "audioMuted" : false,
                                          "videoHidden" : false,
                                          "magnetic" : false,
                                          "matte" : 1,
                                          "solo" : false,
                                          "metadata" : {
                                            "IsLocked" : "False",
                                            "WinTrackHeight" : "56",
                                            "trackHeight" : "54"
                                          }
                                      }
                                    ],
                                    "attributes" : {
                                      "ident" : "Fill-1400x160",
                                      "widthAttr" : 1405.0,
                                      "heightAttr" : 167.002,
                                      "gain" : 1.0,
                                      "mixToMono" : false
                                    },
                                    "effects" : [

                                    ],
                                    "start" : 0,
                                    "duration" : 3528000000,
                                    "mediaStart" : 0.0,
                                    "mediaDuration" : 3528000000.0,
                                    "scalar" : 1,
                                    "metadata" : {
                                      "clipSpeedAttribute" : false,
                                      "effectApplied" : "none",
                                      "isOpen" : false,
                                      "lockAspectRatio" : true
                                    },
                                    "animationTracks" : {

                                    }
                                  }
                                ],
                                  "ident" : "",
                                  "audioMuted" : false,
                                  "videoHidden" : false,
                                  "magnetic" : false,
                                  "matte" : 0,
                                  "solo" : false,
                                  "metadata" : {
                                    "IsLocked" : "False",
                                    "WinTrackHeight" : "56",
                                    "trackHeight" : "54"
                                  }
                              },
                              {
                                "trackIndex" : 1,
                                "medias" : [
                                  {
                                    "id" : 379,
                                    "_type" : "Callout",
                                    "def" : {
                                      "kind" : "remix",
                                      "shape" : "text",
                                      "style" : "urban",
                                      "enable-ligatures" : 1.0,
                                      "hasDropShadow" : 0.0,
                                      "height" : 170.0,
                                      "line-spacing" : 0.0,
                                      "savedXScale" : 1.0,
                                      "savedYScale" : 1.0,
                                      "width" : 1400.0,
                                      "word-wrap" : 1.0,
                                      "custom" : "Y",
                                      "horizontal-alignment" : "left",
                                      "resize-behavior" : "resizeText",
                                      "text" : "fill down formula from cell ",
                                      "vertical-alignment" : "center",
                                      "font" : {
                                        "color-blue" : 1.0,
                                        "color-green" : 1.0,
                                        "color-red" : 1.0,
                                        "size" : 96.0,
                                        "tracking" : 0.0,
                                        "name" : "Dosis",
                                        "weight" : "Semi Bold"
                                      },
                                      "textAttributes" : {
                                        "type" : "textAttributeList",
                                        "keyframes" : [
                                          {
                                            "endTime" : 0,
                                            "time" : 0,
                                            "value" : [{"name":"underline","rangeEnd":28,"rangeStart":0,"value":0,"valueType":"int"},{"name":"strikethrough","rangeEnd":28,"rangeStart":0,"value":0,"valueType":"int"},{"name":"fontName","rangeEnd":28,"rangeStart":0,"value":"Roboto","valueType":"string"},{"name":"kerning","rangeEnd":28,"rangeStart":0,"value":0.049883078231292483,"valueType":"double"},{"name":"fontSize","rangeEnd":28,"rangeStart":0,"value":86,"valueType":"double"},{"name":"fgColor","rangeEnd":28,"rangeStart":0,"value":"(110,110,110,255)","valueType":"color"},{"name":"fontWeight","rangeEnd":28,"rangeStart":0,"value":700,"valueType":"int"},{"name":"fontItalic","rangeEnd":28,"rangeStart":0,"value":0,"valueType":"int"}],
                                            "duration" : 0
                                          }
                                        ]
                                      }
                                    },
                                    "attributes" : {
                                      "ident" : "",
                                      "autoRotateText" : true
                                    },
                                    "parameters" : {
                                      "translation1" : -2.0,
                                      "sourceCrop0" : 0.0,
                                      "sourceCrop1" : 0.0,
                                      "sourceCrop2" : 0.0,
                                      "sourceCrop3" : 0.0,
                                      "geometryCrop0" : 0.0,
                                      "geometryCrop1" : 0.0,
                                      "geometryCrop2" : 0.0,
                                      "geometryCrop3" : 0.0
                                    },
                                    "effects" : [

                                    ],
                                    "start" : 0,
                                    "duration" : 3528000000,
                                    "mediaStart" : 0,
                                    "mediaDuration" : 3528000000,
                                    "scalar" : 1,
                                    "metadata" : {
                                      "AppliedThemeId" : "",
                                      "clipSpeedAttribute" : false,
                                      "effectApplied" : "none",
                                      "lockAspectRatio" : false
                                    },
                                    "animationTracks" : {

                                    }
                                  }
                                ],
                                  "ident" : "",
                                  "audioMuted" : false,
                                  "videoHidden" : false,
                                  "magnetic" : false,
                                  "matte" : 0,
                                  "solo" : false,
                                  "metadata" : {
                                    "IsLocked" : "False",
                                    "WinTrackHeight" : "56",
                                    "trackHeight" : "54"
                                  }
                              }
                            ],
                            "attributes" : {
                              "ident" : "BP-Title-11",
                              "widthAttr" : 1405.0,
                              "heightAttr" : 167.002,
                              "gain" : 1.0,
                              "mixToMono" : false,
                              "assetProperties" : [
                                {
                                  "type" : 0,
                                  "name" : "Title",
                                  "objects" : [ 379 ],
                                  "themeMappings" :  {
                                    "font-color" : "foreground-1"
                                  }
                                },
                                {
                                  "type" : 1,
                                  "name" : "Fill",
                                  "objects" : [ 377 ],
                                  "themeMappings" :  {
                                    "fill" : "background-1"
                                  }
                                }
                              ]
                            },
                            "effects" : [

                            ],
                            "start" : 0,
                            "duration" : 3528000000,
                            "mediaStart" : 0.0,
                            "mediaDuration" : 3528000000.0,
                            "scalar" : 1,
                            "metadata" : {
                              "clipSpeedAttribute" : false,
                              "effectApplied" : "none",
                              "isOpen" : false,
                              "lockAspectRatio" : true
                            },
                            "animationTracks" : {
                              "visual" : [
                                {
                                  "endTime" : 552720000,
                                  "duration" : 552720000,
                                  "range" : [ 0, 552720000],
                                  "interp" : "eioe"
                                },
                                {
                                  "endTime" : 1775760000,
                                  "duration" : 399840000,
                                  "range" : [ 1375920000, 399840000],
                                  "interp" : "eioe"
                                }
                              ]
                            }
                          }
                        ],
                          "ident" : "",
                          "audioMuted" : false,
                          "videoHidden" : false,
                          "magnetic" : false,
                          "matte" : 0,
                          "solo" : false,
                          "metadata" : {
                            "IsLocked" : "False",
                            "WinTrackHeight" : "56",
                            "trackHeight" : "54"
                          }
                      },
                      {
                        "trackIndex" : 1,
                        "medias" : [
                          {
                            "id" : 380,
                            "_type" : "Group",
                            "parameters" : {
                              "translation0" : {
                                "type" : "double",
                                "defaultValue" : 0.0,
                                "keyframes" : [
                                  {
                                    "endTime" : 552720000,
                                    "time" : 0,
                                    "value" : 0.0,
                                    "interp" : "eioe",
                                    "duration" : 552720000
                                  },
                                  {
                                    "endTime" : 1775760000,
                                    "time" : 1375920000,
                                    "value" : 0.0,
                                    "interp" : "eioe",
                                    "duration" : 399840000
                                  }
                                ]
                              },
                              "translation1" : {
                                "type" : "double",
                                "defaultValue" : -144.610046386719,
                                "keyframes" : [
                                  {
                                    "endTime" : 552720000,
                                    "time" : 0,
                                    "value" : 0.0,
                                    "interp" : "eioe",
                                    "duration" : 552720000
                                  },
                                  {
                                    "endTime" : 1775760000,
                                    "time" : 1375920000,
                                    "value" : -144.610046386719,
                                    "interp" : "eioe",
                                    "duration" : 399840000
                                  }
                                ]
                              },
                              "sourceCrop0" : 0.0,
                              "sourceCrop1" : 0.0,
                              "sourceCrop2" : 0.0,
                              "sourceCrop3" : 0.0,
                              "geometryCrop0" : 0.0,
                              "geometryCrop1" : 0.0,
                              "geometryCrop2" : 0.0,
                              "geometryCrop3" : 0.0,
                              "opacity" : {
                                "type" : "double",
                                "defaultValue" : 1.0,
                                "keyframes" : [
                                  {
                                    "endTime" : 552720000,
                                    "time" : 0,
                                    "value" : 1.0,
                                    "interp" : "eioe",
                                    "duration" : 552720000
                                  }
                                ]
                              },
                              "volume" : 1.0
                            },
                            "tracks" : [
                              {
                                "trackIndex" : 0,
                                "medias" : [
                                  {
                                    "id" : 381,
                                    "_type" : "Callout",
                                    "def" : {
                                      "kind" : "remix",
                                      "shape" : "shape-rectangle",
                                      "style" : "bold",
                                      "fill-color-blue" : 0.913725490196078,
                                      "fill-color-green" : 0.949019607843137,
                                      "fill-color-opacity" : 1.0,
                                      "fill-color-red" : 0.933333333333333,
                                      "hasDropShadow" : 0.0,
                                      "height" : 163.002035140991,
                                      "savedXScale" : 1.0,
                                      "savedYScale" : 1.0,
                                      "stroke-color-blue" : 1.0,
                                      "stroke-color-green" : 1.0,
                                      "stroke-color-opacity" : 1.0,
                                      "stroke-color-red" : 1.0,
                                      "stroke-width" : 0.0,
                                      "width" : 1403.00212860107,
                                      "custom" : "Y",
                                      "fill-style" : "solid",
                                      "stroke-style" : "solid"
                                    },
                                    "attributes" : {
                                      "ident" : "",
                                      "autoRotateText" : true
                                    },
                                    "parameters" : {
                                      "anchor0" : -1.0,
                                      "anchor1" : 2.0,
                                      "sourceCrop0" : 0.0,
                                      "sourceCrop1" : 0.0,
                                      "sourceCrop2" : 0.0,
                                      "sourceCrop3" : 0.0,
                                      "geometryCrop0" : 0.0,
                                      "geometryCrop1" : 0.0,
                                      "geometryCrop2" : 0.0,
                                      "geometryCrop3" : 0.0
                                    },
                                    "effects" : [

                                    ],
                                    "start" : 0,
                                    "duration" : 3528000000,
                                    "mediaStart" : 0,
                                    "mediaDuration" : 3528000000,
                                    "scalar" : 1,
                                    "metadata" : {
                                      "AppliedThemeId" : "",
                                      "clipSpeedAttribute" : false,
                                      "effectApplied" : "none",
                                      "lockAspectRatio" : false
                                    },
                                    "animationTracks" : {

                                    }
                                  }
                                ],
                                  "ident" : "",
                                  "audioMuted" : false,
                                  "videoHidden" : false,
                                  "magnetic" : false,
                                  "matte" : 0,
                                  "solo" : false,
                                  "metadata" : {
                                    "IsLocked" : "False",
                                    "WinTrackHeight" : "56",
                                    "trackHeight" : "54"
                                  }
                              },
                              {
                                "trackIndex" : 1,
                                "medias" : [
                                  {
                                    "id" : 382,
                                    "_type" : "Callout",
                                    "def" : {
                                      "kind" : "remix",
                                      "shape" : "shape-rectangle",
                                      "style" : "bold",
                                      "fill-color-blue" : 0.756862759590149,
                                      "fill-color-green" : 0.18823529779911,
                                      "fill-color-opacity" : 1.0,
                                      "fill-color-red" : 0.960784316062927,
                                      "hasDropShadow" : 0.0,
                                      "height" : 160.0,
                                      "savedXScale" : 1.0,
                                      "savedYScale" : 1.0,
                                      "stroke-color-blue" : 0.886274516582489,
                                      "stroke-color-green" : 0.200000002980232,
                                      "stroke-color-opacity" : 0.0,
                                      "stroke-color-red" : 0.376470595598221,
                                      "stroke-width" : 0.0,
                                      "width" : 1400.0,
                                      "custom" : "Y",
                                      "fill-style" : "solid",
                                      "stroke-style" : "solid"
                                    },
                                    "attributes" : {
                                      "ident" : "",
                                      "autoRotateText" : true
                                    },
                                    "parameters" : {
                                      "sourceCrop0" : 0.0,
                                      "sourceCrop1" : 0.0,
                                      "sourceCrop2" : 0.0,
                                      "sourceCrop3" : 0.0,
                                      "geometryCrop0" : 0.0,
                                      "geometryCrop1" : 0.0,
                                      "geometryCrop2" : 0.0,
                                      "geometryCrop3" : 0.0
                                    },
                                    "effects" : [

                                    ],
                                    "start" : 0,
                                    "duration" : 3528000000,
                                    "mediaStart" : 0,
                                    "mediaDuration" : 3528000000,
                                    "scalar" : 1,
                                    "metadata" : {
                                      "AppliedThemeId" : "",
                                      "clipSpeedAttribute" : false,
                                      "effectApplied" : "none"
                                    },
                                    "animationTracks" : {

                                    }
                                  }
                                ],
                                  "ident" : "",
                                  "audioMuted" : false,
                                  "videoHidden" : false,
                                  "magnetic" : false,
                                  "matte" : 1,
                                  "solo" : false,
                                  "metadata" : {
                                    "IsLocked" : "False",
                                    "WinTrackHeight" : "56",
                                    "trackHeight" : "54"
                                  }
                              }
                            ],
                            "attributes" : {
                              "ident" : "Rect-1400x1600-Mask",
                              "widthAttr" : 1405.0,
                              "heightAttr" : 167.002,
                              "gain" : 1.0,
                              "mixToMono" : false
                            },
                            "effects" : [

                            ],
                            "start" : 0,
                            "duration" : 3528000000,
                            "mediaStart" : 0.0,
                            "mediaDuration" : 3528000000.0,
                            "scalar" : 1,
                            "metadata" : {
                              "clipSpeedAttribute" : false,
                              "effectApplied" : "none",
                              "isOpen" : false,
                              "lockAspectRatio" : true
                            },
                            "animationTracks" : {
                              "visual" : [
                                {
                                  "endTime" : 552720000,
                                  "duration" : 552720000,
                                  "range" : [ 0, 552720000],
                                  "interp" : "eioe"
                                },
                                {
                                  "endTime" : 1775760000,
                                  "duration" : 399840000,
                                  "range" : [ 1375920000, 399840000],
                                  "interp" : "eioe"
                                }
                              ]
                            }
                          }
                        ],
                          "ident" : "",
                          "audioMuted" : false,
                          "videoHidden" : false,
                          "magnetic" : false,
                          "matte" : 1,
                          "solo" : false,
                          "metadata" : {
                            "IsLocked" : "False",
                            "WinTrackHeight" : "56",
                            "trackHeight" : "54"
                          }
                      },
                      {
                        "trackIndex" : 2,
                        "medias" : [
                          {
                            "id" : 383,
                            "_type" : "Group",
                            "parameters" : {
                              "translation0" : {
                                "type" : "double",
                                "defaultValue" : 0.0,
                                "keyframes" : [
                                  {
                                    "endTime" : 552720000,
                                    "time" : 0,
                                    "value" : 0.0,
                                    "interp" : "eioe",
                                    "duration" : 552720000
                                  },
                                  {
                                    "endTime" : 1775760000,
                                    "time" : 1375920000,
                                    "value" : 0.0,
                                    "interp" : "eioe",
                                    "duration" : 399840000
                                  }
                                ]
                              },
                              "translation1" : {
                                "type" : "double",
                                "defaultValue" : -233.610046386719,
                                "keyframes" : [
                                  {
                                    "endTime" : 552720000,
                                    "time" : 0,
                                    "value" : 90.0,
                                    "interp" : "eioe",
                                    "duration" : 552720000
                                  },
                                  {
                                    "endTime" : 1775760000,
                                    "time" : 1375920000,
                                    "value" : -233.610046386719,
                                    "interp" : "eioe",
                                    "duration" : 399840000
                                  }
                                ]
                              },
                              "sourceCrop0" : 0.0,
                              "sourceCrop1" : 0.0,
                              "sourceCrop2" : 0.0,
                              "sourceCrop3" : 0.0,
                              "geometryCrop0" : 0.0,
                              "geometryCrop1" : 0.0,
                              "geometryCrop2" : 0.0,
                              "geometryCrop3" : 0.0,
                              "opacity" : {
                                "type" : "double",
                                "defaultValue" : 1.0,
                                "keyframes" : [
                                  {
                                    "endTime" : 552720000,
                                    "time" : 0,
                                    "value" : 1.0,
                                    "interp" : "eioe",
                                    "duration" : 552720000
                                  }
                                ]
                              },
                              "volume" : 1.0
                            },
                            "tracks" : [
                              {
                                "trackIndex" : 0,
                                "medias" : [
                                  {
                                    "id" : 384,
                                    "_type" : "Callout",
                                    "def" : {
                                      "kind" : "remix",
                                      "shape" : "shape-rectangle",
                                      "style" : "bold",
                                      "fill-color-blue" : 0.2196078431,
                                      "fill-color-green" : 0.8745098039,
                                      "fill-color-opacity" : 1.0,
                                      "fill-color-red" : 1.0,
                                      "hasDropShadow" : 0.0,
                                      "height" : 163.002035140991,
                                      "savedXScale" : 1.0,
                                      "savedYScale" : 1.0,
                                      "stroke-color-blue" : 1.0,
                                      "stroke-color-green" : 1.0,
                                      "stroke-color-opacity" : 1.0,
                                      "stroke-color-red" : 1.0,
                                      "stroke-width" : 0.0,
                                      "width" : 1403.00212860107,
                                      "custom" : "Y",
                                      "fill-style" : "solid",
                                      "stroke-style" : "solid"
                                    },
                                    "attributes" : {
                                      "ident" : "",
                                      "autoRotateText" : true
                                    },
                                    "parameters" : {
                                      "anchor0" : -1.0,
                                      "anchor1" : 2.0,
                                      "sourceCrop0" : 0.0,
                                      "sourceCrop1" : 0.0,
                                      "sourceCrop2" : 0.0,
                                      "sourceCrop3" : 0.0,
                                      "geometryCrop0" : 0.0,
                                      "geometryCrop1" : 0.0,
                                      "geometryCrop2" : 0.0,
                                      "geometryCrop3" : 0.0
                                    },
                                    "effects" : [

                                    ],
                                    "start" : 0,
                                    "duration" : 3528000000,
                                    "mediaStart" : 0,
                                    "mediaDuration" : 3528000000,
                                    "scalar" : 1,
                                    "metadata" : {
                                      "AppliedThemeId" : "",
                                      "clipSpeedAttribute" : false,
                                      "effectApplied" : "none",
                                      "lockAspectRatio" : false
                                    },
                                    "animationTracks" : {

                                    }
                                  }
                                ],
                                  "ident" : "",
                                  "audioMuted" : false,
                                  "videoHidden" : false,
                                  "magnetic" : false,
                                  "matte" : 0,
                                  "solo" : false,
                                  "metadata" : {
                                    "IsLocked" : "False",
                                    "WinTrackHeight" : "56",
                                    "trackHeight" : "54"
                                  }
                              },
                              {
                                "trackIndex" : 1,
                                "medias" : [
                                  {
                                    "id" : 385,
                                    "_type" : "Callout",
                                    "def" : {
                                      "kind" : "remix",
                                      "shape" : "shape-rectangle",
                                      "style" : "bold",
                                      "fill-color-blue" : 0.756862759590149,
                                      "fill-color-green" : 0.18823529779911,
                                      "fill-color-opacity" : 1.0,
                                      "fill-color-red" : 0.960784316062927,
                                      "hasDropShadow" : 0.0,
                                      "height" : 160.0,
                                      "savedXScale" : 1.0,
                                      "savedYScale" : 1.0,
                                      "stroke-color-blue" : 0.886274516582489,
                                      "stroke-color-green" : 0.200000002980232,
                                      "stroke-color-opacity" : 0.0,
                                      "stroke-color-red" : 0.376470595598221,
                                      "stroke-width" : 0.0,
                                      "width" : 1400.0,
                                      "custom" : "Y",
                                      "fill-style" : "solid",
                                      "stroke-style" : "solid"
                                    },
                                    "attributes" : {
                                      "ident" : "",
                                      "autoRotateText" : true
                                    },
                                    "parameters" : {
                                      "translation1" : {
                                        "type" : "double",
                                        "defaultValue" : -1.0,
                                        "keyframes" : [
                                          {
                                            "endTime" : 270480000,
                                            "time" : 0,
                                            "value" : 0.0,
                                            "duration" : 270480000
                                          }
                                        ]
                                      },
                                      "scale0" : {
                                        "type" : "double",
                                        "defaultValue" : 1.0,
                                        "keyframes" : [
                                          {
                                            "endTime" : 270480000,
                                            "time" : 0,
                                            "value" : 1.0,
                                            "duration" : 270480000
                                          }
                                        ]
                                      },
                                      "scale1" : {
                                        "type" : "double",
                                        "defaultValue" : 0.125,
                                        "keyframes" : [
                                          {
                                            "endTime" : 270480000,
                                            "time" : 0,
                                            "value" : 0.5,
                                            "duration" : 270480000
                                          },
                                          {
                                            "endTime" : 552720000,
                                            "time" : 282240000,
                                            "value" : 0.125,
                                            "duration" : 270480000
                                          }
                                        ]
                                      },
                                      "sourceCrop0" : 0.0,
                                      "sourceCrop1" : 0.0,
                                      "sourceCrop2" : 0.0,
                                      "sourceCrop3" : 0.0,
                                      "geometryCrop0" : 0.0,
                                      "geometryCrop1" : 0.0,
                                      "geometryCrop2" : 0.0,
                                      "geometryCrop3" : 0.0
                                    },
                                    "effects" : [

                                    ],
                                    "start" : 0,
                                    "duration" : 3528000000,
                                    "mediaStart" : 0,
                                    "mediaDuration" : 3528000000,
                                    "scalar" : 1,
                                    "metadata" : {
                                      "AppliedThemeId" : "",
                                      "clipSpeedAttribute" : false,
                                      "effectApplied" : "none"
                                    },
                                    "animationTracks" : {
                                      "visual" : [
                                        {
                                          "endTime" : 270480000,
                                          "duration" : 270480000,
                                          "range" : [ 0, 270480000]
                                        },
                                        {
                                          "endTime" : 552720000,
                                          "duration" : 270480000,
                                          "range" : [ 282240000, 270480000]
                                        }
                                      ]
                                    }
                                  }
                                ],
                                  "ident" : "",
                                  "audioMuted" : false,
                                  "videoHidden" : false,
                                  "magnetic" : false,
                                  "matte" : 1,
                                  "solo" : false,
                                  "metadata" : {
                                    "IsLocked" : "False",
                                    "WinTrackHeight" : "56",
                                    "trackHeight" : "54"
                                  }
                              }
                            ],
                            "attributes" : {
                              "ident" : "Animated-Pulse-1400x20-To-1400x80",
                              "widthAttr" : 1405.0,
                              "heightAttr" : 167.002,
                              "gain" : 1.0,
                              "mixToMono" : false,
                              "assetProperties" : [
                                {
                                  "type" : 1,
                                  "name" : "Color",
                                  "objects" : [ 384 ],
                                  "themeMappings" :  {
                                    "fill" : "accent-1"
                                  }
                                }
                              ]
                            },
                            "effects" : [

                            ],
                            "start" : 0,
                            "duration" : 3528000000,
                            "mediaStart" : 0.0,
                            "mediaDuration" : 3528000000.0,
                            "scalar" : 1,
                            "metadata" : {
                              "AppliedThemeId" : "8e797988-b823-4beb-b251-1d31b461ba07",
                              "clipSpeedAttribute" : false,
                              "effectApplied" : "none",
                              "isOpen" : false,
                              "lockAspectRatio" : true
                            },
                            "animationTracks" : {
                              "visual" : [
                                {
                                  "endTime" : 552720000,
                                  "duration" : 552720000,
                                  "range" : [ 0, 552720000],
                                  "interp" : "eioe"
                                },
                                {
                                  "endTime" : 1775760000,
                                  "duration" : 399840000,
                                  "range" : [ 1375920000, 399840000],
                                  "interp" : "eioe"
                                }
                              ]
                            }
                          }
                        ],
                          "ident" : "",
                          "audioMuted" : false,
                          "videoHidden" : false,
                          "magnetic" : false,
                          "matte" : 0,
                          "solo" : false,
                          "metadata" : {
                            "IsLocked" : "False",
                            "WinTrackHeight" : "56",
                            "trackHeight" : "54"
                          }
                      },
                      {
                        "trackIndex" : 3,
                        "medias" : [
                          {
                            "id" : 386,
                            "_type" : "Group",
                            "parameters" : {
                              "translation0" : {
                                "type" : "double",
                                "defaultValue" : 0.0,
                                "keyframes" : [
                                  {
                                    "endTime" : 552720000,
                                    "time" : 0,
                                    "value" : 0.0,
                                    "interp" : "eioe",
                                    "duration" : 552720000
                                  },
                                  {
                                    "endTime" : 1775760000,
                                    "time" : 1375920000,
                                    "value" : 0.0,
                                    "interp" : "eioe",
                                    "duration" : 399840000
                                  }
                                ]
                              },
                              "translation1" : {
                                "type" : "double",
                                "defaultValue" : -143.610046386719,
                                "keyframes" : [
                                  {
                                    "endTime" : 552720000,
                                    "time" : 0,
                                    "value" : 0.0,
                                    "interp" : "eioe",
                                    "duration" : 552720000
                                  },
                                  {
                                    "endTime" : 1775760000,
                                    "time" : 1375920000,
                                    "value" : -143.610046386719,
                                    "interp" : "eioe",
                                    "duration" : 399840000
                                  }
                                ]
                              },
                              "sourceCrop0" : 0.0,
                              "sourceCrop1" : 0.0,
                              "sourceCrop2" : 0.0,
                              "sourceCrop3" : 0.0,
                              "geometryCrop0" : 0.0,
                              "geometryCrop1" : 0.0,
                              "geometryCrop2" : 0.0,
                              "geometryCrop3" : 0.0,
                              "opacity" : {
                                "type" : "double",
                                "defaultValue" : 1.0,
                                "keyframes" : [
                                  {
                                    "endTime" : 552720000,
                                    "time" : 0,
                                    "value" : 1.0,
                                    "interp" : "eioe",
                                    "duration" : 552720000
                                  }
                                ]
                              },
                              "volume" : 1.0
                            },
                            "tracks" : [
                              {
                                "trackIndex" : 0,
                                "medias" : [
                                  {
                                    "id" : 387,
                                    "_type" : "Callout",
                                    "def" : {
                                      "kind" : "remix",
                                      "shape" : "shape-rectangle",
                                      "style" : "bold",
                                      "fill-color-blue" : 0.913725490196078,
                                      "fill-color-green" : 0.949019607843137,
                                      "fill-color-opacity" : 1.0,
                                      "fill-color-red" : 0.933333333333333,
                                      "hasDropShadow" : 0.0,
                                      "height" : 163.002035140991,
                                      "savedXScale" : 1.0,
                                      "savedYScale" : 1.0,
                                      "stroke-color-blue" : 1.0,
                                      "stroke-color-green" : 1.0,
                                      "stroke-color-opacity" : 1.0,
                                      "stroke-color-red" : 1.0,
                                      "stroke-width" : 0.0,
                                      "width" : 1403.00212860107,
                                      "custom" : "Y",
                                      "fill-style" : "solid",
                                      "stroke-style" : "solid"
                                    },
                                    "attributes" : {
                                      "ident" : "",
                                      "autoRotateText" : true
                                    },
                                    "parameters" : {
                                      "anchor0" : -1.0,
                                      "anchor1" : 2.0,
                                      "sourceCrop0" : 0.0,
                                      "sourceCrop1" : 0.0,
                                      "sourceCrop2" : 0.0,
                                      "sourceCrop3" : 0.0,
                                      "geometryCrop0" : 0.0,
                                      "geometryCrop1" : 0.0,
                                      "geometryCrop2" : 0.0,
                                      "geometryCrop3" : 0.0
                                    },
                                    "effects" : [

                                    ],
                                    "start" : 0,
                                    "duration" : 3528000000,
                                    "mediaStart" : 0,
                                    "mediaDuration" : 3528000000,
                                    "scalar" : 1,
                                    "metadata" : {
                                      "AppliedThemeId" : "",
                                      "clipSpeedAttribute" : false,
                                      "effectApplied" : "none",
                                      "lockAspectRatio" : false
                                    },
                                    "animationTracks" : {

                                    }
                                  }
                                ],
                                  "ident" : "",
                                  "audioMuted" : false,
                                  "videoHidden" : false,
                                  "magnetic" : false,
                                  "matte" : 0,
                                  "solo" : false,
                                  "metadata" : {
                                    "IsLocked" : "False",
                                    "WinTrackHeight" : "56",
                                    "trackHeight" : "54"
                                  }
                              },
                              {
                                "trackIndex" : 1,
                                "medias" : [
                                  {
                                    "id" : 388,
                                    "_type" : "Callout",
                                    "def" : {
                                      "kind" : "remix",
                                      "shape" : "shape-rectangle",
                                      "style" : "bold",
                                      "fill-color-blue" : 0.756862759590149,
                                      "fill-color-green" : 0.18823529779911,
                                      "fill-color-opacity" : 1.0,
                                      "fill-color-red" : 0.960784316062927,
                                      "hasDropShadow" : 0.0,
                                      "height" : 160.0,
                                      "savedXScale" : 1.0,
                                      "savedYScale" : 1.0,
                                      "stroke-color-blue" : 0.886274516582489,
                                      "stroke-color-green" : 0.200000002980232,
                                      "stroke-color-opacity" : 0.0,
                                      "stroke-color-red" : 0.376470595598221,
                                      "stroke-width" : 0.0,
                                      "width" : 1400.0,
                                      "custom" : "Y",
                                      "fill-style" : "solid",
                                      "stroke-style" : "solid"
                                    },
                                    "attributes" : {
                                      "ident" : "",
                                      "autoRotateText" : true
                                    },
                                    "parameters" : {
                                      "sourceCrop0" : 0.0,
                                      "sourceCrop1" : 0.0,
                                      "sourceCrop2" : 0.0,
                                      "sourceCrop3" : 0.0,
                                      "geometryCrop0" : 0.0,
                                      "geometryCrop1" : 0.0,
                                      "geometryCrop2" : 0.0,
                                      "geometryCrop3" : 0.0
                                    },
                                    "effects" : [

                                    ],
                                    "start" : 0,
                                    "duration" : 3528000000,
                                    "mediaStart" : 0,
                                    "mediaDuration" : 3528000000,
                                    "scalar" : 1,
                                    "metadata" : {
                                      "AppliedThemeId" : "",
                                      "clipSpeedAttribute" : false,
                                      "effectApplied" : "none"
                                    },
                                    "animationTracks" : {

                                    }
                                  }
                                ],
                                  "ident" : "",
                                  "audioMuted" : false,
                                  "videoHidden" : false,
                                  "magnetic" : false,
                                  "matte" : 1,
                                  "solo" : false,
                                  "metadata" : {
                                    "IsLocked" : "False",
                                    "WinTrackHeight" : "56",
                                    "trackHeight" : "54"
                                  }
                              }
                            ],
                            "attributes" : {
                              "ident" : "Rect-1400x1600-Mask",
                              "widthAttr" : 1405.0,
                              "heightAttr" : 167.002,
                              "gain" : 1.0,
                              "mixToMono" : false
                            },
                            "effects" : [

                            ],
                            "start" : 0,
                            "duration" : 3528000000,
                            "mediaStart" : 0.0,
                            "mediaDuration" : 3528000000.0,
                            "scalar" : 1,
                            "metadata" : {
                              "clipSpeedAttribute" : false,
                              "effectApplied" : "none",
                              "isOpen" : false,
                              "lockAspectRatio" : true
                            },
                            "animationTracks" : {
                              "visual" : [
                                {
                                  "endTime" : 552720000,
                                  "duration" : 552720000,
                                  "range" : [ 0, 552720000],
                                  "interp" : "eioe"
                                },
                                {
                                  "endTime" : 1775760000,
                                  "duration" : 399840000,
                                  "range" : [ 1375920000, 399840000],
                                  "interp" : "eioe"
                                }
                              ]
                            }
                          }
                        ],
                          "ident" : "",
                          "audioMuted" : false,
                          "videoHidden" : false,
                          "magnetic" : false,
                          "matte" : 1,
                          "solo" : false,
                          "metadata" : {
                            "IsLocked" : "False",
                            "WinTrackHeight" : "56",
                            "trackHeight" : "54"
                          }
                      }
                    ],
                    "attributes" : {
                      "ident" : "Broadcast-Title-012",
                      "widthAttr" : 1405.0,
                      "heightAttr" : 160.0,
                      "gain" : 1.0,
                      "mixToMono" : false,
                      "assetProperties" : [
                        {
                          "type" : 0,
                          "name" : "Title",
                          "objects" : [ 379 ],
                          "themeMappings" :  {
                            "font-color" : "foreground-1"
                          }
                        },
                        {
                          "type" : 1,
                          "name" : "Fill",
                          "objects" : [ 377 ],
                          "themeMappings" :  {
                            "fill" : "background-1"
                          }
                        },
                        {
                          "type" : 1,
                          "name" : "Wiper",
                          "objects" : [ 384 ],
                          "themeMappings" :  {
                            "fill" : "foreground-1"
                          }
                        }
                      ]
                    },
                    "effects" : [

                    ],
                    "start" : 1928640000,
                    "duration" : 1764000000,
                    "mediaStart" : 0.0,
                    "mediaDuration" : 1764000000.0,
                    "scalar" : 1,
                    "metadata" : {
                      "AppliedThemeId" : "170ba59c-db5d-4b9a-a310-e7e99853a4b7",
                      "clipSpeedAttribute" : false,
                      "default-anchor0" : 0.0,
                      "default-anchor1" : 0.0,
                      "default-anchor2" : 0.0,
                      "default-geometryCrop0" : 0.0,
                      "default-geometryCrop2" : 0.0,
                      "default-height" : 160.0,
                      "default-rotation0" : 0.0,
                      "default-rotation1" : 0.0,
                      "default-rotation2" : 0.0,
                      "default-scale0" : 1.0,
                      "default-scale1" : 1.0,
                      "default-scale2" : 1.0,
                      "default-shear0" : 0.0,
                      "default-shear1" : 0.0,
                      "default-shear2" : 0.0,
                      "default-translation0" : 0.0,
                      "default-translation1" : 0.0,
                      "default-translation2" : 0.0,
                      "default-width" : 1405.0,
                      "effectApplied" : "none",
                      "isOpen" : false,
                      "lockAspectRatio" : true
                    },
                    "animationTracks" : {

                    }
                  }
                ]
              },
              {
                "trackIndex" : 112,
                "medias" : [
                  {
                    "id" : 389,
                    "_type" : "Group",
                    "parameters" : {
                      "translation0" : 350.0,
                      "translation1" : 450.0,
                      "scale0" : 0.214669051878354,
                      "scale1" : 0.21875,
                      "sourceCrop0" : 0.0,
                      "sourceCrop1" : 0.0,
                      "sourceCrop2" : 0.0,
                      "sourceCrop3" : 0.0,
                      "geometryCrop0" : 0.0,
                      "geometryCrop1" : 0.0,
                      "geometryCrop2" : 7.4999999999992,
                      "geometryCrop3" : 0.0,
                      "volume" : 1.0
                    },
                    "tracks" : [
                      {
                        "trackIndex" : 0,
                        "medias" : [
                          {
                            "id" : 390,
                            "_type" : "Group",
                            "parameters" : {
                              "translation0" : {
                                "type" : "double",
                                "defaultValue" : 0.0,
                                "keyframes" : [
                                  {
                                    "endTime" : 552720000,
                                    "time" : 0,
                                    "value" : 0.0,
                                    "interp" : "eioe",
                                    "duration" : 552720000
                                  },
                                  {
                                    "endTime" : 1775760000,
                                    "time" : 1375920000,
                                    "value" : 0.0,
                                    "interp" : "eioe",
                                    "duration" : 399840000
                                  }
                                ]
                              },
                              "translation1" : {
                                "type" : "double",
                                "defaultValue" : -305.610046386719,
                                "keyframes" : [
                                  {
                                    "endTime" : 552720000,
                                    "time" : 0,
                                    "value" : 0.0,
                                    "interp" : "eioe",
                                    "duration" : 552720000
                                  },
                                  {
                                    "endTime" : 1775760000,
                                    "time" : 1375920000,
                                    "value" : -304.610046386719,
                                    "interp" : "eioe",
                                    "duration" : 399840000
                                  }
                                ]
                              },
                              "sourceCrop0" : 0.0,
                              "sourceCrop1" : 0.0,
                              "sourceCrop2" : 0.0,
                              "sourceCrop3" : 0.0,
                              "geometryCrop0" : 0.0,
                              "geometryCrop1" : 0.0,
                              "geometryCrop2" : 0.0,
                              "geometryCrop3" : 0.0,
                              "volume" : 1.0
                            },
                            "tracks" : [
                              {
                                "trackIndex" : 0,
                                "medias" : [
                                  {
                                    "id" : 391,
                                    "_type" : "Group",
                                    "parameters" : {
                                      "sourceCrop0" : 0.0,
                                      "sourceCrop1" : 0.0,
                                      "sourceCrop2" : 0.0,
                                      "sourceCrop3" : 0.0,
                                      "geometryCrop0" : 0.0,
                                      "geometryCrop1" : 0.0,
                                      "geometryCrop2" : 0.0,
                                      "geometryCrop3" : 0.0,
                                      "volume" : 1.0
                                    },
                                    "tracks" : [
                                      {
                                        "trackIndex" : 0,
                                        "medias" : [
                                          {
                                            "id" : 392,
                                            "_type" : "Callout",
                                            "def" : {
                                              "kind" : "remix",
                                              "shape" : "shape-rectangle",
                                              "style" : "bold",
                                              "fill-color-blue" : 1.0,
                                              "fill-color-green" : 1.0,
                                              "fill-color-opacity" : 1.0,
                                              "fill-color-red" : 1.0,
                                              "hasDropShadow" : 0.0,
                                              "height" : 163.002035140991,
                                              "savedXScale" : 1.0,
                                              "savedYScale" : 1.0,
                                              "stroke-color-blue" : 1.0,
                                              "stroke-color-green" : 1.0,
                                              "stroke-color-opacity" : 1.0,
                                              "stroke-color-red" : 1.0,
                                              "stroke-width" : 0.0,
                                              "width" : 1403.00212860107,
                                              "custom" : "Y",
                                              "fill-style" : "solid",
                                              "stroke-style" : "solid"
                                            },
                                            "attributes" : {
                                              "ident" : "",
                                              "autoRotateText" : true
                                            },
                                            "parameters" : {
                                              "anchor0" : -1.0,
                                              "anchor1" : 2.0,
                                              "sourceCrop0" : 0.0,
                                              "sourceCrop1" : 0.0,
                                              "sourceCrop2" : 0.0,
                                              "sourceCrop3" : 0.0,
                                              "geometryCrop0" : 0.0,
                                              "geometryCrop1" : 0.0,
                                              "geometryCrop2" : 0.0,
                                              "geometryCrop3" : 0.0
                                            },
                                            "effects" : [

                                            ],
                                            "start" : 0,
                                            "duration" : 3528000000,
                                            "mediaStart" : 0,
                                            "mediaDuration" : 3528000000,
                                            "scalar" : 1,
                                            "metadata" : {
                                              "AppliedThemeId" : "",
                                              "clipSpeedAttribute" : false,
                                              "effectApplied" : "none",
                                              "lockAspectRatio" : false
                                            },
                                            "animationTracks" : {

                                            }
                                          }
                                        ],
                                          "ident" : "",
                                          "audioMuted" : false,
                                          "videoHidden" : false,
                                          "magnetic" : false,
                                          "matte" : 0,
                                          "solo" : false,
                                          "metadata" : {
                                            "IsLocked" : "False",
                                            "WinTrackHeight" : "56",
                                            "trackHeight" : "54"
                                          }
                                      },
                                      {
                                        "trackIndex" : 1,
                                        "medias" : [
                                          {
                                            "id" : 393,
                                            "_type" : "Callout",
                                            "def" : {
                                              "kind" : "remix",
                                              "shape" : "shape-rectangle",
                                              "style" : "bold",
                                              "fill-color-blue" : 0.756862759590149,
                                              "fill-color-green" : 0.18823529779911,
                                              "fill-color-opacity" : 1.0,
                                              "fill-color-red" : 0.960784316062927,
                                              "hasDropShadow" : 0.0,
                                              "height" : 160.0,
                                              "savedXScale" : 1.0,
                                              "savedYScale" : 1.0,
                                              "stroke-color-blue" : 0.886274516582489,
                                              "stroke-color-green" : 0.200000002980232,
                                              "stroke-color-opacity" : 0.0,
                                              "stroke-color-red" : 0.376470595598221,
                                              "stroke-width" : 0.0,
                                              "width" : 1400.0,
                                              "custom" : "Y",
                                              "fill-style" : "solid",
                                              "stroke-style" : "solid"
                                            },
                                            "attributes" : {
                                              "ident" : "",
                                              "autoRotateText" : true
                                            },
                                            "parameters" : {
                                              "sourceCrop0" : 0.0,
                                              "sourceCrop1" : 0.0,
                                              "sourceCrop2" : 0.0,
                                              "sourceCrop3" : 0.0,
                                              "geometryCrop0" : 0.0,
                                              "geometryCrop1" : 0.0,
                                              "geometryCrop2" : 0.0,
                                              "geometryCrop3" : 0.0
                                            },
                                            "effects" : [

                                            ],
                                            "start" : 0,
                                            "duration" : 3528000000,
                                            "mediaStart" : 0,
                                            "mediaDuration" : 3528000000,
                                            "scalar" : 1,
                                            "metadata" : {
                                              "AppliedThemeId" : "",
                                              "clipSpeedAttribute" : false,
                                              "effectApplied" : "none"
                                            },
                                            "animationTracks" : {

                                            }
                                          }
                                        ],
                                          "ident" : "",
                                          "audioMuted" : false,
                                          "videoHidden" : false,
                                          "magnetic" : false,
                                          "matte" : 1,
                                          "solo" : false,
                                          "metadata" : {
                                            "IsLocked" : "False",
                                            "WinTrackHeight" : "56",
                                            "trackHeight" : "54"
                                          }
                                      }
                                    ],
                                    "attributes" : {
                                      "ident" : "Fill-1400x160",
                                      "widthAttr" : 1405.0,
                                      "heightAttr" : 167.002,
                                      "gain" : 1.0,
                                      "mixToMono" : false
                                    },
                                    "effects" : [

                                    ],
                                    "start" : 0,
                                    "duration" : 3528000000,
                                    "mediaStart" : 0.0,
                                    "mediaDuration" : 3528000000.0,
                                    "scalar" : 1,
                                    "metadata" : {
                                      "clipSpeedAttribute" : false,
                                      "effectApplied" : "none",
                                      "isOpen" : false,
                                      "lockAspectRatio" : true
                                    },
                                    "animationTracks" : {

                                    }
                                  }
                                ],
                                  "ident" : "",
                                  "audioMuted" : false,
                                  "videoHidden" : false,
                                  "magnetic" : false,
                                  "matte" : 0,
                                  "solo" : false,
                                  "metadata" : {
                                    "IsLocked" : "False",
                                    "WinTrackHeight" : "56",
                                    "trackHeight" : "54"
                                  }
                              },
                              {
                                "trackIndex" : 1,
                                "medias" : [
                                  {
                                    "id" : 394,
                                    "_type" : "Callout",
                                    "def" : {
                                      "kind" : "remix",
                                      "shape" : "text",
                                      "style" : "urban",
                                      "enable-ligatures" : 1.0,
                                      "hasDropShadow" : 0.0,
                                      "height" : 170.0,
                                      "line-spacing" : 0.0,
                                      "savedXScale" : 1.0,
                                      "savedYScale" : 1.0,
                                      "width" : 1400.0,
                                      "word-wrap" : 1.0,
                                      "custom" : "Y",
                                      "horizontal-alignment" : "left",
                                      "resize-behavior" : "resizeText",
                                      "text" : "move to left (first data)",
                                      "vertical-alignment" : "center",
                                      "font" : {
                                        "color-blue" : 1.0,
                                        "color-green" : 1.0,
                                        "color-red" : 1.0,
                                        "size" : 96.0,
                                        "tracking" : 0.0,
                                        "name" : "Dosis",
                                        "weight" : "Semi Bold"
                                      },
                                      "textAttributes" : {
                                        "type" : "textAttributeList",
                                        "keyframes" : [
                                          {
                                            "endTime" : 0,
                                            "time" : 0,
                                            "value" : [{"name":"underline","rangeEnd":25,"rangeStart":0,"value":0,"valueType":"int"},{"name":"strikethrough","rangeEnd":25,"rangeStart":0,"value":0,"valueType":"int"},{"name":"fontName","rangeEnd":25,"rangeStart":0,"value":"Roboto","valueType":"string"},{"name":"kerning","rangeEnd":25,"rangeStart":0,"value":0.049883078231292483,"valueType":"double"},{"name":"fontSize","rangeEnd":25,"rangeStart":0,"value":86,"valueType":"double"},{"name":"fgColor","rangeEnd":25,"rangeStart":0,"value":"(110,110,110,255)","valueType":"color"},{"name":"fontWeight","rangeEnd":25,"rangeStart":0,"value":700,"valueType":"int"},{"name":"fontItalic","rangeEnd":25,"rangeStart":0,"value":0,"valueType":"int"}],
                                            "duration" : 0
                                          }
                                        ]
                                      }
                                    },
                                    "attributes" : {
                                      "ident" : "",
                                      "autoRotateText" : true
                                    },
                                    "parameters" : {
                                      "translation1" : -2.0,
                                      "sourceCrop0" : 0.0,
                                      "sourceCrop1" : 0.0,
                                      "sourceCrop2" : 0.0,
                                      "sourceCrop3" : 0.0,
                                      "geometryCrop0" : 0.0,
                                      "geometryCrop1" : 0.0,
                                      "geometryCrop2" : 0.0,
                                      "geometryCrop3" : 0.0
                                    },
                                    "effects" : [

                                    ],
                                    "start" : 0,
                                    "duration" : 3528000000,
                                    "mediaStart" : 0,
                                    "mediaDuration" : 3528000000,
                                    "scalar" : 1,
                                    "metadata" : {
                                      "AppliedThemeId" : "",
                                      "clipSpeedAttribute" : false,
                                      "effectApplied" : "none",
                                      "lockAspectRatio" : false
                                    },
                                    "animationTracks" : {

                                    }
                                  }
                                ],
                                  "ident" : "",
                                  "audioMuted" : false,
                                  "videoHidden" : false,
                                  "magnetic" : false,
                                  "matte" : 0,
                                  "solo" : false,
                                  "metadata" : {
                                    "IsLocked" : "False",
                                    "WinTrackHeight" : "56",
                                    "trackHeight" : "54"
                                  }
                              }
                            ],
                            "attributes" : {
                              "ident" : "BP-Title-11",
                              "widthAttr" : 1405.0,
                              "heightAttr" : 167.002,
                              "gain" : 1.0,
                              "mixToMono" : false,
                              "assetProperties" : [
                                {
                                  "type" : 0,
                                  "name" : "Title",
                                  "objects" : [ 394 ],
                                  "themeMappings" :  {
                                    "font-color" : "foreground-1"
                                  }
                                },
                                {
                                  "type" : 1,
                                  "name" : "Fill",
                                  "objects" : [ 392 ],
                                  "themeMappings" :  {
                                    "fill" : "background-1"
                                  }
                                }
                              ]
                            },
                            "effects" : [

                            ],
                            "start" : 0,
                            "duration" : 3528000000,
                            "mediaStart" : 0.0,
                            "mediaDuration" : 3528000000.0,
                            "scalar" : 1,
                            "metadata" : {
                              "clipSpeedAttribute" : false,
                              "effectApplied" : "none",
                              "isOpen" : false,
                              "lockAspectRatio" : true
                            },
                            "animationTracks" : {
                              "visual" : [
                                {
                                  "endTime" : 552720000,
                                  "duration" : 552720000,
                                  "range" : [ 0, 552720000],
                                  "interp" : "eioe"
                                },
                                {
                                  "endTime" : 1775760000,
                                  "duration" : 399840000,
                                  "range" : [ 1375920000, 399840000],
                                  "interp" : "eioe"
                                }
                              ]
                            }
                          }
                        ],
                          "ident" : "",
                          "audioMuted" : false,
                          "videoHidden" : false,
                          "magnetic" : false,
                          "matte" : 0,
                          "solo" : false,
                          "metadata" : {
                            "IsLocked" : "False",
                            "WinTrackHeight" : "56",
                            "trackHeight" : "54"
                          }
                      },
                      {
                        "trackIndex" : 1,
                        "medias" : [
                          {
                            "id" : 395,
                            "_type" : "Group",
                            "parameters" : {
                              "translation0" : {
                                "type" : "double",
                                "defaultValue" : 0.0,
                                "keyframes" : [
                                  {
                                    "endTime" : 552720000,
                                    "time" : 0,
                                    "value" : 0.0,
                                    "interp" : "eioe",
                                    "duration" : 552720000
                                  },
                                  {
                                    "endTime" : 1775760000,
                                    "time" : 1375920000,
                                    "value" : 0.0,
                                    "interp" : "eioe",
                                    "duration" : 399840000
                                  }
                                ]
                              },
                              "translation1" : {
                                "type" : "double",
                                "defaultValue" : -144.610046386719,
                                "keyframes" : [
                                  {
                                    "endTime" : 552720000,
                                    "time" : 0,
                                    "value" : 0.0,
                                    "interp" : "eioe",
                                    "duration" : 552720000
                                  },
                                  {
                                    "endTime" : 1775760000,
                                    "time" : 1375920000,
                                    "value" : -144.610046386719,
                                    "interp" : "eioe",
                                    "duration" : 399840000
                                  }
                                ]
                              },
                              "sourceCrop0" : 0.0,
                              "sourceCrop1" : 0.0,
                              "sourceCrop2" : 0.0,
                              "sourceCrop3" : 0.0,
                              "geometryCrop0" : 0.0,
                              "geometryCrop1" : 0.0,
                              "geometryCrop2" : 0.0,
                              "geometryCrop3" : 0.0,
                              "opacity" : {
                                "type" : "double",
                                "defaultValue" : 1.0,
                                "keyframes" : [
                                  {
                                    "endTime" : 552720000,
                                    "time" : 0,
                                    "value" : 1.0,
                                    "interp" : "eioe",
                                    "duration" : 552720000
                                  }
                                ]
                              },
                              "volume" : 1.0
                            },
                            "tracks" : [
                              {
                                "trackIndex" : 0,
                                "medias" : [
                                  {
                                    "id" : 396,
                                    "_type" : "Callout",
                                    "def" : {
                                      "kind" : "remix",
                                      "shape" : "shape-rectangle",
                                      "style" : "bold",
                                      "fill-color-blue" : 0.913725490196078,
                                      "fill-color-green" : 0.949019607843137,
                                      "fill-color-opacity" : 1.0,
                                      "fill-color-red" : 0.933333333333333,
                                      "hasDropShadow" : 0.0,
                                      "height" : 163.002035140991,
                                      "savedXScale" : 1.0,
                                      "savedYScale" : 1.0,
                                      "stroke-color-blue" : 1.0,
                                      "stroke-color-green" : 1.0,
                                      "stroke-color-opacity" : 1.0,
                                      "stroke-color-red" : 1.0,
                                      "stroke-width" : 0.0,
                                      "width" : 1403.00212860107,
                                      "custom" : "Y",
                                      "fill-style" : "solid",
                                      "stroke-style" : "solid"
                                    },
                                    "attributes" : {
                                      "ident" : "",
                                      "autoRotateText" : true
                                    },
                                    "parameters" : {
                                      "anchor0" : -1.0,
                                      "anchor1" : 2.0,
                                      "sourceCrop0" : 0.0,
                                      "sourceCrop1" : 0.0,
                                      "sourceCrop2" : 0.0,
                                      "sourceCrop3" : 0.0,
                                      "geometryCrop0" : 0.0,
                                      "geometryCrop1" : 0.0,
                                      "geometryCrop2" : 0.0,
                                      "geometryCrop3" : 0.0
                                    },
                                    "effects" : [

                                    ],
                                    "start" : 0,
                                    "duration" : 3528000000,
                                    "mediaStart" : 0,
                                    "mediaDuration" : 3528000000,
                                    "scalar" : 1,
                                    "metadata" : {
                                      "AppliedThemeId" : "",
                                      "clipSpeedAttribute" : false,
                                      "effectApplied" : "none",
                                      "lockAspectRatio" : false
                                    },
                                    "animationTracks" : {

                                    }
                                  }
                                ],
                                  "ident" : "",
                                  "audioMuted" : false,
                                  "videoHidden" : false,
                                  "magnetic" : false,
                                  "matte" : 0,
                                  "solo" : false,
                                  "metadata" : {
                                    "IsLocked" : "False",
                                    "WinTrackHeight" : "56",
                                    "trackHeight" : "54"
                                  }
                              },
                              {
                                "trackIndex" : 1,
                                "medias" : [
                                  {
                                    "id" : 397,
                                    "_type" : "Callout",
                                    "def" : {
                                      "kind" : "remix",
                                      "shape" : "shape-rectangle",
                                      "style" : "bold",
                                      "fill-color-blue" : 0.756862759590149,
                                      "fill-color-green" : 0.18823529779911,
                                      "fill-color-opacity" : 1.0,
                                      "fill-color-red" : 0.960784316062927,
                                      "hasDropShadow" : 0.0,
                                      "height" : 160.0,
                                      "savedXScale" : 1.0,
                                      "savedYScale" : 1.0,
                                      "stroke-color-blue" : 0.886274516582489,
                                      "stroke-color-green" : 0.200000002980232,
                                      "stroke-color-opacity" : 0.0,
                                      "stroke-color-red" : 0.376470595598221,
                                      "stroke-width" : 0.0,
                                      "width" : 1400.0,
                                      "custom" : "Y",
                                      "fill-style" : "solid",
                                      "stroke-style" : "solid"
                                    },
                                    "attributes" : {
                                      "ident" : "",
                                      "autoRotateText" : true
                                    },
                                    "parameters" : {
                                      "sourceCrop0" : 0.0,
                                      "sourceCrop1" : 0.0,
                                      "sourceCrop2" : 0.0,
                                      "sourceCrop3" : 0.0,
                                      "geometryCrop0" : 0.0,
                                      "geometryCrop1" : 0.0,
                                      "geometryCrop2" : 0.0,
                                      "geometryCrop3" : 0.0
                                    },
                                    "effects" : [

                                    ],
                                    "start" : 0,
                                    "duration" : 3528000000,
                                    "mediaStart" : 0,
                                    "mediaDuration" : 3528000000,
                                    "scalar" : 1,
                                    "metadata" : {
                                      "AppliedThemeId" : "",
                                      "clipSpeedAttribute" : false,
                                      "effectApplied" : "none"
                                    },
                                    "animationTracks" : {

                                    }
                                  }
                                ],
                                  "ident" : "",
                                  "audioMuted" : false,
                                  "videoHidden" : false,
                                  "magnetic" : false,
                                  "matte" : 1,
                                  "solo" : false,
                                  "metadata" : {
                                    "IsLocked" : "False",
                                    "WinTrackHeight" : "56",
                                    "trackHeight" : "54"
                                  }
                              }
                            ],
                            "attributes" : {
                              "ident" : "Rect-1400x1600-Mask",
                              "widthAttr" : 1405.0,
                              "heightAttr" : 167.002,
                              "gain" : 1.0,
                              "mixToMono" : false
                            },
                            "effects" : [

                            ],
                            "start" : 0,
                            "duration" : 3528000000,
                            "mediaStart" : 0.0,
                            "mediaDuration" : 3528000000.0,
                            "scalar" : 1,
                            "metadata" : {
                              "clipSpeedAttribute" : false,
                              "effectApplied" : "none",
                              "isOpen" : false,
                              "lockAspectRatio" : true
                            },
                            "animationTracks" : {
                              "visual" : [
                                {
                                  "endTime" : 552720000,
                                  "duration" : 552720000,
                                  "range" : [ 0, 552720000],
                                  "interp" : "eioe"
                                },
                                {
                                  "endTime" : 1775760000,
                                  "duration" : 399840000,
                                  "range" : [ 1375920000, 399840000],
                                  "interp" : "eioe"
                                }
                              ]
                            }
                          }
                        ],
                          "ident" : "",
                          "audioMuted" : false,
                          "videoHidden" : false,
                          "magnetic" : false,
                          "matte" : 1,
                          "solo" : false,
                          "metadata" : {
                            "IsLocked" : "False",
                            "WinTrackHeight" : "56",
                            "trackHeight" : "54"
                          }
                      },
                      {
                        "trackIndex" : 2,
                        "medias" : [
                          {
                            "id" : 398,
                            "_type" : "Group",
                            "parameters" : {
                              "translation0" : {
                                "type" : "double",
                                "defaultValue" : 0.0,
                                "keyframes" : [
                                  {
                                    "endTime" : 552720000,
                                    "time" : 0,
                                    "value" : 0.0,
                                    "interp" : "eioe",
                                    "duration" : 552720000
                                  },
                                  {
                                    "endTime" : 1775760000,
                                    "time" : 1375920000,
                                    "value" : 0.0,
                                    "interp" : "eioe",
                                    "duration" : 399840000
                                  }
                                ]
                              },
                              "translation1" : {
                                "type" : "double",
                                "defaultValue" : -233.610046386719,
                                "keyframes" : [
                                  {
                                    "endTime" : 552720000,
                                    "time" : 0,
                                    "value" : 90.0,
                                    "interp" : "eioe",
                                    "duration" : 552720000
                                  },
                                  {
                                    "endTime" : 1775760000,
                                    "time" : 1375920000,
                                    "value" : -233.610046386719,
                                    "interp" : "eioe",
                                    "duration" : 399840000
                                  }
                                ]
                              },
                              "sourceCrop0" : 0.0,
                              "sourceCrop1" : 0.0,
                              "sourceCrop2" : 0.0,
                              "sourceCrop3" : 0.0,
                              "geometryCrop0" : 0.0,
                              "geometryCrop1" : 0.0,
                              "geometryCrop2" : 0.0,
                              "geometryCrop3" : 0.0,
                              "opacity" : {
                                "type" : "double",
                                "defaultValue" : 1.0,
                                "keyframes" : [
                                  {
                                    "endTime" : 552720000,
                                    "time" : 0,
                                    "value" : 1.0,
                                    "interp" : "eioe",
                                    "duration" : 552720000
                                  }
                                ]
                              },
                              "volume" : 1.0
                            },
                            "tracks" : [
                              {
                                "trackIndex" : 0,
                                "medias" : [
                                  {
                                    "id" : 399,
                                    "_type" : "Callout",
                                    "def" : {
                                      "kind" : "remix",
                                      "shape" : "shape-rectangle",
                                      "style" : "bold",
                                      "fill-color-blue" : 0.2196078431,
                                      "fill-color-green" : 0.8745098039,
                                      "fill-color-opacity" : 1.0,
                                      "fill-color-red" : 1.0,
                                      "hasDropShadow" : 0.0,
                                      "height" : 163.002035140991,
                                      "savedXScale" : 1.0,
                                      "savedYScale" : 1.0,
                                      "stroke-color-blue" : 1.0,
                                      "stroke-color-green" : 1.0,
                                      "stroke-color-opacity" : 1.0,
                                      "stroke-color-red" : 1.0,
                                      "stroke-width" : 0.0,
                                      "width" : 1403.00212860107,
                                      "custom" : "Y",
                                      "fill-style" : "solid",
                                      "stroke-style" : "solid"
                                    },
                                    "attributes" : {
                                      "ident" : "",
                                      "autoRotateText" : true
                                    },
                                    "parameters" : {
                                      "anchor0" : -1.0,
                                      "anchor1" : 2.0,
                                      "sourceCrop0" : 0.0,
                                      "sourceCrop1" : 0.0,
                                      "sourceCrop2" : 0.0,
                                      "sourceCrop3" : 0.0,
                                      "geometryCrop0" : 0.0,
                                      "geometryCrop1" : 0.0,
                                      "geometryCrop2" : 0.0,
                                      "geometryCrop3" : 0.0
                                    },
                                    "effects" : [

                                    ],
                                    "start" : 0,
                                    "duration" : 3528000000,
                                    "mediaStart" : 0,
                                    "mediaDuration" : 3528000000,
                                    "scalar" : 1,
                                    "metadata" : {
                                      "AppliedThemeId" : "",
                                      "clipSpeedAttribute" : false,
                                      "effectApplied" : "none",
                                      "lockAspectRatio" : false
                                    },
                                    "animationTracks" : {

                                    }
                                  }
                                ],
                                  "ident" : "",
                                  "audioMuted" : false,
                                  "videoHidden" : false,
                                  "magnetic" : false,
                                  "matte" : 0,
                                  "solo" : false,
                                  "metadata" : {
                                    "IsLocked" : "False",
                                    "WinTrackHeight" : "56",
                                    "trackHeight" : "54"
                                  }
                              },
                              {
                                "trackIndex" : 1,
                                "medias" : [
                                  {
                                    "id" : 400,
                                    "_type" : "Callout",
                                    "def" : {
                                      "kind" : "remix",
                                      "shape" : "shape-rectangle",
                                      "style" : "bold",
                                      "fill-color-blue" : 0.756862759590149,
                                      "fill-color-green" : 0.18823529779911,
                                      "fill-color-opacity" : 1.0,
                                      "fill-color-red" : 0.960784316062927,
                                      "hasDropShadow" : 0.0,
                                      "height" : 160.0,
                                      "savedXScale" : 1.0,
                                      "savedYScale" : 1.0,
                                      "stroke-color-blue" : 0.886274516582489,
                                      "stroke-color-green" : 0.200000002980232,
                                      "stroke-color-opacity" : 0.0,
                                      "stroke-color-red" : 0.376470595598221,
                                      "stroke-width" : 0.0,
                                      "width" : 1400.0,
                                      "custom" : "Y",
                                      "fill-style" : "solid",
                                      "stroke-style" : "solid"
                                    },
                                    "attributes" : {
                                      "ident" : "",
                                      "autoRotateText" : true
                                    },
                                    "parameters" : {
                                      "translation1" : {
                                        "type" : "double",
                                        "defaultValue" : -1.0,
                                        "keyframes" : [
                                          {
                                            "endTime" : 270480000,
                                            "time" : 0,
                                            "value" : 0.0,
                                            "duration" : 270480000
                                          }
                                        ]
                                      },
                                      "scale0" : {
                                        "type" : "double",
                                        "defaultValue" : 1.0,
                                        "keyframes" : [
                                          {
                                            "endTime" : 270480000,
                                            "time" : 0,
                                            "value" : 1.0,
                                            "duration" : 270480000
                                          }
                                        ]
                                      },
                                      "scale1" : {
                                        "type" : "double",
                                        "defaultValue" : 0.125,
                                        "keyframes" : [
                                          {
                                            "endTime" : 270480000,
                                            "time" : 0,
                                            "value" : 0.5,
                                            "duration" : 270480000
                                          },
                                          {
                                            "endTime" : 552720000,
                                            "time" : 282240000,
                                            "value" : 0.125,
                                            "duration" : 270480000
                                          }
                                        ]
                                      },
                                      "sourceCrop0" : 0.0,
                                      "sourceCrop1" : 0.0,
                                      "sourceCrop2" : 0.0,
                                      "sourceCrop3" : 0.0,
                                      "geometryCrop0" : 0.0,
                                      "geometryCrop1" : 0.0,
                                      "geometryCrop2" : 0.0,
                                      "geometryCrop3" : 0.0
                                    },
                                    "effects" : [

                                    ],
                                    "start" : 0,
                                    "duration" : 3528000000,
                                    "mediaStart" : 0,
                                    "mediaDuration" : 3528000000,
                                    "scalar" : 1,
                                    "metadata" : {
                                      "AppliedThemeId" : "",
                                      "clipSpeedAttribute" : false,
                                      "effectApplied" : "none"
                                    },
                                    "animationTracks" : {
                                      "visual" : [
                                        {
                                          "endTime" : 270480000,
                                          "duration" : 270480000,
                                          "range" : [ 0, 270480000]
                                        },
                                        {
                                          "endTime" : 552720000,
                                          "duration" : 270480000,
                                          "range" : [ 282240000, 270480000]
                                        }
                                      ]
                                    }
                                  }
                                ],
                                  "ident" : "",
                                  "audioMuted" : false,
                                  "videoHidden" : false,
                                  "magnetic" : false,
                                  "matte" : 1,
                                  "solo" : false,
                                  "metadata" : {
                                    "IsLocked" : "False",
                                    "WinTrackHeight" : "56",
                                    "trackHeight" : "54"
                                  }
                              }
                            ],
                            "attributes" : {
                              "ident" : "Animated-Pulse-1400x20-To-1400x80",
                              "widthAttr" : 1405.0,
                              "heightAttr" : 167.002,
                              "gain" : 1.0,
                              "mixToMono" : false,
                              "assetProperties" : [
                                {
                                  "type" : 1,
                                  "name" : "Color",
                                  "objects" : [ 399 ],
                                  "themeMappings" :  {
                                    "fill" : "accent-1"
                                  }
                                }
                              ]
                            },
                            "effects" : [

                            ],
                            "start" : 0,
                            "duration" : 3528000000,
                            "mediaStart" : 0.0,
                            "mediaDuration" : 3528000000.0,
                            "scalar" : 1,
                            "metadata" : {
                              "AppliedThemeId" : "8e797988-b823-4beb-b251-1d31b461ba07",
                              "clipSpeedAttribute" : false,
                              "effectApplied" : "none",
                              "isOpen" : false,
                              "lockAspectRatio" : true
                            },
                            "animationTracks" : {
                              "visual" : [
                                {
                                  "endTime" : 552720000,
                                  "duration" : 552720000,
                                  "range" : [ 0, 552720000],
                                  "interp" : "eioe"
                                },
                                {
                                  "endTime" : 1775760000,
                                  "duration" : 399840000,
                                  "range" : [ 1375920000, 399840000],
                                  "interp" : "eioe"
                                }
                              ]
                            }
                          }
                        ],
                          "ident" : "",
                          "audioMuted" : false,
                          "videoHidden" : false,
                          "magnetic" : false,
                          "matte" : 0,
                          "solo" : false,
                          "metadata" : {
                            "IsLocked" : "False",
                            "WinTrackHeight" : "56",
                            "trackHeight" : "54"
                          }
                      },
                      {
                        "trackIndex" : 3,
                        "medias" : [
                          {
                            "id" : 401,
                            "_type" : "Group",
                            "parameters" : {
                              "translation0" : {
                                "type" : "double",
                                "defaultValue" : 0.0,
                                "keyframes" : [
                                  {
                                    "endTime" : 552720000,
                                    "time" : 0,
                                    "value" : 0.0,
                                    "interp" : "eioe",
                                    "duration" : 552720000
                                  },
                                  {
                                    "endTime" : 1775760000,
                                    "time" : 1375920000,
                                    "value" : 0.0,
                                    "interp" : "eioe",
                                    "duration" : 399840000
                                  }
                                ]
                              },
                              "translation1" : {
                                "type" : "double",
                                "defaultValue" : -143.610046386719,
                                "keyframes" : [
                                  {
                                    "endTime" : 552720000,
                                    "time" : 0,
                                    "value" : 0.0,
                                    "interp" : "eioe",
                                    "duration" : 552720000
                                  },
                                  {
                                    "endTime" : 1775760000,
                                    "time" : 1375920000,
                                    "value" : -143.610046386719,
                                    "interp" : "eioe",
                                    "duration" : 399840000
                                  }
                                ]
                              },
                              "sourceCrop0" : 0.0,
                              "sourceCrop1" : 0.0,
                              "sourceCrop2" : 0.0,
                              "sourceCrop3" : 0.0,
                              "geometryCrop0" : 0.0,
                              "geometryCrop1" : 0.0,
                              "geometryCrop2" : 0.0,
                              "geometryCrop3" : 0.0,
                              "opacity" : {
                                "type" : "double",
                                "defaultValue" : 1.0,
                                "keyframes" : [
                                  {
                                    "endTime" : 552720000,
                                    "time" : 0,
                                    "value" : 1.0,
                                    "interp" : "eioe",
                                    "duration" : 552720000
                                  }
                                ]
                              },
                              "volume" : 1.0
                            },
                            "tracks" : [
                              {
                                "trackIndex" : 0,
                                "medias" : [
                                  {
                                    "id" : 402,
                                    "_type" : "Callout",
                                    "def" : {
                                      "kind" : "remix",
                                      "shape" : "shape-rectangle",
                                      "style" : "bold",
                                      "fill-color-blue" : 0.913725490196078,
                                      "fill-color-green" : 0.949019607843137,
                                      "fill-color-opacity" : 1.0,
                                      "fill-color-red" : 0.933333333333333,
                                      "hasDropShadow" : 0.0,
                                      "height" : 163.002035140991,
                                      "savedXScale" : 1.0,
                                      "savedYScale" : 1.0,
                                      "stroke-color-blue" : 1.0,
                                      "stroke-color-green" : 1.0,
                                      "stroke-color-opacity" : 1.0,
                                      "stroke-color-red" : 1.0,
                                      "stroke-width" : 0.0,
                                      "width" : 1403.00212860107,
                                      "custom" : "Y",
                                      "fill-style" : "solid",
                                      "stroke-style" : "solid"
                                    },
                                    "attributes" : {
                                      "ident" : "",
                                      "autoRotateText" : true
                                    },
                                    "parameters" : {
                                      "anchor0" : -1.0,
                                      "anchor1" : 2.0,
                                      "sourceCrop0" : 0.0,
                                      "sourceCrop1" : 0.0,
                                      "sourceCrop2" : 0.0,
                                      "sourceCrop3" : 0.0,
                                      "geometryCrop0" : 0.0,
                                      "geometryCrop1" : 0.0,
                                      "geometryCrop2" : 0.0,
                                      "geometryCrop3" : 0.0
                                    },
                                    "effects" : [

                                    ],
                                    "start" : 0,
                                    "duration" : 3528000000,
                                    "mediaStart" : 0,
                                    "mediaDuration" : 3528000000,
                                    "scalar" : 1,
                                    "metadata" : {
                                      "AppliedThemeId" : "",
                                      "clipSpeedAttribute" : false,
                                      "effectApplied" : "none",
                                      "lockAspectRatio" : false
                                    },
                                    "animationTracks" : {

                                    }
                                  }
                                ],
                                  "ident" : "",
                                  "audioMuted" : false,
                                  "videoHidden" : false,
                                  "magnetic" : false,
                                  "matte" : 0,
                                  "solo" : false,
                                  "metadata" : {
                                    "IsLocked" : "False",
                                    "WinTrackHeight" : "56",
                                    "trackHeight" : "54"
                                  }
                              },
                              {
                                "trackIndex" : 1,
                                "medias" : [
                                  {
                                    "id" : 403,
                                    "_type" : "Callout",
                                    "def" : {
                                      "kind" : "remix",
                                      "shape" : "shape-rectangle",
                                      "style" : "bold",
                                      "fill-color-blue" : 0.756862759590149,
                                      "fill-color-green" : 0.18823529779911,
                                      "fill-color-opacity" : 1.0,
                                      "fill-color-red" : 0.960784316062927,
                                      "hasDropShadow" : 0.0,
                                      "height" : 160.0,
                                      "savedXScale" : 1.0,
                                      "savedYScale" : 1.0,
                                      "stroke-color-blue" : 0.886274516582489,
                                      "stroke-color-green" : 0.200000002980232,
                                      "stroke-color-opacity" : 0.0,
                                      "stroke-color-red" : 0.376470595598221,
                                      "stroke-width" : 0.0,
                                      "width" : 1400.0,
                                      "custom" : "Y",
                                      "fill-style" : "solid",
                                      "stroke-style" : "solid"
                                    },
                                    "attributes" : {
                                      "ident" : "",
                                      "autoRotateText" : true
                                    },
                                    "parameters" : {
                                      "sourceCrop0" : 0.0,
                                      "sourceCrop1" : 0.0,
                                      "sourceCrop2" : 0.0,
                                      "sourceCrop3" : 0.0,
                                      "geometryCrop0" : 0.0,
                                      "geometryCrop1" : 0.0,
                                      "geometryCrop2" : 0.0,
                                      "geometryCrop3" : 0.0
                                    },
                                    "effects" : [

                                    ],
                                    "start" : 0,
                                    "duration" : 3528000000,
                                    "mediaStart" : 0,
                                    "mediaDuration" : 3528000000,
                                    "scalar" : 1,
                                    "metadata" : {
                                      "AppliedThemeId" : "",
                                      "clipSpeedAttribute" : false,
                                      "effectApplied" : "none"
                                    },
                                    "animationTracks" : {

                                    }
                                  }
                                ],
                                  "ident" : "",
                                  "audioMuted" : false,
                                  "videoHidden" : false,
                                  "magnetic" : false,
                                  "matte" : 1,
                                  "solo" : false,
                                  "metadata" : {
                                    "IsLocked" : "False",
                                    "WinTrackHeight" : "56",
                                    "trackHeight" : "54"
                                  }
                              }
                            ],
                            "attributes" : {
                              "ident" : "Rect-1400x1600-Mask",
                              "widthAttr" : 1405.0,
                              "heightAttr" : 167.002,
                              "gain" : 1.0,
                              "mixToMono" : false
                            },
                            "effects" : [

                            ],
                            "start" : 0,
                            "duration" : 3528000000,
                            "mediaStart" : 0.0,
                            "mediaDuration" : 3528000000.0,
                            "scalar" : 1,
                            "metadata" : {
                              "clipSpeedAttribute" : false,
                              "effectApplied" : "none",
                              "isOpen" : false,
                              "lockAspectRatio" : true
                            },
                            "animationTracks" : {
                              "visual" : [
                                {
                                  "endTime" : 552720000,
                                  "duration" : 552720000,
                                  "range" : [ 0, 552720000],
                                  "interp" : "eioe"
                                },
                                {
                                  "endTime" : 1775760000,
                                  "duration" : 399840000,
                                  "range" : [ 1375920000, 399840000],
                                  "interp" : "eioe"
                                }
                              ]
                            }
                          }
                        ],
                          "ident" : "",
                          "audioMuted" : false,
                          "videoHidden" : false,
                          "magnetic" : false,
                          "matte" : 1,
                          "solo" : false,
                          "metadata" : {
                            "IsLocked" : "False",
                            "WinTrackHeight" : "56",
                            "trackHeight" : "54"
                          }
                      }
                    ],
                    "attributes" : {
                      "ident" : "Broadcast-Title-012",
                      "widthAttr" : 1405.0,
                      "heightAttr" : 160.0,
                      "gain" : 1.0,
                      "mixToMono" : false,
                      "assetProperties" : [
                        {
                          "type" : 0,
                          "name" : "Title",
                          "objects" : [ 394 ],
                          "themeMappings" :  {
                            "font-color" : "foreground-1"
                          }
                        },
                        {
                          "type" : 1,
                          "name" : "Fill",
                          "objects" : [ 392 ],
                          "themeMappings" :  {
                            "fill" : "background-1"
                          }
                        },
                        {
                          "type" : 1,
                          "name" : "Wiper",
                          "objects" : [ 399 ],
                          "themeMappings" :  {
                            "fill" : "foreground-1"
                          }
                        }
                      ]
                    },
                    "effects" : [

                    ],
                    "start" : 1928640000,
                    "duration" : 1764000000,
                    "mediaStart" : 0.0,
                    "mediaDuration" : 1764000000.0,
                    "scalar" : 1,
                    "metadata" : {
                      "AppliedThemeId" : "170ba59c-db5d-4b9a-a310-e7e99853a4b7",
                      "clipSpeedAttribute" : false,
                      "default-anchor0" : 0.0,
                      "default-anchor1" : 0.0,
                      "default-anchor2" : 0.0,
                      "default-geometryCrop0" : 0.0,
                      "default-geometryCrop2" : 0.0,
                      "default-height" : 160.0,
                      "default-rotation0" : 0.0,
                      "default-rotation1" : 0.0,
                      "default-rotation2" : 0.0,
                      "default-scale0" : 1.0,
                      "default-scale1" : 1.0,
                      "default-scale2" : 1.0,
                      "default-shear0" : 0.0,
                      "default-shear1" : 0.0,
                      "default-shear2" : 0.0,
                      "default-translation0" : 0.0,
                      "default-translation1" : 0.0,
                      "default-translation2" : 0.0,
                      "default-width" : 1405.0,
                      "effectApplied" : "none",
                      "isOpen" : false,
                      "lockAspectRatio" : true
                    },
                    "animationTracks" : {

                    }
                  }
                ]
              },
              {
                "trackIndex" : 113,
                "medias" : [
                  {
                    "id" : 404,
                    "_type" : "Group",
                    "parameters" : {
                      "translation0" : -415.0,
                      "translation1" : -349.34375,
                      "scale0" : 0.213523131672598,
                      "scale1" : 0.21875,
                      "sourceCrop0" : 0.0,
                      "sourceCrop1" : 0.0,
                      "sourceCrop2" : 0.0,
                      "sourceCrop3" : 0.0,
                      "geometryCrop0" : 0.0,
                      "geometryCrop1" : 0.0,
                      "geometryCrop2" : 0.0,
                      "geometryCrop3" : 0.0,
                      "volume" : 1.0
                    },
                    "tracks" : [
                      {
                        "trackIndex" : 0,
                        "medias" : [
                          {
                            "id" : 405,
                            "_type" : "Group",
                            "parameters" : {
                              "translation0" : {
                                "type" : "double",
                                "defaultValue" : 0.0,
                                "keyframes" : [
                                  {
                                    "endTime" : 552720000,
                                    "time" : 0,
                                    "value" : 0.0,
                                    "interp" : "eioe",
                                    "duration" : 552720000
                                  },
                                  {
                                    "endTime" : 1775760000,
                                    "time" : 1375920000,
                                    "value" : 0.0,
                                    "interp" : "eioe",
                                    "duration" : 399840000
                                  }
                                ]
                              },
                              "translation1" : {
                                "type" : "double",
                                "defaultValue" : -305.610046386719,
                                "keyframes" : [
                                  {
                                    "endTime" : 552720000,
                                    "time" : 0,
                                    "value" : 0.0,
                                    "interp" : "eioe",
                                    "duration" : 552720000
                                  },
                                  {
                                    "endTime" : 1775760000,
                                    "time" : 1375920000,
                                    "value" : -304.610046386719,
                                    "interp" : "eioe",
                                    "duration" : 399840000
                                  }
                                ]
                              },
                              "sourceCrop0" : 0.0,
                              "sourceCrop1" : 0.0,
                              "sourceCrop2" : 0.0,
                              "sourceCrop3" : 0.0,
                              "geometryCrop0" : 0.0,
                              "geometryCrop1" : 0.0,
                              "geometryCrop2" : 0.0,
                              "geometryCrop3" : 0.0,
                              "volume" : 1.0
                            },
                            "tracks" : [
                              {
                                "trackIndex" : 0,
                                "medias" : [
                                  {
                                    "id" : 406,
                                    "_type" : "Group",
                                    "parameters" : {
                                      "sourceCrop0" : 0.0,
                                      "sourceCrop1" : 0.0,
                                      "sourceCrop2" : 0.0,
                                      "sourceCrop3" : 0.0,
                                      "geometryCrop0" : 0.0,
                                      "geometryCrop1" : 0.0,
                                      "geometryCrop2" : 0.0,
                                      "geometryCrop3" : 0.0,
                                      "volume" : 1.0
                                    },
                                    "tracks" : [
                                      {
                                        "trackIndex" : 0,
                                        "medias" : [
                                          {
                                            "id" : 407,
                                            "_type" : "Callout",
                                            "def" : {
                                              "kind" : "remix",
                                              "shape" : "shape-rectangle",
                                              "style" : "bold",
                                              "fill-color-blue" : 1.0,
                                              "fill-color-green" : 1.0,
                                              "fill-color-opacity" : 1.0,
                                              "fill-color-red" : 1.0,
                                              "hasDropShadow" : 0.0,
                                              "height" : 163.002035140991,
                                              "savedXScale" : 1.0,
                                              "savedYScale" : 1.0,
                                              "stroke-color-blue" : 1.0,
                                              "stroke-color-green" : 1.0,
                                              "stroke-color-opacity" : 1.0,
                                              "stroke-color-red" : 1.0,
                                              "stroke-width" : 0.0,
                                              "width" : 1403.00212860107,
                                              "custom" : "Y",
                                              "fill-style" : "solid",
                                              "stroke-style" : "solid"
                                            },
                                            "attributes" : {
                                              "ident" : "",
                                              "autoRotateText" : true
                                            },
                                            "parameters" : {
                                              "anchor0" : -1.0,
                                              "anchor1" : 2.0,
                                              "sourceCrop0" : 0.0,
                                              "sourceCrop1" : 0.0,
                                              "sourceCrop2" : 0.0,
                                              "sourceCrop3" : 0.0,
                                              "geometryCrop0" : 0.0,
                                              "geometryCrop1" : 0.0,
                                              "geometryCrop2" : 0.0,
                                              "geometryCrop3" : 0.0
                                            },
                                            "effects" : [

                                            ],
                                            "start" : 0,
                                            "duration" : 3528000000,
                                            "mediaStart" : 0,
                                            "mediaDuration" : 3528000000,
                                            "scalar" : 1,
                                            "metadata" : {
                                              "AppliedThemeId" : "",
                                              "clipSpeedAttribute" : false,
                                              "effectApplied" : "none",
                                              "lockAspectRatio" : false
                                            },
                                            "animationTracks" : {

                                            }
                                          }
                                        ],
                                          "ident" : "",
                                          "audioMuted" : false,
                                          "videoHidden" : false,
                                          "magnetic" : false,
                                          "matte" : 0,
                                          "solo" : false,
                                          "metadata" : {
                                            "IsLocked" : "False",
                                            "WinTrackHeight" : "56",
                                            "trackHeight" : "54"
                                          }
                                      },
                                      {
                                        "trackIndex" : 1,
                                        "medias" : [
                                          {
                                            "id" : 408,
                                            "_type" : "Callout",
                                            "def" : {
                                              "kind" : "remix",
                                              "shape" : "shape-rectangle",
                                              "style" : "bold",
                                              "fill-color-blue" : 0.756862759590149,
                                              "fill-color-green" : 0.18823529779911,
                                              "fill-color-opacity" : 1.0,
                                              "fill-color-red" : 0.960784316062927,
                                              "hasDropShadow" : 0.0,
                                              "height" : 160.0,
                                              "savedXScale" : 1.0,
                                              "savedYScale" : 1.0,
                                              "stroke-color-blue" : 0.886274516582489,
                                              "stroke-color-green" : 0.200000002980232,
                                              "stroke-color-opacity" : 0.0,
                                              "stroke-color-red" : 0.376470595598221,
                                              "stroke-width" : 0.0,
                                              "width" : 1400.0,
                                              "custom" : "Y",
                                              "fill-style" : "solid",
                                              "stroke-style" : "solid"
                                            },
                                            "attributes" : {
                                              "ident" : "",
                                              "autoRotateText" : true
                                            },
                                            "parameters" : {
                                              "sourceCrop0" : 0.0,
                                              "sourceCrop1" : 0.0,
                                              "sourceCrop2" : 0.0,
                                              "sourceCrop3" : 0.0,
                                              "geometryCrop0" : 0.0,
                                              "geometryCrop1" : 0.0,
                                              "geometryCrop2" : 0.0,
                                              "geometryCrop3" : 0.0
                                            },
                                            "effects" : [

                                            ],
                                            "start" : 0,
                                            "duration" : 3528000000,
                                            "mediaStart" : 0,
                                            "mediaDuration" : 3528000000,
                                            "scalar" : 1,
                                            "metadata" : {
                                              "AppliedThemeId" : "",
                                              "clipSpeedAttribute" : false,
                                              "effectApplied" : "none"
                                            },
                                            "animationTracks" : {

                                            }
                                          }
                                        ],
                                          "ident" : "",
                                          "audioMuted" : false,
                                          "videoHidden" : false,
                                          "magnetic" : false,
                                          "matte" : 1,
                                          "solo" : false,
                                          "metadata" : {
                                            "IsLocked" : "False",
                                            "WinTrackHeight" : "56",
                                            "trackHeight" : "54"
                                          }
                                      }
                                    ],
                                    "attributes" : {
                                      "ident" : "Fill-1400x160",
                                      "widthAttr" : 1405.0,
                                      "heightAttr" : 167.002,
                                      "gain" : 1.0,
                                      "mixToMono" : false
                                    },
                                    "effects" : [

                                    ],
                                    "start" : 0,
                                    "duration" : 3528000000,
                                    "mediaStart" : 0.0,
                                    "mediaDuration" : 3528000000.0,
                                    "scalar" : 1,
                                    "metadata" : {
                                      "clipSpeedAttribute" : false,
                                      "effectApplied" : "none",
                                      "isOpen" : false,
                                      "lockAspectRatio" : true
                                    },
                                    "animationTracks" : {

                                    }
                                  }
                                ],
                                  "ident" : "",
                                  "audioMuted" : false,
                                  "videoHidden" : false,
                                  "magnetic" : false,
                                  "matte" : 0,
                                  "solo" : false,
                                  "metadata" : {
                                    "IsLocked" : "False",
                                    "WinTrackHeight" : "56",
                                    "trackHeight" : "54"
                                  }
                              },
                              {
                                "trackIndex" : 1,
                                "medias" : [
                                  {
                                    "id" : 409,
                                    "_type" : "Callout",
                                    "def" : {
                                      "kind" : "remix",
                                      "shape" : "text",
                                      "style" : "urban",
                                      "enable-ligatures" : 1.0,
                                      "hasDropShadow" : 0.0,
                                      "height" : 170.0,
                                      "line-spacing" : 0.0,
                                      "savedXScale" : 1.0,
                                      "savedYScale" : 1.0,
                                      "width" : 1400.0,
                                      "word-wrap" : 1.0,
                                      "custom" : "Y",
                                      "horizontal-alignment" : "left",
                                      "resize-behavior" : "resizeText",
                                      "text" : "group show level 1",
                                      "vertical-alignment" : "center",
                                      "font" : {
                                        "color-blue" : 1.0,
                                        "color-green" : 1.0,
                                        "color-red" : 1.0,
                                        "size" : 96.0,
                                        "tracking" : 0.0,
                                        "name" : "Dosis",
                                        "weight" : "Semi Bold"
                                      },
                                      "textAttributes" : {
                                        "type" : "textAttributeList",
                                        "keyframes" : [
                                          {
                                            "endTime" : 0,
                                            "time" : 0,
                                            "value" : [{"name":"underline","rangeEnd":18,"rangeStart":0,"value":0,"valueType":"int"},{"name":"strikethrough","rangeEnd":18,"rangeStart":0,"value":0,"valueType":"int"},{"name":"fontName","rangeEnd":18,"rangeStart":0,"value":"Roboto","valueType":"string"},{"name":"kerning","rangeEnd":18,"rangeStart":0,"value":0.049883078231292483,"valueType":"double"},{"name":"fontItalic","rangeEnd":18,"rangeStart":0,"value":0,"valueType":"int"},{"name":"fontWeight","rangeEnd":18,"rangeStart":0,"value":700,"valueType":"int"},{"name":"fontSize","rangeEnd":18,"rangeStart":0,"value":86,"valueType":"double"},{"name":"fgColor","rangeEnd":18,"rangeStart":0,"value":"(110,110,110,255)","valueType":"color"}],
                                            "duration" : 0
                                          }
                                        ]
                                      }
                                    },
                                    "attributes" : {
                                      "ident" : "",
                                      "autoRotateText" : true
                                    },
                                    "parameters" : {
                                      "translation1" : -2.0,
                                      "sourceCrop0" : 0.0,
                                      "sourceCrop1" : 0.0,
                                      "sourceCrop2" : 0.0,
                                      "sourceCrop3" : 0.0,
                                      "geometryCrop0" : 0.0,
                                      "geometryCrop1" : 0.0,
                                      "geometryCrop2" : 0.0,
                                      "geometryCrop3" : 0.0
                                    },
                                    "effects" : [

                                    ],
                                    "start" : 0,
                                    "duration" : 3528000000,
                                    "mediaStart" : 0,
                                    "mediaDuration" : 3528000000,
                                    "scalar" : 1,
                                    "metadata" : {
                                      "AppliedThemeId" : "",
                                      "clipSpeedAttribute" : false,
                                      "effectApplied" : "none",
                                      "lockAspectRatio" : false
                                    },
                                    "animationTracks" : {

                                    }
                                  }
                                ],
                                  "ident" : "",
                                  "audioMuted" : false,
                                  "videoHidden" : false,
                                  "magnetic" : false,
                                  "matte" : 0,
                                  "solo" : false,
                                  "metadata" : {
                                    "IsLocked" : "False",
                                    "WinTrackHeight" : "56",
                                    "trackHeight" : "54"
                                  }
                              }
                            ],
                            "attributes" : {
                              "ident" : "BP-Title-11",
                              "widthAttr" : 1405.0,
                              "heightAttr" : 167.002,
                              "gain" : 1.0,
                              "mixToMono" : false,
                              "assetProperties" : [
                                {
                                  "type" : 0,
                                  "name" : "Title",
                                  "objects" : [ 409 ],
                                  "themeMappings" :  {
                                    "font-color" : "foreground-1"
                                  }
                                },
                                {
                                  "type" : 1,
                                  "name" : "Fill",
                                  "objects" : [ 407 ],
                                  "themeMappings" :  {
                                    "fill" : "background-1"
                                  }
                                }
                              ]
                            },
                            "effects" : [

                            ],
                            "start" : 0,
                            "duration" : 3528000000,
                            "mediaStart" : 0.0,
                            "mediaDuration" : 3528000000.0,
                            "scalar" : 1,
                            "metadata" : {
                              "clipSpeedAttribute" : false,
                              "effectApplied" : "none",
                              "isOpen" : false,
                              "lockAspectRatio" : true
                            },
                            "animationTracks" : {
                              "visual" : [
                                {
                                  "endTime" : 552720000,
                                  "duration" : 552720000,
                                  "range" : [ 0, 552720000],
                                  "interp" : "eioe"
                                },
                                {
                                  "endTime" : 1775760000,
                                  "duration" : 399840000,
                                  "range" : [ 1375920000, 399840000],
                                  "interp" : "eioe"
                                }
                              ]
                            }
                          }
                        ],
                          "ident" : "",
                          "audioMuted" : false,
                          "videoHidden" : false,
                          "magnetic" : false,
                          "matte" : 0,
                          "solo" : false,
                          "metadata" : {
                            "IsLocked" : "False",
                            "WinTrackHeight" : "56",
                            "trackHeight" : "54"
                          }
                      },
                      {
                        "trackIndex" : 1,
                        "medias" : [
                          {
                            "id" : 410,
                            "_type" : "Group",
                            "parameters" : {
                              "translation0" : {
                                "type" : "double",
                                "defaultValue" : 0.0,
                                "keyframes" : [
                                  {
                                    "endTime" : 552720000,
                                    "time" : 0,
                                    "value" : 0.0,
                                    "interp" : "eioe",
                                    "duration" : 552720000
                                  },
                                  {
                                    "endTime" : 1775760000,
                                    "time" : 1375920000,
                                    "value" : 0.0,
                                    "interp" : "eioe",
                                    "duration" : 399840000
                                  }
                                ]
                              },
                              "translation1" : {
                                "type" : "double",
                                "defaultValue" : -144.610046386719,
                                "keyframes" : [
                                  {
                                    "endTime" : 552720000,
                                    "time" : 0,
                                    "value" : 0.0,
                                    "interp" : "eioe",
                                    "duration" : 552720000
                                  },
                                  {
                                    "endTime" : 1775760000,
                                    "time" : 1375920000,
                                    "value" : -144.610046386719,
                                    "interp" : "eioe",
                                    "duration" : 399840000
                                  }
                                ]
                              },
                              "sourceCrop0" : 0.0,
                              "sourceCrop1" : 0.0,
                              "sourceCrop2" : 0.0,
                              "sourceCrop3" : 0.0,
                              "geometryCrop0" : 0.0,
                              "geometryCrop1" : 0.0,
                              "geometryCrop2" : 0.0,
                              "geometryCrop3" : 0.0,
                              "opacity" : {
                                "type" : "double",
                                "defaultValue" : 1.0,
                                "keyframes" : [
                                  {
                                    "endTime" : 552720000,
                                    "time" : 0,
                                    "value" : 1.0,
                                    "interp" : "eioe",
                                    "duration" : 552720000
                                  }
                                ]
                              },
                              "volume" : 1.0
                            },
                            "tracks" : [
                              {
                                "trackIndex" : 0,
                                "medias" : [
                                  {
                                    "id" : 411,
                                    "_type" : "Callout",
                                    "def" : {
                                      "kind" : "remix",
                                      "shape" : "shape-rectangle",
                                      "style" : "bold",
                                      "fill-color-blue" : 0.913725490196078,
                                      "fill-color-green" : 0.949019607843137,
                                      "fill-color-opacity" : 1.0,
                                      "fill-color-red" : 0.933333333333333,
                                      "hasDropShadow" : 0.0,
                                      "height" : 163.002035140991,
                                      "savedXScale" : 1.0,
                                      "savedYScale" : 1.0,
                                      "stroke-color-blue" : 1.0,
                                      "stroke-color-green" : 1.0,
                                      "stroke-color-opacity" : 1.0,
                                      "stroke-color-red" : 1.0,
                                      "stroke-width" : 0.0,
                                      "width" : 1403.00212860107,
                                      "custom" : "Y",
                                      "fill-style" : "solid",
                                      "stroke-style" : "solid"
                                    },
                                    "attributes" : {
                                      "ident" : "",
                                      "autoRotateText" : true
                                    },
                                    "parameters" : {
                                      "anchor0" : -1.0,
                                      "anchor1" : 2.0,
                                      "sourceCrop0" : 0.0,
                                      "sourceCrop1" : 0.0,
                                      "sourceCrop2" : 0.0,
                                      "sourceCrop3" : 0.0,
                                      "geometryCrop0" : 0.0,
                                      "geometryCrop1" : 0.0,
                                      "geometryCrop2" : 0.0,
                                      "geometryCrop3" : 0.0
                                    },
                                    "effects" : [

                                    ],
                                    "start" : 0,
                                    "duration" : 3528000000,
                                    "mediaStart" : 0,
                                    "mediaDuration" : 3528000000,
                                    "scalar" : 1,
                                    "metadata" : {
                                      "AppliedThemeId" : "",
                                      "clipSpeedAttribute" : false,
                                      "effectApplied" : "none",
                                      "lockAspectRatio" : false
                                    },
                                    "animationTracks" : {

                                    }
                                  }
                                ],
                                  "ident" : "",
                                  "audioMuted" : false,
                                  "videoHidden" : false,
                                  "magnetic" : false,
                                  "matte" : 0,
                                  "solo" : false,
                                  "metadata" : {
                                    "IsLocked" : "False",
                                    "WinTrackHeight" : "56",
                                    "trackHeight" : "54"
                                  }
                              },
                              {
                                "trackIndex" : 1,
                                "medias" : [
                                  {
                                    "id" : 412,
                                    "_type" : "Callout",
                                    "def" : {
                                      "kind" : "remix",
                                      "shape" : "shape-rectangle",
                                      "style" : "bold",
                                      "fill-color-blue" : 0.756862759590149,
                                      "fill-color-green" : 0.18823529779911,
                                      "fill-color-opacity" : 1.0,
                                      "fill-color-red" : 0.960784316062927,
                                      "hasDropShadow" : 0.0,
                                      "height" : 160.0,
                                      "savedXScale" : 1.0,
                                      "savedYScale" : 1.0,
                                      "stroke-color-blue" : 0.886274516582489,
                                      "stroke-color-green" : 0.200000002980232,
                                      "stroke-color-opacity" : 0.0,
                                      "stroke-color-red" : 0.376470595598221,
                                      "stroke-width" : 0.0,
                                      "width" : 1400.0,
                                      "custom" : "Y",
                                      "fill-style" : "solid",
                                      "stroke-style" : "solid"
                                    },
                                    "attributes" : {
                                      "ident" : "",
                                      "autoRotateText" : true
                                    },
                                    "parameters" : {
                                      "sourceCrop0" : 0.0,
                                      "sourceCrop1" : 0.0,
                                      "sourceCrop2" : 0.0,
                                      "sourceCrop3" : 0.0,
                                      "geometryCrop0" : 0.0,
                                      "geometryCrop1" : 0.0,
                                      "geometryCrop2" : 0.0,
                                      "geometryCrop3" : 0.0
                                    },
                                    "effects" : [

                                    ],
                                    "start" : 0,
                                    "duration" : 3528000000,
                                    "mediaStart" : 0,
                                    "mediaDuration" : 3528000000,
                                    "scalar" : 1,
                                    "metadata" : {
                                      "AppliedThemeId" : "",
                                      "clipSpeedAttribute" : false,
                                      "effectApplied" : "none"
                                    },
                                    "animationTracks" : {

                                    }
                                  }
                                ],
                                  "ident" : "",
                                  "audioMuted" : false,
                                  "videoHidden" : false,
                                  "magnetic" : false,
                                  "matte" : 1,
                                  "solo" : false,
                                  "metadata" : {
                                    "IsLocked" : "False",
                                    "WinTrackHeight" : "56",
                                    "trackHeight" : "54"
                                  }
                              }
                            ],
                            "attributes" : {
                              "ident" : "Rect-1400x1600-Mask",
                              "widthAttr" : 1405.0,
                              "heightAttr" : 167.002,
                              "gain" : 1.0,
                              "mixToMono" : false
                            },
                            "effects" : [

                            ],
                            "start" : 0,
                            "duration" : 3528000000,
                            "mediaStart" : 0.0,
                            "mediaDuration" : 3528000000.0,
                            "scalar" : 1,
                            "metadata" : {
                              "clipSpeedAttribute" : false,
                              "effectApplied" : "none",
                              "isOpen" : false,
                              "lockAspectRatio" : true
                            },
                            "animationTracks" : {
                              "visual" : [
                                {
                                  "endTime" : 552720000,
                                  "duration" : 552720000,
                                  "range" : [ 0, 552720000],
                                  "interp" : "eioe"
                                },
                                {
                                  "endTime" : 1775760000,
                                  "duration" : 399840000,
                                  "range" : [ 1375920000, 399840000],
                                  "interp" : "eioe"
                                }
                              ]
                            }
                          }
                        ],
                          "ident" : "",
                          "audioMuted" : false,
                          "videoHidden" : false,
                          "magnetic" : false,
                          "matte" : 1,
                          "solo" : false,
                          "metadata" : {
                            "IsLocked" : "False",
                            "WinTrackHeight" : "56",
                            "trackHeight" : "54"
                          }
                      },
                      {
                        "trackIndex" : 2,
                        "medias" : [
                          {
                            "id" : 413,
                            "_type" : "Group",
                            "parameters" : {
                              "translation0" : {
                                "type" : "double",
                                "defaultValue" : 0.0,
                                "keyframes" : [
                                  {
                                    "endTime" : 552720000,
                                    "time" : 0,
                                    "value" : 0.0,
                                    "interp" : "eioe",
                                    "duration" : 552720000
                                  },
                                  {
                                    "endTime" : 1775760000,
                                    "time" : 1375920000,
                                    "value" : 0.0,
                                    "interp" : "eioe",
                                    "duration" : 399840000
                                  }
                                ]
                              },
                              "translation1" : {
                                "type" : "double",
                                "defaultValue" : -233.610046386719,
                                "keyframes" : [
                                  {
                                    "endTime" : 552720000,
                                    "time" : 0,
                                    "value" : 90.0,
                                    "interp" : "eioe",
                                    "duration" : 552720000
                                  },
                                  {
                                    "endTime" : 1775760000,
                                    "time" : 1375920000,
                                    "value" : -233.610046386719,
                                    "interp" : "eioe",
                                    "duration" : 399840000
                                  }
                                ]
                              },
                              "sourceCrop0" : 0.0,
                              "sourceCrop1" : 0.0,
                              "sourceCrop2" : 0.0,
                              "sourceCrop3" : 0.0,
                              "geometryCrop0" : 0.0,
                              "geometryCrop1" : 0.0,
                              "geometryCrop2" : 0.0,
                              "geometryCrop3" : 0.0,
                              "opacity" : {
                                "type" : "double",
                                "defaultValue" : 1.0,
                                "keyframes" : [
                                  {
                                    "endTime" : 552720000,
                                    "time" : 0,
                                    "value" : 1.0,
                                    "interp" : "eioe",
                                    "duration" : 552720000
                                  }
                                ]
                              },
                              "volume" : 1.0
                            },
                            "tracks" : [
                              {
                                "trackIndex" : 0,
                                "medias" : [
                                  {
                                    "id" : 414,
                                    "_type" : "Callout",
                                    "def" : {
                                      "kind" : "remix",
                                      "shape" : "shape-rectangle",
                                      "style" : "bold",
                                      "fill-color-blue" : 0.2196078431,
                                      "fill-color-green" : 0.8745098039,
                                      "fill-color-opacity" : 1.0,
                                      "fill-color-red" : 1.0,
                                      "hasDropShadow" : 0.0,
                                      "height" : 163.002035140991,
                                      "savedXScale" : 1.0,
                                      "savedYScale" : 1.0,
                                      "stroke-color-blue" : 1.0,
                                      "stroke-color-green" : 1.0,
                                      "stroke-color-opacity" : 1.0,
                                      "stroke-color-red" : 1.0,
                                      "stroke-width" : 0.0,
                                      "width" : 1403.00212860107,
                                      "custom" : "Y",
                                      "fill-style" : "solid",
                                      "stroke-style" : "solid"
                                    },
                                    "attributes" : {
                                      "ident" : "",
                                      "autoRotateText" : true
                                    },
                                    "parameters" : {
                                      "anchor0" : -1.0,
                                      "anchor1" : 2.0,
                                      "sourceCrop0" : 0.0,
                                      "sourceCrop1" : 0.0,
                                      "sourceCrop2" : 0.0,
                                      "sourceCrop3" : 0.0,
                                      "geometryCrop0" : 0.0,
                                      "geometryCrop1" : 0.0,
                                      "geometryCrop2" : 0.0,
                                      "geometryCrop3" : 0.0
                                    },
                                    "effects" : [

                                    ],
                                    "start" : 0,
                                    "duration" : 3528000000,
                                    "mediaStart" : 0,
                                    "mediaDuration" : 3528000000,
                                    "scalar" : 1,
                                    "metadata" : {
                                      "AppliedThemeId" : "",
                                      "clipSpeedAttribute" : false,
                                      "effectApplied" : "none",
                                      "lockAspectRatio" : false
                                    },
                                    "animationTracks" : {

                                    }
                                  }
                                ],
                                  "ident" : "",
                                  "audioMuted" : false,
                                  "videoHidden" : false,
                                  "magnetic" : false,
                                  "matte" : 0,
                                  "solo" : false,
                                  "metadata" : {
                                    "IsLocked" : "False",
                                    "WinTrackHeight" : "56",
                                    "trackHeight" : "54"
                                  }
                              },
                              {
                                "trackIndex" : 1,
                                "medias" : [
                                  {
                                    "id" : 415,
                                    "_type" : "Callout",
                                    "def" : {
                                      "kind" : "remix",
                                      "shape" : "shape-rectangle",
                                      "style" : "bold",
                                      "fill-color-blue" : 0.756862759590149,
                                      "fill-color-green" : 0.18823529779911,
                                      "fill-color-opacity" : 1.0,
                                      "fill-color-red" : 0.960784316062927,
                                      "hasDropShadow" : 0.0,
                                      "height" : 160.0,
                                      "savedXScale" : 1.0,
                                      "savedYScale" : 1.0,
                                      "stroke-color-blue" : 0.886274516582489,
                                      "stroke-color-green" : 0.200000002980232,
                                      "stroke-color-opacity" : 0.0,
                                      "stroke-color-red" : 0.376470595598221,
                                      "stroke-width" : 0.0,
                                      "width" : 1400.0,
                                      "custom" : "Y",
                                      "fill-style" : "solid",
                                      "stroke-style" : "solid"
                                    },
                                    "attributes" : {
                                      "ident" : "",
                                      "autoRotateText" : true
                                    },
                                    "parameters" : {
                                      "translation1" : {
                                        "type" : "double",
                                        "defaultValue" : -1.0,
                                        "keyframes" : [
                                          {
                                            "endTime" : 270480000,
                                            "time" : 0,
                                            "value" : 0.0,
                                            "duration" : 270480000
                                          }
                                        ]
                                      },
                                      "scale0" : {
                                        "type" : "double",
                                        "defaultValue" : 1.0,
                                        "keyframes" : [
                                          {
                                            "endTime" : 270480000,
                                            "time" : 0,
                                            "value" : 1.0,
                                            "duration" : 270480000
                                          }
                                        ]
                                      },
                                      "scale1" : {
                                        "type" : "double",
                                        "defaultValue" : 0.125,
                                        "keyframes" : [
                                          {
                                            "endTime" : 270480000,
                                            "time" : 0,
                                            "value" : 0.5,
                                            "duration" : 270480000
                                          },
                                          {
                                            "endTime" : 552720000,
                                            "time" : 282240000,
                                            "value" : 0.125,
                                            "duration" : 270480000
                                          }
                                        ]
                                      },
                                      "sourceCrop0" : 0.0,
                                      "sourceCrop1" : 0.0,
                                      "sourceCrop2" : 0.0,
                                      "sourceCrop3" : 0.0,
                                      "geometryCrop0" : 0.0,
                                      "geometryCrop1" : 0.0,
                                      "geometryCrop2" : 0.0,
                                      "geometryCrop3" : 0.0
                                    },
                                    "effects" : [

                                    ],
                                    "start" : 0,
                                    "duration" : 3528000000,
                                    "mediaStart" : 0,
                                    "mediaDuration" : 3528000000,
                                    "scalar" : 1,
                                    "metadata" : {
                                      "AppliedThemeId" : "",
                                      "clipSpeedAttribute" : false,
                                      "effectApplied" : "none"
                                    },
                                    "animationTracks" : {
                                      "visual" : [
                                        {
                                          "endTime" : 270480000,
                                          "duration" : 270480000,
                                          "range" : [ 0, 270480000]
                                        },
                                        {
                                          "endTime" : 552720000,
                                          "duration" : 270480000,
                                          "range" : [ 282240000, 270480000]
                                        }
                                      ]
                                    }
                                  }
                                ],
                                  "ident" : "",
                                  "audioMuted" : false,
                                  "videoHidden" : false,
                                  "magnetic" : false,
                                  "matte" : 1,
                                  "solo" : false,
                                  "metadata" : {
                                    "IsLocked" : "False",
                                    "WinTrackHeight" : "56",
                                    "trackHeight" : "54"
                                  }
                              }
                            ],
                            "attributes" : {
                              "ident" : "Animated-Pulse-1400x20-To-1400x80",
                              "widthAttr" : 1405.0,
                              "heightAttr" : 167.002,
                              "gain" : 1.0,
                              "mixToMono" : false,
                              "assetProperties" : [
                                {
                                  "type" : 1,
                                  "name" : "Color",
                                  "objects" : [ 414 ],
                                  "themeMappings" :  {
                                    "fill" : "accent-1"
                                  }
                                }
                              ]
                            },
                            "effects" : [

                            ],
                            "start" : 0,
                            "duration" : 3528000000,
                            "mediaStart" : 0.0,
                            "mediaDuration" : 3528000000.0,
                            "scalar" : 1,
                            "metadata" : {
                              "AppliedThemeId" : "8e797988-b823-4beb-b251-1d31b461ba07",
                              "clipSpeedAttribute" : false,
                              "effectApplied" : "none",
                              "isOpen" : false,
                              "lockAspectRatio" : true
                            },
                            "animationTracks" : {
                              "visual" : [
                                {
                                  "endTime" : 552720000,
                                  "duration" : 552720000,
                                  "range" : [ 0, 552720000],
                                  "interp" : "eioe"
                                },
                                {
                                  "endTime" : 1775760000,
                                  "duration" : 399840000,
                                  "range" : [ 1375920000, 399840000],
                                  "interp" : "eioe"
                                }
                              ]
                            }
                          }
                        ],
                          "ident" : "",
                          "audioMuted" : false,
                          "videoHidden" : false,
                          "magnetic" : false,
                          "matte" : 0,
                          "solo" : false,
                          "metadata" : {
                            "IsLocked" : "False",
                            "WinTrackHeight" : "56",
                            "trackHeight" : "54"
                          }
                      },
                      {
                        "trackIndex" : 3,
                        "medias" : [
                          {
                            "id" : 416,
                            "_type" : "Group",
                            "parameters" : {
                              "translation0" : {
                                "type" : "double",
                                "defaultValue" : 0.0,
                                "keyframes" : [
                                  {
                                    "endTime" : 552720000,
                                    "time" : 0,
                                    "value" : 0.0,
                                    "interp" : "eioe",
                                    "duration" : 552720000
                                  },
                                  {
                                    "endTime" : 1775760000,
                                    "time" : 1375920000,
                                    "value" : 0.0,
                                    "interp" : "eioe",
                                    "duration" : 399840000
                                  }
                                ]
                              },
                              "translation1" : {
                                "type" : "double",
                                "defaultValue" : -143.610046386719,
                                "keyframes" : [
                                  {
                                    "endTime" : 552720000,
                                    "time" : 0,
                                    "value" : 0.0,
                                    "interp" : "eioe",
                                    "duration" : 552720000
                                  },
                                  {
                                    "endTime" : 1775760000,
                                    "time" : 1375920000,
                                    "value" : -143.610046386719,
                                    "interp" : "eioe",
                                    "duration" : 399840000
                                  }
                                ]
                              },
                              "sourceCrop0" : 0.0,
                              "sourceCrop1" : 0.0,
                              "sourceCrop2" : 0.0,
                              "sourceCrop3" : 0.0,
                              "geometryCrop0" : 0.0,
                              "geometryCrop1" : 0.0,
                              "geometryCrop2" : 0.0,
                              "geometryCrop3" : 0.0,
                              "opacity" : {
                                "type" : "double",
                                "defaultValue" : 1.0,
                                "keyframes" : [
                                  {
                                    "endTime" : 552720000,
                                    "time" : 0,
                                    "value" : 1.0,
                                    "interp" : "eioe",
                                    "duration" : 552720000
                                  }
                                ]
                              },
                              "volume" : 1.0
                            },
                            "tracks" : [
                              {
                                "trackIndex" : 0,
                                "medias" : [
                                  {
                                    "id" : 417,
                                    "_type" : "Callout",
                                    "def" : {
                                      "kind" : "remix",
                                      "shape" : "shape-rectangle",
                                      "style" : "bold",
                                      "fill-color-blue" : 0.913725490196078,
                                      "fill-color-green" : 0.949019607843137,
                                      "fill-color-opacity" : 1.0,
                                      "fill-color-red" : 0.933333333333333,
                                      "hasDropShadow" : 0.0,
                                      "height" : 163.002035140991,
                                      "savedXScale" : 1.0,
                                      "savedYScale" : 1.0,
                                      "stroke-color-blue" : 1.0,
                                      "stroke-color-green" : 1.0,
                                      "stroke-color-opacity" : 1.0,
                                      "stroke-color-red" : 1.0,
                                      "stroke-width" : 0.0,
                                      "width" : 1403.00212860107,
                                      "custom" : "Y",
                                      "fill-style" : "solid",
                                      "stroke-style" : "solid"
                                    },
                                    "attributes" : {
                                      "ident" : "",
                                      "autoRotateText" : true
                                    },
                                    "parameters" : {
                                      "anchor0" : -1.0,
                                      "anchor1" : 2.0,
                                      "sourceCrop0" : 0.0,
                                      "sourceCrop1" : 0.0,
                                      "sourceCrop2" : 0.0,
                                      "sourceCrop3" : 0.0,
                                      "geometryCrop0" : 0.0,
                                      "geometryCrop1" : 0.0,
                                      "geometryCrop2" : 0.0,
                                      "geometryCrop3" : 0.0
                                    },
                                    "effects" : [

                                    ],
                                    "start" : 0,
                                    "duration" : 3528000000,
                                    "mediaStart" : 0,
                                    "mediaDuration" : 3528000000,
                                    "scalar" : 1,
                                    "metadata" : {
                                      "AppliedThemeId" : "",
                                      "clipSpeedAttribute" : false,
                                      "effectApplied" : "none",
                                      "lockAspectRatio" : false
                                    },
                                    "animationTracks" : {

                                    }
                                  }
                                ],
                                  "ident" : "",
                                  "audioMuted" : false,
                                  "videoHidden" : false,
                                  "magnetic" : false,
                                  "matte" : 0,
                                  "solo" : false,
                                  "metadata" : {
                                    "IsLocked" : "False",
                                    "WinTrackHeight" : "56",
                                    "trackHeight" : "54"
                                  }
                              },
                              {
                                "trackIndex" : 1,
                                "medias" : [
                                  {
                                    "id" : 418,
                                    "_type" : "Callout",
                                    "def" : {
                                      "kind" : "remix",
                                      "shape" : "shape-rectangle",
                                      "style" : "bold",
                                      "fill-color-blue" : 0.756862759590149,
                                      "fill-color-green" : 0.18823529779911,
                                      "fill-color-opacity" : 1.0,
                                      "fill-color-red" : 0.960784316062927,
                                      "hasDropShadow" : 0.0,
                                      "height" : 160.0,
                                      "savedXScale" : 1.0,
                                      "savedYScale" : 1.0,
                                      "stroke-color-blue" : 0.886274516582489,
                                      "stroke-color-green" : 0.200000002980232,
                                      "stroke-color-opacity" : 0.0,
                                      "stroke-color-red" : 0.376470595598221,
                                      "stroke-width" : 0.0,
                                      "width" : 1400.0,
                                      "custom" : "Y",
                                      "fill-style" : "solid",
                                      "stroke-style" : "solid"
                                    },
                                    "attributes" : {
                                      "ident" : "",
                                      "autoRotateText" : true
                                    },
                                    "parameters" : {
                                      "sourceCrop0" : 0.0,
                                      "sourceCrop1" : 0.0,
                                      "sourceCrop2" : 0.0,
                                      "sourceCrop3" : 0.0,
                                      "geometryCrop0" : 0.0,
                                      "geometryCrop1" : 0.0,
                                      "geometryCrop2" : 0.0,
                                      "geometryCrop3" : 0.0
                                    },
                                    "effects" : [

                                    ],
                                    "start" : 0,
                                    "duration" : 3528000000,
                                    "mediaStart" : 0,
                                    "mediaDuration" : 3528000000,
                                    "scalar" : 1,
                                    "metadata" : {
                                      "AppliedThemeId" : "",
                                      "clipSpeedAttribute" : false,
                                      "effectApplied" : "none"
                                    },
                                    "animationTracks" : {

                                    }
                                  }
                                ],
                                  "ident" : "",
                                  "audioMuted" : false,
                                  "videoHidden" : false,
                                  "magnetic" : false,
                                  "matte" : 1,
                                  "solo" : false,
                                  "metadata" : {
                                    "IsLocked" : "False",
                                    "WinTrackHeight" : "56",
                                    "trackHeight" : "54"
                                  }
                              }
                            ],
                            "attributes" : {
                              "ident" : "Rect-1400x1600-Mask",
                              "widthAttr" : 1405.0,
                              "heightAttr" : 167.002,
                              "gain" : 1.0,
                              "mixToMono" : false
                            },
                            "effects" : [

                            ],
                            "start" : 0,
                            "duration" : 3528000000,
                            "mediaStart" : 0.0,
                            "mediaDuration" : 3528000000.0,
                            "scalar" : 1,
                            "metadata" : {
                              "clipSpeedAttribute" : false,
                              "effectApplied" : "none",
                              "isOpen" : false,
                              "lockAspectRatio" : true
                            },
                            "animationTracks" : {
                              "visual" : [
                                {
                                  "endTime" : 552720000,
                                  "duration" : 552720000,
                                  "range" : [ 0, 552720000],
                                  "interp" : "eioe"
                                },
                                {
                                  "endTime" : 1775760000,
                                  "duration" : 399840000,
                                  "range" : [ 1375920000, 399840000],
                                  "interp" : "eioe"
                                }
                              ]
                            }
                          }
                        ],
                          "ident" : "",
                          "audioMuted" : false,
                          "videoHidden" : false,
                          "magnetic" : false,
                          "matte" : 1,
                          "solo" : false,
                          "metadata" : {
                            "IsLocked" : "False",
                            "WinTrackHeight" : "56",
                            "trackHeight" : "54"
                          }
                      }
                    ],
                    "attributes" : {
                      "ident" : "Broadcast-Title-012",
                      "widthAttr" : 1405.0,
                      "heightAttr" : 160.0,
                      "gain" : 1.0,
                      "mixToMono" : false,
                      "assetProperties" : [
                        {
                          "type" : 0,
                          "name" : "Title",
                          "objects" : [ 409 ],
                          "themeMappings" :  {
                            "font-color" : "foreground-1"
                          }
                        },
                        {
                          "type" : 1,
                          "name" : "Fill",
                          "objects" : [ 407 ],
                          "themeMappings" :  {
                            "fill" : "background-1"
                          }
                        },
                        {
                          "type" : 1,
                          "name" : "Wiper",
                          "objects" : [ 414 ],
                          "themeMappings" :  {
                            "fill" : "foreground-1"
                          }
                        }
                      ]
                    },
                    "effects" : [

                    ],
                    "start" : 1928640000,
                    "duration" : 1764000000,
                    "mediaStart" : 0.0,
                    "mediaDuration" : 1764000000.0,
                    "scalar" : 1,
                    "metadata" : {
                      "AppliedThemeId" : "170ba59c-db5d-4b9a-a310-e7e99853a4b7",
                      "clipSpeedAttribute" : false,
                      "default-anchor0" : 0.0,
                      "default-anchor1" : 0.0,
                      "default-anchor2" : 0.0,
                      "default-geometryCrop0" : 0.0,
                      "default-height" : 160.0,
                      "default-rotation0" : 0.0,
                      "default-rotation1" : 0.0,
                      "default-rotation2" : 0.0,
                      "default-scale0" : 1.0,
                      "default-scale1" : 1.0,
                      "default-scale2" : 1.0,
                      "default-shear0" : 0.0,
                      "default-shear1" : 0.0,
                      "default-shear2" : 0.0,
                      "default-translation0" : 0.0,
                      "default-translation1" : 0.0,
                      "default-translation2" : 0.0,
                      "default-width" : 1405.0,
                      "effectApplied" : "none",
                      "isOpen" : false,
                      "lockAspectRatio" : true
                    },
                    "animationTracks" : {

                    }
                  }
                ]
              },
              {
                "trackIndex" : 114,
                "medias" : [
                  {
                    "id" : 419,
                    "_type" : "Group",
                    "parameters" : {
                      "translation0" : -414.2,
                      "translation1" : 300.0,
                      "scale0" : 0.213523131672598,
                      "scale1" : 0.21875,
                      "sourceCrop0" : 0.0,
                      "sourceCrop1" : 0.0,
                      "sourceCrop2" : 0.0,
                      "sourceCrop3" : 0.0,
                      "geometryCrop0" : 0.0,
                      "geometryCrop1" : 0.0,
                      "geometryCrop2" : 0.0,
                      "geometryCrop3" : 0.0,
                      "volume" : 1.0
                    },
                    "tracks" : [
                      {
                        "trackIndex" : 0,
                        "medias" : [
                          {
                            "id" : 420,
                            "_type" : "Group",
                            "parameters" : {
                              "translation0" : {
                                "type" : "double",
                                "defaultValue" : 0.0,
                                "keyframes" : [
                                  {
                                    "endTime" : 552720000,
                                    "time" : 0,
                                    "value" : 0.0,
                                    "interp" : "eioe",
                                    "duration" : 552720000
                                  },
                                  {
                                    "endTime" : 1775760000,
                                    "time" : 1375920000,
                                    "value" : 0.0,
                                    "interp" : "eioe",
                                    "duration" : 399840000
                                  }
                                ]
                              },
                              "translation1" : {
                                "type" : "double",
                                "defaultValue" : -305.610046386719,
                                "keyframes" : [
                                  {
                                    "endTime" : 552720000,
                                    "time" : 0,
                                    "value" : 0.0,
                                    "interp" : "eioe",
                                    "duration" : 552720000
                                  },
                                  {
                                    "endTime" : 1775760000,
                                    "time" : 1375920000,
                                    "value" : -304.610046386719,
                                    "interp" : "eioe",
                                    "duration" : 399840000
                                  }
                                ]
                              },
                              "sourceCrop0" : 0.0,
                              "sourceCrop1" : 0.0,
                              "sourceCrop2" : 0.0,
                              "sourceCrop3" : 0.0,
                              "geometryCrop0" : 0.0,
                              "geometryCrop1" : 0.0,
                              "geometryCrop2" : 0.0,
                              "geometryCrop3" : 0.0,
                              "volume" : 1.0
                            },
                            "tracks" : [
                              {
                                "trackIndex" : 0,
                                "medias" : [
                                  {
                                    "id" : 421,
                                    "_type" : "Group",
                                    "parameters" : {
                                      "sourceCrop0" : 0.0,
                                      "sourceCrop1" : 0.0,
                                      "sourceCrop2" : 0.0,
                                      "sourceCrop3" : 0.0,
                                      "geometryCrop0" : 0.0,
                                      "geometryCrop1" : 0.0,
                                      "geometryCrop2" : 0.0,
                                      "geometryCrop3" : 0.0,
                                      "volume" : 1.0
                                    },
                                    "tracks" : [
                                      {
                                        "trackIndex" : 0,
                                        "medias" : [
                                          {
                                            "id" : 422,
                                            "_type" : "Callout",
                                            "def" : {
                                              "kind" : "remix",
                                              "shape" : "shape-rectangle",
                                              "style" : "bold",
                                              "fill-color-blue" : 1.0,
                                              "fill-color-green" : 1.0,
                                              "fill-color-opacity" : 1.0,
                                              "fill-color-red" : 1.0,
                                              "hasDropShadow" : 0.0,
                                              "height" : 163.002035140991,
                                              "savedXScale" : 1.0,
                                              "savedYScale" : 1.0,
                                              "stroke-color-blue" : 1.0,
                                              "stroke-color-green" : 1.0,
                                              "stroke-color-opacity" : 1.0,
                                              "stroke-color-red" : 1.0,
                                              "stroke-width" : 0.0,
                                              "width" : 1403.00212860107,
                                              "custom" : "Y",
                                              "fill-style" : "solid",
                                              "stroke-style" : "solid"
                                            },
                                            "attributes" : {
                                              "ident" : "",
                                              "autoRotateText" : true
                                            },
                                            "parameters" : {
                                              "anchor0" : -1.0,
                                              "anchor1" : 2.0,
                                              "sourceCrop0" : 0.0,
                                              "sourceCrop1" : 0.0,
                                              "sourceCrop2" : 0.0,
                                              "sourceCrop3" : 0.0,
                                              "geometryCrop0" : 0.0,
                                              "geometryCrop1" : 0.0,
                                              "geometryCrop2" : 0.0,
                                              "geometryCrop3" : 0.0
                                            },
                                            "effects" : [

                                            ],
                                            "start" : 0,
                                            "duration" : 3528000000,
                                            "mediaStart" : 0,
                                            "mediaDuration" : 3528000000,
                                            "scalar" : 1,
                                            "metadata" : {
                                              "AppliedThemeId" : "",
                                              "clipSpeedAttribute" : false,
                                              "effectApplied" : "none",
                                              "lockAspectRatio" : false
                                            },
                                            "animationTracks" : {

                                            }
                                          }
                                        ],
                                          "ident" : "",
                                          "audioMuted" : false,
                                          "videoHidden" : false,
                                          "magnetic" : false,
                                          "matte" : 0,
                                          "solo" : false,
                                          "metadata" : {
                                            "IsLocked" : "False",
                                            "WinTrackHeight" : "56",
                                            "trackHeight" : "54"
                                          }
                                      },
                                      {
                                        "trackIndex" : 1,
                                        "medias" : [
                                          {
                                            "id" : 423,
                                            "_type" : "Callout",
                                            "def" : {
                                              "kind" : "remix",
                                              "shape" : "shape-rectangle",
                                              "style" : "bold",
                                              "fill-color-blue" : 0.756862759590149,
                                              "fill-color-green" : 0.18823529779911,
                                              "fill-color-opacity" : 1.0,
                                              "fill-color-red" : 0.960784316062927,
                                              "hasDropShadow" : 0.0,
                                              "height" : 160.0,
                                              "savedXScale" : 1.0,
                                              "savedYScale" : 1.0,
                                              "stroke-color-blue" : 0.886274516582489,
                                              "stroke-color-green" : 0.200000002980232,
                                              "stroke-color-opacity" : 0.0,
                                              "stroke-color-red" : 0.376470595598221,
                                              "stroke-width" : 0.0,
                                              "width" : 1400.0,
                                              "custom" : "Y",
                                              "fill-style" : "solid",
                                              "stroke-style" : "solid"
                                            },
                                            "attributes" : {
                                              "ident" : "",
                                              "autoRotateText" : true
                                            },
                                            "parameters" : {
                                              "sourceCrop0" : 0.0,
                                              "sourceCrop1" : 0.0,
                                              "sourceCrop2" : 0.0,
                                              "sourceCrop3" : 0.0,
                                              "geometryCrop0" : 0.0,
                                              "geometryCrop1" : 0.0,
                                              "geometryCrop2" : 0.0,
                                              "geometryCrop3" : 0.0
                                            },
                                            "effects" : [

                                            ],
                                            "start" : 0,
                                            "duration" : 3528000000,
                                            "mediaStart" : 0,
                                            "mediaDuration" : 3528000000,
                                            "scalar" : 1,
                                            "metadata" : {
                                              "AppliedThemeId" : "",
                                              "clipSpeedAttribute" : false,
                                              "effectApplied" : "none"
                                            },
                                            "animationTracks" : {

                                            }
                                          }
                                        ],
                                          "ident" : "",
                                          "audioMuted" : false,
                                          "videoHidden" : false,
                                          "magnetic" : false,
                                          "matte" : 1,
                                          "solo" : false,
                                          "metadata" : {
                                            "IsLocked" : "False",
                                            "WinTrackHeight" : "56",
                                            "trackHeight" : "54"
                                          }
                                      }
                                    ],
                                    "attributes" : {
                                      "ident" : "Fill-1400x160",
                                      "widthAttr" : 1405.0,
                                      "heightAttr" : 167.002,
                                      "gain" : 1.0,
                                      "mixToMono" : false
                                    },
                                    "effects" : [

                                    ],
                                    "start" : 0,
                                    "duration" : 3528000000,
                                    "mediaStart" : 0.0,
                                    "mediaDuration" : 3528000000.0,
                                    "scalar" : 1,
                                    "metadata" : {
                                      "clipSpeedAttribute" : false,
                                      "effectApplied" : "none",
                                      "isOpen" : false,
                                      "lockAspectRatio" : true
                                    },
                                    "animationTracks" : {

                                    }
                                  }
                                ],
                                  "ident" : "",
                                  "audioMuted" : false,
                                  "videoHidden" : false,
                                  "magnetic" : false,
                                  "matte" : 0,
                                  "solo" : false,
                                  "metadata" : {
                                    "IsLocked" : "False",
                                    "WinTrackHeight" : "56",
                                    "trackHeight" : "54"
                                  }
                              },
                              {
                                "trackIndex" : 1,
                                "medias" : [
                                  {
                                    "id" : 424,
                                    "_type" : "Callout",
                                    "def" : {
                                      "kind" : "remix",
                                      "shape" : "text",
                                      "style" : "urban",
                                      "enable-ligatures" : 1.0,
                                      "hasDropShadow" : 0.0,
                                      "height" : 170.0,
                                      "line-spacing" : 0.0,
                                      "savedXScale" : 1.0,
                                      "savedYScale" : 1.0,
                                      "width" : 1400.0,
                                      "word-wrap" : 1.0,
                                      "custom" : "Y",
                                      "horizontal-alignment" : "left",
                                      "resize-behavior" : "resizeText",
                                      "text" : "list sheets name & hypelinks",
                                      "vertical-alignment" : "center",
                                      "font" : {
                                        "color-blue" : 1.0,
                                        "color-green" : 1.0,
                                        "color-red" : 1.0,
                                        "size" : 96.0,
                                        "tracking" : 0.0,
                                        "name" : "Dosis",
                                        "weight" : "Semi Bold"
                                      },
                                      "textAttributes" : {
                                        "type" : "textAttributeList",
                                        "keyframes" : [
                                          {
                                            "endTime" : 0,
                                            "time" : 0,
                                            "value" : [{"name":"underline","rangeEnd":28,"rangeStart":0,"value":0,"valueType":"int"},{"name":"strikethrough","rangeEnd":28,"rangeStart":0,"value":0,"valueType":"int"},{"name":"fontName","rangeEnd":28,"rangeStart":0,"value":"Roboto","valueType":"string"},{"name":"kerning","rangeEnd":28,"rangeStart":0,"value":0.049883078231292483,"valueType":"double"},{"name":"fontItalic","rangeEnd":28,"rangeStart":0,"value":0,"valueType":"int"},{"name":"fontWeight","rangeEnd":28,"rangeStart":0,"value":700,"valueType":"int"},{"name":"fontSize","rangeEnd":28,"rangeStart":0,"value":86,"valueType":"double"},{"name":"fgColor","rangeEnd":28,"rangeStart":0,"value":"(110,110,110,255)","valueType":"color"}],
                                            "duration" : 0
                                          }
                                        ]
                                      }
                                    },
                                    "attributes" : {
                                      "ident" : "",
                                      "autoRotateText" : true
                                    },
                                    "parameters" : {
                                      "translation1" : -2.0,
                                      "sourceCrop0" : 0.0,
                                      "sourceCrop1" : 0.0,
                                      "sourceCrop2" : 0.0,
                                      "sourceCrop3" : 0.0,
                                      "geometryCrop0" : 0.0,
                                      "geometryCrop1" : 0.0,
                                      "geometryCrop2" : 0.0,
                                      "geometryCrop3" : 0.0
                                    },
                                    "effects" : [

                                    ],
                                    "start" : 0,
                                    "duration" : 3528000000,
                                    "mediaStart" : 0,
                                    "mediaDuration" : 3528000000,
                                    "scalar" : 1,
                                    "metadata" : {
                                      "AppliedThemeId" : "",
                                      "clipSpeedAttribute" : false,
                                      "effectApplied" : "none",
                                      "lockAspectRatio" : false
                                    },
                                    "animationTracks" : {

                                    }
                                  }
                                ],
                                  "ident" : "",
                                  "audioMuted" : false,
                                  "videoHidden" : false,
                                  "magnetic" : false,
                                  "matte" : 0,
                                  "solo" : false,
                                  "metadata" : {
                                    "IsLocked" : "False",
                                    "WinTrackHeight" : "56",
                                    "trackHeight" : "54"
                                  }
                              }
                            ],
                            "attributes" : {
                              "ident" : "BP-Title-11",
                              "widthAttr" : 1405.0,
                              "heightAttr" : 167.002,
                              "gain" : 1.0,
                              "mixToMono" : false,
                              "assetProperties" : [
                                {
                                  "type" : 0,
                                  "name" : "Title",
                                  "objects" : [ 424 ],
                                  "themeMappings" :  {
                                    "font-color" : "foreground-1"
                                  }
                                },
                                {
                                  "type" : 1,
                                  "name" : "Fill",
                                  "objects" : [ 422 ],
                                  "themeMappings" :  {
                                    "fill" : "background-1"
                                  }
                                }
                              ]
                            },
                            "effects" : [

                            ],
                            "start" : 0,
                            "duration" : 3528000000,
                            "mediaStart" : 0.0,
                            "mediaDuration" : 3528000000.0,
                            "scalar" : 1,
                            "metadata" : {
                              "clipSpeedAttribute" : false,
                              "effectApplied" : "none",
                              "isOpen" : false,
                              "lockAspectRatio" : true
                            },
                            "animationTracks" : {
                              "visual" : [
                                {
                                  "endTime" : 552720000,
                                  "duration" : 552720000,
                                  "range" : [ 0, 552720000],
                                  "interp" : "eioe"
                                },
                                {
                                  "endTime" : 1775760000,
                                  "duration" : 399840000,
                                  "range" : [ 1375920000, 399840000],
                                  "interp" : "eioe"
                                }
                              ]
                            }
                          }
                        ],
                          "ident" : "",
                          "audioMuted" : false,
                          "videoHidden" : false,
                          "magnetic" : false,
                          "matte" : 0,
                          "solo" : false,
                          "metadata" : {
                            "IsLocked" : "False",
                            "WinTrackHeight" : "56",
                            "trackHeight" : "54"
                          }
                      },
                      {
                        "trackIndex" : 1,
                        "medias" : [
                          {
                            "id" : 425,
                            "_type" : "Group",
                            "parameters" : {
                              "translation0" : {
                                "type" : "double",
                                "defaultValue" : 0.0,
                                "keyframes" : [
                                  {
                                    "endTime" : 552720000,
                                    "time" : 0,
                                    "value" : 0.0,
                                    "interp" : "eioe",
                                    "duration" : 552720000
                                  },
                                  {
                                    "endTime" : 1775760000,
                                    "time" : 1375920000,
                                    "value" : 0.0,
                                    "interp" : "eioe",
                                    "duration" : 399840000
                                  }
                                ]
                              },
                              "translation1" : {
                                "type" : "double",
                                "defaultValue" : -144.610046386719,
                                "keyframes" : [
                                  {
                                    "endTime" : 552720000,
                                    "time" : 0,
                                    "value" : 0.0,
                                    "interp" : "eioe",
                                    "duration" : 552720000
                                  },
                                  {
                                    "endTime" : 1775760000,
                                    "time" : 1375920000,
                                    "value" : -144.610046386719,
                                    "interp" : "eioe",
                                    "duration" : 399840000
                                  }
                                ]
                              },
                              "sourceCrop0" : 0.0,
                              "sourceCrop1" : 0.0,
                              "sourceCrop2" : 0.0,
                              "sourceCrop3" : 0.0,
                              "geometryCrop0" : 0.0,
                              "geometryCrop1" : 0.0,
                              "geometryCrop2" : 0.0,
                              "geometryCrop3" : 0.0,
                              "opacity" : {
                                "type" : "double",
                                "defaultValue" : 1.0,
                                "keyframes" : [
                                  {
                                    "endTime" : 552720000,
                                    "time" : 0,
                                    "value" : 1.0,
                                    "interp" : "eioe",
                                    "duration" : 552720000
                                  }
                                ]
                              },
                              "volume" : 1.0
                            },
                            "tracks" : [
                              {
                                "trackIndex" : 0,
                                "medias" : [
                                  {
                                    "id" : 426,
                                    "_type" : "Callout",
                                    "def" : {
                                      "kind" : "remix",
                                      "shape" : "shape-rectangle",
                                      "style" : "bold",
                                      "fill-color-blue" : 0.913725490196078,
                                      "fill-color-green" : 0.949019607843137,
                                      "fill-color-opacity" : 1.0,
                                      "fill-color-red" : 0.933333333333333,
                                      "hasDropShadow" : 0.0,
                                      "height" : 163.002035140991,
                                      "savedXScale" : 1.0,
                                      "savedYScale" : 1.0,
                                      "stroke-color-blue" : 1.0,
                                      "stroke-color-green" : 1.0,
                                      "stroke-color-opacity" : 1.0,
                                      "stroke-color-red" : 1.0,
                                      "stroke-width" : 0.0,
                                      "width" : 1403.00212860107,
                                      "custom" : "Y",
                                      "fill-style" : "solid",
                                      "stroke-style" : "solid"
                                    },
                                    "attributes" : {
                                      "ident" : "",
                                      "autoRotateText" : true
                                    },
                                    "parameters" : {
                                      "anchor0" : -1.0,
                                      "anchor1" : 2.0,
                                      "sourceCrop0" : 0.0,
                                      "sourceCrop1" : 0.0,
                                      "sourceCrop2" : 0.0,
                                      "sourceCrop3" : 0.0,
                                      "geometryCrop0" : 0.0,
                                      "geometryCrop1" : 0.0,
                                      "geometryCrop2" : 0.0,
                                      "geometryCrop3" : 0.0
                                    },
                                    "effects" : [

                                    ],
                                    "start" : 0,
                                    "duration" : 3528000000,
                                    "mediaStart" : 0,
                                    "mediaDuration" : 3528000000,
                                    "scalar" : 1,
                                    "metadata" : {
                                      "AppliedThemeId" : "",
                                      "clipSpeedAttribute" : false,
                                      "effectApplied" : "none",
                                      "lockAspectRatio" : false
                                    },
                                    "animationTracks" : {

                                    }
                                  }
                                ],
                                  "ident" : "",
                                  "audioMuted" : false,
                                  "videoHidden" : false,
                                  "magnetic" : false,
                                  "matte" : 0,
                                  "solo" : false,
                                  "metadata" : {
                                    "IsLocked" : "False",
                                    "WinTrackHeight" : "56",
                                    "trackHeight" : "54"
                                  }
                              },
                              {
                                "trackIndex" : 1,
                                "medias" : [
                                  {
                                    "id" : 427,
                                    "_type" : "Callout",
                                    "def" : {
                                      "kind" : "remix",
                                      "shape" : "shape-rectangle",
                                      "style" : "bold",
                                      "fill-color-blue" : 0.756862759590149,
                                      "fill-color-green" : 0.18823529779911,
                                      "fill-color-opacity" : 1.0,
                                      "fill-color-red" : 0.960784316062927,
                                      "hasDropShadow" : 0.0,
                                      "height" : 160.0,
                                      "savedXScale" : 1.0,
                                      "savedYScale" : 1.0,
                                      "stroke-color-blue" : 0.886274516582489,
                                      "stroke-color-green" : 0.200000002980232,
                                      "stroke-color-opacity" : 0.0,
                                      "stroke-color-red" : 0.376470595598221,
                                      "stroke-width" : 0.0,
                                      "width" : 1400.0,
                                      "custom" : "Y",
                                      "fill-style" : "solid",
                                      "stroke-style" : "solid"
                                    },
                                    "attributes" : {
                                      "ident" : "",
                                      "autoRotateText" : true
                                    },
                                    "parameters" : {
                                      "sourceCrop0" : 0.0,
                                      "sourceCrop1" : 0.0,
                                      "sourceCrop2" : 0.0,
                                      "sourceCrop3" : 0.0,
                                      "geometryCrop0" : 0.0,
                                      "geometryCrop1" : 0.0,
                                      "geometryCrop2" : 0.0,
                                      "geometryCrop3" : 0.0
                                    },
                                    "effects" : [

                                    ],
                                    "start" : 0,
                                    "duration" : 3528000000,
                                    "mediaStart" : 0,
                                    "mediaDuration" : 3528000000,
                                    "scalar" : 1,
                                    "metadata" : {
                                      "AppliedThemeId" : "",
                                      "clipSpeedAttribute" : false,
                                      "effectApplied" : "none"
                                    },
                                    "animationTracks" : {

                                    }
                                  }
                                ],
                                  "ident" : "",
                                  "audioMuted" : false,
                                  "videoHidden" : false,
                                  "magnetic" : false,
                                  "matte" : 1,
                                  "solo" : false,
                                  "metadata" : {
                                    "IsLocked" : "False",
                                    "WinTrackHeight" : "56",
                                    "trackHeight" : "54"
                                  }
                              }
                            ],
                            "attributes" : {
                              "ident" : "Rect-1400x1600-Mask",
                              "widthAttr" : 1405.0,
                              "heightAttr" : 167.002,
                              "gain" : 1.0,
                              "mixToMono" : false
                            },
                            "effects" : [

                            ],
                            "start" : 0,
                            "duration" : 3528000000,
                            "mediaStart" : 0.0,
                            "mediaDuration" : 3528000000.0,
                            "scalar" : 1,
                            "metadata" : {
                              "clipSpeedAttribute" : false,
                              "effectApplied" : "none",
                              "isOpen" : false,
                              "lockAspectRatio" : true
                            },
                            "animationTracks" : {
                              "visual" : [
                                {
                                  "endTime" : 552720000,
                                  "duration" : 552720000,
                                  "range" : [ 0, 552720000],
                                  "interp" : "eioe"
                                },
                                {
                                  "endTime" : 1775760000,
                                  "duration" : 399840000,
                                  "range" : [ 1375920000, 399840000],
                                  "interp" : "eioe"
                                }
                              ]
                            }
                          }
                        ],
                          "ident" : "",
                          "audioMuted" : false,
                          "videoHidden" : false,
                          "magnetic" : false,
                          "matte" : 1,
                          "solo" : false,
                          "metadata" : {
                            "IsLocked" : "False",
                            "WinTrackHeight" : "56",
                            "trackHeight" : "54"
                          }
                      },
                      {
                        "trackIndex" : 2,
                        "medias" : [
                          {
                            "id" : 428,
                            "_type" : "Group",
                            "parameters" : {
                              "translation0" : {
                                "type" : "double",
                                "defaultValue" : 0.0,
                                "keyframes" : [
                                  {
                                    "endTime" : 552720000,
                                    "time" : 0,
                                    "value" : 0.0,
                                    "interp" : "eioe",
                                    "duration" : 552720000
                                  },
                                  {
                                    "endTime" : 1775760000,
                                    "time" : 1375920000,
                                    "value" : 0.0,
                                    "interp" : "eioe",
                                    "duration" : 399840000
                                  }
                                ]
                              },
                              "translation1" : {
                                "type" : "double",
                                "defaultValue" : -233.610046386719,
                                "keyframes" : [
                                  {
                                    "endTime" : 552720000,
                                    "time" : 0,
                                    "value" : 90.0,
                                    "interp" : "eioe",
                                    "duration" : 552720000
                                  },
                                  {
                                    "endTime" : 1775760000,
                                    "time" : 1375920000,
                                    "value" : -233.610046386719,
                                    "interp" : "eioe",
                                    "duration" : 399840000
                                  }
                                ]
                              },
                              "sourceCrop0" : 0.0,
                              "sourceCrop1" : 0.0,
                              "sourceCrop2" : 0.0,
                              "sourceCrop3" : 0.0,
                              "geometryCrop0" : 0.0,
                              "geometryCrop1" : 0.0,
                              "geometryCrop2" : 0.0,
                              "geometryCrop3" : 0.0,
                              "opacity" : {
                                "type" : "double",
                                "defaultValue" : 1.0,
                                "keyframes" : [
                                  {
                                    "endTime" : 552720000,
                                    "time" : 0,
                                    "value" : 1.0,
                                    "interp" : "eioe",
                                    "duration" : 552720000
                                  }
                                ]
                              },
                              "volume" : 1.0
                            },
                            "tracks" : [
                              {
                                "trackIndex" : 0,
                                "medias" : [
                                  {
                                    "id" : 429,
                                    "_type" : "Callout",
                                    "def" : {
                                      "kind" : "remix",
                                      "shape" : "shape-rectangle",
                                      "style" : "bold",
                                      "fill-color-blue" : 0.2196078431,
                                      "fill-color-green" : 0.8745098039,
                                      "fill-color-opacity" : 1.0,
                                      "fill-color-red" : 1.0,
                                      "hasDropShadow" : 0.0,
                                      "height" : 163.002035140991,
                                      "savedXScale" : 1.0,
                                      "savedYScale" : 1.0,
                                      "stroke-color-blue" : 1.0,
                                      "stroke-color-green" : 1.0,
                                      "stroke-color-opacity" : 1.0,
                                      "stroke-color-red" : 1.0,
                                      "stroke-width" : 0.0,
                                      "width" : 1403.00212860107,
                                      "custom" : "Y",
                                      "fill-style" : "solid",
                                      "stroke-style" : "solid"
                                    },
                                    "attributes" : {
                                      "ident" : "",
                                      "autoRotateText" : true
                                    },
                                    "parameters" : {
                                      "anchor0" : -1.0,
                                      "anchor1" : 2.0,
                                      "sourceCrop0" : 0.0,
                                      "sourceCrop1" : 0.0,
                                      "sourceCrop2" : 0.0,
                                      "sourceCrop3" : 0.0,
                                      "geometryCrop0" : 0.0,
                                      "geometryCrop1" : 0.0,
                                      "geometryCrop2" : 0.0,
                                      "geometryCrop3" : 0.0
                                    },
                                    "effects" : [

                                    ],
                                    "start" : 0,
                                    "duration" : 3528000000,
                                    "mediaStart" : 0,
                                    "mediaDuration" : 3528000000,
                                    "scalar" : 1,
                                    "metadata" : {
                                      "AppliedThemeId" : "",
                                      "clipSpeedAttribute" : false,
                                      "effectApplied" : "none",
                                      "lockAspectRatio" : false
                                    },
                                    "animationTracks" : {

                                    }
                                  }
                                ],
                                  "ident" : "",
                                  "audioMuted" : false,
                                  "videoHidden" : false,
                                  "magnetic" : false,
                                  "matte" : 0,
                                  "solo" : false,
                                  "metadata" : {
                                    "IsLocked" : "False",
                                    "WinTrackHeight" : "56",
                                    "trackHeight" : "54"
                                  }
                              },
                              {
                                "trackIndex" : 1,
                                "medias" : [
                                  {
                                    "id" : 430,
                                    "_type" : "Callout",
                                    "def" : {
                                      "kind" : "remix",
                                      "shape" : "shape-rectangle",
                                      "style" : "bold",
                                      "fill-color-blue" : 0.756862759590149,
                                      "fill-color-green" : 0.18823529779911,
                                      "fill-color-opacity" : 1.0,
                                      "fill-color-red" : 0.960784316062927,
                                      "hasDropShadow" : 0.0,
                                      "height" : 160.0,
                                      "savedXScale" : 1.0,
                                      "savedYScale" : 1.0,
                                      "stroke-color-blue" : 0.886274516582489,
                                      "stroke-color-green" : 0.200000002980232,
                                      "stroke-color-opacity" : 0.0,
                                      "stroke-color-red" : 0.376470595598221,
                                      "stroke-width" : 0.0,
                                      "width" : 1400.0,
                                      "custom" : "Y",
                                      "fill-style" : "solid",
                                      "stroke-style" : "solid"
                                    },
                                    "attributes" : {
                                      "ident" : "",
                                      "autoRotateText" : true
                                    },
                                    "parameters" : {
                                      "translation1" : {
                                        "type" : "double",
                                        "defaultValue" : -1.0,
                                        "keyframes" : [
                                          {
                                            "endTime" : 270480000,
                                            "time" : 0,
                                            "value" : 0.0,
                                            "duration" : 270480000
                                          }
                                        ]
                                      },
                                      "scale0" : {
                                        "type" : "double",
                                        "defaultValue" : 1.0,
                                        "keyframes" : [
                                          {
                                            "endTime" : 270480000,
                                            "time" : 0,
                                            "value" : 1.0,
                                            "duration" : 270480000
                                          }
                                        ]
                                      },
                                      "scale1" : {
                                        "type" : "double",
                                        "defaultValue" : 0.125,
                                        "keyframes" : [
                                          {
                                            "endTime" : 270480000,
                                            "time" : 0,
                                            "value" : 0.5,
                                            "duration" : 270480000
                                          },
                                          {
                                            "endTime" : 552720000,
                                            "time" : 282240000,
                                            "value" : 0.125,
                                            "duration" : 270480000
                                          }
                                        ]
                                      },
                                      "sourceCrop0" : 0.0,
                                      "sourceCrop1" : 0.0,
                                      "sourceCrop2" : 0.0,
                                      "sourceCrop3" : 0.0,
                                      "geometryCrop0" : 0.0,
                                      "geometryCrop1" : 0.0,
                                      "geometryCrop2" : 0.0,
                                      "geometryCrop3" : 0.0
                                    },
                                    "effects" : [

                                    ],
                                    "start" : 0,
                                    "duration" : 3528000000,
                                    "mediaStart" : 0,
                                    "mediaDuration" : 3528000000,
                                    "scalar" : 1,
                                    "metadata" : {
                                      "AppliedThemeId" : "",
                                      "clipSpeedAttribute" : false,
                                      "effectApplied" : "none"
                                    },
                                    "animationTracks" : {
                                      "visual" : [
                                        {
                                          "endTime" : 270480000,
                                          "duration" : 270480000,
                                          "range" : [ 0, 270480000]
                                        },
                                        {
                                          "endTime" : 552720000,
                                          "duration" : 270480000,
                                          "range" : [ 282240000, 270480000]
                                        }
                                      ]
                                    }
                                  }
                                ],
                                  "ident" : "",
                                  "audioMuted" : false,
                                  "videoHidden" : false,
                                  "magnetic" : false,
                                  "matte" : 1,
                                  "solo" : false,
                                  "metadata" : {
                                    "IsLocked" : "False",
                                    "WinTrackHeight" : "56",
                                    "trackHeight" : "54"
                                  }
                              }
                            ],
                            "attributes" : {
                              "ident" : "Animated-Pulse-1400x20-To-1400x80",
                              "widthAttr" : 1405.0,
                              "heightAttr" : 167.002,
                              "gain" : 1.0,
                              "mixToMono" : false,
                              "assetProperties" : [
                                {
                                  "type" : 1,
                                  "name" : "Color",
                                  "objects" : [ 429 ],
                                  "themeMappings" :  {
                                    "fill" : "accent-1"
                                  }
                                }
                              ]
                            },
                            "effects" : [

                            ],
                            "start" : 0,
                            "duration" : 3528000000,
                            "mediaStart" : 0.0,
                            "mediaDuration" : 3528000000.0,
                            "scalar" : 1,
                            "metadata" : {
                              "AppliedThemeId" : "8e797988-b823-4beb-b251-1d31b461ba07",
                              "clipSpeedAttribute" : false,
                              "effectApplied" : "none",
                              "isOpen" : false,
                              "lockAspectRatio" : true
                            },
                            "animationTracks" : {
                              "visual" : [
                                {
                                  "endTime" : 552720000,
                                  "duration" : 552720000,
                                  "range" : [ 0, 552720000],
                                  "interp" : "eioe"
                                },
                                {
                                  "endTime" : 1775760000,
                                  "duration" : 399840000,
                                  "range" : [ 1375920000, 399840000],
                                  "interp" : "eioe"
                                }
                              ]
                            }
                          }
                        ],
                          "ident" : "",
                          "audioMuted" : false,
                          "videoHidden" : false,
                          "magnetic" : false,
                          "matte" : 0,
                          "solo" : false,
                          "metadata" : {
                            "IsLocked" : "False",
                            "WinTrackHeight" : "56",
                            "trackHeight" : "54"
                          }
                      },
                      {
                        "trackIndex" : 3,
                        "medias" : [
                          {
                            "id" : 431,
                            "_type" : "Group",
                            "parameters" : {
                              "translation0" : {
                                "type" : "double",
                                "defaultValue" : 0.0,
                                "keyframes" : [
                                  {
                                    "endTime" : 552720000,
                                    "time" : 0,
                                    "value" : 0.0,
                                    "interp" : "eioe",
                                    "duration" : 552720000
                                  },
                                  {
                                    "endTime" : 1775760000,
                                    "time" : 1375920000,
                                    "value" : 0.0,
                                    "interp" : "eioe",
                                    "duration" : 399840000
                                  }
                                ]
                              },
                              "translation1" : {
                                "type" : "double",
                                "defaultValue" : -143.610046386719,
                                "keyframes" : [
                                  {
                                    "endTime" : 552720000,
                                    "time" : 0,
                                    "value" : 0.0,
                                    "interp" : "eioe",
                                    "duration" : 552720000
                                  },
                                  {
                                    "endTime" : 1775760000,
                                    "time" : 1375920000,
                                    "value" : -143.610046386719,
                                    "interp" : "eioe",
                                    "duration" : 399840000
                                  }
                                ]
                              },
                              "sourceCrop0" : 0.0,
                              "sourceCrop1" : 0.0,
                              "sourceCrop2" : 0.0,
                              "sourceCrop3" : 0.0,
                              "geometryCrop0" : 0.0,
                              "geometryCrop1" : 0.0,
                              "geometryCrop2" : 0.0,
                              "geometryCrop3" : 0.0,
                              "opacity" : {
                                "type" : "double",
                                "defaultValue" : 1.0,
                                "keyframes" : [
                                  {
                                    "endTime" : 552720000,
                                    "time" : 0,
                                    "value" : 1.0,
                                    "interp" : "eioe",
                                    "duration" : 552720000
                                  }
                                ]
                              },
                              "volume" : 1.0
                            },
                            "tracks" : [
                              {
                                "trackIndex" : 0,
                                "medias" : [
                                  {
                                    "id" : 432,
                                    "_type" : "Callout",
                                    "def" : {
                                      "kind" : "remix",
                                      "shape" : "shape-rectangle",
                                      "style" : "bold",
                                      "fill-color-blue" : 0.913725490196078,
                                      "fill-color-green" : 0.949019607843137,
                                      "fill-color-opacity" : 1.0,
                                      "fill-color-red" : 0.933333333333333,
                                      "hasDropShadow" : 0.0,
                                      "height" : 163.002035140991,
                                      "savedXScale" : 1.0,
                                      "savedYScale" : 1.0,
                                      "stroke-color-blue" : 1.0,
                                      "stroke-color-green" : 1.0,
                                      "stroke-color-opacity" : 1.0,
                                      "stroke-color-red" : 1.0,
                                      "stroke-width" : 0.0,
                                      "width" : 1403.00212860107,
                                      "custom" : "Y",
                                      "fill-style" : "solid",
                                      "stroke-style" : "solid"
                                    },
                                    "attributes" : {
                                      "ident" : "",
                                      "autoRotateText" : true
                                    },
                                    "parameters" : {
                                      "anchor0" : -1.0,
                                      "anchor1" : 2.0,
                                      "sourceCrop0" : 0.0,
                                      "sourceCrop1" : 0.0,
                                      "sourceCrop2" : 0.0,
                                      "sourceCrop3" : 0.0,
                                      "geometryCrop0" : 0.0,
                                      "geometryCrop1" : 0.0,
                                      "geometryCrop2" : 0.0,
                                      "geometryCrop3" : 0.0
                                    },
                                    "effects" : [

                                    ],
                                    "start" : 0,
                                    "duration" : 3528000000,
                                    "mediaStart" : 0,
                                    "mediaDuration" : 3528000000,
                                    "scalar" : 1,
                                    "metadata" : {
                                      "AppliedThemeId" : "",
                                      "clipSpeedAttribute" : false,
                                      "effectApplied" : "none",
                                      "lockAspectRatio" : false
                                    },
                                    "animationTracks" : {

                                    }
                                  }
                                ],
                                  "ident" : "",
                                  "audioMuted" : false,
                                  "videoHidden" : false,
                                  "magnetic" : false,
                                  "matte" : 0,
                                  "solo" : false,
                                  "metadata" : {
                                    "IsLocked" : "False",
                                    "WinTrackHeight" : "56",
                                    "trackHeight" : "54"
                                  }
                              },
                              {
                                "trackIndex" : 1,
                                "medias" : [
                                  {
                                    "id" : 433,
                                    "_type" : "Callout",
                                    "def" : {
                                      "kind" : "remix",
                                      "shape" : "shape-rectangle",
                                      "style" : "bold",
                                      "fill-color-blue" : 0.756862759590149,
                                      "fill-color-green" : 0.18823529779911,
                                      "fill-color-opacity" : 1.0,
                                      "fill-color-red" : 0.960784316062927,
                                      "hasDropShadow" : 0.0,
                                      "height" : 160.0,
                                      "savedXScale" : 1.0,
                                      "savedYScale" : 1.0,
                                      "stroke-color-blue" : 0.886274516582489,
                                      "stroke-color-green" : 0.200000002980232,
                                      "stroke-color-opacity" : 0.0,
                                      "stroke-color-red" : 0.376470595598221,
                                      "stroke-width" : 0.0,
                                      "width" : 1400.0,
                                      "custom" : "Y",
                                      "fill-style" : "solid",
                                      "stroke-style" : "solid"
                                    },
                                    "attributes" : {
                                      "ident" : "",
                                      "autoRotateText" : true
                                    },
                                    "parameters" : {
                                      "sourceCrop0" : 0.0,
                                      "sourceCrop1" : 0.0,
                                      "sourceCrop2" : 0.0,
                                      "sourceCrop3" : 0.0,
                                      "geometryCrop0" : 0.0,
                                      "geometryCrop1" : 0.0,
                                      "geometryCrop2" : 0.0,
                                      "geometryCrop3" : 0.0
                                    },
                                    "effects" : [

                                    ],
                                    "start" : 0,
                                    "duration" : 3528000000,
                                    "mediaStart" : 0,
                                    "mediaDuration" : 3528000000,
                                    "scalar" : 1,
                                    "metadata" : {
                                      "AppliedThemeId" : "",
                                      "clipSpeedAttribute" : false,
                                      "effectApplied" : "none"
                                    },
                                    "animationTracks" : {

                                    }
                                  }
                                ],
                                  "ident" : "",
                                  "audioMuted" : false,
                                  "videoHidden" : false,
                                  "magnetic" : false,
                                  "matte" : 1,
                                  "solo" : false,
                                  "metadata" : {
                                    "IsLocked" : "False",
                                    "WinTrackHeight" : "56",
                                    "trackHeight" : "54"
                                  }
                              }
                            ],
                            "attributes" : {
                              "ident" : "Rect-1400x1600-Mask",
                              "widthAttr" : 1405.0,
                              "heightAttr" : 167.002,
                              "gain" : 1.0,
                              "mixToMono" : false
                            },
                            "effects" : [

                            ],
                            "start" : 0,
                            "duration" : 3528000000,
                            "mediaStart" : 0.0,
                            "mediaDuration" : 3528000000.0,
                            "scalar" : 1,
                            "metadata" : {
                              "clipSpeedAttribute" : false,
                              "effectApplied" : "none",
                              "isOpen" : false,
                              "lockAspectRatio" : true
                            },
                            "animationTracks" : {
                              "visual" : [
                                {
                                  "endTime" : 552720000,
                                  "duration" : 552720000,
                                  "range" : [ 0, 552720000],
                                  "interp" : "eioe"
                                },
                                {
                                  "endTime" : 1775760000,
                                  "duration" : 399840000,
                                  "range" : [ 1375920000, 399840000],
                                  "interp" : "eioe"
                                }
                              ]
                            }
                          }
                        ],
                          "ident" : "",
                          "audioMuted" : false,
                          "videoHidden" : false,
                          "magnetic" : false,
                          "matte" : 1,
                          "solo" : false,
                          "metadata" : {
                            "IsLocked" : "False",
                            "WinTrackHeight" : "56",
                            "trackHeight" : "54"
                          }
                      }
                    ],
                    "attributes" : {
                      "ident" : "Broadcast-Title-012",
                      "widthAttr" : 1405.0,
                      "heightAttr" : 160.0,
                      "gain" : 1.0,
                      "mixToMono" : false,
                      "assetProperties" : [
                        {
                          "type" : 0,
                          "name" : "Title",
                          "objects" : [ 424 ],
                          "themeMappings" :  {
                            "font-color" : "foreground-1"
                          }
                        },
                        {
                          "type" : 1,
                          "name" : "Fill",
                          "objects" : [ 422 ],
                          "themeMappings" :  {
                            "fill" : "background-1"
                          }
                        },
                        {
                          "type" : 1,
                          "name" : "Wiper",
                          "objects" : [ 429 ],
                          "themeMappings" :  {
                            "fill" : "foreground-1"
                          }
                        }
                      ]
                    },
                    "effects" : [

                    ],
                    "start" : 1928640000,
                    "duration" : 1764000000,
                    "mediaStart" : 0.0,
                    "mediaDuration" : 1764000000.0,
                    "scalar" : 1,
                    "metadata" : {
                      "AppliedThemeId" : "170ba59c-db5d-4b9a-a310-e7e99853a4b7",
                      "clipSpeedAttribute" : false,
                      "default-anchor0" : 0.0,
                      "default-anchor1" : 0.0,
                      "default-anchor2" : 0.0,
                      "default-geometryCrop0" : 0.0,
                      "default-height" : 160.0,
                      "default-rotation0" : 0.0,
                      "default-rotation1" : 0.0,
                      "default-rotation2" : 0.0,
                      "default-scale0" : 1.0,
                      "default-scale1" : 1.0,
                      "default-scale2" : 1.0,
                      "default-shear0" : 0.0,
                      "default-shear1" : 0.0,
                      "default-shear2" : 0.0,
                      "default-translation0" : 0.0,
                      "default-translation1" : 0.0,
                      "default-translation2" : 0.0,
                      "default-width" : 1405.0,
                      "effectApplied" : "none",
                      "isOpen" : false,
                      "lockAspectRatio" : true
                    },
                    "animationTracks" : {

                    }
                  }
                ]
              },
              {
                "trackIndex" : 115,
                "medias" : [
                  {
                    "id" : 434,
                    "_type" : "Group",
                    "parameters" : {
                      "translation0" : 350.0,
                      "translation1" : 250.0,
                      "scale0" : 0.213523131672598,
                      "scale1" : 0.21875,
                      "sourceCrop0" : 0.0,
                      "sourceCrop1" : 0.0,
                      "sourceCrop2" : 0.0,
                      "sourceCrop3" : 0.0,
                      "geometryCrop0" : 0.0,
                      "geometryCrop1" : 0.0,
                      "geometryCrop2" : 0.0,
                      "geometryCrop3" : 0.0,
                      "volume" : 1.0
                    },
                    "tracks" : [
                      {
                        "trackIndex" : 0,
                        "medias" : [
                          {
                            "id" : 435,
                            "_type" : "Group",
                            "parameters" : {
                              "translation0" : {
                                "type" : "double",
                                "defaultValue" : 0.0,
                                "keyframes" : [
                                  {
                                    "endTime" : 552720000,
                                    "time" : 0,
                                    "value" : 0.0,
                                    "interp" : "eioe",
                                    "duration" : 552720000
                                  },
                                  {
                                    "endTime" : 1775760000,
                                    "time" : 1375920000,
                                    "value" : 0.0,
                                    "interp" : "eioe",
                                    "duration" : 399840000
                                  }
                                ]
                              },
                              "translation1" : {
                                "type" : "double",
                                "defaultValue" : -305.610046386719,
                                "keyframes" : [
                                  {
                                    "endTime" : 552720000,
                                    "time" : 0,
                                    "value" : 0.0,
                                    "interp" : "eioe",
                                    "duration" : 552720000
                                  },
                                  {
                                    "endTime" : 1775760000,
                                    "time" : 1375920000,
                                    "value" : -304.610046386719,
                                    "interp" : "eioe",
                                    "duration" : 399840000
                                  }
                                ]
                              },
                              "sourceCrop0" : 0.0,
                              "sourceCrop1" : 0.0,
                              "sourceCrop2" : 0.0,
                              "sourceCrop3" : 0.0,
                              "geometryCrop0" : 0.0,
                              "geometryCrop1" : 0.0,
                              "geometryCrop2" : 0.0,
                              "geometryCrop3" : 0.0,
                              "volume" : 1.0
                            },
                            "tracks" : [
                              {
                                "trackIndex" : 0,
                                "medias" : [
                                  {
                                    "id" : 436,
                                    "_type" : "Group",
                                    "parameters" : {
                                      "sourceCrop0" : 0.0,
                                      "sourceCrop1" : 0.0,
                                      "sourceCrop2" : 0.0,
                                      "sourceCrop3" : 0.0,
                                      "geometryCrop0" : 0.0,
                                      "geometryCrop1" : 0.0,
                                      "geometryCrop2" : 0.0,
                                      "geometryCrop3" : 0.0,
                                      "volume" : 1.0
                                    },
                                    "tracks" : [
                                      {
                                        "trackIndex" : 0,
                                        "medias" : [
                                          {
                                            "id" : 437,
                                            "_type" : "Callout",
                                            "def" : {
                                              "kind" : "remix",
                                              "shape" : "shape-rectangle",
                                              "style" : "bold",
                                              "fill-color-blue" : 1.0,
                                              "fill-color-green" : 1.0,
                                              "fill-color-opacity" : 1.0,
                                              "fill-color-red" : 1.0,
                                              "hasDropShadow" : 0.0,
                                              "height" : 163.002035140991,
                                              "savedXScale" : 1.0,
                                              "savedYScale" : 1.0,
                                              "stroke-color-blue" : 1.0,
                                              "stroke-color-green" : 1.0,
                                              "stroke-color-opacity" : 1.0,
                                              "stroke-color-red" : 1.0,
                                              "stroke-width" : 0.0,
                                              "width" : 1403.00212860107,
                                              "custom" : "Y",
                                              "fill-style" : "solid",
                                              "stroke-style" : "solid"
                                            },
                                            "attributes" : {
                                              "ident" : "",
                                              "autoRotateText" : true
                                            },
                                            "parameters" : {
                                              "anchor0" : -1.0,
                                              "anchor1" : 2.0,
                                              "sourceCrop0" : 0.0,
                                              "sourceCrop1" : 0.0,
                                              "sourceCrop2" : 0.0,
                                              "sourceCrop3" : 0.0,
                                              "geometryCrop0" : 0.0,
                                              "geometryCrop1" : 0.0,
                                              "geometryCrop2" : 0.0,
                                              "geometryCrop3" : 0.0
                                            },
                                            "effects" : [

                                            ],
                                            "start" : 0,
                                            "duration" : 3528000000,
                                            "mediaStart" : 0,
                                            "mediaDuration" : 3528000000,
                                            "scalar" : 1,
                                            "metadata" : {
                                              "AppliedThemeId" : "",
                                              "clipSpeedAttribute" : false,
                                              "effectApplied" : "none",
                                              "lockAspectRatio" : false
                                            },
                                            "animationTracks" : {

                                            }
                                          }
                                        ],
                                          "ident" : "",
                                          "audioMuted" : false,
                                          "videoHidden" : false,
                                          "magnetic" : false,
                                          "matte" : 0,
                                          "solo" : false,
                                          "metadata" : {
                                            "IsLocked" : "False",
                                            "WinTrackHeight" : "56",
                                            "trackHeight" : "54"
                                          }
                                      },
                                      {
                                        "trackIndex" : 1,
                                        "medias" : [
                                          {
                                            "id" : 438,
                                            "_type" : "Callout",
                                            "def" : {
                                              "kind" : "remix",
                                              "shape" : "shape-rectangle",
                                              "style" : "bold",
                                              "fill-color-blue" : 0.756862759590149,
                                              "fill-color-green" : 0.18823529779911,
                                              "fill-color-opacity" : 1.0,
                                              "fill-color-red" : 0.960784316062927,
                                              "hasDropShadow" : 0.0,
                                              "height" : 160.0,
                                              "savedXScale" : 1.0,
                                              "savedYScale" : 1.0,
                                              "stroke-color-blue" : 0.886274516582489,
                                              "stroke-color-green" : 0.200000002980232,
                                              "stroke-color-opacity" : 0.0,
                                              "stroke-color-red" : 0.376470595598221,
                                              "stroke-width" : 0.0,
                                              "width" : 1400.0,
                                              "custom" : "Y",
                                              "fill-style" : "solid",
                                              "stroke-style" : "solid"
                                            },
                                            "attributes" : {
                                              "ident" : "",
                                              "autoRotateText" : true
                                            },
                                            "parameters" : {
                                              "sourceCrop0" : 0.0,
                                              "sourceCrop1" : 0.0,
                                              "sourceCrop2" : 0.0,
                                              "sourceCrop3" : 0.0,
                                              "geometryCrop0" : 0.0,
                                              "geometryCrop1" : 0.0,
                                              "geometryCrop2" : 0.0,
                                              "geometryCrop3" : 0.0
                                            },
                                            "effects" : [

                                            ],
                                            "start" : 0,
                                            "duration" : 3528000000,
                                            "mediaStart" : 0,
                                            "mediaDuration" : 3528000000,
                                            "scalar" : 1,
                                            "metadata" : {
                                              "AppliedThemeId" : "",
                                              "clipSpeedAttribute" : false,
                                              "effectApplied" : "none"
                                            },
                                            "animationTracks" : {

                                            }
                                          }
                                        ],
                                          "ident" : "",
                                          "audioMuted" : false,
                                          "videoHidden" : false,
                                          "magnetic" : false,
                                          "matte" : 1,
                                          "solo" : false,
                                          "metadata" : {
                                            "IsLocked" : "False",
                                            "WinTrackHeight" : "56",
                                            "trackHeight" : "54"
                                          }
                                      }
                                    ],
                                    "attributes" : {
                                      "ident" : "Fill-1400x160",
                                      "widthAttr" : 1405.0,
                                      "heightAttr" : 167.002,
                                      "gain" : 1.0,
                                      "mixToMono" : false
                                    },
                                    "effects" : [

                                    ],
                                    "start" : 0,
                                    "duration" : 3528000000,
                                    "mediaStart" : 0.0,
                                    "mediaDuration" : 3528000000.0,
                                    "scalar" : 1,
                                    "metadata" : {
                                      "clipSpeedAttribute" : false,
                                      "effectApplied" : "none",
                                      "isOpen" : false,
                                      "lockAspectRatio" : true
                                    },
                                    "animationTracks" : {

                                    }
                                  }
                                ],
                                  "ident" : "",
                                  "audioMuted" : false,
                                  "videoHidden" : false,
                                  "magnetic" : false,
                                  "matte" : 0,
                                  "solo" : false,
                                  "metadata" : {
                                    "IsLocked" : "False",
                                    "WinTrackHeight" : "56",
                                    "trackHeight" : "54"
                                  }
                              },
                              {
                                "trackIndex" : 1,
                                "medias" : [
                                  {
                                    "id" : 439,
                                    "_type" : "Callout",
                                    "def" : {
                                      "kind" : "remix",
                                      "shape" : "text",
                                      "style" : "urban",
                                      "enable-ligatures" : 1.0,
                                      "hasDropShadow" : 0.0,
                                      "height" : 170.0,
                                      "line-spacing" : 0.0,
                                      "savedXScale" : 1.0,
                                      "savedYScale" : 1.0,
                                      "width" : 1400.0,
                                      "word-wrap" : 1.0,
                                      "custom" : "Y",
                                      "horizontal-alignment" : "left",
                                      "resize-behavior" : "resizeText",
                                      "text" : "extend selection to left",
                                      "vertical-alignment" : "center",
                                      "font" : {
                                        "color-blue" : 1.0,
                                        "color-green" : 1.0,
                                        "color-red" : 1.0,
                                        "size" : 96.0,
                                        "tracking" : 0.0,
                                        "name" : "Dosis",
                                        "weight" : "Semi Bold"
                                      },
                                      "textAttributes" : {
                                        "type" : "textAttributeList",
                                        "keyframes" : [
                                          {
                                            "endTime" : 0,
                                            "time" : 0,
                                            "value" : [{"name":"underline","rangeEnd":24,"rangeStart":0,"value":0,"valueType":"int"},{"name":"strikethrough","rangeEnd":24,"rangeStart":0,"value":0,"valueType":"int"},{"name":"fontName","rangeEnd":24,"rangeStart":0,"value":"Roboto","valueType":"string"},{"name":"kerning","rangeEnd":24,"rangeStart":0,"value":0.049883078231292483,"valueType":"double"},{"name":"fontItalic","rangeEnd":24,"rangeStart":0,"value":0,"valueType":"int"},{"name":"fontWeight","rangeEnd":24,"rangeStart":0,"value":700,"valueType":"int"},{"name":"fontSize","rangeEnd":24,"rangeStart":0,"value":86,"valueType":"double"},{"name":"fgColor","rangeEnd":24,"rangeStart":0,"value":"(110,110,110,255)","valueType":"color"}],
                                            "duration" : 0
                                          }
                                        ]
                                      }
                                    },
                                    "attributes" : {
                                      "ident" : "",
                                      "autoRotateText" : true
                                    },
                                    "parameters" : {
                                      "translation1" : -2.0,
                                      "sourceCrop0" : 0.0,
                                      "sourceCrop1" : 0.0,
                                      "sourceCrop2" : 0.0,
                                      "sourceCrop3" : 0.0,
                                      "geometryCrop0" : 0.0,
                                      "geometryCrop1" : 0.0,
                                      "geometryCrop2" : 0.0,
                                      "geometryCrop3" : 0.0
                                    },
                                    "effects" : [

                                    ],
                                    "start" : 0,
                                    "duration" : 3528000000,
                                    "mediaStart" : 0,
                                    "mediaDuration" : 3528000000,
                                    "scalar" : 1,
                                    "metadata" : {
                                      "AppliedThemeId" : "",
                                      "clipSpeedAttribute" : false,
                                      "effectApplied" : "none",
                                      "lockAspectRatio" : false
                                    },
                                    "animationTracks" : {

                                    }
                                  }
                                ],
                                  "ident" : "",
                                  "audioMuted" : false,
                                  "videoHidden" : false,
                                  "magnetic" : false,
                                  "matte" : 0,
                                  "solo" : false,
                                  "metadata" : {
                                    "IsLocked" : "False",
                                    "WinTrackHeight" : "56",
                                    "trackHeight" : "54"
                                  }
                              }
                            ],
                            "attributes" : {
                              "ident" : "BP-Title-11",
                              "widthAttr" : 1405.0,
                              "heightAttr" : 167.002,
                              "gain" : 1.0,
                              "mixToMono" : false,
                              "assetProperties" : [
                                {
                                  "type" : 0,
                                  "name" : "Title",
                                  "objects" : [ 439 ],
                                  "themeMappings" :  {
                                    "font-color" : "foreground-1"
                                  }
                                },
                                {
                                  "type" : 1,
                                  "name" : "Fill",
                                  "objects" : [ 437 ],
                                  "themeMappings" :  {
                                    "fill" : "background-1"
                                  }
                                }
                              ]
                            },
                            "effects" : [

                            ],
                            "start" : 0,
                            "duration" : 3528000000,
                            "mediaStart" : 0.0,
                            "mediaDuration" : 3528000000.0,
                            "scalar" : 1,
                            "metadata" : {
                              "clipSpeedAttribute" : false,
                              "effectApplied" : "none",
                              "isOpen" : false,
                              "lockAspectRatio" : true
                            },
                            "animationTracks" : {
                              "visual" : [
                                {
                                  "endTime" : 552720000,
                                  "duration" : 552720000,
                                  "range" : [ 0, 552720000],
                                  "interp" : "eioe"
                                },
                                {
                                  "endTime" : 1775760000,
                                  "duration" : 399840000,
                                  "range" : [ 1375920000, 399840000],
                                  "interp" : "eioe"
                                }
                              ]
                            }
                          }
                        ],
                          "ident" : "",
                          "audioMuted" : false,
                          "videoHidden" : false,
                          "magnetic" : false,
                          "matte" : 0,
                          "solo" : false,
                          "metadata" : {
                            "IsLocked" : "False",
                            "WinTrackHeight" : "56",
                            "trackHeight" : "54"
                          }
                      },
                      {
                        "trackIndex" : 1,
                        "medias" : [
                          {
                            "id" : 440,
                            "_type" : "Group",
                            "parameters" : {
                              "translation0" : {
                                "type" : "double",
                                "defaultValue" : 0.0,
                                "keyframes" : [
                                  {
                                    "endTime" : 552720000,
                                    "time" : 0,
                                    "value" : 0.0,
                                    "interp" : "eioe",
                                    "duration" : 552720000
                                  },
                                  {
                                    "endTime" : 1775760000,
                                    "time" : 1375920000,
                                    "value" : 0.0,
                                    "interp" : "eioe",
                                    "duration" : 399840000
                                  }
                                ]
                              },
                              "translation1" : {
                                "type" : "double",
                                "defaultValue" : -144.610046386719,
                                "keyframes" : [
                                  {
                                    "endTime" : 552720000,
                                    "time" : 0,
                                    "value" : 0.0,
                                    "interp" : "eioe",
                                    "duration" : 552720000
                                  },
                                  {
                                    "endTime" : 1775760000,
                                    "time" : 1375920000,
                                    "value" : -144.610046386719,
                                    "interp" : "eioe",
                                    "duration" : 399840000
                                  }
                                ]
                              },
                              "sourceCrop0" : 0.0,
                              "sourceCrop1" : 0.0,
                              "sourceCrop2" : 0.0,
                              "sourceCrop3" : 0.0,
                              "geometryCrop0" : 0.0,
                              "geometryCrop1" : 0.0,
                              "geometryCrop2" : 0.0,
                              "geometryCrop3" : 0.0,
                              "opacity" : {
                                "type" : "double",
                                "defaultValue" : 1.0,
                                "keyframes" : [
                                  {
                                    "endTime" : 552720000,
                                    "time" : 0,
                                    "value" : 1.0,
                                    "interp" : "eioe",
                                    "duration" : 552720000
                                  }
                                ]
                              },
                              "volume" : 1.0
                            },
                            "tracks" : [
                              {
                                "trackIndex" : 0,
                                "medias" : [
                                  {
                                    "id" : 441,
                                    "_type" : "Callout",
                                    "def" : {
                                      "kind" : "remix",
                                      "shape" : "shape-rectangle",
                                      "style" : "bold",
                                      "fill-color-blue" : 0.913725490196078,
                                      "fill-color-green" : 0.949019607843137,
                                      "fill-color-opacity" : 1.0,
                                      "fill-color-red" : 0.933333333333333,
                                      "hasDropShadow" : 0.0,
                                      "height" : 163.002035140991,
                                      "savedXScale" : 1.0,
                                      "savedYScale" : 1.0,
                                      "stroke-color-blue" : 1.0,
                                      "stroke-color-green" : 1.0,
                                      "stroke-color-opacity" : 1.0,
                                      "stroke-color-red" : 1.0,
                                      "stroke-width" : 0.0,
                                      "width" : 1403.00212860107,
                                      "custom" : "Y",
                                      "fill-style" : "solid",
                                      "stroke-style" : "solid"
                                    },
                                    "attributes" : {
                                      "ident" : "",
                                      "autoRotateText" : true
                                    },
                                    "parameters" : {
                                      "anchor0" : -1.0,
                                      "anchor1" : 2.0,
                                      "sourceCrop0" : 0.0,
                                      "sourceCrop1" : 0.0,
                                      "sourceCrop2" : 0.0,
                                      "sourceCrop3" : 0.0,
                                      "geometryCrop0" : 0.0,
                                      "geometryCrop1" : 0.0,
                                      "geometryCrop2" : 0.0,
                                      "geometryCrop3" : 0.0
                                    },
                                    "effects" : [

                                    ],
                                    "start" : 0,
                                    "duration" : 3528000000,
                                    "mediaStart" : 0,
                                    "mediaDuration" : 3528000000,
                                    "scalar" : 1,
                                    "metadata" : {
                                      "AppliedThemeId" : "",
                                      "clipSpeedAttribute" : false,
                                      "effectApplied" : "none",
                                      "lockAspectRatio" : false
                                    },
                                    "animationTracks" : {

                                    }
                                  }
                                ],
                                  "ident" : "",
                                  "audioMuted" : false,
                                  "videoHidden" : false,
                                  "magnetic" : false,
                                  "matte" : 0,
                                  "solo" : false,
                                  "metadata" : {
                                    "IsLocked" : "False",
                                    "WinTrackHeight" : "56",
                                    "trackHeight" : "54"
                                  }
                              },
                              {
                                "trackIndex" : 1,
                                "medias" : [
                                  {
                                    "id" : 442,
                                    "_type" : "Callout",
                                    "def" : {
                                      "kind" : "remix",
                                      "shape" : "shape-rectangle",
                                      "style" : "bold",
                                      "fill-color-blue" : 0.756862759590149,
                                      "fill-color-green" : 0.18823529779911,
                                      "fill-color-opacity" : 1.0,
                                      "fill-color-red" : 0.960784316062927,
                                      "hasDropShadow" : 0.0,
                                      "height" : 160.0,
                                      "savedXScale" : 1.0,
                                      "savedYScale" : 1.0,
                                      "stroke-color-blue" : 0.886274516582489,
                                      "stroke-color-green" : 0.200000002980232,
                                      "stroke-color-opacity" : 0.0,
                                      "stroke-color-red" : 0.376470595598221,
                                      "stroke-width" : 0.0,
                                      "width" : 1400.0,
                                      "custom" : "Y",
                                      "fill-style" : "solid",
                                      "stroke-style" : "solid"
                                    },
                                    "attributes" : {
                                      "ident" : "",
                                      "autoRotateText" : true
                                    },
                                    "parameters" : {
                                      "sourceCrop0" : 0.0,
                                      "sourceCrop1" : 0.0,
                                      "sourceCrop2" : 0.0,
                                      "sourceCrop3" : 0.0,
                                      "geometryCrop0" : 0.0,
                                      "geometryCrop1" : 0.0,
                                      "geometryCrop2" : 0.0,
                                      "geometryCrop3" : 0.0
                                    },
                                    "effects" : [

                                    ],
                                    "start" : 0,
                                    "duration" : 3528000000,
                                    "mediaStart" : 0,
                                    "mediaDuration" : 3528000000,
                                    "scalar" : 1,
                                    "metadata" : {
                                      "AppliedThemeId" : "",
                                      "clipSpeedAttribute" : false,
                                      "effectApplied" : "none"
                                    },
                                    "animationTracks" : {

                                    }
                                  }
                                ],
                                  "ident" : "",
                                  "audioMuted" : false,
                                  "videoHidden" : false,
                                  "magnetic" : false,
                                  "matte" : 1,
                                  "solo" : false,
                                  "metadata" : {
                                    "IsLocked" : "False",
                                    "WinTrackHeight" : "56",
                                    "trackHeight" : "54"
                                  }
                              }
                            ],
                            "attributes" : {
                              "ident" : "Rect-1400x1600-Mask",
                              "widthAttr" : 1405.0,
                              "heightAttr" : 167.002,
                              "gain" : 1.0,
                              "mixToMono" : false
                            },
                            "effects" : [

                            ],
                            "start" : 0,
                            "duration" : 3528000000,
                            "mediaStart" : 0.0,
                            "mediaDuration" : 3528000000.0,
                            "scalar" : 1,
                            "metadata" : {
                              "clipSpeedAttribute" : false,
                              "effectApplied" : "none",
                              "isOpen" : false,
                              "lockAspectRatio" : true
                            },
                            "animationTracks" : {
                              "visual" : [
                                {
                                  "endTime" : 552720000,
                                  "duration" : 552720000,
                                  "range" : [ 0, 552720000],
                                  "interp" : "eioe"
                                },
                                {
                                  "endTime" : 1775760000,
                                  "duration" : 399840000,
                                  "range" : [ 1375920000, 399840000],
                                  "interp" : "eioe"
                                }
                              ]
                            }
                          }
                        ],
                          "ident" : "",
                          "audioMuted" : false,
                          "videoHidden" : false,
                          "magnetic" : false,
                          "matte" : 1,
                          "solo" : false,
                          "metadata" : {
                            "IsLocked" : "False",
                            "WinTrackHeight" : "56",
                            "trackHeight" : "54"
                          }
                      },
                      {
                        "trackIndex" : 2,
                        "medias" : [
                          {
                            "id" : 443,
                            "_type" : "Group",
                            "parameters" : {
                              "translation0" : {
                                "type" : "double",
                                "defaultValue" : 0.0,
                                "keyframes" : [
                                  {
                                    "endTime" : 552720000,
                                    "time" : 0,
                                    "value" : 0.0,
                                    "interp" : "eioe",
                                    "duration" : 552720000
                                  },
                                  {
                                    "endTime" : 1775760000,
                                    "time" : 1375920000,
                                    "value" : 0.0,
                                    "interp" : "eioe",
                                    "duration" : 399840000
                                  }
                                ]
                              },
                              "translation1" : {
                                "type" : "double",
                                "defaultValue" : -233.610046386719,
                                "keyframes" : [
                                  {
                                    "endTime" : 552720000,
                                    "time" : 0,
                                    "value" : 90.0,
                                    "interp" : "eioe",
                                    "duration" : 552720000
                                  },
                                  {
                                    "endTime" : 1775760000,
                                    "time" : 1375920000,
                                    "value" : -233.610046386719,
                                    "interp" : "eioe",
                                    "duration" : 399840000
                                  }
                                ]
                              },
                              "sourceCrop0" : 0.0,
                              "sourceCrop1" : 0.0,
                              "sourceCrop2" : 0.0,
                              "sourceCrop3" : 0.0,
                              "geometryCrop0" : 0.0,
                              "geometryCrop1" : 0.0,
                              "geometryCrop2" : 0.0,
                              "geometryCrop3" : 0.0,
                              "opacity" : {
                                "type" : "double",
                                "defaultValue" : 1.0,
                                "keyframes" : [
                                  {
                                    "endTime" : 552720000,
                                    "time" : 0,
                                    "value" : 1.0,
                                    "interp" : "eioe",
                                    "duration" : 552720000
                                  }
                                ]
                              },
                              "volume" : 1.0
                            },
                            "tracks" : [
                              {
                                "trackIndex" : 0,
                                "medias" : [
                                  {
                                    "id" : 444,
                                    "_type" : "Callout",
                                    "def" : {
                                      "kind" : "remix",
                                      "shape" : "shape-rectangle",
                                      "style" : "bold",
                                      "fill-color-blue" : 0.2196078431,
                                      "fill-color-green" : 0.8745098039,
                                      "fill-color-opacity" : 1.0,
                                      "fill-color-red" : 1.0,
                                      "hasDropShadow" : 0.0,
                                      "height" : 163.002035140991,
                                      "savedXScale" : 1.0,
                                      "savedYScale" : 1.0,
                                      "stroke-color-blue" : 1.0,
                                      "stroke-color-green" : 1.0,
                                      "stroke-color-opacity" : 1.0,
                                      "stroke-color-red" : 1.0,
                                      "stroke-width" : 0.0,
                                      "width" : 1403.00212860107,
                                      "custom" : "Y",
                                      "fill-style" : "solid",
                                      "stroke-style" : "solid"
                                    },
                                    "attributes" : {
                                      "ident" : "",
                                      "autoRotateText" : true
                                    },
                                    "parameters" : {
                                      "anchor0" : -1.0,
                                      "anchor1" : 2.0,
                                      "sourceCrop0" : 0.0,
                                      "sourceCrop1" : 0.0,
                                      "sourceCrop2" : 0.0,
                                      "sourceCrop3" : 0.0,
                                      "geometryCrop0" : 0.0,
                                      "geometryCrop1" : 0.0,
                                      "geometryCrop2" : 0.0,
                                      "geometryCrop3" : 0.0
                                    },
                                    "effects" : [

                                    ],
                                    "start" : 0,
                                    "duration" : 3528000000,
                                    "mediaStart" : 0,
                                    "mediaDuration" : 3528000000,
                                    "scalar" : 1,
                                    "metadata" : {
                                      "AppliedThemeId" : "",
                                      "clipSpeedAttribute" : false,
                                      "effectApplied" : "none",
                                      "lockAspectRatio" : false
                                    },
                                    "animationTracks" : {

                                    }
                                  }
                                ],
                                  "ident" : "",
                                  "audioMuted" : false,
                                  "videoHidden" : false,
                                  "magnetic" : false,
                                  "matte" : 0,
                                  "solo" : false,
                                  "metadata" : {
                                    "IsLocked" : "False",
                                    "WinTrackHeight" : "56",
                                    "trackHeight" : "54"
                                  }
                              },
                              {
                                "trackIndex" : 1,
                                "medias" : [
                                  {
                                    "id" : 445,
                                    "_type" : "Callout",
                                    "def" : {
                                      "kind" : "remix",
                                      "shape" : "shape-rectangle",
                                      "style" : "bold",
                                      "fill-color-blue" : 0.756862759590149,
                                      "fill-color-green" : 0.18823529779911,
                                      "fill-color-opacity" : 1.0,
                                      "fill-color-red" : 0.960784316062927,
                                      "hasDropShadow" : 0.0,
                                      "height" : 160.0,
                                      "savedXScale" : 1.0,
                                      "savedYScale" : 1.0,
                                      "stroke-color-blue" : 0.886274516582489,
                                      "stroke-color-green" : 0.200000002980232,
                                      "stroke-color-opacity" : 0.0,
                                      "stroke-color-red" : 0.376470595598221,
                                      "stroke-width" : 0.0,
                                      "width" : 1400.0,
                                      "custom" : "Y",
                                      "fill-style" : "solid",
                                      "stroke-style" : "solid"
                                    },
                                    "attributes" : {
                                      "ident" : "",
                                      "autoRotateText" : true
                                    },
                                    "parameters" : {
                                      "translation1" : {
                                        "type" : "double",
                                        "defaultValue" : -1.0,
                                        "keyframes" : [
                                          {
                                            "endTime" : 270480000,
                                            "time" : 0,
                                            "value" : 0.0,
                                            "duration" : 270480000
                                          }
                                        ]
                                      },
                                      "scale0" : {
                                        "type" : "double",
                                        "defaultValue" : 1.0,
                                        "keyframes" : [
                                          {
                                            "endTime" : 270480000,
                                            "time" : 0,
                                            "value" : 1.0,
                                            "duration" : 270480000
                                          }
                                        ]
                                      },
                                      "scale1" : {
                                        "type" : "double",
                                        "defaultValue" : 0.125,
                                        "keyframes" : [
                                          {
                                            "endTime" : 270480000,
                                            "time" : 0,
                                            "value" : 0.5,
                                            "duration" : 270480000
                                          },
                                          {
                                            "endTime" : 552720000,
                                            "time" : 282240000,
                                            "value" : 0.125,
                                            "duration" : 270480000
                                          }
                                        ]
                                      },
                                      "sourceCrop0" : 0.0,
                                      "sourceCrop1" : 0.0,
                                      "sourceCrop2" : 0.0,
                                      "sourceCrop3" : 0.0,
                                      "geometryCrop0" : 0.0,
                                      "geometryCrop1" : 0.0,
                                      "geometryCrop2" : 0.0,
                                      "geometryCrop3" : 0.0
                                    },
                                    "effects" : [

                                    ],
                                    "start" : 0,
                                    "duration" : 3528000000,
                                    "mediaStart" : 0,
                                    "mediaDuration" : 3528000000,
                                    "scalar" : 1,
                                    "metadata" : {
                                      "AppliedThemeId" : "",
                                      "clipSpeedAttribute" : false,
                                      "effectApplied" : "none"
                                    },
                                    "animationTracks" : {
                                      "visual" : [
                                        {
                                          "endTime" : 270480000,
                                          "duration" : 270480000,
                                          "range" : [ 0, 270480000]
                                        },
                                        {
                                          "endTime" : 552720000,
                                          "duration" : 270480000,
                                          "range" : [ 282240000, 270480000]
                                        }
                                      ]
                                    }
                                  }
                                ],
                                  "ident" : "",
                                  "audioMuted" : false,
                                  "videoHidden" : false,
                                  "magnetic" : false,
                                  "matte" : 1,
                                  "solo" : false,
                                  "metadata" : {
                                    "IsLocked" : "False",
                                    "WinTrackHeight" : "56",
                                    "trackHeight" : "54"
                                  }
                              }
                            ],
                            "attributes" : {
                              "ident" : "Animated-Pulse-1400x20-To-1400x80",
                              "widthAttr" : 1405.0,
                              "heightAttr" : 167.002,
                              "gain" : 1.0,
                              "mixToMono" : false,
                              "assetProperties" : [
                                {
                                  "type" : 1,
                                  "name" : "Color",
                                  "objects" : [ 444 ],
                                  "themeMappings" :  {
                                    "fill" : "accent-1"
                                  }
                                }
                              ]
                            },
                            "effects" : [

                            ],
                            "start" : 0,
                            "duration" : 3528000000,
                            "mediaStart" : 0.0,
                            "mediaDuration" : 3528000000.0,
                            "scalar" : 1,
                            "metadata" : {
                              "AppliedThemeId" : "8e797988-b823-4beb-b251-1d31b461ba07",
                              "clipSpeedAttribute" : false,
                              "effectApplied" : "none",
                              "isOpen" : false,
                              "lockAspectRatio" : true
                            },
                            "animationTracks" : {
                              "visual" : [
                                {
                                  "endTime" : 552720000,
                                  "duration" : 552720000,
                                  "range" : [ 0, 552720000],
                                  "interp" : "eioe"
                                },
                                {
                                  "endTime" : 1775760000,
                                  "duration" : 399840000,
                                  "range" : [ 1375920000, 399840000],
                                  "interp" : "eioe"
                                }
                              ]
                            }
                          }
                        ],
                          "ident" : "",
                          "audioMuted" : false,
                          "videoHidden" : false,
                          "magnetic" : false,
                          "matte" : 0,
                          "solo" : false,
                          "metadata" : {
                            "IsLocked" : "False",
                            "WinTrackHeight" : "56",
                            "trackHeight" : "54"
                          }
                      },
                      {
                        "trackIndex" : 3,
                        "medias" : [
                          {
                            "id" : 446,
                            "_type" : "Group",
                            "parameters" : {
                              "translation0" : {
                                "type" : "double",
                                "defaultValue" : 0.0,
                                "keyframes" : [
                                  {
                                    "endTime" : 552720000,
                                    "time" : 0,
                                    "value" : 0.0,
                                    "interp" : "eioe",
                                    "duration" : 552720000
                                  },
                                  {
                                    "endTime" : 1775760000,
                                    "time" : 1375920000,
                                    "value" : 0.0,
                                    "interp" : "eioe",
                                    "duration" : 399840000
                                  }
                                ]
                              },
                              "translation1" : {
                                "type" : "double",
                                "defaultValue" : -143.610046386719,
                                "keyframes" : [
                                  {
                                    "endTime" : 552720000,
                                    "time" : 0,
                                    "value" : 0.0,
                                    "interp" : "eioe",
                                    "duration" : 552720000
                                  },
                                  {
                                    "endTime" : 1775760000,
                                    "time" : 1375920000,
                                    "value" : -143.610046386719,
                                    "interp" : "eioe",
                                    "duration" : 399840000
                                  }
                                ]
                              },
                              "sourceCrop0" : 0.0,
                              "sourceCrop1" : 0.0,
                              "sourceCrop2" : 0.0,
                              "sourceCrop3" : 0.0,
                              "geometryCrop0" : 0.0,
                              "geometryCrop1" : 0.0,
                              "geometryCrop2" : 0.0,
                              "geometryCrop3" : 0.0,
                              "opacity" : {
                                "type" : "double",
                                "defaultValue" : 1.0,
                                "keyframes" : [
                                  {
                                    "endTime" : 552720000,
                                    "time" : 0,
                                    "value" : 1.0,
                                    "interp" : "eioe",
                                    "duration" : 552720000
                                  }
                                ]
                              },
                              "volume" : 1.0
                            },
                            "tracks" : [
                              {
                                "trackIndex" : 0,
                                "medias" : [
                                  {
                                    "id" : 447,
                                    "_type" : "Callout",
                                    "def" : {
                                      "kind" : "remix",
                                      "shape" : "shape-rectangle",
                                      "style" : "bold",
                                      "fill-color-blue" : 0.913725490196078,
                                      "fill-color-green" : 0.949019607843137,
                                      "fill-color-opacity" : 1.0,
                                      "fill-color-red" : 0.933333333333333,
                                      "hasDropShadow" : 0.0,
                                      "height" : 163.002035140991,
                                      "savedXScale" : 1.0,
                                      "savedYScale" : 1.0,
                                      "stroke-color-blue" : 1.0,
                                      "stroke-color-green" : 1.0,
                                      "stroke-color-opacity" : 1.0,
                                      "stroke-color-red" : 1.0,
                                      "stroke-width" : 0.0,
                                      "width" : 1403.00212860107,
                                      "custom" : "Y",
                                      "fill-style" : "solid",
                                      "stroke-style" : "solid"
                                    },
                                    "attributes" : {
                                      "ident" : "",
                                      "autoRotateText" : true
                                    },
                                    "parameters" : {
                                      "anchor0" : -1.0,
                                      "anchor1" : 2.0,
                                      "sourceCrop0" : 0.0,
                                      "sourceCrop1" : 0.0,
                                      "sourceCrop2" : 0.0,
                                      "sourceCrop3" : 0.0,
                                      "geometryCrop0" : 0.0,
                                      "geometryCrop1" : 0.0,
                                      "geometryCrop2" : 0.0,
                                      "geometryCrop3" : 0.0
                                    },
                                    "effects" : [

                                    ],
                                    "start" : 0,
                                    "duration" : 3528000000,
                                    "mediaStart" : 0,
                                    "mediaDuration" : 3528000000,
                                    "scalar" : 1,
                                    "metadata" : {
                                      "AppliedThemeId" : "",
                                      "clipSpeedAttribute" : false,
                                      "effectApplied" : "none",
                                      "lockAspectRatio" : false
                                    },
                                    "animationTracks" : {

                                    }
                                  }
                                ],
                                  "ident" : "",
                                  "audioMuted" : false,
                                  "videoHidden" : false,
                                  "magnetic" : false,
                                  "matte" : 0,
                                  "solo" : false,
                                  "metadata" : {
                                    "IsLocked" : "False",
                                    "WinTrackHeight" : "56",
                                    "trackHeight" : "54"
                                  }
                              },
                              {
                                "trackIndex" : 1,
                                "medias" : [
                                  {
                                    "id" : 448,
                                    "_type" : "Callout",
                                    "def" : {
                                      "kind" : "remix",
                                      "shape" : "shape-rectangle",
                                      "style" : "bold",
                                      "fill-color-blue" : 0.756862759590149,
                                      "fill-color-green" : 0.18823529779911,
                                      "fill-color-opacity" : 1.0,
                                      "fill-color-red" : 0.960784316062927,
                                      "hasDropShadow" : 0.0,
                                      "height" : 160.0,
                                      "savedXScale" : 1.0,
                                      "savedYScale" : 1.0,
                                      "stroke-color-blue" : 0.886274516582489,
                                      "stroke-color-green" : 0.200000002980232,
                                      "stroke-color-opacity" : 0.0,
                                      "stroke-color-red" : 0.376470595598221,
                                      "stroke-width" : 0.0,
                                      "width" : 1400.0,
                                      "custom" : "Y",
                                      "fill-style" : "solid",
                                      "stroke-style" : "solid"
                                    },
                                    "attributes" : {
                                      "ident" : "",
                                      "autoRotateText" : true
                                    },
                                    "parameters" : {
                                      "sourceCrop0" : 0.0,
                                      "sourceCrop1" : 0.0,
                                      "sourceCrop2" : 0.0,
                                      "sourceCrop3" : 0.0,
                                      "geometryCrop0" : 0.0,
                                      "geometryCrop1" : 0.0,
                                      "geometryCrop2" : 0.0,
                                      "geometryCrop3" : 0.0
                                    },
                                    "effects" : [

                                    ],
                                    "start" : 0,
                                    "duration" : 3528000000,
                                    "mediaStart" : 0,
                                    "mediaDuration" : 3528000000,
                                    "scalar" : 1,
                                    "metadata" : {
                                      "AppliedThemeId" : "",
                                      "clipSpeedAttribute" : false,
                                      "effectApplied" : "none"
                                    },
                                    "animationTracks" : {

                                    }
                                  }
                                ],
                                  "ident" : "",
                                  "audioMuted" : false,
                                  "videoHidden" : false,
                                  "magnetic" : false,
                                  "matte" : 1,
                                  "solo" : false,
                                  "metadata" : {
                                    "IsLocked" : "False",
                                    "WinTrackHeight" : "56",
                                    "trackHeight" : "54"
                                  }
                              }
                            ],
                            "attributes" : {
                              "ident" : "Rect-1400x1600-Mask",
                              "widthAttr" : 1405.0,
                              "heightAttr" : 167.002,
                              "gain" : 1.0,
                              "mixToMono" : false
                            },
                            "effects" : [

                            ],
                            "start" : 0,
                            "duration" : 3528000000,
                            "mediaStart" : 0.0,
                            "mediaDuration" : 3528000000.0,
                            "scalar" : 1,
                            "metadata" : {
                              "clipSpeedAttribute" : false,
                              "effectApplied" : "none",
                              "isOpen" : false,
                              "lockAspectRatio" : true
                            },
                            "animationTracks" : {
                              "visual" : [
                                {
                                  "endTime" : 552720000,
                                  "duration" : 552720000,
                                  "range" : [ 0, 552720000],
                                  "interp" : "eioe"
                                },
                                {
                                  "endTime" : 1775760000,
                                  "duration" : 399840000,
                                  "range" : [ 1375920000, 399840000],
                                  "interp" : "eioe"
                                }
                              ]
                            }
                          }
                        ],
                          "ident" : "",
                          "audioMuted" : false,
                          "videoHidden" : false,
                          "magnetic" : false,
                          "matte" : 1,
                          "solo" : false,
                          "metadata" : {
                            "IsLocked" : "False",
                            "WinTrackHeight" : "56",
                            "trackHeight" : "54"
                          }
                      }
                    ],
                    "attributes" : {
                      "ident" : "Broadcast-Title-012",
                      "widthAttr" : 1405.0,
                      "heightAttr" : 160.0,
                      "gain" : 1.0,
                      "mixToMono" : false,
                      "assetProperties" : [
                        {
                          "type" : 0,
                          "name" : "Title",
                          "objects" : [ 439 ],
                          "themeMappings" :  {
                            "font-color" : "foreground-1"
                          }
                        },
                        {
                          "type" : 1,
                          "name" : "Fill",
                          "objects" : [ 437 ],
                          "themeMappings" :  {
                            "fill" : "background-1"
                          }
                        },
                        {
                          "type" : 1,
                          "name" : "Wiper",
                          "objects" : [ 444 ],
                          "themeMappings" :  {
                            "fill" : "foreground-1"
                          }
                        }
                      ]
                    },
                    "effects" : [

                    ],
                    "start" : 1928640000,
                    "duration" : 1764000000,
                    "mediaStart" : 0.0,
                    "mediaDuration" : 1764000000.0,
                    "scalar" : 1,
                    "metadata" : {
                      "AppliedThemeId" : "170ba59c-db5d-4b9a-a310-e7e99853a4b7",
                      "clipSpeedAttribute" : false,
                      "default-anchor0" : 0.0,
                      "default-anchor1" : 0.0,
                      "default-anchor2" : 0.0,
                      "default-geometryCrop0" : 0.0,
                      "default-height" : 160.0,
                      "default-rotation0" : 0.0,
                      "default-rotation1" : 0.0,
                      "default-rotation2" : 0.0,
                      "default-scale0" : 1.0,
                      "default-scale1" : 1.0,
                      "default-scale2" : 1.0,
                      "default-shear0" : 0.0,
                      "default-shear1" : 0.0,
                      "default-shear2" : 0.0,
                      "default-translation0" : 0.0,
                      "default-translation1" : 0.0,
                      "default-translation2" : 0.0,
                      "default-width" : 1405.0,
                      "effectApplied" : "none",
                      "isOpen" : false,
                      "lockAspectRatio" : true
                    },
                    "animationTracks" : {

                    }
                  }
                ]
              },
              {
                "trackIndex" : 116,
                "medias" : [
                  {
                    "id" : 449,
                    "_type" : "Group",
                    "parameters" : {
                      "translation0" : -415.0,
                      "translation1" : 53.65625,
                      "scale0" : 0.213523131672598,
                      "scale1" : 0.21875,
                      "sourceCrop0" : 0.0,
                      "sourceCrop1" : 0.0,
                      "sourceCrop2" : 0.0,
                      "sourceCrop3" : 0.0,
                      "geometryCrop0" : 0.0,
                      "geometryCrop1" : 0.0,
                      "geometryCrop2" : 0.0,
                      "geometryCrop3" : 0.0,
                      "volume" : 1.0
                    },
                    "tracks" : [
                      {
                        "trackIndex" : 0,
                        "medias" : [
                          {
                            "id" : 450,
                            "_type" : "Group",
                            "parameters" : {
                              "translation0" : {
                                "type" : "double",
                                "defaultValue" : 0.0,
                                "keyframes" : [
                                  {
                                    "endTime" : 552720000,
                                    "time" : 0,
                                    "value" : 0.0,
                                    "interp" : "eioe",
                                    "duration" : 552720000
                                  },
                                  {
                                    "endTime" : 1775760000,
                                    "time" : 1375920000,
                                    "value" : 0.0,
                                    "interp" : "eioe",
                                    "duration" : 399840000
                                  }
                                ]
                              },
                              "translation1" : {
                                "type" : "double",
                                "defaultValue" : -305.610046386719,
                                "keyframes" : [
                                  {
                                    "endTime" : 552720000,
                                    "time" : 0,
                                    "value" : 0.0,
                                    "interp" : "eioe",
                                    "duration" : 552720000
                                  },
                                  {
                                    "endTime" : 1775760000,
                                    "time" : 1375920000,
                                    "value" : -304.610046386719,
                                    "interp" : "eioe",
                                    "duration" : 399840000
                                  }
                                ]
                              },
                              "sourceCrop0" : 0.0,
                              "sourceCrop1" : 0.0,
                              "sourceCrop2" : 0.0,
                              "sourceCrop3" : 0.0,
                              "geometryCrop0" : 0.0,
                              "geometryCrop1" : 0.0,
                              "geometryCrop2" : 0.0,
                              "geometryCrop3" : 0.0,
                              "volume" : 1.0
                            },
                            "tracks" : [
                              {
                                "trackIndex" : 0,
                                "medias" : [
                                  {
                                    "id" : 451,
                                    "_type" : "Group",
                                    "parameters" : {
                                      "sourceCrop0" : 0.0,
                                      "sourceCrop1" : 0.0,
                                      "sourceCrop2" : 0.0,
                                      "sourceCrop3" : 0.0,
                                      "geometryCrop0" : 0.0,
                                      "geometryCrop1" : 0.0,
                                      "geometryCrop2" : 0.0,
                                      "geometryCrop3" : 0.0,
                                      "volume" : 1.0
                                    },
                                    "tracks" : [
                                      {
                                        "trackIndex" : 0,
                                        "medias" : [
                                          {
                                            "id" : 452,
                                            "_type" : "Callout",
                                            "def" : {
                                              "kind" : "remix",
                                              "shape" : "shape-rectangle",
                                              "style" : "bold",
                                              "fill-color-blue" : 1.0,
                                              "fill-color-green" : 1.0,
                                              "fill-color-opacity" : 1.0,
                                              "fill-color-red" : 1.0,
                                              "hasDropShadow" : 0.0,
                                              "height" : 163.002035140991,
                                              "savedXScale" : 1.0,
                                              "savedYScale" : 1.0,
                                              "stroke-color-blue" : 1.0,
                                              "stroke-color-green" : 1.0,
                                              "stroke-color-opacity" : 1.0,
                                              "stroke-color-red" : 1.0,
                                              "stroke-width" : 0.0,
                                              "width" : 1403.00212860107,
                                              "custom" : "Y",
                                              "fill-style" : "solid",
                                              "stroke-style" : "solid"
                                            },
                                            "attributes" : {
                                              "ident" : "",
                                              "autoRotateText" : true
                                            },
                                            "parameters" : {
                                              "anchor0" : -1.0,
                                              "anchor1" : 2.0,
                                              "sourceCrop0" : 0.0,
                                              "sourceCrop1" : 0.0,
                                              "sourceCrop2" : 0.0,
                                              "sourceCrop3" : 0.0,
                                              "geometryCrop0" : 0.0,
                                              "geometryCrop1" : 0.0,
                                              "geometryCrop2" : 0.0,
                                              "geometryCrop3" : 0.0
                                            },
                                            "effects" : [

                                            ],
                                            "start" : 0,
                                            "duration" : 3528000000,
                                            "mediaStart" : 0,
                                            "mediaDuration" : 3528000000,
                                            "scalar" : 1,
                                            "metadata" : {
                                              "AppliedThemeId" : "",
                                              "clipSpeedAttribute" : false,
                                              "effectApplied" : "none",
                                              "lockAspectRatio" : false
                                            },
                                            "animationTracks" : {

                                            }
                                          }
                                        ],
                                          "ident" : "",
                                          "audioMuted" : false,
                                          "videoHidden" : false,
                                          "magnetic" : false,
                                          "matte" : 0,
                                          "solo" : false,
                                          "metadata" : {
                                            "IsLocked" : "False",
                                            "WinTrackHeight" : "56",
                                            "trackHeight" : "54"
                                          }
                                      },
                                      {
                                        "trackIndex" : 1,
                                        "medias" : [
                                          {
                                            "id" : 453,
                                            "_type" : "Callout",
                                            "def" : {
                                              "kind" : "remix",
                                              "shape" : "shape-rectangle",
                                              "style" : "bold",
                                              "fill-color-blue" : 0.756862759590149,
                                              "fill-color-green" : 0.18823529779911,
                                              "fill-color-opacity" : 1.0,
                                              "fill-color-red" : 0.960784316062927,
                                              "hasDropShadow" : 0.0,
                                              "height" : 160.0,
                                              "savedXScale" : 1.0,
                                              "savedYScale" : 1.0,
                                              "stroke-color-blue" : 0.886274516582489,
                                              "stroke-color-green" : 0.200000002980232,
                                              "stroke-color-opacity" : 0.0,
                                              "stroke-color-red" : 0.376470595598221,
                                              "stroke-width" : 0.0,
                                              "width" : 1400.0,
                                              "custom" : "Y",
                                              "fill-style" : "solid",
                                              "stroke-style" : "solid"
                                            },
                                            "attributes" : {
                                              "ident" : "",
                                              "autoRotateText" : true
                                            },
                                            "parameters" : {
                                              "sourceCrop0" : 0.0,
                                              "sourceCrop1" : 0.0,
                                              "sourceCrop2" : 0.0,
                                              "sourceCrop3" : 0.0,
                                              "geometryCrop0" : 0.0,
                                              "geometryCrop1" : 0.0,
                                              "geometryCrop2" : 0.0,
                                              "geometryCrop3" : 0.0
                                            },
                                            "effects" : [

                                            ],
                                            "start" : 0,
                                            "duration" : 3528000000,
                                            "mediaStart" : 0,
                                            "mediaDuration" : 3528000000,
                                            "scalar" : 1,
                                            "metadata" : {
                                              "AppliedThemeId" : "",
                                              "clipSpeedAttribute" : false,
                                              "effectApplied" : "none"
                                            },
                                            "animationTracks" : {

                                            }
                                          }
                                        ],
                                          "ident" : "",
                                          "audioMuted" : false,
                                          "videoHidden" : false,
                                          "magnetic" : false,
                                          "matte" : 1,
                                          "solo" : false,
                                          "metadata" : {
                                            "IsLocked" : "False",
                                            "WinTrackHeight" : "56",
                                            "trackHeight" : "54"
                                          }
                                      }
                                    ],
                                    "attributes" : {
                                      "ident" : "Fill-1400x160",
                                      "widthAttr" : 1405.0,
                                      "heightAttr" : 167.002,
                                      "gain" : 1.0,
                                      "mixToMono" : false
                                    },
                                    "effects" : [

                                    ],
                                    "start" : 0,
                                    "duration" : 3528000000,
                                    "mediaStart" : 0.0,
                                    "mediaDuration" : 3528000000.0,
                                    "scalar" : 1,
                                    "metadata" : {
                                      "clipSpeedAttribute" : false,
                                      "effectApplied" : "none",
                                      "isOpen" : false,
                                      "lockAspectRatio" : true
                                    },
                                    "animationTracks" : {

                                    }
                                  }
                                ],
                                  "ident" : "",
                                  "audioMuted" : false,
                                  "videoHidden" : false,
                                  "magnetic" : false,
                                  "matte" : 0,
                                  "solo" : false,
                                  "metadata" : {
                                    "IsLocked" : "False",
                                    "WinTrackHeight" : "56",
                                    "trackHeight" : "54"
                                  }
                              },
                              {
                                "trackIndex" : 1,
                                "medias" : [
                                  {
                                    "id" : 454,
                                    "_type" : "Callout",
                                    "def" : {
                                      "kind" : "remix",
                                      "shape" : "text",
                                      "style" : "urban",
                                      "enable-ligatures" : 1.0,
                                      "hasDropShadow" : 0.0,
                                      "height" : 170.0,
                                      "line-spacing" : 0.0,
                                      "savedXScale" : 1.0,
                                      "savedYScale" : 1.0,
                                      "width" : 1400.0,
                                      "word-wrap" : 1.0,
                                      "custom" : "Y",
                                      "horizontal-alignment" : "left",
                                      "resize-behavior" : "resizeText",
                                      "text" : "align left (H) + center (V)",
                                      "vertical-alignment" : "center",
                                      "font" : {
                                        "color-blue" : 1.0,
                                        "color-green" : 1.0,
                                        "color-red" : 1.0,
                                        "size" : 96.0,
                                        "tracking" : 0.0,
                                        "name" : "Dosis",
                                        "weight" : "Semi Bold"
                                      },
                                      "textAttributes" : {
                                        "type" : "textAttributeList",
                                        "keyframes" : [
                                          {
                                            "endTime" : 0,
                                            "time" : 0,
                                            "value" : [{"name":"underline","rangeEnd":27,"rangeStart":0,"value":0,"valueType":"int"},{"name":"strikethrough","rangeEnd":27,"rangeStart":0,"value":0,"valueType":"int"},{"name":"fontName","rangeEnd":27,"rangeStart":0,"value":"Roboto","valueType":"string"},{"name":"kerning","rangeEnd":27,"rangeStart":0,"value":0.049883078231292483,"valueType":"double"},{"name":"fontItalic","rangeEnd":27,"rangeStart":0,"value":0,"valueType":"int"},{"name":"fontWeight","rangeEnd":27,"rangeStart":0,"value":700,"valueType":"int"},{"name":"fontSize","rangeEnd":27,"rangeStart":0,"value":86,"valueType":"double"},{"name":"fgColor","rangeEnd":27,"rangeStart":0,"value":"(110,110,110,255)","valueType":"color"}],
                                            "duration" : 0
                                          }
                                        ]
                                      }
                                    },
                                    "attributes" : {
                                      "ident" : "",
                                      "autoRotateText" : true
                                    },
                                    "parameters" : {
                                      "translation1" : -2.0,
                                      "sourceCrop0" : 0.0,
                                      "sourceCrop1" : 0.0,
                                      "sourceCrop2" : 0.0,
                                      "sourceCrop3" : 0.0,
                                      "geometryCrop0" : 0.0,
                                      "geometryCrop1" : 0.0,
                                      "geometryCrop2" : 0.0,
                                      "geometryCrop3" : 0.0
                                    },
                                    "effects" : [

                                    ],
                                    "start" : 0,
                                    "duration" : 3528000000,
                                    "mediaStart" : 0,
                                    "mediaDuration" : 3528000000,
                                    "scalar" : 1,
                                    "metadata" : {
                                      "AppliedThemeId" : "",
                                      "clipSpeedAttribute" : false,
                                      "effectApplied" : "none",
                                      "lockAspectRatio" : false
                                    },
                                    "animationTracks" : {

                                    }
                                  }
                                ],
                                  "ident" : "",
                                  "audioMuted" : false,
                                  "videoHidden" : false,
                                  "magnetic" : false,
                                  "matte" : 0,
                                  "solo" : false,
                                  "metadata" : {
                                    "IsLocked" : "False",
                                    "WinTrackHeight" : "56",
                                    "trackHeight" : "54"
                                  }
                              }
                            ],
                            "attributes" : {
                              "ident" : "BP-Title-11",
                              "widthAttr" : 1405.0,
                              "heightAttr" : 167.002,
                              "gain" : 1.0,
                              "mixToMono" : false,
                              "assetProperties" : [
                                {
                                  "type" : 0,
                                  "name" : "Title",
                                  "objects" : [ 454 ],
                                  "themeMappings" :  {
                                    "font-color" : "foreground-1"
                                  }
                                },
                                {
                                  "type" : 1,
                                  "name" : "Fill",
                                  "objects" : [ 452 ],
                                  "themeMappings" :  {
                                    "fill" : "background-1"
                                  }
                                }
                              ]
                            },
                            "effects" : [

                            ],
                            "start" : 0,
                            "duration" : 3528000000,
                            "mediaStart" : 0.0,
                            "mediaDuration" : 3528000000.0,
                            "scalar" : 1,
                            "metadata" : {
                              "clipSpeedAttribute" : false,
                              "effectApplied" : "none",
                              "isOpen" : false,
                              "lockAspectRatio" : true
                            },
                            "animationTracks" : {
                              "visual" : [
                                {
                                  "endTime" : 552720000,
                                  "duration" : 552720000,
                                  "range" : [ 0, 552720000],
                                  "interp" : "eioe"
                                },
                                {
                                  "endTime" : 1775760000,
                                  "duration" : 399840000,
                                  "range" : [ 1375920000, 399840000],
                                  "interp" : "eioe"
                                }
                              ]
                            }
                          }
                        ],
                          "ident" : "",
                          "audioMuted" : false,
                          "videoHidden" : false,
                          "magnetic" : false,
                          "matte" : 0,
                          "solo" : false,
                          "metadata" : {
                            "IsLocked" : "False",
                            "WinTrackHeight" : "56",
                            "trackHeight" : "54"
                          }
                      },
                      {
                        "trackIndex" : 1,
                        "medias" : [
                          {
                            "id" : 455,
                            "_type" : "Group",
                            "parameters" : {
                              "translation0" : {
                                "type" : "double",
                                "defaultValue" : 0.0,
                                "keyframes" : [
                                  {
                                    "endTime" : 552720000,
                                    "time" : 0,
                                    "value" : 0.0,
                                    "interp" : "eioe",
                                    "duration" : 552720000
                                  },
                                  {
                                    "endTime" : 1775760000,
                                    "time" : 1375920000,
                                    "value" : 0.0,
                                    "interp" : "eioe",
                                    "duration" : 399840000
                                  }
                                ]
                              },
                              "translation1" : {
                                "type" : "double",
                                "defaultValue" : -144.610046386719,
                                "keyframes" : [
                                  {
                                    "endTime" : 552720000,
                                    "time" : 0,
                                    "value" : 0.0,
                                    "interp" : "eioe",
                                    "duration" : 552720000
                                  },
                                  {
                                    "endTime" : 1775760000,
                                    "time" : 1375920000,
                                    "value" : -144.610046386719,
                                    "interp" : "eioe",
                                    "duration" : 399840000
                                  }
                                ]
                              },
                              "sourceCrop0" : 0.0,
                              "sourceCrop1" : 0.0,
                              "sourceCrop2" : 0.0,
                              "sourceCrop3" : 0.0,
                              "geometryCrop0" : 0.0,
                              "geometryCrop1" : 0.0,
                              "geometryCrop2" : 0.0,
                              "geometryCrop3" : 0.0,
                              "opacity" : {
                                "type" : "double",
                                "defaultValue" : 1.0,
                                "keyframes" : [
                                  {
                                    "endTime" : 552720000,
                                    "time" : 0,
                                    "value" : 1.0,
                                    "interp" : "eioe",
                                    "duration" : 552720000
                                  }
                                ]
                              },
                              "volume" : 1.0
                            },
                            "tracks" : [
                              {
                                "trackIndex" : 0,
                                "medias" : [
                                  {
                                    "id" : 456,
                                    "_type" : "Callout",
                                    "def" : {
                                      "kind" : "remix",
                                      "shape" : "shape-rectangle",
                                      "style" : "bold",
                                      "fill-color-blue" : 0.913725490196078,
                                      "fill-color-green" : 0.949019607843137,
                                      "fill-color-opacity" : 1.0,
                                      "fill-color-red" : 0.933333333333333,
                                      "hasDropShadow" : 0.0,
                                      "height" : 163.002035140991,
                                      "savedXScale" : 1.0,
                                      "savedYScale" : 1.0,
                                      "stroke-color-blue" : 1.0,
                                      "stroke-color-green" : 1.0,
                                      "stroke-color-opacity" : 1.0,
                                      "stroke-color-red" : 1.0,
                                      "stroke-width" : 0.0,
                                      "width" : 1403.00212860107,
                                      "custom" : "Y",
                                      "fill-style" : "solid",
                                      "stroke-style" : "solid"
                                    },
                                    "attributes" : {
                                      "ident" : "",
                                      "autoRotateText" : true
                                    },
                                    "parameters" : {
                                      "anchor0" : -1.0,
                                      "anchor1" : 2.0,
                                      "sourceCrop0" : 0.0,
                                      "sourceCrop1" : 0.0,
                                      "sourceCrop2" : 0.0,
                                      "sourceCrop3" : 0.0,
                                      "geometryCrop0" : 0.0,
                                      "geometryCrop1" : 0.0,
                                      "geometryCrop2" : 0.0,
                                      "geometryCrop3" : 0.0
                                    },
                                    "effects" : [

                                    ],
                                    "start" : 0,
                                    "duration" : 3528000000,
                                    "mediaStart" : 0,
                                    "mediaDuration" : 3528000000,
                                    "scalar" : 1,
                                    "metadata" : {
                                      "AppliedThemeId" : "",
                                      "clipSpeedAttribute" : false,
                                      "effectApplied" : "none",
                                      "lockAspectRatio" : false
                                    },
                                    "animationTracks" : {

                                    }
                                  }
                                ],
                                  "ident" : "",
                                  "audioMuted" : false,
                                  "videoHidden" : false,
                                  "magnetic" : false,
                                  "matte" : 0,
                                  "solo" : false,
                                  "metadata" : {
                                    "IsLocked" : "False",
                                    "WinTrackHeight" : "56",
                                    "trackHeight" : "54"
                                  }
                              },
                              {
                                "trackIndex" : 1,
                                "medias" : [
                                  {
                                    "id" : 457,
                                    "_type" : "Callout",
                                    "def" : {
                                      "kind" : "remix",
                                      "shape" : "shape-rectangle",
                                      "style" : "bold",
                                      "fill-color-blue" : 0.756862759590149,
                                      "fill-color-green" : 0.18823529779911,
                                      "fill-color-opacity" : 1.0,
                                      "fill-color-red" : 0.960784316062927,
                                      "hasDropShadow" : 0.0,
                                      "height" : 160.0,
                                      "savedXScale" : 1.0,
                                      "savedYScale" : 1.0,
                                      "stroke-color-blue" : 0.886274516582489,
                                      "stroke-color-green" : 0.200000002980232,
                                      "stroke-color-opacity" : 0.0,
                                      "stroke-color-red" : 0.376470595598221,
                                      "stroke-width" : 0.0,
                                      "width" : 1400.0,
                                      "custom" : "Y",
                                      "fill-style" : "solid",
                                      "stroke-style" : "solid"
                                    },
                                    "attributes" : {
                                      "ident" : "",
                                      "autoRotateText" : true
                                    },
                                    "parameters" : {
                                      "sourceCrop0" : 0.0,
                                      "sourceCrop1" : 0.0,
                                      "sourceCrop2" : 0.0,
                                      "sourceCrop3" : 0.0,
                                      "geometryCrop0" : 0.0,
                                      "geometryCrop1" : 0.0,
                                      "geometryCrop2" : 0.0,
                                      "geometryCrop3" : 0.0
                                    },
                                    "effects" : [

                                    ],
                                    "start" : 0,
                                    "duration" : 3528000000,
                                    "mediaStart" : 0,
                                    "mediaDuration" : 3528000000,
                                    "scalar" : 1,
                                    "metadata" : {
                                      "AppliedThemeId" : "",
                                      "clipSpeedAttribute" : false,
                                      "effectApplied" : "none"
                                    },
                                    "animationTracks" : {

                                    }
                                  }
                                ],
                                  "ident" : "",
                                  "audioMuted" : false,
                                  "videoHidden" : false,
                                  "magnetic" : false,
                                  "matte" : 1,
                                  "solo" : false,
                                  "metadata" : {
                                    "IsLocked" : "False",
                                    "WinTrackHeight" : "56",
                                    "trackHeight" : "54"
                                  }
                              }
                            ],
                            "attributes" : {
                              "ident" : "Rect-1400x1600-Mask",
                              "widthAttr" : 1405.0,
                              "heightAttr" : 167.002,
                              "gain" : 1.0,
                              "mixToMono" : false
                            },
                            "effects" : [

                            ],
                            "start" : 0,
                            "duration" : 3528000000,
                            "mediaStart" : 0.0,
                            "mediaDuration" : 3528000000.0,
                            "scalar" : 1,
                            "metadata" : {
                              "clipSpeedAttribute" : false,
                              "effectApplied" : "none",
                              "isOpen" : false,
                              "lockAspectRatio" : true
                            },
                            "animationTracks" : {
                              "visual" : [
                                {
                                  "endTime" : 552720000,
                                  "duration" : 552720000,
                                  "range" : [ 0, 552720000],
                                  "interp" : "eioe"
                                },
                                {
                                  "endTime" : 1775760000,
                                  "duration" : 399840000,
                                  "range" : [ 1375920000, 399840000],
                                  "interp" : "eioe"
                                }
                              ]
                            }
                          }
                        ],
                          "ident" : "",
                          "audioMuted" : false,
                          "videoHidden" : false,
                          "magnetic" : false,
                          "matte" : 1,
                          "solo" : false,
                          "metadata" : {
                            "IsLocked" : "False",
                            "WinTrackHeight" : "56",
                            "trackHeight" : "54"
                          }
                      },
                      {
                        "trackIndex" : 2,
                        "medias" : [
                          {
                            "id" : 458,
                            "_type" : "Group",
                            "parameters" : {
                              "translation0" : {
                                "type" : "double",
                                "defaultValue" : 0.0,
                                "keyframes" : [
                                  {
                                    "endTime" : 552720000,
                                    "time" : 0,
                                    "value" : 0.0,
                                    "interp" : "eioe",
                                    "duration" : 552720000
                                  },
                                  {
                                    "endTime" : 1775760000,
                                    "time" : 1375920000,
                                    "value" : 0.0,
                                    "interp" : "eioe",
                                    "duration" : 399840000
                                  }
                                ]
                              },
                              "translation1" : {
                                "type" : "double",
                                "defaultValue" : -233.610046386719,
                                "keyframes" : [
                                  {
                                    "endTime" : 552720000,
                                    "time" : 0,
                                    "value" : 90.0,
                                    "interp" : "eioe",
                                    "duration" : 552720000
                                  },
                                  {
                                    "endTime" : 1775760000,
                                    "time" : 1375920000,
                                    "value" : -233.610046386719,
                                    "interp" : "eioe",
                                    "duration" : 399840000
                                  }
                                ]
                              },
                              "sourceCrop0" : 0.0,
                              "sourceCrop1" : 0.0,
                              "sourceCrop2" : 0.0,
                              "sourceCrop3" : 0.0,
                              "geometryCrop0" : 0.0,
                              "geometryCrop1" : 0.0,
                              "geometryCrop2" : 0.0,
                              "geometryCrop3" : 0.0,
                              "opacity" : {
                                "type" : "double",
                                "defaultValue" : 1.0,
                                "keyframes" : [
                                  {
                                    "endTime" : 552720000,
                                    "time" : 0,
                                    "value" : 1.0,
                                    "interp" : "eioe",
                                    "duration" : 552720000
                                  }
                                ]
                              },
                              "volume" : 1.0
                            },
                            "tracks" : [
                              {
                                "trackIndex" : 0,
                                "medias" : [
                                  {
                                    "id" : 459,
                                    "_type" : "Callout",
                                    "def" : {
                                      "kind" : "remix",
                                      "shape" : "shape-rectangle",
                                      "style" : "bold",
                                      "fill-color-blue" : 0.2196078431,
                                      "fill-color-green" : 0.8745098039,
                                      "fill-color-opacity" : 1.0,
                                      "fill-color-red" : 1.0,
                                      "hasDropShadow" : 0.0,
                                      "height" : 163.002035140991,
                                      "savedXScale" : 1.0,
                                      "savedYScale" : 1.0,
                                      "stroke-color-blue" : 1.0,
                                      "stroke-color-green" : 1.0,
                                      "stroke-color-opacity" : 1.0,
                                      "stroke-color-red" : 1.0,
                                      "stroke-width" : 0.0,
                                      "width" : 1403.00212860107,
                                      "custom" : "Y",
                                      "fill-style" : "solid",
                                      "stroke-style" : "solid"
                                    },
                                    "attributes" : {
                                      "ident" : "",
                                      "autoRotateText" : true
                                    },
                                    "parameters" : {
                                      "anchor0" : -1.0,
                                      "anchor1" : 2.0,
                                      "sourceCrop0" : 0.0,
                                      "sourceCrop1" : 0.0,
                                      "sourceCrop2" : 0.0,
                                      "sourceCrop3" : 0.0,
                                      "geometryCrop0" : 0.0,
                                      "geometryCrop1" : 0.0,
                                      "geometryCrop2" : 0.0,
                                      "geometryCrop3" : 0.0
                                    },
                                    "effects" : [

                                    ],
                                    "start" : 0,
                                    "duration" : 3528000000,
                                    "mediaStart" : 0,
                                    "mediaDuration" : 3528000000,
                                    "scalar" : 1,
                                    "metadata" : {
                                      "AppliedThemeId" : "",
                                      "clipSpeedAttribute" : false,
                                      "effectApplied" : "none",
                                      "lockAspectRatio" : false
                                    },
                                    "animationTracks" : {

                                    }
                                  }
                                ],
                                  "ident" : "",
                                  "audioMuted" : false,
                                  "videoHidden" : false,
                                  "magnetic" : false,
                                  "matte" : 0,
                                  "solo" : false,
                                  "metadata" : {
                                    "IsLocked" : "False",
                                    "WinTrackHeight" : "56",
                                    "trackHeight" : "54"
                                  }
                              },
                              {
                                "trackIndex" : 1,
                                "medias" : [
                                  {
                                    "id" : 460,
                                    "_type" : "Callout",
                                    "def" : {
                                      "kind" : "remix",
                                      "shape" : "shape-rectangle",
                                      "style" : "bold",
                                      "fill-color-blue" : 0.756862759590149,
                                      "fill-color-green" : 0.18823529779911,
                                      "fill-color-opacity" : 1.0,
                                      "fill-color-red" : 0.960784316062927,
                                      "hasDropShadow" : 0.0,
                                      "height" : 160.0,
                                      "savedXScale" : 1.0,
                                      "savedYScale" : 1.0,
                                      "stroke-color-blue" : 0.886274516582489,
                                      "stroke-color-green" : 0.200000002980232,
                                      "stroke-color-opacity" : 0.0,
                                      "stroke-color-red" : 0.376470595598221,
                                      "stroke-width" : 0.0,
                                      "width" : 1400.0,
                                      "custom" : "Y",
                                      "fill-style" : "solid",
                                      "stroke-style" : "solid"
                                    },
                                    "attributes" : {
                                      "ident" : "",
                                      "autoRotateText" : true
                                    },
                                    "parameters" : {
                                      "translation1" : {
                                        "type" : "double",
                                        "defaultValue" : -1.0,
                                        "keyframes" : [
                                          {
                                            "endTime" : 270480000,
                                            "time" : 0,
                                            "value" : 0.0,
                                            "duration" : 270480000
                                          }
                                        ]
                                      },
                                      "scale0" : {
                                        "type" : "double",
                                        "defaultValue" : 1.0,
                                        "keyframes" : [
                                          {
                                            "endTime" : 270480000,
                                            "time" : 0,
                                            "value" : 1.0,
                                            "duration" : 270480000
                                          }
                                        ]
                                      },
                                      "scale1" : {
                                        "type" : "double",
                                        "defaultValue" : 0.125,
                                        "keyframes" : [
                                          {
                                            "endTime" : 270480000,
                                            "time" : 0,
                                            "value" : 0.5,
                                            "duration" : 270480000
                                          },
                                          {
                                            "endTime" : 552720000,
                                            "time" : 282240000,
                                            "value" : 0.125,
                                            "duration" : 270480000
                                          }
                                        ]
                                      },
                                      "sourceCrop0" : 0.0,
                                      "sourceCrop1" : 0.0,
                                      "sourceCrop2" : 0.0,
                                      "sourceCrop3" : 0.0,
                                      "geometryCrop0" : 0.0,
                                      "geometryCrop1" : 0.0,
                                      "geometryCrop2" : 0.0,
                                      "geometryCrop3" : 0.0
                                    },
                                    "effects" : [

                                    ],
                                    "start" : 0,
                                    "duration" : 3528000000,
                                    "mediaStart" : 0,
                                    "mediaDuration" : 3528000000,
                                    "scalar" : 1,
                                    "metadata" : {
                                      "AppliedThemeId" : "",
                                      "clipSpeedAttribute" : false,
                                      "effectApplied" : "none"
                                    },
                                    "animationTracks" : {
                                      "visual" : [
                                        {
                                          "endTime" : 270480000,
                                          "duration" : 270480000,
                                          "range" : [ 0, 270480000]
                                        },
                                        {
                                          "endTime" : 552720000,
                                          "duration" : 270480000,
                                          "range" : [ 282240000, 270480000]
                                        }
                                      ]
                                    }
                                  }
                                ],
                                  "ident" : "",
                                  "audioMuted" : false,
                                  "videoHidden" : false,
                                  "magnetic" : false,
                                  "matte" : 1,
                                  "solo" : false,
                                  "metadata" : {
                                    "IsLocked" : "False",
                                    "WinTrackHeight" : "56",
                                    "trackHeight" : "54"
                                  }
                              }
                            ],
                            "attributes" : {
                              "ident" : "Animated-Pulse-1400x20-To-1400x80",
                              "widthAttr" : 1405.0,
                              "heightAttr" : 167.002,
                              "gain" : 1.0,
                              "mixToMono" : false,
                              "assetProperties" : [
                                {
                                  "type" : 1,
                                  "name" : "Color",
                                  "objects" : [ 459 ],
                                  "themeMappings" :  {
                                    "fill" : "accent-1"
                                  }
                                }
                              ]
                            },
                            "effects" : [

                            ],
                            "start" : 0,
                            "duration" : 3528000000,
                            "mediaStart" : 0.0,
                            "mediaDuration" : 3528000000.0,
                            "scalar" : 1,
                            "metadata" : {
                              "AppliedThemeId" : "8e797988-b823-4beb-b251-1d31b461ba07",
                              "clipSpeedAttribute" : false,
                              "effectApplied" : "none",
                              "isOpen" : false,
                              "lockAspectRatio" : true
                            },
                            "animationTracks" : {
                              "visual" : [
                                {
                                  "endTime" : 552720000,
                                  "duration" : 552720000,
                                  "range" : [ 0, 552720000],
                                  "interp" : "eioe"
                                },
                                {
                                  "endTime" : 1775760000,
                                  "duration" : 399840000,
                                  "range" : [ 1375920000, 399840000],
                                  "interp" : "eioe"
                                }
                              ]
                            }
                          }
                        ],
                          "ident" : "",
                          "audioMuted" : false,
                          "videoHidden" : false,
                          "magnetic" : false,
                          "matte" : 0,
                          "solo" : false,
                          "metadata" : {
                            "IsLocked" : "False",
                            "WinTrackHeight" : "56",
                            "trackHeight" : "54"
                          }
                      },
                      {
                        "trackIndex" : 3,
                        "medias" : [
                          {
                            "id" : 461,
                            "_type" : "Group",
                            "parameters" : {
                              "translation0" : {
                                "type" : "double",
                                "defaultValue" : 0.0,
                                "keyframes" : [
                                  {
                                    "endTime" : 552720000,
                                    "time" : 0,
                                    "value" : 0.0,
                                    "interp" : "eioe",
                                    "duration" : 552720000
                                  },
                                  {
                                    "endTime" : 1775760000,
                                    "time" : 1375920000,
                                    "value" : 0.0,
                                    "interp" : "eioe",
                                    "duration" : 399840000
                                  }
                                ]
                              },
                              "translation1" : {
                                "type" : "double",
                                "defaultValue" : -143.610046386719,
                                "keyframes" : [
                                  {
                                    "endTime" : 552720000,
                                    "time" : 0,
                                    "value" : 0.0,
                                    "interp" : "eioe",
                                    "duration" : 552720000
                                  },
                                  {
                                    "endTime" : 1775760000,
                                    "time" : 1375920000,
                                    "value" : -143.610046386719,
                                    "interp" : "eioe",
                                    "duration" : 399840000
                                  }
                                ]
                              },
                              "sourceCrop0" : 0.0,
                              "sourceCrop1" : 0.0,
                              "sourceCrop2" : 0.0,
                              "sourceCrop3" : 0.0,
                              "geometryCrop0" : 0.0,
                              "geometryCrop1" : 0.0,
                              "geometryCrop2" : 0.0,
                              "geometryCrop3" : 0.0,
                              "opacity" : {
                                "type" : "double",
                                "defaultValue" : 1.0,
                                "keyframes" : [
                                  {
                                    "endTime" : 552720000,
                                    "time" : 0,
                                    "value" : 1.0,
                                    "interp" : "eioe",
                                    "duration" : 552720000
                                  }
                                ]
                              },
                              "volume" : 1.0
                            },
                            "tracks" : [
                              {
                                "trackIndex" : 0,
                                "medias" : [
                                  {
                                    "id" : 462,
                                    "_type" : "Callout",
                                    "def" : {
                                      "kind" : "remix",
                                      "shape" : "shape-rectangle",
                                      "style" : "bold",
                                      "fill-color-blue" : 0.913725490196078,
                                      "fill-color-green" : 0.949019607843137,
                                      "fill-color-opacity" : 1.0,
                                      "fill-color-red" : 0.933333333333333,
                                      "hasDropShadow" : 0.0,
                                      "height" : 163.002035140991,
                                      "savedXScale" : 1.0,
                                      "savedYScale" : 1.0,
                                      "stroke-color-blue" : 1.0,
                                      "stroke-color-green" : 1.0,
                                      "stroke-color-opacity" : 1.0,
                                      "stroke-color-red" : 1.0,
                                      "stroke-width" : 0.0,
                                      "width" : 1403.00212860107,
                                      "custom" : "Y",
                                      "fill-style" : "solid",
                                      "stroke-style" : "solid"
                                    },
                                    "attributes" : {
                                      "ident" : "",
                                      "autoRotateText" : true
                                    },
                                    "parameters" : {
                                      "anchor0" : -1.0,
                                      "anchor1" : 2.0,
                                      "sourceCrop0" : 0.0,
                                      "sourceCrop1" : 0.0,
                                      "sourceCrop2" : 0.0,
                                      "sourceCrop3" : 0.0,
                                      "geometryCrop0" : 0.0,
                                      "geometryCrop1" : 0.0,
                                      "geometryCrop2" : 0.0,
                                      "geometryCrop3" : 0.0
                                    },
                                    "effects" : [

                                    ],
                                    "start" : 0,
                                    "duration" : 3528000000,
                                    "mediaStart" : 0,
                                    "mediaDuration" : 3528000000,
                                    "scalar" : 1,
                                    "metadata" : {
                                      "AppliedThemeId" : "",
                                      "clipSpeedAttribute" : false,
                                      "effectApplied" : "none",
                                      "lockAspectRatio" : false
                                    },
                                    "animationTracks" : {

                                    }
                                  }
                                ],
                                  "ident" : "",
                                  "audioMuted" : false,
                                  "videoHidden" : false,
                                  "magnetic" : false,
                                  "matte" : 0,
                                  "solo" : false,
                                  "metadata" : {
                                    "IsLocked" : "False",
                                    "WinTrackHeight" : "56",
                                    "trackHeight" : "54"
                                  }
                              },
                              {
                                "trackIndex" : 1,
                                "medias" : [
                                  {
                                    "id" : 463,
                                    "_type" : "Callout",
                                    "def" : {
                                      "kind" : "remix",
                                      "shape" : "shape-rectangle",
                                      "style" : "bold",
                                      "fill-color-blue" : 0.756862759590149,
                                      "fill-color-green" : 0.18823529779911,
                                      "fill-color-opacity" : 1.0,
                                      "fill-color-red" : 0.960784316062927,
                                      "hasDropShadow" : 0.0,
                                      "height" : 160.0,
                                      "savedXScale" : 1.0,
                                      "savedYScale" : 1.0,
                                      "stroke-color-blue" : 0.886274516582489,
                                      "stroke-color-green" : 0.200000002980232,
                                      "stroke-color-opacity" : 0.0,
                                      "stroke-color-red" : 0.376470595598221,
                                      "stroke-width" : 0.0,
                                      "width" : 1400.0,
                                      "custom" : "Y",
                                      "fill-style" : "solid",
                                      "stroke-style" : "solid"
                                    },
                                    "attributes" : {
                                      "ident" : "",
                                      "autoRotateText" : true
                                    },
                                    "parameters" : {
                                      "sourceCrop0" : 0.0,
                                      "sourceCrop1" : 0.0,
                                      "sourceCrop2" : 0.0,
                                      "sourceCrop3" : 0.0,
                                      "geometryCrop0" : 0.0,
                                      "geometryCrop1" : 0.0,
                                      "geometryCrop2" : 0.0,
                                      "geometryCrop3" : 0.0
                                    },
                                    "effects" : [

                                    ],
                                    "start" : 0,
                                    "duration" : 3528000000,
                                    "mediaStart" : 0,
                                    "mediaDuration" : 3528000000,
                                    "scalar" : 1,
                                    "metadata" : {
                                      "AppliedThemeId" : "",
                                      "clipSpeedAttribute" : false,
                                      "effectApplied" : "none"
                                    },
                                    "animationTracks" : {

                                    }
                                  }
                                ],
                                  "ident" : "",
                                  "audioMuted" : false,
                                  "videoHidden" : false,
                                  "magnetic" : false,
                                  "matte" : 1,
                                  "solo" : false,
                                  "metadata" : {
                                    "IsLocked" : "False",
                                    "WinTrackHeight" : "56",
                                    "trackHeight" : "54"
                                  }
                              }
                            ],
                            "attributes" : {
                              "ident" : "Rect-1400x1600-Mask",
                              "widthAttr" : 1405.0,
                              "heightAttr" : 167.002,
                              "gain" : 1.0,
                              "mixToMono" : false
                            },
                            "effects" : [

                            ],
                            "start" : 0,
                            "duration" : 3528000000,
                            "mediaStart" : 0.0,
                            "mediaDuration" : 3528000000.0,
                            "scalar" : 1,
                            "metadata" : {
                              "clipSpeedAttribute" : false,
                              "effectApplied" : "none",
                              "isOpen" : false,
                              "lockAspectRatio" : true
                            },
                            "animationTracks" : {
                              "visual" : [
                                {
                                  "endTime" : 552720000,
                                  "duration" : 552720000,
                                  "range" : [ 0, 552720000],
                                  "interp" : "eioe"
                                },
                                {
                                  "endTime" : 1775760000,
                                  "duration" : 399840000,
                                  "range" : [ 1375920000, 399840000],
                                  "interp" : "eioe"
                                }
                              ]
                            }
                          }
                        ],
                          "ident" : "",
                          "audioMuted" : false,
                          "videoHidden" : false,
                          "magnetic" : false,
                          "matte" : 1,
                          "solo" : false,
                          "metadata" : {
                            "IsLocked" : "False",
                            "WinTrackHeight" : "56",
                            "trackHeight" : "54"
                          }
                      }
                    ],
                    "attributes" : {
                      "ident" : "Broadcast-Title-012",
                      "widthAttr" : 1405.0,
                      "heightAttr" : 160.0,
                      "gain" : 1.0,
                      "mixToMono" : false,
                      "assetProperties" : [
                        {
                          "type" : 0,
                          "name" : "Title",
                          "objects" : [ 454 ],
                          "themeMappings" :  {
                            "font-color" : "foreground-1"
                          }
                        },
                        {
                          "type" : 1,
                          "name" : "Fill",
                          "objects" : [ 452 ],
                          "themeMappings" :  {
                            "fill" : "background-1"
                          }
                        },
                        {
                          "type" : 1,
                          "name" : "Wiper",
                          "objects" : [ 459 ],
                          "themeMappings" :  {
                            "fill" : "foreground-1"
                          }
                        }
                      ]
                    },
                    "effects" : [

                    ],
                    "start" : 1928640000,
                    "duration" : 1764000000,
                    "mediaStart" : 0.0,
                    "mediaDuration" : 1764000000.0,
                    "scalar" : 1,
                    "metadata" : {
                      "AppliedThemeId" : "170ba59c-db5d-4b9a-a310-e7e99853a4b7",
                      "clipSpeedAttribute" : false,
                      "default-anchor0" : 0.0,
                      "default-anchor1" : 0.0,
                      "default-anchor2" : 0.0,
                      "default-geometryCrop0" : 0.0,
                      "default-geometryCrop2" : 0.0,
                      "default-height" : 160.0,
                      "default-rotation0" : 0.0,
                      "default-rotation1" : 0.0,
                      "default-rotation2" : 0.0,
                      "default-scale0" : 1.0,
                      "default-scale1" : 1.0,
                      "default-scale2" : 1.0,
                      "default-shear0" : 0.0,
                      "default-shear1" : 0.0,
                      "default-shear2" : 0.0,
                      "default-translation0" : 0.0,
                      "default-translation1" : 0.0,
                      "default-translation2" : 0.0,
                      "default-width" : 1405.0,
                      "effectApplied" : "none",
                      "isOpen" : false,
                      "lockAspectRatio" : true
                    },
                    "animationTracks" : {

                    }
                  }
                ]
              },
              {
                "trackIndex" : 117,
                "medias" : [
                  {
                    "id" : 464,
                    "_type" : "Group",
                    "parameters" : {
                      "translation0" : -415.0,
                      "translation1" : 153.222794117647,
                      "scale0" : 0.213523131672598,
                      "scale1" : 0.21875,
                      "sourceCrop0" : 0.0,
                      "sourceCrop1" : 0.0,
                      "sourceCrop2" : 0.0,
                      "sourceCrop3" : 0.0,
                      "geometryCrop0" : 0.0,
                      "geometryCrop1" : 0.0,
                      "geometryCrop2" : 0.0,
                      "geometryCrop3" : 0.0,
                      "volume" : 1.0
                    },
                    "tracks" : [
                      {
                        "trackIndex" : 0,
                        "medias" : [
                          {
                            "id" : 465,
                            "_type" : "Group",
                            "parameters" : {
                              "translation0" : {
                                "type" : "double",
                                "defaultValue" : 0.0,
                                "keyframes" : [
                                  {
                                    "endTime" : 552720000,
                                    "time" : 0,
                                    "value" : 0.0,
                                    "interp" : "eioe",
                                    "duration" : 552720000
                                  },
                                  {
                                    "endTime" : 1775760000,
                                    "time" : 1375920000,
                                    "value" : 0.0,
                                    "interp" : "eioe",
                                    "duration" : 399840000
                                  }
                                ]
                              },
                              "translation1" : {
                                "type" : "double",
                                "defaultValue" : -305.610046386719,
                                "keyframes" : [
                                  {
                                    "endTime" : 552720000,
                                    "time" : 0,
                                    "value" : 0.0,
                                    "interp" : "eioe",
                                    "duration" : 552720000
                                  },
                                  {
                                    "endTime" : 1775760000,
                                    "time" : 1375920000,
                                    "value" : -304.610046386719,
                                    "interp" : "eioe",
                                    "duration" : 399840000
                                  }
                                ]
                              },
                              "sourceCrop0" : 0.0,
                              "sourceCrop1" : 0.0,
                              "sourceCrop2" : 0.0,
                              "sourceCrop3" : 0.0,
                              "geometryCrop0" : 0.0,
                              "geometryCrop1" : 0.0,
                              "geometryCrop2" : 0.0,
                              "geometryCrop3" : 0.0,
                              "volume" : 1.0
                            },
                            "tracks" : [
                              {
                                "trackIndex" : 0,
                                "medias" : [
                                  {
                                    "id" : 466,
                                    "_type" : "Group",
                                    "parameters" : {
                                      "sourceCrop0" : 0.0,
                                      "sourceCrop1" : 0.0,
                                      "sourceCrop2" : 0.0,
                                      "sourceCrop3" : 0.0,
                                      "geometryCrop0" : 0.0,
                                      "geometryCrop1" : 0.0,
                                      "geometryCrop2" : 0.0,
                                      "geometryCrop3" : 0.0,
                                      "volume" : 1.0
                                    },
                                    "tracks" : [
                                      {
                                        "trackIndex" : 0,
                                        "medias" : [
                                          {
                                            "id" : 467,
                                            "_type" : "Callout",
                                            "def" : {
                                              "kind" : "remix",
                                              "shape" : "shape-rectangle",
                                              "style" : "bold",
                                              "fill-color-blue" : 1.0,
                                              "fill-color-green" : 1.0,
                                              "fill-color-opacity" : 1.0,
                                              "fill-color-red" : 1.0,
                                              "hasDropShadow" : 0.0,
                                              "height" : 163.002035140991,
                                              "savedXScale" : 1.0,
                                              "savedYScale" : 1.0,
                                              "stroke-color-blue" : 1.0,
                                              "stroke-color-green" : 1.0,
                                              "stroke-color-opacity" : 1.0,
                                              "stroke-color-red" : 1.0,
                                              "stroke-width" : 0.0,
                                              "width" : 1403.00212860107,
                                              "custom" : "Y",
                                              "fill-style" : "solid",
                                              "stroke-style" : "solid"
                                            },
                                            "attributes" : {
                                              "ident" : "",
                                              "autoRotateText" : true
                                            },
                                            "parameters" : {
                                              "anchor0" : -1.0,
                                              "anchor1" : 2.0,
                                              "sourceCrop0" : 0.0,
                                              "sourceCrop1" : 0.0,
                                              "sourceCrop2" : 0.0,
                                              "sourceCrop3" : 0.0,
                                              "geometryCrop0" : 0.0,
                                              "geometryCrop1" : 0.0,
                                              "geometryCrop2" : 0.0,
                                              "geometryCrop3" : 0.0
                                            },
                                            "effects" : [

                                            ],
                                            "start" : 0,
                                            "duration" : 3528000000,
                                            "mediaStart" : 0,
                                            "mediaDuration" : 3528000000,
                                            "scalar" : 1,
                                            "metadata" : {
                                              "AppliedThemeId" : "",
                                              "clipSpeedAttribute" : false,
                                              "effectApplied" : "none",
                                              "lockAspectRatio" : false
                                            },
                                            "animationTracks" : {

                                            }
                                          }
                                        ],
                                          "ident" : "",
                                          "audioMuted" : false,
                                          "videoHidden" : false,
                                          "magnetic" : false,
                                          "matte" : 0,
                                          "solo" : false,
                                          "metadata" : {
                                            "IsLocked" : "False",
                                            "WinTrackHeight" : "56",
                                            "trackHeight" : "54"
                                          }
                                      },
                                      {
                                        "trackIndex" : 1,
                                        "medias" : [
                                          {
                                            "id" : 468,
                                            "_type" : "Callout",
                                            "def" : {
                                              "kind" : "remix",
                                              "shape" : "shape-rectangle",
                                              "style" : "bold",
                                              "fill-color-blue" : 0.756862759590149,
                                              "fill-color-green" : 0.18823529779911,
                                              "fill-color-opacity" : 1.0,
                                              "fill-color-red" : 0.960784316062927,
                                              "hasDropShadow" : 0.0,
                                              "height" : 160.0,
                                              "savedXScale" : 1.0,
                                              "savedYScale" : 1.0,
                                              "stroke-color-blue" : 0.886274516582489,
                                              "stroke-color-green" : 0.200000002980232,
                                              "stroke-color-opacity" : 0.0,
                                              "stroke-color-red" : 0.376470595598221,
                                              "stroke-width" : 0.0,
                                              "width" : 1400.0,
                                              "custom" : "Y",
                                              "fill-style" : "solid",
                                              "stroke-style" : "solid"
                                            },
                                            "attributes" : {
                                              "ident" : "",
                                              "autoRotateText" : true
                                            },
                                            "parameters" : {
                                              "sourceCrop0" : 0.0,
                                              "sourceCrop1" : 0.0,
                                              "sourceCrop2" : 0.0,
                                              "sourceCrop3" : 0.0,
                                              "geometryCrop0" : 0.0,
                                              "geometryCrop1" : 0.0,
                                              "geometryCrop2" : 0.0,
                                              "geometryCrop3" : 0.0
                                            },
                                            "effects" : [

                                            ],
                                            "start" : 0,
                                            "duration" : 3528000000,
                                            "mediaStart" : 0,
                                            "mediaDuration" : 3528000000,
                                            "scalar" : 1,
                                            "metadata" : {
                                              "AppliedThemeId" : "",
                                              "clipSpeedAttribute" : false,
                                              "effectApplied" : "none"
                                            },
                                            "animationTracks" : {

                                            }
                                          }
                                        ],
                                          "ident" : "",
                                          "audioMuted" : false,
                                          "videoHidden" : false,
                                          "magnetic" : false,
                                          "matte" : 1,
                                          "solo" : false,
                                          "metadata" : {
                                            "IsLocked" : "False",
                                            "WinTrackHeight" : "56",
                                            "trackHeight" : "54"
                                          }
                                      }
                                    ],
                                    "attributes" : {
                                      "ident" : "Fill-1400x160",
                                      "widthAttr" : 1405.0,
                                      "heightAttr" : 167.002,
                                      "gain" : 1.0,
                                      "mixToMono" : false
                                    },
                                    "effects" : [

                                    ],
                                    "start" : 0,
                                    "duration" : 3528000000,
                                    "mediaStart" : 0.0,
                                    "mediaDuration" : 3528000000.0,
                                    "scalar" : 1,
                                    "metadata" : {
                                      "clipSpeedAttribute" : false,
                                      "effectApplied" : "none",
                                      "isOpen" : false,
                                      "lockAspectRatio" : true
                                    },
                                    "animationTracks" : {

                                    }
                                  }
                                ],
                                  "ident" : "",
                                  "audioMuted" : false,
                                  "videoHidden" : false,
                                  "magnetic" : false,
                                  "matte" : 0,
                                  "solo" : false,
                                  "metadata" : {
                                    "IsLocked" : "False",
                                    "WinTrackHeight" : "56",
                                    "trackHeight" : "54"
                                  }
                              },
                              {
                                "trackIndex" : 1,
                                "medias" : [
                                  {
                                    "id" : 469,
                                    "_type" : "Callout",
                                    "def" : {
                                      "kind" : "remix",
                                      "shape" : "text",
                                      "style" : "urban",
                                      "enable-ligatures" : 1.0,
                                      "hasDropShadow" : 0.0,
                                      "height" : 170.0,
                                      "line-spacing" : 0.0,
                                      "savedXScale" : 1.0,
                                      "savedYScale" : 1.0,
                                      "width" : 1400.0,
                                      "word-wrap" : 1.0,
                                      "custom" : "Y",
                                      "horizontal-alignment" : "left",
                                      "resize-behavior" : "resizeText",
                                      "text" : "open filter dialog box",
                                      "vertical-alignment" : "center",
                                      "font" : {
                                        "color-blue" : 1.0,
                                        "color-green" : 1.0,
                                        "color-red" : 1.0,
                                        "size" : 96.0,
                                        "tracking" : 0.0,
                                        "name" : "Dosis",
                                        "weight" : "Semi Bold"
                                      },
                                      "textAttributes" : {
                                        "type" : "textAttributeList",
                                        "keyframes" : [
                                          {
                                            "endTime" : 0,
                                            "time" : 0,
                                            "value" : [{"name":"underline","rangeEnd":22,"rangeStart":0,"value":0,"valueType":"int"},{"name":"strikethrough","rangeEnd":22,"rangeStart":0,"value":0,"valueType":"int"},{"name":"fontName","rangeEnd":22,"rangeStart":0,"value":"Roboto","valueType":"string"},{"name":"kerning","rangeEnd":22,"rangeStart":0,"value":0.049883078231292483,"valueType":"double"},{"name":"fontItalic","rangeEnd":22,"rangeStart":0,"value":0,"valueType":"int"},{"name":"fontWeight","rangeEnd":22,"rangeStart":0,"value":700,"valueType":"int"},{"name":"fontSize","rangeEnd":22,"rangeStart":0,"value":86,"valueType":"double"},{"name":"fgColor","rangeEnd":22,"rangeStart":0,"value":"(110,110,110,255)","valueType":"color"}],
                                            "duration" : 0
                                          }
                                        ]
                                      }
                                    },
                                    "attributes" : {
                                      "ident" : "",
                                      "autoRotateText" : true
                                    },
                                    "parameters" : {
                                      "translation1" : -2.0,
                                      "sourceCrop0" : 0.0,
                                      "sourceCrop1" : 0.0,
                                      "sourceCrop2" : 0.0,
                                      "sourceCrop3" : 0.0,
                                      "geometryCrop0" : 0.0,
                                      "geometryCrop1" : 0.0,
                                      "geometryCrop2" : 0.0,
                                      "geometryCrop3" : 0.0
                                    },
                                    "effects" : [

                                    ],
                                    "start" : 0,
                                    "duration" : 3528000000,
                                    "mediaStart" : 0,
                                    "mediaDuration" : 3528000000,
                                    "scalar" : 1,
                                    "metadata" : {
                                      "AppliedThemeId" : "",
                                      "clipSpeedAttribute" : false,
                                      "effectApplied" : "none",
                                      "lockAspectRatio" : false
                                    },
                                    "animationTracks" : {

                                    }
                                  }
                                ],
                                  "ident" : "",
                                  "audioMuted" : false,
                                  "videoHidden" : false,
                                  "magnetic" : false,
                                  "matte" : 0,
                                  "solo" : false,
                                  "metadata" : {
                                    "IsLocked" : "False",
                                    "WinTrackHeight" : "56",
                                    "trackHeight" : "54"
                                  }
                              }
                            ],
                            "attributes" : {
                              "ident" : "BP-Title-11",
                              "widthAttr" : 1405.0,
                              "heightAttr" : 167.002,
                              "gain" : 1.0,
                              "mixToMono" : false,
                              "assetProperties" : [
                                {
                                  "type" : 0,
                                  "name" : "Title",
                                  "objects" : [ 469 ],
                                  "themeMappings" :  {
                                    "font-color" : "foreground-1"
                                  }
                                },
                                {
                                  "type" : 1,
                                  "name" : "Fill",
                                  "objects" : [ 467 ],
                                  "themeMappings" :  {
                                    "fill" : "background-1"
                                  }
                                }
                              ]
                            },
                            "effects" : [

                            ],
                            "start" : 0,
                            "duration" : 3528000000,
                            "mediaStart" : 0.0,
                            "mediaDuration" : 3528000000.0,
                            "scalar" : 1,
                            "metadata" : {
                              "clipSpeedAttribute" : false,
                              "effectApplied" : "none",
                              "isOpen" : false,
                              "lockAspectRatio" : true
                            },
                            "animationTracks" : {
                              "visual" : [
                                {
                                  "endTime" : 552720000,
                                  "duration" : 552720000,
                                  "range" : [ 0, 552720000],
                                  "interp" : "eioe"
                                },
                                {
                                  "endTime" : 1775760000,
                                  "duration" : 399840000,
                                  "range" : [ 1375920000, 399840000],
                                  "interp" : "eioe"
                                }
                              ]
                            }
                          }
                        ],
                          "ident" : "",
                          "audioMuted" : false,
                          "videoHidden" : false,
                          "magnetic" : false,
                          "matte" : 0,
                          "solo" : false,
                          "metadata" : {
                            "IsLocked" : "False",
                            "WinTrackHeight" : "56",
                            "trackHeight" : "54"
                          }
                      },
                      {
                        "trackIndex" : 1,
                        "medias" : [
                          {
                            "id" : 470,
                            "_type" : "Group",
                            "parameters" : {
                              "translation0" : {
                                "type" : "double",
                                "defaultValue" : 0.0,
                                "keyframes" : [
                                  {
                                    "endTime" : 552720000,
                                    "time" : 0,
                                    "value" : 0.0,
                                    "interp" : "eioe",
                                    "duration" : 552720000
                                  },
                                  {
                                    "endTime" : 1775760000,
                                    "time" : 1375920000,
                                    "value" : 0.0,
                                    "interp" : "eioe",
                                    "duration" : 399840000
                                  }
                                ]
                              },
                              "translation1" : {
                                "type" : "double",
                                "defaultValue" : -144.610046386719,
                                "keyframes" : [
                                  {
                                    "endTime" : 552720000,
                                    "time" : 0,
                                    "value" : 0.0,
                                    "interp" : "eioe",
                                    "duration" : 552720000
                                  },
                                  {
                                    "endTime" : 1775760000,
                                    "time" : 1375920000,
                                    "value" : -144.610046386719,
                                    "interp" : "eioe",
                                    "duration" : 399840000
                                  }
                                ]
                              },
                              "sourceCrop0" : 0.0,
                              "sourceCrop1" : 0.0,
                              "sourceCrop2" : 0.0,
                              "sourceCrop3" : 0.0,
                              "geometryCrop0" : 0.0,
                              "geometryCrop1" : 0.0,
                              "geometryCrop2" : 0.0,
                              "geometryCrop3" : 0.0,
                              "opacity" : {
                                "type" : "double",
                                "defaultValue" : 1.0,
                                "keyframes" : [
                                  {
                                    "endTime" : 552720000,
                                    "time" : 0,
                                    "value" : 1.0,
                                    "interp" : "eioe",
                                    "duration" : 552720000
                                  }
                                ]
                              },
                              "volume" : 1.0
                            },
                            "tracks" : [
                              {
                                "trackIndex" : 0,
                                "medias" : [
                                  {
                                    "id" : 471,
                                    "_type" : "Callout",
                                    "def" : {
                                      "kind" : "remix",
                                      "shape" : "shape-rectangle",
                                      "style" : "bold",
                                      "fill-color-blue" : 0.913725490196078,
                                      "fill-color-green" : 0.949019607843137,
                                      "fill-color-opacity" : 1.0,
                                      "fill-color-red" : 0.933333333333333,
                                      "hasDropShadow" : 0.0,
                                      "height" : 163.002035140991,
                                      "savedXScale" : 1.0,
                                      "savedYScale" : 1.0,
                                      "stroke-color-blue" : 1.0,
                                      "stroke-color-green" : 1.0,
                                      "stroke-color-opacity" : 1.0,
                                      "stroke-color-red" : 1.0,
                                      "stroke-width" : 0.0,
                                      "width" : 1403.00212860107,
                                      "custom" : "Y",
                                      "fill-style" : "solid",
                                      "stroke-style" : "solid"
                                    },
                                    "attributes" : {
                                      "ident" : "",
                                      "autoRotateText" : true
                                    },
                                    "parameters" : {
                                      "anchor0" : -1.0,
                                      "anchor1" : 2.0,
                                      "sourceCrop0" : 0.0,
                                      "sourceCrop1" : 0.0,
                                      "sourceCrop2" : 0.0,
                                      "sourceCrop3" : 0.0,
                                      "geometryCrop0" : 0.0,
                                      "geometryCrop1" : 0.0,
                                      "geometryCrop2" : 0.0,
                                      "geometryCrop3" : 0.0
                                    },
                                    "effects" : [

                                    ],
                                    "start" : 0,
                                    "duration" : 3528000000,
                                    "mediaStart" : 0,
                                    "mediaDuration" : 3528000000,
                                    "scalar" : 1,
                                    "metadata" : {
                                      "AppliedThemeId" : "",
                                      "clipSpeedAttribute" : false,
                                      "effectApplied" : "none",
                                      "lockAspectRatio" : false
                                    },
                                    "animationTracks" : {

                                    }
                                  }
                                ],
                                  "ident" : "",
                                  "audioMuted" : false,
                                  "videoHidden" : false,
                                  "magnetic" : false,
                                  "matte" : 0,
                                  "solo" : false,
                                  "metadata" : {
                                    "IsLocked" : "False",
                                    "WinTrackHeight" : "56",
                                    "trackHeight" : "54"
                                  }
                              },
                              {
                                "trackIndex" : 1,
                                "medias" : [
                                  {
                                    "id" : 472,
                                    "_type" : "Callout",
                                    "def" : {
                                      "kind" : "remix",
                                      "shape" : "shape-rectangle",
                                      "style" : "bold",
                                      "fill-color-blue" : 0.756862759590149,
                                      "fill-color-green" : 0.18823529779911,
                                      "fill-color-opacity" : 1.0,
                                      "fill-color-red" : 0.960784316062927,
                                      "hasDropShadow" : 0.0,
                                      "height" : 160.0,
                                      "savedXScale" : 1.0,
                                      "savedYScale" : 1.0,
                                      "stroke-color-blue" : 0.886274516582489,
                                      "stroke-color-green" : 0.200000002980232,
                                      "stroke-color-opacity" : 0.0,
                                      "stroke-color-red" : 0.376470595598221,
                                      "stroke-width" : 0.0,
                                      "width" : 1400.0,
                                      "custom" : "Y",
                                      "fill-style" : "solid",
                                      "stroke-style" : "solid"
                                    },
                                    "attributes" : {
                                      "ident" : "",
                                      "autoRotateText" : true
                                    },
                                    "parameters" : {
                                      "sourceCrop0" : 0.0,
                                      "sourceCrop1" : 0.0,
                                      "sourceCrop2" : 0.0,
                                      "sourceCrop3" : 0.0,
                                      "geometryCrop0" : 0.0,
                                      "geometryCrop1" : 0.0,
                                      "geometryCrop2" : 0.0,
                                      "geometryCrop3" : 0.0
                                    },
                                    "effects" : [

                                    ],
                                    "start" : 0,
                                    "duration" : 3528000000,
                                    "mediaStart" : 0,
                                    "mediaDuration" : 3528000000,
                                    "scalar" : 1,
                                    "metadata" : {
                                      "AppliedThemeId" : "",
                                      "clipSpeedAttribute" : false,
                                      "effectApplied" : "none"
                                    },
                                    "animationTracks" : {

                                    }
                                  }
                                ],
                                  "ident" : "",
                                  "audioMuted" : false,
                                  "videoHidden" : false,
                                  "magnetic" : false,
                                  "matte" : 1,
                                  "solo" : false,
                                  "metadata" : {
                                    "IsLocked" : "False",
                                    "WinTrackHeight" : "56",
                                    "trackHeight" : "54"
                                  }
                              }
                            ],
                            "attributes" : {
                              "ident" : "Rect-1400x1600-Mask",
                              "widthAttr" : 1405.0,
                              "heightAttr" : 167.002,
                              "gain" : 1.0,
                              "mixToMono" : false
                            },
                            "effects" : [

                            ],
                            "start" : 0,
                            "duration" : 3528000000,
                            "mediaStart" : 0.0,
                            "mediaDuration" : 3528000000.0,
                            "scalar" : 1,
                            "metadata" : {
                              "clipSpeedAttribute" : false,
                              "effectApplied" : "none",
                              "isOpen" : false,
                              "lockAspectRatio" : true
                            },
                            "animationTracks" : {
                              "visual" : [
                                {
                                  "endTime" : 552720000,
                                  "duration" : 552720000,
                                  "range" : [ 0, 552720000],
                                  "interp" : "eioe"
                                },
                                {
                                  "endTime" : 1775760000,
                                  "duration" : 399840000,
                                  "range" : [ 1375920000, 399840000],
                                  "interp" : "eioe"
                                }
                              ]
                            }
                          }
                        ],
                          "ident" : "",
                          "audioMuted" : false,
                          "videoHidden" : false,
                          "magnetic" : false,
                          "matte" : 1,
                          "solo" : false,
                          "metadata" : {
                            "IsLocked" : "False",
                            "WinTrackHeight" : "56",
                            "trackHeight" : "54"
                          }
                      },
                      {
                        "trackIndex" : 2,
                        "medias" : [
                          {
                            "id" : 473,
                            "_type" : "Group",
                            "parameters" : {
                              "translation0" : {
                                "type" : "double",
                                "defaultValue" : 0.0,
                                "keyframes" : [
                                  {
                                    "endTime" : 552720000,
                                    "time" : 0,
                                    "value" : 0.0,
                                    "interp" : "eioe",
                                    "duration" : 552720000
                                  },
                                  {
                                    "endTime" : 1775760000,
                                    "time" : 1375920000,
                                    "value" : 0.0,
                                    "interp" : "eioe",
                                    "duration" : 399840000
                                  }
                                ]
                              },
                              "translation1" : {
                                "type" : "double",
                                "defaultValue" : -233.610046386719,
                                "keyframes" : [
                                  {
                                    "endTime" : 552720000,
                                    "time" : 0,
                                    "value" : 90.0,
                                    "interp" : "eioe",
                                    "duration" : 552720000
                                  },
                                  {
                                    "endTime" : 1775760000,
                                    "time" : 1375920000,
                                    "value" : -233.610046386719,
                                    "interp" : "eioe",
                                    "duration" : 399840000
                                  }
                                ]
                              },
                              "sourceCrop0" : 0.0,
                              "sourceCrop1" : 0.0,
                              "sourceCrop2" : 0.0,
                              "sourceCrop3" : 0.0,
                              "geometryCrop0" : 0.0,
                              "geometryCrop1" : 0.0,
                              "geometryCrop2" : 0.0,
                              "geometryCrop3" : 0.0,
                              "opacity" : {
                                "type" : "double",
                                "defaultValue" : 1.0,
                                "keyframes" : [
                                  {
                                    "endTime" : 552720000,
                                    "time" : 0,
                                    "value" : 1.0,
                                    "interp" : "eioe",
                                    "duration" : 552720000
                                  }
                                ]
                              },
                              "volume" : 1.0
                            },
                            "tracks" : [
                              {
                                "trackIndex" : 0,
                                "medias" : [
                                  {
                                    "id" : 474,
                                    "_type" : "Callout",
                                    "def" : {
                                      "kind" : "remix",
                                      "shape" : "shape-rectangle",
                                      "style" : "bold",
                                      "fill-color-blue" : 0.2196078431,
                                      "fill-color-green" : 0.8745098039,
                                      "fill-color-opacity" : 1.0,
                                      "fill-color-red" : 1.0,
                                      "hasDropShadow" : 0.0,
                                      "height" : 163.002035140991,
                                      "savedXScale" : 1.0,
                                      "savedYScale" : 1.0,
                                      "stroke-color-blue" : 1.0,
                                      "stroke-color-green" : 1.0,
                                      "stroke-color-opacity" : 1.0,
                                      "stroke-color-red" : 1.0,
                                      "stroke-width" : 0.0,
                                      "width" : 1403.00212860107,
                                      "custom" : "Y",
                                      "fill-style" : "solid",
                                      "stroke-style" : "solid"
                                    },
                                    "attributes" : {
                                      "ident" : "",
                                      "autoRotateText" : true
                                    },
                                    "parameters" : {
                                      "anchor0" : -1.0,
                                      "anchor1" : 2.0,
                                      "sourceCrop0" : 0.0,
                                      "sourceCrop1" : 0.0,
                                      "sourceCrop2" : 0.0,
                                      "sourceCrop3" : 0.0,
                                      "geometryCrop0" : 0.0,
                                      "geometryCrop1" : 0.0,
                                      "geometryCrop2" : 0.0,
                                      "geometryCrop3" : 0.0
                                    },
                                    "effects" : [

                                    ],
                                    "start" : 0,
                                    "duration" : 3528000000,
                                    "mediaStart" : 0,
                                    "mediaDuration" : 3528000000,
                                    "scalar" : 1,
                                    "metadata" : {
                                      "AppliedThemeId" : "",
                                      "clipSpeedAttribute" : false,
                                      "effectApplied" : "none",
                                      "lockAspectRatio" : false
                                    },
                                    "animationTracks" : {

                                    }
                                  }
                                ],
                                  "ident" : "",
                                  "audioMuted" : false,
                                  "videoHidden" : false,
                                  "magnetic" : false,
                                  "matte" : 0,
                                  "solo" : false,
                                  "metadata" : {
                                    "IsLocked" : "False",
                                    "WinTrackHeight" : "56",
                                    "trackHeight" : "54"
                                  }
                              },
                              {
                                "trackIndex" : 1,
                                "medias" : [
                                  {
                                    "id" : 475,
                                    "_type" : "Callout",
                                    "def" : {
                                      "kind" : "remix",
                                      "shape" : "shape-rectangle",
                                      "style" : "bold",
                                      "fill-color-blue" : 0.756862759590149,
                                      "fill-color-green" : 0.18823529779911,
                                      "fill-color-opacity" : 1.0,
                                      "fill-color-red" : 0.960784316062927,
                                      "hasDropShadow" : 0.0,
                                      "height" : 160.0,
                                      "savedXScale" : 1.0,
                                      "savedYScale" : 1.0,
                                      "stroke-color-blue" : 0.886274516582489,
                                      "stroke-color-green" : 0.200000002980232,
                                      "stroke-color-opacity" : 0.0,
                                      "stroke-color-red" : 0.376470595598221,
                                      "stroke-width" : 0.0,
                                      "width" : 1400.0,
                                      "custom" : "Y",
                                      "fill-style" : "solid",
                                      "stroke-style" : "solid"
                                    },
                                    "attributes" : {
                                      "ident" : "",
                                      "autoRotateText" : true
                                    },
                                    "parameters" : {
                                      "translation1" : {
                                        "type" : "double",
                                        "defaultValue" : -1.0,
                                        "keyframes" : [
                                          {
                                            "endTime" : 270480000,
                                            "time" : 0,
                                            "value" : 0.0,
                                            "duration" : 270480000
                                          }
                                        ]
                                      },
                                      "scale0" : {
                                        "type" : "double",
                                        "defaultValue" : 1.0,
                                        "keyframes" : [
                                          {
                                            "endTime" : 270480000,
                                            "time" : 0,
                                            "value" : 1.0,
                                            "duration" : 270480000
                                          }
                                        ]
                                      },
                                      "scale1" : {
                                        "type" : "double",
                                        "defaultValue" : 0.125,
                                        "keyframes" : [
                                          {
                                            "endTime" : 270480000,
                                            "time" : 0,
                                            "value" : 0.5,
                                            "duration" : 270480000
                                          },
                                          {
                                            "endTime" : 552720000,
                                            "time" : 282240000,
                                            "value" : 0.125,
                                            "duration" : 270480000
                                          }
                                        ]
                                      },
                                      "sourceCrop0" : 0.0,
                                      "sourceCrop1" : 0.0,
                                      "sourceCrop2" : 0.0,
                                      "sourceCrop3" : 0.0,
                                      "geometryCrop0" : 0.0,
                                      "geometryCrop1" : 0.0,
                                      "geometryCrop2" : 0.0,
                                      "geometryCrop3" : 0.0
                                    },
                                    "effects" : [

                                    ],
                                    "start" : 0,
                                    "duration" : 3528000000,
                                    "mediaStart" : 0,
                                    "mediaDuration" : 3528000000,
                                    "scalar" : 1,
                                    "metadata" : {
                                      "AppliedThemeId" : "",
                                      "clipSpeedAttribute" : false,
                                      "effectApplied" : "none"
                                    },
                                    "animationTracks" : {
                                      "visual" : [
                                        {
                                          "endTime" : 270480000,
                                          "duration" : 270480000,
                                          "range" : [ 0, 270480000]
                                        },
                                        {
                                          "endTime" : 552720000,
                                          "duration" : 270480000,
                                          "range" : [ 282240000, 270480000]
                                        }
                                      ]
                                    }
                                  }
                                ],
                                  "ident" : "",
                                  "audioMuted" : false,
                                  "videoHidden" : false,
                                  "magnetic" : false,
                                  "matte" : 1,
                                  "solo" : false,
                                  "metadata" : {
                                    "IsLocked" : "False",
                                    "WinTrackHeight" : "56",
                                    "trackHeight" : "54"
                                  }
                              }
                            ],
                            "attributes" : {
                              "ident" : "Animated-Pulse-1400x20-To-1400x80",
                              "widthAttr" : 1405.0,
                              "heightAttr" : 167.002,
                              "gain" : 1.0,
                              "mixToMono" : false,
                              "assetProperties" : [
                                {
                                  "type" : 1,
                                  "name" : "Color",
                                  "objects" : [ 474 ],
                                  "themeMappings" :  {
                                    "fill" : "accent-1"
                                  }
                                }
                              ]
                            },
                            "effects" : [

                            ],
                            "start" : 0,
                            "duration" : 3528000000,
                            "mediaStart" : 0.0,
                            "mediaDuration" : 3528000000.0,
                            "scalar" : 1,
                            "metadata" : {
                              "AppliedThemeId" : "8e797988-b823-4beb-b251-1d31b461ba07",
                              "clipSpeedAttribute" : false,
                              "effectApplied" : "none",
                              "isOpen" : false,
                              "lockAspectRatio" : true
                            },
                            "animationTracks" : {
                              "visual" : [
                                {
                                  "endTime" : 552720000,
                                  "duration" : 552720000,
                                  "range" : [ 0, 552720000],
                                  "interp" : "eioe"
                                },
                                {
                                  "endTime" : 1775760000,
                                  "duration" : 399840000,
                                  "range" : [ 1375920000, 399840000],
                                  "interp" : "eioe"
                                }
                              ]
                            }
                          }
                        ],
                          "ident" : "",
                          "audioMuted" : false,
                          "videoHidden" : false,
                          "magnetic" : false,
                          "matte" : 0,
                          "solo" : false,
                          "metadata" : {
                            "IsLocked" : "False",
                            "WinTrackHeight" : "56",
                            "trackHeight" : "54"
                          }
                      },
                      {
                        "trackIndex" : 3,
                        "medias" : [
                          {
                            "id" : 476,
                            "_type" : "Group",
                            "parameters" : {
                              "translation0" : {
                                "type" : "double",
                                "defaultValue" : 0.0,
                                "keyframes" : [
                                  {
                                    "endTime" : 552720000,
                                    "time" : 0,
                                    "value" : 0.0,
                                    "interp" : "eioe",
                                    "duration" : 552720000
                                  },
                                  {
                                    "endTime" : 1775760000,
                                    "time" : 1375920000,
                                    "value" : 0.0,
                                    "interp" : "eioe",
                                    "duration" : 399840000
                                  }
                                ]
                              },
                              "translation1" : {
                                "type" : "double",
                                "defaultValue" : -143.610046386719,
                                "keyframes" : [
                                  {
                                    "endTime" : 552720000,
                                    "time" : 0,
                                    "value" : 0.0,
                                    "interp" : "eioe",
                                    "duration" : 552720000
                                  },
                                  {
                                    "endTime" : 1775760000,
                                    "time" : 1375920000,
                                    "value" : -143.610046386719,
                                    "interp" : "eioe",
                                    "duration" : 399840000
                                  }
                                ]
                              },
                              "sourceCrop0" : 0.0,
                              "sourceCrop1" : 0.0,
                              "sourceCrop2" : 0.0,
                              "sourceCrop3" : 0.0,
                              "geometryCrop0" : 0.0,
                              "geometryCrop1" : 0.0,
                              "geometryCrop2" : 0.0,
                              "geometryCrop3" : 0.0,
                              "opacity" : {
                                "type" : "double",
                                "defaultValue" : 1.0,
                                "keyframes" : [
                                  {
                                    "endTime" : 552720000,
                                    "time" : 0,
                                    "value" : 1.0,
                                    "interp" : "eioe",
                                    "duration" : 552720000
                                  }
                                ]
                              },
                              "volume" : 1.0
                            },
                            "tracks" : [
                              {
                                "trackIndex" : 0,
                                "medias" : [
                                  {
                                    "id" : 477,
                                    "_type" : "Callout",
                                    "def" : {
                                      "kind" : "remix",
                                      "shape" : "shape-rectangle",
                                      "style" : "bold",
                                      "fill-color-blue" : 0.913725490196078,
                                      "fill-color-green" : 0.949019607843137,
                                      "fill-color-opacity" : 1.0,
                                      "fill-color-red" : 0.933333333333333,
                                      "hasDropShadow" : 0.0,
                                      "height" : 163.002035140991,
                                      "savedXScale" : 1.0,
                                      "savedYScale" : 1.0,
                                      "stroke-color-blue" : 1.0,
                                      "stroke-color-green" : 1.0,
                                      "stroke-color-opacity" : 1.0,
                                      "stroke-color-red" : 1.0,
                                      "stroke-width" : 0.0,
                                      "width" : 1403.00212860107,
                                      "custom" : "Y",
                                      "fill-style" : "solid",
                                      "stroke-style" : "solid"
                                    },
                                    "attributes" : {
                                      "ident" : "",
                                      "autoRotateText" : true
                                    },
                                    "parameters" : {
                                      "anchor0" : -1.0,
                                      "anchor1" : 2.0,
                                      "sourceCrop0" : 0.0,
                                      "sourceCrop1" : 0.0,
                                      "sourceCrop2" : 0.0,
                                      "sourceCrop3" : 0.0,
                                      "geometryCrop0" : 0.0,
                                      "geometryCrop1" : 0.0,
                                      "geometryCrop2" : 0.0,
                                      "geometryCrop3" : 0.0
                                    },
                                    "effects" : [

                                    ],
                                    "start" : 0,
                                    "duration" : 3528000000,
                                    "mediaStart" : 0,
                                    "mediaDuration" : 3528000000,
                                    "scalar" : 1,
                                    "metadata" : {
                                      "AppliedThemeId" : "",
                                      "clipSpeedAttribute" : false,
                                      "effectApplied" : "none",
                                      "lockAspectRatio" : false
                                    },
                                    "animationTracks" : {

                                    }
                                  }
                                ],
                                  "ident" : "",
                                  "audioMuted" : false,
                                  "videoHidden" : false,
                                  "magnetic" : false,
                                  "matte" : 0,
                                  "solo" : false,
                                  "metadata" : {
                                    "IsLocked" : "False",
                                    "WinTrackHeight" : "56",
                                    "trackHeight" : "54"
                                  }
                              },
                              {
                                "trackIndex" : 1,
                                "medias" : [
                                  {
                                    "id" : 478,
                                    "_type" : "Callout",
                                    "def" : {
                                      "kind" : "remix",
                                      "shape" : "shape-rectangle",
                                      "style" : "bold",
                                      "fill-color-blue" : 0.756862759590149,
                                      "fill-color-green" : 0.18823529779911,
                                      "fill-color-opacity" : 1.0,
                                      "fill-color-red" : 0.960784316062927,
                                      "hasDropShadow" : 0.0,
                                      "height" : 160.0,
                                      "savedXScale" : 1.0,
                                      "savedYScale" : 1.0,
                                      "stroke-color-blue" : 0.886274516582489,
                                      "stroke-color-green" : 0.200000002980232,
                                      "stroke-color-opacity" : 0.0,
                                      "stroke-color-red" : 0.376470595598221,
                                      "stroke-width" : 0.0,
                                      "width" : 1400.0,
                                      "custom" : "Y",
                                      "fill-style" : "solid",
                                      "stroke-style" : "solid"
                                    },
                                    "attributes" : {
                                      "ident" : "",
                                      "autoRotateText" : true
                                    },
                                    "parameters" : {
                                      "sourceCrop0" : 0.0,
                                      "sourceCrop1" : 0.0,
                                      "sourceCrop2" : 0.0,
                                      "sourceCrop3" : 0.0,
                                      "geometryCrop0" : 0.0,
                                      "geometryCrop1" : 0.0,
                                      "geometryCrop2" : 0.0,
                                      "geometryCrop3" : 0.0
                                    },
                                    "effects" : [

                                    ],
                                    "start" : 0,
                                    "duration" : 3528000000,
                                    "mediaStart" : 0,
                                    "mediaDuration" : 3528000000,
                                    "scalar" : 1,
                                    "metadata" : {
                                      "AppliedThemeId" : "",
                                      "clipSpeedAttribute" : false,
                                      "effectApplied" : "none"
                                    },
                                    "animationTracks" : {

                                    }
                                  }
                                ],
                                  "ident" : "",
                                  "audioMuted" : false,
                                  "videoHidden" : false,
                                  "magnetic" : false,
                                  "matte" : 1,
                                  "solo" : false,
                                  "metadata" : {
                                    "IsLocked" : "False",
                                    "WinTrackHeight" : "56",
                                    "trackHeight" : "54"
                                  }
                              }
                            ],
                            "attributes" : {
                              "ident" : "Rect-1400x1600-Mask",
                              "widthAttr" : 1405.0,
                              "heightAttr" : 167.002,
                              "gain" : 1.0,
                              "mixToMono" : false
                            },
                            "effects" : [

                            ],
                            "start" : 0,
                            "duration" : 3528000000,
                            "mediaStart" : 0.0,
                            "mediaDuration" : 3528000000.0,
                            "scalar" : 1,
                            "metadata" : {
                              "clipSpeedAttribute" : false,
                              "effectApplied" : "none",
                              "isOpen" : false,
                              "lockAspectRatio" : true
                            },
                            "animationTracks" : {
                              "visual" : [
                                {
                                  "endTime" : 552720000,
                                  "duration" : 552720000,
                                  "range" : [ 0, 552720000],
                                  "interp" : "eioe"
                                },
                                {
                                  "endTime" : 1775760000,
                                  "duration" : 399840000,
                                  "range" : [ 1375920000, 399840000],
                                  "interp" : "eioe"
                                }
                              ]
                            }
                          }
                        ],
                          "ident" : "",
                          "audioMuted" : false,
                          "videoHidden" : false,
                          "magnetic" : false,
                          "matte" : 1,
                          "solo" : false,
                          "metadata" : {
                            "IsLocked" : "False",
                            "WinTrackHeight" : "56",
                            "trackHeight" : "54"
                          }
                      }
                    ],
                    "attributes" : {
                      "ident" : "Broadcast-Title-012",
                      "widthAttr" : 1405.0,
                      "heightAttr" : 160.0,
                      "gain" : 1.0,
                      "mixToMono" : false,
                      "assetProperties" : [
                        {
                          "type" : 0,
                          "name" : "Title",
                          "objects" : [ 469 ],
                          "themeMappings" :  {
                            "font-color" : "foreground-1"
                          }
                        },
                        {
                          "type" : 1,
                          "name" : "Fill",
                          "objects" : [ 467 ],
                          "themeMappings" :  {
                            "fill" : "background-1"
                          }
                        },
                        {
                          "type" : 1,
                          "name" : "Wiper",
                          "objects" : [ 474 ],
                          "themeMappings" :  {
                            "fill" : "foreground-1"
                          }
                        }
                      ]
                    },
                    "effects" : [

                    ],
                    "start" : 1928640000,
                    "duration" : 1764000000,
                    "mediaStart" : 0.0,
                    "mediaDuration" : 1764000000.0,
                    "scalar" : 1,
                    "metadata" : {
                      "AppliedThemeId" : "170ba59c-db5d-4b9a-a310-e7e99853a4b7",
                      "clipSpeedAttribute" : false,
                      "default-anchor0" : 0.0,
                      "default-anchor1" : 0.0,
                      "default-anchor2" : 0.0,
                      "default-geometryCrop0" : 0.0,
                      "default-geometryCrop2" : 0.0,
                      "default-height" : 160.0,
                      "default-rotation0" : 0.0,
                      "default-rotation1" : 0.0,
                      "default-rotation2" : 0.0,
                      "default-scale0" : 1.0,
                      "default-scale1" : 1.0,
                      "default-scale2" : 1.0,
                      "default-shear0" : 0.0,
                      "default-shear1" : 0.0,
                      "default-shear2" : 0.0,
                      "default-translation0" : 0.0,
                      "default-translation1" : 0.0,
                      "default-translation2" : 0.0,
                      "default-width" : 1405.0,
                      "effectApplied" : "none",
                      "isOpen" : false,
                      "lockAspectRatio" : true
                    },
                    "animationTracks" : {

                    }
                  }
                ]
              },
              {
                "trackIndex" : 118,
                "medias" : [
                  {
                    "id" : 479,
                    "_type" : "Group",
                    "parameters" : {
                      "translation0" : {
                        "type" : "double",
                        "defaultValue" : -415.0,
                        "interp" : "eioe"
                      },
                      "translation1" : {
                        "type" : "double",
                        "defaultValue" : 103.65625,
                        "interp" : "eioe"
                      },
                      "scale0" : {
                        "type" : "double",
                        "defaultValue" : 0.213523131672598,
                        "interp" : "eioe"
                      },
                      "scale1" : {
                        "type" : "double",
                        "defaultValue" : 0.21875,
                        "interp" : "eioe"
                      },
                      "sourceCrop0" : {
                        "type" : "double",
                        "defaultValue" : 0.0,
                        "interp" : "eioe"
                      },
                      "sourceCrop1" : {
                        "type" : "double",
                        "defaultValue" : 0.0,
                        "interp" : "eioe"
                      },
                      "sourceCrop2" : {
                        "type" : "double",
                        "defaultValue" : 0.0,
                        "interp" : "eioe"
                      },
                      "sourceCrop3" : {
                        "type" : "double",
                        "defaultValue" : 0.0,
                        "interp" : "eioe"
                      },
                      "geometryCrop0" : {
                        "type" : "double",
                        "defaultValue" : 0.0,
                        "interp" : "eioe"
                      },
                      "geometryCrop1" : {
                        "type" : "double",
                        "defaultValue" : 0.0,
                        "interp" : "eioe"
                      },
                      "geometryCrop2" : {
                        "type" : "double",
                        "defaultValue" : 0.0,
                        "interp" : "eioe"
                      },
                      "geometryCrop3" : {
                        "type" : "double",
                        "defaultValue" : 0.0,
                        "interp" : "eioe"
                      },
                      "volume" : 1.0
                    },
                    "tracks" : [
                      {
                        "trackIndex" : 0,
                        "medias" : [
                          {
                            "id" : 480,
                            "_type" : "Group",
                            "parameters" : {
                              "translation0" : {
                                "type" : "double",
                                "defaultValue" : 0.0,
                                "interp" : "eioe",
                                "keyframes" : [
                                  {
                                    "endTime" : 552720000,
                                    "time" : 0,
                                    "value" : 0.0,
                                    "interp" : "eioe",
                                    "duration" : 552720000
                                  },
                                  {
                                    "endTime" : 1775760000,
                                    "time" : 1375920000,
                                    "value" : 0.0,
                                    "interp" : "eioe",
                                    "duration" : 399840000
                                  }
                                ]
                              },
                              "translation1" : {
                                "type" : "double",
                                "defaultValue" : -305.610046386719,
                                "interp" : "eioe",
                                "keyframes" : [
                                  {
                                    "endTime" : 552720000,
                                    "time" : 0,
                                    "value" : 0.0,
                                    "interp" : "eioe",
                                    "duration" : 552720000
                                  },
                                  {
                                    "endTime" : 1775760000,
                                    "time" : 1375920000,
                                    "value" : -304.610046386719,
                                    "interp" : "eioe",
                                    "duration" : 399840000
                                  }
                                ]
                              },
                              "sourceCrop0" : {
                                "type" : "double",
                                "defaultValue" : 0.0,
                                "interp" : "eioe"
                              },
                              "sourceCrop1" : {
                                "type" : "double",
                                "defaultValue" : 0.0,
                                "interp" : "eioe"
                              },
                              "sourceCrop2" : {
                                "type" : "double",
                                "defaultValue" : 0.0,
                                "interp" : "eioe"
                              },
                              "sourceCrop3" : {
                                "type" : "double",
                                "defaultValue" : 0.0,
                                "interp" : "eioe"
                              },
                              "geometryCrop0" : {
                                "type" : "double",
                                "defaultValue" : 0.0,
                                "interp" : "eioe"
                              },
                              "geometryCrop1" : {
                                "type" : "double",
                                "defaultValue" : 0.0,
                                "interp" : "eioe"
                              },
                              "geometryCrop2" : {
                                "type" : "double",
                                "defaultValue" : 0.0,
                                "interp" : "eioe"
                              },
                              "geometryCrop3" : {
                                "type" : "double",
                                "defaultValue" : 0.0,
                                "interp" : "eioe"
                              },
                              "volume" : 1.0
                            },
                            "tracks" : [
                              {
                                "trackIndex" : 0,
                                "medias" : [
                                  {
                                    "id" : 481,
                                    "_type" : "Group",
                                    "parameters" : {
                                      "sourceCrop0" : {
                                        "type" : "double",
                                        "defaultValue" : 0.0,
                                        "interp" : "eioe"
                                      },
                                      "sourceCrop1" : {
                                        "type" : "double",
                                        "defaultValue" : 0.0,
                                        "interp" : "eioe"
                                      },
                                      "sourceCrop2" : {
                                        "type" : "double",
                                        "defaultValue" : 0.0,
                                        "interp" : "eioe"
                                      },
                                      "sourceCrop3" : {
                                        "type" : "double",
                                        "defaultValue" : 0.0,
                                        "interp" : "eioe"
                                      },
                                      "geometryCrop0" : {
                                        "type" : "double",
                                        "defaultValue" : 0.0,
                                        "interp" : "eioe"
                                      },
                                      "geometryCrop1" : {
                                        "type" : "double",
                                        "defaultValue" : 0.0,
                                        "interp" : "eioe"
                                      },
                                      "geometryCrop2" : {
                                        "type" : "double",
                                        "defaultValue" : 0.0,
                                        "interp" : "eioe"
                                      },
                                      "geometryCrop3" : {
                                        "type" : "double",
                                        "defaultValue" : 0.0,
                                        "interp" : "eioe"
                                      },
                                      "volume" : 1.0
                                    },
                                    "tracks" : [
                                      {
                                        "trackIndex" : 0,
                                        "medias" : [
                                          {
                                            "id" : 482,
                                            "_type" : "Callout",
                                            "def" : {
                                              "kind" : "remix",
                                              "shape" : "shape-rectangle",
                                              "style" : "bold",
                                              "fill-color-blue" : {
                                                "type" : "double",
                                                "defaultValue" : 1.0,
                                                "interp" : "linr"
                                              },
                                              "fill-color-green" : {
                                                "type" : "double",
                                                "defaultValue" : 1.0,
                                                "interp" : "linr"
                                              },
                                              "fill-color-opacity" : {
                                                "type" : "double",
                                                "defaultValue" : 1.0,
                                                "interp" : "linr"
                                              },
                                              "fill-color-red" : {
                                                "type" : "double",
                                                "defaultValue" : 1.0,
                                                "interp" : "linr"
                                              },
                                              "hasDropShadow" : {
                                                "type" : "double",
                                                "defaultValue" : 0.0,
                                                "interp" : "linr"
                                              },
                                              "height" : {
                                                "type" : "double",
                                                "defaultValue" : 163.002035140991,
                                                "interp" : "linr"
                                              },
                                              "savedXScale" : {
                                                "type" : "double",
                                                "defaultValue" : 1.0,
                                                "interp" : "linr"
                                              },
                                              "savedYScale" : {
                                                "type" : "double",
                                                "defaultValue" : 1.0,
                                                "interp" : "linr"
                                              },
                                              "stroke-color-blue" : {
                                                "type" : "double",
                                                "defaultValue" : 1.0,
                                                "interp" : "linr"
                                              },
                                              "stroke-color-green" : {
                                                "type" : "double",
                                                "defaultValue" : 1.0,
                                                "interp" : "linr"
                                              },
                                              "stroke-color-opacity" : {
                                                "type" : "double",
                                                "defaultValue" : 1.0,
                                                "interp" : "linr"
                                              },
                                              "stroke-color-red" : {
                                                "type" : "double",
                                                "defaultValue" : 1.0,
                                                "interp" : "linr"
                                              },
                                              "stroke-width" : {
                                                "type" : "double",
                                                "defaultValue" : 0.0,
                                                "interp" : "linr"
                                              },
                                              "width" : {
                                                "type" : "double",
                                                "defaultValue" : 1403.00212860107,
                                                "interp" : "linr"
                                              },
                                              "custom" : "Y",
                                              "fill-style" : "solid",
                                              "stroke-style" : "solid"
                                            },
                                            "attributes" : {
                                              "ident" : "",
                                              "autoRotateText" : true
                                            },
                                            "parameters" : {
                                              "anchor0" : {
                                                "type" : "double",
                                                "defaultValue" : -1.0,
                                                "interp" : "eioe"
                                              },
                                              "anchor1" : {
                                                "type" : "double",
                                                "defaultValue" : 2.0,
                                                "interp" : "eioe"
                                              },
                                              "sourceCrop0" : {
                                                "type" : "double",
                                                "defaultValue" : 0.0,
                                                "interp" : "eioe"
                                              },
                                              "sourceCrop1" : {
                                                "type" : "double",
                                                "defaultValue" : 0.0,
                                                "interp" : "eioe"
                                              },
                                              "sourceCrop2" : {
                                                "type" : "double",
                                                "defaultValue" : 0.0,
                                                "interp" : "eioe"
                                              },
                                              "sourceCrop3" : {
                                                "type" : "double",
                                                "defaultValue" : 0.0,
                                                "interp" : "eioe"
                                              },
                                              "geometryCrop0" : {
                                                "type" : "double",
                                                "defaultValue" : 0.0,
                                                "interp" : "eioe"
                                              },
                                              "geometryCrop1" : {
                                                "type" : "double",
                                                "defaultValue" : 0.0,
                                                "interp" : "eioe"
                                              },
                                              "geometryCrop2" : {
                                                "type" : "double",
                                                "defaultValue" : 0.0,
                                                "interp" : "eioe"
                                              },
                                              "geometryCrop3" : {
                                                "type" : "double",
                                                "defaultValue" : 0.0,
                                                "interp" : "eioe"
                                              }
                                            },
                                            "effects" : [

                                            ],
                                            "start" : 0,
                                            "duration" : 3528000000,
                                            "mediaStart" : 0,
                                            "mediaDuration" : 3528000000,
                                            "scalar" : 1,
                                            "metadata" : {
                                              "AppliedThemeId" : "",
                                              "clipSpeedAttribute" : false,
                                              "effectApplied" : "none",
                                              "lockAspectRatio" : false
                                            },
                                            "animationTracks" : {

                                            }
                                          }
                                        ],
                                          "ident" : "",
                                          "audioMuted" : false,
                                          "videoHidden" : false,
                                          "magnetic" : false,
                                          "matte" : 0,
                                          "solo" : false,
                                          "metadata" : {
                                            "IsLocked" : "False",
                                            "WinTrackHeight" : "56",
                                            "trackHeight" : "54"
                                          }
                                      },
                                      {
                                        "trackIndex" : 1,
                                        "medias" : [
                                          {
                                            "id" : 483,
                                            "_type" : "Callout",
                                            "def" : {
                                              "kind" : "remix",
                                              "shape" : "shape-rectangle",
                                              "style" : "bold",
                                              "fill-color-blue" : {
                                                "type" : "double",
                                                "defaultValue" : 0.756862759590149,
                                                "interp" : "linr"
                                              },
                                              "fill-color-green" : {
                                                "type" : "double",
                                                "defaultValue" : 0.18823529779911,
                                                "interp" : "linr"
                                              },
                                              "fill-color-opacity" : {
                                                "type" : "double",
                                                "defaultValue" : 1.0,
                                                "interp" : "linr"
                                              },
                                              "fill-color-red" : {
                                                "type" : "double",
                                                "defaultValue" : 0.960784316062927,
                                                "interp" : "linr"
                                              },
                                              "hasDropShadow" : {
                                                "type" : "double",
                                                "defaultValue" : 0.0,
                                                "interp" : "linr"
                                              },
                                              "height" : {
                                                "type" : "double",
                                                "defaultValue" : 160.0,
                                                "interp" : "linr"
                                              },
                                              "savedXScale" : {
                                                "type" : "double",
                                                "defaultValue" : 1.0,
                                                "interp" : "linr"
                                              },
                                              "savedYScale" : {
                                                "type" : "double",
                                                "defaultValue" : 1.0,
                                                "interp" : "linr"
                                              },
                                              "stroke-color-blue" : {
                                                "type" : "double",
                                                "defaultValue" : 0.886274516582489,
                                                "interp" : "linr"
                                              },
                                              "stroke-color-green" : {
                                                "type" : "double",
                                                "defaultValue" : 0.200000002980232,
                                                "interp" : "linr"
                                              },
                                              "stroke-color-opacity" : {
                                                "type" : "double",
                                                "defaultValue" : 0.0,
                                                "interp" : "linr"
                                              },
                                              "stroke-color-red" : {
                                                "type" : "double",
                                                "defaultValue" : 0.376470595598221,
                                                "interp" : "linr"
                                              },
                                              "stroke-width" : {
                                                "type" : "double",
                                                "defaultValue" : 0.0,
                                                "interp" : "linr"
                                              },
                                              "width" : {
                                                "type" : "double",
                                                "defaultValue" : 1400.0,
                                                "interp" : "linr"
                                              },
                                              "custom" : "Y",
                                              "fill-style" : "solid",
                                              "stroke-style" : "solid"
                                            },
                                            "attributes" : {
                                              "ident" : "",
                                              "autoRotateText" : true
                                            },
                                            "parameters" : {
                                              "sourceCrop0" : {
                                                "type" : "double",
                                                "defaultValue" : 0.0,
                                                "interp" : "eioe"
                                              },
                                              "sourceCrop1" : {
                                                "type" : "double",
                                                "defaultValue" : 0.0,
                                                "interp" : "eioe"
                                              },
                                              "sourceCrop2" : {
                                                "type" : "double",
                                                "defaultValue" : 0.0,
                                                "interp" : "eioe"
                                              },
                                              "sourceCrop3" : {
                                                "type" : "double",
                                                "defaultValue" : 0.0,
                                                "interp" : "eioe"
                                              },
                                              "geometryCrop0" : {
                                                "type" : "double",
                                                "defaultValue" : 0.0,
                                                "interp" : "eioe"
                                              },
                                              "geometryCrop1" : {
                                                "type" : "double",
                                                "defaultValue" : 0.0,
                                                "interp" : "eioe"
                                              },
                                              "geometryCrop2" : {
                                                "type" : "double",
                                                "defaultValue" : 0.0,
                                                "interp" : "eioe"
                                              },
                                              "geometryCrop3" : {
                                                "type" : "double",
                                                "defaultValue" : 0.0,
                                                "interp" : "eioe"
                                              }
                                            },
                                            "effects" : [

                                            ],
                                            "start" : 0,
                                            "duration" : 3528000000,
                                            "mediaStart" : 0,
                                            "mediaDuration" : 3528000000,
                                            "scalar" : 1,
                                            "metadata" : {
                                              "AppliedThemeId" : "",
                                              "clipSpeedAttribute" : false,
                                              "effectApplied" : "none"
                                            },
                                            "animationTracks" : {

                                            }
                                          }
                                        ],
                                          "ident" : "",
                                          "audioMuted" : false,
                                          "videoHidden" : false,
                                          "magnetic" : false,
                                          "matte" : 1,
                                          "solo" : false,
                                          "metadata" : {
                                            "IsLocked" : "False",
                                            "WinTrackHeight" : "56",
                                            "trackHeight" : "54"
                                          }
                                      }
                                    ],
                                    "attributes" : {
                                      "ident" : "Fill-1400x160",
                                      "widthAttr" : 1405.0,
                                      "heightAttr" : 167.002,
                                      "gain" : 1.0,
                                      "mixToMono" : false
                                    },
                                    "effects" : [

                                    ],
                                    "start" : 0,
                                    "duration" : 3528000000,
                                    "mediaStart" : 0.0,
                                    "mediaDuration" : 3528000000.0,
                                    "scalar" : 1,
                                    "metadata" : {
                                      "clipSpeedAttribute" : false,
                                      "effectApplied" : "none",
                                      "isOpen" : false,
                                      "lockAspectRatio" : true
                                    },
                                    "animationTracks" : {

                                    }
                                  }
                                ],
                                  "ident" : "",
                                  "audioMuted" : false,
                                  "videoHidden" : false,
                                  "magnetic" : false,
                                  "matte" : 0,
                                  "solo" : false,
                                  "metadata" : {
                                    "IsLocked" : "False",
                                    "WinTrackHeight" : "56",
                                    "trackHeight" : "54"
                                  }
                              },
                              {
                                "trackIndex" : 1,
                                "medias" : [
                                  {
                                    "id" : 484,
                                    "_type" : "Callout",
                                    "def" : {
                                      "kind" : "remix",
                                      "shape" : "text",
                                      "style" : "urban",
                                      "enable-ligatures" : {
                                        "type" : "double",
                                        "defaultValue" : 1.0,
                                        "interp" : "linr"
                                      },
                                      "hasDropShadow" : {
                                        "type" : "double",
                                        "defaultValue" : 0.0,
                                        "interp" : "linr"
                                      },
                                      "height" : {
                                        "type" : "double",
                                        "defaultValue" : 170.0,
                                        "interp" : "linr"
                                      },
                                      "line-spacing" : {
                                        "type" : "double",
                                        "defaultValue" : 0.0,
                                        "interp" : "linr"
                                      },
                                      "savedXScale" : {
                                        "type" : "double",
                                        "defaultValue" : 1.0,
                                        "interp" : "linr"
                                      },
                                      "savedYScale" : {
                                        "type" : "double",
                                        "defaultValue" : 1.0,
                                        "interp" : "linr"
                                      },
                                      "width" : {
                                        "type" : "double",
                                        "defaultValue" : 1400.0,
                                        "interp" : "linr"
                                      },
                                      "word-wrap" : {
                                        "type" : "double",
                                        "defaultValue" : 1.0,
                                        "interp" : "linr"
                                      },
                                      "custom" : "Y",
                                      "horizontal-alignment" : "left",
                                      "resize-behavior" : "resizeText",
                                      "text" : "open filter slicers",
                                      "vertical-alignment" : "center",
                                      "font" : {
                                        "color-blue" : {
                                          "type" : "double",
                                          "defaultValue" : 1.0,
                                          "interp" : "linr"
                                        },
                                        "color-green" : {
                                          "type" : "double",
                                          "defaultValue" : 1.0,
                                          "interp" : "linr"
                                        },
                                        "color-red" : {
                                          "type" : "double",
                                          "defaultValue" : 1.0,
                                          "interp" : "linr"
                                        },
                                        "size" : {
                                          "type" : "double",
                                          "defaultValue" : 96.0,
                                          "interp" : "linr"
                                        },
                                        "tracking" : {
                                          "type" : "double",
                                          "defaultValue" : 0.0,
                                          "interp" : "linr"
                                        },
                                        "name" : "Dosis",
                                        "weight" : "Semi Bold"
                                      },
                                      "textAttributes" : {
                                        "type" : "textAttributeList",
                                        "keyframes" : [
                                          {
                                            "endTime" : 0,
                                            "time" : 0,
                                            "value" : [{"name":"underline","rangeEnd":19,"rangeStart":0,"value":0,"valueType":"int"},{"name":"strikethrough","rangeEnd":19,"rangeStart":0,"value":0,"valueType":"int"},{"name":"fontName","rangeEnd":19,"rangeStart":0,"value":"Roboto","valueType":"string"},{"name":"kerning","rangeEnd":19,"rangeStart":0,"value":0.049883078231292483,"valueType":"double"},{"name":"fontItalic","rangeEnd":19,"rangeStart":0,"value":0,"valueType":"int"},{"name":"fontWeight","rangeEnd":19,"rangeStart":0,"value":700,"valueType":"int"},{"name":"fontSize","rangeEnd":19,"rangeStart":0,"value":86,"valueType":"double"},{"name":"fgColor","rangeEnd":19,"rangeStart":0,"value":"(110,110,110,255)","valueType":"color"}],
                                            "duration" : 0
                                          }
                                        ]
                                      }
                                    },
                                    "attributes" : {
                                      "ident" : "",
                                      "autoRotateText" : true
                                    },
                                    "parameters" : {
                                      "translation1" : {
                                        "type" : "double",
                                        "defaultValue" : -2.0,
                                        "interp" : "eioe"
                                      },
                                      "sourceCrop0" : {
                                        "type" : "double",
                                        "defaultValue" : 0.0,
                                        "interp" : "eioe"
                                      },
                                      "sourceCrop1" : {
                                        "type" : "double",
                                        "defaultValue" : 0.0,
                                        "interp" : "eioe"
                                      },
                                      "sourceCrop2" : {
                                        "type" : "double",
                                        "defaultValue" : 0.0,
                                        "interp" : "eioe"
                                      },
                                      "sourceCrop3" : {
                                        "type" : "double",
                                        "defaultValue" : 0.0,
                                        "interp" : "eioe"
                                      },
                                      "geometryCrop0" : {
                                        "type" : "double",
                                        "defaultValue" : 0.0,
                                        "interp" : "eioe"
                                      },
                                      "geometryCrop1" : {
                                        "type" : "double",
                                        "defaultValue" : 0.0,
                                        "interp" : "eioe"
                                      },
                                      "geometryCrop2" : {
                                        "type" : "double",
                                        "defaultValue" : 0.0,
                                        "interp" : "eioe"
                                      },
                                      "geometryCrop3" : {
                                        "type" : "double",
                                        "defaultValue" : 0.0,
                                        "interp" : "eioe"
                                      }
                                    },
                                    "effects" : [

                                    ],
                                    "start" : 0,
                                    "duration" : 3528000000,
                                    "mediaStart" : 0,
                                    "mediaDuration" : 3528000000,
                                    "scalar" : 1,
                                    "metadata" : {
                                      "AppliedThemeId" : "",
                                      "clipSpeedAttribute" : false,
                                      "effectApplied" : "none",
                                      "lockAspectRatio" : false
                                    },
                                    "animationTracks" : {

                                    }
                                  }
                                ],
                                  "ident" : "",
                                  "audioMuted" : false,
                                  "videoHidden" : false,
                                  "magnetic" : false,
                                  "matte" : 0,
                                  "solo" : false,
                                  "metadata" : {
                                    "IsLocked" : "False",
                                    "WinTrackHeight" : "56",
                                    "trackHeight" : "54"
                                  }
                              }
                            ],
                            "attributes" : {
                              "ident" : "BP-Title-11",
                              "widthAttr" : 1405.0,
                              "heightAttr" : 167.002,
                              "gain" : 1.0,
                              "mixToMono" : false,
                              "assetProperties" : [
                                {
                                  "type" : 0,
                                  "name" : "Title",
                                  "objects" : [ 484 ],
                                  "themeMappings" :  {
                                    "font-color" : "foreground-1"
                                  }
                                },
                                {
                                  "type" : 1,
                                  "name" : "Fill",
                                  "objects" : [ 482 ],
                                  "themeMappings" :  {
                                    "fill" : "background-1"
                                  }
                                }
                              ]
                            },
                            "effects" : [

                            ],
                            "start" : 0,
                            "duration" : 3528000000,
                            "mediaStart" : 0.0,
                            "mediaDuration" : 3528000000.0,
                            "scalar" : 1,
                            "metadata" : {
                              "clipSpeedAttribute" : false,
                              "effectApplied" : "none",
                              "isOpen" : false,
                              "lockAspectRatio" : true
                            },
                            "animationTracks" : {
                              "visual" : [
                                {
                                  "endTime" : 552720000,
                                  "duration" : 552720000,
                                  "range" : [ 0, 552720000],
                                  "interp" : "eioe"
                                },
                                {
                                  "endTime" : 1775760000,
                                  "duration" : 399840000,
                                  "range" : [ 1375920000, 399840000],
                                  "interp" : "eioe"
                                }
                              ]
                            }
                          }
                        ],
                          "ident" : "",
                          "audioMuted" : false,
                          "videoHidden" : false,
                          "magnetic" : false,
                          "matte" : 0,
                          "solo" : false,
                          "metadata" : {
                            "IsLocked" : "False",
                            "WinTrackHeight" : "56",
                            "trackHeight" : "54"
                          }
                      },
                      {
                        "trackIndex" : 1,
                        "medias" : [
                          {
                            "id" : 485,
                            "_type" : "Group",
                            "parameters" : {
                              "translation0" : {
                                "type" : "double",
                                "defaultValue" : 0.0,
                                "interp" : "eioe",
                                "keyframes" : [
                                  {
                                    "endTime" : 552720000,
                                    "time" : 0,
                                    "value" : 0.0,
                                    "interp" : "eioe",
                                    "duration" : 552720000
                                  },
                                  {
                                    "endTime" : 1775760000,
                                    "time" : 1375920000,
                                    "value" : 0.0,
                                    "interp" : "eioe",
                                    "duration" : 399840000
                                  }
                                ]
                              },
                              "translation1" : {
                                "type" : "double",
                                "defaultValue" : -144.610046386719,
                                "interp" : "eioe",
                                "keyframes" : [
                                  {
                                    "endTime" : 552720000,
                                    "time" : 0,
                                    "value" : 0.0,
                                    "interp" : "eioe",
                                    "duration" : 552720000
                                  },
                                  {
                                    "endTime" : 1775760000,
                                    "time" : 1375920000,
                                    "value" : -144.610046386719,
                                    "interp" : "eioe",
                                    "duration" : 399840000
                                  }
                                ]
                              },
                              "sourceCrop0" : {
                                "type" : "double",
                                "defaultValue" : 0.0,
                                "interp" : "eioe"
                              },
                              "sourceCrop1" : {
                                "type" : "double",
                                "defaultValue" : 0.0,
                                "interp" : "eioe"
                              },
                              "sourceCrop2" : {
                                "type" : "double",
                                "defaultValue" : 0.0,
                                "interp" : "eioe"
                              },
                              "sourceCrop3" : {
                                "type" : "double",
                                "defaultValue" : 0.0,
                                "interp" : "eioe"
                              },
                              "geometryCrop0" : {
                                "type" : "double",
                                "defaultValue" : 0.0,
                                "interp" : "eioe"
                              },
                              "geometryCrop1" : {
                                "type" : "double",
                                "defaultValue" : 0.0,
                                "interp" : "eioe"
                              },
                              "geometryCrop2" : {
                                "type" : "double",
                                "defaultValue" : 0.0,
                                "interp" : "eioe"
                              },
                              "geometryCrop3" : {
                                "type" : "double",
                                "defaultValue" : 0.0,
                                "interp" : "eioe"
                              },
                              "opacity" : {
                                "type" : "double",
                                "defaultValue" : 1.0,
                                "interp" : "linr",
                                "keyframes" : [
                                  {
                                    "endTime" : 552720000,
                                    "time" : 0,
                                    "value" : 1.0,
                                    "interp" : "eioe",
                                    "duration" : 552720000
                                  }
                                ]
                              },
                              "volume" : 1.0
                            },
                            "tracks" : [
                              {
                                "trackIndex" : 0,
                                "medias" : [
                                  {
                                    "id" : 486,
                                    "_type" : "Callout",
                                    "def" : {
                                      "kind" : "remix",
                                      "shape" : "shape-rectangle",
                                      "style" : "bold",
                                      "fill-color-blue" : {
                                        "type" : "double",
                                        "defaultValue" : 0.913725490196078,
                                        "interp" : "linr"
                                      },
                                      "fill-color-green" : {
                                        "type" : "double",
                                        "defaultValue" : 0.949019607843137,
                                        "interp" : "linr"
                                      },
                                      "fill-color-opacity" : {
                                        "type" : "double",
                                        "defaultValue" : 1.0,
                                        "interp" : "linr"
                                      },
                                      "fill-color-red" : {
                                        "type" : "double",
                                        "defaultValue" : 0.933333333333333,
                                        "interp" : "linr"
                                      },
                                      "hasDropShadow" : {
                                        "type" : "double",
                                        "defaultValue" : 0.0,
                                        "interp" : "linr"
                                      },
                                      "height" : {
                                        "type" : "double",
                                        "defaultValue" : 163.002035140991,
                                        "interp" : "linr"
                                      },
                                      "savedXScale" : {
                                        "type" : "double",
                                        "defaultValue" : 1.0,
                                        "interp" : "linr"
                                      },
                                      "savedYScale" : {
                                        "type" : "double",
                                        "defaultValue" : 1.0,
                                        "interp" : "linr"
                                      },
                                      "stroke-color-blue" : {
                                        "type" : "double",
                                        "defaultValue" : 1.0,
                                        "interp" : "linr"
                                      },
                                      "stroke-color-green" : {
                                        "type" : "double",
                                        "defaultValue" : 1.0,
                                        "interp" : "linr"
                                      },
                                      "stroke-color-opacity" : {
                                        "type" : "double",
                                        "defaultValue" : 1.0,
                                        "interp" : "linr"
                                      },
                                      "stroke-color-red" : {
                                        "type" : "double",
                                        "defaultValue" : 1.0,
                                        "interp" : "linr"
                                      },
                                      "stroke-width" : {
                                        "type" : "double",
                                        "defaultValue" : 0.0,
                                        "interp" : "linr"
                                      },
                                      "width" : {
                                        "type" : "double",
                                        "defaultValue" : 1403.00212860107,
                                        "interp" : "linr"
                                      },
                                      "custom" : "Y",
                                      "fill-style" : "solid",
                                      "stroke-style" : "solid"
                                    },
                                    "attributes" : {
                                      "ident" : "",
                                      "autoRotateText" : true
                                    },
                                    "parameters" : {
                                      "anchor0" : {
                                        "type" : "double",
                                        "defaultValue" : -1.0,
                                        "interp" : "eioe"
                                      },
                                      "anchor1" : {
                                        "type" : "double",
                                        "defaultValue" : 2.0,
                                        "interp" : "eioe"
                                      },
                                      "sourceCrop0" : {
                                        "type" : "double",
                                        "defaultValue" : 0.0,
                                        "interp" : "eioe"
                                      },
                                      "sourceCrop1" : {
                                        "type" : "double",
                                        "defaultValue" : 0.0,
                                        "interp" : "eioe"
                                      },
                                      "sourceCrop2" : {
                                        "type" : "double",
                                        "defaultValue" : 0.0,
                                        "interp" : "eioe"
                                      },
                                      "sourceCrop3" : {
                                        "type" : "double",
                                        "defaultValue" : 0.0,
                                        "interp" : "eioe"
                                      },
                                      "geometryCrop0" : {
                                        "type" : "double",
                                        "defaultValue" : 0.0,
                                        "interp" : "eioe"
                                      },
                                      "geometryCrop1" : {
                                        "type" : "double",
                                        "defaultValue" : 0.0,
                                        "interp" : "eioe"
                                      },
                                      "geometryCrop2" : {
                                        "type" : "double",
                                        "defaultValue" : 0.0,
                                        "interp" : "eioe"
                                      },
                                      "geometryCrop3" : {
                                        "type" : "double",
                                        "defaultValue" : 0.0,
                                        "interp" : "eioe"
                                      }
                                    },
                                    "effects" : [

                                    ],
                                    "start" : 0,
                                    "duration" : 3528000000,
                                    "mediaStart" : 0,
                                    "mediaDuration" : 3528000000,
                                    "scalar" : 1,
                                    "metadata" : {
                                      "AppliedThemeId" : "",
                                      "clipSpeedAttribute" : false,
                                      "effectApplied" : "none",
                                      "lockAspectRatio" : false
                                    },
                                    "animationTracks" : {

                                    }
                                  }
                                ],
                                  "ident" : "",
                                  "audioMuted" : false,
                                  "videoHidden" : false,
                                  "magnetic" : false,
                                  "matte" : 0,
                                  "solo" : false,
                                  "metadata" : {
                                    "IsLocked" : "False",
                                    "WinTrackHeight" : "56",
                                    "trackHeight" : "54"
                                  }
                              },
                              {
                                "trackIndex" : 1,
                                "medias" : [
                                  {
                                    "id" : 487,
                                    "_type" : "Callout",
                                    "def" : {
                                      "kind" : "remix",
                                      "shape" : "shape-rectangle",
                                      "style" : "bold",
                                      "fill-color-blue" : {
                                        "type" : "double",
                                        "defaultValue" : 0.756862759590149,
                                        "interp" : "linr"
                                      },
                                      "fill-color-green" : {
                                        "type" : "double",
                                        "defaultValue" : 0.18823529779911,
                                        "interp" : "linr"
                                      },
                                      "fill-color-opacity" : {
                                        "type" : "double",
                                        "defaultValue" : 1.0,
                                        "interp" : "linr"
                                      },
                                      "fill-color-red" : {
                                        "type" : "double",
                                        "defaultValue" : 0.960784316062927,
                                        "interp" : "linr"
                                      },
                                      "hasDropShadow" : {
                                        "type" : "double",
                                        "defaultValue" : 0.0,
                                        "interp" : "linr"
                                      },
                                      "height" : {
                                        "type" : "double",
                                        "defaultValue" : 160.0,
                                        "interp" : "linr"
                                      },
                                      "savedXScale" : {
                                        "type" : "double",
                                        "defaultValue" : 1.0,
                                        "interp" : "linr"
                                      },
                                      "savedYScale" : {
                                        "type" : "double",
                                        "defaultValue" : 1.0,
                                        "interp" : "linr"
                                      },
                                      "stroke-color-blue" : {
                                        "type" : "double",
                                        "defaultValue" : 0.886274516582489,
                                        "interp" : "linr"
                                      },
                                      "stroke-color-green" : {
                                        "type" : "double",
                                        "defaultValue" : 0.200000002980232,
                                        "interp" : "linr"
                                      },
                                      "stroke-color-opacity" : {
                                        "type" : "double",
                                        "defaultValue" : 0.0,
                                        "interp" : "linr"
                                      },
                                      "stroke-color-red" : {
                                        "type" : "double",
                                        "defaultValue" : 0.376470595598221,
                                        "interp" : "linr"
                                      },
                                      "stroke-width" : {
                                        "type" : "double",
                                        "defaultValue" : 0.0,
                                        "interp" : "linr"
                                      },
                                      "width" : {
                                        "type" : "double",
                                        "defaultValue" : 1400.0,
                                        "interp" : "linr"
                                      },
                                      "custom" : "Y",
                                      "fill-style" : "solid",
                                      "stroke-style" : "solid"
                                    },
                                    "attributes" : {
                                      "ident" : "",
                                      "autoRotateText" : true
                                    },
                                    "parameters" : {
                                      "sourceCrop0" : {
                                        "type" : "double",
                                        "defaultValue" : 0.0,
                                        "interp" : "eioe"
                                      },
                                      "sourceCrop1" : {
                                        "type" : "double",
                                        "defaultValue" : 0.0,
                                        "interp" : "eioe"
                                      },
                                      "sourceCrop2" : {
                                        "type" : "double",
                                        "defaultValue" : 0.0,
                                        "interp" : "eioe"
                                      },
                                      "sourceCrop3" : {
                                        "type" : "double",
                                        "defaultValue" : 0.0,
                                        "interp" : "eioe"
                                      },
                                      "geometryCrop0" : {
                                        "type" : "double",
                                        "defaultValue" : 0.0,
                                        "interp" : "eioe"
                                      },
                                      "geometryCrop1" : {
                                        "type" : "double",
                                        "defaultValue" : 0.0,
                                        "interp" : "eioe"
                                      },
                                      "geometryCrop2" : {
                                        "type" : "double",
                                        "defaultValue" : 0.0,
                                        "interp" : "eioe"
                                      },
                                      "geometryCrop3" : {
                                        "type" : "double",
                                        "defaultValue" : 0.0,
                                        "interp" : "eioe"
                                      }
                                    },
                                    "effects" : [

                                    ],
                                    "start" : 0,
                                    "duration" : 3528000000,
                                    "mediaStart" : 0,
                                    "mediaDuration" : 3528000000,
                                    "scalar" : 1,
                                    "metadata" : {
                                      "AppliedThemeId" : "",
                                      "clipSpeedAttribute" : false,
                                      "effectApplied" : "none"
                                    },
                                    "animationTracks" : {

                                    }
                                  }
                                ],
                                  "ident" : "",
                                  "audioMuted" : false,
                                  "videoHidden" : false,
                                  "magnetic" : false,
                                  "matte" : 1,
                                  "solo" : false,
                                  "metadata" : {
                                    "IsLocked" : "False",
                                    "WinTrackHeight" : "56",
                                    "trackHeight" : "54"
                                  }
                              }
                            ],
                            "attributes" : {
                              "ident" : "Rect-1400x1600-Mask",
                              "widthAttr" : 1405.0,
                              "heightAttr" : 167.002,
                              "gain" : 1.0,
                              "mixToMono" : false
                            },
                            "effects" : [

                            ],
                            "start" : 0,
                            "duration" : 3528000000,
                            "mediaStart" : 0.0,
                            "mediaDuration" : 3528000000.0,
                            "scalar" : 1,
                            "metadata" : {
                              "clipSpeedAttribute" : false,
                              "effectApplied" : "none",
                              "isOpen" : false,
                              "lockAspectRatio" : true
                            },
                            "animationTracks" : {
                              "visual" : [
                                {
                                  "endTime" : 552720000,
                                  "duration" : 552720000,
                                  "range" : [ 0, 552720000],
                                  "interp" : "eioe"
                                },
                                {
                                  "endTime" : 1775760000,
                                  "duration" : 399840000,
                                  "range" : [ 1375920000, 399840000],
                                  "interp" : "eioe"
                                }
                              ]
                            }
                          }
                        ],
                          "ident" : "",
                          "audioMuted" : false,
                          "videoHidden" : false,
                          "magnetic" : false,
                          "matte" : 1,
                          "solo" : false,
                          "metadata" : {
                            "IsLocked" : "False",
                            "WinTrackHeight" : "56",
                            "trackHeight" : "54"
                          }
                      },
                      {
                        "trackIndex" : 2,
                        "medias" : [
                          {
                            "id" : 488,
                            "_type" : "Group",
                            "parameters" : {
                              "translation0" : {
                                "type" : "double",
                                "defaultValue" : 0.0,
                                "interp" : "eioe",
                                "keyframes" : [
                                  {
                                    "endTime" : 552720000,
                                    "time" : 0,
                                    "value" : 0.0,
                                    "interp" : "eioe",
                                    "duration" : 552720000
                                  },
                                  {
                                    "endTime" : 1775760000,
                                    "time" : 1375920000,
                                    "value" : 0.0,
                                    "interp" : "eioe",
                                    "duration" : 399840000
                                  }
                                ]
                              },
                              "translation1" : {
                                "type" : "double",
                                "defaultValue" : -233.610046386719,
                                "interp" : "eioe",
                                "keyframes" : [
                                  {
                                    "endTime" : 552720000,
                                    "time" : 0,
                                    "value" : 90.0,
                                    "interp" : "eioe",
                                    "duration" : 552720000
                                  },
                                  {
                                    "endTime" : 1775760000,
                                    "time" : 1375920000,
                                    "value" : -233.610046386719,
                                    "interp" : "eioe",
                                    "duration" : 399840000
                                  }
                                ]
                              },
                              "sourceCrop0" : {
                                "type" : "double",
                                "defaultValue" : 0.0,
                                "interp" : "eioe"
                              },
                              "sourceCrop1" : {
                                "type" : "double",
                                "defaultValue" : 0.0,
                                "interp" : "eioe"
                              },
                              "sourceCrop2" : {
                                "type" : "double",
                                "defaultValue" : 0.0,
                                "interp" : "eioe"
                              },
                              "sourceCrop3" : {
                                "type" : "double",
                                "defaultValue" : 0.0,
                                "interp" : "eioe"
                              },
                              "geometryCrop0" : {
                                "type" : "double",
                                "defaultValue" : 0.0,
                                "interp" : "eioe"
                              },
                              "geometryCrop1" : {
                                "type" : "double",
                                "defaultValue" : 0.0,
                                "interp" : "eioe"
                              },
                              "geometryCrop2" : {
                                "type" : "double",
                                "defaultValue" : 0.0,
                                "interp" : "eioe"
                              },
                              "geometryCrop3" : {
                                "type" : "double",
                                "defaultValue" : 0.0,
                                "interp" : "eioe"
                              },
                              "opacity" : {
                                "type" : "double",
                                "defaultValue" : 1.0,
                                "interp" : "linr",
                                "keyframes" : [
                                  {
                                    "endTime" : 552720000,
                                    "time" : 0,
                                    "value" : 1.0,
                                    "interp" : "eioe",
                                    "duration" : 552720000
                                  }
                                ]
                              },
                              "volume" : 1.0
                            },
                            "tracks" : [
                              {
                                "trackIndex" : 0,
                                "medias" : [
                                  {
                                    "id" : 489,
                                    "_type" : "Callout",
                                    "def" : {
                                      "kind" : "remix",
                                      "shape" : "shape-rectangle",
                                      "style" : "bold",
                                      "fill-color-blue" : {
                                        "type" : "double",
                                        "defaultValue" : 0.2196078431,
                                        "interp" : "linr"
                                      },
                                      "fill-color-green" : {
                                        "type" : "double",
                                        "defaultValue" : 0.8745098039,
                                        "interp" : "linr"
                                      },
                                      "fill-color-opacity" : {
                                        "type" : "double",
                                        "defaultValue" : 1.0,
                                        "interp" : "linr"
                                      },
                                      "fill-color-red" : {
                                        "type" : "double",
                                        "defaultValue" : 1.0,
                                        "interp" : "linr"
                                      },
                                      "hasDropShadow" : {
                                        "type" : "double",
                                        "defaultValue" : 0.0,
                                        "interp" : "linr"
                                      },
                                      "height" : {
                                        "type" : "double",
                                        "defaultValue" : 163.002035140991,
                                        "interp" : "linr"
                                      },
                                      "savedXScale" : {
                                        "type" : "double",
                                        "defaultValue" : 1.0,
                                        "interp" : "linr"
                                      },
                                      "savedYScale" : {
                                        "type" : "double",
                                        "defaultValue" : 1.0,
                                        "interp" : "linr"
                                      },
                                      "stroke-color-blue" : {
                                        "type" : "double",
                                        "defaultValue" : 1.0,
                                        "interp" : "linr"
                                      },
                                      "stroke-color-green" : {
                                        "type" : "double",
                                        "defaultValue" : 1.0,
                                        "interp" : "linr"
                                      },
                                      "stroke-color-opacity" : {
                                        "type" : "double",
                                        "defaultValue" : 1.0,
                                        "interp" : "linr"
                                      },
                                      "stroke-color-red" : {
                                        "type" : "double",
                                        "defaultValue" : 1.0,
                                        "interp" : "linr"
                                      },
                                      "stroke-width" : {
                                        "type" : "double",
                                        "defaultValue" : 0.0,
                                        "interp" : "linr"
                                      },
                                      "width" : {
                                        "type" : "double",
                                        "defaultValue" : 1403.00212860107,
                                        "interp" : "linr"
                                      },
                                      "custom" : "Y",
                                      "fill-style" : "solid",
                                      "stroke-style" : "solid"
                                    },
                                    "attributes" : {
                                      "ident" : "",
                                      "autoRotateText" : true
                                    },
                                    "parameters" : {
                                      "anchor0" : {
                                        "type" : "double",
                                        "defaultValue" : -1.0,
                                        "interp" : "eioe"
                                      },
                                      "anchor1" : {
                                        "type" : "double",
                                        "defaultValue" : 2.0,
                                        "interp" : "eioe"
                                      },
                                      "sourceCrop0" : {
                                        "type" : "double",
                                        "defaultValue" : 0.0,
                                        "interp" : "eioe"
                                      },
                                      "sourceCrop1" : {
                                        "type" : "double",
                                        "defaultValue" : 0.0,
                                        "interp" : "eioe"
                                      },
                                      "sourceCrop2" : {
                                        "type" : "double",
                                        "defaultValue" : 0.0,
                                        "interp" : "eioe"
                                      },
                                      "sourceCrop3" : {
                                        "type" : "double",
                                        "defaultValue" : 0.0,
                                        "interp" : "eioe"
                                      },
                                      "geometryCrop0" : {
                                        "type" : "double",
                                        "defaultValue" : 0.0,
                                        "interp" : "eioe"
                                      },
                                      "geometryCrop1" : {
                                        "type" : "double",
                                        "defaultValue" : 0.0,
                                        "interp" : "eioe"
                                      },
                                      "geometryCrop2" : {
                                        "type" : "double",
                                        "defaultValue" : 0.0,
                                        "interp" : "eioe"
                                      },
                                      "geometryCrop3" : {
                                        "type" : "double",
                                        "defaultValue" : 0.0,
                                        "interp" : "eioe"
                                      }
                                    },
                                    "effects" : [

                                    ],
                                    "start" : 0,
                                    "duration" : 3528000000,
                                    "mediaStart" : 0,
                                    "mediaDuration" : 3528000000,
                                    "scalar" : 1,
                                    "metadata" : {
                                      "AppliedThemeId" : "",
                                      "clipSpeedAttribute" : false,
                                      "effectApplied" : "none",
                                      "lockAspectRatio" : false
                                    },
                                    "animationTracks" : {

                                    }
                                  }
                                ],
                                  "ident" : "",
                                  "audioMuted" : false,
                                  "videoHidden" : false,
                                  "magnetic" : false,
                                  "matte" : 0,
                                  "solo" : false,
                                  "metadata" : {
                                    "IsLocked" : "False",
                                    "WinTrackHeight" : "56",
                                    "trackHeight" : "54"
                                  }
                              },
                              {
                                "trackIndex" : 1,
                                "medias" : [
                                  {
                                    "id" : 490,
                                    "_type" : "Callout",
                                    "def" : {
                                      "kind" : "remix",
                                      "shape" : "shape-rectangle",
                                      "style" : "bold",
                                      "fill-color-blue" : {
                                        "type" : "double",
                                        "defaultValue" : 0.756862759590149,
                                        "interp" : "linr"
                                      },
                                      "fill-color-green" : {
                                        "type" : "double",
                                        "defaultValue" : 0.18823529779911,
                                        "interp" : "linr"
                                      },
                                      "fill-color-opacity" : {
                                        "type" : "double",
                                        "defaultValue" : 1.0,
                                        "interp" : "linr"
                                      },
                                      "fill-color-red" : {
                                        "type" : "double",
                                        "defaultValue" : 0.960784316062927,
                                        "interp" : "linr"
                                      },
                                      "hasDropShadow" : {
                                        "type" : "double",
                                        "defaultValue" : 0.0,
                                        "interp" : "linr"
                                      },
                                      "height" : {
                                        "type" : "double",
                                        "defaultValue" : 160.0,
                                        "interp" : "linr"
                                      },
                                      "savedXScale" : {
                                        "type" : "double",
                                        "defaultValue" : 1.0,
                                        "interp" : "linr"
                                      },
                                      "savedYScale" : {
                                        "type" : "double",
                                        "defaultValue" : 1.0,
                                        "interp" : "linr"
                                      },
                                      "stroke-color-blue" : {
                                        "type" : "double",
                                        "defaultValue" : 0.886274516582489,
                                        "interp" : "linr"
                                      },
                                      "stroke-color-green" : {
                                        "type" : "double",
                                        "defaultValue" : 0.200000002980232,
                                        "interp" : "linr"
                                      },
                                      "stroke-color-opacity" : {
                                        "type" : "double",
                                        "defaultValue" : 0.0,
                                        "interp" : "linr"
                                      },
                                      "stroke-color-red" : {
                                        "type" : "double",
                                        "defaultValue" : 0.376470595598221,
                                        "interp" : "linr"
                                      },
                                      "stroke-width" : {
                                        "type" : "double",
                                        "defaultValue" : 0.0,
                                        "interp" : "linr"
                                      },
                                      "width" : {
                                        "type" : "double",
                                        "defaultValue" : 1400.0,
                                        "interp" : "linr"
                                      },
                                      "custom" : "Y",
                                      "fill-style" : "solid",
                                      "stroke-style" : "solid"
                                    },
                                    "attributes" : {
                                      "ident" : "",
                                      "autoRotateText" : true
                                    },
                                    "parameters" : {
                                      "translation1" : {
                                        "type" : "double",
                                        "defaultValue" : -1.0,
                                        "interp" : "eioe",
                                        "keyframes" : [
                                          {
                                            "endTime" : 270480000,
                                            "time" : 0,
                                            "value" : 0.0,
                                            "duration" : 270480000
                                          }
                                        ]
                                      },
                                      "scale0" : {
                                        "type" : "double",
                                        "defaultValue" : 1.0,
                                        "interp" : "eioe",
                                        "keyframes" : [
                                          {
                                            "endTime" : 270480000,
                                            "time" : 0,
                                            "value" : 1.0,
                                            "duration" : 270480000
                                          }
                                        ]
                                      },
                                      "scale1" : {
                                        "type" : "double",
                                        "defaultValue" : 0.125,
                                        "interp" : "eioe",
                                        "keyframes" : [
                                          {
                                            "endTime" : 270480000,
                                            "time" : 0,
                                            "value" : 0.5,
                                            "duration" : 270480000
                                          },
                                          {
                                            "endTime" : 552720000,
                                            "time" : 282240000,
                                            "value" : 0.125,
                                            "duration" : 270480000
                                          }
                                        ]
                                      },
                                      "sourceCrop0" : {
                                        "type" : "double",
                                        "defaultValue" : 0.0,
                                        "interp" : "eioe"
                                      },
                                      "sourceCrop1" : {
                                        "type" : "double",
                                        "defaultValue" : 0.0,
                                        "interp" : "eioe"
                                      },
                                      "sourceCrop2" : {
                                        "type" : "double",
                                        "defaultValue" : 0.0,
                                        "interp" : "eioe"
                                      },
                                      "sourceCrop3" : {
                                        "type" : "double",
                                        "defaultValue" : 0.0,
                                        "interp" : "eioe"
                                      },
                                      "geometryCrop0" : {
                                        "type" : "double",
                                        "defaultValue" : 0.0,
                                        "interp" : "eioe"
                                      },
                                      "geometryCrop1" : {
                                        "type" : "double",
                                        "defaultValue" : 0.0,
                                        "interp" : "eioe"
                                      },
                                      "geometryCrop2" : {
                                        "type" : "double",
                                        "defaultValue" : 0.0,
                                        "interp" : "eioe"
                                      },
                                      "geometryCrop3" : {
                                        "type" : "double",
                                        "defaultValue" : 0.0,
                                        "interp" : "eioe"
                                      }
                                    },
                                    "effects" : [

                                    ],
                                    "start" : 0,
                                    "duration" : 3528000000,
                                    "mediaStart" : 0,
                                    "mediaDuration" : 3528000000,
                                    "scalar" : 1,
                                    "metadata" : {
                                      "AppliedThemeId" : "",
                                      "clipSpeedAttribute" : false,
                                      "effectApplied" : "none"
                                    },
                                    "animationTracks" : {
                                      "visual" : [
                                        {
                                          "endTime" : 270480000,
                                          "duration" : 270480000,
                                          "range" : [ 0, 270480000]
                                        },
                                        {
                                          "endTime" : 552720000,
                                          "duration" : 270480000,
                                          "range" : [ 282240000, 270480000]
                                        }
                                      ]
                                    }
                                  }
                                ],
                                  "ident" : "",
                                  "audioMuted" : false,
                                  "videoHidden" : false,
                                  "magnetic" : false,
                                  "matte" : 1,
                                  "solo" : false,
                                  "metadata" : {
                                    "IsLocked" : "False",
                                    "WinTrackHeight" : "56",
                                    "trackHeight" : "54"
                                  }
                              }
                            ],
                            "attributes" : {
                              "ident" : "Animated-Pulse-1400x20-To-1400x80",
                              "widthAttr" : 1405.0,
                              "heightAttr" : 167.002,
                              "gain" : 1.0,
                              "mixToMono" : false,
                              "assetProperties" : [
                                {
                                  "type" : 1,
                                  "name" : "Color",
                                  "objects" : [ 489 ],
                                  "themeMappings" :  {
                                    "fill" : "accent-1"
                                  }
                                }
                              ]
                            },
                            "effects" : [

                            ],
                            "start" : 0,
                            "duration" : 3528000000,
                            "mediaStart" : 0.0,
                            "mediaDuration" : 3528000000.0,
                            "scalar" : 1,
                            "metadata" : {
                              "AppliedThemeId" : "8e797988-b823-4beb-b251-1d31b461ba07",
                              "clipSpeedAttribute" : false,
                              "effectApplied" : "none",
                              "isOpen" : false,
                              "lockAspectRatio" : true
                            },
                            "animationTracks" : {
                              "visual" : [
                                {
                                  "endTime" : 552720000,
                                  "duration" : 552720000,
                                  "range" : [ 0, 552720000],
                                  "interp" : "eioe"
                                },
                                {
                                  "endTime" : 1775760000,
                                  "duration" : 399840000,
                                  "range" : [ 1375920000, 399840000],
                                  "interp" : "eioe"
                                }
                              ]
                            }
                          }
                        ],
                          "ident" : "",
                          "audioMuted" : false,
                          "videoHidden" : false,
                          "magnetic" : false,
                          "matte" : 0,
                          "solo" : false,
                          "metadata" : {
                            "IsLocked" : "False",
                            "WinTrackHeight" : "56",
                            "trackHeight" : "54"
                          }
                      },
                      {
                        "trackIndex" : 3,
                        "medias" : [
                          {
                            "id" : 491,
                            "_type" : "Group",
                            "parameters" : {
                              "translation0" : {
                                "type" : "double",
                                "defaultValue" : 0.0,
                                "interp" : "eioe",
                                "keyframes" : [
                                  {
                                    "endTime" : 552720000,
                                    "time" : 0,
                                    "value" : 0.0,
                                    "interp" : "eioe",
                                    "duration" : 552720000
                                  },
                                  {
                                    "endTime" : 1775760000,
                                    "time" : 1375920000,
                                    "value" : 0.0,
                                    "interp" : "eioe",
                                    "duration" : 399840000
                                  }
                                ]
                              },
                              "translation1" : {
                                "type" : "double",
                                "defaultValue" : -143.610046386719,
                                "interp" : "eioe",
                                "keyframes" : [
                                  {
                                    "endTime" : 552720000,
                                    "time" : 0,
                                    "value" : 0.0,
                                    "interp" : "eioe",
                                    "duration" : 552720000
                                  },
                                  {
                                    "endTime" : 1775760000,
                                    "time" : 1375920000,
                                    "value" : -143.610046386719,
                                    "interp" : "eioe",
                                    "duration" : 399840000
                                  }
                                ]
                              },
                              "sourceCrop0" : {
                                "type" : "double",
                                "defaultValue" : 0.0,
                                "interp" : "eioe"
                              },
                              "sourceCrop1" : {
                                "type" : "double",
                                "defaultValue" : 0.0,
                                "interp" : "eioe"
                              },
                              "sourceCrop2" : {
                                "type" : "double",
                                "defaultValue" : 0.0,
                                "interp" : "eioe"
                              },
                              "sourceCrop3" : {
                                "type" : "double",
                                "defaultValue" : 0.0,
                                "interp" : "eioe"
                              },
                              "geometryCrop0" : {
                                "type" : "double",
                                "defaultValue" : 0.0,
                                "interp" : "eioe"
                              },
                              "geometryCrop1" : {
                                "type" : "double",
                                "defaultValue" : 0.0,
                                "interp" : "eioe"
                              },
                              "geometryCrop2" : {
                                "type" : "double",
                                "defaultValue" : 0.0,
                                "interp" : "eioe"
                              },
                              "geometryCrop3" : {
                                "type" : "double",
                                "defaultValue" : 0.0,
                                "interp" : "eioe"
                              },
                              "opacity" : {
                                "type" : "double",
                                "defaultValue" : 1.0,
                                "interp" : "linr",
                                "keyframes" : [
                                  {
                                    "endTime" : 552720000,
                                    "time" : 0,
                                    "value" : 1.0,
                                    "interp" : "eioe",
                                    "duration" : 552720000
                                  }
                                ]
                              },
                              "volume" : 1.0
                            },
                            "tracks" : [
                              {
                                "trackIndex" : 0,
                                "medias" : [
                                  {
                                    "id" : 492,
                                    "_type" : "Callout",
                                    "def" : {
                                      "kind" : "remix",
                                      "shape" : "shape-rectangle",
                                      "style" : "bold",
                                      "fill-color-blue" : {
                                        "type" : "double",
                                        "defaultValue" : 0.913725490196078,
                                        "interp" : "linr"
                                      },
                                      "fill-color-green" : {
                                        "type" : "double",
                                        "defaultValue" : 0.949019607843137,
                                        "interp" : "linr"
                                      },
                                      "fill-color-opacity" : {
                                        "type" : "double",
                                        "defaultValue" : 1.0,
                                        "interp" : "linr"
                                      },
                                      "fill-color-red" : {
                                        "type" : "double",
                                        "defaultValue" : 0.933333333333333,
                                        "interp" : "linr"
                                      },
                                      "hasDropShadow" : {
                                        "type" : "double",
                                        "defaultValue" : 0.0,
                                        "interp" : "linr"
                                      },
                                      "height" : {
                                        "type" : "double",
                                        "defaultValue" : 163.002035140991,
                                        "interp" : "linr"
                                      },
                                      "savedXScale" : {
                                        "type" : "double",
                                        "defaultValue" : 1.0,
                                        "interp" : "linr"
                                      },
                                      "savedYScale" : {
                                        "type" : "double",
                                        "defaultValue" : 1.0,
                                        "interp" : "linr"
                                      },
                                      "stroke-color-blue" : {
                                        "type" : "double",
                                        "defaultValue" : 1.0,
                                        "interp" : "linr"
                                      },
                                      "stroke-color-green" : {
                                        "type" : "double",
                                        "defaultValue" : 1.0,
                                        "interp" : "linr"
                                      },
                                      "stroke-color-opacity" : {
                                        "type" : "double",
                                        "defaultValue" : 1.0,
                                        "interp" : "linr"
                                      },
                                      "stroke-color-red" : {
                                        "type" : "double",
                                        "defaultValue" : 1.0,
                                        "interp" : "linr"
                                      },
                                      "stroke-width" : {
                                        "type" : "double",
                                        "defaultValue" : 0.0,
                                        "interp" : "linr"
                                      },
                                      "width" : {
                                        "type" : "double",
                                        "defaultValue" : 1403.00212860107,
                                        "interp" : "linr"
                                      },
                                      "custom" : "Y",
                                      "fill-style" : "solid",
                                      "stroke-style" : "solid"
                                    },
                                    "attributes" : {
                                      "ident" : "",
                                      "autoRotateText" : true
                                    },
                                    "parameters" : {
                                      "anchor0" : {
                                        "type" : "double",
                                        "defaultValue" : -1.0,
                                        "interp" : "eioe"
                                      },
                                      "anchor1" : {
                                        "type" : "double",
                                        "defaultValue" : 2.0,
                                        "interp" : "eioe"
                                      },
                                      "sourceCrop0" : {
                                        "type" : "double",
                                        "defaultValue" : 0.0,
                                        "interp" : "eioe"
                                      },
                                      "sourceCrop1" : {
                                        "type" : "double",
                                        "defaultValue" : 0.0,
                                        "interp" : "eioe"
                                      },
                                      "sourceCrop2" : {
                                        "type" : "double",
                                        "defaultValue" : 0.0,
                                        "interp" : "eioe"
                                      },
                                      "sourceCrop3" : {
                                        "type" : "double",
                                        "defaultValue" : 0.0,
                                        "interp" : "eioe"
                                      },
                                      "geometryCrop0" : {
                                        "type" : "double",
                                        "defaultValue" : 0.0,
                                        "interp" : "eioe"
                                      },
                                      "geometryCrop1" : {
                                        "type" : "double",
                                        "defaultValue" : 0.0,
                                        "interp" : "eioe"
                                      },
                                      "geometryCrop2" : {
                                        "type" : "double",
                                        "defaultValue" : 0.0,
                                        "interp" : "eioe"
                                      },
                                      "geometryCrop3" : {
                                        "type" : "double",
                                        "defaultValue" : 0.0,
                                        "interp" : "eioe"
                                      }
                                    },
                                    "effects" : [

                                    ],
                                    "start" : 0,
                                    "duration" : 3528000000,
                                    "mediaStart" : 0,
                                    "mediaDuration" : 3528000000,
                                    "scalar" : 1,
                                    "metadata" : {
                                      "AppliedThemeId" : "",
                                      "clipSpeedAttribute" : false,
                                      "effectApplied" : "none",
                                      "lockAspectRatio" : false
                                    },
                                    "animationTracks" : {

                                    }
                                  }
                                ],
                                  "ident" : "",
                                  "audioMuted" : false,
                                  "videoHidden" : false,
                                  "magnetic" : false,
                                  "matte" : 0,
                                  "solo" : false,
                                  "metadata" : {
                                    "IsLocked" : "False",
                                    "WinTrackHeight" : "56",
                                    "trackHeight" : "54"
                                  }
                              },
                              {
                                "trackIndex" : 1,
                                "medias" : [
                                  {
                                    "id" : 493,
                                    "_type" : "Callout",
                                    "def" : {
                                      "kind" : "remix",
                                      "shape" : "shape-rectangle",
                                      "style" : "bold",
                                      "fill-color-blue" : {
                                        "type" : "double",
                                        "defaultValue" : 0.756862759590149,
                                        "interp" : "linr"
                                      },
                                      "fill-color-green" : {
                                        "type" : "double",
                                        "defaultValue" : 0.18823529779911,
                                        "interp" : "linr"
                                      },
                                      "fill-color-opacity" : {
                                        "type" : "double",
                                        "defaultValue" : 1.0,
                                        "interp" : "linr"
                                      },
                                      "fill-color-red" : {
                                        "type" : "double",
                                        "defaultValue" : 0.960784316062927,
                                        "interp" : "linr"
                                      },
                                      "hasDropShadow" : {
                                        "type" : "double",
                                        "defaultValue" : 0.0,
                                        "interp" : "linr"
                                      },
                                      "height" : {
                                        "type" : "double",
                                        "defaultValue" : 160.0,
                                        "interp" : "linr"
                                      },
                                      "savedXScale" : {
                                        "type" : "double",
                                        "defaultValue" : 1.0,
                                        "interp" : "linr"
                                      },
                                      "savedYScale" : {
                                        "type" : "double",
                                        "defaultValue" : 1.0,
                                        "interp" : "linr"
                                      },
                                      "stroke-color-blue" : {
                                        "type" : "double",
                                        "defaultValue" : 0.886274516582489,
                                        "interp" : "linr"
                                      },
                                      "stroke-color-green" : {
                                        "type" : "double",
                                        "defaultValue" : 0.200000002980232,
                                        "interp" : "linr"
                                      },
                                      "stroke-color-opacity" : {
                                        "type" : "double",
                                        "defaultValue" : 0.0,
                                        "interp" : "linr"
                                      },
                                      "stroke-color-red" : {
                                        "type" : "double",
                                        "defaultValue" : 0.376470595598221,
                                        "interp" : "linr"
                                      },
                                      "stroke-width" : {
                                        "type" : "double",
                                        "defaultValue" : 0.0,
                                        "interp" : "linr"
                                      },
                                      "width" : {
                                        "type" : "double",
                                        "defaultValue" : 1400.0,
                                        "interp" : "linr"
                                      },
                                      "custom" : "Y",
                                      "fill-style" : "solid",
                                      "stroke-style" : "solid"
                                    },
                                    "attributes" : {
                                      "ident" : "",
                                      "autoRotateText" : true
                                    },
                                    "parameters" : {
                                      "sourceCrop0" : {
                                        "type" : "double",
                                        "defaultValue" : 0.0,
                                        "interp" : "eioe"
                                      },
                                      "sourceCrop1" : {
                                        "type" : "double",
                                        "defaultValue" : 0.0,
                                        "interp" : "eioe"
                                      },
                                      "sourceCrop2" : {
                                        "type" : "double",
                                        "defaultValue" : 0.0,
                                        "interp" : "eioe"
                                      },
                                      "sourceCrop3" : {
                                        "type" : "double",
                                        "defaultValue" : 0.0,
                                        "interp" : "eioe"
                                      },
                                      "geometryCrop0" : {
                                        "type" : "double",
                                        "defaultValue" : 0.0,
                                        "interp" : "eioe"
                                      },
                                      "geometryCrop1" : {
                                        "type" : "double",
                                        "defaultValue" : 0.0,
                                        "interp" : "eioe"
                                      },
                                      "geometryCrop2" : {
                                        "type" : "double",
                                        "defaultValue" : 0.0,
                                        "interp" : "eioe"
                                      },
                                      "geometryCrop3" : {
                                        "type" : "double",
                                        "defaultValue" : 0.0,
                                        "interp" : "eioe"
                                      }
                                    },
                                    "effects" : [

                                    ],
                                    "start" : 0,
                                    "duration" : 3528000000,
                                    "mediaStart" : 0,
                                    "mediaDuration" : 3528000000,
                                    "scalar" : 1,
                                    "metadata" : {
                                      "AppliedThemeId" : "",
                                      "clipSpeedAttribute" : false,
                                      "effectApplied" : "none"
                                    },
                                    "animationTracks" : {

                                    }
                                  }
                                ],
                                  "ident" : "",
                                  "audioMuted" : false,
                                  "videoHidden" : false,
                                  "magnetic" : false,
                                  "matte" : 1,
                                  "solo" : false,
                                  "metadata" : {
                                    "IsLocked" : "False",
                                    "WinTrackHeight" : "56",
                                    "trackHeight" : "54"
                                  }
                              }
                            ],
                            "attributes" : {
                              "ident" : "Rect-1400x1600-Mask",
                              "widthAttr" : 1405.0,
                              "heightAttr" : 167.002,
                              "gain" : 1.0,
                              "mixToMono" : false
                            },
                            "effects" : [

                            ],
                            "start" : 0,
                            "duration" : 3528000000,
                            "mediaStart" : 0.0,
                            "mediaDuration" : 3528000000.0,
                            "scalar" : 1,
                            "metadata" : {
                              "clipSpeedAttribute" : false,
                              "effectApplied" : "none",
                              "isOpen" : false,
                              "lockAspectRatio" : true
                            },
                            "animationTracks" : {
                              "visual" : [
                                {
                                  "endTime" : 552720000,
                                  "duration" : 552720000,
                                  "range" : [ 0, 552720000],
                                  "interp" : "eioe"
                                },
                                {
                                  "endTime" : 1775760000,
                                  "duration" : 399840000,
                                  "range" : [ 1375920000, 399840000],
                                  "interp" : "eioe"
                                }
                              ]
                            }
                          }
                        ],
                          "ident" : "",
                          "audioMuted" : false,
                          "videoHidden" : false,
                          "magnetic" : false,
                          "matte" : 1,
                          "solo" : false,
                          "metadata" : {
                            "IsLocked" : "False",
                            "WinTrackHeight" : "56",
                            "trackHeight" : "54"
                          }
                      }
                    ],
                    "attributes" : {
                      "ident" : "Broadcast-Title-012",
                      "widthAttr" : 1405.0,
                      "heightAttr" : 160.0,
                      "gain" : 1.0,
                      "mixToMono" : false,
                      "assetProperties" : [
                        {
                          "type" : 0,
                          "name" : "Title",
                          "objects" : [ 484 ],
                          "themeMappings" :  {
                            "font-color" : "foreground-1"
                          }
                        },
                        {
                          "type" : 1,
                          "name" : "Fill",
                          "objects" : [ 482 ],
                          "themeMappings" :  {
                            "fill" : "background-1"
                          }
                        },
                        {
                          "type" : 1,
                          "name" : "Wiper",
                          "objects" : [ 489 ],
                          "themeMappings" :  {
                            "fill" : "foreground-1"
                          }
                        }
                      ]
                    },
                    "effects" : [

                    ],
                    "start" : 1928640000,
                    "duration" : 1764000000,
                    "mediaStart" : 0.0,
                    "mediaDuration" : 1764000000.0,
                    "scalar" : 1,
                    "metadata" : {
                      "AppliedThemeId" : "170ba59c-db5d-4b9a-a310-e7e99853a4b7",
                      "clipSpeedAttribute" : false,
                      "default-anchor0" : 0.0,
                      "default-anchor1" : 0.0,
                      "default-anchor2" : 0.0,
                      "default-geometryCrop0" : 0.0,
                      "default-geometryCrop2" : 0.0,
                      "default-height" : 160.0,
                      "default-rotation0" : 0.0,
                      "default-rotation1" : 0.0,
                      "default-rotation2" : 0.0,
                      "default-scale0" : 1.0,
                      "default-scale1" : 1.0,
                      "default-scale2" : 1.0,
                      "default-shear0" : 0.0,
                      "default-shear1" : 0.0,
                      "default-shear2" : 0.0,
                      "default-translation0" : 0.0,
                      "default-translation1" : 0.0,
                      "default-translation2" : 0.0,
                      "default-width" : 1405.0,
                      "effectApplied" : "none",
                      "isOpen" : false,
                      "lockAspectRatio" : true
                    },
                    "animationTracks" : {

                    }
                  }
                ]
              },
              {
                "trackIndex" : 119,
                "medias" : [
                  {
                    "id" : 494,
                    "_type" : "Group",
                    "parameters" : {
                      "translation0" : 350.0,
                      "translation1" : 103.0,
                      "scale0" : 0.213523131672598,
                      "scale1" : 0.21875,
                      "sourceCrop0" : 0.0,
                      "sourceCrop1" : 0.0,
                      "sourceCrop2" : 0.0,
                      "sourceCrop3" : 0.0,
                      "geometryCrop0" : 0.0,
                      "geometryCrop1" : 0.0,
                      "geometryCrop2" : 0.0,
                      "geometryCrop3" : 0.0,
                      "volume" : 1.0
                    },
                    "tracks" : [
                      {
                        "trackIndex" : 0,
                        "medias" : [
                          {
                            "id" : 495,
                            "_type" : "Group",
                            "parameters" : {
                              "translation0" : {
                                "type" : "double",
                                "defaultValue" : 0.0,
                                "keyframes" : [
                                  {
                                    "endTime" : 552720000,
                                    "time" : 0,
                                    "value" : 0.0,
                                    "interp" : "eioe",
                                    "duration" : 552720000
                                  },
                                  {
                                    "endTime" : 1775760000,
                                    "time" : 1375920000,
                                    "value" : 0.0,
                                    "interp" : "eioe",
                                    "duration" : 399840000
                                  }
                                ]
                              },
                              "translation1" : {
                                "type" : "double",
                                "defaultValue" : -305.610046386719,
                                "keyframes" : [
                                  {
                                    "endTime" : 552720000,
                                    "time" : 0,
                                    "value" : 0.0,
                                    "interp" : "eioe",
                                    "duration" : 552720000
                                  },
                                  {
                                    "endTime" : 1775760000,
                                    "time" : 1375920000,
                                    "value" : -304.610046386719,
                                    "interp" : "eioe",
                                    "duration" : 399840000
                                  }
                                ]
                              },
                              "sourceCrop0" : 0.0,
                              "sourceCrop1" : 0.0,
                              "sourceCrop2" : 0.0,
                              "sourceCrop3" : 0.0,
                              "geometryCrop0" : 0.0,
                              "geometryCrop1" : 0.0,
                              "geometryCrop2" : 0.0,
                              "geometryCrop3" : 0.0,
                              "volume" : 1.0
                            },
                            "tracks" : [
                              {
                                "trackIndex" : 0,
                                "medias" : [
                                  {
                                    "id" : 496,
                                    "_type" : "Group",
                                    "parameters" : {
                                      "sourceCrop0" : 0.0,
                                      "sourceCrop1" : 0.0,
                                      "sourceCrop2" : 0.0,
                                      "sourceCrop3" : 0.0,
                                      "geometryCrop0" : 0.0,
                                      "geometryCrop1" : 0.0,
                                      "geometryCrop2" : 0.0,
                                      "geometryCrop3" : 0.0,
                                      "volume" : 1.0
                                    },
                                    "tracks" : [
                                      {
                                        "trackIndex" : 0,
                                        "medias" : [
                                          {
                                            "id" : 497,
                                            "_type" : "Callout",
                                            "def" : {
                                              "kind" : "remix",
                                              "shape" : "shape-rectangle",
                                              "style" : "bold",
                                              "fill-color-blue" : 1.0,
                                              "fill-color-green" : 1.0,
                                              "fill-color-opacity" : 1.0,
                                              "fill-color-red" : 1.0,
                                              "hasDropShadow" : 0.0,
                                              "height" : 163.002035140991,
                                              "savedXScale" : 1.0,
                                              "savedYScale" : 1.0,
                                              "stroke-color-blue" : 1.0,
                                              "stroke-color-green" : 1.0,
                                              "stroke-color-opacity" : 1.0,
                                              "stroke-color-red" : 1.0,
                                              "stroke-width" : 0.0,
                                              "width" : 1403.00212860107,
                                              "custom" : "Y",
                                              "fill-style" : "solid",
                                              "stroke-style" : "solid"
                                            },
                                            "attributes" : {
                                              "ident" : "",
                                              "autoRotateText" : true
                                            },
                                            "parameters" : {
                                              "anchor0" : -1.0,
                                              "anchor1" : 2.0,
                                              "sourceCrop0" : 0.0,
                                              "sourceCrop1" : 0.0,
                                              "sourceCrop2" : 0.0,
                                              "sourceCrop3" : 0.0,
                                              "geometryCrop0" : 0.0,
                                              "geometryCrop1" : 0.0,
                                              "geometryCrop2" : 0.0,
                                              "geometryCrop3" : 0.0
                                            },
                                            "effects" : [

                                            ],
                                            "start" : 0,
                                            "duration" : 3528000000,
                                            "mediaStart" : 0,
                                            "mediaDuration" : 3528000000,
                                            "scalar" : 1,
                                            "metadata" : {
                                              "AppliedThemeId" : "",
                                              "clipSpeedAttribute" : false,
                                              "effectApplied" : "none",
                                              "lockAspectRatio" : false
                                            },
                                            "animationTracks" : {

                                            }
                                          }
                                        ],
                                          "ident" : "",
                                          "audioMuted" : false,
                                          "videoHidden" : false,
                                          "magnetic" : false,
                                          "matte" : 0,
                                          "solo" : false,
                                          "metadata" : {
                                            "IsLocked" : "False",
                                            "WinTrackHeight" : "56",
                                            "trackHeight" : "54"
                                          }
                                      },
                                      {
                                        "trackIndex" : 1,
                                        "medias" : [
                                          {
                                            "id" : 498,
                                            "_type" : "Callout",
                                            "def" : {
                                              "kind" : "remix",
                                              "shape" : "shape-rectangle",
                                              "style" : "bold",
                                              "fill-color-blue" : 0.756862759590149,
                                              "fill-color-green" : 0.18823529779911,
                                              "fill-color-opacity" : 1.0,
                                              "fill-color-red" : 0.960784316062927,
                                              "hasDropShadow" : 0.0,
                                              "height" : 160.0,
                                              "savedXScale" : 1.0,
                                              "savedYScale" : 1.0,
                                              "stroke-color-blue" : 0.886274516582489,
                                              "stroke-color-green" : 0.200000002980232,
                                              "stroke-color-opacity" : 0.0,
                                              "stroke-color-red" : 0.376470595598221,
                                              "stroke-width" : 0.0,
                                              "width" : 1400.0,
                                              "custom" : "Y",
                                              "fill-style" : "solid",
                                              "stroke-style" : "solid"
                                            },
                                            "attributes" : {
                                              "ident" : "",
                                              "autoRotateText" : true
                                            },
                                            "parameters" : {
                                              "sourceCrop0" : 0.0,
                                              "sourceCrop1" : 0.0,
                                              "sourceCrop2" : 0.0,
                                              "sourceCrop3" : 0.0,
                                              "geometryCrop0" : 0.0,
                                              "geometryCrop1" : 0.0,
                                              "geometryCrop2" : 0.0,
                                              "geometryCrop3" : 0.0
                                            },
                                            "effects" : [

                                            ],
                                            "start" : 0,
                                            "duration" : 3528000000,
                                            "mediaStart" : 0,
                                            "mediaDuration" : 3528000000,
                                            "scalar" : 1,
                                            "metadata" : {
                                              "AppliedThemeId" : "",
                                              "clipSpeedAttribute" : false,
                                              "effectApplied" : "none"
                                            },
                                            "animationTracks" : {

                                            }
                                          }
                                        ],
                                          "ident" : "",
                                          "audioMuted" : false,
                                          "videoHidden" : false,
                                          "magnetic" : false,
                                          "matte" : 1,
                                          "solo" : false,
                                          "metadata" : {
                                            "IsLocked" : "False",
                                            "WinTrackHeight" : "56",
                                            "trackHeight" : "54"
                                          }
                                      }
                                    ],
                                    "attributes" : {
                                      "ident" : "Fill-1400x160",
                                      "widthAttr" : 1405.0,
                                      "heightAttr" : 167.002,
                                      "gain" : 1.0,
                                      "mixToMono" : false
                                    },
                                    "effects" : [

                                    ],
                                    "start" : 0,
                                    "duration" : 3528000000,
                                    "mediaStart" : 0.0,
                                    "mediaDuration" : 3528000000.0,
                                    "scalar" : 1,
                                    "metadata" : {
                                      "clipSpeedAttribute" : false,
                                      "effectApplied" : "none",
                                      "isOpen" : false,
                                      "lockAspectRatio" : true
                                    },
                                    "animationTracks" : {

                                    }
                                  }
                                ],
                                  "ident" : "",
                                  "audioMuted" : false,
                                  "videoHidden" : false,
                                  "magnetic" : false,
                                  "matte" : 0,
                                  "solo" : false,
                                  "metadata" : {
                                    "IsLocked" : "False",
                                    "WinTrackHeight" : "56",
                                    "trackHeight" : "54"
                                  }
                              },
                              {
                                "trackIndex" : 1,
                                "medias" : [
                                  {
                                    "id" : 499,
                                    "_type" : "Callout",
                                    "def" : {
                                      "kind" : "remix",
                                      "shape" : "text",
                                      "style" : "urban",
                                      "enable-ligatures" : 1.0,
                                      "hasDropShadow" : 0.0,
                                      "height" : 170.0,
                                      "line-spacing" : 0.0,
                                      "savedXScale" : 1.0,
                                      "savedYScale" : 1.0,
                                      "width" : 1400.0,
                                      "word-wrap" : 1.0,
                                      "custom" : "Y",
                                      "horizontal-alignment" : "left",
                                      "resize-behavior" : "resizeText",
                                      "text" : "clear all from cells (Ctrl + Del + A)",
                                      "vertical-alignment" : "center",
                                      "font" : {
                                        "color-blue" : 1.0,
                                        "color-green" : 1.0,
                                        "color-red" : 1.0,
                                        "size" : 96.0,
                                        "tracking" : 0.0,
                                        "name" : "Dosis",
                                        "weight" : "Semi Bold"
                                      },
                                      "textAttributes" : {
                                        "type" : "textAttributeList",
                                        "keyframes" : [
                                          {
                                            "endTime" : 0,
                                            "time" : 0,
                                            "value" : [{"name":"underline","rangeEnd":37,"rangeStart":0,"value":0,"valueType":"int"},{"name":"strikethrough","rangeEnd":37,"rangeStart":0,"value":0,"valueType":"int"},{"name":"fontName","rangeEnd":37,"rangeStart":0,"value":"Roboto","valueType":"string"},{"name":"kerning","rangeEnd":37,"rangeStart":0,"value":0.049883078231292483,"valueType":"double"},{"name":"fontItalic","rangeEnd":37,"rangeStart":0,"value":0,"valueType":"int"},{"name":"fontWeight","rangeEnd":37,"rangeStart":0,"value":700,"valueType":"int"},{"name":"fontSize","rangeEnd":37,"rangeStart":0,"value":86,"valueType":"double"},{"name":"fgColor","rangeEnd":37,"rangeStart":0,"value":"(110,110,110,255)","valueType":"color"}],
                                            "duration" : 0
                                          }
                                        ]
                                      }
                                    },
                                    "attributes" : {
                                      "ident" : "",
                                      "autoRotateText" : true
                                    },
                                    "parameters" : {
                                      "translation1" : -2.0,
                                      "sourceCrop0" : 0.0,
                                      "sourceCrop1" : 0.0,
                                      "sourceCrop2" : 0.0,
                                      "sourceCrop3" : 0.0,
                                      "geometryCrop0" : 0.0,
                                      "geometryCrop1" : 0.0,
                                      "geometryCrop2" : 0.0,
                                      "geometryCrop3" : 0.0
                                    },
                                    "effects" : [

                                    ],
                                    "start" : 0,
                                    "duration" : 3528000000,
                                    "mediaStart" : 0,
                                    "mediaDuration" : 3528000000,
                                    "scalar" : 1,
                                    "metadata" : {
                                      "AppliedThemeId" : "",
                                      "clipSpeedAttribute" : false,
                                      "effectApplied" : "none",
                                      "lockAspectRatio" : false
                                    },
                                    "animationTracks" : {

                                    }
                                  }
                                ],
                                  "ident" : "",
                                  "audioMuted" : false,
                                  "videoHidden" : false,
                                  "magnetic" : false,
                                  "matte" : 0,
                                  "solo" : false,
                                  "metadata" : {
                                    "IsLocked" : "False",
                                    "WinTrackHeight" : "56",
                                    "trackHeight" : "54"
                                  }
                              }
                            ],
                            "attributes" : {
                              "ident" : "BP-Title-11",
                              "widthAttr" : 1405.0,
                              "heightAttr" : 167.002,
                              "gain" : 1.0,
                              "mixToMono" : false,
                              "assetProperties" : [
                                {
                                  "type" : 0,
                                  "name" : "Title",
                                  "objects" : [ 499 ],
                                  "themeMappings" :  {
                                    "font-color" : "foreground-1"
                                  }
                                },
                                {
                                  "type" : 1,
                                  "name" : "Fill",
                                  "objects" : [ 497 ],
                                  "themeMappings" :  {
                                    "fill" : "background-1"
                                  }
                                }
                              ]
                            },
                            "effects" : [

                            ],
                            "start" : 0,
                            "duration" : 3528000000,
                            "mediaStart" : 0.0,
                            "mediaDuration" : 3528000000.0,
                            "scalar" : 1,
                            "metadata" : {
                              "clipSpeedAttribute" : false,
                              "effectApplied" : "none",
                              "isOpen" : false,
                              "lockAspectRatio" : true
                            },
                            "animationTracks" : {
                              "visual" : [
                                {
                                  "endTime" : 552720000,
                                  "duration" : 552720000,
                                  "range" : [ 0, 552720000],
                                  "interp" : "eioe"
                                },
                                {
                                  "endTime" : 1775760000,
                                  "duration" : 399840000,
                                  "range" : [ 1375920000, 399840000],
                                  "interp" : "eioe"
                                }
                              ]
                            }
                          }
                        ],
                          "ident" : "",
                          "audioMuted" : false,
                          "videoHidden" : false,
                          "magnetic" : false,
                          "matte" : 0,
                          "solo" : false,
                          "metadata" : {
                            "IsLocked" : "False",
                            "WinTrackHeight" : "56",
                            "trackHeight" : "54"
                          }
                      },
                      {
                        "trackIndex" : 1,
                        "medias" : [
                          {
                            "id" : 500,
                            "_type" : "Group",
                            "parameters" : {
                              "translation0" : {
                                "type" : "double",
                                "defaultValue" : 0.0,
                                "keyframes" : [
                                  {
                                    "endTime" : 552720000,
                                    "time" : 0,
                                    "value" : 0.0,
                                    "interp" : "eioe",
                                    "duration" : 552720000
                                  },
                                  {
                                    "endTime" : 1775760000,
                                    "time" : 1375920000,
                                    "value" : 0.0,
                                    "interp" : "eioe",
                                    "duration" : 399840000
                                  }
                                ]
                              },
                              "translation1" : {
                                "type" : "double",
                                "defaultValue" : -144.610046386719,
                                "keyframes" : [
                                  {
                                    "endTime" : 552720000,
                                    "time" : 0,
                                    "value" : 0.0,
                                    "interp" : "eioe",
                                    "duration" : 552720000
                                  },
                                  {
                                    "endTime" : 1775760000,
                                    "time" : 1375920000,
                                    "value" : -144.610046386719,
                                    "interp" : "eioe",
                                    "duration" : 399840000
                                  }
                                ]
                              },
                              "sourceCrop0" : 0.0,
                              "sourceCrop1" : 0.0,
                              "sourceCrop2" : 0.0,
                              "sourceCrop3" : 0.0,
                              "geometryCrop0" : 0.0,
                              "geometryCrop1" : 0.0,
                              "geometryCrop2" : 0.0,
                              "geometryCrop3" : 0.0,
                              "opacity" : {
                                "type" : "double",
                                "defaultValue" : 1.0,
                                "keyframes" : [
                                  {
                                    "endTime" : 552720000,
                                    "time" : 0,
                                    "value" : 1.0,
                                    "interp" : "eioe",
                                    "duration" : 552720000
                                  }
                                ]
                              },
                              "volume" : 1.0
                            },
                            "tracks" : [
                              {
                                "trackIndex" : 0,
                                "medias" : [
                                  {
                                    "id" : 501,
                                    "_type" : "Callout",
                                    "def" : {
                                      "kind" : "remix",
                                      "shape" : "shape-rectangle",
                                      "style" : "bold",
                                      "fill-color-blue" : 0.913725490196078,
                                      "fill-color-green" : 0.949019607843137,
                                      "fill-color-opacity" : 1.0,
                                      "fill-color-red" : 0.933333333333333,
                                      "hasDropShadow" : 0.0,
                                      "height" : 163.002035140991,
                                      "savedXScale" : 1.0,
                                      "savedYScale" : 1.0,
                                      "stroke-color-blue" : 1.0,
                                      "stroke-color-green" : 1.0,
                                      "stroke-color-opacity" : 1.0,
                                      "stroke-color-red" : 1.0,
                                      "stroke-width" : 0.0,
                                      "width" : 1403.00212860107,
                                      "custom" : "Y",
                                      "fill-style" : "solid",
                                      "stroke-style" : "solid"
                                    },
                                    "attributes" : {
                                      "ident" : "",
                                      "autoRotateText" : true
                                    },
                                    "parameters" : {
                                      "anchor0" : -1.0,
                                      "anchor1" : 2.0,
                                      "sourceCrop0" : 0.0,
                                      "sourceCrop1" : 0.0,
                                      "sourceCrop2" : 0.0,
                                      "sourceCrop3" : 0.0,
                                      "geometryCrop0" : 0.0,
                                      "geometryCrop1" : 0.0,
                                      "geometryCrop2" : 0.0,
                                      "geometryCrop3" : 0.0
                                    },
                                    "effects" : [

                                    ],
                                    "start" : 0,
                                    "duration" : 3528000000,
                                    "mediaStart" : 0,
                                    "mediaDuration" : 3528000000,
                                    "scalar" : 1,
                                    "metadata" : {
                                      "AppliedThemeId" : "",
                                      "clipSpeedAttribute" : false,
                                      "effectApplied" : "none",
                                      "lockAspectRatio" : false
                                    },
                                    "animationTracks" : {

                                    }
                                  }
                                ],
                                  "ident" : "",
                                  "audioMuted" : false,
                                  "videoHidden" : false,
                                  "magnetic" : false,
                                  "matte" : 0,
                                  "solo" : false,
                                  "metadata" : {
                                    "IsLocked" : "False",
                                    "WinTrackHeight" : "56",
                                    "trackHeight" : "54"
                                  }
                              },
                              {
                                "trackIndex" : 1,
                                "medias" : [
                                  {
                                    "id" : 502,
                                    "_type" : "Callout",
                                    "def" : {
                                      "kind" : "remix",
                                      "shape" : "shape-rectangle",
                                      "style" : "bold",
                                      "fill-color-blue" : 0.756862759590149,
                                      "fill-color-green" : 0.18823529779911,
                                      "fill-color-opacity" : 1.0,
                                      "fill-color-red" : 0.960784316062927,
                                      "hasDropShadow" : 0.0,
                                      "height" : 160.0,
                                      "savedXScale" : 1.0,
                                      "savedYScale" : 1.0,
                                      "stroke-color-blue" : 0.886274516582489,
                                      "stroke-color-green" : 0.200000002980232,
                                      "stroke-color-opacity" : 0.0,
                                      "stroke-color-red" : 0.376470595598221,
                                      "stroke-width" : 0.0,
                                      "width" : 1400.0,
                                      "custom" : "Y",
                                      "fill-style" : "solid",
                                      "stroke-style" : "solid"
                                    },
                                    "attributes" : {
                                      "ident" : "",
                                      "autoRotateText" : true
                                    },
                                    "parameters" : {
                                      "sourceCrop0" : 0.0,
                                      "sourceCrop1" : 0.0,
                                      "sourceCrop2" : 0.0,
                                      "sourceCrop3" : 0.0,
                                      "geometryCrop0" : 0.0,
                                      "geometryCrop1" : 0.0,
                                      "geometryCrop2" : 0.0,
                                      "geometryCrop3" : 0.0
                                    },
                                    "effects" : [

                                    ],
                                    "start" : 0,
                                    "duration" : 3528000000,
                                    "mediaStart" : 0,
                                    "mediaDuration" : 3528000000,
                                    "scalar" : 1,
                                    "metadata" : {
                                      "AppliedThemeId" : "",
                                      "clipSpeedAttribute" : false,
                                      "effectApplied" : "none"
                                    },
                                    "animationTracks" : {

                                    }
                                  }
                                ],
                                  "ident" : "",
                                  "audioMuted" : false,
                                  "videoHidden" : false,
                                  "magnetic" : false,
                                  "matte" : 1,
                                  "solo" : false,
                                  "metadata" : {
                                    "IsLocked" : "False",
                                    "WinTrackHeight" : "56",
                                    "trackHeight" : "54"
                                  }
                              }
                            ],
                            "attributes" : {
                              "ident" : "Rect-1400x1600-Mask",
                              "widthAttr" : 1405.0,
                              "heightAttr" : 167.002,
                              "gain" : 1.0,
                              "mixToMono" : false
                            },
                            "effects" : [

                            ],
                            "start" : 0,
                            "duration" : 3528000000,
                            "mediaStart" : 0.0,
                            "mediaDuration" : 3528000000.0,
                            "scalar" : 1,
                            "metadata" : {
                              "clipSpeedAttribute" : false,
                              "effectApplied" : "none",
                              "isOpen" : false,
                              "lockAspectRatio" : true
                            },
                            "animationTracks" : {
                              "visual" : [
                                {
                                  "endTime" : 552720000,
                                  "duration" : 552720000,
                                  "range" : [ 0, 552720000],
                                  "interp" : "eioe"
                                },
                                {
                                  "endTime" : 1775760000,
                                  "duration" : 399840000,
                                  "range" : [ 1375920000, 399840000],
                                  "interp" : "eioe"
                                }
                              ]
                            }
                          }
                        ],
                          "ident" : "",
                          "audioMuted" : false,
                          "videoHidden" : false,
                          "magnetic" : false,
                          "matte" : 1,
                          "solo" : false,
                          "metadata" : {
                            "IsLocked" : "False",
                            "WinTrackHeight" : "56",
                            "trackHeight" : "54"
                          }
                      },
                      {
                        "trackIndex" : 2,
                        "medias" : [
                          {
                            "id" : 503,
                            "_type" : "Group",
                            "parameters" : {
                              "translation0" : {
                                "type" : "double",
                                "defaultValue" : 0.0,
                                "keyframes" : [
                                  {
                                    "endTime" : 552720000,
                                    "time" : 0,
                                    "value" : 0.0,
                                    "interp" : "eioe",
                                    "duration" : 552720000
                                  },
                                  {
                                    "endTime" : 1775760000,
                                    "time" : 1375920000,
                                    "value" : 0.0,
                                    "interp" : "eioe",
                                    "duration" : 399840000
                                  }
                                ]
                              },
                              "translation1" : {
                                "type" : "double",
                                "defaultValue" : -233.610046386719,
                                "keyframes" : [
                                  {
                                    "endTime" : 552720000,
                                    "time" : 0,
                                    "value" : 90.0,
                                    "interp" : "eioe",
                                    "duration" : 552720000
                                  },
                                  {
                                    "endTime" : 1775760000,
                                    "time" : 1375920000,
                                    "value" : -233.610046386719,
                                    "interp" : "eioe",
                                    "duration" : 399840000
                                  }
                                ]
                              },
                              "sourceCrop0" : 0.0,
                              "sourceCrop1" : 0.0,
                              "sourceCrop2" : 0.0,
                              "sourceCrop3" : 0.0,
                              "geometryCrop0" : 0.0,
                              "geometryCrop1" : 0.0,
                              "geometryCrop2" : 0.0,
                              "geometryCrop3" : 0.0,
                              "opacity" : {
                                "type" : "double",
                                "defaultValue" : 1.0,
                                "keyframes" : [
                                  {
                                    "endTime" : 552720000,
                                    "time" : 0,
                                    "value" : 1.0,
                                    "interp" : "eioe",
                                    "duration" : 552720000
                                  }
                                ]
                              },
                              "volume" : 1.0
                            },
                            "tracks" : [
                              {
                                "trackIndex" : 0,
                                "medias" : [
                                  {
                                    "id" : 504,
                                    "_type" : "Callout",
                                    "def" : {
                                      "kind" : "remix",
                                      "shape" : "shape-rectangle",
                                      "style" : "bold",
                                      "fill-color-blue" : 0.2196078431,
                                      "fill-color-green" : 0.8745098039,
                                      "fill-color-opacity" : 1.0,
                                      "fill-color-red" : 1.0,
                                      "hasDropShadow" : 0.0,
                                      "height" : 163.002035140991,
                                      "savedXScale" : 1.0,
                                      "savedYScale" : 1.0,
                                      "stroke-color-blue" : 1.0,
                                      "stroke-color-green" : 1.0,
                                      "stroke-color-opacity" : 1.0,
                                      "stroke-color-red" : 1.0,
                                      "stroke-width" : 0.0,
                                      "width" : 1403.00212860107,
                                      "custom" : "Y",
                                      "fill-style" : "solid",
                                      "stroke-style" : "solid"
                                    },
                                    "attributes" : {
                                      "ident" : "",
                                      "autoRotateText" : true
                                    },
                                    "parameters" : {
                                      "anchor0" : -1.0,
                                      "anchor1" : 2.0,
                                      "sourceCrop0" : 0.0,
                                      "sourceCrop1" : 0.0,
                                      "sourceCrop2" : 0.0,
                                      "sourceCrop3" : 0.0,
                                      "geometryCrop0" : 0.0,
                                      "geometryCrop1" : 0.0,
                                      "geometryCrop2" : 0.0,
                                      "geometryCrop3" : 0.0
                                    },
                                    "effects" : [

                                    ],
                                    "start" : 0,
                                    "duration" : 3528000000,
                                    "mediaStart" : 0,
                                    "mediaDuration" : 3528000000,
                                    "scalar" : 1,
                                    "metadata" : {
                                      "AppliedThemeId" : "",
                                      "clipSpeedAttribute" : false,
                                      "effectApplied" : "none",
                                      "lockAspectRatio" : false
                                    },
                                    "animationTracks" : {

                                    }
                                  }
                                ],
                                  "ident" : "",
                                  "audioMuted" : false,
                                  "videoHidden" : false,
                                  "magnetic" : false,
                                  "matte" : 0,
                                  "solo" : false,
                                  "metadata" : {
                                    "IsLocked" : "False",
                                    "WinTrackHeight" : "56",
                                    "trackHeight" : "54"
                                  }
                              },
                              {
                                "trackIndex" : 1,
                                "medias" : [
                                  {
                                    "id" : 505,
                                    "_type" : "Callout",
                                    "def" : {
                                      "kind" : "remix",
                                      "shape" : "shape-rectangle",
                                      "style" : "bold",
                                      "fill-color-blue" : 0.756862759590149,
                                      "fill-color-green" : 0.18823529779911,
                                      "fill-color-opacity" : 1.0,
                                      "fill-color-red" : 0.960784316062927,
                                      "hasDropShadow" : 0.0,
                                      "height" : 160.0,
                                      "savedXScale" : 1.0,
                                      "savedYScale" : 1.0,
                                      "stroke-color-blue" : 0.886274516582489,
                                      "stroke-color-green" : 0.200000002980232,
                                      "stroke-color-opacity" : 0.0,
                                      "stroke-color-red" : 0.376470595598221,
                                      "stroke-width" : 0.0,
                                      "width" : 1400.0,
                                      "custom" : "Y",
                                      "fill-style" : "solid",
                                      "stroke-style" : "solid"
                                    },
                                    "attributes" : {
                                      "ident" : "",
                                      "autoRotateText" : true
                                    },
                                    "parameters" : {
                                      "translation1" : {
                                        "type" : "double",
                                        "defaultValue" : -1.0,
                                        "keyframes" : [
                                          {
                                            "endTime" : 270480000,
                                            "time" : 0,
                                            "value" : 0.0,
                                            "duration" : 270480000
                                          }
                                        ]
                                      },
                                      "scale0" : {
                                        "type" : "double",
                                        "defaultValue" : 1.0,
                                        "keyframes" : [
                                          {
                                            "endTime" : 270480000,
                                            "time" : 0,
                                            "value" : 1.0,
                                            "duration" : 270480000
                                          }
                                        ]
                                      },
                                      "scale1" : {
                                        "type" : "double",
                                        "defaultValue" : 0.125,
                                        "keyframes" : [
                                          {
                                            "endTime" : 270480000,
                                            "time" : 0,
                                            "value" : 0.5,
                                            "duration" : 270480000
                                          },
                                          {
                                            "endTime" : 552720000,
                                            "time" : 282240000,
                                            "value" : 0.125,
                                            "duration" : 270480000
                                          }
                                        ]
                                      },
                                      "sourceCrop0" : 0.0,
                                      "sourceCrop1" : 0.0,
                                      "sourceCrop2" : 0.0,
                                      "sourceCrop3" : 0.0,
                                      "geometryCrop0" : 0.0,
                                      "geometryCrop1" : 0.0,
                                      "geometryCrop2" : 0.0,
                                      "geometryCrop3" : 0.0
                                    },
                                    "effects" : [

                                    ],
                                    "start" : 0,
                                    "duration" : 3528000000,
                                    "mediaStart" : 0,
                                    "mediaDuration" : 3528000000,
                                    "scalar" : 1,
                                    "metadata" : {
                                      "AppliedThemeId" : "",
                                      "clipSpeedAttribute" : false,
                                      "effectApplied" : "none"
                                    },
                                    "animationTracks" : {
                                      "visual" : [
                                        {
                                          "endTime" : 270480000,
                                          "duration" : 270480000,
                                          "range" : [ 0, 270480000]
                                        },
                                        {
                                          "endTime" : 552720000,
                                          "duration" : 270480000,
                                          "range" : [ 282240000, 270480000]
                                        }
                                      ]
                                    }
                                  }
                                ],
                                  "ident" : "",
                                  "audioMuted" : false,
                                  "videoHidden" : false,
                                  "magnetic" : false,
                                  "matte" : 1,
                                  "solo" : false,
                                  "metadata" : {
                                    "IsLocked" : "False",
                                    "WinTrackHeight" : "56",
                                    "trackHeight" : "54"
                                  }
                              }
                            ],
                            "attributes" : {
                              "ident" : "Animated-Pulse-1400x20-To-1400x80",
                              "widthAttr" : 1405.0,
                              "heightAttr" : 167.002,
                              "gain" : 1.0,
                              "mixToMono" : false,
                              "assetProperties" : [
                                {
                                  "type" : 1,
                                  "name" : "Color",
                                  "objects" : [ 504 ],
                                  "themeMappings" :  {
                                    "fill" : "accent-1"
                                  }
                                }
                              ]
                            },
                            "effects" : [

                            ],
                            "start" : 0,
                            "duration" : 3528000000,
                            "mediaStart" : 0.0,
                            "mediaDuration" : 3528000000.0,
                            "scalar" : 1,
                            "metadata" : {
                              "AppliedThemeId" : "8e797988-b823-4beb-b251-1d31b461ba07",
                              "clipSpeedAttribute" : false,
                              "effectApplied" : "none",
                              "isOpen" : false,
                              "lockAspectRatio" : true
                            },
                            "animationTracks" : {
                              "visual" : [
                                {
                                  "endTime" : 552720000,
                                  "duration" : 552720000,
                                  "range" : [ 0, 552720000],
                                  "interp" : "eioe"
                                },
                                {
                                  "endTime" : 1775760000,
                                  "duration" : 399840000,
                                  "range" : [ 1375920000, 399840000],
                                  "interp" : "eioe"
                                }
                              ]
                            }
                          }
                        ],
                          "ident" : "",
                          "audioMuted" : false,
                          "videoHidden" : false,
                          "magnetic" : false,
                          "matte" : 0,
                          "solo" : false,
                          "metadata" : {
                            "IsLocked" : "False",
                            "WinTrackHeight" : "56",
                            "trackHeight" : "54"
                          }
                      },
                      {
                        "trackIndex" : 3,
                        "medias" : [
                          {
                            "id" : 506,
                            "_type" : "Group",
                            "parameters" : {
                              "translation0" : {
                                "type" : "double",
                                "defaultValue" : 0.0,
                                "keyframes" : [
                                  {
                                    "endTime" : 552720000,
                                    "time" : 0,
                                    "value" : 0.0,
                                    "interp" : "eioe",
                                    "duration" : 552720000
                                  },
                                  {
                                    "endTime" : 1775760000,
                                    "time" : 1375920000,
                                    "value" : 0.0,
                                    "interp" : "eioe",
                                    "duration" : 399840000
                                  }
                                ]
                              },
                              "translation1" : {
                                "type" : "double",
                                "defaultValue" : -143.610046386719,
                                "keyframes" : [
                                  {
                                    "endTime" : 552720000,
                                    "time" : 0,
                                    "value" : 0.0,
                                    "interp" : "eioe",
                                    "duration" : 552720000
                                  },
                                  {
                                    "endTime" : 1775760000,
                                    "time" : 1375920000,
                                    "value" : -143.610046386719,
                                    "interp" : "eioe",
                                    "duration" : 399840000
                                  }
                                ]
                              },
                              "sourceCrop0" : 0.0,
                              "sourceCrop1" : 0.0,
                              "sourceCrop2" : 0.0,
                              "sourceCrop3" : 0.0,
                              "geometryCrop0" : 0.0,
                              "geometryCrop1" : 0.0,
                              "geometryCrop2" : 0.0,
                              "geometryCrop3" : 0.0,
                              "opacity" : {
                                "type" : "double",
                                "defaultValue" : 1.0,
                                "keyframes" : [
                                  {
                                    "endTime" : 552720000,
                                    "time" : 0,
                                    "value" : 1.0,
                                    "interp" : "eioe",
                                    "duration" : 552720000
                                  }
                                ]
                              },
                              "volume" : 1.0
                            },
                            "tracks" : [
                              {
                                "trackIndex" : 0,
                                "medias" : [
                                  {
                                    "id" : 507,
                                    "_type" : "Callout",
                                    "def" : {
                                      "kind" : "remix",
                                      "shape" : "shape-rectangle",
                                      "style" : "bold",
                                      "fill-color-blue" : 0.913725490196078,
                                      "fill-color-green" : 0.949019607843137,
                                      "fill-color-opacity" : 1.0,
                                      "fill-color-red" : 0.933333333333333,
                                      "hasDropShadow" : 0.0,
                                      "height" : 163.002035140991,
                                      "savedXScale" : 1.0,
                                      "savedYScale" : 1.0,
                                      "stroke-color-blue" : 1.0,
                                      "stroke-color-green" : 1.0,
                                      "stroke-color-opacity" : 1.0,
                                      "stroke-color-red" : 1.0,
                                      "stroke-width" : 0.0,
                                      "width" : 1403.00212860107,
                                      "custom" : "Y",
                                      "fill-style" : "solid",
                                      "stroke-style" : "solid"
                                    },
                                    "attributes" : {
                                      "ident" : "",
                                      "autoRotateText" : true
                                    },
                                    "parameters" : {
                                      "anchor0" : -1.0,
                                      "anchor1" : 2.0,
                                      "sourceCrop0" : 0.0,
                                      "sourceCrop1" : 0.0,
                                      "sourceCrop2" : 0.0,
                                      "sourceCrop3" : 0.0,
                                      "geometryCrop0" : 0.0,
                                      "geometryCrop1" : 0.0,
                                      "geometryCrop2" : 0.0,
                                      "geometryCrop3" : 0.0
                                    },
                                    "effects" : [

                                    ],
                                    "start" : 0,
                                    "duration" : 3528000000,
                                    "mediaStart" : 0,
                                    "mediaDuration" : 3528000000,
                                    "scalar" : 1,
                                    "metadata" : {
                                      "AppliedThemeId" : "",
                                      "clipSpeedAttribute" : false,
                                      "effectApplied" : "none",
                                      "lockAspectRatio" : false
                                    },
                                    "animationTracks" : {

                                    }
                                  }
                                ],
                                  "ident" : "",
                                  "audioMuted" : false,
                                  "videoHidden" : false,
                                  "magnetic" : false,
                                  "matte" : 0,
                                  "solo" : false,
                                  "metadata" : {
                                    "IsLocked" : "False",
                                    "WinTrackHeight" : "56",
                                    "trackHeight" : "54"
                                  }
                              },
                              {
                                "trackIndex" : 1,
                                "medias" : [
                                  {
                                    "id" : 508,
                                    "_type" : "Callout",
                                    "def" : {
                                      "kind" : "remix",
                                      "shape" : "shape-rectangle",
                                      "style" : "bold",
                                      "fill-color-blue" : 0.756862759590149,
                                      "fill-color-green" : 0.18823529779911,
                                      "fill-color-opacity" : 1.0,
                                      "fill-color-red" : 0.960784316062927,
                                      "hasDropShadow" : 0.0,
                                      "height" : 160.0,
                                      "savedXScale" : 1.0,
                                      "savedYScale" : 1.0,
                                      "stroke-color-blue" : 0.886274516582489,
                                      "stroke-color-green" : 0.200000002980232,
                                      "stroke-color-opacity" : 0.0,
                                      "stroke-color-red" : 0.376470595598221,
                                      "stroke-width" : 0.0,
                                      "width" : 1400.0,
                                      "custom" : "Y",
                                      "fill-style" : "solid",
                                      "stroke-style" : "solid"
                                    },
                                    "attributes" : {
                                      "ident" : "",
                                      "autoRotateText" : true
                                    },
                                    "parameters" : {
                                      "sourceCrop0" : 0.0,
                                      "sourceCrop1" : 0.0,
                                      "sourceCrop2" : 0.0,
                                      "sourceCrop3" : 0.0,
                                      "geometryCrop0" : 0.0,
                                      "geometryCrop1" : 0.0,
                                      "geometryCrop2" : 0.0,
                                      "geometryCrop3" : 0.0
                                    },
                                    "effects" : [

                                    ],
                                    "start" : 0,
                                    "duration" : 3528000000,
                                    "mediaStart" : 0,
                                    "mediaDuration" : 3528000000,
                                    "scalar" : 1,
                                    "metadata" : {
                                      "AppliedThemeId" : "",
                                      "clipSpeedAttribute" : false,
                                      "effectApplied" : "none"
                                    },
                                    "animationTracks" : {

                                    }
                                  }
                                ],
                                  "ident" : "",
                                  "audioMuted" : false,
                                  "videoHidden" : false,
                                  "magnetic" : false,
                                  "matte" : 1,
                                  "solo" : false,
                                  "metadata" : {
                                    "IsLocked" : "False",
                                    "WinTrackHeight" : "56",
                                    "trackHeight" : "54"
                                  }
                              }
                            ],
                            "attributes" : {
                              "ident" : "Rect-1400x1600-Mask",
                              "widthAttr" : 1405.0,
                              "heightAttr" : 167.002,
                              "gain" : 1.0,
                              "mixToMono" : false
                            },
                            "effects" : [

                            ],
                            "start" : 0,
                            "duration" : 3528000000,
                            "mediaStart" : 0.0,
                            "mediaDuration" : 3528000000.0,
                            "scalar" : 1,
                            "metadata" : {
                              "clipSpeedAttribute" : false,
                              "effectApplied" : "none",
                              "isOpen" : false,
                              "lockAspectRatio" : true
                            },
                            "animationTracks" : {
                              "visual" : [
                                {
                                  "endTime" : 552720000,
                                  "duration" : 552720000,
                                  "range" : [ 0, 552720000],
                                  "interp" : "eioe"
                                },
                                {
                                  "endTime" : 1775760000,
                                  "duration" : 399840000,
                                  "range" : [ 1375920000, 399840000],
                                  "interp" : "eioe"
                                }
                              ]
                            }
                          }
                        ],
                          "ident" : "",
                          "audioMuted" : false,
                          "videoHidden" : false,
                          "magnetic" : false,
                          "matte" : 1,
                          "solo" : false,
                          "metadata" : {
                            "IsLocked" : "False",
                            "WinTrackHeight" : "56",
                            "trackHeight" : "54"
                          }
                      }
                    ],
                    "attributes" : {
                      "ident" : "Broadcast-Title-012",
                      "widthAttr" : 1405.0,
                      "heightAttr" : 160.0,
                      "gain" : 1.0,
                      "mixToMono" : false,
                      "assetProperties" : [
                        {
                          "type" : 0,
                          "name" : "Title",
                          "objects" : [ 499 ],
                          "themeMappings" :  {
                            "font-color" : "foreground-1"
                          }
                        },
                        {
                          "type" : 1,
                          "name" : "Fill",
                          "objects" : [ 497 ],
                          "themeMappings" :  {
                            "fill" : "background-1"
                          }
                        },
                        {
                          "type" : 1,
                          "name" : "Wiper",
                          "objects" : [ 504 ],
                          "themeMappings" :  {
                            "fill" : "foreground-1"
                          }
                        }
                      ]
                    },
                    "effects" : [

                    ],
                    "start" : 1928640000,
                    "duration" : 1764000000,
                    "mediaStart" : 0.0,
                    "mediaDuration" : 1764000000.0,
                    "scalar" : 1,
                    "metadata" : {
                      "AppliedThemeId" : "170ba59c-db5d-4b9a-a310-e7e99853a4b7",
                      "clipSpeedAttribute" : false,
                      "default-anchor0" : 0.0,
                      "default-anchor1" : 0.0,
                      "default-anchor2" : 0.0,
                      "default-geometryCrop0" : 0.0,
                      "default-geometryCrop2" : 0.0,
                      "default-height" : 160.0,
                      "default-rotation0" : 0.0,
                      "default-rotation1" : 0.0,
                      "default-rotation2" : 0.0,
                      "default-scale0" : 1.0,
                      "default-scale1" : 1.0,
                      "default-scale2" : 1.0,
                      "default-shear0" : 0.0,
                      "default-shear1" : 0.0,
                      "default-shear2" : 0.0,
                      "default-translation0" : 0.0,
                      "default-translation1" : 0.0,
                      "default-translation2" : 0.0,
                      "default-width" : 1405.0,
                      "effectApplied" : "none",
                      "isOpen" : false,
                      "lockAspectRatio" : true
                    },
                    "animationTracks" : {

                    }
                  }
                ]
              },
              {
                "trackIndex" : 120,
                "medias" : [
                  {
                    "id" : 509,
                    "_type" : "Group",
                    "parameters" : {
                      "translation0" : -415.0,
                      "translation1" : -249.34375,
                      "scale0" : 0.213523131672598,
                      "scale1" : 0.21875,
                      "sourceCrop0" : 0.0,
                      "sourceCrop1" : 0.0,
                      "sourceCrop2" : 0.0,
                      "sourceCrop3" : 0.0,
                      "geometryCrop0" : 0.0,
                      "geometryCrop1" : 0.0,
                      "geometryCrop2" : 0.0,
                      "geometryCrop3" : 0.0,
                      "volume" : 1.0
                    },
                    "tracks" : [
                      {
                        "trackIndex" : 0,
                        "medias" : [
                          {
                            "id" : 510,
                            "_type" : "Group",
                            "parameters" : {
                              "translation0" : {
                                "type" : "double",
                                "defaultValue" : 0.0,
                                "keyframes" : [
                                  {
                                    "endTime" : 552720000,
                                    "time" : 0,
                                    "value" : 0.0,
                                    "interp" : "eioe",
                                    "duration" : 552720000
                                  },
                                  {
                                    "endTime" : 1775760000,
                                    "time" : 1375920000,
                                    "value" : 0.0,
                                    "interp" : "eioe",
                                    "duration" : 399840000
                                  }
                                ]
                              },
                              "translation1" : {
                                "type" : "double",
                                "defaultValue" : -305.610046386719,
                                "keyframes" : [
                                  {
                                    "endTime" : 552720000,
                                    "time" : 0,
                                    "value" : 0.0,
                                    "interp" : "eioe",
                                    "duration" : 552720000
                                  },
                                  {
                                    "endTime" : 1775760000,
                                    "time" : 1375920000,
                                    "value" : -304.610046386719,
                                    "interp" : "eioe",
                                    "duration" : 399840000
                                  }
                                ]
                              },
                              "sourceCrop0" : 0.0,
                              "sourceCrop1" : 0.0,
                              "sourceCrop2" : 0.0,
                              "sourceCrop3" : 0.0,
                              "geometryCrop0" : 0.0,
                              "geometryCrop1" : 0.0,
                              "geometryCrop2" : 0.0,
                              "geometryCrop3" : 0.0,
                              "volume" : 1.0
                            },
                            "tracks" : [
                              {
                                "trackIndex" : 0,
                                "medias" : [
                                  {
                                    "id" : 511,
                                    "_type" : "Group",
                                    "parameters" : {
                                      "sourceCrop0" : 0.0,
                                      "sourceCrop1" : 0.0,
                                      "sourceCrop2" : 0.0,
                                      "sourceCrop3" : 0.0,
                                      "geometryCrop0" : 0.0,
                                      "geometryCrop1" : 0.0,
                                      "geometryCrop2" : 0.0,
                                      "geometryCrop3" : 0.0,
                                      "volume" : 1.0
                                    },
                                    "tracks" : [
                                      {
                                        "trackIndex" : 0,
                                        "medias" : [
                                          {
                                            "id" : 512,
                                            "_type" : "Callout",
                                            "def" : {
                                              "kind" : "remix",
                                              "shape" : "shape-rectangle",
                                              "style" : "bold",
                                              "fill-color-blue" : 1.0,
                                              "fill-color-green" : 1.0,
                                              "fill-color-opacity" : 1.0,
                                              "fill-color-red" : 1.0,
                                              "hasDropShadow" : 0.0,
                                              "height" : 163.002035140991,
                                              "savedXScale" : 1.0,
                                              "savedYScale" : 1.0,
                                              "stroke-color-blue" : 1.0,
                                              "stroke-color-green" : 1.0,
                                              "stroke-color-opacity" : 1.0,
                                              "stroke-color-red" : 1.0,
                                              "stroke-width" : 0.0,
                                              "width" : 1403.00212860107,
                                              "custom" : "Y",
                                              "fill-style" : "solid",
                                              "stroke-style" : "solid"
                                            },
                                            "attributes" : {
                                              "ident" : "",
                                              "autoRotateText" : true
                                            },
                                            "parameters" : {
                                              "anchor0" : -1.0,
                                              "anchor1" : 2.0,
                                              "sourceCrop0" : 0.0,
                                              "sourceCrop1" : 0.0,
                                              "sourceCrop2" : 0.0,
                                              "sourceCrop3" : 0.0,
                                              "geometryCrop0" : 0.0,
                                              "geometryCrop1" : 0.0,
                                              "geometryCrop2" : 0.0,
                                              "geometryCrop3" : 0.0
                                            },
                                            "effects" : [

                                            ],
                                            "start" : 0,
                                            "duration" : 3528000000,
                                            "mediaStart" : 0,
                                            "mediaDuration" : 3528000000,
                                            "scalar" : 1,
                                            "metadata" : {
                                              "AppliedThemeId" : "",
                                              "clipSpeedAttribute" : false,
                                              "effectApplied" : "none",
                                              "lockAspectRatio" : false
                                            },
                                            "animationTracks" : {

                                            }
                                          }
                                        ],
                                          "ident" : "",
                                          "audioMuted" : false,
                                          "videoHidden" : false,
                                          "magnetic" : false,
                                          "matte" : 0,
                                          "solo" : false,
                                          "metadata" : {
                                            "IsLocked" : "False",
                                            "WinTrackHeight" : "56",
                                            "trackHeight" : "54"
                                          }
                                      },
                                      {
                                        "trackIndex" : 1,
                                        "medias" : [
                                          {
                                            "id" : 513,
                                            "_type" : "Callout",
                                            "def" : {
                                              "kind" : "remix",
                                              "shape" : "shape-rectangle",
                                              "style" : "bold",
                                              "fill-color-blue" : 0.756862759590149,
                                              "fill-color-green" : 0.18823529779911,
                                              "fill-color-opacity" : 1.0,
                                              "fill-color-red" : 0.960784316062927,
                                              "hasDropShadow" : 0.0,
                                              "height" : 160.0,
                                              "savedXScale" : 1.0,
                                              "savedYScale" : 1.0,
                                              "stroke-color-blue" : 0.886274516582489,
                                              "stroke-color-green" : 0.200000002980232,
                                              "stroke-color-opacity" : 0.0,
                                              "stroke-color-red" : 0.376470595598221,
                                              "stroke-width" : 0.0,
                                              "width" : 1400.0,
                                              "custom" : "Y",
                                              "fill-style" : "solid",
                                              "stroke-style" : "solid"
                                            },
                                            "attributes" : {
                                              "ident" : "",
                                              "autoRotateText" : true
                                            },
                                            "parameters" : {
                                              "sourceCrop0" : 0.0,
                                              "sourceCrop1" : 0.0,
                                              "sourceCrop2" : 0.0,
                                              "sourceCrop3" : 0.0,
                                              "geometryCrop0" : 0.0,
                                              "geometryCrop1" : 0.0,
                                              "geometryCrop2" : 0.0,
                                              "geometryCrop3" : 0.0
                                            },
                                            "effects" : [

                                            ],
                                            "start" : 0,
                                            "duration" : 3528000000,
                                            "mediaStart" : 0,
                                            "mediaDuration" : 3528000000,
                                            "scalar" : 1,
                                            "metadata" : {
                                              "AppliedThemeId" : "",
                                              "clipSpeedAttribute" : false,
                                              "effectApplied" : "none"
                                            },
                                            "animationTracks" : {

                                            }
                                          }
                                        ],
                                          "ident" : "",
                                          "audioMuted" : false,
                                          "videoHidden" : false,
                                          "magnetic" : false,
                                          "matte" : 1,
                                          "solo" : false,
                                          "metadata" : {
                                            "IsLocked" : "False",
                                            "WinTrackHeight" : "56",
                                            "trackHeight" : "54"
                                          }
                                      }
                                    ],
                                    "attributes" : {
                                      "ident" : "Fill-1400x160",
                                      "widthAttr" : 1405.0,
                                      "heightAttr" : 167.002,
                                      "gain" : 1.0,
                                      "mixToMono" : false
                                    },
                                    "effects" : [

                                    ],
                                    "start" : 0,
                                    "duration" : 3528000000,
                                    "mediaStart" : 0.0,
                                    "mediaDuration" : 3528000000.0,
                                    "scalar" : 1,
                                    "metadata" : {
                                      "clipSpeedAttribute" : false,
                                      "effectApplied" : "none",
                                      "isOpen" : false,
                                      "lockAspectRatio" : true
                                    },
                                    "animationTracks" : {

                                    }
                                  }
                                ],
                                  "ident" : "",
                                  "audioMuted" : false,
                                  "videoHidden" : false,
                                  "magnetic" : false,
                                  "matte" : 0,
                                  "solo" : false,
                                  "metadata" : {
                                    "IsLocked" : "False",
                                    "WinTrackHeight" : "56",
                                    "trackHeight" : "54"
                                  }
                              },
                              {
                                "trackIndex" : 1,
                                "medias" : [
                                  {
                                    "id" : 514,
                                    "_type" : "Callout",
                                    "def" : {
                                      "kind" : "remix",
                                      "shape" : "text",
                                      "style" : "urban",
                                      "enable-ligatures" : 1.0,
                                      "hasDropShadow" : 0.0,
                                      "height" : 170.0,
                                      "line-spacing" : 0.0,
                                      "savedXScale" : 1.0,
                                      "savedYScale" : 1.0,
                                      "width" : 1400.0,
                                      "word-wrap" : 1.0,
                                      "custom" : "Y",
                                      "horizontal-alignment" : "left",
                                      "resize-behavior" : "resizeText",
                                      "text" : "ungroup selected columns",
                                      "vertical-alignment" : "center",
                                      "font" : {
                                        "color-blue" : 1.0,
                                        "color-green" : 1.0,
                                        "color-red" : 1.0,
                                        "size" : 96.0,
                                        "tracking" : 0.0,
                                        "name" : "Dosis",
                                        "weight" : "Semi Bold"
                                      },
                                      "textAttributes" : {
                                        "type" : "textAttributeList",
                                        "keyframes" : [
                                          {
                                            "endTime" : 0,
                                            "time" : 0,
                                            "value" : [{"name":"underline","rangeEnd":24,"rangeStart":0,"value":0,"valueType":"int"},{"name":"strikethrough","rangeEnd":24,"rangeStart":0,"value":0,"valueType":"int"},{"name":"fontName","rangeEnd":24,"rangeStart":0,"value":"Roboto","valueType":"string"},{"name":"kerning","rangeEnd":24,"rangeStart":0,"value":0.049883078231292483,"valueType":"double"},{"name":"fontItalic","rangeEnd":24,"rangeStart":0,"value":0,"valueType":"int"},{"name":"fontWeight","rangeEnd":24,"rangeStart":0,"value":700,"valueType":"int"},{"name":"fontSize","rangeEnd":24,"rangeStart":0,"value":86,"valueType":"double"},{"name":"fgColor","rangeEnd":24,"rangeStart":0,"value":"(110,110,110,255)","valueType":"color"}],
                                            "duration" : 0
                                          }
                                        ]
                                      }
                                    },
                                    "attributes" : {
                                      "ident" : "",
                                      "autoRotateText" : true
                                    },
                                    "parameters" : {
                                      "translation1" : -2.0,
                                      "sourceCrop0" : 0.0,
                                      "sourceCrop1" : 0.0,
                                      "sourceCrop2" : 0.0,
                                      "sourceCrop3" : 0.0,
                                      "geometryCrop0" : 0.0,
                                      "geometryCrop1" : 0.0,
                                      "geometryCrop2" : 0.0,
                                      "geometryCrop3" : 0.0
                                    },
                                    "effects" : [

                                    ],
                                    "start" : 0,
                                    "duration" : 3528000000,
                                    "mediaStart" : 0,
                                    "mediaDuration" : 3528000000,
                                    "scalar" : 1,
                                    "metadata" : {
                                      "AppliedThemeId" : "",
                                      "clipSpeedAttribute" : false,
                                      "effectApplied" : "none",
                                      "lockAspectRatio" : false
                                    },
                                    "animationTracks" : {

                                    }
                                  }
                                ],
                                  "ident" : "",
                                  "audioMuted" : false,
                                  "videoHidden" : false,
                                  "magnetic" : false,
                                  "matte" : 0,
                                  "solo" : false,
                                  "metadata" : {
                                    "IsLocked" : "False",
                                    "WinTrackHeight" : "56",
                                    "trackHeight" : "54"
                                  }
                              }
                            ],
                            "attributes" : {
                              "ident" : "BP-Title-11",
                              "widthAttr" : 1405.0,
                              "heightAttr" : 167.002,
                              "gain" : 1.0,
                              "mixToMono" : false,
                              "assetProperties" : [
                                {
                                  "type" : 0,
                                  "name" : "Title",
                                  "objects" : [ 514 ],
                                  "themeMappings" :  {
                                    "font-color" : "foreground-1"
                                  }
                                },
                                {
                                  "type" : 1,
                                  "name" : "Fill",
                                  "objects" : [ 512 ],
                                  "themeMappings" :  {
                                    "fill" : "background-1"
                                  }
                                }
                              ]
                            },
                            "effects" : [

                            ],
                            "start" : 0,
                            "duration" : 3528000000,
                            "mediaStart" : 0.0,
                            "mediaDuration" : 3528000000.0,
                            "scalar" : 1,
                            "metadata" : {
                              "clipSpeedAttribute" : false,
                              "effectApplied" : "none",
                              "isOpen" : false,
                              "lockAspectRatio" : true
                            },
                            "animationTracks" : {
                              "visual" : [
                                {
                                  "endTime" : 552720000,
                                  "duration" : 552720000,
                                  "range" : [ 0, 552720000],
                                  "interp" : "eioe"
                                },
                                {
                                  "endTime" : 1775760000,
                                  "duration" : 399840000,
                                  "range" : [ 1375920000, 399840000],
                                  "interp" : "eioe"
                                }
                              ]
                            }
                          }
                        ],
                          "ident" : "",
                          "audioMuted" : false,
                          "videoHidden" : false,
                          "magnetic" : false,
                          "matte" : 0,
                          "solo" : false,
                          "metadata" : {
                            "IsLocked" : "False",
                            "WinTrackHeight" : "56",
                            "trackHeight" : "54"
                          }
                      },
                      {
                        "trackIndex" : 1,
                        "medias" : [
                          {
                            "id" : 515,
                            "_type" : "Group",
                            "parameters" : {
                              "translation0" : {
                                "type" : "double",
                                "defaultValue" : 0.0,
                                "keyframes" : [
                                  {
                                    "endTime" : 552720000,
                                    "time" : 0,
                                    "value" : 0.0,
                                    "interp" : "eioe",
                                    "duration" : 552720000
                                  },
                                  {
                                    "endTime" : 1775760000,
                                    "time" : 1375920000,
                                    "value" : 0.0,
                                    "interp" : "eioe",
                                    "duration" : 399840000
                                  }
                                ]
                              },
                              "translation1" : {
                                "type" : "double",
                                "defaultValue" : -144.610046386719,
                                "keyframes" : [
                                  {
                                    "endTime" : 552720000,
                                    "time" : 0,
                                    "value" : 0.0,
                                    "interp" : "eioe",
                                    "duration" : 552720000
                                  },
                                  {
                                    "endTime" : 1775760000,
                                    "time" : 1375920000,
                                    "value" : -144.610046386719,
                                    "interp" : "eioe",
                                    "duration" : 399840000
                                  }
                                ]
                              },
                              "sourceCrop0" : 0.0,
                              "sourceCrop1" : 0.0,
                              "sourceCrop2" : 0.0,
                              "sourceCrop3" : 0.0,
                              "geometryCrop0" : 0.0,
                              "geometryCrop1" : 0.0,
                              "geometryCrop2" : 0.0,
                              "geometryCrop3" : 0.0,
                              "opacity" : {
                                "type" : "double",
                                "defaultValue" : 1.0,
                                "keyframes" : [
                                  {
                                    "endTime" : 552720000,
                                    "time" : 0,
                                    "value" : 1.0,
                                    "interp" : "eioe",
                                    "duration" : 552720000
                                  }
                                ]
                              },
                              "volume" : 1.0
                            },
                            "tracks" : [
                              {
                                "trackIndex" : 0,
                                "medias" : [
                                  {
                                    "id" : 516,
                                    "_type" : "Callout",
                                    "def" : {
                                      "kind" : "remix",
                                      "shape" : "shape-rectangle",
                                      "style" : "bold",
                                      "fill-color-blue" : 0.913725490196078,
                                      "fill-color-green" : 0.949019607843137,
                                      "fill-color-opacity" : 1.0,
                                      "fill-color-red" : 0.933333333333333,
                                      "hasDropShadow" : 0.0,
                                      "height" : 163.002035140991,
                                      "savedXScale" : 1.0,
                                      "savedYScale" : 1.0,
                                      "stroke-color-blue" : 1.0,
                                      "stroke-color-green" : 1.0,
                                      "stroke-color-opacity" : 1.0,
                                      "stroke-color-red" : 1.0,
                                      "stroke-width" : 0.0,
                                      "width" : 1403.00212860107,
                                      "custom" : "Y",
                                      "fill-style" : "solid",
                                      "stroke-style" : "solid"
                                    },
                                    "attributes" : {
                                      "ident" : "",
                                      "autoRotateText" : true
                                    },
                                    "parameters" : {
                                      "anchor0" : -1.0,
                                      "anchor1" : 2.0,
                                      "sourceCrop0" : 0.0,
                                      "sourceCrop1" : 0.0,
                                      "sourceCrop2" : 0.0,
                                      "sourceCrop3" : 0.0,
                                      "geometryCrop0" : 0.0,
                                      "geometryCrop1" : 0.0,
                                      "geometryCrop2" : 0.0,
                                      "geometryCrop3" : 0.0
                                    },
                                    "effects" : [

                                    ],
                                    "start" : 0,
                                    "duration" : 3528000000,
                                    "mediaStart" : 0,
                                    "mediaDuration" : 3528000000,
                                    "scalar" : 1,
                                    "metadata" : {
                                      "AppliedThemeId" : "",
                                      "clipSpeedAttribute" : false,
                                      "effectApplied" : "none",
                                      "lockAspectRatio" : false
                                    },
                                    "animationTracks" : {

                                    }
                                  }
                                ],
                                  "ident" : "",
                                  "audioMuted" : false,
                                  "videoHidden" : false,
                                  "magnetic" : false,
                                  "matte" : 0,
                                  "solo" : false,
                                  "metadata" : {
                                    "IsLocked" : "False",
                                    "WinTrackHeight" : "56",
                                    "trackHeight" : "54"
                                  }
                              },
                              {
                                "trackIndex" : 1,
                                "medias" : [
                                  {
                                    "id" : 517,
                                    "_type" : "Callout",
                                    "def" : {
                                      "kind" : "remix",
                                      "shape" : "shape-rectangle",
                                      "style" : "bold",
                                      "fill-color-blue" : 0.756862759590149,
                                      "fill-color-green" : 0.18823529779911,
                                      "fill-color-opacity" : 1.0,
                                      "fill-color-red" : 0.960784316062927,
                                      "hasDropShadow" : 0.0,
                                      "height" : 160.0,
                                      "savedXScale" : 1.0,
                                      "savedYScale" : 1.0,
                                      "stroke-color-blue" : 0.886274516582489,
                                      "stroke-color-green" : 0.200000002980232,
                                      "stroke-color-opacity" : 0.0,
                                      "stroke-color-red" : 0.376470595598221,
                                      "stroke-width" : 0.0,
                                      "width" : 1400.0,
                                      "custom" : "Y",
                                      "fill-style" : "solid",
                                      "stroke-style" : "solid"
                                    },
                                    "attributes" : {
                                      "ident" : "",
                                      "autoRotateText" : true
                                    },
                                    "parameters" : {
                                      "sourceCrop0" : 0.0,
                                      "sourceCrop1" : 0.0,
                                      "sourceCrop2" : 0.0,
                                      "sourceCrop3" : 0.0,
                                      "geometryCrop0" : 0.0,
                                      "geometryCrop1" : 0.0,
                                      "geometryCrop2" : 0.0,
                                      "geometryCrop3" : 0.0
                                    },
                                    "effects" : [

                                    ],
                                    "start" : 0,
                                    "duration" : 3528000000,
                                    "mediaStart" : 0,
                                    "mediaDuration" : 3528000000,
                                    "scalar" : 1,
                                    "metadata" : {
                                      "AppliedThemeId" : "",
                                      "clipSpeedAttribute" : false,
                                      "effectApplied" : "none"
                                    },
                                    "animationTracks" : {

                                    }
                                  }
                                ],
                                  "ident" : "",
                                  "audioMuted" : false,
                                  "videoHidden" : false,
                                  "magnetic" : false,
                                  "matte" : 1,
                                  "solo" : false,
                                  "metadata" : {
                                    "IsLocked" : "False",
                                    "WinTrackHeight" : "56",
                                    "trackHeight" : "54"
                                  }
                              }
                            ],
                            "attributes" : {
                              "ident" : "Rect-1400x1600-Mask",
                              "widthAttr" : 1405.0,
                              "heightAttr" : 167.002,
                              "gain" : 1.0,
                              "mixToMono" : false
                            },
                            "effects" : [

                            ],
                            "start" : 0,
                            "duration" : 3528000000,
                            "mediaStart" : 0.0,
                            "mediaDuration" : 3528000000.0,
                            "scalar" : 1,
                            "metadata" : {
                              "clipSpeedAttribute" : false,
                              "effectApplied" : "none",
                              "isOpen" : false,
                              "lockAspectRatio" : true
                            },
                            "animationTracks" : {
                              "visual" : [
                                {
                                  "endTime" : 552720000,
                                  "duration" : 552720000,
                                  "range" : [ 0, 552720000],
                                  "interp" : "eioe"
                                },
                                {
                                  "endTime" : 1775760000,
                                  "duration" : 399840000,
                                  "range" : [ 1375920000, 399840000],
                                  "interp" : "eioe"
                                }
                              ]
                            }
                          }
                        ],
                          "ident" : "",
                          "audioMuted" : false,
                          "videoHidden" : false,
                          "magnetic" : false,
                          "matte" : 1,
                          "solo" : false,
                          "metadata" : {
                            "IsLocked" : "False",
                            "WinTrackHeight" : "56",
                            "trackHeight" : "54"
                          }
                      },
                      {
                        "trackIndex" : 2,
                        "medias" : [
                          {
                            "id" : 518,
                            "_type" : "Group",
                            "parameters" : {
                              "translation0" : {
                                "type" : "double",
                                "defaultValue" : 0.0,
                                "keyframes" : [
                                  {
                                    "endTime" : 552720000,
                                    "time" : 0,
                                    "value" : 0.0,
                                    "interp" : "eioe",
                                    "duration" : 552720000
                                  },
                                  {
                                    "endTime" : 1775760000,
                                    "time" : 1375920000,
                                    "value" : 0.0,
                                    "interp" : "eioe",
                                    "duration" : 399840000
                                  }
                                ]
                              },
                              "translation1" : {
                                "type" : "double",
                                "defaultValue" : -233.610046386719,
                                "keyframes" : [
                                  {
                                    "endTime" : 552720000,
                                    "time" : 0,
                                    "value" : 90.0,
                                    "interp" : "eioe",
                                    "duration" : 552720000
                                  },
                                  {
                                    "endTime" : 1775760000,
                                    "time" : 1375920000,
                                    "value" : -233.610046386719,
                                    "interp" : "eioe",
                                    "duration" : 399840000
                                  }
                                ]
                              },
                              "sourceCrop0" : 0.0,
                              "sourceCrop1" : 0.0,
                              "sourceCrop2" : 0.0,
                              "sourceCrop3" : 0.0,
                              "geometryCrop0" : 0.0,
                              "geometryCrop1" : 0.0,
                              "geometryCrop2" : 0.0,
                              "geometryCrop3" : 0.0,
                              "opacity" : {
                                "type" : "double",
                                "defaultValue" : 1.0,
                                "keyframes" : [
                                  {
                                    "endTime" : 552720000,
                                    "time" : 0,
                                    "value" : 1.0,
                                    "interp" : "eioe",
                                    "duration" : 552720000
                                  }
                                ]
                              },
                              "volume" : 1.0
                            },
                            "tracks" : [
                              {
                                "trackIndex" : 0,
                                "medias" : [
                                  {
                                    "id" : 519,
                                    "_type" : "Callout",
                                    "def" : {
                                      "kind" : "remix",
                                      "shape" : "shape-rectangle",
                                      "style" : "bold",
                                      "fill-color-blue" : 0.2196078431,
                                      "fill-color-green" : 0.8745098039,
                                      "fill-color-opacity" : 1.0,
                                      "fill-color-red" : 1.0,
                                      "hasDropShadow" : 0.0,
                                      "height" : 163.002035140991,
                                      "savedXScale" : 1.0,
                                      "savedYScale" : 1.0,
                                      "stroke-color-blue" : 1.0,
                                      "stroke-color-green" : 1.0,
                                      "stroke-color-opacity" : 1.0,
                                      "stroke-color-red" : 1.0,
                                      "stroke-width" : 0.0,
                                      "width" : 1403.00212860107,
                                      "custom" : "Y",
                                      "fill-style" : "solid",
                                      "stroke-style" : "solid"
                                    },
                                    "attributes" : {
                                      "ident" : "",
                                      "autoRotateText" : true
                                    },
                                    "parameters" : {
                                      "anchor0" : -1.0,
                                      "anchor1" : 2.0,
                                      "sourceCrop0" : 0.0,
                                      "sourceCrop1" : 0.0,
                                      "sourceCrop2" : 0.0,
                                      "sourceCrop3" : 0.0,
                                      "geometryCrop0" : 0.0,
                                      "geometryCrop1" : 0.0,
                                      "geometryCrop2" : 0.0,
                                      "geometryCrop3" : 0.0
                                    },
                                    "effects" : [

                                    ],
                                    "start" : 0,
                                    "duration" : 3528000000,
                                    "mediaStart" : 0,
                                    "mediaDuration" : 3528000000,
                                    "scalar" : 1,
                                    "metadata" : {
                                      "AppliedThemeId" : "",
                                      "clipSpeedAttribute" : false,
                                      "effectApplied" : "none",
                                      "lockAspectRatio" : false
                                    },
                                    "animationTracks" : {

                                    }
                                  }
                                ],
                                  "ident" : "",
                                  "audioMuted" : false,
                                  "videoHidden" : false,
                                  "magnetic" : false,
                                  "matte" : 0,
                                  "solo" : false,
                                  "metadata" : {
                                    "IsLocked" : "False",
                                    "WinTrackHeight" : "56",
                                    "trackHeight" : "54"
                                  }
                              },
                              {
                                "trackIndex" : 1,
                                "medias" : [
                                  {
                                    "id" : 520,
                                    "_type" : "Callout",
                                    "def" : {
                                      "kind" : "remix",
                                      "shape" : "shape-rectangle",
                                      "style" : "bold",
                                      "fill-color-blue" : 0.756862759590149,
                                      "fill-color-green" : 0.18823529779911,
                                      "fill-color-opacity" : 1.0,
                                      "fill-color-red" : 0.960784316062927,
                                      "hasDropShadow" : 0.0,
                                      "height" : 160.0,
                                      "savedXScale" : 1.0,
                                      "savedYScale" : 1.0,
                                      "stroke-color-blue" : 0.886274516582489,
                                      "stroke-color-green" : 0.200000002980232,
                                      "stroke-color-opacity" : 0.0,
                                      "stroke-color-red" : 0.376470595598221,
                                      "stroke-width" : 0.0,
                                      "width" : 1400.0,
                                      "custom" : "Y",
                                      "fill-style" : "solid",
                                      "stroke-style" : "solid"
                                    },
                                    "attributes" : {
                                      "ident" : "",
                                      "autoRotateText" : true
                                    },
                                    "parameters" : {
                                      "translation1" : {
                                        "type" : "double",
                                        "defaultValue" : -1.0,
                                        "keyframes" : [
                                          {
                                            "endTime" : 270480000,
                                            "time" : 0,
                                            "value" : 0.0,
                                            "duration" : 270480000
                                          }
                                        ]
                                      },
                                      "scale0" : {
                                        "type" : "double",
                                        "defaultValue" : 1.0,
                                        "keyframes" : [
                                          {
                                            "endTime" : 270480000,
                                            "time" : 0,
                                            "value" : 1.0,
                                            "duration" : 270480000
                                          }
                                        ]
                                      },
                                      "scale1" : {
                                        "type" : "double",
                                        "defaultValue" : 0.125,
                                        "keyframes" : [
                                          {
                                            "endTime" : 270480000,
                                            "time" : 0,
                                            "value" : 0.5,
                                            "duration" : 270480000
                                          },
                                          {
                                            "endTime" : 552720000,
                                            "time" : 282240000,
                                            "value" : 0.125,
                                            "duration" : 270480000
                                          }
                                        ]
                                      },
                                      "sourceCrop0" : 0.0,
                                      "sourceCrop1" : 0.0,
                                      "sourceCrop2" : 0.0,
                                      "sourceCrop3" : 0.0,
                                      "geometryCrop0" : 0.0,
                                      "geometryCrop1" : 0.0,
                                      "geometryCrop2" : 0.0,
                                      "geometryCrop3" : 0.0
                                    },
                                    "effects" : [

                                    ],
                                    "start" : 0,
                                    "duration" : 3528000000,
                                    "mediaStart" : 0,
                                    "mediaDuration" : 3528000000,
                                    "scalar" : 1,
                                    "metadata" : {
                                      "AppliedThemeId" : "",
                                      "clipSpeedAttribute" : false,
                                      "effectApplied" : "none"
                                    },
                                    "animationTracks" : {
                                      "visual" : [
                                        {
                                          "endTime" : 270480000,
                                          "duration" : 270480000,
                                          "range" : [ 0, 270480000]
                                        },
                                        {
                                          "endTime" : 552720000,
                                          "duration" : 270480000,
                                          "range" : [ 282240000, 270480000]
                                        }
                                      ]
                                    }
                                  }
                                ],
                                  "ident" : "",
                                  "audioMuted" : false,
                                  "videoHidden" : false,
                                  "magnetic" : false,
                                  "matte" : 1,
                                  "solo" : false,
                                  "metadata" : {
                                    "IsLocked" : "False",
                                    "WinTrackHeight" : "56",
                                    "trackHeight" : "54"
                                  }
                              }
                            ],
                            "attributes" : {
                              "ident" : "Animated-Pulse-1400x20-To-1400x80",
                              "widthAttr" : 1405.0,
                              "heightAttr" : 167.002,
                              "gain" : 1.0,
                              "mixToMono" : false,
                              "assetProperties" : [
                                {
                                  "type" : 1,
                                  "name" : "Color",
                                  "objects" : [ 519 ],
                                  "themeMappings" :  {
                                    "fill" : "accent-1"
                                  }
                                }
                              ]
                            },
                            "effects" : [

                            ],
                            "start" : 0,
                            "duration" : 3528000000,
                            "mediaStart" : 0.0,
                            "mediaDuration" : 3528000000.0,
                            "scalar" : 1,
                            "metadata" : {
                              "AppliedThemeId" : "8e797988-b823-4beb-b251-1d31b461ba07",
                              "clipSpeedAttribute" : false,
                              "effectApplied" : "none",
                              "isOpen" : false,
                              "lockAspectRatio" : true
                            },
                            "animationTracks" : {
                              "visual" : [
                                {
                                  "endTime" : 552720000,
                                  "duration" : 552720000,
                                  "range" : [ 0, 552720000],
                                  "interp" : "eioe"
                                },
                                {
                                  "endTime" : 1775760000,
                                  "duration" : 399840000,
                                  "range" : [ 1375920000, 399840000],
                                  "interp" : "eioe"
                                }
                              ]
                            }
                          }
                        ],
                          "ident" : "",
                          "audioMuted" : false,
                          "videoHidden" : false,
                          "magnetic" : false,
                          "matte" : 0,
                          "solo" : false,
                          "metadata" : {
                            "IsLocked" : "False",
                            "WinTrackHeight" : "56",
                            "trackHeight" : "54"
                          }
                      },
                      {
                        "trackIndex" : 3,
                        "medias" : [
                          {
                            "id" : 521,
                            "_type" : "Group",
                            "parameters" : {
                              "translation0" : {
                                "type" : "double",
                                "defaultValue" : 0.0,
                                "keyframes" : [
                                  {
                                    "endTime" : 552720000,
                                    "time" : 0,
                                    "value" : 0.0,
                                    "interp" : "eioe",
                                    "duration" : 552720000
                                  },
                                  {
                                    "endTime" : 1775760000,
                                    "time" : 1375920000,
                                    "value" : 0.0,
                                    "interp" : "eioe",
                                    "duration" : 399840000
                                  }
                                ]
                              },
                              "translation1" : {
                                "type" : "double",
                                "defaultValue" : -143.610046386719,
                                "keyframes" : [
                                  {
                                    "endTime" : 552720000,
                                    "time" : 0,
                                    "value" : 0.0,
                                    "interp" : "eioe",
                                    "duration" : 552720000
                                  },
                                  {
                                    "endTime" : 1775760000,
                                    "time" : 1375920000,
                                    "value" : -143.610046386719,
                                    "interp" : "eioe",
                                    "duration" : 399840000
                                  }
                                ]
                              },
                              "sourceCrop0" : 0.0,
                              "sourceCrop1" : 0.0,
                              "sourceCrop2" : 0.0,
                              "sourceCrop3" : 0.0,
                              "geometryCrop0" : 0.0,
                              "geometryCrop1" : 0.0,
                              "geometryCrop2" : 0.0,
                              "geometryCrop3" : 0.0,
                              "opacity" : {
                                "type" : "double",
                                "defaultValue" : 1.0,
                                "keyframes" : [
                                  {
                                    "endTime" : 552720000,
                                    "time" : 0,
                                    "value" : 1.0,
                                    "interp" : "eioe",
                                    "duration" : 552720000
                                  }
                                ]
                              },
                              "volume" : 1.0
                            },
                            "tracks" : [
                              {
                                "trackIndex" : 0,
                                "medias" : [
                                  {
                                    "id" : 522,
                                    "_type" : "Callout",
                                    "def" : {
                                      "kind" : "remix",
                                      "shape" : "shape-rectangle",
                                      "style" : "bold",
                                      "fill-color-blue" : 0.913725490196078,
                                      "fill-color-green" : 0.949019607843137,
                                      "fill-color-opacity" : 1.0,
                                      "fill-color-red" : 0.933333333333333,
                                      "hasDropShadow" : 0.0,
                                      "height" : 163.002035140991,
                                      "savedXScale" : 1.0,
                                      "savedYScale" : 1.0,
                                      "stroke-color-blue" : 1.0,
                                      "stroke-color-green" : 1.0,
                                      "stroke-color-opacity" : 1.0,
                                      "stroke-color-red" : 1.0,
                                      "stroke-width" : 0.0,
                                      "width" : 1403.00212860107,
                                      "custom" : "Y",
                                      "fill-style" : "solid",
                                      "stroke-style" : "solid"
                                    },
                                    "attributes" : {
                                      "ident" : "",
                                      "autoRotateText" : true
                                    },
                                    "parameters" : {
                                      "anchor0" : -1.0,
                                      "anchor1" : 2.0,
                                      "sourceCrop0" : 0.0,
                                      "sourceCrop1" : 0.0,
                                      "sourceCrop2" : 0.0,
                                      "sourceCrop3" : 0.0,
                                      "geometryCrop0" : 0.0,
                                      "geometryCrop1" : 0.0,
                                      "geometryCrop2" : 0.0,
                                      "geometryCrop3" : 0.0
                                    },
                                    "effects" : [

                                    ],
                                    "start" : 0,
                                    "duration" : 3528000000,
                                    "mediaStart" : 0,
                                    "mediaDuration" : 3528000000,
                                    "scalar" : 1,
                                    "metadata" : {
                                      "AppliedThemeId" : "",
                                      "clipSpeedAttribute" : false,
                                      "effectApplied" : "none",
                                      "lockAspectRatio" : false
                                    },
                                    "animationTracks" : {

                                    }
                                  }
                                ],
                                  "ident" : "",
                                  "audioMuted" : false,
                                  "videoHidden" : false,
                                  "magnetic" : false,
                                  "matte" : 0,
                                  "solo" : false,
                                  "metadata" : {
                                    "IsLocked" : "False",
                                    "WinTrackHeight" : "56",
                                    "trackHeight" : "54"
                                  }
                              },
                              {
                                "trackIndex" : 1,
                                "medias" : [
                                  {
                                    "id" : 523,
                                    "_type" : "Callout",
                                    "def" : {
                                      "kind" : "remix",
                                      "shape" : "shape-rectangle",
                                      "style" : "bold",
                                      "fill-color-blue" : 0.756862759590149,
                                      "fill-color-green" : 0.18823529779911,
                                      "fill-color-opacity" : 1.0,
                                      "fill-color-red" : 0.960784316062927,
                                      "hasDropShadow" : 0.0,
                                      "height" : 160.0,
                                      "savedXScale" : 1.0,
                                      "savedYScale" : 1.0,
                                      "stroke-color-blue" : 0.886274516582489,
                                      "stroke-color-green" : 0.200000002980232,
                                      "stroke-color-opacity" : 0.0,
                                      "stroke-color-red" : 0.376470595598221,
                                      "stroke-width" : 0.0,
                                      "width" : 1400.0,
                                      "custom" : "Y",
                                      "fill-style" : "solid",
                                      "stroke-style" : "solid"
                                    },
                                    "attributes" : {
                                      "ident" : "",
                                      "autoRotateText" : true
                                    },
                                    "parameters" : {
                                      "sourceCrop0" : 0.0,
                                      "sourceCrop1" : 0.0,
                                      "sourceCrop2" : 0.0,
                                      "sourceCrop3" : 0.0,
                                      "geometryCrop0" : 0.0,
                                      "geometryCrop1" : 0.0,
                                      "geometryCrop2" : 0.0,
                                      "geometryCrop3" : 0.0
                                    },
                                    "effects" : [

                                    ],
                                    "start" : 0,
                                    "duration" : 3528000000,
                                    "mediaStart" : 0,
                                    "mediaDuration" : 3528000000,
                                    "scalar" : 1,
                                    "metadata" : {
                                      "AppliedThemeId" : "",
                                      "clipSpeedAttribute" : false,
                                      "effectApplied" : "none"
                                    },
                                    "animationTracks" : {

                                    }
                                  }
                                ],
                                  "ident" : "",
                                  "audioMuted" : false,
                                  "videoHidden" : false,
                                  "magnetic" : false,
                                  "matte" : 1,
                                  "solo" : false,
                                  "metadata" : {
                                    "IsLocked" : "False",
                                    "WinTrackHeight" : "56",
                                    "trackHeight" : "54"
                                  }
                              }
                            ],
                            "attributes" : {
                              "ident" : "Rect-1400x1600-Mask",
                              "widthAttr" : 1405.0,
                              "heightAttr" : 167.002,
                              "gain" : 1.0,
                              "mixToMono" : false
                            },
                            "effects" : [

                            ],
                            "start" : 0,
                            "duration" : 3528000000,
                            "mediaStart" : 0.0,
                            "mediaDuration" : 3528000000.0,
                            "scalar" : 1,
                            "metadata" : {
                              "clipSpeedAttribute" : false,
                              "effectApplied" : "none",
                              "isOpen" : false,
                              "lockAspectRatio" : true
                            },
                            "animationTracks" : {
                              "visual" : [
                                {
                                  "endTime" : 552720000,
                                  "duration" : 552720000,
                                  "range" : [ 0, 552720000],
                                  "interp" : "eioe"
                                },
                                {
                                  "endTime" : 1775760000,
                                  "duration" : 399840000,
                                  "range" : [ 1375920000, 399840000],
                                  "interp" : "eioe"
                                }
                              ]
                            }
                          }
                        ],
                          "ident" : "",
                          "audioMuted" : false,
                          "videoHidden" : false,
                          "magnetic" : false,
                          "matte" : 1,
                          "solo" : false,
                          "metadata" : {
                            "IsLocked" : "False",
                            "WinTrackHeight" : "56",
                            "trackHeight" : "54"
                          }
                      }
                    ],
                    "attributes" : {
                      "ident" : "Broadcast-Title-012",
                      "widthAttr" : 1405.0,
                      "heightAttr" : 160.0,
                      "gain" : 1.0,
                      "mixToMono" : false,
                      "assetProperties" : [
                        {
                          "type" : 0,
                          "name" : "Title",
                          "objects" : [ 514 ],
                          "themeMappings" :  {
                            "font-color" : "foreground-1"
                          }
                        },
                        {
                          "type" : 1,
                          "name" : "Fill",
                          "objects" : [ 512 ],
                          "themeMappings" :  {
                            "fill" : "background-1"
                          }
                        },
                        {
                          "type" : 1,
                          "name" : "Wiper",
                          "objects" : [ 519 ],
                          "themeMappings" :  {
                            "fill" : "foreground-1"
                          }
                        }
                      ]
                    },
                    "effects" : [

                    ],
                    "start" : 1928640000,
                    "duration" : 1764000000,
                    "mediaStart" : 0.0,
                    "mediaDuration" : 1764000000.0,
                    "scalar" : 1,
                    "metadata" : {
                      "AppliedThemeId" : "170ba59c-db5d-4b9a-a310-e7e99853a4b7",
                      "clipSpeedAttribute" : false,
                      "default-anchor0" : 0.0,
                      "default-anchor1" : 0.0,
                      "default-anchor2" : 0.0,
                      "default-geometryCrop0" : 0.0,
                      "default-height" : 160.0,
                      "default-rotation0" : 0.0,
                      "default-rotation1" : 0.0,
                      "default-rotation2" : 0.0,
                      "default-scale0" : 1.0,
                      "default-scale1" : 1.0,
                      "default-scale2" : 1.0,
                      "default-shear0" : 0.0,
                      "default-shear1" : 0.0,
                      "default-shear2" : 0.0,
                      "default-translation0" : 0.0,
                      "default-translation1" : 0.0,
                      "default-translation2" : 0.0,
                      "default-width" : 1405.0,
                      "effectApplied" : "none",
                      "isOpen" : false,
                      "lockAspectRatio" : true
                    },
                    "animationTracks" : {

                    }
                  }
                ]
              },
              {
                "trackIndex" : 121,
                "medias" : [
                  {
                    "id" : 524,
                    "_type" : "Group",
                    "parameters" : {
                      "translation0" : -415.0,
                      "translation1" : 350.0,
                      "scale0" : 0.213523131672598,
                      "scale1" : 0.21875,
                      "sourceCrop0" : 0.0,
                      "sourceCrop1" : 0.0,
                      "sourceCrop2" : 0.0,
                      "sourceCrop3" : 0.0,
                      "geometryCrop0" : 0.0,
                      "geometryCrop1" : 0.0,
                      "geometryCrop2" : 0.0,
                      "geometryCrop3" : 0.0,
                      "volume" : 1.0
                    },
                    "tracks" : [
                      {
                        "trackIndex" : 0,
                        "medias" : [
                          {
                            "id" : 525,
                            "_type" : "Group",
                            "parameters" : {
                              "translation0" : {
                                "type" : "double",
                                "defaultValue" : 0.0,
                                "keyframes" : [
                                  {
                                    "endTime" : 552720000,
                                    "time" : 0,
                                    "value" : 0.0,
                                    "interp" : "eioe",
                                    "duration" : 552720000
                                  },
                                  {
                                    "endTime" : 1775760000,
                                    "time" : 1375920000,
                                    "value" : 0.0,
                                    "interp" : "eioe",
                                    "duration" : 399840000
                                  }
                                ]
                              },
                              "translation1" : {
                                "type" : "double",
                                "defaultValue" : -305.610046386719,
                                "keyframes" : [
                                  {
                                    "endTime" : 552720000,
                                    "time" : 0,
                                    "value" : 0.0,
                                    "interp" : "eioe",
                                    "duration" : 552720000
                                  },
                                  {
                                    "endTime" : 1775760000,
                                    "time" : 1375920000,
                                    "value" : -304.610046386719,
                                    "interp" : "eioe",
                                    "duration" : 399840000
                                  }
                                ]
                              },
                              "sourceCrop0" : 0.0,
                              "sourceCrop1" : 0.0,
                              "sourceCrop2" : 0.0,
                              "sourceCrop3" : 0.0,
                              "geometryCrop0" : 0.0,
                              "geometryCrop1" : 0.0,
                              "geometryCrop2" : 0.0,
                              "geometryCrop3" : 0.0,
                              "volume" : 1.0
                            },
                            "tracks" : [
                              {
                                "trackIndex" : 0,
                                "medias" : [
                                  {
                                    "id" : 526,
                                    "_type" : "Group",
                                    "parameters" : {
                                      "sourceCrop0" : 0.0,
                                      "sourceCrop1" : 0.0,
                                      "sourceCrop2" : 0.0,
                                      "sourceCrop3" : 0.0,
                                      "geometryCrop0" : 0.0,
                                      "geometryCrop1" : 0.0,
                                      "geometryCrop2" : 0.0,
                                      "geometryCrop3" : 0.0,
                                      "volume" : 1.0
                                    },
                                    "tracks" : [
                                      {
                                        "trackIndex" : 0,
                                        "medias" : [
                                          {
                                            "id" : 527,
                                            "_type" : "Callout",
                                            "def" : {
                                              "kind" : "remix",
                                              "shape" : "shape-rectangle",
                                              "style" : "bold",
                                              "fill-color-blue" : 1.0,
                                              "fill-color-green" : 1.0,
                                              "fill-color-opacity" : 1.0,
                                              "fill-color-red" : 1.0,
                                              "hasDropShadow" : 0.0,
                                              "height" : 163.002035140991,
                                              "savedXScale" : 1.0,
                                              "savedYScale" : 1.0,
                                              "stroke-color-blue" : 1.0,
                                              "stroke-color-green" : 1.0,
                                              "stroke-color-opacity" : 1.0,
                                              "stroke-color-red" : 1.0,
                                              "stroke-width" : 0.0,
                                              "width" : 1403.00212860107,
                                              "custom" : "Y",
                                              "fill-style" : "solid",
                                              "stroke-style" : "solid"
                                            },
                                            "attributes" : {
                                              "ident" : "",
                                              "autoRotateText" : true
                                            },
                                            "parameters" : {
                                              "anchor0" : -1.0,
                                              "anchor1" : 2.0,
                                              "sourceCrop0" : 0.0,
                                              "sourceCrop1" : 0.0,
                                              "sourceCrop2" : 0.0,
                                              "sourceCrop3" : 0.0,
                                              "geometryCrop0" : 0.0,
                                              "geometryCrop1" : 0.0,
                                              "geometryCrop2" : 0.0,
                                              "geometryCrop3" : 0.0
                                            },
                                            "effects" : [

                                            ],
                                            "start" : 0,
                                            "duration" : 3528000000,
                                            "mediaStart" : 0,
                                            "mediaDuration" : 3528000000,
                                            "scalar" : 1,
                                            "metadata" : {
                                              "AppliedThemeId" : "",
                                              "clipSpeedAttribute" : false,
                                              "effectApplied" : "none",
                                              "lockAspectRatio" : false
                                            },
                                            "animationTracks" : {

                                            }
                                          }
                                        ],
                                          "ident" : "",
                                          "audioMuted" : false,
                                          "videoHidden" : false,
                                          "magnetic" : false,
                                          "matte" : 0,
                                          "solo" : false,
                                          "metadata" : {
                                            "IsLocked" : "False",
                                            "WinTrackHeight" : "56",
                                            "trackHeight" : "54"
                                          }
                                      },
                                      {
                                        "trackIndex" : 1,
                                        "medias" : [
                                          {
                                            "id" : 528,
                                            "_type" : "Callout",
                                            "def" : {
                                              "kind" : "remix",
                                              "shape" : "shape-rectangle",
                                              "style" : "bold",
                                              "fill-color-blue" : 0.756862759590149,
                                              "fill-color-green" : 0.18823529779911,
                                              "fill-color-opacity" : 1.0,
                                              "fill-color-red" : 0.960784316062927,
                                              "hasDropShadow" : 0.0,
                                              "height" : 160.0,
                                              "savedXScale" : 1.0,
                                              "savedYScale" : 1.0,
                                              "stroke-color-blue" : 0.886274516582489,
                                              "stroke-color-green" : 0.200000002980232,
                                              "stroke-color-opacity" : 0.0,
                                              "stroke-color-red" : 0.376470595598221,
                                              "stroke-width" : 0.0,
                                              "width" : 1400.0,
                                              "custom" : "Y",
                                              "fill-style" : "solid",
                                              "stroke-style" : "solid"
                                            },
                                            "attributes" : {
                                              "ident" : "",
                                              "autoRotateText" : true
                                            },
                                            "parameters" : {
                                              "sourceCrop0" : 0.0,
                                              "sourceCrop1" : 0.0,
                                              "sourceCrop2" : 0.0,
                                              "sourceCrop3" : 0.0,
                                              "geometryCrop0" : 0.0,
                                              "geometryCrop1" : 0.0,
                                              "geometryCrop2" : 0.0,
                                              "geometryCrop3" : 0.0
                                            },
                                            "effects" : [

                                            ],
                                            "start" : 0,
                                            "duration" : 3528000000,
                                            "mediaStart" : 0,
                                            "mediaDuration" : 3528000000,
                                            "scalar" : 1,
                                            "metadata" : {
                                              "AppliedThemeId" : "",
                                              "clipSpeedAttribute" : false,
                                              "effectApplied" : "none"
                                            },
                                            "animationTracks" : {

                                            }
                                          }
                                        ],
                                          "ident" : "",
                                          "audioMuted" : false,
                                          "videoHidden" : false,
                                          "magnetic" : false,
                                          "matte" : 1,
                                          "solo" : false,
                                          "metadata" : {
                                            "IsLocked" : "False",
                                            "WinTrackHeight" : "56",
                                            "trackHeight" : "54"
                                          }
                                      }
                                    ],
                                    "attributes" : {
                                      "ident" : "Fill-1400x160",
                                      "widthAttr" : 1405.0,
                                      "heightAttr" : 167.002,
                                      "gain" : 1.0,
                                      "mixToMono" : false
                                    },
                                    "effects" : [

                                    ],
                                    "start" : 0,
                                    "duration" : 3528000000,
                                    "mediaStart" : 0.0,
                                    "mediaDuration" : 3528000000.0,
                                    "scalar" : 1,
                                    "metadata" : {
                                      "clipSpeedAttribute" : false,
                                      "effectApplied" : "none",
                                      "isOpen" : false,
                                      "lockAspectRatio" : true
                                    },
                                    "animationTracks" : {

                                    }
                                  }
                                ],
                                  "ident" : "",
                                  "audioMuted" : false,
                                  "videoHidden" : false,
                                  "magnetic" : false,
                                  "matte" : 0,
                                  "solo" : false,
                                  "metadata" : {
                                    "IsLocked" : "False",
                                    "WinTrackHeight" : "56",
                                    "trackHeight" : "54"
                                  }
                              },
                              {
                                "trackIndex" : 1,
                                "medias" : [
                                  {
                                    "id" : 529,
                                    "_type" : "Callout",
                                    "def" : {
                                      "kind" : "remix",
                                      "shape" : "text",
                                      "style" : "urban",
                                      "enable-ligatures" : 1.0,
                                      "hasDropShadow" : 0.0,
                                      "height" : 170.0,
                                      "line-spacing" : 0.0,
                                      "savedXScale" : 1.0,
                                      "savedYScale" : 1.0,
                                      "width" : 1400.0,
                                      "word-wrap" : 1.0,
                                      "custom" : "Y",
                                      "horizontal-alignment" : "left",
                                      "resize-behavior" : "resizeText",
                                      "text" : "autofit rows & columns",
                                      "vertical-alignment" : "center",
                                      "font" : {
                                        "color-blue" : 1.0,
                                        "color-green" : 1.0,
                                        "color-red" : 1.0,
                                        "size" : 96.0,
                                        "tracking" : 0.0,
                                        "name" : "Dosis",
                                        "weight" : "Semi Bold"
                                      },
                                      "textAttributes" : {
                                        "type" : "textAttributeList",
                                        "keyframes" : [
                                          {
                                            "endTime" : 0,
                                            "time" : 0,
                                            "value" : [{"name":"underline","rangeEnd":22,"rangeStart":0,"value":0,"valueType":"int"},{"name":"strikethrough","rangeEnd":22,"rangeStart":0,"value":0,"valueType":"int"},{"name":"fontName","rangeEnd":22,"rangeStart":0,"value":"Roboto","valueType":"string"},{"name":"kerning","rangeEnd":22,"rangeStart":0,"value":0.049883078231292483,"valueType":"double"},{"name":"fontItalic","rangeEnd":22,"rangeStart":0,"value":0,"valueType":"int"},{"name":"fontWeight","rangeEnd":22,"rangeStart":0,"value":700,"valueType":"int"},{"name":"fontSize","rangeEnd":22,"rangeStart":0,"value":86,"valueType":"double"},{"name":"fgColor","rangeEnd":22,"rangeStart":0,"value":"(110,110,110,255)","valueType":"color"}],
                                            "duration" : 0
                                          }
                                        ]
                                      }
                                    },
                                    "attributes" : {
                                      "ident" : "",
                                      "autoRotateText" : true
                                    },
                                    "parameters" : {
                                      "translation1" : -2.0,
                                      "sourceCrop0" : 0.0,
                                      "sourceCrop1" : 0.0,
                                      "sourceCrop2" : 0.0,
                                      "sourceCrop3" : 0.0,
                                      "geometryCrop0" : 0.0,
                                      "geometryCrop1" : 0.0,
                                      "geometryCrop2" : 0.0,
                                      "geometryCrop3" : 0.0
                                    },
                                    "effects" : [

                                    ],
                                    "start" : 0,
                                    "duration" : 3528000000,
                                    "mediaStart" : 0,
                                    "mediaDuration" : 3528000000,
                                    "scalar" : 1,
                                    "metadata" : {
                                      "AppliedThemeId" : "",
                                      "clipSpeedAttribute" : false,
                                      "effectApplied" : "none",
                                      "lockAspectRatio" : false
                                    },
                                    "animationTracks" : {

                                    }
                                  }
                                ],
                                  "ident" : "",
                                  "audioMuted" : false,
                                  "videoHidden" : false,
                                  "magnetic" : false,
                                  "matte" : 0,
                                  "solo" : false,
                                  "metadata" : {
                                    "IsLocked" : "False",
                                    "WinTrackHeight" : "56",
                                    "trackHeight" : "54"
                                  }
                              }
                            ],
                            "attributes" : {
                              "ident" : "BP-Title-11",
                              "widthAttr" : 1405.0,
                              "heightAttr" : 167.002,
                              "gain" : 1.0,
                              "mixToMono" : false,
                              "assetProperties" : [
                                {
                                  "type" : 0,
                                  "name" : "Title",
                                  "objects" : [ 529 ],
                                  "themeMappings" :  {
                                    "font-color" : "foreground-1"
                                  }
                                },
                                {
                                  "type" : 1,
                                  "name" : "Fill",
                                  "objects" : [ 527 ],
                                  "themeMappings" :  {
                                    "fill" : "background-1"
                                  }
                                }
                              ]
                            },
                            "effects" : [

                            ],
                            "start" : 0,
                            "duration" : 3528000000,
                            "mediaStart" : 0.0,
                            "mediaDuration" : 3528000000.0,
                            "scalar" : 1,
                            "metadata" : {
                              "clipSpeedAttribute" : false,
                              "effectApplied" : "none",
                              "isOpen" : false,
                              "lockAspectRatio" : true
                            },
                            "animationTracks" : {
                              "visual" : [
                                {
                                  "endTime" : 552720000,
                                  "duration" : 552720000,
                                  "range" : [ 0, 552720000],
                                  "interp" : "eioe"
                                },
                                {
                                  "endTime" : 1775760000,
                                  "duration" : 399840000,
                                  "range" : [ 1375920000, 399840000],
                                  "interp" : "eioe"
                                }
                              ]
                            }
                          }
                        ],
                          "ident" : "",
                          "audioMuted" : false,
                          "videoHidden" : false,
                          "magnetic" : false,
                          "matte" : 0,
                          "solo" : false,
                          "metadata" : {
                            "IsLocked" : "False",
                            "WinTrackHeight" : "56",
                            "trackHeight" : "54"
                          }
                      },
                      {
                        "trackIndex" : 1,
                        "medias" : [
                          {
                            "id" : 530,
                            "_type" : "Group",
                            "parameters" : {
                              "translation0" : {
                                "type" : "double",
                                "defaultValue" : 0.0,
                                "keyframes" : [
                                  {
                                    "endTime" : 552720000,
                                    "time" : 0,
                                    "value" : 0.0,
                                    "interp" : "eioe",
                                    "duration" : 552720000
                                  },
                                  {
                                    "endTime" : 1775760000,
                                    "time" : 1375920000,
                                    "value" : 0.0,
                                    "interp" : "eioe",
                                    "duration" : 399840000
                                  }
                                ]
                              },
                              "translation1" : {
                                "type" : "double",
                                "defaultValue" : -144.610046386719,
                                "keyframes" : [
                                  {
                                    "endTime" : 552720000,
                                    "time" : 0,
                                    "value" : 0.0,
                                    "interp" : "eioe",
                                    "duration" : 552720000
                                  },
                                  {
                                    "endTime" : 1775760000,
                                    "time" : 1375920000,
                                    "value" : -144.610046386719,
                                    "interp" : "eioe",
                                    "duration" : 399840000
                                  }
                                ]
                              },
                              "sourceCrop0" : 0.0,
                              "sourceCrop1" : 0.0,
                              "sourceCrop2" : 0.0,
                              "sourceCrop3" : 0.0,
                              "geometryCrop0" : 0.0,
                              "geometryCrop1" : 0.0,
                              "geometryCrop2" : 0.0,
                              "geometryCrop3" : 0.0,
                              "opacity" : {
                                "type" : "double",
                                "defaultValue" : 1.0,
                                "keyframes" : [
                                  {
                                    "endTime" : 552720000,
                                    "time" : 0,
                                    "value" : 1.0,
                                    "interp" : "eioe",
                                    "duration" : 552720000
                                  }
                                ]
                              },
                              "volume" : 1.0
                            },
                            "tracks" : [
                              {
                                "trackIndex" : 0,
                                "medias" : [
                                  {
                                    "id" : 531,
                                    "_type" : "Callout",
                                    "def" : {
                                      "kind" : "remix",
                                      "shape" : "shape-rectangle",
                                      "style" : "bold",
                                      "fill-color-blue" : 0.913725490196078,
                                      "fill-color-green" : 0.949019607843137,
                                      "fill-color-opacity" : 1.0,
                                      "fill-color-red" : 0.933333333333333,
                                      "hasDropShadow" : 0.0,
                                      "height" : 163.002035140991,
                                      "savedXScale" : 1.0,
                                      "savedYScale" : 1.0,
                                      "stroke-color-blue" : 1.0,
                                      "stroke-color-green" : 1.0,
                                      "stroke-color-opacity" : 1.0,
                                      "stroke-color-red" : 1.0,
                                      "stroke-width" : 0.0,
                                      "width" : 1403.00212860107,
                                      "custom" : "Y",
                                      "fill-style" : "solid",
                                      "stroke-style" : "solid"
                                    },
                                    "attributes" : {
                                      "ident" : "",
                                      "autoRotateText" : true
                                    },
                                    "parameters" : {
                                      "anchor0" : -1.0,
                                      "anchor1" : 2.0,
                                      "sourceCrop0" : 0.0,
                                      "sourceCrop1" : 0.0,
                                      "sourceCrop2" : 0.0,
                                      "sourceCrop3" : 0.0,
                                      "geometryCrop0" : 0.0,
                                      "geometryCrop1" : 0.0,
                                      "geometryCrop2" : 0.0,
                                      "geometryCrop3" : 0.0
                                    },
                                    "effects" : [

                                    ],
                                    "start" : 0,
                                    "duration" : 3528000000,
                                    "mediaStart" : 0,
                                    "mediaDuration" : 3528000000,
                                    "scalar" : 1,
                                    "metadata" : {
                                      "AppliedThemeId" : "",
                                      "clipSpeedAttribute" : false,
                                      "effectApplied" : "none",
                                      "lockAspectRatio" : false
                                    },
                                    "animationTracks" : {

                                    }
                                  }
                                ],
                                  "ident" : "",
                                  "audioMuted" : false,
                                  "videoHidden" : false,
                                  "magnetic" : false,
                                  "matte" : 0,
                                  "solo" : false,
                                  "metadata" : {
                                    "IsLocked" : "False",
                                    "WinTrackHeight" : "56",
                                    "trackHeight" : "54"
                                  }
                              },
                              {
                                "trackIndex" : 1,
                                "medias" : [
                                  {
                                    "id" : 532,
                                    "_type" : "Callout",
                                    "def" : {
                                      "kind" : "remix",
                                      "shape" : "shape-rectangle",
                                      "style" : "bold",
                                      "fill-color-blue" : 0.756862759590149,
                                      "fill-color-green" : 0.18823529779911,
                                      "fill-color-opacity" : 1.0,
                                      "fill-color-red" : 0.960784316062927,
                                      "hasDropShadow" : 0.0,
                                      "height" : 160.0,
                                      "savedXScale" : 1.0,
                                      "savedYScale" : 1.0,
                                      "stroke-color-blue" : 0.886274516582489,
                                      "stroke-color-green" : 0.200000002980232,
                                      "stroke-color-opacity" : 0.0,
                                      "stroke-color-red" : 0.376470595598221,
                                      "stroke-width" : 0.0,
                                      "width" : 1400.0,
                                      "custom" : "Y",
                                      "fill-style" : "solid",
                                      "stroke-style" : "solid"
                                    },
                                    "attributes" : {
                                      "ident" : "",
                                      "autoRotateText" : true
                                    },
                                    "parameters" : {
                                      "sourceCrop0" : 0.0,
                                      "sourceCrop1" : 0.0,
                                      "sourceCrop2" : 0.0,
                                      "sourceCrop3" : 0.0,
                                      "geometryCrop0" : 0.0,
                                      "geometryCrop1" : 0.0,
                                      "geometryCrop2" : 0.0,
                                      "geometryCrop3" : 0.0
                                    },
                                    "effects" : [

                                    ],
                                    "start" : 0,
                                    "duration" : 3528000000,
                                    "mediaStart" : 0,
                                    "mediaDuration" : 3528000000,
                                    "scalar" : 1,
                                    "metadata" : {
                                      "AppliedThemeId" : "",
                                      "clipSpeedAttribute" : false,
                                      "effectApplied" : "none"
                                    },
                                    "animationTracks" : {

                                    }
                                  }
                                ],
                                  "ident" : "",
                                  "audioMuted" : false,
                                  "videoHidden" : false,
                                  "magnetic" : false,
                                  "matte" : 1,
                                  "solo" : false,
                                  "metadata" : {
                                    "IsLocked" : "False",
                                    "WinTrackHeight" : "56",
                                    "trackHeight" : "54"
                                  }
                              }
                            ],
                            "attributes" : {
                              "ident" : "Rect-1400x1600-Mask",
                              "widthAttr" : 1405.0,
                              "heightAttr" : 167.002,
                              "gain" : 1.0,
                              "mixToMono" : false
                            },
                            "effects" : [

                            ],
                            "start" : 0,
                            "duration" : 3528000000,
                            "mediaStart" : 0.0,
                            "mediaDuration" : 3528000000.0,
                            "scalar" : 1,
                            "metadata" : {
                              "clipSpeedAttribute" : false,
                              "effectApplied" : "none",
                              "isOpen" : false,
                              "lockAspectRatio" : true
                            },
                            "animationTracks" : {
                              "visual" : [
                                {
                                  "endTime" : 552720000,
                                  "duration" : 552720000,
                                  "range" : [ 0, 552720000],
                                  "interp" : "eioe"
                                },
                                {
                                  "endTime" : 1775760000,
                                  "duration" : 399840000,
                                  "range" : [ 1375920000, 399840000],
                                  "interp" : "eioe"
                                }
                              ]
                            }
                          }
                        ],
                          "ident" : "",
                          "audioMuted" : false,
                          "videoHidden" : false,
                          "magnetic" : false,
                          "matte" : 1,
                          "solo" : false,
                          "metadata" : {
                            "IsLocked" : "False",
                            "WinTrackHeight" : "56",
                            "trackHeight" : "54"
                          }
                      },
                      {
                        "trackIndex" : 2,
                        "medias" : [
                          {
                            "id" : 533,
                            "_type" : "Group",
                            "parameters" : {
                              "translation0" : {
                                "type" : "double",
                                "defaultValue" : 0.0,
                                "keyframes" : [
                                  {
                                    "endTime" : 552720000,
                                    "time" : 0,
                                    "value" : 0.0,
                                    "interp" : "eioe",
                                    "duration" : 552720000
                                  },
                                  {
                                    "endTime" : 1775760000,
                                    "time" : 1375920000,
                                    "value" : 0.0,
                                    "interp" : "eioe",
                                    "duration" : 399840000
                                  }
                                ]
                              },
                              "translation1" : {
                                "type" : "double",
                                "defaultValue" : -233.610046386719,
                                "keyframes" : [
                                  {
                                    "endTime" : 552720000,
                                    "time" : 0,
                                    "value" : 90.0,
                                    "interp" : "eioe",
                                    "duration" : 552720000
                                  },
                                  {
                                    "endTime" : 1775760000,
                                    "time" : 1375920000,
                                    "value" : -233.610046386719,
                                    "interp" : "eioe",
                                    "duration" : 399840000
                                  }
                                ]
                              },
                              "sourceCrop0" : 0.0,
                              "sourceCrop1" : 0.0,
                              "sourceCrop2" : 0.0,
                              "sourceCrop3" : 0.0,
                              "geometryCrop0" : 0.0,
                              "geometryCrop1" : 0.0,
                              "geometryCrop2" : 0.0,
                              "geometryCrop3" : 0.0,
                              "opacity" : {
                                "type" : "double",
                                "defaultValue" : 1.0,
                                "keyframes" : [
                                  {
                                    "endTime" : 552720000,
                                    "time" : 0,
                                    "value" : 1.0,
                                    "interp" : "eioe",
                                    "duration" : 552720000
                                  }
                                ]
                              },
                              "volume" : 1.0
                            },
                            "tracks" : [
                              {
                                "trackIndex" : 0,
                                "medias" : [
                                  {
                                    "id" : 534,
                                    "_type" : "Callout",
                                    "def" : {
                                      "kind" : "remix",
                                      "shape" : "shape-rectangle",
                                      "style" : "bold",
                                      "fill-color-blue" : 0.2196078431,
                                      "fill-color-green" : 0.8745098039,
                                      "fill-color-opacity" : 1.0,
                                      "fill-color-red" : 1.0,
                                      "hasDropShadow" : 0.0,
                                      "height" : 163.002035140991,
                                      "savedXScale" : 1.0,
                                      "savedYScale" : 1.0,
                                      "stroke-color-blue" : 1.0,
                                      "stroke-color-green" : 1.0,
                                      "stroke-color-opacity" : 1.0,
                                      "stroke-color-red" : 1.0,
                                      "stroke-width" : 0.0,
                                      "width" : 1403.00212860107,
                                      "custom" : "Y",
                                      "fill-style" : "solid",
                                      "stroke-style" : "solid"
                                    },
                                    "attributes" : {
                                      "ident" : "",
                                      "autoRotateText" : true
                                    },
                                    "parameters" : {
                                      "anchor0" : -1.0,
                                      "anchor1" : 2.0,
                                      "sourceCrop0" : 0.0,
                                      "sourceCrop1" : 0.0,
                                      "sourceCrop2" : 0.0,
                                      "sourceCrop3" : 0.0,
                                      "geometryCrop0" : 0.0,
                                      "geometryCrop1" : 0.0,
                                      "geometryCrop2" : 0.0,
                                      "geometryCrop3" : 0.0
                                    },
                                    "effects" : [

                                    ],
                                    "start" : 0,
                                    "duration" : 3528000000,
                                    "mediaStart" : 0,
                                    "mediaDuration" : 3528000000,
                                    "scalar" : 1,
                                    "metadata" : {
                                      "AppliedThemeId" : "",
                                      "clipSpeedAttribute" : false,
                                      "effectApplied" : "none",
                                      "lockAspectRatio" : false
                                    },
                                    "animationTracks" : {

                                    }
                                  }
                                ],
                                  "ident" : "",
                                  "audioMuted" : false,
                                  "videoHidden" : false,
                                  "magnetic" : false,
                                  "matte" : 0,
                                  "solo" : false,
                                  "metadata" : {
                                    "IsLocked" : "False",
                                    "WinTrackHeight" : "56",
                                    "trackHeight" : "54"
                                  }
                              },
                              {
                                "trackIndex" : 1,
                                "medias" : [
                                  {
                                    "id" : 535,
                                    "_type" : "Callout",
                                    "def" : {
                                      "kind" : "remix",
                                      "shape" : "shape-rectangle",
                                      "style" : "bold",
                                      "fill-color-blue" : 0.756862759590149,
                                      "fill-color-green" : 0.18823529779911,
                                      "fill-color-opacity" : 1.0,
                                      "fill-color-red" : 0.960784316062927,
                                      "hasDropShadow" : 0.0,
                                      "height" : 160.0,
                                      "savedXScale" : 1.0,
                                      "savedYScale" : 1.0,
                                      "stroke-color-blue" : 0.886274516582489,
                                      "stroke-color-green" : 0.200000002980232,
                                      "stroke-color-opacity" : 0.0,
                                      "stroke-color-red" : 0.376470595598221,
                                      "stroke-width" : 0.0,
                                      "width" : 1400.0,
                                      "custom" : "Y",
                                      "fill-style" : "solid",
                                      "stroke-style" : "solid"
                                    },
                                    "attributes" : {
                                      "ident" : "",
                                      "autoRotateText" : true
                                    },
                                    "parameters" : {
                                      "translation1" : {
                                        "type" : "double",
                                        "defaultValue" : -1.0,
                                        "keyframes" : [
                                          {
                                            "endTime" : 270480000,
                                            "time" : 0,
                                            "value" : 0.0,
                                            "duration" : 270480000
                                          }
                                        ]
                                      },
                                      "scale0" : {
                                        "type" : "double",
                                        "defaultValue" : 1.0,
                                        "keyframes" : [
                                          {
                                            "endTime" : 270480000,
                                            "time" : 0,
                                            "value" : 1.0,
                                            "duration" : 270480000
                                          }
                                        ]
                                      },
                                      "scale1" : {
                                        "type" : "double",
                                        "defaultValue" : 0.125,
                                        "keyframes" : [
                                          {
                                            "endTime" : 270480000,
                                            "time" : 0,
                                            "value" : 0.5,
                                            "duration" : 270480000
                                          },
                                          {
                                            "endTime" : 552720000,
                                            "time" : 282240000,
                                            "value" : 0.125,
                                            "duration" : 270480000
                                          }
                                        ]
                                      },
                                      "sourceCrop0" : 0.0,
                                      "sourceCrop1" : 0.0,
                                      "sourceCrop2" : 0.0,
                                      "sourceCrop3" : 0.0,
                                      "geometryCrop0" : 0.0,
                                      "geometryCrop1" : 0.0,
                                      "geometryCrop2" : 0.0,
                                      "geometryCrop3" : 0.0
                                    },
                                    "effects" : [

                                    ],
                                    "start" : 0,
                                    "duration" : 3528000000,
                                    "mediaStart" : 0,
                                    "mediaDuration" : 3528000000,
                                    "scalar" : 1,
                                    "metadata" : {
                                      "AppliedThemeId" : "",
                                      "clipSpeedAttribute" : false,
                                      "effectApplied" : "none"
                                    },
                                    "animationTracks" : {
                                      "visual" : [
                                        {
                                          "endTime" : 270480000,
                                          "duration" : 270480000,
                                          "range" : [ 0, 270480000]
                                        },
                                        {
                                          "endTime" : 552720000,
                                          "duration" : 270480000,
                                          "range" : [ 282240000, 270480000]
                                        }
                                      ]
                                    }
                                  }
                                ],
                                  "ident" : "",
                                  "audioMuted" : false,
                                  "videoHidden" : false,
                                  "magnetic" : false,
                                  "matte" : 1,
                                  "solo" : false,
                                  "metadata" : {
                                    "IsLocked" : "False",
                                    "WinTrackHeight" : "56",
                                    "trackHeight" : "54"
                                  }
                              }
                            ],
                            "attributes" : {
                              "ident" : "Animated-Pulse-1400x20-To-1400x80",
                              "widthAttr" : 1405.0,
                              "heightAttr" : 167.002,
                              "gain" : 1.0,
                              "mixToMono" : false,
                              "assetProperties" : [
                                {
                                  "type" : 1,
                                  "name" : "Color",
                                  "objects" : [ 534 ],
                                  "themeMappings" :  {
                                    "fill" : "accent-1"
                                  }
                                }
                              ]
                            },
                            "effects" : [

                            ],
                            "start" : 0,
                            "duration" : 3528000000,
                            "mediaStart" : 0.0,
                            "mediaDuration" : 3528000000.0,
                            "scalar" : 1,
                            "metadata" : {
                              "AppliedThemeId" : "8e797988-b823-4beb-b251-1d31b461ba07",
                              "clipSpeedAttribute" : false,
                              "effectApplied" : "none",
                              "isOpen" : false,
                              "lockAspectRatio" : true
                            },
                            "animationTracks" : {
                              "visual" : [
                                {
                                  "endTime" : 552720000,
                                  "duration" : 552720000,
                                  "range" : [ 0, 552720000],
                                  "interp" : "eioe"
                                },
                                {
                                  "endTime" : 1775760000,
                                  "duration" : 399840000,
                                  "range" : [ 1375920000, 399840000],
                                  "interp" : "eioe"
                                }
                              ]
                            }
                          }
                        ],
                          "ident" : "",
                          "audioMuted" : false,
                          "videoHidden" : false,
                          "magnetic" : false,
                          "matte" : 0,
                          "solo" : false,
                          "metadata" : {
                            "IsLocked" : "False",
                            "WinTrackHeight" : "56",
                            "trackHeight" : "54"
                          }
                      },
                      {
                        "trackIndex" : 3,
                        "medias" : [
                          {
                            "id" : 536,
                            "_type" : "Group",
                            "parameters" : {
                              "translation0" : {
                                "type" : "double",
                                "defaultValue" : 0.0,
                                "keyframes" : [
                                  {
                                    "endTime" : 552720000,
                                    "time" : 0,
                                    "value" : 0.0,
                                    "interp" : "eioe",
                                    "duration" : 552720000
                                  },
                                  {
                                    "endTime" : 1775760000,
                                    "time" : 1375920000,
                                    "value" : 0.0,
                                    "interp" : "eioe",
                                    "duration" : 399840000
                                  }
                                ]
                              },
                              "translation1" : {
                                "type" : "double",
                                "defaultValue" : -143.610046386719,
                                "keyframes" : [
                                  {
                                    "endTime" : 552720000,
                                    "time" : 0,
                                    "value" : 0.0,
                                    "interp" : "eioe",
                                    "duration" : 552720000
                                  },
                                  {
                                    "endTime" : 1775760000,
                                    "time" : 1375920000,
                                    "value" : -143.610046386719,
                                    "interp" : "eioe",
                                    "duration" : 399840000
                                  }
                                ]
                              },
                              "sourceCrop0" : 0.0,
                              "sourceCrop1" : 0.0,
                              "sourceCrop2" : 0.0,
                              "sourceCrop3" : 0.0,
                              "geometryCrop0" : 0.0,
                              "geometryCrop1" : 0.0,
                              "geometryCrop2" : 0.0,
                              "geometryCrop3" : 0.0,
                              "opacity" : {
                                "type" : "double",
                                "defaultValue" : 1.0,
                                "keyframes" : [
                                  {
                                    "endTime" : 552720000,
                                    "time" : 0,
                                    "value" : 1.0,
                                    "interp" : "eioe",
                                    "duration" : 552720000
                                  }
                                ]
                              },
                              "volume" : 1.0
                            },
                            "tracks" : [
                              {
                                "trackIndex" : 0,
                                "medias" : [
                                  {
                                    "id" : 537,
                                    "_type" : "Callout",
                                    "def" : {
                                      "kind" : "remix",
                                      "shape" : "shape-rectangle",
                                      "style" : "bold",
                                      "fill-color-blue" : 0.913725490196078,
                                      "fill-color-green" : 0.949019607843137,
                                      "fill-color-opacity" : 1.0,
                                      "fill-color-red" : 0.933333333333333,
                                      "hasDropShadow" : 0.0,
                                      "height" : 163.002035140991,
                                      "savedXScale" : 1.0,
                                      "savedYScale" : 1.0,
                                      "stroke-color-blue" : 1.0,
                                      "stroke-color-green" : 1.0,
                                      "stroke-color-opacity" : 1.0,
                                      "stroke-color-red" : 1.0,
                                      "stroke-width" : 0.0,
                                      "width" : 1403.00212860107,
                                      "custom" : "Y",
                                      "fill-style" : "solid",
                                      "stroke-style" : "solid"
                                    },
                                    "attributes" : {
                                      "ident" : "",
                                      "autoRotateText" : true
                                    },
                                    "parameters" : {
                                      "anchor0" : -1.0,
                                      "anchor1" : 2.0,
                                      "sourceCrop0" : 0.0,
                                      "sourceCrop1" : 0.0,
                                      "sourceCrop2" : 0.0,
                                      "sourceCrop3" : 0.0,
                                      "geometryCrop0" : 0.0,
                                      "geometryCrop1" : 0.0,
                                      "geometryCrop2" : 0.0,
                                      "geometryCrop3" : 0.0
                                    },
                                    "effects" : [

                                    ],
                                    "start" : 0,
                                    "duration" : 3528000000,
                                    "mediaStart" : 0,
                                    "mediaDuration" : 3528000000,
                                    "scalar" : 1,
                                    "metadata" : {
                                      "AppliedThemeId" : "",
                                      "clipSpeedAttribute" : false,
                                      "effectApplied" : "none",
                                      "lockAspectRatio" : false
                                    },
                                    "animationTracks" : {

                                    }
                                  }
                                ],
                                  "ident" : "",
                                  "audioMuted" : false,
                                  "videoHidden" : false,
                                  "magnetic" : false,
                                  "matte" : 0,
                                  "solo" : false,
                                  "metadata" : {
                                    "IsLocked" : "False",
                                    "WinTrackHeight" : "56",
                                    "trackHeight" : "54"
                                  }
                              },
                              {
                                "trackIndex" : 1,
                                "medias" : [
                                  {
                                    "id" : 538,
                                    "_type" : "Callout",
                                    "def" : {
                                      "kind" : "remix",
                                      "shape" : "shape-rectangle",
                                      "style" : "bold",
                                      "fill-color-blue" : 0.756862759590149,
                                      "fill-color-green" : 0.18823529779911,
                                      "fill-color-opacity" : 1.0,
                                      "fill-color-red" : 0.960784316062927,
                                      "hasDropShadow" : 0.0,
                                      "height" : 160.0,
                                      "savedXScale" : 1.0,
                                      "savedYScale" : 1.0,
                                      "stroke-color-blue" : 0.886274516582489,
                                      "stroke-color-green" : 0.200000002980232,
                                      "stroke-color-opacity" : 0.0,
                                      "stroke-color-red" : 0.376470595598221,
                                      "stroke-width" : 0.0,
                                      "width" : 1400.0,
                                      "custom" : "Y",
                                      "fill-style" : "solid",
                                      "stroke-style" : "solid"
                                    },
                                    "attributes" : {
                                      "ident" : "",
                                      "autoRotateText" : true
                                    },
                                    "parameters" : {
                                      "sourceCrop0" : 0.0,
                                      "sourceCrop1" : 0.0,
                                      "sourceCrop2" : 0.0,
                                      "sourceCrop3" : 0.0,
                                      "geometryCrop0" : 0.0,
                                      "geometryCrop1" : 0.0,
                                      "geometryCrop2" : 0.0,
                                      "geometryCrop3" : 0.0
                                    },
                                    "effects" : [

                                    ],
                                    "start" : 0,
                                    "duration" : 3528000000,
                                    "mediaStart" : 0,
                                    "mediaDuration" : 3528000000,
                                    "scalar" : 1,
                                    "metadata" : {
                                      "AppliedThemeId" : "",
                                      "clipSpeedAttribute" : false,
                                      "effectApplied" : "none"
                                    },
                                    "animationTracks" : {

                                    }
                                  }
                                ],
                                  "ident" : "",
                                  "audioMuted" : false,
                                  "videoHidden" : false,
                                  "magnetic" : false,
                                  "matte" : 1,
                                  "solo" : false,
                                  "metadata" : {
                                    "IsLocked" : "False",
                                    "WinTrackHeight" : "56",
                                    "trackHeight" : "54"
                                  }
                              }
                            ],
                            "attributes" : {
                              "ident" : "Rect-1400x1600-Mask",
                              "widthAttr" : 1405.0,
                              "heightAttr" : 167.002,
                              "gain" : 1.0,
                              "mixToMono" : false
                            },
                            "effects" : [

                            ],
                            "start" : 0,
                            "duration" : 3528000000,
                            "mediaStart" : 0.0,
                            "mediaDuration" : 3528000000.0,
                            "scalar" : 1,
                            "metadata" : {
                              "clipSpeedAttribute" : false,
                              "effectApplied" : "none",
                              "isOpen" : false,
                              "lockAspectRatio" : true
                            },
                            "animationTracks" : {
                              "visual" : [
                                {
                                  "endTime" : 552720000,
                                  "duration" : 552720000,
                                  "range" : [ 0, 552720000],
                                  "interp" : "eioe"
                                },
                                {
                                  "endTime" : 1775760000,
                                  "duration" : 399840000,
                                  "range" : [ 1375920000, 399840000],
                                  "interp" : "eioe"
                                }
                              ]
                            }
                          }
                        ],
                          "ident" : "",
                          "audioMuted" : false,
                          "videoHidden" : false,
                          "magnetic" : false,
                          "matte" : 1,
                          "solo" : false,
                          "metadata" : {
                            "IsLocked" : "False",
                            "WinTrackHeight" : "56",
                            "trackHeight" : "54"
                          }
                      }
                    ],
                    "attributes" : {
                      "ident" : "Broadcast-Title-012",
                      "widthAttr" : 1405.0,
                      "heightAttr" : 160.0,
                      "gain" : 1.0,
                      "mixToMono" : false,
                      "assetProperties" : [
                        {
                          "type" : 0,
                          "name" : "Title",
                          "objects" : [ 529 ],
                          "themeMappings" :  {
                            "font-color" : "foreground-1"
                          }
                        },
                        {
                          "type" : 1,
                          "name" : "Fill",
                          "objects" : [ 527 ],
                          "themeMappings" :  {
                            "fill" : "background-1"
                          }
                        },
                        {
                          "type" : 1,
                          "name" : "Wiper",
                          "objects" : [ 534 ],
                          "themeMappings" :  {
                            "fill" : "foreground-1"
                          }
                        }
                      ]
                    },
                    "effects" : [

                    ],
                    "start" : 1928640000,
                    "duration" : 1764000000,
                    "mediaStart" : 0.0,
                    "mediaDuration" : 1764000000.0,
                    "scalar" : 1,
                    "metadata" : {
                      "AppliedThemeId" : "170ba59c-db5d-4b9a-a310-e7e99853a4b7",
                      "clipSpeedAttribute" : false,
                      "default-anchor0" : 0.0,
                      "default-anchor1" : 0.0,
                      "default-anchor2" : 0.0,
                      "default-geometryCrop0" : 0.0,
                      "default-height" : 160.0,
                      "default-rotation0" : 0.0,
                      "default-rotation1" : 0.0,
                      "default-rotation2" : 0.0,
                      "default-scale0" : 1.0,
                      "default-scale1" : 1.0,
                      "default-scale2" : 1.0,
                      "default-shear0" : 0.0,
                      "default-shear1" : 0.0,
                      "default-shear2" : 0.0,
                      "default-translation0" : 0.0,
                      "default-translation1" : 0.0,
                      "default-translation2" : 0.0,
                      "default-width" : 1405.0,
                      "effectApplied" : "none",
                      "isOpen" : false,
                      "lockAspectRatio" : true
                    },
                    "animationTracks" : {

                    }
                  }
                ]
              },
              {
                "trackIndex" : 122,
                "medias" : [
                  {
                    "id" : 539,
                    "_type" : "Group",
                    "parameters" : {
                      "translation0" : 350.0,
                      "translation1" : 350.0,
                      "scale0" : 0.213523131672598,
                      "scale1" : 0.21875,
                      "sourceCrop0" : 0.0,
                      "sourceCrop1" : 0.0,
                      "sourceCrop2" : 0.0,
                      "sourceCrop3" : 0.0,
                      "geometryCrop0" : 0.0,
                      "geometryCrop1" : 0.0,
                      "geometryCrop2" : 0.0,
                      "geometryCrop3" : 0.0,
                      "volume" : 1.0
                    },
                    "tracks" : [
                      {
                        "trackIndex" : 0,
                        "medias" : [
                          {
                            "id" : 540,
                            "_type" : "Group",
                            "parameters" : {
                              "translation0" : {
                                "type" : "double",
                                "defaultValue" : 0.0,
                                "keyframes" : [
                                  {
                                    "endTime" : 552720000,
                                    "time" : 0,
                                    "value" : 0.0,
                                    "interp" : "eioe",
                                    "duration" : 552720000
                                  },
                                  {
                                    "endTime" : 1775760000,
                                    "time" : 1375920000,
                                    "value" : 0.0,
                                    "interp" : "eioe",
                                    "duration" : 399840000
                                  }
                                ]
                              },
                              "translation1" : {
                                "type" : "double",
                                "defaultValue" : -305.610046386719,
                                "keyframes" : [
                                  {
                                    "endTime" : 552720000,
                                    "time" : 0,
                                    "value" : 0.0,
                                    "interp" : "eioe",
                                    "duration" : 552720000
                                  },
                                  {
                                    "endTime" : 1775760000,
                                    "time" : 1375920000,
                                    "value" : -304.610046386719,
                                    "interp" : "eioe",
                                    "duration" : 399840000
                                  }
                                ]
                              },
                              "sourceCrop0" : 0.0,
                              "sourceCrop1" : 0.0,
                              "sourceCrop2" : 0.0,
                              "sourceCrop3" : 0.0,
                              "geometryCrop0" : 0.0,
                              "geometryCrop1" : 0.0,
                              "geometryCrop2" : 0.0,
                              "geometryCrop3" : 0.0,
                              "volume" : 1.0
                            },
                            "tracks" : [
                              {
                                "trackIndex" : 0,
                                "medias" : [
                                  {
                                    "id" : 541,
                                    "_type" : "Group",
                                    "parameters" : {
                                      "sourceCrop0" : 0.0,
                                      "sourceCrop1" : 0.0,
                                      "sourceCrop2" : 0.0,
                                      "sourceCrop3" : 0.0,
                                      "geometryCrop0" : 0.0,
                                      "geometryCrop1" : 0.0,
                                      "geometryCrop2" : 0.0,
                                      "geometryCrop3" : 0.0,
                                      "volume" : 1.0
                                    },
                                    "tracks" : [
                                      {
                                        "trackIndex" : 0,
                                        "medias" : [
                                          {
                                            "id" : 542,
                                            "_type" : "Callout",
                                            "def" : {
                                              "kind" : "remix",
                                              "shape" : "shape-rectangle",
                                              "style" : "bold",
                                              "fill-color-blue" : 1.0,
                                              "fill-color-green" : 1.0,
                                              "fill-color-opacity" : 1.0,
                                              "fill-color-red" : 1.0,
                                              "hasDropShadow" : 0.0,
                                              "height" : 163.002035140991,
                                              "savedXScale" : 1.0,
                                              "savedYScale" : 1.0,
                                              "stroke-color-blue" : 1.0,
                                              "stroke-color-green" : 1.0,
                                              "stroke-color-opacity" : 1.0,
                                              "stroke-color-red" : 1.0,
                                              "stroke-width" : 0.0,
                                              "width" : 1403.00212860107,
                                              "custom" : "Y",
                                              "fill-style" : "solid",
                                              "stroke-style" : "solid"
                                            },
                                            "attributes" : {
                                              "ident" : "",
                                              "autoRotateText" : true
                                            },
                                            "parameters" : {
                                              "anchor0" : -1.0,
                                              "anchor1" : 2.0,
                                              "sourceCrop0" : 0.0,
                                              "sourceCrop1" : 0.0,
                                              "sourceCrop2" : 0.0,
                                              "sourceCrop3" : 0.0,
                                              "geometryCrop0" : 0.0,
                                              "geometryCrop1" : 0.0,
                                              "geometryCrop2" : 0.0,
                                              "geometryCrop3" : 0.0
                                            },
                                            "effects" : [

                                            ],
                                            "start" : 0,
                                            "duration" : 3528000000,
                                            "mediaStart" : 0,
                                            "mediaDuration" : 3528000000,
                                            "scalar" : 1,
                                            "metadata" : {
                                              "AppliedThemeId" : "",
                                              "clipSpeedAttribute" : false,
                                              "effectApplied" : "none",
                                              "lockAspectRatio" : false
                                            },
                                            "animationTracks" : {

                                            }
                                          }
                                        ],
                                          "ident" : "",
                                          "audioMuted" : false,
                                          "videoHidden" : false,
                                          "magnetic" : false,
                                          "matte" : 0,
                                          "solo" : false,
                                          "metadata" : {
                                            "IsLocked" : "False",
                                            "WinTrackHeight" : "56",
                                            "trackHeight" : "54"
                                          }
                                      },
                                      {
                                        "trackIndex" : 1,
                                        "medias" : [
                                          {
                                            "id" : 543,
                                            "_type" : "Callout",
                                            "def" : {
                                              "kind" : "remix",
                                              "shape" : "shape-rectangle",
                                              "style" : "bold",
                                              "fill-color-blue" : 0.756862759590149,
                                              "fill-color-green" : 0.18823529779911,
                                              "fill-color-opacity" : 1.0,
                                              "fill-color-red" : 0.960784316062927,
                                              "hasDropShadow" : 0.0,
                                              "height" : 160.0,
                                              "savedXScale" : 1.0,
                                              "savedYScale" : 1.0,
                                              "stroke-color-blue" : 0.886274516582489,
                                              "stroke-color-green" : 0.200000002980232,
                                              "stroke-color-opacity" : 0.0,
                                              "stroke-color-red" : 0.376470595598221,
                                              "stroke-width" : 0.0,
                                              "width" : 1400.0,
                                              "custom" : "Y",
                                              "fill-style" : "solid",
                                              "stroke-style" : "solid"
                                            },
                                            "attributes" : {
                                              "ident" : "",
                                              "autoRotateText" : true
                                            },
                                            "parameters" : {
                                              "sourceCrop0" : 0.0,
                                              "sourceCrop1" : 0.0,
                                              "sourceCrop2" : 0.0,
                                              "sourceCrop3" : 0.0,
                                              "geometryCrop0" : 0.0,
                                              "geometryCrop1" : 0.0,
                                              "geometryCrop2" : 0.0,
                                              "geometryCrop3" : 0.0
                                            },
                                            "effects" : [

                                            ],
                                            "start" : 0,
                                            "duration" : 3528000000,
                                            "mediaStart" : 0,
                                            "mediaDuration" : 3528000000,
                                            "scalar" : 1,
                                            "metadata" : {
                                              "AppliedThemeId" : "",
                                              "clipSpeedAttribute" : false,
                                              "effectApplied" : "none"
                                            },
                                            "animationTracks" : {

                                            }
                                          }
                                        ],
                                          "ident" : "",
                                          "audioMuted" : false,
                                          "videoHidden" : false,
                                          "magnetic" : false,
                                          "matte" : 1,
                                          "solo" : false,
                                          "metadata" : {
                                            "IsLocked" : "False",
                                            "WinTrackHeight" : "56",
                                            "trackHeight" : "54"
                                          }
                                      }
                                    ],
                                    "attributes" : {
                                      "ident" : "Fill-1400x160",
                                      "widthAttr" : 1405.0,
                                      "heightAttr" : 167.002,
                                      "gain" : 1.0,
                                      "mixToMono" : false
                                    },
                                    "effects" : [

                                    ],
                                    "start" : 0,
                                    "duration" : 3528000000,
                                    "mediaStart" : 0.0,
                                    "mediaDuration" : 3528000000.0,
                                    "scalar" : 1,
                                    "metadata" : {
                                      "clipSpeedAttribute" : false,
                                      "effectApplied" : "none",
                                      "isOpen" : false,
                                      "lockAspectRatio" : true
                                    },
                                    "animationTracks" : {

                                    }
                                  }
                                ],
                                  "ident" : "",
                                  "audioMuted" : false,
                                  "videoHidden" : false,
                                  "magnetic" : false,
                                  "matte" : 0,
                                  "solo" : false,
                                  "metadata" : {
                                    "IsLocked" : "False",
                                    "WinTrackHeight" : "56",
                                    "trackHeight" : "54"
                                  }
                              },
                              {
                                "trackIndex" : 1,
                                "medias" : [
                                  {
                                    "id" : 544,
                                    "_type" : "Callout",
                                    "def" : {
                                      "kind" : "remix",
                                      "shape" : "text",
                                      "style" : "urban",
                                      "enable-ligatures" : 1.0,
                                      "hasDropShadow" : 0.0,
                                      "height" : 170.0,
                                      "line-spacing" : 0.0,
                                      "savedXScale" : 1.0,
                                      "savedYScale" : 1.0,
                                      "width" : 1400.0,
                                      "word-wrap" : 1.0,
                                      "custom" : "Y",
                                      "horizontal-alignment" : "left",
                                      "resize-behavior" : "resizeText",
                                      "text" : "move to bottom (last data)",
                                      "vertical-alignment" : "center",
                                      "font" : {
                                        "color-blue" : 1.0,
                                        "color-green" : 1.0,
                                        "color-red" : 1.0,
                                        "size" : 96.0,
                                        "tracking" : 0.0,
                                        "name" : "Dosis",
                                        "weight" : "Semi Bold"
                                      },
                                      "textAttributes" : {
                                        "type" : "textAttributeList",
                                        "keyframes" : [
                                          {
                                            "endTime" : 0,
                                            "time" : 0,
                                            "value" : [{"name":"underline","rangeEnd":26,"rangeStart":0,"value":0,"valueType":"int"},{"name":"strikethrough","rangeEnd":26,"rangeStart":0,"value":0,"valueType":"int"},{"name":"fontName","rangeEnd":26,"rangeStart":0,"value":"Roboto","valueType":"string"},{"name":"kerning","rangeEnd":26,"rangeStart":0,"value":0.049883078231292483,"valueType":"double"},{"name":"fontItalic","rangeEnd":26,"rangeStart":0,"value":0,"valueType":"int"},{"name":"fontWeight","rangeEnd":26,"rangeStart":0,"value":700,"valueType":"int"},{"name":"fontSize","rangeEnd":26,"rangeStart":0,"value":86,"valueType":"double"},{"name":"fgColor","rangeEnd":26,"rangeStart":0,"value":"(110,110,110,255)","valueType":"color"}],
                                            "duration" : 0
                                          }
                                        ]
                                      }
                                    },
                                    "attributes" : {
                                      "ident" : "",
                                      "autoRotateText" : true
                                    },
                                    "parameters" : {
                                      "translation1" : -2.0,
                                      "sourceCrop0" : 0.0,
                                      "sourceCrop1" : 0.0,
                                      "sourceCrop2" : 0.0,
                                      "sourceCrop3" : 0.0,
                                      "geometryCrop0" : 0.0,
                                      "geometryCrop1" : 0.0,
                                      "geometryCrop2" : 0.0,
                                      "geometryCrop3" : 0.0
                                    },
                                    "effects" : [

                                    ],
                                    "start" : 0,
                                    "duration" : 3528000000,
                                    "mediaStart" : 0,
                                    "mediaDuration" : 3528000000,
                                    "scalar" : 1,
                                    "metadata" : {
                                      "AppliedThemeId" : "",
                                      "clipSpeedAttribute" : false,
                                      "effectApplied" : "none",
                                      "lockAspectRatio" : false
                                    },
                                    "animationTracks" : {

                                    }
                                  }
                                ],
                                  "ident" : "",
                                  "audioMuted" : false,
                                  "videoHidden" : false,
                                  "magnetic" : false,
                                  "matte" : 0,
                                  "solo" : false,
                                  "metadata" : {
                                    "IsLocked" : "False",
                                    "WinTrackHeight" : "56",
                                    "trackHeight" : "54"
                                  }
                              }
                            ],
                            "attributes" : {
                              "ident" : "BP-Title-11",
                              "widthAttr" : 1405.0,
                              "heightAttr" : 167.002,
                              "gain" : 1.0,
                              "mixToMono" : false,
                              "assetProperties" : [
                                {
                                  "type" : 0,
                                  "name" : "Title",
                                  "objects" : [ 544 ],
                                  "themeMappings" :  {
                                    "font-color" : "foreground-1"
                                  }
                                },
                                {
                                  "type" : 1,
                                  "name" : "Fill",
                                  "objects" : [ 542 ],
                                  "themeMappings" :  {
                                    "fill" : "background-1"
                                  }
                                }
                              ]
                            },
                            "effects" : [

                            ],
                            "start" : 0,
                            "duration" : 3528000000,
                            "mediaStart" : 0.0,
                            "mediaDuration" : 3528000000.0,
                            "scalar" : 1,
                            "metadata" : {
                              "clipSpeedAttribute" : false,
                              "effectApplied" : "none",
                              "isOpen" : false,
                              "lockAspectRatio" : true
                            },
                            "animationTracks" : {
                              "visual" : [
                                {
                                  "endTime" : 552720000,
                                  "duration" : 552720000,
                                  "range" : [ 0, 552720000],
                                  "interp" : "eioe"
                                },
                                {
                                  "endTime" : 1775760000,
                                  "duration" : 399840000,
                                  "range" : [ 1375920000, 399840000],
                                  "interp" : "eioe"
                                }
                              ]
                            }
                          }
                        ],
                          "ident" : "",
                          "audioMuted" : false,
                          "videoHidden" : false,
                          "magnetic" : false,
                          "matte" : 0,
                          "solo" : false,
                          "metadata" : {
                            "IsLocked" : "False",
                            "WinTrackHeight" : "56",
                            "trackHeight" : "54"
                          }
                      },
                      {
                        "trackIndex" : 1,
                        "medias" : [
                          {
                            "id" : 545,
                            "_type" : "Group",
                            "parameters" : {
                              "translation0" : {
                                "type" : "double",
                                "defaultValue" : 0.0,
                                "keyframes" : [
                                  {
                                    "endTime" : 552720000,
                                    "time" : 0,
                                    "value" : 0.0,
                                    "interp" : "eioe",
                                    "duration" : 552720000
                                  },
                                  {
                                    "endTime" : 1775760000,
                                    "time" : 1375920000,
                                    "value" : 0.0,
                                    "interp" : "eioe",
                                    "duration" : 399840000
                                  }
                                ]
                              },
                              "translation1" : {
                                "type" : "double",
                                "defaultValue" : -144.610046386719,
                                "keyframes" : [
                                  {
                                    "endTime" : 552720000,
                                    "time" : 0,
                                    "value" : 0.0,
                                    "interp" : "eioe",
                                    "duration" : 552720000
                                  },
                                  {
                                    "endTime" : 1775760000,
                                    "time" : 1375920000,
                                    "value" : -144.610046386719,
                                    "interp" : "eioe",
                                    "duration" : 399840000
                                  }
                                ]
                              },
                              "sourceCrop0" : 0.0,
                              "sourceCrop1" : 0.0,
                              "sourceCrop2" : 0.0,
                              "sourceCrop3" : 0.0,
                              "geometryCrop0" : 0.0,
                              "geometryCrop1" : 0.0,
                              "geometryCrop2" : 0.0,
                              "geometryCrop3" : 0.0,
                              "opacity" : {
                                "type" : "double",
                                "defaultValue" : 1.0,
                                "keyframes" : [
                                  {
                                    "endTime" : 552720000,
                                    "time" : 0,
                                    "value" : 1.0,
                                    "interp" : "eioe",
                                    "duration" : 552720000
                                  }
                                ]
                              },
                              "volume" : 1.0
                            },
                            "tracks" : [
                              {
                                "trackIndex" : 0,
                                "medias" : [
                                  {
                                    "id" : 546,
                                    "_type" : "Callout",
                                    "def" : {
                                      "kind" : "remix",
                                      "shape" : "shape-rectangle",
                                      "style" : "bold",
                                      "fill-color-blue" : 0.913725490196078,
                                      "fill-color-green" : 0.949019607843137,
                                      "fill-color-opacity" : 1.0,
                                      "fill-color-red" : 0.933333333333333,
                                      "hasDropShadow" : 0.0,
                                      "height" : 163.002035140991,
                                      "savedXScale" : 1.0,
                                      "savedYScale" : 1.0,
                                      "stroke-color-blue" : 1.0,
                                      "stroke-color-green" : 1.0,
                                      "stroke-color-opacity" : 1.0,
                                      "stroke-color-red" : 1.0,
                                      "stroke-width" : 0.0,
                                      "width" : 1403.00212860107,
                                      "custom" : "Y",
                                      "fill-style" : "solid",
                                      "stroke-style" : "solid"
                                    },
                                    "attributes" : {
                                      "ident" : "",
                                      "autoRotateText" : true
                                    },
                                    "parameters" : {
                                      "anchor0" : -1.0,
                                      "anchor1" : 2.0,
                                      "sourceCrop0" : 0.0,
                                      "sourceCrop1" : 0.0,
                                      "sourceCrop2" : 0.0,
                                      "sourceCrop3" : 0.0,
                                      "geometryCrop0" : 0.0,
                                      "geometryCrop1" : 0.0,
                                      "geometryCrop2" : 0.0,
                                      "geometryCrop3" : 0.0
                                    },
                                    "effects" : [

                                    ],
                                    "start" : 0,
                                    "duration" : 3528000000,
                                    "mediaStart" : 0,
                                    "mediaDuration" : 3528000000,
                                    "scalar" : 1,
                                    "metadata" : {
                                      "AppliedThemeId" : "",
                                      "clipSpeedAttribute" : false,
                                      "effectApplied" : "none",
                                      "lockAspectRatio" : false
                                    },
                                    "animationTracks" : {

                                    }
                                  }
                                ],
                                  "ident" : "",
                                  "audioMuted" : false,
                                  "videoHidden" : false,
                                  "magnetic" : false,
                                  "matte" : 0,
                                  "solo" : false,
                                  "metadata" : {
                                    "IsLocked" : "False",
                                    "WinTrackHeight" : "56",
                                    "trackHeight" : "54"
                                  }
                              },
                              {
                                "trackIndex" : 1,
                                "medias" : [
                                  {
                                    "id" : 547,
                                    "_type" : "Callout",
                                    "def" : {
                                      "kind" : "remix",
                                      "shape" : "shape-rectangle",
                                      "style" : "bold",
                                      "fill-color-blue" : 0.756862759590149,
                                      "fill-color-green" : 0.18823529779911,
                                      "fill-color-opacity" : 1.0,
                                      "fill-color-red" : 0.960784316062927,
                                      "hasDropShadow" : 0.0,
                                      "height" : 160.0,
                                      "savedXScale" : 1.0,
                                      "savedYScale" : 1.0,
                                      "stroke-color-blue" : 0.886274516582489,
                                      "stroke-color-green" : 0.200000002980232,
                                      "stroke-color-opacity" : 0.0,
                                      "stroke-color-red" : 0.376470595598221,
                                      "stroke-width" : 0.0,
                                      "width" : 1400.0,
                                      "custom" : "Y",
                                      "fill-style" : "solid",
                                      "stroke-style" : "solid"
                                    },
                                    "attributes" : {
                                      "ident" : "",
                                      "autoRotateText" : true
                                    },
                                    "parameters" : {
                                      "sourceCrop0" : 0.0,
                                      "sourceCrop1" : 0.0,
                                      "sourceCrop2" : 0.0,
                                      "sourceCrop3" : 0.0,
                                      "geometryCrop0" : 0.0,
                                      "geometryCrop1" : 0.0,
                                      "geometryCrop2" : 0.0,
                                      "geometryCrop3" : 0.0
                                    },
                                    "effects" : [

                                    ],
                                    "start" : 0,
                                    "duration" : 3528000000,
                                    "mediaStart" : 0,
                                    "mediaDuration" : 3528000000,
                                    "scalar" : 1,
                                    "metadata" : {
                                      "AppliedThemeId" : "",
                                      "clipSpeedAttribute" : false,
                                      "effectApplied" : "none"
                                    },
                                    "animationTracks" : {

                                    }
                                  }
                                ],
                                  "ident" : "",
                                  "audioMuted" : false,
                                  "videoHidden" : false,
                                  "magnetic" : false,
                                  "matte" : 1,
                                  "solo" : false,
                                  "metadata" : {
                                    "IsLocked" : "False",
                                    "WinTrackHeight" : "56",
                                    "trackHeight" : "54"
                                  }
                              }
                            ],
                            "attributes" : {
                              "ident" : "Rect-1400x1600-Mask",
                              "widthAttr" : 1405.0,
                              "heightAttr" : 167.002,
                              "gain" : 1.0,
                              "mixToMono" : false
                            },
                            "effects" : [

                            ],
                            "start" : 0,
                            "duration" : 3528000000,
                            "mediaStart" : 0.0,
                            "mediaDuration" : 3528000000.0,
                            "scalar" : 1,
                            "metadata" : {
                              "clipSpeedAttribute" : false,
                              "effectApplied" : "none",
                              "isOpen" : false,
                              "lockAspectRatio" : true
                            },
                            "animationTracks" : {
                              "visual" : [
                                {
                                  "endTime" : 552720000,
                                  "duration" : 552720000,
                                  "range" : [ 0, 552720000],
                                  "interp" : "eioe"
                                },
                                {
                                  "endTime" : 1775760000,
                                  "duration" : 399840000,
                                  "range" : [ 1375920000, 399840000],
                                  "interp" : "eioe"
                                }
                              ]
                            }
                          }
                        ],
                          "ident" : "",
                          "audioMuted" : false,
                          "videoHidden" : false,
                          "magnetic" : false,
                          "matte" : 1,
                          "solo" : false,
                          "metadata" : {
                            "IsLocked" : "False",
                            "WinTrackHeight" : "56",
                            "trackHeight" : "54"
                          }
                      },
                      {
                        "trackIndex" : 2,
                        "medias" : [
                          {
                            "id" : 548,
                            "_type" : "Group",
                            "parameters" : {
                              "translation0" : {
                                "type" : "double",
                                "defaultValue" : 0.0,
                                "keyframes" : [
                                  {
                                    "endTime" : 552720000,
                                    "time" : 0,
                                    "value" : 0.0,
                                    "interp" : "eioe",
                                    "duration" : 552720000
                                  },
                                  {
                                    "endTime" : 1775760000,
                                    "time" : 1375920000,
                                    "value" : 0.0,
                                    "interp" : "eioe",
                                    "duration" : 399840000
                                  }
                                ]
                              },
                              "translation1" : {
                                "type" : "double",
                                "defaultValue" : -233.610046386719,
                                "keyframes" : [
                                  {
                                    "endTime" : 552720000,
                                    "time" : 0,
                                    "value" : 90.0,
                                    "interp" : "eioe",
                                    "duration" : 552720000
                                  },
                                  {
                                    "endTime" : 1775760000,
                                    "time" : 1375920000,
                                    "value" : -233.610046386719,
                                    "interp" : "eioe",
                                    "duration" : 399840000
                                  }
                                ]
                              },
                              "sourceCrop0" : 0.0,
                              "sourceCrop1" : 0.0,
                              "sourceCrop2" : 0.0,
                              "sourceCrop3" : 0.0,
                              "geometryCrop0" : 0.0,
                              "geometryCrop1" : 0.0,
                              "geometryCrop2" : 0.0,
                              "geometryCrop3" : 0.0,
                              "opacity" : {
                                "type" : "double",
                                "defaultValue" : 1.0,
                                "keyframes" : [
                                  {
                                    "endTime" : 552720000,
                                    "time" : 0,
                                    "value" : 1.0,
                                    "interp" : "eioe",
                                    "duration" : 552720000
                                  }
                                ]
                              },
                              "volume" : 1.0
                            },
                            "tracks" : [
                              {
                                "trackIndex" : 0,
                                "medias" : [
                                  {
                                    "id" : 549,
                                    "_type" : "Callout",
                                    "def" : {
                                      "kind" : "remix",
                                      "shape" : "shape-rectangle",
                                      "style" : "bold",
                                      "fill-color-blue" : 0.2196078431,
                                      "fill-color-green" : 0.8745098039,
                                      "fill-color-opacity" : 1.0,
                                      "fill-color-red" : 1.0,
                                      "hasDropShadow" : 0.0,
                                      "height" : 163.002035140991,
                                      "savedXScale" : 1.0,
                                      "savedYScale" : 1.0,
                                      "stroke-color-blue" : 1.0,
                                      "stroke-color-green" : 1.0,
                                      "stroke-color-opacity" : 1.0,
                                      "stroke-color-red" : 1.0,
                                      "stroke-width" : 0.0,
                                      "width" : 1403.00212860107,
                                      "custom" : "Y",
                                      "fill-style" : "solid",
                                      "stroke-style" : "solid"
                                    },
                                    "attributes" : {
                                      "ident" : "",
                                      "autoRotateText" : true
                                    },
                                    "parameters" : {
                                      "anchor0" : -1.0,
                                      "anchor1" : 2.0,
                                      "sourceCrop0" : 0.0,
                                      "sourceCrop1" : 0.0,
                                      "sourceCrop2" : 0.0,
                                      "sourceCrop3" : 0.0,
                                      "geometryCrop0" : 0.0,
                                      "geometryCrop1" : 0.0,
                                      "geometryCrop2" : 0.0,
                                      "geometryCrop3" : 0.0
                                    },
                                    "effects" : [

                                    ],
                                    "start" : 0,
                                    "duration" : 3528000000,
                                    "mediaStart" : 0,
                                    "mediaDuration" : 3528000000,
                                    "scalar" : 1,
                                    "metadata" : {
                                      "AppliedThemeId" : "",
                                      "clipSpeedAttribute" : false,
                                      "effectApplied" : "none",
                                      "lockAspectRatio" : false
                                    },
                                    "animationTracks" : {

                                    }
                                  }
                                ],
                                  "ident" : "",
                                  "audioMuted" : false,
                                  "videoHidden" : false,
                                  "magnetic" : false,
                                  "matte" : 0,
                                  "solo" : false,
                                  "metadata" : {
                                    "IsLocked" : "False",
                                    "WinTrackHeight" : "56",
                                    "trackHeight" : "54"
                                  }
                              },
                              {
                                "trackIndex" : 1,
                                "medias" : [
                                  {
                                    "id" : 550,
                                    "_type" : "Callout",
                                    "def" : {
                                      "kind" : "remix",
                                      "shape" : "shape-rectangle",
                                      "style" : "bold",
                                      "fill-color-blue" : 0.756862759590149,
                                      "fill-color-green" : 0.18823529779911,
                                      "fill-color-opacity" : 1.0,
                                      "fill-color-red" : 0.960784316062927,
                                      "hasDropShadow" : 0.0,
                                      "height" : 160.0,
                                      "savedXScale" : 1.0,
                                      "savedYScale" : 1.0,
                                      "stroke-color-blue" : 0.886274516582489,
                                      "stroke-color-green" : 0.200000002980232,
                                      "stroke-color-opacity" : 0.0,
                                      "stroke-color-red" : 0.376470595598221,
                                      "stroke-width" : 0.0,
                                      "width" : 1400.0,
                                      "custom" : "Y",
                                      "fill-style" : "solid",
                                      "stroke-style" : "solid"
                                    },
                                    "attributes" : {
                                      "ident" : "",
                                      "autoRotateText" : true
                                    },
                                    "parameters" : {
                                      "translation1" : {
                                        "type" : "double",
                                        "defaultValue" : -1.0,
                                        "keyframes" : [
                                          {
                                            "endTime" : 270480000,
                                            "time" : 0,
                                            "value" : 0.0,
                                            "duration" : 270480000
                                          }
                                        ]
                                      },
                                      "scale0" : {
                                        "type" : "double",
                                        "defaultValue" : 1.0,
                                        "keyframes" : [
                                          {
                                            "endTime" : 270480000,
                                            "time" : 0,
                                            "value" : 1.0,
                                            "duration" : 270480000
                                          }
                                        ]
                                      },
                                      "scale1" : {
                                        "type" : "double",
                                        "defaultValue" : 0.125,
                                        "keyframes" : [
                                          {
                                            "endTime" : 270480000,
                                            "time" : 0,
                                            "value" : 0.5,
                                            "duration" : 270480000
                                          },
                                          {
                                            "endTime" : 552720000,
                                            "time" : 282240000,
                                            "value" : 0.125,
                                            "duration" : 270480000
                                          }
                                        ]
                                      },
                                      "sourceCrop0" : 0.0,
                                      "sourceCrop1" : 0.0,
                                      "sourceCrop2" : 0.0,
                                      "sourceCrop3" : 0.0,
                                      "geometryCrop0" : 0.0,
                                      "geometryCrop1" : 0.0,
                                      "geometryCrop2" : 0.0,
                                      "geometryCrop3" : 0.0
                                    },
                                    "effects" : [

                                    ],
                                    "start" : 0,
                                    "duration" : 3528000000,
                                    "mediaStart" : 0,
                                    "mediaDuration" : 3528000000,
                                    "scalar" : 1,
                                    "metadata" : {
                                      "AppliedThemeId" : "",
                                      "clipSpeedAttribute" : false,
                                      "effectApplied" : "none"
                                    },
                                    "animationTracks" : {
                                      "visual" : [
                                        {
                                          "endTime" : 270480000,
                                          "duration" : 270480000,
                                          "range" : [ 0, 270480000]
                                        },
                                        {
                                          "endTime" : 552720000,
                                          "duration" : 270480000,
                                          "range" : [ 282240000, 270480000]
                                        }
                                      ]
                                    }
                                  }
                                ],
                                  "ident" : "",
                                  "audioMuted" : false,
                                  "videoHidden" : false,
                                  "magnetic" : false,
                                  "matte" : 1,
                                  "solo" : false,
                                  "metadata" : {
                                    "IsLocked" : "False",
                                    "WinTrackHeight" : "56",
                                    "trackHeight" : "54"
                                  }
                              }
                            ],
                            "attributes" : {
                              "ident" : "Animated-Pulse-1400x20-To-1400x80",
                              "widthAttr" : 1405.0,
                              "heightAttr" : 167.002,
                              "gain" : 1.0,
                              "mixToMono" : false,
                              "assetProperties" : [
                                {
                                  "type" : 1,
                                  "name" : "Color",
                                  "objects" : [ 549 ],
                                  "themeMappings" :  {
                                    "fill" : "accent-1"
                                  }
                                }
                              ]
                            },
                            "effects" : [

                            ],
                            "start" : 0,
                            "duration" : 3528000000,
                            "mediaStart" : 0.0,
                            "mediaDuration" : 3528000000.0,
                            "scalar" : 1,
                            "metadata" : {
                              "AppliedThemeId" : "8e797988-b823-4beb-b251-1d31b461ba07",
                              "clipSpeedAttribute" : false,
                              "effectApplied" : "none",
                              "isOpen" : false,
                              "lockAspectRatio" : true
                            },
                            "animationTracks" : {
                              "visual" : [
                                {
                                  "endTime" : 552720000,
                                  "duration" : 552720000,
                                  "range" : [ 0, 552720000],
                                  "interp" : "eioe"
                                },
                                {
                                  "endTime" : 1775760000,
                                  "duration" : 399840000,
                                  "range" : [ 1375920000, 399840000],
                                  "interp" : "eioe"
                                }
                              ]
                            }
                          }
                        ],
                          "ident" : "",
                          "audioMuted" : false,
                          "videoHidden" : false,
                          "magnetic" : false,
                          "matte" : 0,
                          "solo" : false,
                          "metadata" : {
                            "IsLocked" : "False",
                            "WinTrackHeight" : "56",
                            "trackHeight" : "54"
                          }
                      },
                      {
                        "trackIndex" : 3,
                        "medias" : [
                          {
                            "id" : 551,
                            "_type" : "Group",
                            "parameters" : {
                              "translation0" : {
                                "type" : "double",
                                "defaultValue" : 0.0,
                                "keyframes" : [
                                  {
                                    "endTime" : 552720000,
                                    "time" : 0,
                                    "value" : 0.0,
                                    "interp" : "eioe",
                                    "duration" : 552720000
                                  },
                                  {
                                    "endTime" : 1775760000,
                                    "time" : 1375920000,
                                    "value" : 0.0,
                                    "interp" : "eioe",
                                    "duration" : 399840000
                                  }
                                ]
                              },
                              "translation1" : {
                                "type" : "double",
                                "defaultValue" : -143.610046386719,
                                "keyframes" : [
                                  {
                                    "endTime" : 552720000,
                                    "time" : 0,
                                    "value" : 0.0,
                                    "interp" : "eioe",
                                    "duration" : 552720000
                                  },
                                  {
                                    "endTime" : 1775760000,
                                    "time" : 1375920000,
                                    "value" : -143.610046386719,
                                    "interp" : "eioe",
                                    "duration" : 399840000
                                  }
                                ]
                              },
                              "sourceCrop0" : 0.0,
                              "sourceCrop1" : 0.0,
                              "sourceCrop2" : 0.0,
                              "sourceCrop3" : 0.0,
                              "geometryCrop0" : 0.0,
                              "geometryCrop1" : 0.0,
                              "geometryCrop2" : 0.0,
                              "geometryCrop3" : 0.0,
                              "opacity" : {
                                "type" : "double",
                                "defaultValue" : 1.0,
                                "keyframes" : [
                                  {
                                    "endTime" : 552720000,
                                    "time" : 0,
                                    "value" : 1.0,
                                    "interp" : "eioe",
                                    "duration" : 552720000
                                  }
                                ]
                              },
                              "volume" : 1.0
                            },
                            "tracks" : [
                              {
                                "trackIndex" : 0,
                                "medias" : [
                                  {
                                    "id" : 552,
                                    "_type" : "Callout",
                                    "def" : {
                                      "kind" : "remix",
                                      "shape" : "shape-rectangle",
                                      "style" : "bold",
                                      "fill-color-blue" : 0.913725490196078,
                                      "fill-color-green" : 0.949019607843137,
                                      "fill-color-opacity" : 1.0,
                                      "fill-color-red" : 0.933333333333333,
                                      "hasDropShadow" : 0.0,
                                      "height" : 163.002035140991,
                                      "savedXScale" : 1.0,
                                      "savedYScale" : 1.0,
                                      "stroke-color-blue" : 1.0,
                                      "stroke-color-green" : 1.0,
                                      "stroke-color-opacity" : 1.0,
                                      "stroke-color-red" : 1.0,
                                      "stroke-width" : 0.0,
                                      "width" : 1403.00212860107,
                                      "custom" : "Y",
                                      "fill-style" : "solid",
                                      "stroke-style" : "solid"
                                    },
                                    "attributes" : {
                                      "ident" : "",
                                      "autoRotateText" : true
                                    },
                                    "parameters" : {
                                      "anchor0" : -1.0,
                                      "anchor1" : 2.0,
                                      "sourceCrop0" : 0.0,
                                      "sourceCrop1" : 0.0,
                                      "sourceCrop2" : 0.0,
                                      "sourceCrop3" : 0.0,
                                      "geometryCrop0" : 0.0,
                                      "geometryCrop1" : 0.0,
                                      "geometryCrop2" : 0.0,
                                      "geometryCrop3" : 0.0
                                    },
                                    "effects" : [

                                    ],
                                    "start" : 0,
                                    "duration" : 3528000000,
                                    "mediaStart" : 0,
                                    "mediaDuration" : 3528000000,
                                    "scalar" : 1,
                                    "metadata" : {
                                      "AppliedThemeId" : "",
                                      "clipSpeedAttribute" : false,
                                      "effectApplied" : "none",
                                      "lockAspectRatio" : false
                                    },
                                    "animationTracks" : {

                                    }
                                  }
                                ],
                                  "ident" : "",
                                  "audioMuted" : false,
                                  "videoHidden" : false,
                                  "magnetic" : false,
                                  "matte" : 0,
                                  "solo" : false,
                                  "metadata" : {
                                    "IsLocked" : "False",
                                    "WinTrackHeight" : "56",
                                    "trackHeight" : "54"
                                  }
                              },
                              {
                                "trackIndex" : 1,
                                "medias" : [
                                  {
                                    "id" : 553,
                                    "_type" : "Callout",
                                    "def" : {
                                      "kind" : "remix",
                                      "shape" : "shape-rectangle",
                                      "style" : "bold",
                                      "fill-color-blue" : 0.756862759590149,
                                      "fill-color-green" : 0.18823529779911,
                                      "fill-color-opacity" : 1.0,
                                      "fill-color-red" : 0.960784316062927,
                                      "hasDropShadow" : 0.0,
                                      "height" : 160.0,
                                      "savedXScale" : 1.0,
                                      "savedYScale" : 1.0,
                                      "stroke-color-blue" : 0.886274516582489,
                                      "stroke-color-green" : 0.200000002980232,
                                      "stroke-color-opacity" : 0.0,
                                      "stroke-color-red" : 0.376470595598221,
                                      "stroke-width" : 0.0,
                                      "width" : 1400.0,
                                      "custom" : "Y",
                                      "fill-style" : "solid",
                                      "stroke-style" : "solid"
                                    },
                                    "attributes" : {
                                      "ident" : "",
                                      "autoRotateText" : true
                                    },
                                    "parameters" : {
                                      "sourceCrop0" : 0.0,
                                      "sourceCrop1" : 0.0,
                                      "sourceCrop2" : 0.0,
                                      "sourceCrop3" : 0.0,
                                      "geometryCrop0" : 0.0,
                                      "geometryCrop1" : 0.0,
                                      "geometryCrop2" : 0.0,
                                      "geometryCrop3" : 0.0
                                    },
                                    "effects" : [

                                    ],
                                    "start" : 0,
                                    "duration" : 3528000000,
                                    "mediaStart" : 0,
                                    "mediaDuration" : 3528000000,
                                    "scalar" : 1,
                                    "metadata" : {
                                      "AppliedThemeId" : "",
                                      "clipSpeedAttribute" : false,
                                      "effectApplied" : "none"
                                    },
                                    "animationTracks" : {

                                    }
                                  }
                                ],
                                  "ident" : "",
                                  "audioMuted" : false,
                                  "videoHidden" : false,
                                  "magnetic" : false,
                                  "matte" : 1,
                                  "solo" : false,
                                  "metadata" : {
                                    "IsLocked" : "False",
                                    "WinTrackHeight" : "56",
                                    "trackHeight" : "54"
                                  }
                              }
                            ],
                            "attributes" : {
                              "ident" : "Rect-1400x1600-Mask",
                              "widthAttr" : 1405.0,
                              "heightAttr" : 167.002,
                              "gain" : 1.0,
                              "mixToMono" : false
                            },
                            "effects" : [

                            ],
                            "start" : 0,
                            "duration" : 3528000000,
                            "mediaStart" : 0.0,
                            "mediaDuration" : 3528000000.0,
                            "scalar" : 1,
                            "metadata" : {
                              "clipSpeedAttribute" : false,
                              "effectApplied" : "none",
                              "isOpen" : false,
                              "lockAspectRatio" : true
                            },
                            "animationTracks" : {
                              "visual" : [
                                {
                                  "endTime" : 552720000,
                                  "duration" : 552720000,
                                  "range" : [ 0, 552720000],
                                  "interp" : "eioe"
                                },
                                {
                                  "endTime" : 1775760000,
                                  "duration" : 399840000,
                                  "range" : [ 1375920000, 399840000],
                                  "interp" : "eioe"
                                }
                              ]
                            }
                          }
                        ],
                          "ident" : "",
                          "audioMuted" : false,
                          "videoHidden" : false,
                          "magnetic" : false,
                          "matte" : 1,
                          "solo" : false,
                          "metadata" : {
                            "IsLocked" : "False",
                            "WinTrackHeight" : "56",
                            "trackHeight" : "54"
                          }
                      }
                    ],
                    "attributes" : {
                      "ident" : "Broadcast-Title-012",
                      "widthAttr" : 1405.0,
                      "heightAttr" : 160.0,
                      "gain" : 1.0,
                      "mixToMono" : false,
                      "assetProperties" : [
                        {
                          "type" : 0,
                          "name" : "Title",
                          "objects" : [ 544 ],
                          "themeMappings" :  {
                            "font-color" : "foreground-1"
                          }
                        },
                        {
                          "type" : 1,
                          "name" : "Fill",
                          "objects" : [ 542 ],
                          "themeMappings" :  {
                            "fill" : "background-1"
                          }
                        },
                        {
                          "type" : 1,
                          "name" : "Wiper",
                          "objects" : [ 549 ],
                          "themeMappings" :  {
                            "fill" : "foreground-1"
                          }
                        }
                      ]
                    },
                    "effects" : [

                    ],
                    "start" : 1928640000,
                    "duration" : 1764000000,
                    "mediaStart" : 0.0,
                    "mediaDuration" : 1764000000.0,
                    "scalar" : 1,
                    "metadata" : {
                      "AppliedThemeId" : "170ba59c-db5d-4b9a-a310-e7e99853a4b7",
                      "clipSpeedAttribute" : false,
                      "default-anchor0" : 0.0,
                      "default-anchor1" : 0.0,
                      "default-anchor2" : 0.0,
                      "default-geometryCrop0" : 0.0,
                      "default-height" : 160.0,
                      "default-rotation0" : 0.0,
                      "default-rotation1" : 0.0,
                      "default-rotation2" : 0.0,
                      "default-scale0" : 1.0,
                      "default-scale1" : 1.0,
                      "default-scale2" : 1.0,
                      "default-shear0" : 0.0,
                      "default-shear1" : 0.0,
                      "default-shear2" : 0.0,
                      "default-translation0" : 0.0,
                      "default-translation1" : 0.0,
                      "default-translation2" : 0.0,
                      "default-width" : 1405.0,
                      "effectApplied" : "none",
                      "isOpen" : false,
                      "lockAspectRatio" : true
                    },
                    "animationTracks" : {

                    }
                  }
                ]
              },
              {
                "trackIndex" : 123,
                "medias" : [
                  {
                    "id" : 554,
                    "_type" : "Group",
                    "parameters" : {
                      "translation0" : -415.0,
                      "translation1" : -448.308455882353,
                      "scale0" : 0.213523131672598,
                      "scale1" : 0.21875,
                      "sourceCrop0" : 0.0,
                      "sourceCrop1" : 0.0,
                      "sourceCrop2" : 0.0,
                      "sourceCrop3" : 0.0,
                      "geometryCrop0" : 0.0,
                      "geometryCrop1" : 0.0,
                      "geometryCrop2" : 0.0,
                      "geometryCrop3" : 0.0,
                      "volume" : 1.0
                    },
                    "tracks" : [
                      {
                        "trackIndex" : 0,
                        "medias" : [
                          {
                            "id" : 555,
                            "_type" : "Group",
                            "parameters" : {
                              "translation0" : {
                                "type" : "double",
                                "defaultValue" : 0.0,
                                "keyframes" : [
                                  {
                                    "endTime" : 552720000,
                                    "time" : 0,
                                    "value" : 0.0,
                                    "interp" : "eioe",
                                    "duration" : 552720000
                                  },
                                  {
                                    "endTime" : 1775760000,
                                    "time" : 1375920000,
                                    "value" : 0.0,
                                    "interp" : "eioe",
                                    "duration" : 399840000
                                  }
                                ]
                              },
                              "translation1" : {
                                "type" : "double",
                                "defaultValue" : -305.610046386719,
                                "keyframes" : [
                                  {
                                    "endTime" : 552720000,
                                    "time" : 0,
                                    "value" : 0.0,
                                    "interp" : "eioe",
                                    "duration" : 552720000
                                  },
                                  {
                                    "endTime" : 1775760000,
                                    "time" : 1375920000,
                                    "value" : -304.610046386719,
                                    "interp" : "eioe",
                                    "duration" : 399840000
                                  }
                                ]
                              },
                              "sourceCrop0" : 0.0,
                              "sourceCrop1" : 0.0,
                              "sourceCrop2" : 0.0,
                              "sourceCrop3" : 0.0,
                              "geometryCrop0" : 0.0,
                              "geometryCrop1" : 0.0,
                              "geometryCrop2" : 0.0,
                              "geometryCrop3" : 0.0,
                              "volume" : 1.0
                            },
                            "tracks" : [
                              {
                                "trackIndex" : 0,
                                "medias" : [
                                  {
                                    "id" : 556,
                                    "_type" : "Group",
                                    "parameters" : {
                                      "sourceCrop0" : 0.0,
                                      "sourceCrop1" : 0.0,
                                      "sourceCrop2" : 0.0,
                                      "sourceCrop3" : 0.0,
                                      "geometryCrop0" : 0.0,
                                      "geometryCrop1" : 0.0,
                                      "geometryCrop2" : 0.0,
                                      "geometryCrop3" : 0.0,
                                      "volume" : 1.0
                                    },
                                    "tracks" : [
                                      {
                                        "trackIndex" : 0,
                                        "medias" : [
                                          {
                                            "id" : 557,
                                            "_type" : "Callout",
                                            "def" : {
                                              "kind" : "remix",
                                              "shape" : "shape-rectangle",
                                              "style" : "bold",
                                              "fill-color-blue" : 1.0,
                                              "fill-color-green" : 1.0,
                                              "fill-color-opacity" : 1.0,
                                              "fill-color-red" : 1.0,
                                              "hasDropShadow" : 0.0,
                                              "height" : 163.002035140991,
                                              "savedXScale" : 1.0,
                                              "savedYScale" : 1.0,
                                              "stroke-color-blue" : 1.0,
                                              "stroke-color-green" : 1.0,
                                              "stroke-color-opacity" : 1.0,
                                              "stroke-color-red" : 1.0,
                                              "stroke-width" : 0.0,
                                              "width" : 1403.00212860107,
                                              "custom" : "Y",
                                              "fill-style" : "solid",
                                              "stroke-style" : "solid"
                                            },
                                            "attributes" : {
                                              "ident" : "",
                                              "autoRotateText" : true
                                            },
                                            "parameters" : {
                                              "anchor0" : -1.0,
                                              "anchor1" : 2.0,
                                              "sourceCrop0" : 0.0,
                                              "sourceCrop1" : 0.0,
                                              "sourceCrop2" : 0.0,
                                              "sourceCrop3" : 0.0,
                                              "geometryCrop0" : 0.0,
                                              "geometryCrop1" : 0.0,
                                              "geometryCrop2" : 0.0,
                                              "geometryCrop3" : 0.0
                                            },
                                            "effects" : [

                                            ],
                                            "start" : 0,
                                            "duration" : 3528000000,
                                            "mediaStart" : 0,
                                            "mediaDuration" : 3528000000,
                                            "scalar" : 1,
                                            "metadata" : {
                                              "AppliedThemeId" : "",
                                              "clipSpeedAttribute" : false,
                                              "effectApplied" : "none",
                                              "lockAspectRatio" : false
                                            },
                                            "animationTracks" : {

                                            }
                                          }
                                        ],
                                          "ident" : "",
                                          "audioMuted" : false,
                                          "videoHidden" : false,
                                          "magnetic" : false,
                                          "matte" : 0,
                                          "solo" : false,
                                          "metadata" : {
                                            "IsLocked" : "False",
                                            "WinTrackHeight" : "56",
                                            "trackHeight" : "54"
                                          }
                                      },
                                      {
                                        "trackIndex" : 1,
                                        "medias" : [
                                          {
                                            "id" : 558,
                                            "_type" : "Callout",
                                            "def" : {
                                              "kind" : "remix",
                                              "shape" : "shape-rectangle",
                                              "style" : "bold",
                                              "fill-color-blue" : 0.756862759590149,
                                              "fill-color-green" : 0.18823529779911,
                                              "fill-color-opacity" : 1.0,
                                              "fill-color-red" : 0.960784316062927,
                                              "hasDropShadow" : 0.0,
                                              "height" : 160.0,
                                              "savedXScale" : 1.0,
                                              "savedYScale" : 1.0,
                                              "stroke-color-blue" : 0.886274516582489,
                                              "stroke-color-green" : 0.200000002980232,
                                              "stroke-color-opacity" : 0.0,
                                              "stroke-color-red" : 0.376470595598221,
                                              "stroke-width" : 0.0,
                                              "width" : 1400.0,
                                              "custom" : "Y",
                                              "fill-style" : "solid",
                                              "stroke-style" : "solid"
                                            },
                                            "attributes" : {
                                              "ident" : "",
                                              "autoRotateText" : true
                                            },
                                            "parameters" : {
                                              "sourceCrop0" : 0.0,
                                              "sourceCrop1" : 0.0,
                                              "sourceCrop2" : 0.0,
                                              "sourceCrop3" : 0.0,
                                              "geometryCrop0" : 0.0,
                                              "geometryCrop1" : 0.0,
                                              "geometryCrop2" : 0.0,
                                              "geometryCrop3" : 0.0
                                            },
                                            "effects" : [

                                            ],
                                            "start" : 0,
                                            "duration" : 3528000000,
                                            "mediaStart" : 0,
                                            "mediaDuration" : 3528000000,
                                            "scalar" : 1,
                                            "metadata" : {
                                              "AppliedThemeId" : "",
                                              "clipSpeedAttribute" : false,
                                              "effectApplied" : "none"
                                            },
                                            "animationTracks" : {

                                            }
                                          }
                                        ],
                                          "ident" : "",
                                          "audioMuted" : false,
                                          "videoHidden" : false,
                                          "magnetic" : false,
                                          "matte" : 1,
                                          "solo" : false,
                                          "metadata" : {
                                            "IsLocked" : "False",
                                            "WinTrackHeight" : "56",
                                            "trackHeight" : "54"
                                          }
                                      }
                                    ],
                                    "attributes" : {
                                      "ident" : "Fill-1400x160",
                                      "widthAttr" : 1405.0,
                                      "heightAttr" : 167.002,
                                      "gain" : 1.0,
                                      "mixToMono" : false
                                    },
                                    "effects" : [

                                    ],
                                    "start" : 0,
                                    "duration" : 3528000000,
                                    "mediaStart" : 0.0,
                                    "mediaDuration" : 3528000000.0,
                                    "scalar" : 1,
                                    "metadata" : {
                                      "clipSpeedAttribute" : false,
                                      "effectApplied" : "none",
                                      "isOpen" : false,
                                      "lockAspectRatio" : true
                                    },
                                    "animationTracks" : {

                                    }
                                  }
                                ],
                                  "ident" : "",
                                  "audioMuted" : false,
                                  "videoHidden" : false,
                                  "magnetic" : false,
                                  "matte" : 0,
                                  "solo" : false,
                                  "metadata" : {
                                    "IsLocked" : "False",
                                    "WinTrackHeight" : "56",
                                    "trackHeight" : "54"
                                  }
                              },
                              {
                                "trackIndex" : 1,
                                "medias" : [
                                  {
                                    "id" : 559,
                                    "_type" : "Callout",
                                    "def" : {
                                      "kind" : "remix",
                                      "shape" : "text",
                                      "style" : "urban",
                                      "enable-ligatures" : 1.0,
                                      "hasDropShadow" : 0.0,
                                      "height" : 170.0,
                                      "line-spacing" : 0.0,
                                      "savedXScale" : 1.0,
                                      "savedYScale" : 1.0,
                                      "width" : 1400.0,
                                      "word-wrap" : 1.0,
                                      "custom" : "Y",
                                      "horizontal-alignment" : "left",
                                      "resize-behavior" : "resizeText",
                                      "text" : "group show level 3",
                                      "vertical-alignment" : "center",
                                      "font" : {
                                        "color-blue" : 1.0,
                                        "color-green" : 1.0,
                                        "color-red" : 1.0,
                                        "size" : 96.0,
                                        "tracking" : 0.0,
                                        "name" : "Dosis",
                                        "weight" : "Semi Bold"
                                      },
                                      "textAttributes" : {
                                        "type" : "textAttributeList",
                                        "keyframes" : [
                                          {
                                            "endTime" : 0,
                                            "time" : 0,
                                            "value" : [{"name":"underline","rangeEnd":18,"rangeStart":0,"value":0,"valueType":"int"},{"name":"strikethrough","rangeEnd":18,"rangeStart":0,"value":0,"valueType":"int"},{"name":"fontName","rangeEnd":18,"rangeStart":0,"value":"Roboto","valueType":"string"},{"name":"kerning","rangeEnd":18,"rangeStart":0,"value":0.049883078231292483,"valueType":"double"},{"name":"fontItalic","rangeEnd":18,"rangeStart":0,"value":0,"valueType":"int"},{"name":"fontWeight","rangeEnd":18,"rangeStart":0,"value":700,"valueType":"int"},{"name":"fontSize","rangeEnd":18,"rangeStart":0,"value":86,"valueType":"double"},{"name":"fgColor","rangeEnd":18,"rangeStart":0,"value":"(110,110,110,255)","valueType":"color"}],
                                            "duration" : 0
                                          }
                                        ]
                                      }
                                    },
                                    "attributes" : {
                                      "ident" : "",
                                      "autoRotateText" : true
                                    },
                                    "parameters" : {
                                      "translation1" : -2.0,
                                      "sourceCrop0" : 0.0,
                                      "sourceCrop1" : 0.0,
                                      "sourceCrop2" : 0.0,
                                      "sourceCrop3" : 0.0,
                                      "geometryCrop0" : 0.0,
                                      "geometryCrop1" : 0.0,
                                      "geometryCrop2" : 0.0,
                                      "geometryCrop3" : 0.0
                                    },
                                    "effects" : [

                                    ],
                                    "start" : 0,
                                    "duration" : 3528000000,
                                    "mediaStart" : 0,
                                    "mediaDuration" : 3528000000,
                                    "scalar" : 1,
                                    "metadata" : {
                                      "AppliedThemeId" : "",
                                      "clipSpeedAttribute" : false,
                                      "effectApplied" : "none",
                                      "lockAspectRatio" : false
                                    },
                                    "animationTracks" : {

                                    }
                                  }
                                ],
                                  "ident" : "",
                                  "audioMuted" : false,
                                  "videoHidden" : false,
                                  "magnetic" : false,
                                  "matte" : 0,
                                  "solo" : false,
                                  "metadata" : {
                                    "IsLocked" : "False",
                                    "WinTrackHeight" : "56",
                                    "trackHeight" : "54"
                                  }
                              }
                            ],
                            "attributes" : {
                              "ident" : "BP-Title-11",
                              "widthAttr" : 1405.0,
                              "heightAttr" : 167.002,
                              "gain" : 1.0,
                              "mixToMono" : false,
                              "assetProperties" : [
                                {
                                  "type" : 0,
                                  "name" : "Title",
                                  "objects" : [ 559 ],
                                  "themeMappings" :  {
                                    "font-color" : "foreground-1"
                                  }
                                },
                                {
                                  "type" : 1,
                                  "name" : "Fill",
                                  "objects" : [ 557 ],
                                  "themeMappings" :  {
                                    "fill" : "background-1"
                                  }
                                }
                              ]
                            },
                            "effects" : [

                            ],
                            "start" : 0,
                            "duration" : 3528000000,
                            "mediaStart" : 0.0,
                            "mediaDuration" : 3528000000.0,
                            "scalar" : 1,
                            "metadata" : {
                              "clipSpeedAttribute" : false,
                              "effectApplied" : "none",
                              "isOpen" : false,
                              "lockAspectRatio" : true
                            },
                            "animationTracks" : {
                              "visual" : [
                                {
                                  "endTime" : 552720000,
                                  "duration" : 552720000,
                                  "range" : [ 0, 552720000],
                                  "interp" : "eioe"
                                },
                                {
                                  "endTime" : 1775760000,
                                  "duration" : 399840000,
                                  "range" : [ 1375920000, 399840000],
                                  "interp" : "eioe"
                                }
                              ]
                            }
                          }
                        ],
                          "ident" : "",
                          "audioMuted" : false,
                          "videoHidden" : false,
                          "magnetic" : false,
                          "matte" : 0,
                          "solo" : false,
                          "metadata" : {
                            "IsLocked" : "False",
                            "WinTrackHeight" : "56",
                            "trackHeight" : "54"
                          }
                      },
                      {
                        "trackIndex" : 1,
                        "medias" : [
                          {
                            "id" : 560,
                            "_type" : "Group",
                            "parameters" : {
                              "translation0" : {
                                "type" : "double",
                                "defaultValue" : 0.0,
                                "keyframes" : [
                                  {
                                    "endTime" : 552720000,
                                    "time" : 0,
                                    "value" : 0.0,
                                    "interp" : "eioe",
                                    "duration" : 552720000
                                  },
                                  {
                                    "endTime" : 1775760000,
                                    "time" : 1375920000,
                                    "value" : 0.0,
                                    "interp" : "eioe",
                                    "duration" : 399840000
                                  }
                                ]
                              },
                              "translation1" : {
                                "type" : "double",
                                "defaultValue" : -144.610046386719,
                                "keyframes" : [
                                  {
                                    "endTime" : 552720000,
                                    "time" : 0,
                                    "value" : 0.0,
                                    "interp" : "eioe",
                                    "duration" : 552720000
                                  },
                                  {
                                    "endTime" : 1775760000,
                                    "time" : 1375920000,
                                    "value" : -144.610046386719,
                                    "interp" : "eioe",
                                    "duration" : 399840000
                                  }
                                ]
                              },
                              "sourceCrop0" : 0.0,
                              "sourceCrop1" : 0.0,
                              "sourceCrop2" : 0.0,
                              "sourceCrop3" : 0.0,
                              "geometryCrop0" : 0.0,
                              "geometryCrop1" : 0.0,
                              "geometryCrop2" : 0.0,
                              "geometryCrop3" : 0.0,
                              "opacity" : {
                                "type" : "double",
                                "defaultValue" : 1.0,
                                "keyframes" : [
                                  {
                                    "endTime" : 552720000,
                                    "time" : 0,
                                    "value" : 1.0,
                                    "interp" : "eioe",
                                    "duration" : 552720000
                                  }
                                ]
                              },
                              "volume" : 1.0
                            },
                            "tracks" : [
                              {
                                "trackIndex" : 0,
                                "medias" : [
                                  {
                                    "id" : 561,
                                    "_type" : "Callout",
                                    "def" : {
                                      "kind" : "remix",
                                      "shape" : "shape-rectangle",
                                      "style" : "bold",
                                      "fill-color-blue" : 0.913725490196078,
                                      "fill-color-green" : 0.949019607843137,
                                      "fill-color-opacity" : 1.0,
                                      "fill-color-red" : 0.933333333333333,
                                      "hasDropShadow" : 0.0,
                                      "height" : 163.002035140991,
                                      "savedXScale" : 1.0,
                                      "savedYScale" : 1.0,
                                      "stroke-color-blue" : 1.0,
                                      "stroke-color-green" : 1.0,
                                      "stroke-color-opacity" : 1.0,
                                      "stroke-color-red" : 1.0,
                                      "stroke-width" : 0.0,
                                      "width" : 1403.00212860107,
                                      "custom" : "Y",
                                      "fill-style" : "solid",
                                      "stroke-style" : "solid"
                                    },
                                    "attributes" : {
                                      "ident" : "",
                                      "autoRotateText" : true
                                    },
                                    "parameters" : {
                                      "anchor0" : -1.0,
                                      "anchor1" : 2.0,
                                      "sourceCrop0" : 0.0,
                                      "sourceCrop1" : 0.0,
                                      "sourceCrop2" : 0.0,
                                      "sourceCrop3" : 0.0,
                                      "geometryCrop0" : 0.0,
                                      "geometryCrop1" : 0.0,
                                      "geometryCrop2" : 0.0,
                                      "geometryCrop3" : 0.0
                                    },
                                    "effects" : [

                                    ],
                                    "start" : 0,
                                    "duration" : 3528000000,
                                    "mediaStart" : 0,
                                    "mediaDuration" : 3528000000,
                                    "scalar" : 1,
                                    "metadata" : {
                                      "AppliedThemeId" : "",
                                      "clipSpeedAttribute" : false,
                                      "effectApplied" : "none",
                                      "lockAspectRatio" : false
                                    },
                                    "animationTracks" : {

                                    }
                                  }
                                ],
                                  "ident" : "",
                                  "audioMuted" : false,
                                  "videoHidden" : false,
                                  "magnetic" : false,
                                  "matte" : 0,
                                  "solo" : false,
                                  "metadata" : {
                                    "IsLocked" : "False",
                                    "WinTrackHeight" : "56",
                                    "trackHeight" : "54"
                                  }
                              },
                              {
                                "trackIndex" : 1,
                                "medias" : [
                                  {
                                    "id" : 562,
                                    "_type" : "Callout",
                                    "def" : {
                                      "kind" : "remix",
                                      "shape" : "shape-rectangle",
                                      "style" : "bold",
                                      "fill-color-blue" : 0.756862759590149,
                                      "fill-color-green" : 0.18823529779911,
                                      "fill-color-opacity" : 1.0,
                                      "fill-color-red" : 0.960784316062927,
                                      "hasDropShadow" : 0.0,
                                      "height" : 160.0,
                                      "savedXScale" : 1.0,
                                      "savedYScale" : 1.0,
                                      "stroke-color-blue" : 0.886274516582489,
                                      "stroke-color-green" : 0.200000002980232,
                                      "stroke-color-opacity" : 0.0,
                                      "stroke-color-red" : 0.376470595598221,
                                      "stroke-width" : 0.0,
                                      "width" : 1400.0,
                                      "custom" : "Y",
                                      "fill-style" : "solid",
                                      "stroke-style" : "solid"
                                    },
                                    "attributes" : {
                                      "ident" : "",
                                      "autoRotateText" : true
                                    },
                                    "parameters" : {
                                      "sourceCrop0" : 0.0,
                                      "sourceCrop1" : 0.0,
                                      "sourceCrop2" : 0.0,
                                      "sourceCrop3" : 0.0,
                                      "geometryCrop0" : 0.0,
                                      "geometryCrop1" : 0.0,
                                      "geometryCrop2" : 0.0,
                                      "geometryCrop3" : 0.0
                                    },
                                    "effects" : [

                                    ],
                                    "start" : 0,
                                    "duration" : 3528000000,
                                    "mediaStart" : 0,
                                    "mediaDuration" : 3528000000,
                                    "scalar" : 1,
                                    "metadata" : {
                                      "AppliedThemeId" : "",
                                      "clipSpeedAttribute" : false,
                                      "effectApplied" : "none"
                                    },
                                    "animationTracks" : {

                                    }
                                  }
                                ],
                                  "ident" : "",
                                  "audioMuted" : false,
                                  "videoHidden" : false,
                                  "magnetic" : false,
                                  "matte" : 1,
                                  "solo" : false,
                                  "metadata" : {
                                    "IsLocked" : "False",
                                    "WinTrackHeight" : "56",
                                    "trackHeight" : "54"
                                  }
                              }
                            ],
                            "attributes" : {
                              "ident" : "Rect-1400x1600-Mask",
                              "widthAttr" : 1405.0,
                              "heightAttr" : 167.002,
                              "gain" : 1.0,
                              "mixToMono" : false
                            },
                            "effects" : [

                            ],
                            "start" : 0,
                            "duration" : 3528000000,
                            "mediaStart" : 0.0,
                            "mediaDuration" : 3528000000.0,
                            "scalar" : 1,
                            "metadata" : {
                              "clipSpeedAttribute" : false,
                              "effectApplied" : "none",
                              "isOpen" : false,
                              "lockAspectRatio" : true
                            },
                            "animationTracks" : {
                              "visual" : [
                                {
                                  "endTime" : 552720000,
                                  "duration" : 552720000,
                                  "range" : [ 0, 552720000],
                                  "interp" : "eioe"
                                },
                                {
                                  "endTime" : 1775760000,
                                  "duration" : 399840000,
                                  "range" : [ 1375920000, 399840000],
                                  "interp" : "eioe"
                                }
                              ]
                            }
                          }
                        ],
                          "ident" : "",
                          "audioMuted" : false,
                          "videoHidden" : false,
                          "magnetic" : false,
                          "matte" : 1,
                          "solo" : false,
                          "metadata" : {
                            "IsLocked" : "False",
                            "WinTrackHeight" : "56",
                            "trackHeight" : "54"
                          }
                      },
                      {
                        "trackIndex" : 2,
                        "medias" : [
                          {
                            "id" : 563,
                            "_type" : "Group",
                            "parameters" : {
                              "translation0" : {
                                "type" : "double",
                                "defaultValue" : 0.0,
                                "keyframes" : [
                                  {
                                    "endTime" : 552720000,
                                    "time" : 0,
                                    "value" : 0.0,
                                    "interp" : "eioe",
                                    "duration" : 552720000
                                  },
                                  {
                                    "endTime" : 1775760000,
                                    "time" : 1375920000,
                                    "value" : 0.0,
                                    "interp" : "eioe",
                                    "duration" : 399840000
                                  }
                                ]
                              },
                              "translation1" : {
                                "type" : "double",
                                "defaultValue" : -233.610046386719,
                                "keyframes" : [
                                  {
                                    "endTime" : 552720000,
                                    "time" : 0,
                                    "value" : 90.0,
                                    "interp" : "eioe",
                                    "duration" : 552720000
                                  },
                                  {
                                    "endTime" : 1775760000,
                                    "time" : 1375920000,
                                    "value" : -233.610046386719,
                                    "interp" : "eioe",
                                    "duration" : 399840000
                                  }
                                ]
                              },
                              "sourceCrop0" : 0.0,
                              "sourceCrop1" : 0.0,
                              "sourceCrop2" : 0.0,
                              "sourceCrop3" : 0.0,
                              "geometryCrop0" : 0.0,
                              "geometryCrop1" : 0.0,
                              "geometryCrop2" : 0.0,
                              "geometryCrop3" : 0.0,
                              "opacity" : {
                                "type" : "double",
                                "defaultValue" : 1.0,
                                "keyframes" : [
                                  {
                                    "endTime" : 552720000,
                                    "time" : 0,
                                    "value" : 1.0,
                                    "interp" : "eioe",
                                    "duration" : 552720000
                                  }
                                ]
                              },
                              "volume" : 1.0
                            },
                            "tracks" : [
                              {
                                "trackIndex" : 0,
                                "medias" : [
                                  {
                                    "id" : 564,
                                    "_type" : "Callout",
                                    "def" : {
                                      "kind" : "remix",
                                      "shape" : "shape-rectangle",
                                      "style" : "bold",
                                      "fill-color-blue" : 0.2196078431,
                                      "fill-color-green" : 0.8745098039,
                                      "fill-color-opacity" : 1.0,
                                      "fill-color-red" : 1.0,
                                      "hasDropShadow" : 0.0,
                                      "height" : 163.002035140991,
                                      "savedXScale" : 1.0,
                                      "savedYScale" : 1.0,
                                      "stroke-color-blue" : 1.0,
                                      "stroke-color-green" : 1.0,
                                      "stroke-color-opacity" : 1.0,
                                      "stroke-color-red" : 1.0,
                                      "stroke-width" : 0.0,
                                      "width" : 1403.00212860107,
                                      "custom" : "Y",
                                      "fill-style" : "solid",
                                      "stroke-style" : "solid"
                                    },
                                    "attributes" : {
                                      "ident" : "",
                                      "autoRotateText" : true
                                    },
                                    "parameters" : {
                                      "anchor0" : -1.0,
                                      "anchor1" : 2.0,
                                      "sourceCrop0" : 0.0,
                                      "sourceCrop1" : 0.0,
                                      "sourceCrop2" : 0.0,
                                      "sourceCrop3" : 0.0,
                                      "geometryCrop0" : 0.0,
                                      "geometryCrop1" : 0.0,
                                      "geometryCrop2" : 0.0,
                                      "geometryCrop3" : 0.0
                                    },
                                    "effects" : [

                                    ],
                                    "start" : 0,
                                    "duration" : 3528000000,
                                    "mediaStart" : 0,
                                    "mediaDuration" : 3528000000,
                                    "scalar" : 1,
                                    "metadata" : {
                                      "AppliedThemeId" : "",
                                      "clipSpeedAttribute" : false,
                                      "effectApplied" : "none",
                                      "lockAspectRatio" : false
                                    },
                                    "animationTracks" : {

                                    }
                                  }
                                ],
                                  "ident" : "",
                                  "audioMuted" : false,
                                  "videoHidden" : false,
                                  "magnetic" : false,
                                  "matte" : 0,
                                  "solo" : false,
                                  "metadata" : {
                                    "IsLocked" : "False",
                                    "WinTrackHeight" : "56",
                                    "trackHeight" : "54"
                                  }
                              },
                              {
                                "trackIndex" : 1,
                                "medias" : [
                                  {
                                    "id" : 565,
                                    "_type" : "Callout",
                                    "def" : {
                                      "kind" : "remix",
                                      "shape" : "shape-rectangle",
                                      "style" : "bold",
                                      "fill-color-blue" : 0.756862759590149,
                                      "fill-color-green" : 0.18823529779911,
                                      "fill-color-opacity" : 1.0,
                                      "fill-color-red" : 0.960784316062927,
                                      "hasDropShadow" : 0.0,
                                      "height" : 160.0,
                                      "savedXScale" : 1.0,
                                      "savedYScale" : 1.0,
                                      "stroke-color-blue" : 0.886274516582489,
                                      "stroke-color-green" : 0.200000002980232,
                                      "stroke-color-opacity" : 0.0,
                                      "stroke-color-red" : 0.376470595598221,
                                      "stroke-width" : 0.0,
                                      "width" : 1400.0,
                                      "custom" : "Y",
                                      "fill-style" : "solid",
                                      "stroke-style" : "solid"
                                    },
                                    "attributes" : {
                                      "ident" : "",
                                      "autoRotateText" : true
                                    },
                                    "parameters" : {
                                      "translation1" : {
                                        "type" : "double",
                                        "defaultValue" : -1.0,
                                        "keyframes" : [
                                          {
                                            "endTime" : 270480000,
                                            "time" : 0,
                                            "value" : 0.0,
                                            "duration" : 270480000
                                          }
                                        ]
                                      },
                                      "scale0" : {
                                        "type" : "double",
                                        "defaultValue" : 1.0,
                                        "keyframes" : [
                                          {
                                            "endTime" : 270480000,
                                            "time" : 0,
                                            "value" : 1.0,
                                            "duration" : 270480000
                                          }
                                        ]
                                      },
                                      "scale1" : {
                                        "type" : "double",
                                        "defaultValue" : 0.125,
                                        "keyframes" : [
                                          {
                                            "endTime" : 270480000,
                                            "time" : 0,
                                            "value" : 0.5,
                                            "duration" : 270480000
                                          },
                                          {
                                            "endTime" : 552720000,
                                            "time" : 282240000,
                                            "value" : 0.125,
                                            "duration" : 270480000
                                          }
                                        ]
                                      },
                                      "sourceCrop0" : 0.0,
                                      "sourceCrop1" : 0.0,
                                      "sourceCrop2" : 0.0,
                                      "sourceCrop3" : 0.0,
                                      "geometryCrop0" : 0.0,
                                      "geometryCrop1" : 0.0,
                                      "geometryCrop2" : 0.0,
                                      "geometryCrop3" : 0.0
                                    },
                                    "effects" : [

                                    ],
                                    "start" : 0,
                                    "duration" : 3528000000,
                                    "mediaStart" : 0,
                                    "mediaDuration" : 3528000000,
                                    "scalar" : 1,
                                    "metadata" : {
                                      "AppliedThemeId" : "",
                                      "clipSpeedAttribute" : false,
                                      "effectApplied" : "none"
                                    },
                                    "animationTracks" : {
                                      "visual" : [
                                        {
                                          "endTime" : 270480000,
                                          "duration" : 270480000,
                                          "range" : [ 0, 270480000]
                                        },
                                        {
                                          "endTime" : 552720000,
                                          "duration" : 270480000,
                                          "range" : [ 282240000, 270480000]
                                        }
                                      ]
                                    }
                                  }
                                ],
                                  "ident" : "",
                                  "audioMuted" : false,
                                  "videoHidden" : false,
                                  "magnetic" : false,
                                  "matte" : 1,
                                  "solo" : false,
                                  "metadata" : {
                                    "IsLocked" : "False",
                                    "WinTrackHeight" : "56",
                                    "trackHeight" : "54"
                                  }
                              }
                            ],
                            "attributes" : {
                              "ident" : "Animated-Pulse-1400x20-To-1400x80",
                              "widthAttr" : 1405.0,
                              "heightAttr" : 167.002,
                              "gain" : 1.0,
                              "mixToMono" : false,
                              "assetProperties" : [
                                {
                                  "type" : 1,
                                  "name" : "Color",
                                  "objects" : [ 564 ],
                                  "themeMappings" :  {
                                    "fill" : "accent-1"
                                  }
                                }
                              ]
                            },
                            "effects" : [

                            ],
                            "start" : 0,
                            "duration" : 3528000000,
                            "mediaStart" : 0.0,
                            "mediaDuration" : 3528000000.0,
                            "scalar" : 1,
                            "metadata" : {
                              "AppliedThemeId" : "8e797988-b823-4beb-b251-1d31b461ba07",
                              "clipSpeedAttribute" : false,
                              "effectApplied" : "none",
                              "isOpen" : false,
                              "lockAspectRatio" : true
                            },
                            "animationTracks" : {
                              "visual" : [
                                {
                                  "endTime" : 552720000,
                                  "duration" : 552720000,
                                  "range" : [ 0, 552720000],
                                  "interp" : "eioe"
                                },
                                {
                                  "endTime" : 1775760000,
                                  "duration" : 399840000,
                                  "range" : [ 1375920000, 399840000],
                                  "interp" : "eioe"
                                }
                              ]
                            }
                          }
                        ],
                          "ident" : "",
                          "audioMuted" : false,
                          "videoHidden" : false,
                          "magnetic" : false,
                          "matte" : 0,
                          "solo" : false,
                          "metadata" : {
                            "IsLocked" : "False",
                            "WinTrackHeight" : "56",
                            "trackHeight" : "54"
                          }
                      },
                      {
                        "trackIndex" : 3,
                        "medias" : [
                          {
                            "id" : 566,
                            "_type" : "Group",
                            "parameters" : {
                              "translation0" : {
                                "type" : "double",
                                "defaultValue" : 0.0,
                                "keyframes" : [
                                  {
                                    "endTime" : 552720000,
                                    "time" : 0,
                                    "value" : 0.0,
                                    "interp" : "eioe",
                                    "duration" : 552720000
                                  },
                                  {
                                    "endTime" : 1775760000,
                                    "time" : 1375920000,
                                    "value" : 0.0,
                                    "interp" : "eioe",
                                    "duration" : 399840000
                                  }
                                ]
                              },
                              "translation1" : {
                                "type" : "double",
                                "defaultValue" : -143.610046386719,
                                "keyframes" : [
                                  {
                                    "endTime" : 552720000,
                                    "time" : 0,
                                    "value" : 0.0,
                                    "interp" : "eioe",
                                    "duration" : 552720000
                                  },
                                  {
                                    "endTime" : 1775760000,
                                    "time" : 1375920000,
                                    "value" : -143.610046386719,
                                    "interp" : "eioe",
                                    "duration" : 399840000
                                  }
                                ]
                              },
                              "sourceCrop0" : 0.0,
                              "sourceCrop1" : 0.0,
                              "sourceCrop2" : 0.0,
                              "sourceCrop3" : 0.0,
                              "geometryCrop0" : 0.0,
                              "geometryCrop1" : 0.0,
                              "geometryCrop2" : 0.0,
                              "geometryCrop3" : 0.0,
                              "opacity" : {
                                "type" : "double",
                                "defaultValue" : 1.0,
                                "keyframes" : [
                                  {
                                    "endTime" : 552720000,
                                    "time" : 0,
                                    "value" : 1.0,
                                    "interp" : "eioe",
                                    "duration" : 552720000
                                  }
                                ]
                              },
                              "volume" : 1.0
                            },
                            "tracks" : [
                              {
                                "trackIndex" : 0,
                                "medias" : [
                                  {
                                    "id" : 567,
                                    "_type" : "Callout",
                                    "def" : {
                                      "kind" : "remix",
                                      "shape" : "shape-rectangle",
                                      "style" : "bold",
                                      "fill-color-blue" : 0.913725490196078,
                                      "fill-color-green" : 0.949019607843137,
                                      "fill-color-opacity" : 1.0,
                                      "fill-color-red" : 0.933333333333333,
                                      "hasDropShadow" : 0.0,
                                      "height" : 163.002035140991,
                                      "savedXScale" : 1.0,
                                      "savedYScale" : 1.0,
                                      "stroke-color-blue" : 1.0,
                                      "stroke-color-green" : 1.0,
                                      "stroke-color-opacity" : 1.0,
                                      "stroke-color-red" : 1.0,
                                      "stroke-width" : 0.0,
                                      "width" : 1403.00212860107,
                                      "custom" : "Y",
                                      "fill-style" : "solid",
                                      "stroke-style" : "solid"
                                    },
                                    "attributes" : {
                                      "ident" : "",
                                      "autoRotateText" : true
                                    },
                                    "parameters" : {
                                      "anchor0" : -1.0,
                                      "anchor1" : 2.0,
                                      "sourceCrop0" : 0.0,
                                      "sourceCrop1" : 0.0,
                                      "sourceCrop2" : 0.0,
                                      "sourceCrop3" : 0.0,
                                      "geometryCrop0" : 0.0,
                                      "geometryCrop1" : 0.0,
                                      "geometryCrop2" : 0.0,
                                      "geometryCrop3" : 0.0
                                    },
                                    "effects" : [

                                    ],
                                    "start" : 0,
                                    "duration" : 3528000000,
                                    "mediaStart" : 0,
                                    "mediaDuration" : 3528000000,
                                    "scalar" : 1,
                                    "metadata" : {
                                      "AppliedThemeId" : "",
                                      "clipSpeedAttribute" : false,
                                      "effectApplied" : "none",
                                      "lockAspectRatio" : false
                                    },
                                    "animationTracks" : {

                                    }
                                  }
                                ],
                                  "ident" : "",
                                  "audioMuted" : false,
                                  "videoHidden" : false,
                                  "magnetic" : false,
                                  "matte" : 0,
                                  "solo" : false,
                                  "metadata" : {
                                    "IsLocked" : "False",
                                    "WinTrackHeight" : "56",
                                    "trackHeight" : "54"
                                  }
                              },
                              {
                                "trackIndex" : 1,
                                "medias" : [
                                  {
                                    "id" : 568,
                                    "_type" : "Callout",
                                    "def" : {
                                      "kind" : "remix",
                                      "shape" : "shape-rectangle",
                                      "style" : "bold",
                                      "fill-color-blue" : 0.756862759590149,
                                      "fill-color-green" : 0.18823529779911,
                                      "fill-color-opacity" : 1.0,
                                      "fill-color-red" : 0.960784316062927,
                                      "hasDropShadow" : 0.0,
                                      "height" : 160.0,
                                      "savedXScale" : 1.0,
                                      "savedYScale" : 1.0,
                                      "stroke-color-blue" : 0.886274516582489,
                                      "stroke-color-green" : 0.200000002980232,
                                      "stroke-color-opacity" : 0.0,
                                      "stroke-color-red" : 0.376470595598221,
                                      "stroke-width" : 0.0,
                                      "width" : 1400.0,
                                      "custom" : "Y",
                                      "fill-style" : "solid",
                                      "stroke-style" : "solid"
                                    },
                                    "attributes" : {
                                      "ident" : "",
                                      "autoRotateText" : true
                                    },
                                    "parameters" : {
                                      "sourceCrop0" : 0.0,
                                      "sourceCrop1" : 0.0,
                                      "sourceCrop2" : 0.0,
                                      "sourceCrop3" : 0.0,
                                      "geometryCrop0" : 0.0,
                                      "geometryCrop1" : 0.0,
                                      "geometryCrop2" : 0.0,
                                      "geometryCrop3" : 0.0
                                    },
                                    "effects" : [

                                    ],
                                    "start" : 0,
                                    "duration" : 3528000000,
                                    "mediaStart" : 0,
                                    "mediaDuration" : 3528000000,
                                    "scalar" : 1,
                                    "metadata" : {
                                      "AppliedThemeId" : "",
                                      "clipSpeedAttribute" : false,
                                      "effectApplied" : "none"
                                    },
                                    "animationTracks" : {

                                    }
                                  }
                                ],
                                  "ident" : "",
                                  "audioMuted" : false,
                                  "videoHidden" : false,
                                  "magnetic" : false,
                                  "matte" : 1,
                                  "solo" : false,
                                  "metadata" : {
                                    "IsLocked" : "False",
                                    "WinTrackHeight" : "56",
                                    "trackHeight" : "54"
                                  }
                              }
                            ],
                            "attributes" : {
                              "ident" : "Rect-1400x1600-Mask",
                              "widthAttr" : 1405.0,
                              "heightAttr" : 167.002,
                              "gain" : 1.0,
                              "mixToMono" : false
                            },
                            "effects" : [

                            ],
                            "start" : 0,
                            "duration" : 3528000000,
                            "mediaStart" : 0.0,
                            "mediaDuration" : 3528000000.0,
                            "scalar" : 1,
                            "metadata" : {
                              "clipSpeedAttribute" : false,
                              "effectApplied" : "none",
                              "isOpen" : false,
                              "lockAspectRatio" : true
                            },
                            "animationTracks" : {
                              "visual" : [
                                {
                                  "endTime" : 552720000,
                                  "duration" : 552720000,
                                  "range" : [ 0, 552720000],
                                  "interp" : "eioe"
                                },
                                {
                                  "endTime" : 1775760000,
                                  "duration" : 399840000,
                                  "range" : [ 1375920000, 399840000],
                                  "interp" : "eioe"
                                }
                              ]
                            }
                          }
                        ],
                          "ident" : "",
                          "audioMuted" : false,
                          "videoHidden" : false,
                          "magnetic" : false,
                          "matte" : 1,
                          "solo" : false,
                          "metadata" : {
                            "IsLocked" : "False",
                            "WinTrackHeight" : "56",
                            "trackHeight" : "54"
                          }
                      }
                    ],
                    "attributes" : {
                      "ident" : "Broadcast-Title-012",
                      "widthAttr" : 1405.0,
                      "heightAttr" : 160.0,
                      "gain" : 1.0,
                      "mixToMono" : false,
                      "assetProperties" : [
                        {
                          "type" : 0,
                          "name" : "Title",
                          "objects" : [ 559 ],
                          "themeMappings" :  {
                            "font-color" : "foreground-1"
                          }
                        },
                        {
                          "type" : 1,
                          "name" : "Fill",
                          "objects" : [ 557 ],
                          "themeMappings" :  {
                            "fill" : "background-1"
                          }
                        },
                        {
                          "type" : 1,
                          "name" : "Wiper",
                          "objects" : [ 564 ],
                          "themeMappings" :  {
                            "fill" : "foreground-1"
                          }
                        }
                      ]
                    },
                    "effects" : [

                    ],
                    "start" : 1928640000,
                    "duration" : 1764000000,
                    "mediaStart" : 0.0,
                    "mediaDuration" : 1764000000.0,
                    "scalar" : 1,
                    "metadata" : {
                      "AppliedThemeId" : "170ba59c-db5d-4b9a-a310-e7e99853a4b7",
                      "clipSpeedAttribute" : false,
                      "default-anchor0" : 0.0,
                      "default-anchor1" : 0.0,
                      "default-anchor2" : 0.0,
                      "default-geometryCrop0" : 0.0,
                      "default-height" : 160.0,
                      "default-rotation0" : 0.0,
                      "default-rotation1" : 0.0,
                      "default-rotation2" : 0.0,
                      "default-scale0" : 1.0,
                      "default-scale1" : 1.0,
                      "default-scale2" : 1.0,
                      "default-shear0" : 0.0,
                      "default-shear1" : 0.0,
                      "default-shear2" : 0.0,
                      "default-translation0" : 0.0,
                      "default-translation1" : 0.0,
                      "default-translation2" : 0.0,
                      "default-width" : 1405.0,
                      "effectApplied" : "none",
                      "isOpen" : false,
                      "lockAspectRatio" : true
                    },
                    "animationTracks" : {

                    }
                  }
                ]
              },
              {
                "trackIndex" : 124,
                "medias" : [
                  {
                    "id" : 569,
                    "_type" : "Group",
                    "parameters" : {
                      "translation0" : 348.924731182796,
                      "translation1" : -350.0,
                      "scale0" : 0.213523131672598,
                      "scale1" : 0.21875,
                      "sourceCrop0" : 0.0,
                      "sourceCrop1" : 0.0,
                      "sourceCrop2" : 0.0,
                      "sourceCrop3" : 0.0,
                      "geometryCrop0" : 0.0,
                      "geometryCrop1" : 0.0,
                      "geometryCrop2" : 0.0,
                      "geometryCrop3" : 0.0,
                      "volume" : 1.0
                    },
                    "tracks" : [
                      {
                        "trackIndex" : 0,
                        "medias" : [
                          {
                            "id" : 570,
                            "_type" : "Group",
                            "parameters" : {
                              "translation0" : {
                                "type" : "double",
                                "defaultValue" : 0.0,
                                "keyframes" : [
                                  {
                                    "endTime" : 552720000,
                                    "time" : 0,
                                    "value" : 0.0,
                                    "interp" : "eioe",
                                    "duration" : 552720000
                                  },
                                  {
                                    "endTime" : 1775760000,
                                    "time" : 1375920000,
                                    "value" : 0.0,
                                    "interp" : "eioe",
                                    "duration" : 399840000
                                  }
                                ]
                              },
                              "translation1" : {
                                "type" : "double",
                                "defaultValue" : -305.610046386719,
                                "keyframes" : [
                                  {
                                    "endTime" : 552720000,
                                    "time" : 0,
                                    "value" : 0.0,
                                    "interp" : "eioe",
                                    "duration" : 552720000
                                  },
                                  {
                                    "endTime" : 1775760000,
                                    "time" : 1375920000,
                                    "value" : -304.610046386719,
                                    "interp" : "eioe",
                                    "duration" : 399840000
                                  }
                                ]
                              },
                              "sourceCrop0" : 0.0,
                              "sourceCrop1" : 0.0,
                              "sourceCrop2" : 0.0,
                              "sourceCrop3" : 0.0,
                              "geometryCrop0" : 0.0,
                              "geometryCrop1" : 0.0,
                              "geometryCrop2" : 0.0,
                              "geometryCrop3" : 0.0,
                              "volume" : 1.0
                            },
                            "tracks" : [
                              {
                                "trackIndex" : 0,
                                "medias" : [
                                  {
                                    "id" : 571,
                                    "_type" : "Group",
                                    "parameters" : {
                                      "sourceCrop0" : 0.0,
                                      "sourceCrop1" : 0.0,
                                      "sourceCrop2" : 0.0,
                                      "sourceCrop3" : 0.0,
                                      "geometryCrop0" : 0.0,
                                      "geometryCrop1" : 0.0,
                                      "geometryCrop2" : 0.0,
                                      "geometryCrop3" : 0.0,
                                      "volume" : 1.0
                                    },
                                    "tracks" : [
                                      {
                                        "trackIndex" : 0,
                                        "medias" : [
                                          {
                                            "id" : 572,
                                            "_type" : "Callout",
                                            "def" : {
                                              "kind" : "remix",
                                              "shape" : "shape-rectangle",
                                              "style" : "bold",
                                              "fill-color-blue" : 1.0,
                                              "fill-color-green" : 1.0,
                                              "fill-color-opacity" : 1.0,
                                              "fill-color-red" : 1.0,
                                              "hasDropShadow" : 0.0,
                                              "height" : 163.002035140991,
                                              "savedXScale" : 1.0,
                                              "savedYScale" : 1.0,
                                              "stroke-color-blue" : 1.0,
                                              "stroke-color-green" : 1.0,
                                              "stroke-color-opacity" : 1.0,
                                              "stroke-color-red" : 1.0,
                                              "stroke-width" : 0.0,
                                              "width" : 1403.00212860107,
                                              "custom" : "Y",
                                              "fill-style" : "solid",
                                              "stroke-style" : "solid"
                                            },
                                            "attributes" : {
                                              "ident" : "",
                                              "autoRotateText" : true
                                            },
                                            "parameters" : {
                                              "anchor0" : -1.0,
                                              "anchor1" : 2.0,
                                              "sourceCrop0" : 0.0,
                                              "sourceCrop1" : 0.0,
                                              "sourceCrop2" : 0.0,
                                              "sourceCrop3" : 0.0,
                                              "geometryCrop0" : 0.0,
                                              "geometryCrop1" : 0.0,
                                              "geometryCrop2" : 0.0,
                                              "geometryCrop3" : 0.0
                                            },
                                            "effects" : [

                                            ],
                                            "start" : 0,
                                            "duration" : 3528000000,
                                            "mediaStart" : 0,
                                            "mediaDuration" : 3528000000,
                                            "scalar" : 1,
                                            "metadata" : {
                                              "AppliedThemeId" : "",
                                              "clipSpeedAttribute" : false,
                                              "effectApplied" : "none",
                                              "lockAspectRatio" : false
                                            },
                                            "animationTracks" : {

                                            }
                                          }
                                        ],
                                          "ident" : "",
                                          "audioMuted" : false,
                                          "videoHidden" : false,
                                          "magnetic" : false,
                                          "matte" : 0,
                                          "solo" : false,
                                          "metadata" : {
                                            "IsLocked" : "False",
                                            "WinTrackHeight" : "56",
                                            "trackHeight" : "54"
                                          }
                                      },
                                      {
                                        "trackIndex" : 1,
                                        "medias" : [
                                          {
                                            "id" : 573,
                                            "_type" : "Callout",
                                            "def" : {
                                              "kind" : "remix",
                                              "shape" : "shape-rectangle",
                                              "style" : "bold",
                                              "fill-color-blue" : 0.756862759590149,
                                              "fill-color-green" : 0.18823529779911,
                                              "fill-color-opacity" : 1.0,
                                              "fill-color-red" : 0.960784316062927,
                                              "hasDropShadow" : 0.0,
                                              "height" : 160.0,
                                              "savedXScale" : 1.0,
                                              "savedYScale" : 1.0,
                                              "stroke-color-blue" : 0.886274516582489,
                                              "stroke-color-green" : 0.200000002980232,
                                              "stroke-color-opacity" : 0.0,
                                              "stroke-color-red" : 0.376470595598221,
                                              "stroke-width" : 0.0,
                                              "width" : 1400.0,
                                              "custom" : "Y",
                                              "fill-style" : "solid",
                                              "stroke-style" : "solid"
                                            },
                                            "attributes" : {
                                              "ident" : "",
                                              "autoRotateText" : true
                                            },
                                            "parameters" : {
                                              "sourceCrop0" : 0.0,
                                              "sourceCrop1" : 0.0,
                                              "sourceCrop2" : 0.0,
                                              "sourceCrop3" : 0.0,
                                              "geometryCrop0" : 0.0,
                                              "geometryCrop1" : 0.0,
                                              "geometryCrop2" : 0.0,
                                              "geometryCrop3" : 0.0
                                            },
                                            "effects" : [

                                            ],
                                            "start" : 0,
                                            "duration" : 3528000000,
                                            "mediaStart" : 0,
                                            "mediaDuration" : 3528000000,
                                            "scalar" : 1,
                                            "metadata" : {
                                              "AppliedThemeId" : "",
                                              "clipSpeedAttribute" : false,
                                              "effectApplied" : "none"
                                            },
                                            "animationTracks" : {

                                            }
                                          }
                                        ],
                                          "ident" : "",
                                          "audioMuted" : false,
                                          "videoHidden" : false,
                                          "magnetic" : false,
                                          "matte" : 1,
                                          "solo" : false,
                                          "metadata" : {
                                            "IsLocked" : "False",
                                            "WinTrackHeight" : "56",
                                            "trackHeight" : "54"
                                          }
                                      }
                                    ],
                                    "attributes" : {
                                      "ident" : "Fill-1400x160",
                                      "widthAttr" : 1405.0,
                                      "heightAttr" : 167.002,
                                      "gain" : 1.0,
                                      "mixToMono" : false
                                    },
                                    "effects" : [

                                    ],
                                    "start" : 0,
                                    "duration" : 3528000000,
                                    "mediaStart" : 0.0,
                                    "mediaDuration" : 3528000000.0,
                                    "scalar" : 1,
                                    "metadata" : {
                                      "clipSpeedAttribute" : false,
                                      "effectApplied" : "none",
                                      "isOpen" : false,
                                      "lockAspectRatio" : true
                                    },
                                    "animationTracks" : {

                                    }
                                  }
                                ],
                                  "ident" : "",
                                  "audioMuted" : false,
                                  "videoHidden" : false,
                                  "magnetic" : false,
                                  "matte" : 0,
                                  "solo" : false,
                                  "metadata" : {
                                    "IsLocked" : "False",
                                    "WinTrackHeight" : "56",
                                    "trackHeight" : "54"
                                  }
                              },
                              {
                                "trackIndex" : 1,
                                "medias" : [
                                  {
                                    "id" : 574,
                                    "_type" : "Callout",
                                    "def" : {
                                      "kind" : "remix",
                                      "shape" : "text",
                                      "style" : "urban",
                                      "enable-ligatures" : 1.0,
                                      "hasDropShadow" : 0.0,
                                      "height" : 170.0,
                                      "line-spacing" : 0.0,
                                      "savedXScale" : 1.0,
                                      "savedYScale" : 1.0,
                                      "width" : 1400.0,
                                      "word-wrap" : 1.0,
                                      "custom" : "Y",
                                      "horizontal-alignment" : "left",
                                      "resize-behavior" : "resizeText",
                                      "text" : "paste formats only",
                                      "vertical-alignment" : "center",
                                      "font" : {
                                        "color-blue" : 1.0,
                                        "color-green" : 1.0,
                                        "color-red" : 1.0,
                                        "size" : 96.0,
                                        "tracking" : 0.0,
                                        "name" : "Dosis",
                                        "weight" : "Semi Bold"
                                      },
                                      "textAttributes" : {
                                        "type" : "textAttributeList",
                                        "keyframes" : [
                                          {
                                            "endTime" : 0,
                                            "time" : 0,
                                            "value" : [{"name":"underline","rangeEnd":18,"rangeStart":0,"value":0,"valueType":"int"},{"name":"strikethrough","rangeEnd":18,"rangeStart":0,"value":0,"valueType":"int"},{"name":"fontName","rangeEnd":18,"rangeStart":0,"value":"Roboto","valueType":"string"},{"name":"kerning","rangeEnd":18,"rangeStart":0,"value":0.049883078231292483,"valueType":"double"},{"name":"fontItalic","rangeEnd":18,"rangeStart":0,"value":0,"valueType":"int"},{"name":"fontWeight","rangeEnd":18,"rangeStart":0,"value":700,"valueType":"int"},{"name":"fontSize","rangeEnd":18,"rangeStart":0,"value":86,"valueType":"double"},{"name":"fgColor","rangeEnd":18,"rangeStart":0,"value":"(110,110,110,255)","valueType":"color"}],
                                            "duration" : 0
                                          }
                                        ]
                                      }
                                    },
                                    "attributes" : {
                                      "ident" : "",
                                      "autoRotateText" : true
                                    },
                                    "parameters" : {
                                      "translation1" : -2.0,
                                      "sourceCrop0" : 0.0,
                                      "sourceCrop1" : 0.0,
                                      "sourceCrop2" : 0.0,
                                      "sourceCrop3" : 0.0,
                                      "geometryCrop0" : 0.0,
                                      "geometryCrop1" : 0.0,
                                      "geometryCrop2" : 0.0,
                                      "geometryCrop3" : 0.0
                                    },
                                    "effects" : [

                                    ],
                                    "start" : 0,
                                    "duration" : 3528000000,
                                    "mediaStart" : 0,
                                    "mediaDuration" : 3528000000,
                                    "scalar" : 1,
                                    "metadata" : {
                                      "AppliedThemeId" : "",
                                      "clipSpeedAttribute" : false,
                                      "effectApplied" : "none",
                                      "lockAspectRatio" : false
                                    },
                                    "animationTracks" : {

                                    }
                                  }
                                ],
                                  "ident" : "",
                                  "audioMuted" : false,
                                  "videoHidden" : false,
                                  "magnetic" : false,
                                  "matte" : 0,
                                  "solo" : false,
                                  "metadata" : {
                                    "IsLocked" : "False",
                                    "WinTrackHeight" : "56",
                                    "trackHeight" : "54"
                                  }
                              }
                            ],
                            "attributes" : {
                              "ident" : "BP-Title-11",
                              "widthAttr" : 1405.0,
                              "heightAttr" : 167.002,
                              "gain" : 1.0,
                              "mixToMono" : false,
                              "assetProperties" : [
                                {
                                  "type" : 0,
                                  "name" : "Title",
                                  "objects" : [ 574 ],
                                  "themeMappings" :  {
                                    "font-color" : "foreground-1"
                                  }
                                },
                                {
                                  "type" : 1,
                                  "name" : "Fill",
                                  "objects" : [ 572 ],
                                  "themeMappings" :  {
                                    "fill" : "background-1"
                                  }
                                }
                              ]
                            },
                            "effects" : [

                            ],
                            "start" : 0,
                            "duration" : 3528000000,
                            "mediaStart" : 0.0,
                            "mediaDuration" : 3528000000.0,
                            "scalar" : 1,
                            "metadata" : {
                              "clipSpeedAttribute" : false,
                              "effectApplied" : "none",
                              "isOpen" : false,
                              "lockAspectRatio" : true
                            },
                            "animationTracks" : {
                              "visual" : [
                                {
                                  "endTime" : 552720000,
                                  "duration" : 552720000,
                                  "range" : [ 0, 552720000],
                                  "interp" : "eioe"
                                },
                                {
                                  "endTime" : 1775760000,
                                  "duration" : 399840000,
                                  "range" : [ 1375920000, 399840000],
                                  "interp" : "eioe"
                                }
                              ]
                            }
                          }
                        ],
                          "ident" : "",
                          "audioMuted" : false,
                          "videoHidden" : false,
                          "magnetic" : false,
                          "matte" : 0,
                          "solo" : false,
                          "metadata" : {
                            "IsLocked" : "False",
                            "WinTrackHeight" : "56",
                            "trackHeight" : "54"
                          }
                      },
                      {
                        "trackIndex" : 1,
                        "medias" : [
                          {
                            "id" : 575,
                            "_type" : "Group",
                            "parameters" : {
                              "translation0" : {
                                "type" : "double",
                                "defaultValue" : 0.0,
                                "keyframes" : [
                                  {
                                    "endTime" : 552720000,
                                    "time" : 0,
                                    "value" : 0.0,
                                    "interp" : "eioe",
                                    "duration" : 552720000
                                  },
                                  {
                                    "endTime" : 1775760000,
                                    "time" : 1375920000,
                                    "value" : 0.0,
                                    "interp" : "eioe",
                                    "duration" : 399840000
                                  }
                                ]
                              },
                              "translation1" : {
                                "type" : "double",
                                "defaultValue" : -144.610046386719,
                                "keyframes" : [
                                  {
                                    "endTime" : 552720000,
                                    "time" : 0,
                                    "value" : 0.0,
                                    "interp" : "eioe",
                                    "duration" : 552720000
                                  },
                                  {
                                    "endTime" : 1775760000,
                                    "time" : 1375920000,
                                    "value" : -144.610046386719,
                                    "interp" : "eioe",
                                    "duration" : 399840000
                                  }
                                ]
                              },
                              "sourceCrop0" : 0.0,
                              "sourceCrop1" : 0.0,
                              "sourceCrop2" : 0.0,
                              "sourceCrop3" : 0.0,
                              "geometryCrop0" : 0.0,
                              "geometryCrop1" : 0.0,
                              "geometryCrop2" : 0.0,
                              "geometryCrop3" : 0.0,
                              "opacity" : {
                                "type" : "double",
                                "defaultValue" : 1.0,
                                "keyframes" : [
                                  {
                                    "endTime" : 552720000,
                                    "time" : 0,
                                    "value" : 1.0,
                                    "interp" : "eioe",
                                    "duration" : 552720000
                                  }
                                ]
                              },
                              "volume" : 1.0
                            },
                            "tracks" : [
                              {
                                "trackIndex" : 0,
                                "medias" : [
                                  {
                                    "id" : 576,
                                    "_type" : "Callout",
                                    "def" : {
                                      "kind" : "remix",
                                      "shape" : "shape-rectangle",
                                      "style" : "bold",
                                      "fill-color-blue" : 0.913725490196078,
                                      "fill-color-green" : 0.949019607843137,
                                      "fill-color-opacity" : 1.0,
                                      "fill-color-red" : 0.933333333333333,
                                      "hasDropShadow" : 0.0,
                                      "height" : 163.002035140991,
                                      "savedXScale" : 1.0,
                                      "savedYScale" : 1.0,
                                      "stroke-color-blue" : 1.0,
                                      "stroke-color-green" : 1.0,
                                      "stroke-color-opacity" : 1.0,
                                      "stroke-color-red" : 1.0,
                                      "stroke-width" : 0.0,
                                      "width" : 1403.00212860107,
                                      "custom" : "Y",
                                      "fill-style" : "solid",
                                      "stroke-style" : "solid"
                                    },
                                    "attributes" : {
                                      "ident" : "",
                                      "autoRotateText" : true
                                    },
                                    "parameters" : {
                                      "anchor0" : -1.0,
                                      "anchor1" : 2.0,
                                      "sourceCrop0" : 0.0,
                                      "sourceCrop1" : 0.0,
                                      "sourceCrop2" : 0.0,
                                      "sourceCrop3" : 0.0,
                                      "geometryCrop0" : 0.0,
                                      "geometryCrop1" : 0.0,
                                      "geometryCrop2" : 0.0,
                                      "geometryCrop3" : 0.0
                                    },
                                    "effects" : [

                                    ],
                                    "start" : 0,
                                    "duration" : 3528000000,
                                    "mediaStart" : 0,
                                    "mediaDuration" : 3528000000,
                                    "scalar" : 1,
                                    "metadata" : {
                                      "AppliedThemeId" : "",
                                      "clipSpeedAttribute" : false,
                                      "effectApplied" : "none",
                                      "lockAspectRatio" : false
                                    },
                                    "animationTracks" : {

                                    }
                                  }
                                ],
                                  "ident" : "",
                                  "audioMuted" : false,
                                  "videoHidden" : false,
                                  "magnetic" : false,
                                  "matte" : 0,
                                  "solo" : false,
                                  "metadata" : {
                                    "IsLocked" : "False",
                                    "WinTrackHeight" : "56",
                                    "trackHeight" : "54"
                                  }
                              },
                              {
                                "trackIndex" : 1,
                                "medias" : [
                                  {
                                    "id" : 577,
                                    "_type" : "Callout",
                                    "def" : {
                                      "kind" : "remix",
                                      "shape" : "shape-rectangle",
                                      "style" : "bold",
                                      "fill-color-blue" : 0.756862759590149,
                                      "fill-color-green" : 0.18823529779911,
                                      "fill-color-opacity" : 1.0,
                                      "fill-color-red" : 0.960784316062927,
                                      "hasDropShadow" : 0.0,
                                      "height" : 160.0,
                                      "savedXScale" : 1.0,
                                      "savedYScale" : 1.0,
                                      "stroke-color-blue" : 0.886274516582489,
                                      "stroke-color-green" : 0.200000002980232,
                                      "stroke-color-opacity" : 0.0,
                                      "stroke-color-red" : 0.376470595598221,
                                      "stroke-width" : 0.0,
                                      "width" : 1400.0,
                                      "custom" : "Y",
                                      "fill-style" : "solid",
                                      "stroke-style" : "solid"
                                    },
                                    "attributes" : {
                                      "ident" : "",
                                      "autoRotateText" : true
                                    },
                                    "parameters" : {
                                      "sourceCrop0" : 0.0,
                                      "sourceCrop1" : 0.0,
                                      "sourceCrop2" : 0.0,
                                      "sourceCrop3" : 0.0,
                                      "geometryCrop0" : 0.0,
                                      "geometryCrop1" : 0.0,
                                      "geometryCrop2" : 0.0,
                                      "geometryCrop3" : 0.0
                                    },
                                    "effects" : [

                                    ],
                                    "start" : 0,
                                    "duration" : 3528000000,
                                    "mediaStart" : 0,
                                    "mediaDuration" : 3528000000,
                                    "scalar" : 1,
                                    "metadata" : {
                                      "AppliedThemeId" : "",
                                      "clipSpeedAttribute" : false,
                                      "effectApplied" : "none"
                                    },
                                    "animationTracks" : {

                                    }
                                  }
                                ],
                                  "ident" : "",
                                  "audioMuted" : false,
                                  "videoHidden" : false,
                                  "magnetic" : false,
                                  "matte" : 1,
                                  "solo" : false,
                                  "metadata" : {
                                    "IsLocked" : "False",
                                    "WinTrackHeight" : "56",
                                    "trackHeight" : "54"
                                  }
                              }
                            ],
                            "attributes" : {
                              "ident" : "Rect-1400x1600-Mask",
                              "widthAttr" : 1405.0,
                              "heightAttr" : 167.002,
                              "gain" : 1.0,
                              "mixToMono" : false
                            },
                            "effects" : [

                            ],
                            "start" : 0,
                            "duration" : 3528000000,
                            "mediaStart" : 0.0,
                            "mediaDuration" : 3528000000.0,
                            "scalar" : 1,
                            "metadata" : {
                              "clipSpeedAttribute" : false,
                              "effectApplied" : "none",
                              "isOpen" : false,
                              "lockAspectRatio" : true
                            },
                            "animationTracks" : {
                              "visual" : [
                                {
                                  "endTime" : 552720000,
                                  "duration" : 552720000,
                                  "range" : [ 0, 552720000],
                                  "interp" : "eioe"
                                },
                                {
                                  "endTime" : 1775760000,
                                  "duration" : 399840000,
                                  "range" : [ 1375920000, 399840000],
                                  "interp" : "eioe"
                                }
                              ]
                            }
                          }
                        ],
                          "ident" : "",
                          "audioMuted" : false,
                          "videoHidden" : false,
                          "magnetic" : false,
                          "matte" : 1,
                          "solo" : false,
                          "metadata" : {
                            "IsLocked" : "False",
                            "WinTrackHeight" : "56",
                            "trackHeight" : "54"
                          }
                      },
                      {
                        "trackIndex" : 2,
                        "medias" : [
                          {
                            "id" : 578,
                            "_type" : "Group",
                            "parameters" : {
                              "translation0" : {
                                "type" : "double",
                                "defaultValue" : 0.0,
                                "keyframes" : [
                                  {
                                    "endTime" : 552720000,
                                    "time" : 0,
                                    "value" : 0.0,
                                    "interp" : "eioe",
                                    "duration" : 552720000
                                  },
                                  {
                                    "endTime" : 1775760000,
                                    "time" : 1375920000,
                                    "value" : 0.0,
                                    "interp" : "eioe",
                                    "duration" : 399840000
                                  }
                                ]
                              },
                              "translation1" : {
                                "type" : "double",
                                "defaultValue" : -233.610046386719,
                                "keyframes" : [
                                  {
                                    "endTime" : 552720000,
                                    "time" : 0,
                                    "value" : 90.0,
                                    "interp" : "eioe",
                                    "duration" : 552720000
                                  },
                                  {
                                    "endTime" : 1775760000,
                                    "time" : 1375920000,
                                    "value" : -233.610046386719,
                                    "interp" : "eioe",
                                    "duration" : 399840000
                                  }
                                ]
                              },
                              "sourceCrop0" : 0.0,
                              "sourceCrop1" : 0.0,
                              "sourceCrop2" : 0.0,
                              "sourceCrop3" : 0.0,
                              "geometryCrop0" : 0.0,
                              "geometryCrop1" : 0.0,
                              "geometryCrop2" : 0.0,
                              "geometryCrop3" : 0.0,
                              "opacity" : {
                                "type" : "double",
                                "defaultValue" : 1.0,
                                "keyframes" : [
                                  {
                                    "endTime" : 552720000,
                                    "time" : 0,
                                    "value" : 1.0,
                                    "interp" : "eioe",
                                    "duration" : 552720000
                                  }
                                ]
                              },
                              "volume" : 1.0
                            },
                            "tracks" : [
                              {
                                "trackIndex" : 0,
                                "medias" : [
                                  {
                                    "id" : 579,
                                    "_type" : "Callout",
                                    "def" : {
                                      "kind" : "remix",
                                      "shape" : "shape-rectangle",
                                      "style" : "bold",
                                      "fill-color-blue" : 0.2196078431,
                                      "fill-color-green" : 0.8745098039,
                                      "fill-color-opacity" : 1.0,
                                      "fill-color-red" : 1.0,
                                      "hasDropShadow" : 0.0,
                                      "height" : 163.002035140991,
                                      "savedXScale" : 1.0,
                                      "savedYScale" : 1.0,
                                      "stroke-color-blue" : 1.0,
                                      "stroke-color-green" : 1.0,
                                      "stroke-color-opacity" : 1.0,
                                      "stroke-color-red" : 1.0,
                                      "stroke-width" : 0.0,
                                      "width" : 1403.00212860107,
                                      "custom" : "Y",
                                      "fill-style" : "solid",
                                      "stroke-style" : "solid"
                                    },
                                    "attributes" : {
                                      "ident" : "",
                                      "autoRotateText" : true
                                    },
                                    "parameters" : {
                                      "anchor0" : -1.0,
                                      "anchor1" : 2.0,
                                      "sourceCrop0" : 0.0,
                                      "sourceCrop1" : 0.0,
                                      "sourceCrop2" : 0.0,
                                      "sourceCrop3" : 0.0,
                                      "geometryCrop0" : 0.0,
                                      "geometryCrop1" : 0.0,
                                      "geometryCrop2" : 0.0,
                                      "geometryCrop3" : 0.0
                                    },
                                    "effects" : [

                                    ],
                                    "start" : 0,
                                    "duration" : 3528000000,
                                    "mediaStart" : 0,
                                    "mediaDuration" : 3528000000,
                                    "scalar" : 1,
                                    "metadata" : {
                                      "AppliedThemeId" : "",
                                      "clipSpeedAttribute" : false,
                                      "effectApplied" : "none",
                                      "lockAspectRatio" : false
                                    },
                                    "animationTracks" : {

                                    }
                                  }
                                ],
                                  "ident" : "",
                                  "audioMuted" : false,
                                  "videoHidden" : false,
                                  "magnetic" : false,
                                  "matte" : 0,
                                  "solo" : false,
                                  "metadata" : {
                                    "IsLocked" : "False",
                                    "WinTrackHeight" : "56",
                                    "trackHeight" : "54"
                                  }
                              },
                              {
                                "trackIndex" : 1,
                                "medias" : [
                                  {
                                    "id" : 580,
                                    "_type" : "Callout",
                                    "def" : {
                                      "kind" : "remix",
                                      "shape" : "shape-rectangle",
                                      "style" : "bold",
                                      "fill-color-blue" : 0.756862759590149,
                                      "fill-color-green" : 0.18823529779911,
                                      "fill-color-opacity" : 1.0,
                                      "fill-color-red" : 0.960784316062927,
                                      "hasDropShadow" : 0.0,
                                      "height" : 160.0,
                                      "savedXScale" : 1.0,
                                      "savedYScale" : 1.0,
                                      "stroke-color-blue" : 0.886274516582489,
                                      "stroke-color-green" : 0.200000002980232,
                                      "stroke-color-opacity" : 0.0,
                                      "stroke-color-red" : 0.376470595598221,
                                      "stroke-width" : 0.0,
                                      "width" : 1400.0,
                                      "custom" : "Y",
                                      "fill-style" : "solid",
                                      "stroke-style" : "solid"
                                    },
                                    "attributes" : {
                                      "ident" : "",
                                      "autoRotateText" : true
                                    },
                                    "parameters" : {
                                      "translation1" : {
                                        "type" : "double",
                                        "defaultValue" : -1.0,
                                        "keyframes" : [
                                          {
                                            "endTime" : 270480000,
                                            "time" : 0,
                                            "value" : 0.0,
                                            "duration" : 270480000
                                          }
                                        ]
                                      },
                                      "scale0" : {
                                        "type" : "double",
                                        "defaultValue" : 1.0,
                                        "keyframes" : [
                                          {
                                            "endTime" : 270480000,
                                            "time" : 0,
                                            "value" : 1.0,
                                            "duration" : 270480000
                                          }
                                        ]
                                      },
                                      "scale1" : {
                                        "type" : "double",
                                        "defaultValue" : 0.125,
                                        "keyframes" : [
                                          {
                                            "endTime" : 270480000,
                                            "time" : 0,
                                            "value" : 0.5,
                                            "duration" : 270480000
                                          },
                                          {
                                            "endTime" : 552720000,
                                            "time" : 282240000,
                                            "value" : 0.125,
                                            "duration" : 270480000
                                          }
                                        ]
                                      },
                                      "sourceCrop0" : 0.0,
                                      "sourceCrop1" : 0.0,
                                      "sourceCrop2" : 0.0,
                                      "sourceCrop3" : 0.0,
                                      "geometryCrop0" : 0.0,
                                      "geometryCrop1" : 0.0,
                                      "geometryCrop2" : 0.0,
                                      "geometryCrop3" : 0.0
                                    },
                                    "effects" : [

                                    ],
                                    "start" : 0,
                                    "duration" : 3528000000,
                                    "mediaStart" : 0,
                                    "mediaDuration" : 3528000000,
                                    "scalar" : 1,
                                    "metadata" : {
                                      "AppliedThemeId" : "",
                                      "clipSpeedAttribute" : false,
                                      "effectApplied" : "none"
                                    },
                                    "animationTracks" : {
                                      "visual" : [
                                        {
                                          "endTime" : 270480000,
                                          "duration" : 270480000,
                                          "range" : [ 0, 270480000]
                                        },
                                        {
                                          "endTime" : 552720000,
                                          "duration" : 270480000,
                                          "range" : [ 282240000, 270480000]
                                        }
                                      ]
                                    }
                                  }
                                ],
                                  "ident" : "",
                                  "audioMuted" : false,
                                  "videoHidden" : false,
                                  "magnetic" : false,
                                  "matte" : 1,
                                  "solo" : false,
                                  "metadata" : {
                                    "IsLocked" : "False",
                                    "WinTrackHeight" : "56",
                                    "trackHeight" : "54"
                                  }
                              }
                            ],
                            "attributes" : {
                              "ident" : "Animated-Pulse-1400x20-To-1400x80",
                              "widthAttr" : 1405.0,
                              "heightAttr" : 167.002,
                              "gain" : 1.0,
                              "mixToMono" : false,
                              "assetProperties" : [
                                {
                                  "type" : 1,
                                  "name" : "Color",
                                  "objects" : [ 579 ],
                                  "themeMappings" :  {
                                    "fill" : "accent-1"
                                  }
                                }
                              ]
                            },
                            "effects" : [

                            ],
                            "start" : 0,
                            "duration" : 3528000000,
                            "mediaStart" : 0.0,
                            "mediaDuration" : 3528000000.0,
                            "scalar" : 1,
                            "metadata" : {
                              "AppliedThemeId" : "8e797988-b823-4beb-b251-1d31b461ba07",
                              "clipSpeedAttribute" : false,
                              "effectApplied" : "none",
                              "isOpen" : false,
                              "lockAspectRatio" : true
                            },
                            "animationTracks" : {
                              "visual" : [
                                {
                                  "endTime" : 552720000,
                                  "duration" : 552720000,
                                  "range" : [ 0, 552720000],
                                  "interp" : "eioe"
                                },
                                {
                                  "endTime" : 1775760000,
                                  "duration" : 399840000,
                                  "range" : [ 1375920000, 399840000],
                                  "interp" : "eioe"
                                }
                              ]
                            }
                          }
                        ],
                          "ident" : "",
                          "audioMuted" : false,
                          "videoHidden" : false,
                          "magnetic" : false,
                          "matte" : 0,
                          "solo" : false,
                          "metadata" : {
                            "IsLocked" : "False",
                            "WinTrackHeight" : "56",
                            "trackHeight" : "54"
                          }
                      },
                      {
                        "trackIndex" : 3,
                        "medias" : [
                          {
                            "id" : 581,
                            "_type" : "Group",
                            "parameters" : {
                              "translation0" : {
                                "type" : "double",
                                "defaultValue" : 0.0,
                                "keyframes" : [
                                  {
                                    "endTime" : 552720000,
                                    "time" : 0,
                                    "value" : 0.0,
                                    "interp" : "eioe",
                                    "duration" : 552720000
                                  },
                                  {
                                    "endTime" : 1775760000,
                                    "time" : 1375920000,
                                    "value" : 0.0,
                                    "interp" : "eioe",
                                    "duration" : 399840000
                                  }
                                ]
                              },
                              "translation1" : {
                                "type" : "double",
                                "defaultValue" : -143.610046386719,
                                "keyframes" : [
                                  {
                                    "endTime" : 552720000,
                                    "time" : 0,
                                    "value" : 0.0,
                                    "interp" : "eioe",
                                    "duration" : 552720000
                                  },
                                  {
                                    "endTime" : 1775760000,
                                    "time" : 1375920000,
                                    "value" : -143.610046386719,
                                    "interp" : "eioe",
                                    "duration" : 399840000
                                  }
                                ]
                              },
                              "sourceCrop0" : 0.0,
                              "sourceCrop1" : 0.0,
                              "sourceCrop2" : 0.0,
                              "sourceCrop3" : 0.0,
                              "geometryCrop0" : 0.0,
                              "geometryCrop1" : 0.0,
                              "geometryCrop2" : 0.0,
                              "geometryCrop3" : 0.0,
                              "opacity" : {
                                "type" : "double",
                                "defaultValue" : 1.0,
                                "keyframes" : [
                                  {
                                    "endTime" : 552720000,
                                    "time" : 0,
                                    "value" : 1.0,
                                    "interp" : "eioe",
                                    "duration" : 552720000
                                  }
                                ]
                              },
                              "volume" : 1.0
                            },
                            "tracks" : [
                              {
                                "trackIndex" : 0,
                                "medias" : [
                                  {
                                    "id" : 582,
                                    "_type" : "Callout",
                                    "def" : {
                                      "kind" : "remix",
                                      "shape" : "shape-rectangle",
                                      "style" : "bold",
                                      "fill-color-blue" : 0.913725490196078,
                                      "fill-color-green" : 0.949019607843137,
                                      "fill-color-opacity" : 1.0,
                                      "fill-color-red" : 0.933333333333333,
                                      "hasDropShadow" : 0.0,
                                      "height" : 163.002035140991,
                                      "savedXScale" : 1.0,
                                      "savedYScale" : 1.0,
                                      "stroke-color-blue" : 1.0,
                                      "stroke-color-green" : 1.0,
                                      "stroke-color-opacity" : 1.0,
                                      "stroke-color-red" : 1.0,
                                      "stroke-width" : 0.0,
                                      "width" : 1403.00212860107,
                                      "custom" : "Y",
                                      "fill-style" : "solid",
                                      "stroke-style" : "solid"
                                    },
                                    "attributes" : {
                                      "ident" : "",
                                      "autoRotateText" : true
                                    },
                                    "parameters" : {
                                      "anchor0" : -1.0,
                                      "anchor1" : 2.0,
                                      "sourceCrop0" : 0.0,
                                      "sourceCrop1" : 0.0,
                                      "sourceCrop2" : 0.0,
                                      "sourceCrop3" : 0.0,
                                      "geometryCrop0" : 0.0,
                                      "geometryCrop1" : 0.0,
                                      "geometryCrop2" : 0.0,
                                      "geometryCrop3" : 0.0
                                    },
                                    "effects" : [

                                    ],
                                    "start" : 0,
                                    "duration" : 3528000000,
                                    "mediaStart" : 0,
                                    "mediaDuration" : 3528000000,
                                    "scalar" : 1,
                                    "metadata" : {
                                      "AppliedThemeId" : "",
                                      "clipSpeedAttribute" : false,
                                      "effectApplied" : "none",
                                      "lockAspectRatio" : false
                                    },
                                    "animationTracks" : {

                                    }
                                  }
                                ],
                                  "ident" : "",
                                  "audioMuted" : false,
                                  "videoHidden" : false,
                                  "magnetic" : false,
                                  "matte" : 0,
                                  "solo" : false,
                                  "metadata" : {
                                    "IsLocked" : "False",
                                    "WinTrackHeight" : "56",
                                    "trackHeight" : "54"
                                  }
                              },
                              {
                                "trackIndex" : 1,
                                "medias" : [
                                  {
                                    "id" : 583,
                                    "_type" : "Callout",
                                    "def" : {
                                      "kind" : "remix",
                                      "shape" : "shape-rectangle",
                                      "style" : "bold",
                                      "fill-color-blue" : 0.756862759590149,
                                      "fill-color-green" : 0.18823529779911,
                                      "fill-color-opacity" : 1.0,
                                      "fill-color-red" : 0.960784316062927,
                                      "hasDropShadow" : 0.0,
                                      "height" : 160.0,
                                      "savedXScale" : 1.0,
                                      "savedYScale" : 1.0,
                                      "stroke-color-blue" : 0.886274516582489,
                                      "stroke-color-green" : 0.200000002980232,
                                      "stroke-color-opacity" : 0.0,
                                      "stroke-color-red" : 0.376470595598221,
                                      "stroke-width" : 0.0,
                                      "width" : 1400.0,
                                      "custom" : "Y",
                                      "fill-style" : "solid",
                                      "stroke-style" : "solid"
                                    },
                                    "attributes" : {
                                      "ident" : "",
                                      "autoRotateText" : true
                                    },
                                    "parameters" : {
                                      "sourceCrop0" : 0.0,
                                      "sourceCrop1" : 0.0,
                                      "sourceCrop2" : 0.0,
                                      "sourceCrop3" : 0.0,
                                      "geometryCrop0" : 0.0,
                                      "geometryCrop1" : 0.0,
                                      "geometryCrop2" : 0.0,
                                      "geometryCrop3" : 0.0
                                    },
                                    "effects" : [

                                    ],
                                    "start" : 0,
                                    "duration" : 3528000000,
                                    "mediaStart" : 0,
                                    "mediaDuration" : 3528000000,
                                    "scalar" : 1,
                                    "metadata" : {
                                      "AppliedThemeId" : "",
                                      "clipSpeedAttribute" : false,
                                      "effectApplied" : "none"
                                    },
                                    "animationTracks" : {

                                    }
                                  }
                                ],
                                  "ident" : "",
                                  "audioMuted" : false,
                                  "videoHidden" : false,
                                  "magnetic" : false,
                                  "matte" : 1,
                                  "solo" : false,
                                  "metadata" : {
                                    "IsLocked" : "False",
                                    "WinTrackHeight" : "56",
                                    "trackHeight" : "54"
                                  }
                              }
                            ],
                            "attributes" : {
                              "ident" : "Rect-1400x1600-Mask",
                              "widthAttr" : 1405.0,
                              "heightAttr" : 167.002,
                              "gain" : 1.0,
                              "mixToMono" : false
                            },
                            "effects" : [

                            ],
                            "start" : 0,
                            "duration" : 3528000000,
                            "mediaStart" : 0.0,
                            "mediaDuration" : 3528000000.0,
                            "scalar" : 1,
                            "metadata" : {
                              "clipSpeedAttribute" : false,
                              "effectApplied" : "none",
                              "isOpen" : false,
                              "lockAspectRatio" : true
                            },
                            "animationTracks" : {
                              "visual" : [
                                {
                                  "endTime" : 552720000,
                                  "duration" : 552720000,
                                  "range" : [ 0, 552720000],
                                  "interp" : "eioe"
                                },
                                {
                                  "endTime" : 1775760000,
                                  "duration" : 399840000,
                                  "range" : [ 1375920000, 399840000],
                                  "interp" : "eioe"
                                }
                              ]
                            }
                          }
                        ],
                          "ident" : "",
                          "audioMuted" : false,
                          "videoHidden" : false,
                          "magnetic" : false,
                          "matte" : 1,
                          "solo" : false,
                          "metadata" : {
                            "IsLocked" : "False",
                            "WinTrackHeight" : "56",
                            "trackHeight" : "54"
                          }
                      }
                    ],
                    "attributes" : {
                      "ident" : "Broadcast-Title-012",
                      "widthAttr" : 1405.0,
                      "heightAttr" : 160.0,
                      "gain" : 1.0,
                      "mixToMono" : false,
                      "assetProperties" : [
                        {
                          "type" : 0,
                          "name" : "Title",
                          "objects" : [ 574 ],
                          "themeMappings" :  {
                            "font-color" : "foreground-1"
                          }
                        },
                        {
                          "type" : 1,
                          "name" : "Fill",
                          "objects" : [ 572 ],
                          "themeMappings" :  {
                            "fill" : "background-1"
                          }
                        },
                        {
                          "type" : 1,
                          "name" : "Wiper",
                          "objects" : [ 579 ],
                          "themeMappings" :  {
                            "fill" : "foreground-1"
                          }
                        }
                      ]
                    },
                    "effects" : [

                    ],
                    "start" : 1928640000,
                    "duration" : 1764000000,
                    "mediaStart" : 0.0,
                    "mediaDuration" : 1764000000.0,
                    "scalar" : 1,
                    "metadata" : {
                      "AppliedThemeId" : "170ba59c-db5d-4b9a-a310-e7e99853a4b7",
                      "clipSpeedAttribute" : false,
                      "default-anchor0" : 0.0,
                      "default-anchor1" : 0.0,
                      "default-anchor2" : 0.0,
                      "default-geometryCrop0" : 0.0,
                      "default-height" : 160.0,
                      "default-rotation0" : 0.0,
                      "default-rotation1" : 0.0,
                      "default-rotation2" : 0.0,
                      "default-scale0" : 1.0,
                      "default-scale1" : 1.0,
                      "default-scale2" : 1.0,
                      "default-shear0" : 0.0,
                      "default-shear1" : 0.0,
                      "default-shear2" : 0.0,
                      "default-translation0" : 0.0,
                      "default-translation1" : 0.0,
                      "default-translation2" : 0.0,
                      "default-width" : 1405.0,
                      "effectApplied" : "none",
                      "isOpen" : false,
                      "lockAspectRatio" : true
                    },
                    "animationTracks" : {

                    }
                  }
                ]
              },
              {
                "trackIndex" : 125,
                "medias" : [
                  {
                    "id" : 584,
                    "_type" : "Group",
                    "parameters" : {
                      "translation0" : 350.0,
                      "translation1" : -200.0,
                      "scale0" : 0.213523131672598,
                      "scale1" : 0.21875,
                      "sourceCrop0" : 0.0,
                      "sourceCrop1" : 0.0,
                      "sourceCrop2" : 0.0,
                      "sourceCrop3" : 0.0,
                      "geometryCrop0" : 0.0,
                      "geometryCrop1" : 0.0,
                      "geometryCrop2" : 0.0,
                      "geometryCrop3" : 0.0,
                      "volume" : 1.0
                    },
                    "tracks" : [
                      {
                        "trackIndex" : 0,
                        "medias" : [
                          {
                            "id" : 585,
                            "_type" : "Group",
                            "parameters" : {
                              "translation0" : {
                                "type" : "double",
                                "defaultValue" : 0.0,
                                "keyframes" : [
                                  {
                                    "endTime" : 552720000,
                                    "time" : 0,
                                    "value" : 0.0,
                                    "interp" : "eioe",
                                    "duration" : 552720000
                                  },
                                  {
                                    "endTime" : 1775760000,
                                    "time" : 1375920000,
                                    "value" : 0.0,
                                    "interp" : "eioe",
                                    "duration" : 399840000
                                  }
                                ]
                              },
                              "translation1" : {
                                "type" : "double",
                                "defaultValue" : -305.610046386719,
                                "keyframes" : [
                                  {
                                    "endTime" : 552720000,
                                    "time" : 0,
                                    "value" : 0.0,
                                    "interp" : "eioe",
                                    "duration" : 552720000
                                  },
                                  {
                                    "endTime" : 1775760000,
                                    "time" : 1375920000,
                                    "value" : -304.610046386719,
                                    "interp" : "eioe",
                                    "duration" : 399840000
                                  }
                                ]
                              },
                              "sourceCrop0" : 0.0,
                              "sourceCrop1" : 0.0,
                              "sourceCrop2" : 0.0,
                              "sourceCrop3" : 0.0,
                              "geometryCrop0" : 0.0,
                              "geometryCrop1" : 0.0,
                              "geometryCrop2" : 0.0,
                              "geometryCrop3" : 0.0,
                              "volume" : 1.0
                            },
                            "tracks" : [
                              {
                                "trackIndex" : 0,
                                "medias" : [
                                  {
                                    "id" : 586,
                                    "_type" : "Group",
                                    "parameters" : {
                                      "sourceCrop0" : 0.0,
                                      "sourceCrop1" : 0.0,
                                      "sourceCrop2" : 0.0,
                                      "sourceCrop3" : 0.0,
                                      "geometryCrop0" : 0.0,
                                      "geometryCrop1" : 0.0,
                                      "geometryCrop2" : 0.0,
                                      "geometryCrop3" : 0.0,
                                      "volume" : 1.0
                                    },
                                    "tracks" : [
                                      {
                                        "trackIndex" : 0,
                                        "medias" : [
                                          {
                                            "id" : 587,
                                            "_type" : "Callout",
                                            "def" : {
                                              "kind" : "remix",
                                              "shape" : "shape-rectangle",
                                              "style" : "bold",
                                              "fill-color-blue" : 1.0,
                                              "fill-color-green" : 1.0,
                                              "fill-color-opacity" : 1.0,
                                              "fill-color-red" : 1.0,
                                              "hasDropShadow" : 0.0,
                                              "height" : 163.002035140991,
                                              "savedXScale" : 1.0,
                                              "savedYScale" : 1.0,
                                              "stroke-color-blue" : 1.0,
                                              "stroke-color-green" : 1.0,
                                              "stroke-color-opacity" : 1.0,
                                              "stroke-color-red" : 1.0,
                                              "stroke-width" : 0.0,
                                              "width" : 1403.00212860107,
                                              "custom" : "Y",
                                              "fill-style" : "solid",
                                              "stroke-style" : "solid"
                                            },
                                            "attributes" : {
                                              "ident" : "",
                                              "autoRotateText" : true
                                            },
                                            "parameters" : {
                                              "anchor0" : -1.0,
                                              "anchor1" : 2.0,
                                              "sourceCrop0" : 0.0,
                                              "sourceCrop1" : 0.0,
                                              "sourceCrop2" : 0.0,
                                              "sourceCrop3" : 0.0,
                                              "geometryCrop0" : 0.0,
                                              "geometryCrop1" : 0.0,
                                              "geometryCrop2" : 0.0,
                                              "geometryCrop3" : 0.0
                                            },
                                            "effects" : [

                                            ],
                                            "start" : 0,
                                            "duration" : 3528000000,
                                            "mediaStart" : 0,
                                            "mediaDuration" : 3528000000,
                                            "scalar" : 1,
                                            "metadata" : {
                                              "AppliedThemeId" : "",
                                              "clipSpeedAttribute" : false,
                                              "effectApplied" : "none",
                                              "lockAspectRatio" : false
                                            },
                                            "animationTracks" : {

                                            }
                                          }
                                        ],
                                          "ident" : "",
                                          "audioMuted" : false,
                                          "videoHidden" : false,
                                          "magnetic" : false,
                                          "matte" : 0,
                                          "solo" : false,
                                          "metadata" : {
                                            "IsLocked" : "False",
                                            "WinTrackHeight" : "56",
                                            "trackHeight" : "54"
                                          }
                                      },
                                      {
                                        "trackIndex" : 1,
                                        "medias" : [
                                          {
                                            "id" : 588,
                                            "_type" : "Callout",
                                            "def" : {
                                              "kind" : "remix",
                                              "shape" : "shape-rectangle",
                                              "style" : "bold",
                                              "fill-color-blue" : 0.756862759590149,
                                              "fill-color-green" : 0.18823529779911,
                                              "fill-color-opacity" : 1.0,
                                              "fill-color-red" : 0.960784316062927,
                                              "hasDropShadow" : 0.0,
                                              "height" : 160.0,
                                              "savedXScale" : 1.0,
                                              "savedYScale" : 1.0,
                                              "stroke-color-blue" : 0.886274516582489,
                                              "stroke-color-green" : 0.200000002980232,
                                              "stroke-color-opacity" : 0.0,
                                              "stroke-color-red" : 0.376470595598221,
                                              "stroke-width" : 0.0,
                                              "width" : 1400.0,
                                              "custom" : "Y",
                                              "fill-style" : "solid",
                                              "stroke-style" : "solid"
                                            },
                                            "attributes" : {
                                              "ident" : "",
                                              "autoRotateText" : true
                                            },
                                            "parameters" : {
                                              "sourceCrop0" : 0.0,
                                              "sourceCrop1" : 0.0,
                                              "sourceCrop2" : 0.0,
                                              "sourceCrop3" : 0.0,
                                              "geometryCrop0" : 0.0,
                                              "geometryCrop1" : 0.0,
                                              "geometryCrop2" : 0.0,
                                              "geometryCrop3" : 0.0
                                            },
                                            "effects" : [

                                            ],
                                            "start" : 0,
                                            "duration" : 3528000000,
                                            "mediaStart" : 0,
                                            "mediaDuration" : 3528000000,
                                            "scalar" : 1,
                                            "metadata" : {
                                              "AppliedThemeId" : "",
                                              "clipSpeedAttribute" : false,
                                              "effectApplied" : "none"
                                            },
                                            "animationTracks" : {

                                            }
                                          }
                                        ],
                                          "ident" : "",
                                          "audioMuted" : false,
                                          "videoHidden" : false,
                                          "magnetic" : false,
                                          "matte" : 1,
                                          "solo" : false,
                                          "metadata" : {
                                            "IsLocked" : "False",
                                            "WinTrackHeight" : "56",
                                            "trackHeight" : "54"
                                          }
                                      }
                                    ],
                                    "attributes" : {
                                      "ident" : "Fill-1400x160",
                                      "widthAttr" : 1405.0,
                                      "heightAttr" : 167.002,
                                      "gain" : 1.0,
                                      "mixToMono" : false
                                    },
                                    "effects" : [

                                    ],
                                    "start" : 0,
                                    "duration" : 3528000000,
                                    "mediaStart" : 0.0,
                                    "mediaDuration" : 3528000000.0,
                                    "scalar" : 1,
                                    "metadata" : {
                                      "clipSpeedAttribute" : false,
                                      "effectApplied" : "none",
                                      "isOpen" : false,
                                      "lockAspectRatio" : true
                                    },
                                    "animationTracks" : {

                                    }
                                  }
                                ],
                                  "ident" : "",
                                  "audioMuted" : false,
                                  "videoHidden" : false,
                                  "magnetic" : false,
                                  "matte" : 0,
                                  "solo" : false,
                                  "metadata" : {
                                    "IsLocked" : "False",
                                    "WinTrackHeight" : "56",
                                    "trackHeight" : "54"
                                  }
                              },
                              {
                                "trackIndex" : 1,
                                "medias" : [
                                  {
                                    "id" : 589,
                                    "_type" : "Callout",
                                    "def" : {
                                      "kind" : "remix",
                                      "shape" : "text",
                                      "style" : "urban",
                                      "enable-ligatures" : 1.0,
                                      "hasDropShadow" : 0.0,
                                      "height" : 170.0,
                                      "line-spacing" : 0.0,
                                      "savedXScale" : 1.0,
                                      "savedYScale" : 1.0,
                                      "width" : 1400.0,
                                      "word-wrap" : 1.0,
                                      "custom" : "Y",
                                      "horizontal-alignment" : "left",
                                      "resize-behavior" : "resizeText",
                                      "text" : "clear notes from cells",
                                      "vertical-alignment" : "center",
                                      "font" : {
                                        "color-blue" : 1.0,
                                        "color-green" : 1.0,
                                        "color-red" : 1.0,
                                        "size" : 96.0,
                                        "tracking" : 0.0,
                                        "name" : "Dosis",
                                        "weight" : "Semi Bold"
                                      },
                                      "textAttributes" : {
                                        "type" : "textAttributeList",
                                        "keyframes" : [
                                          {
                                            "endTime" : 0,
                                            "time" : 0,
                                            "value" : [{"name":"underline","rangeEnd":22,"rangeStart":0,"value":0,"valueType":"int"},{"name":"strikethrough","rangeEnd":22,"rangeStart":0,"value":0,"valueType":"int"},{"name":"fontName","rangeEnd":22,"rangeStart":0,"value":"Roboto","valueType":"string"},{"name":"kerning","rangeEnd":22,"rangeStart":0,"value":0.049883078231292483,"valueType":"double"},{"name":"fontItalic","rangeEnd":22,"rangeStart":0,"value":0,"valueType":"int"},{"name":"fontWeight","rangeEnd":22,"rangeStart":0,"value":700,"valueType":"int"},{"name":"fontSize","rangeEnd":22,"rangeStart":0,"value":86,"valueType":"double"},{"name":"fgColor","rangeEnd":22,"rangeStart":0,"value":"(110,110,110,255)","valueType":"color"}],
                                            "duration" : 0
                                          }
                                        ]
                                      }
                                    },
                                    "attributes" : {
                                      "ident" : "",
                                      "autoRotateText" : true
                                    },
                                    "parameters" : {
                                      "translation1" : -2.0,
                                      "sourceCrop0" : 0.0,
                                      "sourceCrop1" : 0.0,
                                      "sourceCrop2" : 0.0,
                                      "sourceCrop3" : 0.0,
                                      "geometryCrop0" : 0.0,
                                      "geometryCrop1" : 0.0,
                                      "geometryCrop2" : 0.0,
                                      "geometryCrop3" : 0.0
                                    },
                                    "effects" : [

                                    ],
                                    "start" : 0,
                                    "duration" : 3528000000,
                                    "mediaStart" : 0,
                                    "mediaDuration" : 3528000000,
                                    "scalar" : 1,
                                    "metadata" : {
                                      "AppliedThemeId" : "",
                                      "clipSpeedAttribute" : false,
                                      "effectApplied" : "none",
                                      "lockAspectRatio" : false
                                    },
                                    "animationTracks" : {

                                    }
                                  }
                                ],
                                  "ident" : "",
                                  "audioMuted" : false,
                                  "videoHidden" : false,
                                  "magnetic" : false,
                                  "matte" : 0,
                                  "solo" : false,
                                  "metadata" : {
                                    "IsLocked" : "False",
                                    "WinTrackHeight" : "56",
                                    "trackHeight" : "54"
                                  }
                              }
                            ],
                            "attributes" : {
                              "ident" : "BP-Title-11",
                              "widthAttr" : 1405.0,
                              "heightAttr" : 167.002,
                              "gain" : 1.0,
                              "mixToMono" : false,
                              "assetProperties" : [
                                {
                                  "type" : 0,
                                  "name" : "Title",
                                  "objects" : [ 589 ],
                                  "themeMappings" :  {
                                    "font-color" : "foreground-1"
                                  }
                                },
                                {
                                  "type" : 1,
                                  "name" : "Fill",
                                  "objects" : [ 587 ],
                                  "themeMappings" :  {
                                    "fill" : "background-1"
                                  }
                                }
                              ]
                            },
                            "effects" : [

                            ],
                            "start" : 0,
                            "duration" : 3528000000,
                            "mediaStart" : 0.0,
                            "mediaDuration" : 3528000000.0,
                            "scalar" : 1,
                            "metadata" : {
                              "clipSpeedAttribute" : false,
                              "effectApplied" : "none",
                              "isOpen" : false,
                              "lockAspectRatio" : true
                            },
                            "animationTracks" : {
                              "visual" : [
                                {
                                  "endTime" : 552720000,
                                  "duration" : 552720000,
                                  "range" : [ 0, 552720000],
                                  "interp" : "eioe"
                                },
                                {
                                  "endTime" : 1775760000,
                                  "duration" : 399840000,
                                  "range" : [ 1375920000, 399840000],
                                  "interp" : "eioe"
                                }
                              ]
                            }
                          }
                        ],
                          "ident" : "",
                          "audioMuted" : false,
                          "videoHidden" : false,
                          "magnetic" : false,
                          "matte" : 0,
                          "solo" : false,
                          "metadata" : {
                            "IsLocked" : "False",
                            "WinTrackHeight" : "56",
                            "trackHeight" : "54"
                          }
                      },
                      {
                        "trackIndex" : 1,
                        "medias" : [
                          {
                            "id" : 590,
                            "_type" : "Group",
                            "parameters" : {
                              "translation0" : {
                                "type" : "double",
                                "defaultValue" : 0.0,
                                "keyframes" : [
                                  {
                                    "endTime" : 552720000,
                                    "time" : 0,
                                    "value" : 0.0,
                                    "interp" : "eioe",
                                    "duration" : 552720000
                                  },
                                  {
                                    "endTime" : 1775760000,
                                    "time" : 1375920000,
                                    "value" : 0.0,
                                    "interp" : "eioe",
                                    "duration" : 399840000
                                  }
                                ]
                              },
                              "translation1" : {
                                "type" : "double",
                                "defaultValue" : -144.610046386719,
                                "keyframes" : [
                                  {
                                    "endTime" : 552720000,
                                    "time" : 0,
                                    "value" : 0.0,
                                    "interp" : "eioe",
                                    "duration" : 552720000
                                  },
                                  {
                                    "endTime" : 1775760000,
                                    "time" : 1375920000,
                                    "value" : -144.610046386719,
                                    "interp" : "eioe",
                                    "duration" : 399840000
                                  }
                                ]
                              },
                              "sourceCrop0" : 0.0,
                              "sourceCrop1" : 0.0,
                              "sourceCrop2" : 0.0,
                              "sourceCrop3" : 0.0,
                              "geometryCrop0" : 0.0,
                              "geometryCrop1" : 0.0,
                              "geometryCrop2" : 0.0,
                              "geometryCrop3" : 0.0,
                              "opacity" : {
                                "type" : "double",
                                "defaultValue" : 1.0,
                                "keyframes" : [
                                  {
                                    "endTime" : 552720000,
                                    "time" : 0,
                                    "value" : 1.0,
                                    "interp" : "eioe",
                                    "duration" : 552720000
                                  }
                                ]
                              },
                              "volume" : 1.0
                            },
                            "tracks" : [
                              {
                                "trackIndex" : 0,
                                "medias" : [
                                  {
                                    "id" : 591,
                                    "_type" : "Callout",
                                    "def" : {
                                      "kind" : "remix",
                                      "shape" : "shape-rectangle",
                                      "style" : "bold",
                                      "fill-color-blue" : 0.913725490196078,
                                      "fill-color-green" : 0.949019607843137,
                                      "fill-color-opacity" : 1.0,
                                      "fill-color-red" : 0.933333333333333,
                                      "hasDropShadow" : 0.0,
                                      "height" : 163.002035140991,
                                      "savedXScale" : 1.0,
                                      "savedYScale" : 1.0,
                                      "stroke-color-blue" : 1.0,
                                      "stroke-color-green" : 1.0,
                                      "stroke-color-opacity" : 1.0,
                                      "stroke-color-red" : 1.0,
                                      "stroke-width" : 0.0,
                                      "width" : 1403.00212860107,
                                      "custom" : "Y",
                                      "fill-style" : "solid",
                                      "stroke-style" : "solid"
                                    },
                                    "attributes" : {
                                      "ident" : "",
                                      "autoRotateText" : true
                                    },
                                    "parameters" : {
                                      "anchor0" : -1.0,
                                      "anchor1" : 2.0,
                                      "sourceCrop0" : 0.0,
                                      "sourceCrop1" : 0.0,
                                      "sourceCrop2" : 0.0,
                                      "sourceCrop3" : 0.0,
                                      "geometryCrop0" : 0.0,
                                      "geometryCrop1" : 0.0,
                                      "geometryCrop2" : 0.0,
                                      "geometryCrop3" : 0.0
                                    },
                                    "effects" : [

                                    ],
                                    "start" : 0,
                                    "duration" : 3528000000,
                                    "mediaStart" : 0,
                                    "mediaDuration" : 3528000000,
                                    "scalar" : 1,
                                    "metadata" : {
                                      "AppliedThemeId" : "",
                                      "clipSpeedAttribute" : false,
                                      "effectApplied" : "none",
                                      "lockAspectRatio" : false
                                    },
                                    "animationTracks" : {

                                    }
                                  }
                                ],
                                  "ident" : "",
                                  "audioMuted" : false,
                                  "videoHidden" : false,
                                  "magnetic" : false,
                                  "matte" : 0,
                                  "solo" : false,
                                  "metadata" : {
                                    "IsLocked" : "False",
                                    "WinTrackHeight" : "56",
                                    "trackHeight" : "54"
                                  }
                              },
                              {
                                "trackIndex" : 1,
                                "medias" : [
                                  {
                                    "id" : 592,
                                    "_type" : "Callout",
                                    "def" : {
                                      "kind" : "remix",
                                      "shape" : "shape-rectangle",
                                      "style" : "bold",
                                      "fill-color-blue" : 0.756862759590149,
                                      "fill-color-green" : 0.18823529779911,
                                      "fill-color-opacity" : 1.0,
                                      "fill-color-red" : 0.960784316062927,
                                      "hasDropShadow" : 0.0,
                                      "height" : 160.0,
                                      "savedXScale" : 1.0,
                                      "savedYScale" : 1.0,
                                      "stroke-color-blue" : 0.886274516582489,
                                      "stroke-color-green" : 0.200000002980232,
                                      "stroke-color-opacity" : 0.0,
                                      "stroke-color-red" : 0.376470595598221,
                                      "stroke-width" : 0.0,
                                      "width" : 1400.0,
                                      "custom" : "Y",
                                      "fill-style" : "solid",
                                      "stroke-style" : "solid"
                                    },
                                    "attributes" : {
                                      "ident" : "",
                                      "autoRotateText" : true
                                    },
                                    "parameters" : {
                                      "sourceCrop0" : 0.0,
                                      "sourceCrop1" : 0.0,
                                      "sourceCrop2" : 0.0,
                                      "sourceCrop3" : 0.0,
                                      "geometryCrop0" : 0.0,
                                      "geometryCrop1" : 0.0,
                                      "geometryCrop2" : 0.0,
                                      "geometryCrop3" : 0.0
                                    },
                                    "effects" : [

                                    ],
                                    "start" : 0,
                                    "duration" : 3528000000,
                                    "mediaStart" : 0,
                                    "mediaDuration" : 3528000000,
                                    "scalar" : 1,
                                    "metadata" : {
                                      "AppliedThemeId" : "",
                                      "clipSpeedAttribute" : false,
                                      "effectApplied" : "none"
                                    },
                                    "animationTracks" : {

                                    }
                                  }
                                ],
                                  "ident" : "",
                                  "audioMuted" : false,
                                  "videoHidden" : false,
                                  "magnetic" : false,
                                  "matte" : 1,
                                  "solo" : false,
                                  "metadata" : {
                                    "IsLocked" : "False",
                                    "WinTrackHeight" : "56",
                                    "trackHeight" : "54"
                                  }
                              }
                            ],
                            "attributes" : {
                              "ident" : "Rect-1400x1600-Mask",
                              "widthAttr" : 1405.0,
                              "heightAttr" : 167.002,
                              "gain" : 1.0,
                              "mixToMono" : false
                            },
                            "effects" : [

                            ],
                            "start" : 0,
                            "duration" : 3528000000,
                            "mediaStart" : 0.0,
                            "mediaDuration" : 3528000000.0,
                            "scalar" : 1,
                            "metadata" : {
                              "clipSpeedAttribute" : false,
                              "effectApplied" : "none",
                              "isOpen" : false,
                              "lockAspectRatio" : true
                            },
                            "animationTracks" : {
                              "visual" : [
                                {
                                  "endTime" : 552720000,
                                  "duration" : 552720000,
                                  "range" : [ 0, 552720000],
                                  "interp" : "eioe"
                                },
                                {
                                  "endTime" : 1775760000,
                                  "duration" : 399840000,
                                  "range" : [ 1375920000, 399840000],
                                  "interp" : "eioe"
                                }
                              ]
                            }
                          }
                        ],
                          "ident" : "",
                          "audioMuted" : false,
                          "videoHidden" : false,
                          "magnetic" : false,
                          "matte" : 1,
                          "solo" : false,
                          "metadata" : {
                            "IsLocked" : "False",
                            "WinTrackHeight" : "56",
                            "trackHeight" : "54"
                          }
                      },
                      {
                        "trackIndex" : 2,
                        "medias" : [
                          {
                            "id" : 593,
                            "_type" : "Group",
                            "parameters" : {
                              "translation0" : {
                                "type" : "double",
                                "defaultValue" : 0.0,
                                "keyframes" : [
                                  {
                                    "endTime" : 552720000,
                                    "time" : 0,
                                    "value" : 0.0,
                                    "interp" : "eioe",
                                    "duration" : 552720000
                                  },
                                  {
                                    "endTime" : 1775760000,
                                    "time" : 1375920000,
                                    "value" : 0.0,
                                    "interp" : "eioe",
                                    "duration" : 399840000
                                  }
                                ]
                              },
                              "translation1" : {
                                "type" : "double",
                                "defaultValue" : -233.610046386719,
                                "keyframes" : [
                                  {
                                    "endTime" : 552720000,
                                    "time" : 0,
                                    "value" : 90.0,
                                    "interp" : "eioe",
                                    "duration" : 552720000
                                  },
                                  {
                                    "endTime" : 1775760000,
                                    "time" : 1375920000,
                                    "value" : -233.610046386719,
                                    "interp" : "eioe",
                                    "duration" : 399840000
                                  }
                                ]
                              },
                              "sourceCrop0" : 0.0,
                              "sourceCrop1" : 0.0,
                              "sourceCrop2" : 0.0,
                              "sourceCrop3" : 0.0,
                              "geometryCrop0" : 0.0,
                              "geometryCrop1" : 0.0,
                              "geometryCrop2" : 0.0,
                              "geometryCrop3" : 0.0,
                              "opacity" : {
                                "type" : "double",
                                "defaultValue" : 1.0,
                                "keyframes" : [
                                  {
                                    "endTime" : 552720000,
                                    "time" : 0,
                                    "value" : 1.0,
                                    "interp" : "eioe",
                                    "duration" : 552720000
                                  }
                                ]
                              },
                              "volume" : 1.0
                            },
                            "tracks" : [
                              {
                                "trackIndex" : 0,
                                "medias" : [
                                  {
                                    "id" : 594,
                                    "_type" : "Callout",
                                    "def" : {
                                      "kind" : "remix",
                                      "shape" : "shape-rectangle",
                                      "style" : "bold",
                                      "fill-color-blue" : 0.2196078431,
                                      "fill-color-green" : 0.8745098039,
                                      "fill-color-opacity" : 1.0,
                                      "fill-color-red" : 1.0,
                                      "hasDropShadow" : 0.0,
                                      "height" : 163.002035140991,
                                      "savedXScale" : 1.0,
                                      "savedYScale" : 1.0,
                                      "stroke-color-blue" : 1.0,
                                      "stroke-color-green" : 1.0,
                                      "stroke-color-opacity" : 1.0,
                                      "stroke-color-red" : 1.0,
                                      "stroke-width" : 0.0,
                                      "width" : 1403.00212860107,
                                      "custom" : "Y",
                                      "fill-style" : "solid",
                                      "stroke-style" : "solid"
                                    },
                                    "attributes" : {
                                      "ident" : "",
                                      "autoRotateText" : true
                                    },
                                    "parameters" : {
                                      "anchor0" : -1.0,
                                      "anchor1" : 2.0,
                                      "sourceCrop0" : 0.0,
                                      "sourceCrop1" : 0.0,
                                      "sourceCrop2" : 0.0,
                                      "sourceCrop3" : 0.0,
                                      "geometryCrop0" : 0.0,
                                      "geometryCrop1" : 0.0,
                                      "geometryCrop2" : 0.0,
                                      "geometryCrop3" : 0.0
                                    },
                                    "effects" : [

                                    ],
                                    "start" : 0,
                                    "duration" : 3528000000,
                                    "mediaStart" : 0,
                                    "mediaDuration" : 3528000000,
                                    "scalar" : 1,
                                    "metadata" : {
                                      "AppliedThemeId" : "",
                                      "clipSpeedAttribute" : false,
                                      "effectApplied" : "none",
                                      "lockAspectRatio" : false
                                    },
                                    "animationTracks" : {

                                    }
                                  }
                                ],
                                  "ident" : "",
                                  "audioMuted" : false,
                                  "videoHidden" : false,
                                  "magnetic" : false,
                                  "matte" : 0,
                                  "solo" : false,
                                  "metadata" : {
                                    "IsLocked" : "False",
                                    "WinTrackHeight" : "56",
                                    "trackHeight" : "54"
                                  }
                              },
                              {
                                "trackIndex" : 1,
                                "medias" : [
                                  {
                                    "id" : 595,
                                    "_type" : "Callout",
                                    "def" : {
                                      "kind" : "remix",
                                      "shape" : "shape-rectangle",
                                      "style" : "bold",
                                      "fill-color-blue" : 0.756862759590149,
                                      "fill-color-green" : 0.18823529779911,
                                      "fill-color-opacity" : 1.0,
                                      "fill-color-red" : 0.960784316062927,
                                      "hasDropShadow" : 0.0,
                                      "height" : 160.0,
                                      "savedXScale" : 1.0,
                                      "savedYScale" : 1.0,
                                      "stroke-color-blue" : 0.886274516582489,
                                      "stroke-color-green" : 0.200000002980232,
                                      "stroke-color-opacity" : 0.0,
                                      "stroke-color-red" : 0.376470595598221,
                                      "stroke-width" : 0.0,
                                      "width" : 1400.0,
                                      "custom" : "Y",
                                      "fill-style" : "solid",
                                      "stroke-style" : "solid"
                                    },
                                    "attributes" : {
                                      "ident" : "",
                                      "autoRotateText" : true
                                    },
                                    "parameters" : {
                                      "translation1" : {
                                        "type" : "double",
                                        "defaultValue" : -1.0,
                                        "keyframes" : [
                                          {
                                            "endTime" : 270480000,
                                            "time" : 0,
                                            "value" : 0.0,
                                            "duration" : 270480000
                                          }
                                        ]
                                      },
                                      "scale0" : {
                                        "type" : "double",
                                        "defaultValue" : 1.0,
                                        "keyframes" : [
                                          {
                                            "endTime" : 270480000,
                                            "time" : 0,
                                            "value" : 1.0,
                                            "duration" : 270480000
                                          }
                                        ]
                                      },
                                      "scale1" : {
                                        "type" : "double",
                                        "defaultValue" : 0.125,
                                        "keyframes" : [
                                          {
                                            "endTime" : 270480000,
                                            "time" : 0,
                                            "value" : 0.5,
                                            "duration" : 270480000
                                          },
                                          {
                                            "endTime" : 552720000,
                                            "time" : 282240000,
                                            "value" : 0.125,
                                            "duration" : 270480000
                                          }
                                        ]
                                      },
                                      "sourceCrop0" : 0.0,
                                      "sourceCrop1" : 0.0,
                                      "sourceCrop2" : 0.0,
                                      "sourceCrop3" : 0.0,
                                      "geometryCrop0" : 0.0,
                                      "geometryCrop1" : 0.0,
                                      "geometryCrop2" : 0.0,
                                      "geometryCrop3" : 0.0
                                    },
                                    "effects" : [

                                    ],
                                    "start" : 0,
                                    "duration" : 3528000000,
                                    "mediaStart" : 0,
                                    "mediaDuration" : 3528000000,
                                    "scalar" : 1,
                                    "metadata" : {
                                      "AppliedThemeId" : "",
                                      "clipSpeedAttribute" : false,
                                      "effectApplied" : "none"
                                    },
                                    "animationTracks" : {
                                      "visual" : [
                                        {
                                          "endTime" : 270480000,
                                          "duration" : 270480000,
                                          "range" : [ 0, 270480000]
                                        },
                                        {
                                          "endTime" : 552720000,
                                          "duration" : 270480000,
                                          "range" : [ 282240000, 270480000]
                                        }
                                      ]
                                    }
                                  }
                                ],
                                  "ident" : "",
                                  "audioMuted" : false,
                                  "videoHidden" : false,
                                  "magnetic" : false,
                                  "matte" : 1,
                                  "solo" : false,
                                  "metadata" : {
                                    "IsLocked" : "False",
                                    "WinTrackHeight" : "56",
                                    "trackHeight" : "54"
                                  }
                              }
                            ],
                            "attributes" : {
                              "ident" : "Animated-Pulse-1400x20-To-1400x80",
                              "widthAttr" : 1405.0,
                              "heightAttr" : 167.002,
                              "gain" : 1.0,
                              "mixToMono" : false,
                              "assetProperties" : [
                                {
                                  "type" : 1,
                                  "name" : "Color",
                                  "objects" : [ 594 ],
                                  "themeMappings" :  {
                                    "fill" : "accent-1"
                                  }
                                }
                              ]
                            },
                            "effects" : [

                            ],
                            "start" : 0,
                            "duration" : 3528000000,
                            "mediaStart" : 0.0,
                            "mediaDuration" : 3528000000.0,
                            "scalar" : 1,
                            "metadata" : {
                              "AppliedThemeId" : "8e797988-b823-4beb-b251-1d31b461ba07",
                              "clipSpeedAttribute" : false,
                              "effectApplied" : "none",
                              "isOpen" : false,
                              "lockAspectRatio" : true
                            },
                            "animationTracks" : {
                              "visual" : [
                                {
                                  "endTime" : 552720000,
                                  "duration" : 552720000,
                                  "range" : [ 0, 552720000],
                                  "interp" : "eioe"
                                },
                                {
                                  "endTime" : 1775760000,
                                  "duration" : 399840000,
                                  "range" : [ 1375920000, 399840000],
                                  "interp" : "eioe"
                                }
                              ]
                            }
                          }
                        ],
                          "ident" : "",
                          "audioMuted" : false,
                          "videoHidden" : false,
                          "magnetic" : false,
                          "matte" : 0,
                          "solo" : false,
                          "metadata" : {
                            "IsLocked" : "False",
                            "WinTrackHeight" : "56",
                            "trackHeight" : "54"
                          }
                      },
                      {
                        "trackIndex" : 3,
                        "medias" : [
                          {
                            "id" : 596,
                            "_type" : "Group",
                            "parameters" : {
                              "translation0" : {
                                "type" : "double",
                                "defaultValue" : 0.0,
                                "keyframes" : [
                                  {
                                    "endTime" : 552720000,
                                    "time" : 0,
                                    "value" : 0.0,
                                    "interp" : "eioe",
                                    "duration" : 552720000
                                  },
                                  {
                                    "endTime" : 1775760000,
                                    "time" : 1375920000,
                                    "value" : 0.0,
                                    "interp" : "eioe",
                                    "duration" : 399840000
                                  }
                                ]
                              },
                              "translation1" : {
                                "type" : "double",
                                "defaultValue" : -143.610046386719,
                                "keyframes" : [
                                  {
                                    "endTime" : 552720000,
                                    "time" : 0,
                                    "value" : 0.0,
                                    "interp" : "eioe",
                                    "duration" : 552720000
                                  },
                                  {
                                    "endTime" : 1775760000,
                                    "time" : 1375920000,
                                    "value" : -143.610046386719,
                                    "interp" : "eioe",
                                    "duration" : 399840000
                                  }
                                ]
                              },
                              "sourceCrop0" : 0.0,
                              "sourceCrop1" : 0.0,
                              "sourceCrop2" : 0.0,
                              "sourceCrop3" : 0.0,
                              "geometryCrop0" : 0.0,
                              "geometryCrop1" : 0.0,
                              "geometryCrop2" : 0.0,
                              "geometryCrop3" : 0.0,
                              "opacity" : {
                                "type" : "double",
                                "defaultValue" : 1.0,
                                "keyframes" : [
                                  {
                                    "endTime" : 552720000,
                                    "time" : 0,
                                    "value" : 1.0,
                                    "interp" : "eioe",
                                    "duration" : 552720000
                                  }
                                ]
                              },
                              "volume" : 1.0
                            },
                            "tracks" : [
                              {
                                "trackIndex" : 0,
                                "medias" : [
                                  {
                                    "id" : 597,
                                    "_type" : "Callout",
                                    "def" : {
                                      "kind" : "remix",
                                      "shape" : "shape-rectangle",
                                      "style" : "bold",
                                      "fill-color-blue" : 0.913725490196078,
                                      "fill-color-green" : 0.949019607843137,
                                      "fill-color-opacity" : 1.0,
                                      "fill-color-red" : 0.933333333333333,
                                      "hasDropShadow" : 0.0,
                                      "height" : 163.002035140991,
                                      "savedXScale" : 1.0,
                                      "savedYScale" : 1.0,
                                      "stroke-color-blue" : 1.0,
                                      "stroke-color-green" : 1.0,
                                      "stroke-color-opacity" : 1.0,
                                      "stroke-color-red" : 1.0,
                                      "stroke-width" : 0.0,
                                      "width" : 1403.00212860107,
                                      "custom" : "Y",
                                      "fill-style" : "solid",
                                      "stroke-style" : "solid"
                                    },
                                    "attributes" : {
                                      "ident" : "",
                                      "autoRotateText" : true
                                    },
                                    "parameters" : {
                                      "anchor0" : -1.0,
                                      "anchor1" : 2.0,
                                      "sourceCrop0" : 0.0,
                                      "sourceCrop1" : 0.0,
                                      "sourceCrop2" : 0.0,
                                      "sourceCrop3" : 0.0,
                                      "geometryCrop0" : 0.0,
                                      "geometryCrop1" : 0.0,
                                      "geometryCrop2" : 0.0,
                                      "geometryCrop3" : 0.0
                                    },
                                    "effects" : [

                                    ],
                                    "start" : 0,
                                    "duration" : 3528000000,
                                    "mediaStart" : 0,
                                    "mediaDuration" : 3528000000,
                                    "scalar" : 1,
                                    "metadata" : {
                                      "AppliedThemeId" : "",
                                      "clipSpeedAttribute" : false,
                                      "effectApplied" : "none",
                                      "lockAspectRatio" : false
                                    },
                                    "animationTracks" : {

                                    }
                                  }
                                ],
                                  "ident" : "",
                                  "audioMuted" : false,
                                  "videoHidden" : false,
                                  "magnetic" : false,
                                  "matte" : 0,
                                  "solo" : false,
                                  "metadata" : {
                                    "IsLocked" : "False",
                                    "WinTrackHeight" : "56",
                                    "trackHeight" : "54"
                                  }
                              },
                              {
                                "trackIndex" : 1,
                                "medias" : [
                                  {
                                    "id" : 598,
                                    "_type" : "Callout",
                                    "def" : {
                                      "kind" : "remix",
                                      "shape" : "shape-rectangle",
                                      "style" : "bold",
                                      "fill-color-blue" : 0.756862759590149,
                                      "fill-color-green" : 0.18823529779911,
                                      "fill-color-opacity" : 1.0,
                                      "fill-color-red" : 0.960784316062927,
                                      "hasDropShadow" : 0.0,
                                      "height" : 160.0,
                                      "savedXScale" : 1.0,
                                      "savedYScale" : 1.0,
                                      "stroke-color-blue" : 0.886274516582489,
                                      "stroke-color-green" : 0.200000002980232,
                                      "stroke-color-opacity" : 0.0,
                                      "stroke-color-red" : 0.376470595598221,
                                      "stroke-width" : 0.0,
                                      "width" : 1400.0,
                                      "custom" : "Y",
                                      "fill-style" : "solid",
                                      "stroke-style" : "solid"
                                    },
                                    "attributes" : {
                                      "ident" : "",
                                      "autoRotateText" : true
                                    },
                                    "parameters" : {
                                      "sourceCrop0" : 0.0,
                                      "sourceCrop1" : 0.0,
                                      "sourceCrop2" : 0.0,
                                      "sourceCrop3" : 0.0,
                                      "geometryCrop0" : 0.0,
                                      "geometryCrop1" : 0.0,
                                      "geometryCrop2" : 0.0,
                                      "geometryCrop3" : 0.0
                                    },
                                    "effects" : [

                                    ],
                                    "start" : 0,
                                    "duration" : 3528000000,
                                    "mediaStart" : 0,
                                    "mediaDuration" : 3528000000,
                                    "scalar" : 1,
                                    "metadata" : {
                                      "AppliedThemeId" : "",
                                      "clipSpeedAttribute" : false,
                                      "effectApplied" : "none"
                                    },
                                    "animationTracks" : {

                                    }
                                  }
                                ],
                                  "ident" : "",
                                  "audioMuted" : false,
                                  "videoHidden" : false,
                                  "magnetic" : false,
                                  "matte" : 1,
                                  "solo" : false,
                                  "metadata" : {
                                    "IsLocked" : "False",
                                    "WinTrackHeight" : "56",
                                    "trackHeight" : "54"
                                  }
                              }
                            ],
                            "attributes" : {
                              "ident" : "Rect-1400x1600-Mask",
                              "widthAttr" : 1405.0,
                              "heightAttr" : 167.002,
                              "gain" : 1.0,
                              "mixToMono" : false
                            },
                            "effects" : [

                            ],
                            "start" : 0,
                            "duration" : 3528000000,
                            "mediaStart" : 0.0,
                            "mediaDuration" : 3528000000.0,
                            "scalar" : 1,
                            "metadata" : {
                              "clipSpeedAttribute" : false,
                              "effectApplied" : "none",
                              "isOpen" : false,
                              "lockAspectRatio" : true
                            },
                            "animationTracks" : {
                              "visual" : [
                                {
                                  "endTime" : 552720000,
                                  "duration" : 552720000,
                                  "range" : [ 0, 552720000],
                                  "interp" : "eioe"
                                },
                                {
                                  "endTime" : 1775760000,
                                  "duration" : 399840000,
                                  "range" : [ 1375920000, 399840000],
                                  "interp" : "eioe"
                                }
                              ]
                            }
                          }
                        ],
                          "ident" : "",
                          "audioMuted" : false,
                          "videoHidden" : false,
                          "magnetic" : false,
                          "matte" : 1,
                          "solo" : false,
                          "metadata" : {
                            "IsLocked" : "False",
                            "WinTrackHeight" : "56",
                            "trackHeight" : "54"
                          }
                      }
                    ],
                    "attributes" : {
                      "ident" : "Broadcast-Title-012",
                      "widthAttr" : 1405.0,
                      "heightAttr" : 160.0,
                      "gain" : 1.0,
                      "mixToMono" : false,
                      "assetProperties" : [
                        {
                          "type" : 0,
                          "name" : "Title",
                          "objects" : [ 589 ],
                          "themeMappings" :  {
                            "font-color" : "foreground-1"
                          }
                        },
                        {
                          "type" : 1,
                          "name" : "Fill",
                          "objects" : [ 587 ],
                          "themeMappings" :  {
                            "fill" : "background-1"
                          }
                        },
                        {
                          "type" : 1,
                          "name" : "Wiper",
                          "objects" : [ 594 ],
                          "themeMappings" :  {
                            "fill" : "foreground-1"
                          }
                        }
                      ]
                    },
                    "effects" : [

                    ],
                    "start" : 1928640000,
                    "duration" : 1764000000,
                    "mediaStart" : 0.0,
                    "mediaDuration" : 1764000000.0,
                    "scalar" : 1,
                    "metadata" : {
                      "AppliedThemeId" : "170ba59c-db5d-4b9a-a310-e7e99853a4b7",
                      "clipSpeedAttribute" : false,
                      "default-anchor0" : 0.0,
                      "default-anchor1" : 0.0,
                      "default-anchor2" : 0.0,
                      "default-geometryCrop0" : 0.0,
                      "default-height" : 160.0,
                      "default-rotation0" : 0.0,
                      "default-rotation1" : 0.0,
                      "default-rotation2" : 0.0,
                      "default-scale0" : 1.0,
                      "default-scale1" : 1.0,
                      "default-scale2" : 1.0,
                      "default-shear0" : 0.0,
                      "default-shear1" : 0.0,
                      "default-shear2" : 0.0,
                      "default-translation0" : 0.0,
                      "default-translation1" : 0.0,
                      "default-translation2" : 0.0,
                      "default-width" : 1405.0,
                      "effectApplied" : "none",
                      "isOpen" : false,
                      "lockAspectRatio" : true
                    },
                    "animationTracks" : {

                    }
                  }
                ]
              },
              {
                "trackIndex" : 126,
                "medias" : [
                  {
                    "id" : 599,
                    "_type" : "Group",
                    "parameters" : {
                      "translation0" : 350.0,
                      "translation1" : -250.0,
                      "scale0" : 0.213523131672598,
                      "scale1" : 0.21875,
                      "sourceCrop0" : 0.0,
                      "sourceCrop1" : 0.0,
                      "sourceCrop2" : 0.0,
                      "sourceCrop3" : 0.0,
                      "geometryCrop0" : 0.0,
                      "geometryCrop1" : 0.0,
                      "geometryCrop2" : 0.0,
                      "geometryCrop3" : 0.0,
                      "volume" : 1.0
                    },
                    "tracks" : [
                      {
                        "trackIndex" : 0,
                        "medias" : [
                          {
                            "id" : 600,
                            "_type" : "Group",
                            "parameters" : {
                              "translation0" : {
                                "type" : "double",
                                "defaultValue" : 0.0,
                                "keyframes" : [
                                  {
                                    "endTime" : 552720000,
                                    "time" : 0,
                                    "value" : 0.0,
                                    "interp" : "eioe",
                                    "duration" : 552720000
                                  },
                                  {
                                    "endTime" : 1775760000,
                                    "time" : 1375920000,
                                    "value" : 0.0,
                                    "interp" : "eioe",
                                    "duration" : 399840000
                                  }
                                ]
                              },
                              "translation1" : {
                                "type" : "double",
                                "defaultValue" : -305.610046386719,
                                "keyframes" : [
                                  {
                                    "endTime" : 552720000,
                                    "time" : 0,
                                    "value" : 0.0,
                                    "interp" : "eioe",
                                    "duration" : 552720000
                                  },
                                  {
                                    "endTime" : 1775760000,
                                    "time" : 1375920000,
                                    "value" : -304.610046386719,
                                    "interp" : "eioe",
                                    "duration" : 399840000
                                  }
                                ]
                              },
                              "sourceCrop0" : 0.0,
                              "sourceCrop1" : 0.0,
                              "sourceCrop2" : 0.0,
                              "sourceCrop3" : 0.0,
                              "geometryCrop0" : 0.0,
                              "geometryCrop1" : 0.0,
                              "geometryCrop2" : 0.0,
                              "geometryCrop3" : 0.0,
                              "volume" : 1.0
                            },
                            "tracks" : [
                              {
                                "trackIndex" : 0,
                                "medias" : [
                                  {
                                    "id" : 601,
                                    "_type" : "Group",
                                    "parameters" : {
                                      "sourceCrop0" : 0.0,
                                      "sourceCrop1" : 0.0,
                                      "sourceCrop2" : 0.0,
                                      "sourceCrop3" : 0.0,
                                      "geometryCrop0" : 0.0,
                                      "geometryCrop1" : 0.0,
                                      "geometryCrop2" : 0.0,
                                      "geometryCrop3" : 0.0,
                                      "volume" : 1.0
                                    },
                                    "tracks" : [
                                      {
                                        "trackIndex" : 0,
                                        "medias" : [
                                          {
                                            "id" : 602,
                                            "_type" : "Callout",
                                            "def" : {
                                              "kind" : "remix",
                                              "shape" : "shape-rectangle",
                                              "style" : "bold",
                                              "fill-color-blue" : 1.0,
                                              "fill-color-green" : 1.0,
                                              "fill-color-opacity" : 1.0,
                                              "fill-color-red" : 1.0,
                                              "hasDropShadow" : 0.0,
                                              "height" : 163.002035140991,
                                              "savedXScale" : 1.0,
                                              "savedYScale" : 1.0,
                                              "stroke-color-blue" : 1.0,
                                              "stroke-color-green" : 1.0,
                                              "stroke-color-opacity" : 1.0,
                                              "stroke-color-red" : 1.0,
                                              "stroke-width" : 0.0,
                                              "width" : 1403.00212860107,
                                              "custom" : "Y",
                                              "fill-style" : "solid",
                                              "stroke-style" : "solid"
                                            },
                                            "attributes" : {
                                              "ident" : "",
                                              "autoRotateText" : true
                                            },
                                            "parameters" : {
                                              "anchor0" : -1.0,
                                              "anchor1" : 2.0,
                                              "sourceCrop0" : 0.0,
                                              "sourceCrop1" : 0.0,
                                              "sourceCrop2" : 0.0,
                                              "sourceCrop3" : 0.0,
                                              "geometryCrop0" : 0.0,
                                              "geometryCrop1" : 0.0,
                                              "geometryCrop2" : 0.0,
                                              "geometryCrop3" : 0.0
                                            },
                                            "effects" : [

                                            ],
                                            "start" : 0,
                                            "duration" : 3528000000,
                                            "mediaStart" : 0,
                                            "mediaDuration" : 3528000000,
                                            "scalar" : 1,
                                            "metadata" : {
                                              "AppliedThemeId" : "",
                                              "clipSpeedAttribute" : false,
                                              "effectApplied" : "none",
                                              "lockAspectRatio" : false
                                            },
                                            "animationTracks" : {

                                            }
                                          }
                                        ],
                                          "ident" : "",
                                          "audioMuted" : false,
                                          "videoHidden" : false,
                                          "magnetic" : false,
                                          "matte" : 0,
                                          "solo" : false,
                                          "metadata" : {
                                            "IsLocked" : "False",
                                            "WinTrackHeight" : "56",
                                            "trackHeight" : "54"
                                          }
                                      },
                                      {
                                        "trackIndex" : 1,
                                        "medias" : [
                                          {
                                            "id" : 603,
                                            "_type" : "Callout",
                                            "def" : {
                                              "kind" : "remix",
                                              "shape" : "shape-rectangle",
                                              "style" : "bold",
                                              "fill-color-blue" : 0.756862759590149,
                                              "fill-color-green" : 0.18823529779911,
                                              "fill-color-opacity" : 1.0,
                                              "fill-color-red" : 0.960784316062927,
                                              "hasDropShadow" : 0.0,
                                              "height" : 160.0,
                                              "savedXScale" : 1.0,
                                              "savedYScale" : 1.0,
                                              "stroke-color-blue" : 0.886274516582489,
                                              "stroke-color-green" : 0.200000002980232,
                                              "stroke-color-opacity" : 0.0,
                                              "stroke-color-red" : 0.376470595598221,
                                              "stroke-width" : 0.0,
                                              "width" : 1400.0,
                                              "custom" : "Y",
                                              "fill-style" : "solid",
                                              "stroke-style" : "solid"
                                            },
                                            "attributes" : {
                                              "ident" : "",
                                              "autoRotateText" : true
                                            },
                                            "parameters" : {
                                              "sourceCrop0" : 0.0,
                                              "sourceCrop1" : 0.0,
                                              "sourceCrop2" : 0.0,
                                              "sourceCrop3" : 0.0,
                                              "geometryCrop0" : 0.0,
                                              "geometryCrop1" : 0.0,
                                              "geometryCrop2" : 0.0,
                                              "geometryCrop3" : 0.0
                                            },
                                            "effects" : [

                                            ],
                                            "start" : 0,
                                            "duration" : 3528000000,
                                            "mediaStart" : 0,
                                            "mediaDuration" : 3528000000,
                                            "scalar" : 1,
                                            "metadata" : {
                                              "AppliedThemeId" : "",
                                              "clipSpeedAttribute" : false,
                                              "effectApplied" : "none"
                                            },
                                            "animationTracks" : {

                                            }
                                          }
                                        ],
                                          "ident" : "",
                                          "audioMuted" : false,
                                          "videoHidden" : false,
                                          "magnetic" : false,
                                          "matte" : 1,
                                          "solo" : false,
                                          "metadata" : {
                                            "IsLocked" : "False",
                                            "WinTrackHeight" : "56",
                                            "trackHeight" : "54"
                                          }
                                      }
                                    ],
                                    "attributes" : {
                                      "ident" : "Fill-1400x160",
                                      "widthAttr" : 1405.0,
                                      "heightAttr" : 167.002,
                                      "gain" : 1.0,
                                      "mixToMono" : false
                                    },
                                    "effects" : [

                                    ],
                                    "start" : 0,
                                    "duration" : 3528000000,
                                    "mediaStart" : 0.0,
                                    "mediaDuration" : 3528000000.0,
                                    "scalar" : 1,
                                    "metadata" : {
                                      "clipSpeedAttribute" : false,
                                      "effectApplied" : "none",
                                      "isOpen" : false,
                                      "lockAspectRatio" : true
                                    },
                                    "animationTracks" : {

                                    }
                                  }
                                ],
                                  "ident" : "",
                                  "audioMuted" : false,
                                  "videoHidden" : false,
                                  "magnetic" : false,
                                  "matte" : 0,
                                  "solo" : false,
                                  "metadata" : {
                                    "IsLocked" : "False",
                                    "WinTrackHeight" : "56",
                                    "trackHeight" : "54"
                                  }
                              },
                              {
                                "trackIndex" : 1,
                                "medias" : [
                                  {
                                    "id" : 604,
                                    "_type" : "Callout",
                                    "def" : {
                                      "kind" : "remix",
                                      "shape" : "text",
                                      "style" : "urban",
                                      "enable-ligatures" : 1.0,
                                      "hasDropShadow" : 0.0,
                                      "height" : 170.0,
                                      "line-spacing" : 0.0,
                                      "savedXScale" : 1.0,
                                      "savedYScale" : 1.0,
                                      "width" : 1400.0,
                                      "word-wrap" : 1.0,
                                      "custom" : "Y",
                                      "horizontal-alignment" : "left",
                                      "resize-behavior" : "resizeText",
                                      "text" : "toogle screen",
                                      "vertical-alignment" : "center",
                                      "font" : {
                                        "color-blue" : 1.0,
                                        "color-green" : 1.0,
                                        "color-red" : 1.0,
                                        "size" : 96.0,
                                        "tracking" : 0.0,
                                        "name" : "Dosis",
                                        "weight" : "Semi Bold"
                                      },
                                      "textAttributes" : {
                                        "type" : "textAttributeList",
                                        "keyframes" : [
                                          {
                                            "endTime" : 0,
                                            "time" : 0,
                                            "value" : [{"name":"underline","rangeEnd":13,"rangeStart":0,"value":0,"valueType":"int"},{"name":"strikethrough","rangeEnd":13,"rangeStart":0,"value":0,"valueType":"int"},{"name":"fontName","rangeEnd":13,"rangeStart":0,"value":"Roboto","valueType":"string"},{"name":"kerning","rangeEnd":13,"rangeStart":0,"value":0.049883078231292483,"valueType":"double"},{"name":"fontItalic","rangeEnd":13,"rangeStart":0,"value":0,"valueType":"int"},{"name":"fontWeight","rangeEnd":13,"rangeStart":0,"value":700,"valueType":"int"},{"name":"fontSize","rangeEnd":13,"rangeStart":0,"value":86,"valueType":"double"},{"name":"fgColor","rangeEnd":13,"rangeStart":0,"value":"(110,110,110,255)","valueType":"color"}],
                                            "duration" : 0
                                          }
                                        ]
                                      }
                                    },
                                    "attributes" : {
                                      "ident" : "",
                                      "autoRotateText" : true
                                    },
                                    "parameters" : {
                                      "translation1" : -2.0,
                                      "sourceCrop0" : 0.0,
                                      "sourceCrop1" : 0.0,
                                      "sourceCrop2" : 0.0,
                                      "sourceCrop3" : 0.0,
                                      "geometryCrop0" : 0.0,
                                      "geometryCrop1" : 0.0,
                                      "geometryCrop2" : 0.0,
                                      "geometryCrop3" : 0.0
                                    },
                                    "effects" : [

                                    ],
                                    "start" : 0,
                                    "duration" : 3528000000,
                                    "mediaStart" : 0,
                                    "mediaDuration" : 3528000000,
                                    "scalar" : 1,
                                    "metadata" : {
                                      "AppliedThemeId" : "",
                                      "clipSpeedAttribute" : false,
                                      "effectApplied" : "none",
                                      "lockAspectRatio" : false
                                    },
                                    "animationTracks" : {

                                    }
                                  }
                                ],
                                  "ident" : "",
                                  "audioMuted" : false,
                                  "videoHidden" : false,
                                  "magnetic" : false,
                                  "matte" : 0,
                                  "solo" : false,
                                  "metadata" : {
                                    "IsLocked" : "False",
                                    "WinTrackHeight" : "56",
                                    "trackHeight" : "54"
                                  }
                              }
                            ],
                            "attributes" : {
                              "ident" : "BP-Title-11",
                              "widthAttr" : 1405.0,
                              "heightAttr" : 167.002,
                              "gain" : 1.0,
                              "mixToMono" : false,
                              "assetProperties" : [
                                {
                                  "type" : 0,
                                  "name" : "Title",
                                  "objects" : [ 604 ],
                                  "themeMappings" :  {
                                    "font-color" : "foreground-1"
                                  }
                                },
                                {
                                  "type" : 1,
                                  "name" : "Fill",
                                  "objects" : [ 602 ],
                                  "themeMappings" :  {
                                    "fill" : "background-1"
                                  }
                                }
                              ]
                            },
                            "effects" : [

                            ],
                            "start" : 0,
                            "duration" : 3528000000,
                            "mediaStart" : 0.0,
                            "mediaDuration" : 3528000000.0,
                            "scalar" : 1,
                            "metadata" : {
                              "clipSpeedAttribute" : false,
                              "effectApplied" : "none",
                              "isOpen" : false,
                              "lockAspectRatio" : true
                            },
                            "animationTracks" : {
                              "visual" : [
                                {
                                  "endTime" : 552720000,
                                  "duration" : 552720000,
                                  "range" : [ 0, 552720000],
                                  "interp" : "eioe"
                                },
                                {
                                  "endTime" : 1775760000,
                                  "duration" : 399840000,
                                  "range" : [ 1375920000, 399840000],
                                  "interp" : "eioe"
                                }
                              ]
                            }
                          }
                        ],
                          "ident" : "",
                          "audioMuted" : false,
                          "videoHidden" : false,
                          "magnetic" : false,
                          "matte" : 0,
                          "solo" : false,
                          "metadata" : {
                            "IsLocked" : "False",
                            "WinTrackHeight" : "56",
                            "trackHeight" : "54"
                          }
                      },
                      {
                        "trackIndex" : 1,
                        "medias" : [
                          {
                            "id" : 605,
                            "_type" : "Group",
                            "parameters" : {
                              "translation0" : {
                                "type" : "double",
                                "defaultValue" : 0.0,
                                "keyframes" : [
                                  {
                                    "endTime" : 552720000,
                                    "time" : 0,
                                    "value" : 0.0,
                                    "interp" : "eioe",
                                    "duration" : 552720000
                                  },
                                  {
                                    "endTime" : 1775760000,
                                    "time" : 1375920000,
                                    "value" : 0.0,
                                    "interp" : "eioe",
                                    "duration" : 399840000
                                  }
                                ]
                              },
                              "translation1" : {
                                "type" : "double",
                                "defaultValue" : -144.610046386719,
                                "keyframes" : [
                                  {
                                    "endTime" : 552720000,
                                    "time" : 0,
                                    "value" : 0.0,
                                    "interp" : "eioe",
                                    "duration" : 552720000
                                  },
                                  {
                                    "endTime" : 1775760000,
                                    "time" : 1375920000,
                                    "value" : -144.610046386719,
                                    "interp" : "eioe",
                                    "duration" : 399840000
                                  }
                                ]
                              },
                              "sourceCrop0" : 0.0,
                              "sourceCrop1" : 0.0,
                              "sourceCrop2" : 0.0,
                              "sourceCrop3" : 0.0,
                              "geometryCrop0" : 0.0,
                              "geometryCrop1" : 0.0,
                              "geometryCrop2" : 0.0,
                              "geometryCrop3" : 0.0,
                              "opacity" : {
                                "type" : "double",
                                "defaultValue" : 1.0,
                                "keyframes" : [
                                  {
                                    "endTime" : 552720000,
                                    "time" : 0,
                                    "value" : 1.0,
                                    "interp" : "eioe",
                                    "duration" : 552720000
                                  }
                                ]
                              },
                              "volume" : 1.0
                            },
                            "tracks" : [
                              {
                                "trackIndex" : 0,
                                "medias" : [
                                  {
                                    "id" : 606,
                                    "_type" : "Callout",
                                    "def" : {
                                      "kind" : "remix",
                                      "shape" : "shape-rectangle",
                                      "style" : "bold",
                                      "fill-color-blue" : 0.913725490196078,
                                      "fill-color-green" : 0.949019607843137,
                                      "fill-color-opacity" : 1.0,
                                      "fill-color-red" : 0.933333333333333,
                                      "hasDropShadow" : 0.0,
                                      "height" : 163.002035140991,
                                      "savedXScale" : 1.0,
                                      "savedYScale" : 1.0,
                                      "stroke-color-blue" : 1.0,
                                      "stroke-color-green" : 1.0,
                                      "stroke-color-opacity" : 1.0,
                                      "stroke-color-red" : 1.0,
                                      "stroke-width" : 0.0,
                                      "width" : 1403.00212860107,
                                      "custom" : "Y",
                                      "fill-style" : "solid",
                                      "stroke-style" : "solid"
                                    },
                                    "attributes" : {
                                      "ident" : "",
                                      "autoRotateText" : true
                                    },
                                    "parameters" : {
                                      "anchor0" : -1.0,
                                      "anchor1" : 2.0,
                                      "sourceCrop0" : 0.0,
                                      "sourceCrop1" : 0.0,
                                      "sourceCrop2" : 0.0,
                                      "sourceCrop3" : 0.0,
                                      "geometryCrop0" : 0.0,
                                      "geometryCrop1" : 0.0,
                                      "geometryCrop2" : 0.0,
                                      "geometryCrop3" : 0.0
                                    },
                                    "effects" : [

                                    ],
                                    "start" : 0,
                                    "duration" : 3528000000,
                                    "mediaStart" : 0,
                                    "mediaDuration" : 3528000000,
                                    "scalar" : 1,
                                    "metadata" : {
                                      "AppliedThemeId" : "",
                                      "clipSpeedAttribute" : false,
                                      "effectApplied" : "none",
                                      "lockAspectRatio" : false
                                    },
                                    "animationTracks" : {

                                    }
                                  }
                                ],
                                  "ident" : "",
                                  "audioMuted" : false,
                                  "videoHidden" : false,
                                  "magnetic" : false,
                                  "matte" : 0,
                                  "solo" : false,
                                  "metadata" : {
                                    "IsLocked" : "False",
                                    "WinTrackHeight" : "56",
                                    "trackHeight" : "54"
                                  }
                              },
                              {
                                "trackIndex" : 1,
                                "medias" : [
                                  {
                                    "id" : 607,
                                    "_type" : "Callout",
                                    "def" : {
                                      "kind" : "remix",
                                      "shape" : "shape-rectangle",
                                      "style" : "bold",
                                      "fill-color-blue" : 0.756862759590149,
                                      "fill-color-green" : 0.18823529779911,
                                      "fill-color-opacity" : 1.0,
                                      "fill-color-red" : 0.960784316062927,
                                      "hasDropShadow" : 0.0,
                                      "height" : 160.0,
                                      "savedXScale" : 1.0,
                                      "savedYScale" : 1.0,
                                      "stroke-color-blue" : 0.886274516582489,
                                      "stroke-color-green" : 0.200000002980232,
                                      "stroke-color-opacity" : 0.0,
                                      "stroke-color-red" : 0.376470595598221,
                                      "stroke-width" : 0.0,
                                      "width" : 1400.0,
                                      "custom" : "Y",
                                      "fill-style" : "solid",
                                      "stroke-style" : "solid"
                                    },
                                    "attributes" : {
                                      "ident" : "",
                                      "autoRotateText" : true
                                    },
                                    "parameters" : {
                                      "sourceCrop0" : 0.0,
                                      "sourceCrop1" : 0.0,
                                      "sourceCrop2" : 0.0,
                                      "sourceCrop3" : 0.0,
                                      "geometryCrop0" : 0.0,
                                      "geometryCrop1" : 0.0,
                                      "geometryCrop2" : 0.0,
                                      "geometryCrop3" : 0.0
                                    },
                                    "effects" : [

                                    ],
                                    "start" : 0,
                                    "duration" : 3528000000,
                                    "mediaStart" : 0,
                                    "mediaDuration" : 3528000000,
                                    "scalar" : 1,
                                    "metadata" : {
                                      "AppliedThemeId" : "",
                                      "clipSpeedAttribute" : false,
                                      "effectApplied" : "none"
                                    },
                                    "animationTracks" : {

                                    }
                                  }
                                ],
                                  "ident" : "",
                                  "audioMuted" : false,
                                  "videoHidden" : false,
                                  "magnetic" : false,
                                  "matte" : 1,
                                  "solo" : false,
                                  "metadata" : {
                                    "IsLocked" : "False",
                                    "WinTrackHeight" : "56",
                                    "trackHeight" : "54"
                                  }
                              }
                            ],
                            "attributes" : {
                              "ident" : "Rect-1400x1600-Mask",
                              "widthAttr" : 1405.0,
                              "heightAttr" : 167.002,
                              "gain" : 1.0,
                              "mixToMono" : false
                            },
                            "effects" : [

                            ],
                            "start" : 0,
                            "duration" : 3528000000,
                            "mediaStart" : 0.0,
                            "mediaDuration" : 3528000000.0,
                            "scalar" : 1,
                            "metadata" : {
                              "clipSpeedAttribute" : false,
                              "effectApplied" : "none",
                              "isOpen" : false,
                              "lockAspectRatio" : true
                            },
                            "animationTracks" : {
                              "visual" : [
                                {
                                  "endTime" : 552720000,
                                  "duration" : 552720000,
                                  "range" : [ 0, 552720000],
                                  "interp" : "eioe"
                                },
                                {
                                  "endTime" : 1775760000,
                                  "duration" : 399840000,
                                  "range" : [ 1375920000, 399840000],
                                  "interp" : "eioe"
                                }
                              ]
                            }
                          }
                        ],
                          "ident" : "",
                          "audioMuted" : false,
                          "videoHidden" : false,
                          "magnetic" : false,
                          "matte" : 1,
                          "solo" : false,
                          "metadata" : {
                            "IsLocked" : "False",
                            "WinTrackHeight" : "56",
                            "trackHeight" : "54"
                          }
                      },
                      {
                        "trackIndex" : 2,
                        "medias" : [
                          {
                            "id" : 608,
                            "_type" : "Group",
                            "parameters" : {
                              "translation0" : {
                                "type" : "double",
                                "defaultValue" : 0.0,
                                "keyframes" : [
                                  {
                                    "endTime" : 552720000,
                                    "time" : 0,
                                    "value" : 0.0,
                                    "interp" : "eioe",
                                    "duration" : 552720000
                                  },
                                  {
                                    "endTime" : 1775760000,
                                    "time" : 1375920000,
                                    "value" : 0.0,
                                    "interp" : "eioe",
                                    "duration" : 399840000
                                  }
                                ]
                              },
                              "translation1" : {
                                "type" : "double",
                                "defaultValue" : -233.610046386719,
                                "keyframes" : [
                                  {
                                    "endTime" : 552720000,
                                    "time" : 0,
                                    "value" : 90.0,
                                    "interp" : "eioe",
                                    "duration" : 552720000
                                  },
                                  {
                                    "endTime" : 1775760000,
                                    "time" : 1375920000,
                                    "value" : -233.610046386719,
                                    "interp" : "eioe",
                                    "duration" : 399840000
                                  }
                                ]
                              },
                              "sourceCrop0" : 0.0,
                              "sourceCrop1" : 0.0,
                              "sourceCrop2" : 0.0,
                              "sourceCrop3" : 0.0,
                              "geometryCrop0" : 0.0,
                              "geometryCrop1" : 0.0,
                              "geometryCrop2" : 0.0,
                              "geometryCrop3" : 0.0,
                              "opacity" : {
                                "type" : "double",
                                "defaultValue" : 1.0,
                                "keyframes" : [
                                  {
                                    "endTime" : 552720000,
                                    "time" : 0,
                                    "value" : 1.0,
                                    "interp" : "eioe",
                                    "duration" : 552720000
                                  }
                                ]
                              },
                              "volume" : 1.0
                            },
                            "tracks" : [
                              {
                                "trackIndex" : 0,
                                "medias" : [
                                  {
                                    "id" : 609,
                                    "_type" : "Callout",
                                    "def" : {
                                      "kind" : "remix",
                                      "shape" : "shape-rectangle",
                                      "style" : "bold",
                                      "fill-color-blue" : 0.2196078431,
                                      "fill-color-green" : 0.8745098039,
                                      "fill-color-opacity" : 1.0,
                                      "fill-color-red" : 1.0,
                                      "hasDropShadow" : 0.0,
                                      "height" : 163.002035140991,
                                      "savedXScale" : 1.0,
                                      "savedYScale" : 1.0,
                                      "stroke-color-blue" : 1.0,
                                      "stroke-color-green" : 1.0,
                                      "stroke-color-opacity" : 1.0,
                                      "stroke-color-red" : 1.0,
                                      "stroke-width" : 0.0,
                                      "width" : 1403.00212860107,
                                      "custom" : "Y",
                                      "fill-style" : "solid",
                                      "stroke-style" : "solid"
                                    },
                                    "attributes" : {
                                      "ident" : "",
                                      "autoRotateText" : true
                                    },
                                    "parameters" : {
                                      "anchor0" : -1.0,
                                      "anchor1" : 2.0,
                                      "sourceCrop0" : 0.0,
                                      "sourceCrop1" : 0.0,
                                      "sourceCrop2" : 0.0,
                                      "sourceCrop3" : 0.0,
                                      "geometryCrop0" : 0.0,
                                      "geometryCrop1" : 0.0,
                                      "geometryCrop2" : 0.0,
                                      "geometryCrop3" : 0.0
                                    },
                                    "effects" : [

                                    ],
                                    "start" : 0,
                                    "duration" : 3528000000,
                                    "mediaStart" : 0,
                                    "mediaDuration" : 3528000000,
                                    "scalar" : 1,
                                    "metadata" : {
                                      "AppliedThemeId" : "",
                                      "clipSpeedAttribute" : false,
                                      "effectApplied" : "none",
                                      "lockAspectRatio" : false
                                    },
                                    "animationTracks" : {

                                    }
                                  }
                                ],
                                  "ident" : "",
                                  "audioMuted" : false,
                                  "videoHidden" : false,
                                  "magnetic" : false,
                                  "matte" : 0,
                                  "solo" : false,
                                  "metadata" : {
                                    "IsLocked" : "False",
                                    "WinTrackHeight" : "56",
                                    "trackHeight" : "54"
                                  }
                              },
                              {
                                "trackIndex" : 1,
                                "medias" : [
                                  {
                                    "id" : 610,
                                    "_type" : "Callout",
                                    "def" : {
                                      "kind" : "remix",
                                      "shape" : "shape-rectangle",
                                      "style" : "bold",
                                      "fill-color-blue" : 0.756862759590149,
                                      "fill-color-green" : 0.18823529779911,
                                      "fill-color-opacity" : 1.0,
                                      "fill-color-red" : 0.960784316062927,
                                      "hasDropShadow" : 0.0,
                                      "height" : 160.0,
                                      "savedXScale" : 1.0,
                                      "savedYScale" : 1.0,
                                      "stroke-color-blue" : 0.886274516582489,
                                      "stroke-color-green" : 0.200000002980232,
                                      "stroke-color-opacity" : 0.0,
                                      "stroke-color-red" : 0.376470595598221,
                                      "stroke-width" : 0.0,
                                      "width" : 1400.0,
                                      "custom" : "Y",
                                      "fill-style" : "solid",
                                      "stroke-style" : "solid"
                                    },
                                    "attributes" : {
                                      "ident" : "",
                                      "autoRotateText" : true
                                    },
                                    "parameters" : {
                                      "translation1" : {
                                        "type" : "double",
                                        "defaultValue" : -1.0,
                                        "keyframes" : [
                                          {
                                            "endTime" : 270480000,
                                            "time" : 0,
                                            "value" : 0.0,
                                            "duration" : 270480000
                                          }
                                        ]
                                      },
                                      "scale0" : {
                                        "type" : "double",
                                        "defaultValue" : 1.0,
                                        "keyframes" : [
                                          {
                                            "endTime" : 270480000,
                                            "time" : 0,
                                            "value" : 1.0,
                                            "duration" : 270480000
                                          }
                                        ]
                                      },
                                      "scale1" : {
                                        "type" : "double",
                                        "defaultValue" : 0.125,
                                        "keyframes" : [
                                          {
                                            "endTime" : 270480000,
                                            "time" : 0,
                                            "value" : 0.5,
                                            "duration" : 270480000
                                          },
                                          {
                                            "endTime" : 552720000,
                                            "time" : 282240000,
                                            "value" : 0.125,
                                            "duration" : 270480000
                                          }
                                        ]
                                      },
                                      "sourceCrop0" : 0.0,
                                      "sourceCrop1" : 0.0,
                                      "sourceCrop2" : 0.0,
                                      "sourceCrop3" : 0.0,
                                      "geometryCrop0" : 0.0,
                                      "geometryCrop1" : 0.0,
                                      "geometryCrop2" : 0.0,
                                      "geometryCrop3" : 0.0
                                    },
                                    "effects" : [

                                    ],
                                    "start" : 0,
                                    "duration" : 3528000000,
                                    "mediaStart" : 0,
                                    "mediaDuration" : 3528000000,
                                    "scalar" : 1,
                                    "metadata" : {
                                      "AppliedThemeId" : "",
                                      "clipSpeedAttribute" : false,
                                      "effectApplied" : "none"
                                    },
                                    "animationTracks" : {
                                      "visual" : [
                                        {
                                          "endTime" : 270480000,
                                          "duration" : 270480000,
                                          "range" : [ 0, 270480000]
                                        },
                                        {
                                          "endTime" : 552720000,
                                          "duration" : 270480000,
                                          "range" : [ 282240000, 270480000]
                                        }
                                      ]
                                    }
                                  }
                                ],
                                  "ident" : "",
                                  "audioMuted" : false,
                                  "videoHidden" : false,
                                  "magnetic" : false,
                                  "matte" : 1,
                                  "solo" : false,
                                  "metadata" : {
                                    "IsLocked" : "False",
                                    "WinTrackHeight" : "56",
                                    "trackHeight" : "54"
                                  }
                              }
                            ],
                            "attributes" : {
                              "ident" : "Animated-Pulse-1400x20-To-1400x80",
                              "widthAttr" : 1405.0,
                              "heightAttr" : 167.002,
                              "gain" : 1.0,
                              "mixToMono" : false,
                              "assetProperties" : [
                                {
                                  "type" : 1,
                                  "name" : "Color",
                                  "objects" : [ 609 ],
                                  "themeMappings" :  {
                                    "fill" : "accent-1"
                                  }
                                }
                              ]
                            },
                            "effects" : [

                            ],
                            "start" : 0,
                            "duration" : 3528000000,
                            "mediaStart" : 0.0,
                            "mediaDuration" : 3528000000.0,
                            "scalar" : 1,
                            "metadata" : {
                              "AppliedThemeId" : "8e797988-b823-4beb-b251-1d31b461ba07",
                              "clipSpeedAttribute" : false,
                              "effectApplied" : "none",
                              "isOpen" : false,
                              "lockAspectRatio" : true
                            },
                            "animationTracks" : {
                              "visual" : [
                                {
                                  "endTime" : 552720000,
                                  "duration" : 552720000,
                                  "range" : [ 0, 552720000],
                                  "interp" : "eioe"
                                },
                                {
                                  "endTime" : 1775760000,
                                  "duration" : 399840000,
                                  "range" : [ 1375920000, 399840000],
                                  "interp" : "eioe"
                                }
                              ]
                            }
                          }
                        ],
                          "ident" : "",
                          "audioMuted" : false,
                          "videoHidden" : false,
                          "magnetic" : false,
                          "matte" : 0,
                          "solo" : false,
                          "metadata" : {
                            "IsLocked" : "False",
                            "WinTrackHeight" : "56",
                            "trackHeight" : "54"
                          }
                      },
                      {
                        "trackIndex" : 3,
                        "medias" : [
                          {
                            "id" : 611,
                            "_type" : "Group",
                            "parameters" : {
                              "translation0" : {
                                "type" : "double",
                                "defaultValue" : 0.0,
                                "keyframes" : [
                                  {
                                    "endTime" : 552720000,
                                    "time" : 0,
                                    "value" : 0.0,
                                    "interp" : "eioe",
                                    "duration" : 552720000
                                  },
                                  {
                                    "endTime" : 1775760000,
                                    "time" : 1375920000,
                                    "value" : 0.0,
                                    "interp" : "eioe",
                                    "duration" : 399840000
                                  }
                                ]
                              },
                              "translation1" : {
                                "type" : "double",
                                "defaultValue" : -143.610046386719,
                                "keyframes" : [
                                  {
                                    "endTime" : 552720000,
                                    "time" : 0,
                                    "value" : 0.0,
                                    "interp" : "eioe",
                                    "duration" : 552720000
                                  },
                                  {
                                    "endTime" : 1775760000,
                                    "time" : 1375920000,
                                    "value" : -143.610046386719,
                                    "interp" : "eioe",
                                    "duration" : 399840000
                                  }
                                ]
                              },
                              "sourceCrop0" : 0.0,
                              "sourceCrop1" : 0.0,
                              "sourceCrop2" : 0.0,
                              "sourceCrop3" : 0.0,
                              "geometryCrop0" : 0.0,
                              "geometryCrop1" : 0.0,
                              "geometryCrop2" : 0.0,
                              "geometryCrop3" : 0.0,
                              "opacity" : {
                                "type" : "double",
                                "defaultValue" : 1.0,
                                "keyframes" : [
                                  {
                                    "endTime" : 552720000,
                                    "time" : 0,
                                    "value" : 1.0,
                                    "interp" : "eioe",
                                    "duration" : 552720000
                                  }
                                ]
                              },
                              "volume" : 1.0
                            },
                            "tracks" : [
                              {
                                "trackIndex" : 0,
                                "medias" : [
                                  {
                                    "id" : 612,
                                    "_type" : "Callout",
                                    "def" : {
                                      "kind" : "remix",
                                      "shape" : "shape-rectangle",
                                      "style" : "bold",
                                      "fill-color-blue" : 0.913725490196078,
                                      "fill-color-green" : 0.949019607843137,
                                      "fill-color-opacity" : 1.0,
                                      "fill-color-red" : 0.933333333333333,
                                      "hasDropShadow" : 0.0,
                                      "height" : 163.002035140991,
                                      "savedXScale" : 1.0,
                                      "savedYScale" : 1.0,
                                      "stroke-color-blue" : 1.0,
                                      "stroke-color-green" : 1.0,
                                      "stroke-color-opacity" : 1.0,
                                      "stroke-color-red" : 1.0,
                                      "stroke-width" : 0.0,
                                      "width" : 1403.00212860107,
                                      "custom" : "Y",
                                      "fill-style" : "solid",
                                      "stroke-style" : "solid"
                                    },
                                    "attributes" : {
                                      "ident" : "",
                                      "autoRotateText" : true
                                    },
                                    "parameters" : {
                                      "anchor0" : -1.0,
                                      "anchor1" : 2.0,
                                      "sourceCrop0" : 0.0,
                                      "sourceCrop1" : 0.0,
                                      "sourceCrop2" : 0.0,
                                      "sourceCrop3" : 0.0,
                                      "geometryCrop0" : 0.0,
                                      "geometryCrop1" : 0.0,
                                      "geometryCrop2" : 0.0,
                                      "geometryCrop3" : 0.0
                                    },
                                    "effects" : [

                                    ],
                                    "start" : 0,
                                    "duration" : 3528000000,
                                    "mediaStart" : 0,
                                    "mediaDuration" : 3528000000,
                                    "scalar" : 1,
                                    "metadata" : {
                                      "AppliedThemeId" : "",
                                      "clipSpeedAttribute" : false,
                                      "effectApplied" : "none",
                                      "lockAspectRatio" : false
                                    },
                                    "animationTracks" : {

                                    }
                                  }
                                ],
                                  "ident" : "",
                                  "audioMuted" : false,
                                  "videoHidden" : false,
                                  "magnetic" : false,
                                  "matte" : 0,
                                  "solo" : false,
                                  "metadata" : {
                                    "IsLocked" : "False",
                                    "WinTrackHeight" : "56",
                                    "trackHeight" : "54"
                                  }
                              },
                              {
                                "trackIndex" : 1,
                                "medias" : [
                                  {
                                    "id" : 613,
                                    "_type" : "Callout",
                                    "def" : {
                                      "kind" : "remix",
                                      "shape" : "shape-rectangle",
                                      "style" : "bold",
                                      "fill-color-blue" : 0.756862759590149,
                                      "fill-color-green" : 0.18823529779911,
                                      "fill-color-opacity" : 1.0,
                                      "fill-color-red" : 0.960784316062927,
                                      "hasDropShadow" : 0.0,
                                      "height" : 160.0,
                                      "savedXScale" : 1.0,
                                      "savedYScale" : 1.0,
                                      "stroke-color-blue" : 0.886274516582489,
                                      "stroke-color-green" : 0.200000002980232,
                                      "stroke-color-opacity" : 0.0,
                                      "stroke-color-red" : 0.376470595598221,
                                      "stroke-width" : 0.0,
                                      "width" : 1400.0,
                                      "custom" : "Y",
                                      "fill-style" : "solid",
                                      "stroke-style" : "solid"
                                    },
                                    "attributes" : {
                                      "ident" : "",
                                      "autoRotateText" : true
                                    },
                                    "parameters" : {
                                      "sourceCrop0" : 0.0,
                                      "sourceCrop1" : 0.0,
                                      "sourceCrop2" : 0.0,
                                      "sourceCrop3" : 0.0,
                                      "geometryCrop0" : 0.0,
                                      "geometryCrop1" : 0.0,
                                      "geometryCrop2" : 0.0,
                                      "geometryCrop3" : 0.0
                                    },
                                    "effects" : [

                                    ],
                                    "start" : 0,
                                    "duration" : 3528000000,
                                    "mediaStart" : 0,
                                    "mediaDuration" : 3528000000,
                                    "scalar" : 1,
                                    "metadata" : {
                                      "AppliedThemeId" : "",
                                      "clipSpeedAttribute" : false,
                                      "effectApplied" : "none"
                                    },
                                    "animationTracks" : {

                                    }
                                  }
                                ],
                                  "ident" : "",
                                  "audioMuted" : false,
                                  "videoHidden" : false,
                                  "magnetic" : false,
                                  "matte" : 1,
                                  "solo" : false,
                                  "metadata" : {
                                    "IsLocked" : "False",
                                    "WinTrackHeight" : "56",
                                    "trackHeight" : "54"
                                  }
                              }
                            ],
                            "attributes" : {
                              "ident" : "Rect-1400x1600-Mask",
                              "widthAttr" : 1405.0,
                              "heightAttr" : 167.002,
                              "gain" : 1.0,
                              "mixToMono" : false
                            },
                            "effects" : [

                            ],
                            "start" : 0,
                            "duration" : 3528000000,
                            "mediaStart" : 0.0,
                            "mediaDuration" : 3528000000.0,
                            "scalar" : 1,
                            "metadata" : {
                              "clipSpeedAttribute" : false,
                              "effectApplied" : "none",
                              "isOpen" : false,
                              "lockAspectRatio" : true
                            },
                            "animationTracks" : {
                              "visual" : [
                                {
                                  "endTime" : 552720000,
                                  "duration" : 552720000,
                                  "range" : [ 0, 552720000],
                                  "interp" : "eioe"
                                },
                                {
                                  "endTime" : 1775760000,
                                  "duration" : 399840000,
                                  "range" : [ 1375920000, 399840000],
                                  "interp" : "eioe"
                                }
                              ]
                            }
                          }
                        ],
                          "ident" : "",
                          "audioMuted" : false,
                          "videoHidden" : false,
                          "magnetic" : false,
                          "matte" : 1,
                          "solo" : false,
                          "metadata" : {
                            "IsLocked" : "False",
                            "WinTrackHeight" : "56",
                            "trackHeight" : "54"
                          }
                      }
                    ],
                    "attributes" : {
                      "ident" : "Broadcast-Title-012",
                      "widthAttr" : 1405.0,
                      "heightAttr" : 160.0,
                      "gain" : 1.0,
                      "mixToMono" : false,
                      "assetProperties" : [
                        {
                          "type" : 0,
                          "name" : "Title",
                          "objects" : [ 604 ],
                          "themeMappings" :  {
                            "font-color" : "foreground-1"
                          }
                        },
                        {
                          "type" : 1,
                          "name" : "Fill",
                          "objects" : [ 602 ],
                          "themeMappings" :  {
                            "fill" : "background-1"
                          }
                        },
                        {
                          "type" : 1,
                          "name" : "Wiper",
                          "objects" : [ 609 ],
                          "themeMappings" :  {
                            "fill" : "foreground-1"
                          }
                        }
                      ]
                    },
                    "effects" : [

                    ],
                    "start" : 1928640000,
                    "duration" : 1764000000,
                    "mediaStart" : 0.0,
                    "mediaDuration" : 1764000000.0,
                    "scalar" : 1,
                    "metadata" : {
                      "AppliedThemeId" : "170ba59c-db5d-4b9a-a310-e7e99853a4b7",
                      "clipSpeedAttribute" : false,
                      "default-anchor0" : 0.0,
                      "default-anchor1" : 0.0,
                      "default-anchor2" : 0.0,
                      "default-geometryCrop0" : 0.0,
                      "default-height" : 160.0,
                      "default-rotation0" : 0.0,
                      "default-rotation1" : 0.0,
                      "default-rotation2" : 0.0,
                      "default-scale0" : 1.0,
                      "default-scale1" : 1.0,
                      "default-scale2" : 1.0,
                      "default-shear0" : 0.0,
                      "default-shear1" : 0.0,
                      "default-shear2" : 0.0,
                      "default-translation0" : 0.0,
                      "default-translation1" : 0.0,
                      "default-translation2" : 0.0,
                      "default-width" : 1405.0,
                      "effectApplied" : "none",
                      "isOpen" : false,
                      "lockAspectRatio" : true
                    },
                    "animationTracks" : {

                    }
                  }
                ]
              },
              {
                "trackIndex" : 127,
                "medias" : [
                  {
                    "id" : 614,
                    "_type" : "Group",
                    "parameters" : {
                      "translation0" : -414.2,
                      "translation1" : 201.035294117647,
                      "scale0" : 0.213523131672598,
                      "scale1" : 0.21875,
                      "sourceCrop0" : 0.0,
                      "sourceCrop1" : 0.0,
                      "sourceCrop2" : 0.0,
                      "sourceCrop3" : 0.0,
                      "geometryCrop0" : 0.0,
                      "geometryCrop1" : 0.0,
                      "geometryCrop2" : 0.0,
                      "geometryCrop3" : 0.0,
                      "volume" : 1.0
                    },
                    "tracks" : [
                      {
                        "trackIndex" : 0,
                        "medias" : [
                          {
                            "id" : 615,
                            "_type" : "Group",
                            "parameters" : {
                              "translation0" : {
                                "type" : "double",
                                "defaultValue" : 0.0,
                                "keyframes" : [
                                  {
                                    "endTime" : 552720000,
                                    "time" : 0,
                                    "value" : 0.0,
                                    "interp" : "eioe",
                                    "duration" : 552720000
                                  },
                                  {
                                    "endTime" : 1775760000,
                                    "time" : 1375920000,
                                    "value" : 0.0,
                                    "interp" : "eioe",
                                    "duration" : 399840000
                                  }
                                ]
                              },
                              "translation1" : {
                                "type" : "double",
                                "defaultValue" : -305.610046386719,
                                "keyframes" : [
                                  {
                                    "endTime" : 552720000,
                                    "time" : 0,
                                    "value" : 0.0,
                                    "interp" : "eioe",
                                    "duration" : 552720000
                                  },
                                  {
                                    "endTime" : 1775760000,
                                    "time" : 1375920000,
                                    "value" : -304.610046386719,
                                    "interp" : "eioe",
                                    "duration" : 399840000
                                  }
                                ]
                              },
                              "sourceCrop0" : 0.0,
                              "sourceCrop1" : 0.0,
                              "sourceCrop2" : 0.0,
                              "sourceCrop3" : 0.0,
                              "geometryCrop0" : 0.0,
                              "geometryCrop1" : 0.0,
                              "geometryCrop2" : 0.0,
                              "geometryCrop3" : 0.0,
                              "volume" : 1.0
                            },
                            "tracks" : [
                              {
                                "trackIndex" : 0,
                                "medias" : [
                                  {
                                    "id" : 616,
                                    "_type" : "Group",
                                    "parameters" : {
                                      "sourceCrop0" : 0.0,
                                      "sourceCrop1" : 0.0,
                                      "sourceCrop2" : 0.0,
                                      "sourceCrop3" : 0.0,
                                      "geometryCrop0" : 0.0,
                                      "geometryCrop1" : 0.0,
                                      "geometryCrop2" : 0.0,
                                      "geometryCrop3" : 0.0,
                                      "volume" : 1.0
                                    },
                                    "tracks" : [
                                      {
                                        "trackIndex" : 0,
                                        "medias" : [
                                          {
                                            "id" : 617,
                                            "_type" : "Callout",
                                            "def" : {
                                              "kind" : "remix",
                                              "shape" : "shape-rectangle",
                                              "style" : "bold",
                                              "fill-color-blue" : 1.0,
                                              "fill-color-green" : 1.0,
                                              "fill-color-opacity" : 1.0,
                                              "fill-color-red" : 1.0,
                                              "hasDropShadow" : 0.0,
                                              "height" : 163.002035140991,
                                              "savedXScale" : 1.0,
                                              "savedYScale" : 1.0,
                                              "stroke-color-blue" : 1.0,
                                              "stroke-color-green" : 1.0,
                                              "stroke-color-opacity" : 1.0,
                                              "stroke-color-red" : 1.0,
                                              "stroke-width" : 0.0,
                                              "width" : 1403.00212860107,
                                              "custom" : "Y",
                                              "fill-style" : "solid",
                                              "stroke-style" : "solid"
                                            },
                                            "attributes" : {
                                              "ident" : "",
                                              "autoRotateText" : true
                                            },
                                            "parameters" : {
                                              "anchor0" : -1.0,
                                              "anchor1" : 2.0,
                                              "sourceCrop0" : 0.0,
                                              "sourceCrop1" : 0.0,
                                              "sourceCrop2" : 0.0,
                                              "sourceCrop3" : 0.0,
                                              "geometryCrop0" : 0.0,
                                              "geometryCrop1" : 0.0,
                                              "geometryCrop2" : 0.0,
                                              "geometryCrop3" : 0.0
                                            },
                                            "effects" : [

                                            ],
                                            "start" : 0,
                                            "duration" : 3528000000,
                                            "mediaStart" : 0,
                                            "mediaDuration" : 3528000000,
                                            "scalar" : 1,
                                            "metadata" : {
                                              "AppliedThemeId" : "",
                                              "clipSpeedAttribute" : false,
                                              "effectApplied" : "none",
                                              "lockAspectRatio" : false
                                            },
                                            "animationTracks" : {

                                            }
                                          }
                                        ],
                                          "ident" : "",
                                          "audioMuted" : false,
                                          "videoHidden" : false,
                                          "magnetic" : false,
                                          "matte" : 0,
                                          "solo" : false,
                                          "metadata" : {
                                            "IsLocked" : "False",
                                            "WinTrackHeight" : "56",
                                            "trackHeight" : "54"
                                          }
                                      },
                                      {
                                        "trackIndex" : 1,
                                        "medias" : [
                                          {
                                            "id" : 618,
                                            "_type" : "Callout",
                                            "def" : {
                                              "kind" : "remix",
                                              "shape" : "shape-rectangle",
                                              "style" : "bold",
                                              "fill-color-blue" : 0.756862759590149,
                                              "fill-color-green" : 0.18823529779911,
                                              "fill-color-opacity" : 1.0,
                                              "fill-color-red" : 0.960784316062927,
                                              "hasDropShadow" : 0.0,
                                              "height" : 160.0,
                                              "savedXScale" : 1.0,
                                              "savedYScale" : 1.0,
                                              "stroke-color-blue" : 0.886274516582489,
                                              "stroke-color-green" : 0.200000002980232,
                                              "stroke-color-opacity" : 0.0,
                                              "stroke-color-red" : 0.376470595598221,
                                              "stroke-width" : 0.0,
                                              "width" : 1400.0,
                                              "custom" : "Y",
                                              "fill-style" : "solid",
                                              "stroke-style" : "solid"
                                            },
                                            "attributes" : {
                                              "ident" : "",
                                              "autoRotateText" : true
                                            },
                                            "parameters" : {
                                              "sourceCrop0" : 0.0,
                                              "sourceCrop1" : 0.0,
                                              "sourceCrop2" : 0.0,
                                              "sourceCrop3" : 0.0,
                                              "geometryCrop0" : 0.0,
                                              "geometryCrop1" : 0.0,
                                              "geometryCrop2" : 0.0,
                                              "geometryCrop3" : 0.0
                                            },
                                            "effects" : [

                                            ],
                                            "start" : 0,
                                            "duration" : 3528000000,
                                            "mediaStart" : 0,
                                            "mediaDuration" : 3528000000,
                                            "scalar" : 1,
                                            "metadata" : {
                                              "AppliedThemeId" : "",
                                              "clipSpeedAttribute" : false,
                                              "effectApplied" : "none"
                                            },
                                            "animationTracks" : {

                                            }
                                          }
                                        ],
                                          "ident" : "",
                                          "audioMuted" : false,
                                          "videoHidden" : false,
                                          "magnetic" : false,
                                          "matte" : 1,
                                          "solo" : false,
                                          "metadata" : {
                                            "IsLocked" : "False",
                                            "WinTrackHeight" : "56",
                                            "trackHeight" : "54"
                                          }
                                      }
                                    ],
                                    "attributes" : {
                                      "ident" : "Fill-1400x160",
                                      "widthAttr" : 1405.0,
                                      "heightAttr" : 167.002,
                                      "gain" : 1.0,
                                      "mixToMono" : false
                                    },
                                    "effects" : [

                                    ],
                                    "start" : 0,
                                    "duration" : 3528000000,
                                    "mediaStart" : 0.0,
                                    "mediaDuration" : 3528000000.0,
                                    "scalar" : 1,
                                    "metadata" : {
                                      "clipSpeedAttribute" : false,
                                      "effectApplied" : "none",
                                      "isOpen" : false,
                                      "lockAspectRatio" : true
                                    },
                                    "animationTracks" : {

                                    }
                                  }
                                ],
                                  "ident" : "",
                                  "audioMuted" : false,
                                  "videoHidden" : false,
                                  "magnetic" : false,
                                  "matte" : 0,
                                  "solo" : false,
                                  "metadata" : {
                                    "IsLocked" : "False",
                                    "WinTrackHeight" : "56",
                                    "trackHeight" : "54"
                                  }
                              },
                              {
                                "trackIndex" : 1,
                                "medias" : [
                                  {
                                    "id" : 619,
                                    "_type" : "Callout",
                                    "def" : {
                                      "kind" : "remix",
                                      "shape" : "text",
                                      "style" : "urban",
                                      "enable-ligatures" : 1.0,
                                      "hasDropShadow" : 0.0,
                                      "height" : 170.0,
                                      "line-spacing" : 0.0,
                                      "savedXScale" : 1.0,
                                      "savedYScale" : 1.0,
                                      "width" : 1400.0,
                                      "word-wrap" : 1.0,
                                      "custom" : "Y",
                                      "horizontal-alignment" : "left",
                                      "resize-behavior" : "resizeText",
                                      "text" : "autowrap selected cells",
                                      "vertical-alignment" : "center",
                                      "font" : {
                                        "color-blue" : 1.0,
                                        "color-green" : 1.0,
                                        "color-red" : 1.0,
                                        "size" : 96.0,
                                        "tracking" : 0.0,
                                        "name" : "Dosis",
                                        "weight" : "Semi Bold"
                                      },
                                      "textAttributes" : {
                                        "type" : "textAttributeList",
                                        "keyframes" : [
                                          {
                                            "endTime" : 0,
                                            "time" : 0,
                                            "value" : [{"name":"underline","rangeEnd":23,"rangeStart":0,"value":0,"valueType":"int"},{"name":"strikethrough","rangeEnd":23,"rangeStart":0,"value":0,"valueType":"int"},{"name":"fontName","rangeEnd":23,"rangeStart":0,"value":"Roboto","valueType":"string"},{"name":"kerning","rangeEnd":23,"rangeStart":0,"value":0.049883078231292483,"valueType":"double"},{"name":"fontItalic","rangeEnd":23,"rangeStart":0,"value":0,"valueType":"int"},{"name":"fontWeight","rangeEnd":23,"rangeStart":0,"value":700,"valueType":"int"},{"name":"fontSize","rangeEnd":23,"rangeStart":0,"value":86,"valueType":"double"},{"name":"fgColor","rangeEnd":23,"rangeStart":0,"value":"(110,110,110,255)","valueType":"color"}],
                                            "duration" : 0
                                          }
                                        ]
                                      }
                                    },
                                    "attributes" : {
                                      "ident" : "",
                                      "autoRotateText" : true
                                    },
                                    "parameters" : {
                                      "translation1" : -2.0,
                                      "sourceCrop0" : 0.0,
                                      "sourceCrop1" : 0.0,
                                      "sourceCrop2" : 0.0,
                                      "sourceCrop3" : 0.0,
                                      "geometryCrop0" : 0.0,
                                      "geometryCrop1" : 0.0,
                                      "geometryCrop2" : 0.0,
                                      "geometryCrop3" : 0.0
                                    },
                                    "effects" : [

                                    ],
                                    "start" : 0,
                                    "duration" : 3528000000,
                                    "mediaStart" : 0,
                                    "mediaDuration" : 3528000000,
                                    "scalar" : 1,
                                    "metadata" : {
                                      "AppliedThemeId" : "",
                                      "clipSpeedAttribute" : false,
                                      "effectApplied" : "none",
                                      "lockAspectRatio" : false
                                    },
                                    "animationTracks" : {

                                    }
                                  }
                                ],
                                  "ident" : "",
                                  "audioMuted" : false,
                                  "videoHidden" : false,
                                  "magnetic" : false,
                                  "matte" : 0,
                                  "solo" : false,
                                  "metadata" : {
                                    "IsLocked" : "False",
                                    "WinTrackHeight" : "56",
                                    "trackHeight" : "54"
                                  }
                              }
                            ],
                            "attributes" : {
                              "ident" : "BP-Title-11",
                              "widthAttr" : 1405.0,
                              "heightAttr" : 167.002,
                              "gain" : 1.0,
                              "mixToMono" : false,
                              "assetProperties" : [
                                {
                                  "type" : 0,
                                  "name" : "Title",
                                  "objects" : [ 619 ],
                                  "themeMappings" :  {
                                    "font-color" : "foreground-1"
                                  }
                                },
                                {
                                  "type" : 1,
                                  "name" : "Fill",
                                  "objects" : [ 617 ],
                                  "themeMappings" :  {
                                    "fill" : "background-1"
                                  }
                                }
                              ]
                            },
                            "effects" : [

                            ],
                            "start" : 0,
                            "duration" : 3528000000,
                            "mediaStart" : 0.0,
                            "mediaDuration" : 3528000000.0,
                            "scalar" : 1,
                            "metadata" : {
                              "clipSpeedAttribute" : false,
                              "effectApplied" : "none",
                              "isOpen" : false,
                              "lockAspectRatio" : true
                            },
                            "animationTracks" : {
                              "visual" : [
                                {
                                  "endTime" : 552720000,
                                  "duration" : 552720000,
                                  "range" : [ 0, 552720000],
                                  "interp" : "eioe"
                                },
                                {
                                  "endTime" : 1775760000,
                                  "duration" : 399840000,
                                  "range" : [ 1375920000, 399840000],
                                  "interp" : "eioe"
                                }
                              ]
                            }
                          }
                        ],
                          "ident" : "",
                          "audioMuted" : false,
                          "videoHidden" : false,
                          "magnetic" : false,
                          "matte" : 0,
                          "solo" : false,
                          "metadata" : {
                            "IsLocked" : "False",
                            "WinTrackHeight" : "56",
                            "trackHeight" : "54"
                          }
                      },
                      {
                        "trackIndex" : 1,
                        "medias" : [
                          {
                            "id" : 620,
                            "_type" : "Group",
                            "parameters" : {
                              "translation0" : {
                                "type" : "double",
                                "defaultValue" : 0.0,
                                "keyframes" : [
                                  {
                                    "endTime" : 552720000,
                                    "time" : 0,
                                    "value" : 0.0,
                                    "interp" : "eioe",
                                    "duration" : 552720000
                                  },
                                  {
                                    "endTime" : 1775760000,
                                    "time" : 1375920000,
                                    "value" : 0.0,
                                    "interp" : "eioe",
                                    "duration" : 399840000
                                  }
                                ]
                              },
                              "translation1" : {
                                "type" : "double",
                                "defaultValue" : -144.610046386719,
                                "keyframes" : [
                                  {
                                    "endTime" : 552720000,
                                    "time" : 0,
                                    "value" : 0.0,
                                    "interp" : "eioe",
                                    "duration" : 552720000
                                  },
                                  {
                                    "endTime" : 1775760000,
                                    "time" : 1375920000,
                                    "value" : -144.610046386719,
                                    "interp" : "eioe",
                                    "duration" : 399840000
                                  }
                                ]
                              },
                              "sourceCrop0" : 0.0,
                              "sourceCrop1" : 0.0,
                              "sourceCrop2" : 0.0,
                              "sourceCrop3" : 0.0,
                              "geometryCrop0" : 0.0,
                              "geometryCrop1" : 0.0,
                              "geometryCrop2" : 0.0,
                              "geometryCrop3" : 0.0,
                              "opacity" : {
                                "type" : "double",
                                "defaultValue" : 1.0,
                                "keyframes" : [
                                  {
                                    "endTime" : 552720000,
                                    "time" : 0,
                                    "value" : 1.0,
                                    "interp" : "eioe",
                                    "duration" : 552720000
                                  }
                                ]
                              },
                              "volume" : 1.0
                            },
                            "tracks" : [
                              {
                                "trackIndex" : 0,
                                "medias" : [
                                  {
                                    "id" : 621,
                                    "_type" : "Callout",
                                    "def" : {
                                      "kind" : "remix",
                                      "shape" : "shape-rectangle",
                                      "style" : "bold",
                                      "fill-color-blue" : 0.913725490196078,
                                      "fill-color-green" : 0.949019607843137,
                                      "fill-color-opacity" : 1.0,
                                      "fill-color-red" : 0.933333333333333,
                                      "hasDropShadow" : 0.0,
                                      "height" : 163.002035140991,
                                      "savedXScale" : 1.0,
                                      "savedYScale" : 1.0,
                                      "stroke-color-blue" : 1.0,
                                      "stroke-color-green" : 1.0,
                                      "stroke-color-opacity" : 1.0,
                                      "stroke-color-red" : 1.0,
                                      "stroke-width" : 0.0,
                                      "width" : 1403.00212860107,
                                      "custom" : "Y",
                                      "fill-style" : "solid",
                                      "stroke-style" : "solid"
                                    },
                                    "attributes" : {
                                      "ident" : "",
                                      "autoRotateText" : true
                                    },
                                    "parameters" : {
                                      "anchor0" : -1.0,
                                      "anchor1" : 2.0,
                                      "sourceCrop0" : 0.0,
                                      "sourceCrop1" : 0.0,
                                      "sourceCrop2" : 0.0,
                                      "sourceCrop3" : 0.0,
                                      "geometryCrop0" : 0.0,
                                      "geometryCrop1" : 0.0,
                                      "geometryCrop2" : 0.0,
                                      "geometryCrop3" : 0.0
                                    },
                                    "effects" : [

                                    ],
                                    "start" : 0,
                                    "duration" : 3528000000,
                                    "mediaStart" : 0,
                                    "mediaDuration" : 3528000000,
                                    "scalar" : 1,
                                    "metadata" : {
                                      "AppliedThemeId" : "",
                                      "clipSpeedAttribute" : false,
                                      "effectApplied" : "none",
                                      "lockAspectRatio" : false
                                    },
                                    "animationTracks" : {

                                    }
                                  }
                                ],
                                  "ident" : "",
                                  "audioMuted" : false,
                                  "videoHidden" : false,
                                  "magnetic" : false,
                                  "matte" : 0,
                                  "solo" : false,
                                  "metadata" : {
                                    "IsLocked" : "False",
                                    "WinTrackHeight" : "56",
                                    "trackHeight" : "54"
                                  }
                              },
                              {
                                "trackIndex" : 1,
                                "medias" : [
                                  {
                                    "id" : 622,
                                    "_type" : "Callout",
                                    "def" : {
                                      "kind" : "remix",
                                      "shape" : "shape-rectangle",
                                      "style" : "bold",
                                      "fill-color-blue" : 0.756862759590149,
                                      "fill-color-green" : 0.18823529779911,
                                      "fill-color-opacity" : 1.0,
                                      "fill-color-red" : 0.960784316062927,
                                      "hasDropShadow" : 0.0,
                                      "height" : 160.0,
                                      "savedXScale" : 1.0,
                                      "savedYScale" : 1.0,
                                      "stroke-color-blue" : 0.886274516582489,
                                      "stroke-color-green" : 0.200000002980232,
                                      "stroke-color-opacity" : 0.0,
                                      "stroke-color-red" : 0.376470595598221,
                                      "stroke-width" : 0.0,
                                      "width" : 1400.0,
                                      "custom" : "Y",
                                      "fill-style" : "solid",
                                      "stroke-style" : "solid"
                                    },
                                    "attributes" : {
                                      "ident" : "",
                                      "autoRotateText" : true
                                    },
                                    "parameters" : {
                                      "sourceCrop0" : 0.0,
                                      "sourceCrop1" : 0.0,
                                      "sourceCrop2" : 0.0,
                                      "sourceCrop3" : 0.0,
                                      "geometryCrop0" : 0.0,
                                      "geometryCrop1" : 0.0,
                                      "geometryCrop2" : 0.0,
                                      "geometryCrop3" : 0.0
                                    },
                                    "effects" : [

                                    ],
                                    "start" : 0,
                                    "duration" : 3528000000,
                                    "mediaStart" : 0,
                                    "mediaDuration" : 3528000000,
                                    "scalar" : 1,
                                    "metadata" : {
                                      "AppliedThemeId" : "",
                                      "clipSpeedAttribute" : false,
                                      "effectApplied" : "none"
                                    },
                                    "animationTracks" : {

                                    }
                                  }
                                ],
                                  "ident" : "",
                                  "audioMuted" : false,
                                  "videoHidden" : false,
                                  "magnetic" : false,
                                  "matte" : 1,
                                  "solo" : false,
                                  "metadata" : {
                                    "IsLocked" : "False",
                                    "WinTrackHeight" : "56",
                                    "trackHeight" : "54"
                                  }
                              }
                            ],
                            "attributes" : {
                              "ident" : "Rect-1400x1600-Mask",
                              "widthAttr" : 1405.0,
                              "heightAttr" : 167.002,
                              "gain" : 1.0,
                              "mixToMono" : false
                            },
                            "effects" : [

                            ],
                            "start" : 0,
                            "duration" : 3528000000,
                            "mediaStart" : 0.0,
                            "mediaDuration" : 3528000000.0,
                            "scalar" : 1,
                            "metadata" : {
                              "clipSpeedAttribute" : false,
                              "effectApplied" : "none",
                              "isOpen" : false,
                              "lockAspectRatio" : true
                            },
                            "animationTracks" : {
                              "visual" : [
                                {
                                  "endTime" : 552720000,
                                  "duration" : 552720000,
                                  "range" : [ 0, 552720000],
                                  "interp" : "eioe"
                                },
                                {
                                  "endTime" : 1775760000,
                                  "duration" : 399840000,
                                  "range" : [ 1375920000, 399840000],
                                  "interp" : "eioe"
                                }
                              ]
                            }
                          }
                        ],
                          "ident" : "",
                          "audioMuted" : false,
                          "videoHidden" : false,
                          "magnetic" : false,
                          "matte" : 1,
                          "solo" : false,
                          "metadata" : {
                            "IsLocked" : "False",
                            "WinTrackHeight" : "56",
                            "trackHeight" : "54"
                          }
                      },
                      {
                        "trackIndex" : 2,
                        "medias" : [
                          {
                            "id" : 623,
                            "_type" : "Group",
                            "parameters" : {
                              "translation0" : {
                                "type" : "double",
                                "defaultValue" : 0.0,
                                "keyframes" : [
                                  {
                                    "endTime" : 552720000,
                                    "time" : 0,
                                    "value" : 0.0,
                                    "interp" : "eioe",
                                    "duration" : 552720000
                                  },
                                  {
                                    "endTime" : 1775760000,
                                    "time" : 1375920000,
                                    "value" : 0.0,
                                    "interp" : "eioe",
                                    "duration" : 399840000
                                  }
                                ]
                              },
                              "translation1" : {
                                "type" : "double",
                                "defaultValue" : -233.610046386719,
                                "keyframes" : [
                                  {
                                    "endTime" : 552720000,
                                    "time" : 0,
                                    "value" : 90.0,
                                    "interp" : "eioe",
                                    "duration" : 552720000
                                  },
                                  {
                                    "endTime" : 1775760000,
                                    "time" : 1375920000,
                                    "value" : -233.610046386719,
                                    "interp" : "eioe",
                                    "duration" : 399840000
                                  }
                                ]
                              },
                              "sourceCrop0" : 0.0,
                              "sourceCrop1" : 0.0,
                              "sourceCrop2" : 0.0,
                              "sourceCrop3" : 0.0,
                              "geometryCrop0" : 0.0,
                              "geometryCrop1" : 0.0,
                              "geometryCrop2" : 0.0,
                              "geometryCrop3" : 0.0,
                              "opacity" : {
                                "type" : "double",
                                "defaultValue" : 1.0,
                                "keyframes" : [
                                  {
                                    "endTime" : 552720000,
                                    "time" : 0,
                                    "value" : 1.0,
                                    "interp" : "eioe",
                                    "duration" : 552720000
                                  }
                                ]
                              },
                              "volume" : 1.0
                            },
                            "tracks" : [
                              {
                                "trackIndex" : 0,
                                "medias" : [
                                  {
                                    "id" : 624,
                                    "_type" : "Callout",
                                    "def" : {
                                      "kind" : "remix",
                                      "shape" : "shape-rectangle",
                                      "style" : "bold",
                                      "fill-color-blue" : 0.2196078431,
                                      "fill-color-green" : 0.8745098039,
                                      "fill-color-opacity" : 1.0,
                                      "fill-color-red" : 1.0,
                                      "hasDropShadow" : 0.0,
                                      "height" : 163.002035140991,
                                      "savedXScale" : 1.0,
                                      "savedYScale" : 1.0,
                                      "stroke-color-blue" : 1.0,
                                      "stroke-color-green" : 1.0,
                                      "stroke-color-opacity" : 1.0,
                                      "stroke-color-red" : 1.0,
                                      "stroke-width" : 0.0,
                                      "width" : 1403.00212860107,
                                      "custom" : "Y",
                                      "fill-style" : "solid",
                                      "stroke-style" : "solid"
                                    },
                                    "attributes" : {
                                      "ident" : "",
                                      "autoRotateText" : true
                                    },
                                    "parameters" : {
                                      "anchor0" : -1.0,
                                      "anchor1" : 2.0,
                                      "sourceCrop0" : 0.0,
                                      "sourceCrop1" : 0.0,
                                      "sourceCrop2" : 0.0,
                                      "sourceCrop3" : 0.0,
                                      "geometryCrop0" : 0.0,
                                      "geometryCrop1" : 0.0,
                                      "geometryCrop2" : 0.0,
                                      "geometryCrop3" : 0.0
                                    },
                                    "effects" : [

                                    ],
                                    "start" : 0,
                                    "duration" : 3528000000,
                                    "mediaStart" : 0,
                                    "mediaDuration" : 3528000000,
                                    "scalar" : 1,
                                    "metadata" : {
                                      "AppliedThemeId" : "",
                                      "clipSpeedAttribute" : false,
                                      "effectApplied" : "none",
                                      "lockAspectRatio" : false
                                    },
                                    "animationTracks" : {

                                    }
                                  }
                                ],
                                  "ident" : "",
                                  "audioMuted" : false,
                                  "videoHidden" : false,
                                  "magnetic" : false,
                                  "matte" : 0,
                                  "solo" : false,
                                  "metadata" : {
                                    "IsLocked" : "False",
                                    "WinTrackHeight" : "56",
                                    "trackHeight" : "54"
                                  }
                              },
                              {
                                "trackIndex" : 1,
                                "medias" : [
                                  {
                                    "id" : 625,
                                    "_type" : "Callout",
                                    "def" : {
                                      "kind" : "remix",
                                      "shape" : "shape-rectangle",
                                      "style" : "bold",
                                      "fill-color-blue" : 0.756862759590149,
                                      "fill-color-green" : 0.18823529779911,
                                      "fill-color-opacity" : 1.0,
                                      "fill-color-red" : 0.960784316062927,
                                      "hasDropShadow" : 0.0,
                                      "height" : 160.0,
                                      "savedXScale" : 1.0,
                                      "savedYScale" : 1.0,
                                      "stroke-color-blue" : 0.886274516582489,
                                      "stroke-color-green" : 0.200000002980232,
                                      "stroke-color-opacity" : 0.0,
                                      "stroke-color-red" : 0.376470595598221,
                                      "stroke-width" : 0.0,
                                      "width" : 1400.0,
                                      "custom" : "Y",
                                      "fill-style" : "solid",
                                      "stroke-style" : "solid"
                                    },
                                    "attributes" : {
                                      "ident" : "",
                                      "autoRotateText" : true
                                    },
                                    "parameters" : {
                                      "translation1" : {
                                        "type" : "double",
                                        "defaultValue" : -1.0,
                                        "keyframes" : [
                                          {
                                            "endTime" : 270480000,
                                            "time" : 0,
                                            "value" : 0.0,
                                            "duration" : 270480000
                                          }
                                        ]
                                      },
                                      "scale0" : {
                                        "type" : "double",
                                        "defaultValue" : 1.0,
                                        "keyframes" : [
                                          {
                                            "endTime" : 270480000,
                                            "time" : 0,
                                            "value" : 1.0,
                                            "duration" : 270480000
                                          }
                                        ]
                                      },
                                      "scale1" : {
                                        "type" : "double",
                                        "defaultValue" : 0.125,
                                        "keyframes" : [
                                          {
                                            "endTime" : 270480000,
                                            "time" : 0,
                                            "value" : 0.5,
                                            "duration" : 270480000
                                          },
                                          {
                                            "endTime" : 552720000,
                                            "time" : 282240000,
                                            "value" : 0.125,
                                            "duration" : 270480000
                                          }
                                        ]
                                      },
                                      "sourceCrop0" : 0.0,
                                      "sourceCrop1" : 0.0,
                                      "sourceCrop2" : 0.0,
                                      "sourceCrop3" : 0.0,
                                      "geometryCrop0" : 0.0,
                                      "geometryCrop1" : 0.0,
                                      "geometryCrop2" : 0.0,
                                      "geometryCrop3" : 0.0
                                    },
                                    "effects" : [

                                    ],
                                    "start" : 0,
                                    "duration" : 3528000000,
                                    "mediaStart" : 0,
                                    "mediaDuration" : 3528000000,
                                    "scalar" : 1,
                                    "metadata" : {
                                      "AppliedThemeId" : "",
                                      "clipSpeedAttribute" : false,
                                      "effectApplied" : "none"
                                    },
                                    "animationTracks" : {
                                      "visual" : [
                                        {
                                          "endTime" : 270480000,
                                          "duration" : 270480000,
                                          "range" : [ 0, 270480000]
                                        },
                                        {
                                          "endTime" : 552720000,
                                          "duration" : 270480000,
                                          "range" : [ 282240000, 270480000]
                                        }
                                      ]
                                    }
                                  }
                                ],
                                  "ident" : "",
                                  "audioMuted" : false,
                                  "videoHidden" : false,
                                  "magnetic" : false,
                                  "matte" : 1,
                                  "solo" : false,
                                  "metadata" : {
                                    "IsLocked" : "False",
                                    "WinTrackHeight" : "56",
                                    "trackHeight" : "54"
                                  }
                              }
                            ],
                            "attributes" : {
                              "ident" : "Animated-Pulse-1400x20-To-1400x80",
                              "widthAttr" : 1405.0,
                              "heightAttr" : 167.002,
                              "gain" : 1.0,
                              "mixToMono" : false,
                              "assetProperties" : [
                                {
                                  "type" : 1,
                                  "name" : "Color",
                                  "objects" : [ 624 ],
                                  "themeMappings" :  {
                                    "fill" : "accent-1"
                                  }
                                }
                              ]
                            },
                            "effects" : [

                            ],
                            "start" : 0,
                            "duration" : 3528000000,
                            "mediaStart" : 0.0,
                            "mediaDuration" : 3528000000.0,
                            "scalar" : 1,
                            "metadata" : {
                              "AppliedThemeId" : "8e797988-b823-4beb-b251-1d31b461ba07",
                              "clipSpeedAttribute" : false,
                              "effectApplied" : "none",
                              "isOpen" : false,
                              "lockAspectRatio" : true
                            },
                            "animationTracks" : {
                              "visual" : [
                                {
                                  "endTime" : 552720000,
                                  "duration" : 552720000,
                                  "range" : [ 0, 552720000],
                                  "interp" : "eioe"
                                },
                                {
                                  "endTime" : 1775760000,
                                  "duration" : 399840000,
                                  "range" : [ 1375920000, 399840000],
                                  "interp" : "eioe"
                                }
                              ]
                            }
                          }
                        ],
                          "ident" : "",
                          "audioMuted" : false,
                          "videoHidden" : false,
                          "magnetic" : false,
                          "matte" : 0,
                          "solo" : false,
                          "metadata" : {
                            "IsLocked" : "False",
                            "WinTrackHeight" : "56",
                            "trackHeight" : "54"
                          }
                      },
                      {
                        "trackIndex" : 3,
                        "medias" : [
                          {
                            "id" : 626,
                            "_type" : "Group",
                            "parameters" : {
                              "translation0" : {
                                "type" : "double",
                                "defaultValue" : 0.0,
                                "keyframes" : [
                                  {
                                    "endTime" : 552720000,
                                    "time" : 0,
                                    "value" : 0.0,
                                    "interp" : "eioe",
                                    "duration" : 552720000
                                  },
                                  {
                                    "endTime" : 1775760000,
                                    "time" : 1375920000,
                                    "value" : 0.0,
                                    "interp" : "eioe",
                                    "duration" : 399840000
                                  }
                                ]
                              },
                              "translation1" : {
                                "type" : "double",
                                "defaultValue" : -143.610046386719,
                                "keyframes" : [
                                  {
                                    "endTime" : 552720000,
                                    "time" : 0,
                                    "value" : 0.0,
                                    "interp" : "eioe",
                                    "duration" : 552720000
                                  },
                                  {
                                    "endTime" : 1775760000,
                                    "time" : 1375920000,
                                    "value" : -143.610046386719,
                                    "interp" : "eioe",
                                    "duration" : 399840000
                                  }
                                ]
                              },
                              "sourceCrop0" : 0.0,
                              "sourceCrop1" : 0.0,
                              "sourceCrop2" : 0.0,
                              "sourceCrop3" : 0.0,
                              "geometryCrop0" : 0.0,
                              "geometryCrop1" : 0.0,
                              "geometryCrop2" : 0.0,
                              "geometryCrop3" : 0.0,
                              "opacity" : {
                                "type" : "double",
                                "defaultValue" : 1.0,
                                "keyframes" : [
                                  {
                                    "endTime" : 552720000,
                                    "time" : 0,
                                    "value" : 1.0,
                                    "interp" : "eioe",
                                    "duration" : 552720000
                                  }
                                ]
                              },
                              "volume" : 1.0
                            },
                            "tracks" : [
                              {
                                "trackIndex" : 0,
                                "medias" : [
                                  {
                                    "id" : 627,
                                    "_type" : "Callout",
                                    "def" : {
                                      "kind" : "remix",
                                      "shape" : "shape-rectangle",
                                      "style" : "bold",
                                      "fill-color-blue" : 0.913725490196078,
                                      "fill-color-green" : 0.949019607843137,
                                      "fill-color-opacity" : 1.0,
                                      "fill-color-red" : 0.933333333333333,
                                      "hasDropShadow" : 0.0,
                                      "height" : 163.002035140991,
                                      "savedXScale" : 1.0,
                                      "savedYScale" : 1.0,
                                      "stroke-color-blue" : 1.0,
                                      "stroke-color-green" : 1.0,
                                      "stroke-color-opacity" : 1.0,
                                      "stroke-color-red" : 1.0,
                                      "stroke-width" : 0.0,
                                      "width" : 1403.00212860107,
                                      "custom" : "Y",
                                      "fill-style" : "solid",
                                      "stroke-style" : "solid"
                                    },
                                    "attributes" : {
                                      "ident" : "",
                                      "autoRotateText" : true
                                    },
                                    "parameters" : {
                                      "anchor0" : -1.0,
                                      "anchor1" : 2.0,
                                      "sourceCrop0" : 0.0,
                                      "sourceCrop1" : 0.0,
                                      "sourceCrop2" : 0.0,
                                      "sourceCrop3" : 0.0,
                                      "geometryCrop0" : 0.0,
                                      "geometryCrop1" : 0.0,
                                      "geometryCrop2" : 0.0,
                                      "geometryCrop3" : 0.0
                                    },
                                    "effects" : [

                                    ],
                                    "start" : 0,
                                    "duration" : 3528000000,
                                    "mediaStart" : 0,
                                    "mediaDuration" : 3528000000,
                                    "scalar" : 1,
                                    "metadata" : {
                                      "AppliedThemeId" : "",
                                      "clipSpeedAttribute" : false,
                                      "effectApplied" : "none",
                                      "lockAspectRatio" : false
                                    },
                                    "animationTracks" : {

                                    }
                                  }
                                ],
                                  "ident" : "",
                                  "audioMuted" : false,
                                  "videoHidden" : false,
                                  "magnetic" : false,
                                  "matte" : 0,
                                  "solo" : false,
                                  "metadata" : {
                                    "IsLocked" : "False",
                                    "WinTrackHeight" : "56",
                                    "trackHeight" : "54"
                                  }
                              },
                              {
                                "trackIndex" : 1,
                                "medias" : [
                                  {
                                    "id" : 628,
                                    "_type" : "Callout",
                                    "def" : {
                                      "kind" : "remix",
                                      "shape" : "shape-rectangle",
                                      "style" : "bold",
                                      "fill-color-blue" : 0.756862759590149,
                                      "fill-color-green" : 0.18823529779911,
                                      "fill-color-opacity" : 1.0,
                                      "fill-color-red" : 0.960784316062927,
                                      "hasDropShadow" : 0.0,
                                      "height" : 160.0,
                                      "savedXScale" : 1.0,
                                      "savedYScale" : 1.0,
                                      "stroke-color-blue" : 0.886274516582489,
                                      "stroke-color-green" : 0.200000002980232,
                                      "stroke-color-opacity" : 0.0,
                                      "stroke-color-red" : 0.376470595598221,
                                      "stroke-width" : 0.0,
                                      "width" : 1400.0,
                                      "custom" : "Y",
                                      "fill-style" : "solid",
                                      "stroke-style" : "solid"
                                    },
                                    "attributes" : {
                                      "ident" : "",
                                      "autoRotateText" : true
                                    },
                                    "parameters" : {
                                      "sourceCrop0" : 0.0,
                                      "sourceCrop1" : 0.0,
                                      "sourceCrop2" : 0.0,
                                      "sourceCrop3" : 0.0,
                                      "geometryCrop0" : 0.0,
                                      "geometryCrop1" : 0.0,
                                      "geometryCrop2" : 0.0,
                                      "geometryCrop3" : 0.0
                                    },
                                    "effects" : [

                                    ],
                                    "start" : 0,
                                    "duration" : 3528000000,
                                    "mediaStart" : 0,
                                    "mediaDuration" : 3528000000,
                                    "scalar" : 1,
                                    "metadata" : {
                                      "AppliedThemeId" : "",
                                      "clipSpeedAttribute" : false,
                                      "effectApplied" : "none"
                                    },
                                    "animationTracks" : {

                                    }
                                  }
                                ],
                                  "ident" : "",
                                  "audioMuted" : false,
                                  "videoHidden" : false,
                                  "magnetic" : false,
                                  "matte" : 1,
                                  "solo" : false,
                                  "metadata" : {
                                    "IsLocked" : "False",
                                    "WinTrackHeight" : "56",
                                    "trackHeight" : "54"
                                  }
                              }
                            ],
                            "attributes" : {
                              "ident" : "Rect-1400x1600-Mask",
                              "widthAttr" : 1405.0,
                              "heightAttr" : 167.002,
                              "gain" : 1.0,
                              "mixToMono" : false
                            },
                            "effects" : [

                            ],
                            "start" : 0,
                            "duration" : 3528000000,
                            "mediaStart" : 0.0,
                            "mediaDuration" : 3528000000.0,
                            "scalar" : 1,
                            "metadata" : {
                              "clipSpeedAttribute" : false,
                              "effectApplied" : "none",
                              "isOpen" : false,
                              "lockAspectRatio" : true
                            },
                            "animationTracks" : {
                              "visual" : [
                                {
                                  "endTime" : 552720000,
                                  "duration" : 552720000,
                                  "range" : [ 0, 552720000],
                                  "interp" : "eioe"
                                },
                                {
                                  "endTime" : 1775760000,
                                  "duration" : 399840000,
                                  "range" : [ 1375920000, 399840000],
                                  "interp" : "eioe"
                                }
                              ]
                            }
                          }
                        ],
                          "ident" : "",
                          "audioMuted" : false,
                          "videoHidden" : false,
                          "magnetic" : false,
                          "matte" : 1,
                          "solo" : false,
                          "metadata" : {
                            "IsLocked" : "False",
                            "WinTrackHeight" : "56",
                            "trackHeight" : "54"
                          }
                      }
                    ],
                    "attributes" : {
                      "ident" : "Broadcast-Title-012",
                      "widthAttr" : 1405.0,
                      "heightAttr" : 160.0,
                      "gain" : 1.0,
                      "mixToMono" : false,
                      "assetProperties" : [
                        {
                          "type" : 0,
                          "name" : "Title",
                          "objects" : [ 619 ],
                          "themeMappings" :  {
                            "font-color" : "foreground-1"
                          }
                        },
                        {
                          "type" : 1,
                          "name" : "Fill",
                          "objects" : [ 617 ],
                          "themeMappings" :  {
                            "fill" : "background-1"
                          }
                        },
                        {
                          "type" : 1,
                          "name" : "Wiper",
                          "objects" : [ 624 ],
                          "themeMappings" :  {
                            "fill" : "foreground-1"
                          }
                        }
                      ]
                    },
                    "effects" : [

                    ],
                    "start" : 1928640000,
                    "duration" : 1764000000,
                    "mediaStart" : 0.0,
                    "mediaDuration" : 1764000000.0,
                    "scalar" : 1,
                    "metadata" : {
                      "AppliedThemeId" : "170ba59c-db5d-4b9a-a310-e7e99853a4b7",
                      "clipSpeedAttribute" : false,
                      "default-anchor0" : 0.0,
                      "default-anchor1" : 0.0,
                      "default-anchor2" : 0.0,
                      "default-geometryCrop0" : 0.0,
                      "default-height" : 160.0,
                      "default-rotation0" : 0.0,
                      "default-rotation1" : 0.0,
                      "default-rotation2" : 0.0,
                      "default-scale0" : 1.0,
                      "default-scale1" : 1.0,
                      "default-scale2" : 1.0,
                      "default-shear0" : 0.0,
                      "default-shear1" : 0.0,
                      "default-shear2" : 0.0,
                      "default-translation0" : 0.0,
                      "default-translation1" : 0.0,
                      "default-translation2" : 0.0,
                      "default-width" : 1405.0,
                      "effectApplied" : "none",
                      "isOpen" : false,
                      "lockAspectRatio" : true
                    },
                    "animationTracks" : {

                    }
                  }
                ]
              },
              {
                "trackIndex" : 128,
                "medias" : [
                  {
                    "id" : 629,
                    "_type" : "Group",
                    "parameters" : {
                      "translation0" : 350.0,
                      "translation1" : 151.035294117647,
                      "scale0" : 0.213523131672598,
                      "scale1" : 0.21875,
                      "sourceCrop0" : 0.0,
                      "sourceCrop1" : 0.0,
                      "sourceCrop2" : 0.0,
                      "sourceCrop3" : 0.0,
                      "geometryCrop0" : 0.0,
                      "geometryCrop1" : 0.0,
                      "geometryCrop2" : 0.0,
                      "geometryCrop3" : 0.0,
                      "volume" : 1.0
                    },
                    "tracks" : [
                      {
                        "trackIndex" : 0,
                        "medias" : [
                          {
                            "id" : 630,
                            "_type" : "Group",
                            "parameters" : {
                              "translation0" : {
                                "type" : "double",
                                "defaultValue" : 0.0,
                                "keyframes" : [
                                  {
                                    "endTime" : 552720000,
                                    "time" : 0,
                                    "value" : 0.0,
                                    "interp" : "eioe",
                                    "duration" : 552720000
                                  },
                                  {
                                    "endTime" : 1775760000,
                                    "time" : 1375920000,
                                    "value" : 0.0,
                                    "interp" : "eioe",
                                    "duration" : 399840000
                                  }
                                ]
                              },
                              "translation1" : {
                                "type" : "double",
                                "defaultValue" : -305.610046386719,
                                "keyframes" : [
                                  {
                                    "endTime" : 552720000,
                                    "time" : 0,
                                    "value" : 0.0,
                                    "interp" : "eioe",
                                    "duration" : 552720000
                                  },
                                  {
                                    "endTime" : 1775760000,
                                    "time" : 1375920000,
                                    "value" : -304.610046386719,
                                    "interp" : "eioe",
                                    "duration" : 399840000
                                  }
                                ]
                              },
                              "sourceCrop0" : 0.0,
                              "sourceCrop1" : 0.0,
                              "sourceCrop2" : 0.0,
                              "sourceCrop3" : 0.0,
                              "geometryCrop0" : 0.0,
                              "geometryCrop1" : 0.0,
                              "geometryCrop2" : 0.0,
                              "geometryCrop3" : 0.0,
                              "volume" : 1.0
                            },
                            "tracks" : [
                              {
                                "trackIndex" : 0,
                                "medias" : [
                                  {
                                    "id" : 631,
                                    "_type" : "Group",
                                    "parameters" : {
                                      "sourceCrop0" : 0.0,
                                      "sourceCrop1" : 0.0,
                                      "sourceCrop2" : 0.0,
                                      "sourceCrop3" : 0.0,
                                      "geometryCrop0" : 0.0,
                                      "geometryCrop1" : 0.0,
                                      "geometryCrop2" : 0.0,
                                      "geometryCrop3" : 0.0,
                                      "volume" : 1.0
                                    },
                                    "tracks" : [
                                      {
                                        "trackIndex" : 0,
                                        "medias" : [
                                          {
                                            "id" : 632,
                                            "_type" : "Callout",
                                            "def" : {
                                              "kind" : "remix",
                                              "shape" : "shape-rectangle",
                                              "style" : "bold",
                                              "fill-color-blue" : 1.0,
                                              "fill-color-green" : 1.0,
                                              "fill-color-opacity" : 1.0,
                                              "fill-color-red" : 1.0,
                                              "hasDropShadow" : 0.0,
                                              "height" : 163.002035140991,
                                              "savedXScale" : 1.0,
                                              "savedYScale" : 1.0,
                                              "stroke-color-blue" : 1.0,
                                              "stroke-color-green" : 1.0,
                                              "stroke-color-opacity" : 1.0,
                                              "stroke-color-red" : 1.0,
                                              "stroke-width" : 0.0,
                                              "width" : 1403.00212860107,
                                              "custom" : "Y",
                                              "fill-style" : "solid",
                                              "stroke-style" : "solid"
                                            },
                                            "attributes" : {
                                              "ident" : "",
                                              "autoRotateText" : true
                                            },
                                            "parameters" : {
                                              "anchor0" : -1.0,
                                              "anchor1" : 2.0,
                                              "sourceCrop0" : 0.0,
                                              "sourceCrop1" : 0.0,
                                              "sourceCrop2" : 0.0,
                                              "sourceCrop3" : 0.0,
                                              "geometryCrop0" : 0.0,
                                              "geometryCrop1" : 0.0,
                                              "geometryCrop2" : 0.0,
                                              "geometryCrop3" : 0.0
                                            },
                                            "effects" : [

                                            ],
                                            "start" : 0,
                                            "duration" : 3528000000,
                                            "mediaStart" : 0,
                                            "mediaDuration" : 3528000000,
                                            "scalar" : 1,
                                            "metadata" : {
                                              "AppliedThemeId" : "",
                                              "clipSpeedAttribute" : false,
                                              "effectApplied" : "none",
                                              "lockAspectRatio" : false
                                            },
                                            "animationTracks" : {

                                            }
                                          }
                                        ],
                                          "ident" : "",
                                          "audioMuted" : false,
                                          "videoHidden" : false,
                                          "magnetic" : false,
                                          "matte" : 0,
                                          "solo" : false,
                                          "metadata" : {
                                            "IsLocked" : "False",
                                            "WinTrackHeight" : "56",
                                            "trackHeight" : "54"
                                          }
                                      },
                                      {
                                        "trackIndex" : 1,
                                        "medias" : [
                                          {
                                            "id" : 633,
                                            "_type" : "Callout",
                                            "def" : {
                                              "kind" : "remix",
                                              "shape" : "shape-rectangle",
                                              "style" : "bold",
                                              "fill-color-blue" : 0.756862759590149,
                                              "fill-color-green" : 0.18823529779911,
                                              "fill-color-opacity" : 1.0,
                                              "fill-color-red" : 0.960784316062927,
                                              "hasDropShadow" : 0.0,
                                              "height" : 160.0,
                                              "savedXScale" : 1.0,
                                              "savedYScale" : 1.0,
                                              "stroke-color-blue" : 0.886274516582489,
                                              "stroke-color-green" : 0.200000002980232,
                                              "stroke-color-opacity" : 0.0,
                                              "stroke-color-red" : 0.376470595598221,
                                              "stroke-width" : 0.0,
                                              "width" : 1400.0,
                                              "custom" : "Y",
                                              "fill-style" : "solid",
                                              "stroke-style" : "solid"
                                            },
                                            "attributes" : {
                                              "ident" : "",
                                              "autoRotateText" : true
                                            },
                                            "parameters" : {
                                              "sourceCrop0" : 0.0,
                                              "sourceCrop1" : 0.0,
                                              "sourceCrop2" : 0.0,
                                              "sourceCrop3" : 0.0,
                                              "geometryCrop0" : 0.0,
                                              "geometryCrop1" : 0.0,
                                              "geometryCrop2" : 0.0,
                                              "geometryCrop3" : 0.0
                                            },
                                            "effects" : [

                                            ],
                                            "start" : 0,
                                            "duration" : 3528000000,
                                            "mediaStart" : 0,
                                            "mediaDuration" : 3528000000,
                                            "scalar" : 1,
                                            "metadata" : {
                                              "AppliedThemeId" : "",
                                              "clipSpeedAttribute" : false,
                                              "effectApplied" : "none"
                                            },
                                            "animationTracks" : {

                                            }
                                          }
                                        ],
                                          "ident" : "",
                                          "audioMuted" : false,
                                          "videoHidden" : false,
                                          "magnetic" : false,
                                          "matte" : 1,
                                          "solo" : false,
                                          "metadata" : {
                                            "IsLocked" : "False",
                                            "WinTrackHeight" : "56",
                                            "trackHeight" : "54"
                                          }
                                      }
                                    ],
                                    "attributes" : {
                                      "ident" : "Fill-1400x160",
                                      "widthAttr" : 1405.0,
                                      "heightAttr" : 167.002,
                                      "gain" : 1.0,
                                      "mixToMono" : false
                                    },
                                    "effects" : [

                                    ],
                                    "start" : 0,
                                    "duration" : 3528000000,
                                    "mediaStart" : 0.0,
                                    "mediaDuration" : 3528000000.0,
                                    "scalar" : 1,
                                    "metadata" : {
                                      "clipSpeedAttribute" : false,
                                      "effectApplied" : "none",
                                      "isOpen" : false,
                                      "lockAspectRatio" : true
                                    },
                                    "animationTracks" : {

                                    }
                                  }
                                ],
                                  "ident" : "",
                                  "audioMuted" : false,
                                  "videoHidden" : false,
                                  "magnetic" : false,
                                  "matte" : 0,
                                  "solo" : false,
                                  "metadata" : {
                                    "IsLocked" : "False",
                                    "WinTrackHeight" : "56",
                                    "trackHeight" : "54"
                                  }
                              },
                              {
                                "trackIndex" : 1,
                                "medias" : [
                                  {
                                    "id" : 634,
                                    "_type" : "Callout",
                                    "def" : {
                                      "kind" : "remix",
                                      "shape" : "text",
                                      "style" : "urban",
                                      "enable-ligatures" : 1.0,
                                      "hasDropShadow" : 0.0,
                                      "height" : 170.0,
                                      "line-spacing" : 0.0,
                                      "savedXScale" : 1.0,
                                      "savedYScale" : 1.0,
                                      "width" : 1400.0,
                                      "word-wrap" : 1.0,
                                      "custom" : "Y",
                                      "horizontal-alignment" : "left",
                                      "resize-behavior" : "resizeText",
                                      "text" : "extend selection to bottom",
                                      "vertical-alignment" : "center",
                                      "font" : {
                                        "color-blue" : 1.0,
                                        "color-green" : 1.0,
                                        "color-red" : 1.0,
                                        "size" : 96.0,
                                        "tracking" : 0.0,
                                        "name" : "Dosis",
                                        "weight" : "Semi Bold"
                                      },
                                      "textAttributes" : {
                                        "type" : "textAttributeList",
                                        "keyframes" : [
                                          {
                                            "endTime" : 0,
                                            "time" : 0,
                                            "value" : [{"name":"underline","rangeEnd":26,"rangeStart":0,"value":0,"valueType":"int"},{"name":"strikethrough","rangeEnd":26,"rangeStart":0,"value":0,"valueType":"int"},{"name":"fontName","rangeEnd":26,"rangeStart":0,"value":"Roboto","valueType":"string"},{"name":"kerning","rangeEnd":26,"rangeStart":0,"value":0.049883078231292483,"valueType":"double"},{"name":"fontItalic","rangeEnd":26,"rangeStart":0,"value":0,"valueType":"int"},{"name":"fontWeight","rangeEnd":26,"rangeStart":0,"value":700,"valueType":"int"},{"name":"fontSize","rangeEnd":26,"rangeStart":0,"value":86,"valueType":"double"},{"name":"fgColor","rangeEnd":26,"rangeStart":0,"value":"(110,110,110,255)","valueType":"color"}],
                                            "duration" : 0
                                          }
                                        ]
                                      }
                                    },
                                    "attributes" : {
                                      "ident" : "",
                                      "autoRotateText" : true
                                    },
                                    "parameters" : {
                                      "translation1" : -2.0,
                                      "sourceCrop0" : 0.0,
                                      "sourceCrop1" : 0.0,
                                      "sourceCrop2" : 0.0,
                                      "sourceCrop3" : 0.0,
                                      "geometryCrop0" : 0.0,
                                      "geometryCrop1" : 0.0,
                                      "geometryCrop2" : 0.0,
                                      "geometryCrop3" : 0.0
                                    },
                                    "effects" : [

                                    ],
                                    "start" : 0,
                                    "duration" : 3528000000,
                                    "mediaStart" : 0,
                                    "mediaDuration" : 3528000000,
                                    "scalar" : 1,
                                    "metadata" : {
                                      "AppliedThemeId" : "",
                                      "clipSpeedAttribute" : false,
                                      "effectApplied" : "none",
                                      "lockAspectRatio" : false
                                    },
                                    "animationTracks" : {

                                    }
                                  }
                                ],
                                  "ident" : "",
                                  "audioMuted" : false,
                                  "videoHidden" : false,
                                  "magnetic" : false,
                                  "matte" : 0,
                                  "solo" : false,
                                  "metadata" : {
                                    "IsLocked" : "False",
                                    "WinTrackHeight" : "56",
                                    "trackHeight" : "54"
                                  }
                              }
                            ],
                            "attributes" : {
                              "ident" : "BP-Title-11",
                              "widthAttr" : 1405.0,
                              "heightAttr" : 167.002,
                              "gain" : 1.0,
                              "mixToMono" : false,
                              "assetProperties" : [
                                {
                                  "type" : 0,
                                  "name" : "Title",
                                  "objects" : [ 634 ],
                                  "themeMappings" :  {
                                    "font-color" : "foreground-1"
                                  }
                                },
                                {
                                  "type" : 1,
                                  "name" : "Fill",
                                  "objects" : [ 632 ],
                                  "themeMappings" :  {
                                    "fill" : "background-1"
                                  }
                                }
                              ]
                            },
                            "effects" : [

                            ],
                            "start" : 0,
                            "duration" : 3528000000,
                            "mediaStart" : 0.0,
                            "mediaDuration" : 3528000000.0,
                            "scalar" : 1,
                            "metadata" : {
                              "clipSpeedAttribute" : false,
                              "effectApplied" : "none",
                              "isOpen" : false,
                              "lockAspectRatio" : true
                            },
                            "animationTracks" : {
                              "visual" : [
                                {
                                  "endTime" : 552720000,
                                  "duration" : 552720000,
                                  "range" : [ 0, 552720000],
                                  "interp" : "eioe"
                                },
                                {
                                  "endTime" : 1775760000,
                                  "duration" : 399840000,
                                  "range" : [ 1375920000, 399840000],
                                  "interp" : "eioe"
                                }
                              ]
                            }
                          }
                        ],
                          "ident" : "",
                          "audioMuted" : false,
                          "videoHidden" : false,
                          "magnetic" : false,
                          "matte" : 0,
                          "solo" : false,
                          "metadata" : {
                            "IsLocked" : "False",
                            "WinTrackHeight" : "56",
                            "trackHeight" : "54"
                          }
                      },
                      {
                        "trackIndex" : 1,
                        "medias" : [
                          {
                            "id" : 635,
                            "_type" : "Group",
                            "parameters" : {
                              "translation0" : {
                                "type" : "double",
                                "defaultValue" : 0.0,
                                "keyframes" : [
                                  {
                                    "endTime" : 552720000,
                                    "time" : 0,
                                    "value" : 0.0,
                                    "interp" : "eioe",
                                    "duration" : 552720000
                                  },
                                  {
                                    "endTime" : 1775760000,
                                    "time" : 1375920000,
                                    "value" : 0.0,
                                    "interp" : "eioe",
                                    "duration" : 399840000
                                  }
                                ]
                              },
                              "translation1" : {
                                "type" : "double",
                                "defaultValue" : -144.610046386719,
                                "keyframes" : [
                                  {
                                    "endTime" : 552720000,
                                    "time" : 0,
                                    "value" : 0.0,
                                    "interp" : "eioe",
                                    "duration" : 552720000
                                  },
                                  {
                                    "endTime" : 1775760000,
                                    "time" : 1375920000,
                                    "value" : -144.610046386719,
                                    "interp" : "eioe",
                                    "duration" : 399840000
                                  }
                                ]
                              },
                              "sourceCrop0" : 0.0,
                              "sourceCrop1" : 0.0,
                              "sourceCrop2" : 0.0,
                              "sourceCrop3" : 0.0,
                              "geometryCrop0" : 0.0,
                              "geometryCrop1" : 0.0,
                              "geometryCrop2" : 0.0,
                              "geometryCrop3" : 0.0,
                              "opacity" : {
                                "type" : "double",
                                "defaultValue" : 1.0,
                                "keyframes" : [
                                  {
                                    "endTime" : 552720000,
                                    "time" : 0,
                                    "value" : 1.0,
                                    "interp" : "eioe",
                                    "duration" : 552720000
                                  }
                                ]
                              },
                              "volume" : 1.0
                            },
                            "tracks" : [
                              {
                                "trackIndex" : 0,
                                "medias" : [
                                  {
                                    "id" : 636,
                                    "_type" : "Callout",
                                    "def" : {
                                      "kind" : "remix",
                                      "shape" : "shape-rectangle",
                                      "style" : "bold",
                                      "fill-color-blue" : 0.913725490196078,
                                      "fill-color-green" : 0.949019607843137,
                                      "fill-color-opacity" : 1.0,
                                      "fill-color-red" : 0.933333333333333,
                                      "hasDropShadow" : 0.0,
                                      "height" : 163.002035140991,
                                      "savedXScale" : 1.0,
                                      "savedYScale" : 1.0,
                                      "stroke-color-blue" : 1.0,
                                      "stroke-color-green" : 1.0,
                                      "stroke-color-opacity" : 1.0,
                                      "stroke-color-red" : 1.0,
                                      "stroke-width" : 0.0,
                                      "width" : 1403.00212860107,
                                      "custom" : "Y",
                                      "fill-style" : "solid",
                                      "stroke-style" : "solid"
                                    },
                                    "attributes" : {
                                      "ident" : "",
                                      "autoRotateText" : true
                                    },
                                    "parameters" : {
                                      "anchor0" : -1.0,
                                      "anchor1" : 2.0,
                                      "sourceCrop0" : 0.0,
                                      "sourceCrop1" : 0.0,
                                      "sourceCrop2" : 0.0,
                                      "sourceCrop3" : 0.0,
                                      "geometryCrop0" : 0.0,
                                      "geometryCrop1" : 0.0,
                                      "geometryCrop2" : 0.0,
                                      "geometryCrop3" : 0.0
                                    },
                                    "effects" : [

                                    ],
                                    "start" : 0,
                                    "duration" : 3528000000,
                                    "mediaStart" : 0,
                                    "mediaDuration" : 3528000000,
                                    "scalar" : 1,
                                    "metadata" : {
                                      "AppliedThemeId" : "",
                                      "clipSpeedAttribute" : false,
                                      "effectApplied" : "none",
                                      "lockAspectRatio" : false
                                    },
                                    "animationTracks" : {

                                    }
                                  }
                                ],
                                  "ident" : "",
                                  "audioMuted" : false,
                                  "videoHidden" : false,
                                  "magnetic" : false,
                                  "matte" : 0,
                                  "solo" : false,
                                  "metadata" : {
                                    "IsLocked" : "False",
                                    "WinTrackHeight" : "56",
                                    "trackHeight" : "54"
                                  }
                              },
                              {
                                "trackIndex" : 1,
                                "medias" : [
                                  {
                                    "id" : 637,
                                    "_type" : "Callout",
                                    "def" : {
                                      "kind" : "remix",
                                      "shape" : "shape-rectangle",
                                      "style" : "bold",
                                      "fill-color-blue" : 0.756862759590149,
                                      "fill-color-green" : 0.18823529779911,
                                      "fill-color-opacity" : 1.0,
                                      "fill-color-red" : 0.960784316062927,
                                      "hasDropShadow" : 0.0,
                                      "height" : 160.0,
                                      "savedXScale" : 1.0,
                                      "savedYScale" : 1.0,
                                      "stroke-color-blue" : 0.886274516582489,
                                      "stroke-color-green" : 0.200000002980232,
                                      "stroke-color-opacity" : 0.0,
                                      "stroke-color-red" : 0.376470595598221,
                                      "stroke-width" : 0.0,
                                      "width" : 1400.0,
                                      "custom" : "Y",
                                      "fill-style" : "solid",
                                      "stroke-style" : "solid"
                                    },
                                    "attributes" : {
                                      "ident" : "",
                                      "autoRotateText" : true
                                    },
                                    "parameters" : {
                                      "sourceCrop0" : 0.0,
                                      "sourceCrop1" : 0.0,
                                      "sourceCrop2" : 0.0,
                                      "sourceCrop3" : 0.0,
                                      "geometryCrop0" : 0.0,
                                      "geometryCrop1" : 0.0,
                                      "geometryCrop2" : 0.0,
                                      "geometryCrop3" : 0.0
                                    },
                                    "effects" : [

                                    ],
                                    "start" : 0,
                                    "duration" : 3528000000,
                                    "mediaStart" : 0,
                                    "mediaDuration" : 3528000000,
                                    "scalar" : 1,
                                    "metadata" : {
                                      "AppliedThemeId" : "",
                                      "clipSpeedAttribute" : false,
                                      "effectApplied" : "none"
                                    },
                                    "animationTracks" : {

                                    }
                                  }
                                ],
                                  "ident" : "",
                                  "audioMuted" : false,
                                  "videoHidden" : false,
                                  "magnetic" : false,
                                  "matte" : 1,
                                  "solo" : false,
                                  "metadata" : {
                                    "IsLocked" : "False",
                                    "WinTrackHeight" : "56",
                                    "trackHeight" : "54"
                                  }
                              }
                            ],
                            "attributes" : {
                              "ident" : "Rect-1400x1600-Mask",
                              "widthAttr" : 1405.0,
                              "heightAttr" : 167.002,
                              "gain" : 1.0,
                              "mixToMono" : false
                            },
                            "effects" : [

                            ],
                            "start" : 0,
                            "duration" : 3528000000,
                            "mediaStart" : 0.0,
                            "mediaDuration" : 3528000000.0,
                            "scalar" : 1,
                            "metadata" : {
                              "clipSpeedAttribute" : false,
                              "effectApplied" : "none",
                              "isOpen" : false,
                              "lockAspectRatio" : true
                            },
                            "animationTracks" : {
                              "visual" : [
                                {
                                  "endTime" : 552720000,
                                  "duration" : 552720000,
                                  "range" : [ 0, 552720000],
                                  "interp" : "eioe"
                                },
                                {
                                  "endTime" : 1775760000,
                                  "duration" : 399840000,
                                  "range" : [ 1375920000, 399840000],
                                  "interp" : "eioe"
                                }
                              ]
                            }
                          }
                        ],
                          "ident" : "",
                          "audioMuted" : false,
                          "videoHidden" : false,
                          "magnetic" : false,
                          "matte" : 1,
                          "solo" : false,
                          "metadata" : {
                            "IsLocked" : "False",
                            "WinTrackHeight" : "56",
                            "trackHeight" : "54"
                          }
                      },
                      {
                        "trackIndex" : 2,
                        "medias" : [
                          {
                            "id" : 638,
                            "_type" : "Group",
                            "parameters" : {
                              "translation0" : {
                                "type" : "double",
                                "defaultValue" : 0.0,
                                "keyframes" : [
                                  {
                                    "endTime" : 552720000,
                                    "time" : 0,
                                    "value" : 0.0,
                                    "interp" : "eioe",
                                    "duration" : 552720000
                                  },
                                  {
                                    "endTime" : 1775760000,
                                    "time" : 1375920000,
                                    "value" : 0.0,
                                    "interp" : "eioe",
                                    "duration" : 399840000
                                  }
                                ]
                              },
                              "translation1" : {
                                "type" : "double",
                                "defaultValue" : -233.610046386719,
                                "keyframes" : [
                                  {
                                    "endTime" : 552720000,
                                    "time" : 0,
                                    "value" : 90.0,
                                    "interp" : "eioe",
                                    "duration" : 552720000
                                  },
                                  {
                                    "endTime" : 1775760000,
                                    "time" : 1375920000,
                                    "value" : -233.610046386719,
                                    "interp" : "eioe",
                                    "duration" : 399840000
                                  }
                                ]
                              },
                              "sourceCrop0" : 0.0,
                              "sourceCrop1" : 0.0,
                              "sourceCrop2" : 0.0,
                              "sourceCrop3" : 0.0,
                              "geometryCrop0" : 0.0,
                              "geometryCrop1" : 0.0,
                              "geometryCrop2" : 0.0,
                              "geometryCrop3" : 0.0,
                              "opacity" : {
                                "type" : "double",
                                "defaultValue" : 1.0,
                                "keyframes" : [
                                  {
                                    "endTime" : 552720000,
                                    "time" : 0,
                                    "value" : 1.0,
                                    "interp" : "eioe",
                                    "duration" : 552720000
                                  }
                                ]
                              },
                              "volume" : 1.0
                            },
                            "tracks" : [
                              {
                                "trackIndex" : 0,
                                "medias" : [
                                  {
                                    "id" : 639,
                                    "_type" : "Callout",
                                    "def" : {
                                      "kind" : "remix",
                                      "shape" : "shape-rectangle",
                                      "style" : "bold",
                                      "fill-color-blue" : 0.2196078431,
                                      "fill-color-green" : 0.8745098039,
                                      "fill-color-opacity" : 1.0,
                                      "fill-color-red" : 1.0,
                                      "hasDropShadow" : 0.0,
                                      "height" : 163.002035140991,
                                      "savedXScale" : 1.0,
                                      "savedYScale" : 1.0,
                                      "stroke-color-blue" : 1.0,
                                      "stroke-color-green" : 1.0,
                                      "stroke-color-opacity" : 1.0,
                                      "stroke-color-red" : 1.0,
                                      "stroke-width" : 0.0,
                                      "width" : 1403.00212860107,
                                      "custom" : "Y",
                                      "fill-style" : "solid",
                                      "stroke-style" : "solid"
                                    },
                                    "attributes" : {
                                      "ident" : "",
                                      "autoRotateText" : true
                                    },
                                    "parameters" : {
                                      "anchor0" : -1.0,
                                      "anchor1" : 2.0,
                                      "sourceCrop0" : 0.0,
                                      "sourceCrop1" : 0.0,
                                      "sourceCrop2" : 0.0,
                                      "sourceCrop3" : 0.0,
                                      "geometryCrop0" : 0.0,
                                      "geometryCrop1" : 0.0,
                                      "geometryCrop2" : 0.0,
                                      "geometryCrop3" : 0.0
                                    },
                                    "effects" : [

                                    ],
                                    "start" : 0,
                                    "duration" : 3528000000,
                                    "mediaStart" : 0,
                                    "mediaDuration" : 3528000000,
                                    "scalar" : 1,
                                    "metadata" : {
                                      "AppliedThemeId" : "",
                                      "clipSpeedAttribute" : false,
                                      "effectApplied" : "none",
                                      "lockAspectRatio" : false
                                    },
                                    "animationTracks" : {

                                    }
                                  }
                                ],
                                  "ident" : "",
                                  "audioMuted" : false,
                                  "videoHidden" : false,
                                  "magnetic" : false,
                                  "matte" : 0,
                                  "solo" : false,
                                  "metadata" : {
                                    "IsLocked" : "False",
                                    "WinTrackHeight" : "56",
                                    "trackHeight" : "54"
                                  }
                              },
                              {
                                "trackIndex" : 1,
                                "medias" : [
                                  {
                                    "id" : 640,
                                    "_type" : "Callout",
                                    "def" : {
                                      "kind" : "remix",
                                      "shape" : "shape-rectangle",
                                      "style" : "bold",
                                      "fill-color-blue" : 0.756862759590149,
                                      "fill-color-green" : 0.18823529779911,
                                      "fill-color-opacity" : 1.0,
                                      "fill-color-red" : 0.960784316062927,
                                      "hasDropShadow" : 0.0,
                                      "height" : 160.0,
                                      "savedXScale" : 1.0,
                                      "savedYScale" : 1.0,
                                      "stroke-color-blue" : 0.886274516582489,
                                      "stroke-color-green" : 0.200000002980232,
                                      "stroke-color-opacity" : 0.0,
                                      "stroke-color-red" : 0.376470595598221,
                                      "stroke-width" : 0.0,
                                      "width" : 1400.0,
                                      "custom" : "Y",
                                      "fill-style" : "solid",
                                      "stroke-style" : "solid"
                                    },
                                    "attributes" : {
                                      "ident" : "",
                                      "autoRotateText" : true
                                    },
                                    "parameters" : {
                                      "translation1" : {
                                        "type" : "double",
                                        "defaultValue" : -1.0,
                                        "keyframes" : [
                                          {
                                            "endTime" : 270480000,
                                            "time" : 0,
                                            "value" : 0.0,
                                            "duration" : 270480000
                                          }
                                        ]
                                      },
                                      "scale0" : {
                                        "type" : "double",
                                        "defaultValue" : 1.0,
                                        "keyframes" : [
                                          {
                                            "endTime" : 270480000,
                                            "time" : 0,
                                            "value" : 1.0,
                                            "duration" : 270480000
                                          }
                                        ]
                                      },
                                      "scale1" : {
                                        "type" : "double",
                                        "defaultValue" : 0.125,
                                        "keyframes" : [
                                          {
                                            "endTime" : 270480000,
                                            "time" : 0,
                                            "value" : 0.5,
                                            "duration" : 270480000
                                          },
                                          {
                                            "endTime" : 552720000,
                                            "time" : 282240000,
                                            "value" : 0.125,
                                            "duration" : 270480000
                                          }
                                        ]
                                      },
                                      "sourceCrop0" : 0.0,
                                      "sourceCrop1" : 0.0,
                                      "sourceCrop2" : 0.0,
                                      "sourceCrop3" : 0.0,
                                      "geometryCrop0" : 0.0,
                                      "geometryCrop1" : 0.0,
                                      "geometryCrop2" : 0.0,
                                      "geometryCrop3" : 0.0
                                    },
                                    "effects" : [

                                    ],
                                    "start" : 0,
                                    "duration" : 3528000000,
                                    "mediaStart" : 0,
                                    "mediaDuration" : 3528000000,
                                    "scalar" : 1,
                                    "metadata" : {
                                      "AppliedThemeId" : "",
                                      "clipSpeedAttribute" : false,
                                      "effectApplied" : "none"
                                    },
                                    "animationTracks" : {
                                      "visual" : [
                                        {
                                          "endTime" : 270480000,
                                          "duration" : 270480000,
                                          "range" : [ 0, 270480000]
                                        },
                                        {
                                          "endTime" : 552720000,
                                          "duration" : 270480000,
                                          "range" : [ 282240000, 270480000]
                                        }
                                      ]
                                    }
                                  }
                                ],
                                  "ident" : "",
                                  "audioMuted" : false,
                                  "videoHidden" : false,
                                  "magnetic" : false,
                                  "matte" : 1,
                                  "solo" : false,
                                  "metadata" : {
                                    "IsLocked" : "False",
                                    "WinTrackHeight" : "56",
                                    "trackHeight" : "54"
                                  }
                              }
                            ],
                            "attributes" : {
                              "ident" : "Animated-Pulse-1400x20-To-1400x80",
                              "widthAttr" : 1405.0,
                              "heightAttr" : 167.002,
                              "gain" : 1.0,
                              "mixToMono" : false,
                              "assetProperties" : [
                                {
                                  "type" : 1,
                                  "name" : "Color",
                                  "objects" : [ 639 ],
                                  "themeMappings" :  {
                                    "fill" : "accent-1"
                                  }
                                }
                              ]
                            },
                            "effects" : [

                            ],
                            "start" : 0,
                            "duration" : 3528000000,
                            "mediaStart" : 0.0,
                            "mediaDuration" : 3528000000.0,
                            "scalar" : 1,
                            "metadata" : {
                              "AppliedThemeId" : "8e797988-b823-4beb-b251-1d31b461ba07",
                              "clipSpeedAttribute" : false,
                              "effectApplied" : "none",
                              "isOpen" : false,
                              "lockAspectRatio" : true
                            },
                            "animationTracks" : {
                              "visual" : [
                                {
                                  "endTime" : 552720000,
                                  "duration" : 552720000,
                                  "range" : [ 0, 552720000],
                                  "interp" : "eioe"
                                },
                                {
                                  "endTime" : 1775760000,
                                  "duration" : 399840000,
                                  "range" : [ 1375920000, 399840000],
                                  "interp" : "eioe"
                                }
                              ]
                            }
                          }
                        ],
                          "ident" : "",
                          "audioMuted" : false,
                          "videoHidden" : false,
                          "magnetic" : false,
                          "matte" : 0,
                          "solo" : false,
                          "metadata" : {
                            "IsLocked" : "False",
                            "WinTrackHeight" : "56",
                            "trackHeight" : "54"
                          }
                      },
                      {
                        "trackIndex" : 3,
                        "medias" : [
                          {
                            "id" : 641,
                            "_type" : "Group",
                            "parameters" : {
                              "translation0" : {
                                "type" : "double",
                                "defaultValue" : 0.0,
                                "keyframes" : [
                                  {
                                    "endTime" : 552720000,
                                    "time" : 0,
                                    "value" : 0.0,
                                    "interp" : "eioe",
                                    "duration" : 552720000
                                  },
                                  {
                                    "endTime" : 1775760000,
                                    "time" : 1375920000,
                                    "value" : 0.0,
                                    "interp" : "eioe",
                                    "duration" : 399840000
                                  }
                                ]
                              },
                              "translation1" : {
                                "type" : "double",
                                "defaultValue" : -143.610046386719,
                                "keyframes" : [
                                  {
                                    "endTime" : 552720000,
                                    "time" : 0,
                                    "value" : 0.0,
                                    "interp" : "eioe",
                                    "duration" : 552720000
                                  },
                                  {
                                    "endTime" : 1775760000,
                                    "time" : 1375920000,
                                    "value" : -143.610046386719,
                                    "interp" : "eioe",
                                    "duration" : 399840000
                                  }
                                ]
                              },
                              "sourceCrop0" : 0.0,
                              "sourceCrop1" : 0.0,
                              "sourceCrop2" : 0.0,
                              "sourceCrop3" : 0.0,
                              "geometryCrop0" : 0.0,
                              "geometryCrop1" : 0.0,
                              "geometryCrop2" : 0.0,
                              "geometryCrop3" : 0.0,
                              "opacity" : {
                                "type" : "double",
                                "defaultValue" : 1.0,
                                "keyframes" : [
                                  {
                                    "endTime" : 552720000,
                                    "time" : 0,
                                    "value" : 1.0,
                                    "interp" : "eioe",
                                    "duration" : 552720000
                                  }
                                ]
                              },
                              "volume" : 1.0
                            },
                            "tracks" : [
                              {
                                "trackIndex" : 0,
                                "medias" : [
                                  {
                                    "id" : 642,
                                    "_type" : "Callout",
                                    "def" : {
                                      "kind" : "remix",
                                      "shape" : "shape-rectangle",
                                      "style" : "bold",
                                      "fill-color-blue" : 0.913725490196078,
                                      "fill-color-green" : 0.949019607843137,
                                      "fill-color-opacity" : 1.0,
                                      "fill-color-red" : 0.933333333333333,
                                      "hasDropShadow" : 0.0,
                                      "height" : 163.002035140991,
                                      "savedXScale" : 1.0,
                                      "savedYScale" : 1.0,
                                      "stroke-color-blue" : 1.0,
                                      "stroke-color-green" : 1.0,
                                      "stroke-color-opacity" : 1.0,
                                      "stroke-color-red" : 1.0,
                                      "stroke-width" : 0.0,
                                      "width" : 1403.00212860107,
                                      "custom" : "Y",
                                      "fill-style" : "solid",
                                      "stroke-style" : "solid"
                                    },
                                    "attributes" : {
                                      "ident" : "",
                                      "autoRotateText" : true
                                    },
                                    "parameters" : {
                                      "anchor0" : -1.0,
                                      "anchor1" : 2.0,
                                      "sourceCrop0" : 0.0,
                                      "sourceCrop1" : 0.0,
                                      "sourceCrop2" : 0.0,
                                      "sourceCrop3" : 0.0,
                                      "geometryCrop0" : 0.0,
                                      "geometryCrop1" : 0.0,
                                      "geometryCrop2" : 0.0,
                                      "geometryCrop3" : 0.0
                                    },
                                    "effects" : [

                                    ],
                                    "start" : 0,
                                    "duration" : 3528000000,
                                    "mediaStart" : 0,
                                    "mediaDuration" : 3528000000,
                                    "scalar" : 1,
                                    "metadata" : {
                                      "AppliedThemeId" : "",
                                      "clipSpeedAttribute" : false,
                                      "effectApplied" : "none",
                                      "lockAspectRatio" : false
                                    },
                                    "animationTracks" : {

                                    }
                                  }
                                ],
                                  "ident" : "",
                                  "audioMuted" : false,
                                  "videoHidden" : false,
                                  "magnetic" : false,
                                  "matte" : 0,
                                  "solo" : false,
                                  "metadata" : {
                                    "IsLocked" : "False",
                                    "WinTrackHeight" : "56",
                                    "trackHeight" : "54"
                                  }
                              },
                              {
                                "trackIndex" : 1,
                                "medias" : [
                                  {
                                    "id" : 643,
                                    "_type" : "Callout",
                                    "def" : {
                                      "kind" : "remix",
                                      "shape" : "shape-rectangle",
                                      "style" : "bold",
                                      "fill-color-blue" : 0.756862759590149,
                                      "fill-color-green" : 0.18823529779911,
                                      "fill-color-opacity" : 1.0,
                                      "fill-color-red" : 0.960784316062927,
                                      "hasDropShadow" : 0.0,
                                      "height" : 160.0,
                                      "savedXScale" : 1.0,
                                      "savedYScale" : 1.0,
                                      "stroke-color-blue" : 0.886274516582489,
                                      "stroke-color-green" : 0.200000002980232,
                                      "stroke-color-opacity" : 0.0,
                                      "stroke-color-red" : 0.376470595598221,
                                      "stroke-width" : 0.0,
                                      "width" : 1400.0,
                                      "custom" : "Y",
                                      "fill-style" : "solid",
                                      "stroke-style" : "solid"
                                    },
                                    "attributes" : {
                                      "ident" : "",
                                      "autoRotateText" : true
                                    },
                                    "parameters" : {
                                      "sourceCrop0" : 0.0,
                                      "sourceCrop1" : 0.0,
                                      "sourceCrop2" : 0.0,
                                      "sourceCrop3" : 0.0,
                                      "geometryCrop0" : 0.0,
                                      "geometryCrop1" : 0.0,
                                      "geometryCrop2" : 0.0,
                                      "geometryCrop3" : 0.0
                                    },
                                    "effects" : [

                                    ],
                                    "start" : 0,
                                    "duration" : 3528000000,
                                    "mediaStart" : 0,
                                    "mediaDuration" : 3528000000,
                                    "scalar" : 1,
                                    "metadata" : {
                                      "AppliedThemeId" : "",
                                      "clipSpeedAttribute" : false,
                                      "effectApplied" : "none"
                                    },
                                    "animationTracks" : {

                                    }
                                  }
                                ],
                                  "ident" : "",
                                  "audioMuted" : false,
                                  "videoHidden" : false,
                                  "magnetic" : false,
                                  "matte" : 1,
                                  "solo" : false,
                                  "metadata" : {
                                    "IsLocked" : "False",
                                    "WinTrackHeight" : "56",
                                    "trackHeight" : "54"
                                  }
                              }
                            ],
                            "attributes" : {
                              "ident" : "Rect-1400x1600-Mask",
                              "widthAttr" : 1405.0,
                              "heightAttr" : 167.002,
                              "gain" : 1.0,
                              "mixToMono" : false
                            },
                            "effects" : [

                            ],
                            "start" : 0,
                            "duration" : 3528000000,
                            "mediaStart" : 0.0,
                            "mediaDuration" : 3528000000.0,
                            "scalar" : 1,
                            "metadata" : {
                              "clipSpeedAttribute" : false,
                              "effectApplied" : "none",
                              "isOpen" : false,
                              "lockAspectRatio" : true
                            },
                            "animationTracks" : {
                              "visual" : [
                                {
                                  "endTime" : 552720000,
                                  "duration" : 552720000,
                                  "range" : [ 0, 552720000],
                                  "interp" : "eioe"
                                },
                                {
                                  "endTime" : 1775760000,
                                  "duration" : 399840000,
                                  "range" : [ 1375920000, 399840000],
                                  "interp" : "eioe"
                                }
                              ]
                            }
                          }
                        ],
                          "ident" : "",
                          "audioMuted" : false,
                          "videoHidden" : false,
                          "magnetic" : false,
                          "matte" : 1,
                          "solo" : false,
                          "metadata" : {
                            "IsLocked" : "False",
                            "WinTrackHeight" : "56",
                            "trackHeight" : "54"
                          }
                      }
                    ],
                    "attributes" : {
                      "ident" : "Broadcast-Title-012",
                      "widthAttr" : 1405.0,
                      "heightAttr" : 160.0,
                      "gain" : 1.0,
                      "mixToMono" : false,
                      "assetProperties" : [
                        {
                          "type" : 0,
                          "name" : "Title",
                          "objects" : [ 634 ],
                          "themeMappings" :  {
                            "font-color" : "foreground-1"
                          }
                        },
                        {
                          "type" : 1,
                          "name" : "Fill",
                          "objects" : [ 632 ],
                          "themeMappings" :  {
                            "fill" : "background-1"
                          }
                        },
                        {
                          "type" : 1,
                          "name" : "Wiper",
                          "objects" : [ 639 ],
                          "themeMappings" :  {
                            "fill" : "foreground-1"
                          }
                        }
                      ]
                    },
                    "effects" : [

                    ],
                    "start" : 1928640000,
                    "duration" : 1764000000,
                    "mediaStart" : 0.0,
                    "mediaDuration" : 1764000000.0,
                    "scalar" : 1,
                    "metadata" : {
                      "AppliedThemeId" : "170ba59c-db5d-4b9a-a310-e7e99853a4b7",
                      "clipSpeedAttribute" : false,
                      "default-anchor0" : 0.0,
                      "default-anchor1" : 0.0,
                      "default-anchor2" : 0.0,
                      "default-geometryCrop0" : 0.0,
                      "default-height" : 160.0,
                      "default-rotation0" : 0.0,
                      "default-rotation1" : 0.0,
                      "default-rotation2" : 0.0,
                      "default-scale0" : 1.0,
                      "default-scale1" : 1.0,
                      "default-scale2" : 1.0,
                      "default-shear0" : 0.0,
                      "default-shear1" : 0.0,
                      "default-shear2" : 0.0,
                      "default-translation0" : 0.0,
                      "default-translation1" : 0.0,
                      "default-translation2" : 0.0,
                      "default-width" : 1405.0,
                      "effectApplied" : "none",
                      "isOpen" : false,
                      "lockAspectRatio" : true
                    },
                    "animationTracks" : {

                    }
                  }
                ]
              },
              {
                "trackIndex" : 129,
                "medias" : [
                  {
                    "id" : 644,
                    "_type" : "Group",
                    "parameters" : {
                      "translation0" : -415.0,
                      "translation1" : -45.3084558823529,
                      "scale0" : 0.213523131672598,
                      "scale1" : 0.21875,
                      "sourceCrop0" : 0.0,
                      "sourceCrop1" : 0.0,
                      "sourceCrop2" : 0.0,
                      "sourceCrop3" : 0.0,
                      "geometryCrop0" : 0.0,
                      "geometryCrop1" : 0.0,
                      "geometryCrop2" : 0.0,
                      "geometryCrop3" : 0.0,
                      "volume" : 1.0
                    },
                    "tracks" : [
                      {
                        "trackIndex" : 0,
                        "medias" : [
                          {
                            "id" : 645,
                            "_type" : "Group",
                            "parameters" : {
                              "translation0" : {
                                "type" : "double",
                                "defaultValue" : 0.0,
                                "keyframes" : [
                                  {
                                    "endTime" : 552720000,
                                    "time" : 0,
                                    "value" : 0.0,
                                    "interp" : "eioe",
                                    "duration" : 552720000
                                  },
                                  {
                                    "endTime" : 1775760000,
                                    "time" : 1375920000,
                                    "value" : 0.0,
                                    "interp" : "eioe",
                                    "duration" : 399840000
                                  }
                                ]
                              },
                              "translation1" : {
                                "type" : "double",
                                "defaultValue" : -305.610046386719,
                                "keyframes" : [
                                  {
                                    "endTime" : 552720000,
                                    "time" : 0,
                                    "value" : 0.0,
                                    "interp" : "eioe",
                                    "duration" : 552720000
                                  },
                                  {
                                    "endTime" : 1775760000,
                                    "time" : 1375920000,
                                    "value" : -304.610046386719,
                                    "interp" : "eioe",
                                    "duration" : 399840000
                                  }
                                ]
                              },
                              "sourceCrop0" : 0.0,
                              "sourceCrop1" : 0.0,
                              "sourceCrop2" : 0.0,
                              "sourceCrop3" : 0.0,
                              "geometryCrop0" : 0.0,
                              "geometryCrop1" : 0.0,
                              "geometryCrop2" : 0.0,
                              "geometryCrop3" : 0.0,
                              "volume" : 1.0
                            },
                            "tracks" : [
                              {
                                "trackIndex" : 0,
                                "medias" : [
                                  {
                                    "id" : 646,
                                    "_type" : "Group",
                                    "parameters" : {
                                      "sourceCrop0" : 0.0,
                                      "sourceCrop1" : 0.0,
                                      "sourceCrop2" : 0.0,
                                      "sourceCrop3" : 0.0,
                                      "geometryCrop0" : 0.0,
                                      "geometryCrop1" : 0.0,
                                      "geometryCrop2" : 0.0,
                                      "geometryCrop3" : 0.0,
                                      "volume" : 1.0
                                    },
                                    "tracks" : [
                                      {
                                        "trackIndex" : 0,
                                        "medias" : [
                                          {
                                            "id" : 647,
                                            "_type" : "Callout",
                                            "def" : {
                                              "kind" : "remix",
                                              "shape" : "shape-rectangle",
                                              "style" : "bold",
                                              "fill-color-blue" : 1.0,
                                              "fill-color-green" : 1.0,
                                              "fill-color-opacity" : 1.0,
                                              "fill-color-red" : 1.0,
                                              "hasDropShadow" : 0.0,
                                              "height" : 163.002035140991,
                                              "savedXScale" : 1.0,
                                              "savedYScale" : 1.0,
                                              "stroke-color-blue" : 1.0,
                                              "stroke-color-green" : 1.0,
                                              "stroke-color-opacity" : 1.0,
                                              "stroke-color-red" : 1.0,
                                              "stroke-width" : 0.0,
                                              "width" : 1403.00212860107,
                                              "custom" : "Y",
                                              "fill-style" : "solid",
                                              "stroke-style" : "solid"
                                            },
                                            "attributes" : {
                                              "ident" : "",
                                              "autoRotateText" : true
                                            },
                                            "parameters" : {
                                              "anchor0" : -1.0,
                                              "anchor1" : 2.0,
                                              "sourceCrop0" : 0.0,
                                              "sourceCrop1" : 0.0,
                                              "sourceCrop2" : 0.0,
                                              "sourceCrop3" : 0.0,
                                              "geometryCrop0" : 0.0,
                                              "geometryCrop1" : 0.0,
                                              "geometryCrop2" : 0.0,
                                              "geometryCrop3" : 0.0
                                            },
                                            "effects" : [

                                            ],
                                            "start" : 0,
                                            "duration" : 3528000000,
                                            "mediaStart" : 0,
                                            "mediaDuration" : 3528000000,
                                            "scalar" : 1,
                                            "metadata" : {
                                              "AppliedThemeId" : "",
                                              "clipSpeedAttribute" : false,
                                              "effectApplied" : "none",
                                              "lockAspectRatio" : false
                                            },
                                            "animationTracks" : {

                                            }
                                          }
                                        ],
                                          "ident" : "",
                                          "audioMuted" : false,
                                          "videoHidden" : false,
                                          "magnetic" : false,
                                          "matte" : 0,
                                          "solo" : false,
                                          "metadata" : {
                                            "IsLocked" : "False",
                                            "WinTrackHeight" : "56",
                                            "trackHeight" : "54"
                                          }
                                      },
                                      {
                                        "trackIndex" : 1,
                                        "medias" : [
                                          {
                                            "id" : 648,
                                            "_type" : "Callout",
                                            "def" : {
                                              "kind" : "remix",
                                              "shape" : "shape-rectangle",
                                              "style" : "bold",
                                              "fill-color-blue" : 0.756862759590149,
                                              "fill-color-green" : 0.18823529779911,
                                              "fill-color-opacity" : 1.0,
                                              "fill-color-red" : 0.960784316062927,
                                              "hasDropShadow" : 0.0,
                                              "height" : 160.0,
                                              "savedXScale" : 1.0,
                                              "savedYScale" : 1.0,
                                              "stroke-color-blue" : 0.886274516582489,
                                              "stroke-color-green" : 0.200000002980232,
                                              "stroke-color-opacity" : 0.0,
                                              "stroke-color-red" : 0.376470595598221,
                                              "stroke-width" : 0.0,
                                              "width" : 1400.0,
                                              "custom" : "Y",
                                              "fill-style" : "solid",
                                              "stroke-style" : "solid"
                                            },
                                            "attributes" : {
                                              "ident" : "",
                                              "autoRotateText" : true
                                            },
                                            "parameters" : {
                                              "sourceCrop0" : 0.0,
                                              "sourceCrop1" : 0.0,
                                              "sourceCrop2" : 0.0,
                                              "sourceCrop3" : 0.0,
                                              "geometryCrop0" : 0.0,
                                              "geometryCrop1" : 0.0,
                                              "geometryCrop2" : 0.0,
                                              "geometryCrop3" : 0.0
                                            },
                                            "effects" : [

                                            ],
                                            "start" : 0,
                                            "duration" : 3528000000,
                                            "mediaStart" : 0,
                                            "mediaDuration" : 3528000000,
                                            "scalar" : 1,
                                            "metadata" : {
                                              "AppliedThemeId" : "",
                                              "clipSpeedAttribute" : false,
                                              "effectApplied" : "none"
                                            },
                                            "animationTracks" : {

                                            }
                                          }
                                        ],
                                          "ident" : "",
                                          "audioMuted" : false,
                                          "videoHidden" : false,
                                          "magnetic" : false,
                                          "matte" : 1,
                                          "solo" : false,
                                          "metadata" : {
                                            "IsLocked" : "False",
                                            "WinTrackHeight" : "56",
                                            "trackHeight" : "54"
                                          }
                                      }
                                    ],
                                    "attributes" : {
                                      "ident" : "Fill-1400x160",
                                      "widthAttr" : 1405.0,
                                      "heightAttr" : 167.002,
                                      "gain" : 1.0,
                                      "mixToMono" : false
                                    },
                                    "effects" : [

                                    ],
                                    "start" : 0,
                                    "duration" : 3528000000,
                                    "mediaStart" : 0.0,
                                    "mediaDuration" : 3528000000.0,
                                    "scalar" : 1,
                                    "metadata" : {
                                      "clipSpeedAttribute" : false,
                                      "effectApplied" : "none",
                                      "isOpen" : false,
                                      "lockAspectRatio" : true
                                    },
                                    "animationTracks" : {

                                    }
                                  }
                                ],
                                  "ident" : "",
                                  "audioMuted" : false,
                                  "videoHidden" : false,
                                  "magnetic" : false,
                                  "matte" : 0,
                                  "solo" : false,
                                  "metadata" : {
                                    "IsLocked" : "False",
                                    "WinTrackHeight" : "56",
                                    "trackHeight" : "54"
                                  }
                              },
                              {
                                "trackIndex" : 1,
                                "medias" : [
                                  {
                                    "id" : 649,
                                    "_type" : "Callout",
                                    "def" : {
                                      "kind" : "remix",
                                      "shape" : "text",
                                      "style" : "urban",
                                      "enable-ligatures" : 1.0,
                                      "hasDropShadow" : 0.0,
                                      "height" : 170.0,
                                      "line-spacing" : 0.0,
                                      "savedXScale" : 1.0,
                                      "savedYScale" : 1.0,
                                      "width" : 1400.0,
                                      "word-wrap" : 1.0,
                                      "custom" : "Y",
                                      "horizontal-alignment" : "left",
                                      "resize-behavior" : "resizeText",
                                      "text" : "align right (H) + center (V)",
                                      "vertical-alignment" : "center",
                                      "font" : {
                                        "color-blue" : 1.0,
                                        "color-green" : 1.0,
                                        "color-red" : 1.0,
                                        "size" : 96.0,
                                        "tracking" : 0.0,
                                        "name" : "Dosis",
                                        "weight" : "Semi Bold"
                                      },
                                      "textAttributes" : {
                                        "type" : "textAttributeList",
                                        "keyframes" : [
                                          {
                                            "endTime" : 0,
                                            "time" : 0,
                                            "value" : [{"name":"underline","rangeEnd":28,"rangeStart":0,"value":0,"valueType":"int"},{"name":"strikethrough","rangeEnd":28,"rangeStart":0,"value":0,"valueType":"int"},{"name":"fontName","rangeEnd":28,"rangeStart":0,"value":"Roboto","valueType":"string"},{"name":"kerning","rangeEnd":28,"rangeStart":0,"value":0.049883078231292483,"valueType":"double"},{"name":"fontItalic","rangeEnd":28,"rangeStart":0,"value":0,"valueType":"int"},{"name":"fontWeight","rangeEnd":28,"rangeStart":0,"value":700,"valueType":"int"},{"name":"fontSize","rangeEnd":28,"rangeStart":0,"value":86,"valueType":"double"},{"name":"fgColor","rangeEnd":28,"rangeStart":0,"value":"(110,110,110,255)","valueType":"color"}],
                                            "duration" : 0
                                          }
                                        ]
                                      }
                                    },
                                    "attributes" : {
                                      "ident" : "",
                                      "autoRotateText" : true
                                    },
                                    "parameters" : {
                                      "translation1" : -2.0,
                                      "sourceCrop0" : 0.0,
                                      "sourceCrop1" : 0.0,
                                      "sourceCrop2" : 0.0,
                                      "sourceCrop3" : 0.0,
                                      "geometryCrop0" : 0.0,
                                      "geometryCrop1" : 0.0,
                                      "geometryCrop2" : 0.0,
                                      "geometryCrop3" : 0.0
                                    },
                                    "effects" : [

                                    ],
                                    "start" : 0,
                                    "duration" : 3528000000,
                                    "mediaStart" : 0,
                                    "mediaDuration" : 3528000000,
                                    "scalar" : 1,
                                    "metadata" : {
                                      "AppliedThemeId" : "",
                                      "clipSpeedAttribute" : false,
                                      "effectApplied" : "none",
                                      "lockAspectRatio" : false
                                    },
                                    "animationTracks" : {

                                    }
                                  }
                                ],
                                  "ident" : "",
                                  "audioMuted" : false,
                                  "videoHidden" : false,
                                  "magnetic" : false,
                                  "matte" : 0,
                                  "solo" : false,
                                  "metadata" : {
                                    "IsLocked" : "False",
                                    "WinTrackHeight" : "56",
                                    "trackHeight" : "54"
                                  }
                              }
                            ],
                            "attributes" : {
                              "ident" : "BP-Title-11",
                              "widthAttr" : 1405.0,
                              "heightAttr" : 167.002,
                              "gain" : 1.0,
                              "mixToMono" : false,
                              "assetProperties" : [
                                {
                                  "type" : 0,
                                  "name" : "Title",
                                  "objects" : [ 649 ],
                                  "themeMappings" :  {
                                    "font-color" : "foreground-1"
                                  }
                                },
                                {
                                  "type" : 1,
                                  "name" : "Fill",
                                  "objects" : [ 647 ],
                                  "themeMappings" :  {
                                    "fill" : "background-1"
                                  }
                                }
                              ]
                            },
                            "effects" : [

                            ],
                            "start" : 0,
                            "duration" : 3528000000,
                            "mediaStart" : 0.0,
                            "mediaDuration" : 3528000000.0,
                            "scalar" : 1,
                            "metadata" : {
                              "clipSpeedAttribute" : false,
                              "effectApplied" : "none",
                              "isOpen" : false,
                              "lockAspectRatio" : true
                            },
                            "animationTracks" : {
                              "visual" : [
                                {
                                  "endTime" : 552720000,
                                  "duration" : 552720000,
                                  "range" : [ 0, 552720000],
                                  "interp" : "eioe"
                                },
                                {
                                  "endTime" : 1775760000,
                                  "duration" : 399840000,
                                  "range" : [ 1375920000, 399840000],
                                  "interp" : "eioe"
                                }
                              ]
                            }
                          }
                        ],
                          "ident" : "",
                          "audioMuted" : false,
                          "videoHidden" : false,
                          "magnetic" : false,
                          "matte" : 0,
                          "solo" : false,
                          "metadata" : {
                            "IsLocked" : "False",
                            "WinTrackHeight" : "56",
                            "trackHeight" : "54"
                          }
                      },
                      {
                        "trackIndex" : 1,
                        "medias" : [
                          {
                            "id" : 650,
                            "_type" : "Group",
                            "parameters" : {
                              "translation0" : {
                                "type" : "double",
                                "defaultValue" : 0.0,
                                "keyframes" : [
                                  {
                                    "endTime" : 552720000,
                                    "time" : 0,
                                    "value" : 0.0,
                                    "interp" : "eioe",
                                    "duration" : 552720000
                                  },
                                  {
                                    "endTime" : 1775760000,
                                    "time" : 1375920000,
                                    "value" : 0.0,
                                    "interp" : "eioe",
                                    "duration" : 399840000
                                  }
                                ]
                              },
                              "translation1" : {
                                "type" : "double",
                                "defaultValue" : -144.610046386719,
                                "keyframes" : [
                                  {
                                    "endTime" : 552720000,
                                    "time" : 0,
                                    "value" : 0.0,
                                    "interp" : "eioe",
                                    "duration" : 552720000
                                  },
                                  {
                                    "endTime" : 1775760000,
                                    "time" : 1375920000,
                                    "value" : -144.610046386719,
                                    "interp" : "eioe",
                                    "duration" : 399840000
                                  }
                                ]
                              },
                              "sourceCrop0" : 0.0,
                              "sourceCrop1" : 0.0,
                              "sourceCrop2" : 0.0,
                              "sourceCrop3" : 0.0,
                              "geometryCrop0" : 0.0,
                              "geometryCrop1" : 0.0,
                              "geometryCrop2" : 0.0,
                              "geometryCrop3" : 0.0,
                              "opacity" : {
                                "type" : "double",
                                "defaultValue" : 1.0,
                                "keyframes" : [
                                  {
                                    "endTime" : 552720000,
                                    "time" : 0,
                                    "value" : 1.0,
                                    "interp" : "eioe",
                                    "duration" : 552720000
                                  }
                                ]
                              },
                              "volume" : 1.0
                            },
                            "tracks" : [
                              {
                                "trackIndex" : 0,
                                "medias" : [
                                  {
                                    "id" : 651,
                                    "_type" : "Callout",
                                    "def" : {
                                      "kind" : "remix",
                                      "shape" : "shape-rectangle",
                                      "style" : "bold",
                                      "fill-color-blue" : 0.913725490196078,
                                      "fill-color-green" : 0.949019607843137,
                                      "fill-color-opacity" : 1.0,
                                      "fill-color-red" : 0.933333333333333,
                                      "hasDropShadow" : 0.0,
                                      "height" : 163.002035140991,
                                      "savedXScale" : 1.0,
                                      "savedYScale" : 1.0,
                                      "stroke-color-blue" : 1.0,
                                      "stroke-color-green" : 1.0,
                                      "stroke-color-opacity" : 1.0,
                                      "stroke-color-red" : 1.0,
                                      "stroke-width" : 0.0,
                                      "width" : 1403.00212860107,
                                      "custom" : "Y",
                                      "fill-style" : "solid",
                                      "stroke-style" : "solid"
                                    },
                                    "attributes" : {
                                      "ident" : "",
                                      "autoRotateText" : true
                                    },
                                    "parameters" : {
                                      "anchor0" : -1.0,
                                      "anchor1" : 2.0,
                                      "sourceCrop0" : 0.0,
                                      "sourceCrop1" : 0.0,
                                      "sourceCrop2" : 0.0,
                                      "sourceCrop3" : 0.0,
                                      "geometryCrop0" : 0.0,
                                      "geometryCrop1" : 0.0,
                                      "geometryCrop2" : 0.0,
                                      "geometryCrop3" : 0.0
                                    },
                                    "effects" : [

                                    ],
                                    "start" : 0,
                                    "duration" : 3528000000,
                                    "mediaStart" : 0,
                                    "mediaDuration" : 3528000000,
                                    "scalar" : 1,
                                    "metadata" : {
                                      "AppliedThemeId" : "",
                                      "clipSpeedAttribute" : false,
                                      "effectApplied" : "none",
                                      "lockAspectRatio" : false
                                    },
                                    "animationTracks" : {

                                    }
                                  }
                                ],
                                  "ident" : "",
                                  "audioMuted" : false,
                                  "videoHidden" : false,
                                  "magnetic" : false,
                                  "matte" : 0,
                                  "solo" : false,
                                  "metadata" : {
                                    "IsLocked" : "False",
                                    "WinTrackHeight" : "56",
                                    "trackHeight" : "54"
                                  }
                              },
                              {
                                "trackIndex" : 1,
                                "medias" : [
                                  {
                                    "id" : 652,
                                    "_type" : "Callout",
                                    "def" : {
                                      "kind" : "remix",
                                      "shape" : "shape-rectangle",
                                      "style" : "bold",
                                      "fill-color-blue" : 0.756862759590149,
                                      "fill-color-green" : 0.18823529779911,
                                      "fill-color-opacity" : 1.0,
                                      "fill-color-red" : 0.960784316062927,
                                      "hasDropShadow" : 0.0,
                                      "height" : 160.0,
                                      "savedXScale" : 1.0,
                                      "savedYScale" : 1.0,
                                      "stroke-color-blue" : 0.886274516582489,
                                      "stroke-color-green" : 0.200000002980232,
                                      "stroke-color-opacity" : 0.0,
                                      "stroke-color-red" : 0.376470595598221,
                                      "stroke-width" : 0.0,
                                      "width" : 1400.0,
                                      "custom" : "Y",
                                      "fill-style" : "solid",
                                      "stroke-style" : "solid"
                                    },
                                    "attributes" : {
                                      "ident" : "",
                                      "autoRotateText" : true
                                    },
                                    "parameters" : {
                                      "sourceCrop0" : 0.0,
                                      "sourceCrop1" : 0.0,
                                      "sourceCrop2" : 0.0,
                                      "sourceCrop3" : 0.0,
                                      "geometryCrop0" : 0.0,
                                      "geometryCrop1" : 0.0,
                                      "geometryCrop2" : 0.0,
                                      "geometryCrop3" : 0.0
                                    },
                                    "effects" : [

                                    ],
                                    "start" : 0,
                                    "duration" : 3528000000,
                                    "mediaStart" : 0,
                                    "mediaDuration" : 3528000000,
                                    "scalar" : 1,
                                    "metadata" : {
                                      "AppliedThemeId" : "",
                                      "clipSpeedAttribute" : false,
                                      "effectApplied" : "none"
                                    },
                                    "animationTracks" : {

                                    }
                                  }
                                ],
                                  "ident" : "",
                                  "audioMuted" : false,
                                  "videoHidden" : false,
                                  "magnetic" : false,
                                  "matte" : 1,
                                  "solo" : false,
                                  "metadata" : {
                                    "IsLocked" : "False",
                                    "WinTrackHeight" : "56",
                                    "trackHeight" : "54"
                                  }
                              }
                            ],
                            "attributes" : {
                              "ident" : "Rect-1400x1600-Mask",
                              "widthAttr" : 1405.0,
                              "heightAttr" : 167.002,
                              "gain" : 1.0,
                              "mixToMono" : false
                            },
                            "effects" : [

                            ],
                            "start" : 0,
                            "duration" : 3528000000,
                            "mediaStart" : 0.0,
                            "mediaDuration" : 3528000000.0,
                            "scalar" : 1,
                            "metadata" : {
                              "clipSpeedAttribute" : false,
                              "effectApplied" : "none",
                              "isOpen" : false,
                              "lockAspectRatio" : true
                            },
                            "animationTracks" : {
                              "visual" : [
                                {
                                  "endTime" : 552720000,
                                  "duration" : 552720000,
                                  "range" : [ 0, 552720000],
                                  "interp" : "eioe"
                                },
                                {
                                  "endTime" : 1775760000,
                                  "duration" : 399840000,
                                  "range" : [ 1375920000, 399840000],
                                  "interp" : "eioe"
                                }
                              ]
                            }
                          }
                        ],
                          "ident" : "",
                          "audioMuted" : false,
                          "videoHidden" : false,
                          "magnetic" : false,
                          "matte" : 1,
                          "solo" : false,
                          "metadata" : {
                            "IsLocked" : "False",
                            "WinTrackHeight" : "56",
                            "trackHeight" : "54"
                          }
                      },
                      {
                        "trackIndex" : 2,
                        "medias" : [
                          {
                            "id" : 653,
                            "_type" : "Group",
                            "parameters" : {
                              "translation0" : {
                                "type" : "double",
                                "defaultValue" : 0.0,
                                "keyframes" : [
                                  {
                                    "endTime" : 552720000,
                                    "time" : 0,
                                    "value" : 0.0,
                                    "interp" : "eioe",
                                    "duration" : 552720000
                                  },
                                  {
                                    "endTime" : 1775760000,
                                    "time" : 1375920000,
                                    "value" : 0.0,
                                    "interp" : "eioe",
                                    "duration" : 399840000
                                  }
                                ]
                              },
                              "translation1" : {
                                "type" : "double",
                                "defaultValue" : -233.610046386719,
                                "keyframes" : [
                                  {
                                    "endTime" : 552720000,
                                    "time" : 0,
                                    "value" : 90.0,
                                    "interp" : "eioe",
                                    "duration" : 552720000
                                  },
                                  {
                                    "endTime" : 1775760000,
                                    "time" : 1375920000,
                                    "value" : -233.610046386719,
                                    "interp" : "eioe",
                                    "duration" : 399840000
                                  }
                                ]
                              },
                              "sourceCrop0" : 0.0,
                              "sourceCrop1" : 0.0,
                              "sourceCrop2" : 0.0,
                              "sourceCrop3" : 0.0,
                              "geometryCrop0" : 0.0,
                              "geometryCrop1" : 0.0,
                              "geometryCrop2" : 0.0,
                              "geometryCrop3" : 0.0,
                              "opacity" : {
                                "type" : "double",
                                "defaultValue" : 1.0,
                                "keyframes" : [
                                  {
                                    "endTime" : 552720000,
                                    "time" : 0,
                                    "value" : 1.0,
                                    "interp" : "eioe",
                                    "duration" : 552720000
                                  }
                                ]
                              },
                              "volume" : 1.0
                            },
                            "tracks" : [
                              {
                                "trackIndex" : 0,
                                "medias" : [
                                  {
                                    "id" : 654,
                                    "_type" : "Callout",
                                    "def" : {
                                      "kind" : "remix",
                                      "shape" : "shape-rectangle",
                                      "style" : "bold",
                                      "fill-color-blue" : 0.2196078431,
                                      "fill-color-green" : 0.8745098039,
                                      "fill-color-opacity" : 1.0,
                                      "fill-color-red" : 1.0,
                                      "hasDropShadow" : 0.0,
                                      "height" : 163.002035140991,
                                      "savedXScale" : 1.0,
                                      "savedYScale" : 1.0,
                                      "stroke-color-blue" : 1.0,
                                      "stroke-color-green" : 1.0,
                                      "stroke-color-opacity" : 1.0,
                                      "stroke-color-red" : 1.0,
                                      "stroke-width" : 0.0,
                                      "width" : 1403.00212860107,
                                      "custom" : "Y",
                                      "fill-style" : "solid",
                                      "stroke-style" : "solid"
                                    },
                                    "attributes" : {
                                      "ident" : "",
                                      "autoRotateText" : true
                                    },
                                    "parameters" : {
                                      "anchor0" : -1.0,
                                      "anchor1" : 2.0,
                                      "sourceCrop0" : 0.0,
                                      "sourceCrop1" : 0.0,
                                      "sourceCrop2" : 0.0,
                                      "sourceCrop3" : 0.0,
                                      "geometryCrop0" : 0.0,
                                      "geometryCrop1" : 0.0,
                                      "geometryCrop2" : 0.0,
                                      "geometryCrop3" : 0.0
                                    },
                                    "effects" : [

                                    ],
                                    "start" : 0,
                                    "duration" : 3528000000,
                                    "mediaStart" : 0,
                                    "mediaDuration" : 3528000000,
                                    "scalar" : 1,
                                    "metadata" : {
                                      "AppliedThemeId" : "",
                                      "clipSpeedAttribute" : false,
                                      "effectApplied" : "none",
                                      "lockAspectRatio" : false
                                    },
                                    "animationTracks" : {

                                    }
                                  }
                                ],
                                  "ident" : "",
                                  "audioMuted" : false,
                                  "videoHidden" : false,
                                  "magnetic" : false,
                                  "matte" : 0,
                                  "solo" : false,
                                  "metadata" : {
                                    "IsLocked" : "False",
                                    "WinTrackHeight" : "56",
                                    "trackHeight" : "54"
                                  }
                              },
                              {
                                "trackIndex" : 1,
                                "medias" : [
                                  {
                                    "id" : 655,
                                    "_type" : "Callout",
                                    "def" : {
                                      "kind" : "remix",
                                      "shape" : "shape-rectangle",
                                      "style" : "bold",
                                      "fill-color-blue" : 0.756862759590149,
                                      "fill-color-green" : 0.18823529779911,
                                      "fill-color-opacity" : 1.0,
                                      "fill-color-red" : 0.960784316062927,
                                      "hasDropShadow" : 0.0,
                                      "height" : 160.0,
                                      "savedXScale" : 1.0,
                                      "savedYScale" : 1.0,
                                      "stroke-color-blue" : 0.886274516582489,
                                      "stroke-color-green" : 0.200000002980232,
                                      "stroke-color-opacity" : 0.0,
                                      "stroke-color-red" : 0.376470595598221,
                                      "stroke-width" : 0.0,
                                      "width" : 1400.0,
                                      "custom" : "Y",
                                      "fill-style" : "solid",
                                      "stroke-style" : "solid"
                                    },
                                    "attributes" : {
                                      "ident" : "",
                                      "autoRotateText" : true
                                    },
                                    "parameters" : {
                                      "translation1" : {
                                        "type" : "double",
                                        "defaultValue" : -1.0,
                                        "keyframes" : [
                                          {
                                            "endTime" : 270480000,
                                            "time" : 0,
                                            "value" : 0.0,
                                            "duration" : 270480000
                                          }
                                        ]
                                      },
                                      "scale0" : {
                                        "type" : "double",
                                        "defaultValue" : 1.0,
                                        "keyframes" : [
                                          {
                                            "endTime" : 270480000,
                                            "time" : 0,
                                            "value" : 1.0,
                                            "duration" : 270480000
                                          }
                                        ]
                                      },
                                      "scale1" : {
                                        "type" : "double",
                                        "defaultValue" : 0.125,
                                        "keyframes" : [
                                          {
                                            "endTime" : 270480000,
                                            "time" : 0,
                                            "value" : 0.5,
                                            "duration" : 270480000
                                          },
                                          {
                                            "endTime" : 552720000,
                                            "time" : 282240000,
                                            "value" : 0.125,
                                            "duration" : 270480000
                                          }
                                        ]
                                      },
                                      "sourceCrop0" : 0.0,
                                      "sourceCrop1" : 0.0,
                                      "sourceCrop2" : 0.0,
                                      "sourceCrop3" : 0.0,
                                      "geometryCrop0" : 0.0,
                                      "geometryCrop1" : 0.0,
                                      "geometryCrop2" : 0.0,
                                      "geometryCrop3" : 0.0
                                    },
                                    "effects" : [

                                    ],
                                    "start" : 0,
                                    "duration" : 3528000000,
                                    "mediaStart" : 0,
                                    "mediaDuration" : 3528000000,
                                    "scalar" : 1,
                                    "metadata" : {
                                      "AppliedThemeId" : "",
                                      "clipSpeedAttribute" : false,
                                      "effectApplied" : "none"
                                    },
                                    "animationTracks" : {
                                      "visual" : [
                                        {
                                          "endTime" : 270480000,
                                          "duration" : 270480000,
                                          "range" : [ 0, 270480000]
                                        },
                                        {
                                          "endTime" : 552720000,
                                          "duration" : 270480000,
                                          "range" : [ 282240000, 270480000]
                                        }
                                      ]
                                    }
                                  }
                                ],
                                  "ident" : "",
                                  "audioMuted" : false,
                                  "videoHidden" : false,
                                  "magnetic" : false,
                                  "matte" : 1,
                                  "solo" : false,
                                  "metadata" : {
                                    "IsLocked" : "False",
                                    "WinTrackHeight" : "56",
                                    "trackHeight" : "54"
                                  }
                              }
                            ],
                            "attributes" : {
                              "ident" : "Animated-Pulse-1400x20-To-1400x80",
                              "widthAttr" : 1405.0,
                              "heightAttr" : 167.002,
                              "gain" : 1.0,
                              "mixToMono" : false,
                              "assetProperties" : [
                                {
                                  "type" : 1,
                                  "name" : "Color",
                                  "objects" : [ 654 ],
                                  "themeMappings" :  {
                                    "fill" : "accent-1"
                                  }
                                }
                              ]
                            },
                            "effects" : [

                            ],
                            "start" : 0,
                            "duration" : 3528000000,
                            "mediaStart" : 0.0,
                            "mediaDuration" : 3528000000.0,
                            "scalar" : 1,
                            "metadata" : {
                              "AppliedThemeId" : "8e797988-b823-4beb-b251-1d31b461ba07",
                              "clipSpeedAttribute" : false,
                              "effectApplied" : "none",
                              "isOpen" : false,
                              "lockAspectRatio" : true
                            },
                            "animationTracks" : {
                              "visual" : [
                                {
                                  "endTime" : 552720000,
                                  "duration" : 552720000,
                                  "range" : [ 0, 552720000],
                                  "interp" : "eioe"
                                },
                                {
                                  "endTime" : 1775760000,
                                  "duration" : 399840000,
                                  "range" : [ 1375920000, 399840000],
                                  "interp" : "eioe"
                                }
                              ]
                            }
                          }
                        ],
                          "ident" : "",
                          "audioMuted" : false,
                          "videoHidden" : false,
                          "magnetic" : false,
                          "matte" : 0,
                          "solo" : false,
                          "metadata" : {
                            "IsLocked" : "False",
                            "WinTrackHeight" : "56",
                            "trackHeight" : "54"
                          }
                      },
                      {
                        "trackIndex" : 3,
                        "medias" : [
                          {
                            "id" : 656,
                            "_type" : "Group",
                            "parameters" : {
                              "translation0" : {
                                "type" : "double",
                                "defaultValue" : 0.0,
                                "keyframes" : [
                                  {
                                    "endTime" : 552720000,
                                    "time" : 0,
                                    "value" : 0.0,
                                    "interp" : "eioe",
                                    "duration" : 552720000
                                  },
                                  {
                                    "endTime" : 1775760000,
                                    "time" : 1375920000,
                                    "value" : 0.0,
                                    "interp" : "eioe",
                                    "duration" : 399840000
                                  }
                                ]
                              },
                              "translation1" : {
                                "type" : "double",
                                "defaultValue" : -143.610046386719,
                                "keyframes" : [
                                  {
                                    "endTime" : 552720000,
                                    "time" : 0,
                                    "value" : 0.0,
                                    "interp" : "eioe",
                                    "duration" : 552720000
                                  },
                                  {
                                    "endTime" : 1775760000,
                                    "time" : 1375920000,
                                    "value" : -143.610046386719,
                                    "interp" : "eioe",
                                    "duration" : 399840000
                                  }
                                ]
                              },
                              "sourceCrop0" : 0.0,
                              "sourceCrop1" : 0.0,
                              "sourceCrop2" : 0.0,
                              "sourceCrop3" : 0.0,
                              "geometryCrop0" : 0.0,
                              "geometryCrop1" : 0.0,
                              "geometryCrop2" : 0.0,
                              "geometryCrop3" : 0.0,
                              "opacity" : {
                                "type" : "double",
                                "defaultValue" : 1.0,
                                "keyframes" : [
                                  {
                                    "endTime" : 552720000,
                                    "time" : 0,
                                    "value" : 1.0,
                                    "interp" : "eioe",
                                    "duration" : 552720000
                                  }
                                ]
                              },
                              "volume" : 1.0
                            },
                            "tracks" : [
                              {
                                "trackIndex" : 0,
                                "medias" : [
                                  {
                                    "id" : 657,
                                    "_type" : "Callout",
                                    "def" : {
                                      "kind" : "remix",
                                      "shape" : "shape-rectangle",
                                      "style" : "bold",
                                      "fill-color-blue" : 0.913725490196078,
                                      "fill-color-green" : 0.949019607843137,
                                      "fill-color-opacity" : 1.0,
                                      "fill-color-red" : 0.933333333333333,
                                      "hasDropShadow" : 0.0,
                                      "height" : 163.002035140991,
                                      "savedXScale" : 1.0,
                                      "savedYScale" : 1.0,
                                      "stroke-color-blue" : 1.0,
                                      "stroke-color-green" : 1.0,
                                      "stroke-color-opacity" : 1.0,
                                      "stroke-color-red" : 1.0,
                                      "stroke-width" : 0.0,
                                      "width" : 1403.00212860107,
                                      "custom" : "Y",
                                      "fill-style" : "solid",
                                      "stroke-style" : "solid"
                                    },
                                    "attributes" : {
                                      "ident" : "",
                                      "autoRotateText" : true
                                    },
                                    "parameters" : {
                                      "anchor0" : -1.0,
                                      "anchor1" : 2.0,
                                      "sourceCrop0" : 0.0,
                                      "sourceCrop1" : 0.0,
                                      "sourceCrop2" : 0.0,
                                      "sourceCrop3" : 0.0,
                                      "geometryCrop0" : 0.0,
                                      "geometryCrop1" : 0.0,
                                      "geometryCrop2" : 0.0,
                                      "geometryCrop3" : 0.0
                                    },
                                    "effects" : [

                                    ],
                                    "start" : 0,
                                    "duration" : 3528000000,
                                    "mediaStart" : 0,
                                    "mediaDuration" : 3528000000,
                                    "scalar" : 1,
                                    "metadata" : {
                                      "AppliedThemeId" : "",
                                      "clipSpeedAttribute" : false,
                                      "effectApplied" : "none",
                                      "lockAspectRatio" : false
                                    },
                                    "animationTracks" : {

                                    }
                                  }
                                ],
                                  "ident" : "",
                                  "audioMuted" : false,
                                  "videoHidden" : false,
                                  "magnetic" : false,
                                  "matte" : 0,
                                  "solo" : false,
                                  "metadata" : {
                                    "IsLocked" : "False",
                                    "WinTrackHeight" : "56",
                                    "trackHeight" : "54"
                                  }
                              },
                              {
                                "trackIndex" : 1,
                                "medias" : [
                                  {
                                    "id" : 658,
                                    "_type" : "Callout",
                                    "def" : {
                                      "kind" : "remix",
                                      "shape" : "shape-rectangle",
                                      "style" : "bold",
                                      "fill-color-blue" : 0.756862759590149,
                                      "fill-color-green" : 0.18823529779911,
                                      "fill-color-opacity" : 1.0,
                                      "fill-color-red" : 0.960784316062927,
                                      "hasDropShadow" : 0.0,
                                      "height" : 160.0,
                                      "savedXScale" : 1.0,
                                      "savedYScale" : 1.0,
                                      "stroke-color-blue" : 0.886274516582489,
                                      "stroke-color-green" : 0.200000002980232,
                                      "stroke-color-opacity" : 0.0,
                                      "stroke-color-red" : 0.376470595598221,
                                      "stroke-width" : 0.0,
                                      "width" : 1400.0,
                                      "custom" : "Y",
                                      "fill-style" : "solid",
                                      "stroke-style" : "solid"
                                    },
                                    "attributes" : {
                                      "ident" : "",
                                      "autoRotateText" : true
                                    },
                                    "parameters" : {
                                      "sourceCrop0" : 0.0,
                                      "sourceCrop1" : 0.0,
                                      "sourceCrop2" : 0.0,
                                      "sourceCrop3" : 0.0,
                                      "geometryCrop0" : 0.0,
                                      "geometryCrop1" : 0.0,
                                      "geometryCrop2" : 0.0,
                                      "geometryCrop3" : 0.0
                                    },
                                    "effects" : [

                                    ],
                                    "start" : 0,
                                    "duration" : 3528000000,
                                    "mediaStart" : 0,
                                    "mediaDuration" : 3528000000,
                                    "scalar" : 1,
                                    "metadata" : {
                                      "AppliedThemeId" : "",
                                      "clipSpeedAttribute" : false,
                                      "effectApplied" : "none"
                                    },
                                    "animationTracks" : {

                                    }
                                  }
                                ],
                                  "ident" : "",
                                  "audioMuted" : false,
                                  "videoHidden" : false,
                                  "magnetic" : false,
                                  "matte" : 1,
                                  "solo" : false,
                                  "metadata" : {
                                    "IsLocked" : "False",
                                    "WinTrackHeight" : "56",
                                    "trackHeight" : "54"
                                  }
                              }
                            ],
                            "attributes" : {
                              "ident" : "Rect-1400x1600-Mask",
                              "widthAttr" : 1405.0,
                              "heightAttr" : 167.002,
                              "gain" : 1.0,
                              "mixToMono" : false
                            },
                            "effects" : [

                            ],
                            "start" : 0,
                            "duration" : 3528000000,
                            "mediaStart" : 0.0,
                            "mediaDuration" : 3528000000.0,
                            "scalar" : 1,
                            "metadata" : {
                              "clipSpeedAttribute" : false,
                              "effectApplied" : "none",
                              "isOpen" : false,
                              "lockAspectRatio" : true
                            },
                            "animationTracks" : {
                              "visual" : [
                                {
                                  "endTime" : 552720000,
                                  "duration" : 552720000,
                                  "range" : [ 0, 552720000],
                                  "interp" : "eioe"
                                },
                                {
                                  "endTime" : 1775760000,
                                  "duration" : 399840000,
                                  "range" : [ 1375920000, 399840000],
                                  "interp" : "eioe"
                                }
                              ]
                            }
                          }
                        ],
                          "ident" : "",
                          "audioMuted" : false,
                          "videoHidden" : false,
                          "magnetic" : false,
                          "matte" : 1,
                          "solo" : false,
                          "metadata" : {
                            "IsLocked" : "False",
                            "WinTrackHeight" : "56",
                            "trackHeight" : "54"
                          }
                      }
                    ],
                    "attributes" : {
                      "ident" : "Broadcast-Title-012",
                      "widthAttr" : 1405.0,
                      "heightAttr" : 160.0,
                      "gain" : 1.0,
                      "mixToMono" : false,
                      "assetProperties" : [
                        {
                          "type" : 0,
                          "name" : "Title",
                          "objects" : [ 649 ],
                          "themeMappings" :  {
                            "font-color" : "foreground-1"
                          }
                        },
                        {
                          "type" : 1,
                          "name" : "Fill",
                          "objects" : [ 647 ],
                          "themeMappings" :  {
                            "fill" : "background-1"
                          }
                        },
                        {
                          "type" : 1,
                          "name" : "Wiper",
                          "objects" : [ 654 ],
                          "themeMappings" :  {
                            "fill" : "foreground-1"
                          }
                        }
                      ]
                    },
                    "effects" : [

                    ],
                    "start" : 1928640000,
                    "duration" : 1764000000,
                    "mediaStart" : 0.0,
                    "mediaDuration" : 1764000000.0,
                    "scalar" : 1,
                    "metadata" : {
                      "AppliedThemeId" : "170ba59c-db5d-4b9a-a310-e7e99853a4b7",
                      "clipSpeedAttribute" : false,
                      "default-anchor0" : 0.0,
                      "default-anchor1" : 0.0,
                      "default-anchor2" : 0.0,
                      "default-geometryCrop0" : 0.0,
                      "default-height" : 160.0,
                      "default-rotation0" : 0.0,
                      "default-rotation1" : 0.0,
                      "default-rotation2" : 0.0,
                      "default-scale0" : 1.0,
                      "default-scale1" : 1.0,
                      "default-scale2" : 1.0,
                      "default-shear0" : 0.0,
                      "default-shear1" : 0.0,
                      "default-shear2" : 0.0,
                      "default-translation0" : 0.0,
                      "default-translation1" : 0.0,
                      "default-translation2" : 0.0,
                      "default-width" : 1405.0,
                      "effectApplied" : "none",
                      "isOpen" : false,
                      "lockAspectRatio" : true
                    },
                    "animationTracks" : {

                    }
                  }
                ]
              },
              {
                "trackIndex" : 130,
                "medias" : [
                  {
                    "id" : 659,
                    "_type" : "Group",
                    "parameters" : {
                      "translation0" : 350.0,
                      "translation1" : 4.03529411764708,
                      "scale0" : 0.213523131672598,
                      "scale1" : 0.21875,
                      "sourceCrop0" : 0.0,
                      "sourceCrop1" : 0.0,
                      "sourceCrop2" : 0.0,
                      "sourceCrop3" : 0.0,
                      "geometryCrop0" : 0.0,
                      "geometryCrop1" : 0.0,
                      "geometryCrop2" : 0.0,
                      "geometryCrop3" : 0.0,
                      "volume" : 1.0
                    },
                    "tracks" : [
                      {
                        "trackIndex" : 0,
                        "medias" : [
                          {
                            "id" : 660,
                            "_type" : "Group",
                            "parameters" : {
                              "translation0" : {
                                "type" : "double",
                                "defaultValue" : 0.0,
                                "keyframes" : [
                                  {
                                    "endTime" : 552720000,
                                    "time" : 0,
                                    "value" : 0.0,
                                    "interp" : "eioe",
                                    "duration" : 552720000
                                  },
                                  {
                                    "endTime" : 1775760000,
                                    "time" : 1375920000,
                                    "value" : 0.0,
                                    "interp" : "eioe",
                                    "duration" : 399840000
                                  }
                                ]
                              },
                              "translation1" : {
                                "type" : "double",
                                "defaultValue" : -305.610046386719,
                                "keyframes" : [
                                  {
                                    "endTime" : 552720000,
                                    "time" : 0,
                                    "value" : 0.0,
                                    "interp" : "eioe",
                                    "duration" : 552720000
                                  },
                                  {
                                    "endTime" : 1775760000,
                                    "time" : 1375920000,
                                    "value" : -304.610046386719,
                                    "interp" : "eioe",
                                    "duration" : 399840000
                                  }
                                ]
                              },
                              "sourceCrop0" : 0.0,
                              "sourceCrop1" : 0.0,
                              "sourceCrop2" : 0.0,
                              "sourceCrop3" : 0.0,
                              "geometryCrop0" : 0.0,
                              "geometryCrop1" : 0.0,
                              "geometryCrop2" : 0.0,
                              "geometryCrop3" : 0.0,
                              "volume" : 1.0
                            },
                            "tracks" : [
                              {
                                "trackIndex" : 0,
                                "medias" : [
                                  {
                                    "id" : 661,
                                    "_type" : "Group",
                                    "parameters" : {
                                      "sourceCrop0" : 0.0,
                                      "sourceCrop1" : 0.0,
                                      "sourceCrop2" : 0.0,
                                      "sourceCrop3" : 0.0,
                                      "geometryCrop0" : 0.0,
                                      "geometryCrop1" : 0.0,
                                      "geometryCrop2" : 0.0,
                                      "geometryCrop3" : 0.0,
                                      "volume" : 1.0
                                    },
                                    "tracks" : [
                                      {
                                        "trackIndex" : 0,
                                        "medias" : [
                                          {
                                            "id" : 662,
                                            "_type" : "Callout",
                                            "def" : {
                                              "kind" : "remix",
                                              "shape" : "shape-rectangle",
                                              "style" : "bold",
                                              "fill-color-blue" : 1.0,
                                              "fill-color-green" : 1.0,
                                              "fill-color-opacity" : 1.0,
                                              "fill-color-red" : 1.0,
                                              "hasDropShadow" : 0.0,
                                              "height" : 163.002035140991,
                                              "savedXScale" : 1.0,
                                              "savedYScale" : 1.0,
                                              "stroke-color-blue" : 1.0,
                                              "stroke-color-green" : 1.0,
                                              "stroke-color-opacity" : 1.0,
                                              "stroke-color-red" : 1.0,
                                              "stroke-width" : 0.0,
                                              "width" : 1403.00212860107,
                                              "custom" : "Y",
                                              "fill-style" : "solid",
                                              "stroke-style" : "solid"
                                            },
                                            "attributes" : {
                                              "ident" : "",
                                              "autoRotateText" : true
                                            },
                                            "parameters" : {
                                              "anchor0" : -1.0,
                                              "anchor1" : 2.0,
                                              "sourceCrop0" : 0.0,
                                              "sourceCrop1" : 0.0,
                                              "sourceCrop2" : 0.0,
                                              "sourceCrop3" : 0.0,
                                              "geometryCrop0" : 0.0,
                                              "geometryCrop1" : 0.0,
                                              "geometryCrop2" : 0.0,
                                              "geometryCrop3" : 0.0
                                            },
                                            "effects" : [

                                            ],
                                            "start" : 0,
                                            "duration" : 3528000000,
                                            "mediaStart" : 0,
                                            "mediaDuration" : 3528000000,
                                            "scalar" : 1,
                                            "metadata" : {
                                              "AppliedThemeId" : "",
                                              "clipSpeedAttribute" : false,
                                              "effectApplied" : "none",
                                              "lockAspectRatio" : false
                                            },
                                            "animationTracks" : {

                                            }
                                          }
                                        ],
                                          "ident" : "",
                                          "audioMuted" : false,
                                          "videoHidden" : false,
                                          "magnetic" : false,
                                          "matte" : 0,
                                          "solo" : false,
                                          "metadata" : {
                                            "IsLocked" : "False",
                                            "WinTrackHeight" : "56",
                                            "trackHeight" : "54"
                                          }
                                      },
                                      {
                                        "trackIndex" : 1,
                                        "medias" : [
                                          {
                                            "id" : 663,
                                            "_type" : "Callout",
                                            "def" : {
                                              "kind" : "remix",
                                              "shape" : "shape-rectangle",
                                              "style" : "bold",
                                              "fill-color-blue" : 0.756862759590149,
                                              "fill-color-green" : 0.18823529779911,
                                              "fill-color-opacity" : 1.0,
                                              "fill-color-red" : 0.960784316062927,
                                              "hasDropShadow" : 0.0,
                                              "height" : 160.0,
                                              "savedXScale" : 1.0,
                                              "savedYScale" : 1.0,
                                              "stroke-color-blue" : 0.886274516582489,
                                              "stroke-color-green" : 0.200000002980232,
                                              "stroke-color-opacity" : 0.0,
                                              "stroke-color-red" : 0.376470595598221,
                                              "stroke-width" : 0.0,
                                              "width" : 1400.0,
                                              "custom" : "Y",
                                              "fill-style" : "solid",
                                              "stroke-style" : "solid"
                                            },
                                            "attributes" : {
                                              "ident" : "",
                                              "autoRotateText" : true
                                            },
                                            "parameters" : {
                                              "sourceCrop0" : 0.0,
                                              "sourceCrop1" : 0.0,
                                              "sourceCrop2" : 0.0,
                                              "sourceCrop3" : 0.0,
                                              "geometryCrop0" : 0.0,
                                              "geometryCrop1" : 0.0,
                                              "geometryCrop2" : 0.0,
                                              "geometryCrop3" : 0.0
                                            },
                                            "effects" : [

                                            ],
                                            "start" : 0,
                                            "duration" : 3528000000,
                                            "mediaStart" : 0,
                                            "mediaDuration" : 3528000000,
                                            "scalar" : 1,
                                            "metadata" : {
                                              "AppliedThemeId" : "",
                                              "clipSpeedAttribute" : false,
                                              "effectApplied" : "none"
                                            },
                                            "animationTracks" : {

                                            }
                                          }
                                        ],
                                          "ident" : "",
                                          "audioMuted" : false,
                                          "videoHidden" : false,
                                          "magnetic" : false,
                                          "matte" : 1,
                                          "solo" : false,
                                          "metadata" : {
                                            "IsLocked" : "False",
                                            "WinTrackHeight" : "56",
                                            "trackHeight" : "54"
                                          }
                                      }
                                    ],
                                    "attributes" : {
                                      "ident" : "Fill-1400x160",
                                      "widthAttr" : 1405.0,
                                      "heightAttr" : 167.002,
                                      "gain" : 1.0,
                                      "mixToMono" : false
                                    },
                                    "effects" : [

                                    ],
                                    "start" : 0,
                                    "duration" : 3528000000,
                                    "mediaStart" : 0.0,
                                    "mediaDuration" : 3528000000.0,
                                    "scalar" : 1,
                                    "metadata" : {
                                      "clipSpeedAttribute" : false,
                                      "effectApplied" : "none",
                                      "isOpen" : false,
                                      "lockAspectRatio" : true
                                    },
                                    "animationTracks" : {

                                    }
                                  }
                                ],
                                  "ident" : "",
                                  "audioMuted" : false,
                                  "videoHidden" : false,
                                  "magnetic" : false,
                                  "matte" : 0,
                                  "solo" : false,
                                  "metadata" : {
                                    "IsLocked" : "False",
                                    "WinTrackHeight" : "56",
                                    "trackHeight" : "54"
                                  }
                              },
                              {
                                "trackIndex" : 1,
                                "medias" : [
                                  {
                                    "id" : 664,
                                    "_type" : "Callout",
                                    "def" : {
                                      "kind" : "remix",
                                      "shape" : "text",
                                      "style" : "urban",
                                      "enable-ligatures" : 1.0,
                                      "hasDropShadow" : 0.0,
                                      "height" : 170.0,
                                      "line-spacing" : 0.0,
                                      "savedXScale" : 1.0,
                                      "savedYScale" : 1.0,
                                      "width" : 1400.0,
                                      "word-wrap" : 1.0,
                                      "custom" : "Y",
                                      "horizontal-alignment" : "left",
                                      "resize-behavior" : "resizeText",
                                      "text" : "clear dropdowns from cells",
                                      "vertical-alignment" : "center",
                                      "font" : {
                                        "color-blue" : 1.0,
                                        "color-green" : 1.0,
                                        "color-red" : 1.0,
                                        "size" : 96.0,
                                        "tracking" : 0.0,
                                        "name" : "Dosis",
                                        "weight" : "Semi Bold"
                                      },
                                      "textAttributes" : {
                                        "type" : "textAttributeList",
                                        "keyframes" : [
                                          {
                                            "endTime" : 0,
                                            "time" : 0,
                                            "value" : [{"name":"underline","rangeEnd":26,"rangeStart":0,"value":0,"valueType":"int"},{"name":"strikethrough","rangeEnd":26,"rangeStart":0,"value":0,"valueType":"int"},{"name":"fontName","rangeEnd":26,"rangeStart":0,"value":"Roboto","valueType":"string"},{"name":"kerning","rangeEnd":26,"rangeStart":0,"value":0.049883078231292483,"valueType":"double"},{"name":"fontItalic","rangeEnd":26,"rangeStart":0,"value":0,"valueType":"int"},{"name":"fontWeight","rangeEnd":26,"rangeStart":0,"value":700,"valueType":"int"},{"name":"fontSize","rangeEnd":26,"rangeStart":0,"value":86,"valueType":"double"},{"name":"fgColor","rangeEnd":26,"rangeStart":0,"value":"(110,110,110,255)","valueType":"color"}],
                                            "duration" : 0
                                          }
                                        ]
                                      }
                                    },
                                    "attributes" : {
                                      "ident" : "",
                                      "autoRotateText" : true
                                    },
                                    "parameters" : {
                                      "translation1" : -2.0,
                                      "sourceCrop0" : 0.0,
                                      "sourceCrop1" : 0.0,
                                      "sourceCrop2" : 0.0,
                                      "sourceCrop3" : 0.0,
                                      "geometryCrop0" : 0.0,
                                      "geometryCrop1" : 0.0,
                                      "geometryCrop2" : 0.0,
                                      "geometryCrop3" : 0.0
                                    },
                                    "effects" : [

                                    ],
                                    "start" : 0,
                                    "duration" : 3528000000,
                                    "mediaStart" : 0,
                                    "mediaDuration" : 3528000000,
                                    "scalar" : 1,
                                    "metadata" : {
                                      "AppliedThemeId" : "",
                                      "clipSpeedAttribute" : false,
                                      "effectApplied" : "none",
                                      "lockAspectRatio" : false
                                    },
                                    "animationTracks" : {

                                    }
                                  }
                                ],
                                  "ident" : "",
                                  "audioMuted" : false,
                                  "videoHidden" : false,
                                  "magnetic" : false,
                                  "matte" : 0,
                                  "solo" : false,
                                  "metadata" : {
                                    "IsLocked" : "False",
                                    "WinTrackHeight" : "56",
                                    "trackHeight" : "54"
                                  }
                              }
                            ],
                            "attributes" : {
                              "ident" : "BP-Title-11",
                              "widthAttr" : 1405.0,
                              "heightAttr" : 167.002,
                              "gain" : 1.0,
                              "mixToMono" : false,
                              "assetProperties" : [
                                {
                                  "type" : 0,
                                  "name" : "Title",
                                  "objects" : [ 664 ],
                                  "themeMappings" :  {
                                    "font-color" : "foreground-1"
                                  }
                                },
                                {
                                  "type" : 1,
                                  "name" : "Fill",
                                  "objects" : [ 662 ],
                                  "themeMappings" :  {
                                    "fill" : "background-1"
                                  }
                                }
                              ]
                            },
                            "effects" : [

                            ],
                            "start" : 0,
                            "duration" : 3528000000,
                            "mediaStart" : 0.0,
                            "mediaDuration" : 3528000000.0,
                            "scalar" : 1,
                            "metadata" : {
                              "clipSpeedAttribute" : false,
                              "effectApplied" : "none",
                              "isOpen" : false,
                              "lockAspectRatio" : true
                            },
                            "animationTracks" : {
                              "visual" : [
                                {
                                  "endTime" : 552720000,
                                  "duration" : 552720000,
                                  "range" : [ 0, 552720000],
                                  "interp" : "eioe"
                                },
                                {
                                  "endTime" : 1775760000,
                                  "duration" : 399840000,
                                  "range" : [ 1375920000, 399840000],
                                  "interp" : "eioe"
                                }
                              ]
                            }
                          }
                        ],
                          "ident" : "",
                          "audioMuted" : false,
                          "videoHidden" : false,
                          "magnetic" : false,
                          "matte" : 0,
                          "solo" : false,
                          "metadata" : {
                            "IsLocked" : "False",
                            "WinTrackHeight" : "56",
                            "trackHeight" : "54"
                          }
                      },
                      {
                        "trackIndex" : 1,
                        "medias" : [
                          {
                            "id" : 665,
                            "_type" : "Group",
                            "parameters" : {
                              "translation0" : {
                                "type" : "double",
                                "defaultValue" : 0.0,
                                "keyframes" : [
                                  {
                                    "endTime" : 552720000,
                                    "time" : 0,
                                    "value" : 0.0,
                                    "interp" : "eioe",
                                    "duration" : 552720000
                                  },
                                  {
                                    "endTime" : 1775760000,
                                    "time" : 1375920000,
                                    "value" : 0.0,
                                    "interp" : "eioe",
                                    "duration" : 399840000
                                  }
                                ]
                              },
                              "translation1" : {
                                "type" : "double",
                                "defaultValue" : -144.610046386719,
                                "keyframes" : [
                                  {
                                    "endTime" : 552720000,
                                    "time" : 0,
                                    "value" : 0.0,
                                    "interp" : "eioe",
                                    "duration" : 552720000
                                  },
                                  {
                                    "endTime" : 1775760000,
                                    "time" : 1375920000,
                                    "value" : -144.610046386719,
                                    "interp" : "eioe",
                                    "duration" : 399840000
                                  }
                                ]
                              },
                              "sourceCrop0" : 0.0,
                              "sourceCrop1" : 0.0,
                              "sourceCrop2" : 0.0,
                              "sourceCrop3" : 0.0,
                              "geometryCrop0" : 0.0,
                              "geometryCrop1" : 0.0,
                              "geometryCrop2" : 0.0,
                              "geometryCrop3" : 0.0,
                              "opacity" : {
                                "type" : "double",
                                "defaultValue" : 1.0,
                                "keyframes" : [
                                  {
                                    "endTime" : 552720000,
                                    "time" : 0,
                                    "value" : 1.0,
                                    "interp" : "eioe",
                                    "duration" : 552720000
                                  }
                                ]
                              },
                              "volume" : 1.0
                            },
                            "tracks" : [
                              {
                                "trackIndex" : 0,
                                "medias" : [
                                  {
                                    "id" : 666,
                                    "_type" : "Callout",
                                    "def" : {
                                      "kind" : "remix",
                                      "shape" : "shape-rectangle",
                                      "style" : "bold",
                                      "fill-color-blue" : 0.913725490196078,
                                      "fill-color-green" : 0.949019607843137,
                                      "fill-color-opacity" : 1.0,
                                      "fill-color-red" : 0.933333333333333,
                                      "hasDropShadow" : 0.0,
                                      "height" : 163.002035140991,
                                      "savedXScale" : 1.0,
                                      "savedYScale" : 1.0,
                                      "stroke-color-blue" : 1.0,
                                      "stroke-color-green" : 1.0,
                                      "stroke-color-opacity" : 1.0,
                                      "stroke-color-red" : 1.0,
                                      "stroke-width" : 0.0,
                                      "width" : 1403.00212860107,
                                      "custom" : "Y",
                                      "fill-style" : "solid",
                                      "stroke-style" : "solid"
                                    },
                                    "attributes" : {
                                      "ident" : "",
                                      "autoRotateText" : true
                                    },
                                    "parameters" : {
                                      "anchor0" : -1.0,
                                      "anchor1" : 2.0,
                                      "sourceCrop0" : 0.0,
                                      "sourceCrop1" : 0.0,
                                      "sourceCrop2" : 0.0,
                                      "sourceCrop3" : 0.0,
                                      "geometryCrop0" : 0.0,
                                      "geometryCrop1" : 0.0,
                                      "geometryCrop2" : 0.0,
                                      "geometryCrop3" : 0.0
                                    },
                                    "effects" : [

                                    ],
                                    "start" : 0,
                                    "duration" : 3528000000,
                                    "mediaStart" : 0,
                                    "mediaDuration" : 3528000000,
                                    "scalar" : 1,
                                    "metadata" : {
                                      "AppliedThemeId" : "",
                                      "clipSpeedAttribute" : false,
                                      "effectApplied" : "none",
                                      "lockAspectRatio" : false
                                    },
                                    "animationTracks" : {

                                    }
                                  }
                                ],
                                  "ident" : "",
                                  "audioMuted" : false,
                                  "videoHidden" : false,
                                  "magnetic" : false,
                                  "matte" : 0,
                                  "solo" : false,
                                  "metadata" : {
                                    "IsLocked" : "False",
                                    "WinTrackHeight" : "56",
                                    "trackHeight" : "54"
                                  }
                              },
                              {
                                "trackIndex" : 1,
                                "medias" : [
                                  {
                                    "id" : 667,
                                    "_type" : "Callout",
                                    "def" : {
                                      "kind" : "remix",
                                      "shape" : "shape-rectangle",
                                      "style" : "bold",
                                      "fill-color-blue" : 0.756862759590149,
                                      "fill-color-green" : 0.18823529779911,
                                      "fill-color-opacity" : 1.0,
                                      "fill-color-red" : 0.960784316062927,
                                      "hasDropShadow" : 0.0,
                                      "height" : 160.0,
                                      "savedXScale" : 1.0,
                                      "savedYScale" : 1.0,
                                      "stroke-color-blue" : 0.886274516582489,
                                      "stroke-color-green" : 0.200000002980232,
                                      "stroke-color-opacity" : 0.0,
                                      "stroke-color-red" : 0.376470595598221,
                                      "stroke-width" : 0.0,
                                      "width" : 1400.0,
                                      "custom" : "Y",
                                      "fill-style" : "solid",
                                      "stroke-style" : "solid"
                                    },
                                    "attributes" : {
                                      "ident" : "",
                                      "autoRotateText" : true
                                    },
                                    "parameters" : {
                                      "sourceCrop0" : 0.0,
                                      "sourceCrop1" : 0.0,
                                      "sourceCrop2" : 0.0,
                                      "sourceCrop3" : 0.0,
                                      "geometryCrop0" : 0.0,
                                      "geometryCrop1" : 0.0,
                                      "geometryCrop2" : 0.0,
                                      "geometryCrop3" : 0.0
                                    },
                                    "effects" : [

                                    ],
                                    "start" : 0,
                                    "duration" : 3528000000,
                                    "mediaStart" : 0,
                                    "mediaDuration" : 3528000000,
                                    "scalar" : 1,
                                    "metadata" : {
                                      "AppliedThemeId" : "",
                                      "clipSpeedAttribute" : false,
                                      "effectApplied" : "none"
                                    },
                                    "animationTracks" : {

                                    }
                                  }
                                ],
                                  "ident" : "",
                                  "audioMuted" : false,
                                  "videoHidden" : false,
                                  "magnetic" : false,
                                  "matte" : 1,
                                  "solo" : false,
                                  "metadata" : {
                                    "IsLocked" : "False",
                                    "WinTrackHeight" : "56",
                                    "trackHeight" : "54"
                                  }
                              }
                            ],
                            "attributes" : {
                              "ident" : "Rect-1400x1600-Mask",
                              "widthAttr" : 1405.0,
                              "heightAttr" : 167.002,
                              "gain" : 1.0,
                              "mixToMono" : false
                            },
                            "effects" : [

                            ],
                            "start" : 0,
                            "duration" : 3528000000,
                            "mediaStart" : 0.0,
                            "mediaDuration" : 3528000000.0,
                            "scalar" : 1,
                            "metadata" : {
                              "clipSpeedAttribute" : false,
                              "effectApplied" : "none",
                              "isOpen" : false,
                              "lockAspectRatio" : true
                            },
                            "animationTracks" : {
                              "visual" : [
                                {
                                  "endTime" : 552720000,
                                  "duration" : 552720000,
                                  "range" : [ 0, 552720000],
                                  "interp" : "eioe"
                                },
                                {
                                  "endTime" : 1775760000,
                                  "duration" : 399840000,
                                  "range" : [ 1375920000, 399840000],
                                  "interp" : "eioe"
                                }
                              ]
                            }
                          }
                        ],
                          "ident" : "",
                          "audioMuted" : false,
                          "videoHidden" : false,
                          "magnetic" : false,
                          "matte" : 1,
                          "solo" : false,
                          "metadata" : {
                            "IsLocked" : "False",
                            "WinTrackHeight" : "56",
                            "trackHeight" : "54"
                          }
                      },
                      {
                        "trackIndex" : 2,
                        "medias" : [
                          {
                            "id" : 668,
                            "_type" : "Group",
                            "parameters" : {
                              "translation0" : {
                                "type" : "double",
                                "defaultValue" : 0.0,
                                "keyframes" : [
                                  {
                                    "endTime" : 552720000,
                                    "time" : 0,
                                    "value" : 0.0,
                                    "interp" : "eioe",
                                    "duration" : 552720000
                                  },
                                  {
                                    "endTime" : 1775760000,
                                    "time" : 1375920000,
                                    "value" : 0.0,
                                    "interp" : "eioe",
                                    "duration" : 399840000
                                  }
                                ]
                              },
                              "translation1" : {
                                "type" : "double",
                                "defaultValue" : -233.610046386719,
                                "keyframes" : [
                                  {
                                    "endTime" : 552720000,
                                    "time" : 0,
                                    "value" : 90.0,
                                    "interp" : "eioe",
                                    "duration" : 552720000
                                  },
                                  {
                                    "endTime" : 1775760000,
                                    "time" : 1375920000,
                                    "value" : -233.610046386719,
                                    "interp" : "eioe",
                                    "duration" : 399840000
                                  }
                                ]
                              },
                              "sourceCrop0" : 0.0,
                              "sourceCrop1" : 0.0,
                              "sourceCrop2" : 0.0,
                              "sourceCrop3" : 0.0,
                              "geometryCrop0" : 0.0,
                              "geometryCrop1" : 0.0,
                              "geometryCrop2" : 0.0,
                              "geometryCrop3" : 0.0,
                              "opacity" : {
                                "type" : "double",
                                "defaultValue" : 1.0,
                                "keyframes" : [
                                  {
                                    "endTime" : 552720000,
                                    "time" : 0,
                                    "value" : 1.0,
                                    "interp" : "eioe",
                                    "duration" : 552720000
                                  }
                                ]
                              },
                              "volume" : 1.0
                            },
                            "tracks" : [
                              {
                                "trackIndex" : 0,
                                "medias" : [
                                  {
                                    "id" : 669,
                                    "_type" : "Callout",
                                    "def" : {
                                      "kind" : "remix",
                                      "shape" : "shape-rectangle",
                                      "style" : "bold",
                                      "fill-color-blue" : 0.2196078431,
                                      "fill-color-green" : 0.8745098039,
                                      "fill-color-opacity" : 1.0,
                                      "fill-color-red" : 1.0,
                                      "hasDropShadow" : 0.0,
                                      "height" : 163.002035140991,
                                      "savedXScale" : 1.0,
                                      "savedYScale" : 1.0,
                                      "stroke-color-blue" : 1.0,
                                      "stroke-color-green" : 1.0,
                                      "stroke-color-opacity" : 1.0,
                                      "stroke-color-red" : 1.0,
                                      "stroke-width" : 0.0,
                                      "width" : 1403.00212860107,
                                      "custom" : "Y",
                                      "fill-style" : "solid",
                                      "stroke-style" : "solid"
                                    },
                                    "attributes" : {
                                      "ident" : "",
                                      "autoRotateText" : true
                                    },
                                    "parameters" : {
                                      "anchor0" : -1.0,
                                      "anchor1" : 2.0,
                                      "sourceCrop0" : 0.0,
                                      "sourceCrop1" : 0.0,
                                      "sourceCrop2" : 0.0,
                                      "sourceCrop3" : 0.0,
                                      "geometryCrop0" : 0.0,
                                      "geometryCrop1" : 0.0,
                                      "geometryCrop2" : 0.0,
                                      "geometryCrop3" : 0.0
                                    },
                                    "effects" : [

                                    ],
                                    "start" : 0,
                                    "duration" : 3528000000,
                                    "mediaStart" : 0,
                                    "mediaDuration" : 3528000000,
                                    "scalar" : 1,
                                    "metadata" : {
                                      "AppliedThemeId" : "",
                                      "clipSpeedAttribute" : false,
                                      "effectApplied" : "none",
                                      "lockAspectRatio" : false
                                    },
                                    "animationTracks" : {

                                    }
                                  }
                                ],
                                  "ident" : "",
                                  "audioMuted" : false,
                                  "videoHidden" : false,
                                  "magnetic" : false,
                                  "matte" : 0,
                                  "solo" : false,
                                  "metadata" : {
                                    "IsLocked" : "False",
                                    "WinTrackHeight" : "56",
                                    "trackHeight" : "54"
                                  }
                              },
                              {
                                "trackIndex" : 1,
                                "medias" : [
                                  {
                                    "id" : 670,
                                    "_type" : "Callout",
                                    "def" : {
                                      "kind" : "remix",
                                      "shape" : "shape-rectangle",
                                      "style" : "bold",
                                      "fill-color-blue" : 0.756862759590149,
                                      "fill-color-green" : 0.18823529779911,
                                      "fill-color-opacity" : 1.0,
                                      "fill-color-red" : 0.960784316062927,
                                      "hasDropShadow" : 0.0,
                                      "height" : 160.0,
                                      "savedXScale" : 1.0,
                                      "savedYScale" : 1.0,
                                      "stroke-color-blue" : 0.886274516582489,
                                      "stroke-color-green" : 0.200000002980232,
                                      "stroke-color-opacity" : 0.0,
                                      "stroke-color-red" : 0.376470595598221,
                                      "stroke-width" : 0.0,
                                      "width" : 1400.0,
                                      "custom" : "Y",
                                      "fill-style" : "solid",
                                      "stroke-style" : "solid"
                                    },
                                    "attributes" : {
                                      "ident" : "",
                                      "autoRotateText" : true
                                    },
                                    "parameters" : {
                                      "translation1" : {
                                        "type" : "double",
                                        "defaultValue" : -1.0,
                                        "keyframes" : [
                                          {
                                            "endTime" : 270480000,
                                            "time" : 0,
                                            "value" : 0.0,
                                            "duration" : 270480000
                                          }
                                        ]
                                      },
                                      "scale0" : {
                                        "type" : "double",
                                        "defaultValue" : 1.0,
                                        "keyframes" : [
                                          {
                                            "endTime" : 270480000,
                                            "time" : 0,
                                            "value" : 1.0,
                                            "duration" : 270480000
                                          }
                                        ]
                                      },
                                      "scale1" : {
                                        "type" : "double",
                                        "defaultValue" : 0.125,
                                        "keyframes" : [
                                          {
                                            "endTime" : 270480000,
                                            "time" : 0,
                                            "value" : 0.5,
                                            "duration" : 270480000
                                          },
                                          {
                                            "endTime" : 552720000,
                                            "time" : 282240000,
                                            "value" : 0.125,
                                            "duration" : 270480000
                                          }
                                        ]
                                      },
                                      "sourceCrop0" : 0.0,
                                      "sourceCrop1" : 0.0,
                                      "sourceCrop2" : 0.0,
                                      "sourceCrop3" : 0.0,
                                      "geometryCrop0" : 0.0,
                                      "geometryCrop1" : 0.0,
                                      "geometryCrop2" : 0.0,
                                      "geometryCrop3" : 0.0
                                    },
                                    "effects" : [

                                    ],
                                    "start" : 0,
                                    "duration" : 3528000000,
                                    "mediaStart" : 0,
                                    "mediaDuration" : 3528000000,
                                    "scalar" : 1,
                                    "metadata" : {
                                      "AppliedThemeId" : "",
                                      "clipSpeedAttribute" : false,
                                      "effectApplied" : "none"
                                    },
                                    "animationTracks" : {
                                      "visual" : [
                                        {
                                          "endTime" : 270480000,
                                          "duration" : 270480000,
                                          "range" : [ 0, 270480000]
                                        },
                                        {
                                          "endTime" : 552720000,
                                          "duration" : 270480000,
                                          "range" : [ 282240000, 270480000]
                                        }
                                      ]
                                    }
                                  }
                                ],
                                  "ident" : "",
                                  "audioMuted" : false,
                                  "videoHidden" : false,
                                  "magnetic" : false,
                                  "matte" : 1,
                                  "solo" : false,
                                  "metadata" : {
                                    "IsLocked" : "False",
                                    "WinTrackHeight" : "56",
                                    "trackHeight" : "54"
                                  }
                              }
                            ],
                            "attributes" : {
                              "ident" : "Animated-Pulse-1400x20-To-1400x80",
                              "widthAttr" : 1405.0,
                              "heightAttr" : 167.002,
                              "gain" : 1.0,
                              "mixToMono" : false,
                              "assetProperties" : [
                                {
                                  "type" : 1,
                                  "name" : "Color",
                                  "objects" : [ 669 ],
                                  "themeMappings" :  {
                                    "fill" : "accent-1"
                                  }
                                }
                              ]
                            },
                            "effects" : [

                            ],
                            "start" : 0,
                            "duration" : 3528000000,
                            "mediaStart" : 0.0,
                            "mediaDuration" : 3528000000.0,
                            "scalar" : 1,
                            "metadata" : {
                              "AppliedThemeId" : "8e797988-b823-4beb-b251-1d31b461ba07",
                              "clipSpeedAttribute" : false,
                              "effectApplied" : "none",
                              "isOpen" : false,
                              "lockAspectRatio" : true
                            },
                            "animationTracks" : {
                              "visual" : [
                                {
                                  "endTime" : 552720000,
                                  "duration" : 552720000,
                                  "range" : [ 0, 552720000],
                                  "interp" : "eioe"
                                },
                                {
                                  "endTime" : 1775760000,
                                  "duration" : 399840000,
                                  "range" : [ 1375920000, 399840000],
                                  "interp" : "eioe"
                                }
                              ]
                            }
                          }
                        ],
                          "ident" : "",
                          "audioMuted" : false,
                          "videoHidden" : false,
                          "magnetic" : false,
                          "matte" : 0,
                          "solo" : false,
                          "metadata" : {
                            "IsLocked" : "False",
                            "WinTrackHeight" : "56",
                            "trackHeight" : "54"
                          }
                      },
                      {
                        "trackIndex" : 3,
                        "medias" : [
                          {
                            "id" : 671,
                            "_type" : "Group",
                            "parameters" : {
                              "translation0" : {
                                "type" : "double",
                                "defaultValue" : 0.0,
                                "keyframes" : [
                                  {
                                    "endTime" : 552720000,
                                    "time" : 0,
                                    "value" : 0.0,
                                    "interp" : "eioe",
                                    "duration" : 552720000
                                  },
                                  {
                                    "endTime" : 1775760000,
                                    "time" : 1375920000,
                                    "value" : 0.0,
                                    "interp" : "eioe",
                                    "duration" : 399840000
                                  }
                                ]
                              },
                              "translation1" : {
                                "type" : "double",
                                "defaultValue" : -143.610046386719,
                                "keyframes" : [
                                  {
                                    "endTime" : 552720000,
                                    "time" : 0,
                                    "value" : 0.0,
                                    "interp" : "eioe",
                                    "duration" : 552720000
                                  },
                                  {
                                    "endTime" : 1775760000,
                                    "time" : 1375920000,
                                    "value" : -143.610046386719,
                                    "interp" : "eioe",
                                    "duration" : 399840000
                                  }
                                ]
                              },
                              "sourceCrop0" : 0.0,
                              "sourceCrop1" : 0.0,
                              "sourceCrop2" : 0.0,
                              "sourceCrop3" : 0.0,
                              "geometryCrop0" : 0.0,
                              "geometryCrop1" : 0.0,
                              "geometryCrop2" : 0.0,
                              "geometryCrop3" : 0.0,
                              "opacity" : {
                                "type" : "double",
                                "defaultValue" : 1.0,
                                "keyframes" : [
                                  {
                                    "endTime" : 552720000,
                                    "time" : 0,
                                    "value" : 1.0,
                                    "interp" : "eioe",
                                    "duration" : 552720000
                                  }
                                ]
                              },
                              "volume" : 1.0
                            },
                            "tracks" : [
                              {
                                "trackIndex" : 0,
                                "medias" : [
                                  {
                                    "id" : 672,
                                    "_type" : "Callout",
                                    "def" : {
                                      "kind" : "remix",
                                      "shape" : "shape-rectangle",
                                      "style" : "bold",
                                      "fill-color-blue" : 0.913725490196078,
                                      "fill-color-green" : 0.949019607843137,
                                      "fill-color-opacity" : 1.0,
                                      "fill-color-red" : 0.933333333333333,
                                      "hasDropShadow" : 0.0,
                                      "height" : 163.002035140991,
                                      "savedXScale" : 1.0,
                                      "savedYScale" : 1.0,
                                      "stroke-color-blue" : 1.0,
                                      "stroke-color-green" : 1.0,
                                      "stroke-color-opacity" : 1.0,
                                      "stroke-color-red" : 1.0,
                                      "stroke-width" : 0.0,
                                      "width" : 1403.00212860107,
                                      "custom" : "Y",
                                      "fill-style" : "solid",
                                      "stroke-style" : "solid"
                                    },
                                    "attributes" : {
                                      "ident" : "",
                                      "autoRotateText" : true
                                    },
                                    "parameters" : {
                                      "anchor0" : -1.0,
                                      "anchor1" : 2.0,
                                      "sourceCrop0" : 0.0,
                                      "sourceCrop1" : 0.0,
                                      "sourceCrop2" : 0.0,
                                      "sourceCrop3" : 0.0,
                                      "geometryCrop0" : 0.0,
                                      "geometryCrop1" : 0.0,
                                      "geometryCrop2" : 0.0,
                                      "geometryCrop3" : 0.0
                                    },
                                    "effects" : [

                                    ],
                                    "start" : 0,
                                    "duration" : 3528000000,
                                    "mediaStart" : 0,
                                    "mediaDuration" : 3528000000,
                                    "scalar" : 1,
                                    "metadata" : {
                                      "AppliedThemeId" : "",
                                      "clipSpeedAttribute" : false,
                                      "effectApplied" : "none",
                                      "lockAspectRatio" : false
                                    },
                                    "animationTracks" : {

                                    }
                                  }
                                ],
                                  "ident" : "",
                                  "audioMuted" : false,
                                  "videoHidden" : false,
                                  "magnetic" : false,
                                  "matte" : 0,
                                  "solo" : false,
                                  "metadata" : {
                                    "IsLocked" : "False",
                                    "WinTrackHeight" : "56",
                                    "trackHeight" : "54"
                                  }
                              },
                              {
                                "trackIndex" : 1,
                                "medias" : [
                                  {
                                    "id" : 673,
                                    "_type" : "Callout",
                                    "def" : {
                                      "kind" : "remix",
                                      "shape" : "shape-rectangle",
                                      "style" : "bold",
                                      "fill-color-blue" : 0.756862759590149,
                                      "fill-color-green" : 0.18823529779911,
                                      "fill-color-opacity" : 1.0,
                                      "fill-color-red" : 0.960784316062927,
                                      "hasDropShadow" : 0.0,
                                      "height" : 160.0,
                                      "savedXScale" : 1.0,
                                      "savedYScale" : 1.0,
                                      "stroke-color-blue" : 0.886274516582489,
                                      "stroke-color-green" : 0.200000002980232,
                                      "stroke-color-opacity" : 0.0,
                                      "stroke-color-red" : 0.376470595598221,
                                      "stroke-width" : 0.0,
                                      "width" : 1400.0,
                                      "custom" : "Y",
                                      "fill-style" : "solid",
                                      "stroke-style" : "solid"
                                    },
                                    "attributes" : {
                                      "ident" : "",
                                      "autoRotateText" : true
                                    },
                                    "parameters" : {
                                      "sourceCrop0" : 0.0,
                                      "sourceCrop1" : 0.0,
                                      "sourceCrop2" : 0.0,
                                      "sourceCrop3" : 0.0,
                                      "geometryCrop0" : 0.0,
                                      "geometryCrop1" : 0.0,
                                      "geometryCrop2" : 0.0,
                                      "geometryCrop3" : 0.0
                                    },
                                    "effects" : [

                                    ],
                                    "start" : 0,
                                    "duration" : 3528000000,
                                    "mediaStart" : 0,
                                    "mediaDuration" : 3528000000,
                                    "scalar" : 1,
                                    "metadata" : {
                                      "AppliedThemeId" : "",
                                      "clipSpeedAttribute" : false,
                                      "effectApplied" : "none"
                                    },
                                    "animationTracks" : {

                                    }
                                  }
                                ],
                                  "ident" : "",
                                  "audioMuted" : false,
                                  "videoHidden" : false,
                                  "magnetic" : false,
                                  "matte" : 1,
                                  "solo" : false,
                                  "metadata" : {
                                    "IsLocked" : "False",
                                    "WinTrackHeight" : "56",
                                    "trackHeight" : "54"
                                  }
                              }
                            ],
                            "attributes" : {
                              "ident" : "Rect-1400x1600-Mask",
                              "widthAttr" : 1405.0,
                              "heightAttr" : 167.002,
                              "gain" : 1.0,
                              "mixToMono" : false
                            },
                            "effects" : [

                            ],
                            "start" : 0,
                            "duration" : 3528000000,
                            "mediaStart" : 0.0,
                            "mediaDuration" : 3528000000.0,
                            "scalar" : 1,
                            "metadata" : {
                              "clipSpeedAttribute" : false,
                              "effectApplied" : "none",
                              "isOpen" : false,
                              "lockAspectRatio" : true
                            },
                            "animationTracks" : {
                              "visual" : [
                                {
                                  "endTime" : 552720000,
                                  "duration" : 552720000,
                                  "range" : [ 0, 552720000],
                                  "interp" : "eioe"
                                },
                                {
                                  "endTime" : 1775760000,
                                  "duration" : 399840000,
                                  "range" : [ 1375920000, 399840000],
                                  "interp" : "eioe"
                                }
                              ]
                            }
                          }
                        ],
                          "ident" : "",
                          "audioMuted" : false,
                          "videoHidden" : false,
                          "magnetic" : false,
                          "matte" : 1,
                          "solo" : false,
                          "metadata" : {
                            "IsLocked" : "False",
                            "WinTrackHeight" : "56",
                            "trackHeight" : "54"
                          }
                      }
                    ],
                    "attributes" : {
                      "ident" : "Broadcast-Title-012",
                      "widthAttr" : 1405.0,
                      "heightAttr" : 160.0,
                      "gain" : 1.0,
                      "mixToMono" : false,
                      "assetProperties" : [
                        {
                          "type" : 0,
                          "name" : "Title",
                          "objects" : [ 664 ],
                          "themeMappings" :  {
                            "font-color" : "foreground-1"
                          }
                        },
                        {
                          "type" : 1,
                          "name" : "Fill",
                          "objects" : [ 662 ],
                          "themeMappings" :  {
                            "fill" : "background-1"
                          }
                        },
                        {
                          "type" : 1,
                          "name" : "Wiper",
                          "objects" : [ 669 ],
                          "themeMappings" :  {
                            "fill" : "foreground-1"
                          }
                        }
                      ]
                    },
                    "effects" : [

                    ],
                    "start" : 1928640000,
                    "duration" : 1764000000,
                    "mediaStart" : 0.0,
                    "mediaDuration" : 1764000000.0,
                    "scalar" : 1,
                    "metadata" : {
                      "AppliedThemeId" : "170ba59c-db5d-4b9a-a310-e7e99853a4b7",
                      "clipSpeedAttribute" : false,
                      "default-anchor0" : 0.0,
                      "default-anchor1" : 0.0,
                      "default-anchor2" : 0.0,
                      "default-geometryCrop0" : 0.0,
                      "default-height" : 160.0,
                      "default-rotation0" : 0.0,
                      "default-rotation1" : 0.0,
                      "default-rotation2" : 0.0,
                      "default-scale0" : 1.0,
                      "default-scale1" : 1.0,
                      "default-scale2" : 1.0,
                      "default-shear0" : 0.0,
                      "default-shear1" : 0.0,
                      "default-shear2" : 0.0,
                      "default-translation0" : 0.0,
                      "default-translation1" : 0.0,
                      "default-translation2" : 0.0,
                      "default-width" : 1405.0,
                      "effectApplied" : "none",
                      "isOpen" : false,
                      "lockAspectRatio" : true
                    },
                    "animationTracks" : {

                    }
                  }
                ]
              },
              {
                "trackIndex" : 131,
                "medias" : [
                ]
              },
              {
                "trackIndex" : 132,
                "medias" : [
                ]
              },
              {
                "trackIndex" : 133,
                "medias" : [
                ]
              },
              {
                "trackIndex" : 134,
                "medias" : [
                ]
              },
              {
                "trackIndex" : 135,
                "medias" : [
                ]
              },
              {
                "trackIndex" : 136,
                "medias" : [
                ]
              },
              {
                "trackIndex" : 137,
                "medias" : [
                ]
              },
              {
                "trackIndex" : 138,
                "medias" : [
                ]
              },
              {
                "trackIndex" : 139,
                "medias" : [
                ]
              }            ]
          }
        }
      ]
    },
    "trackAttributes" : [
      {
        "ident" : "",
        "audioMuted" : false,
        "videoHidden" : false,
        "magnetic" : false,
        "matte" : 0,
        "solo" : false,
        "metadata" : {
          "IsLocked" : "False",
          "WinTrackHeight" : "20"
        }
      },
      {
        "ident" : "",
        "audioMuted" : false,
        "videoHidden" : false,
        "magnetic" : false,
        "matte" : 0,
        "solo" : false,
        "metadata" : {
          "IsLocked" : "False",
          "WinTrackHeight" : "20"
        }
      },
      {
        "ident" : "",
        "audioMuted" : false,
        "videoHidden" : false,
        "magnetic" : false,
        "matte" : 0,
        "solo" : false,
        "metadata" : {
          "IsLocked" : "False",
          "WinTrackHeight" : "20"
        }
      },
      {
        "ident" : "",
        "audioMuted" : false,
        "videoHidden" : false,
        "magnetic" : false,
        "matte" : 0,
        "solo" : false,
        "metadata" : {
          "IsLocked" : "False",
          "WinTrackHeight" : "20"
        }
      },
      {
        "ident" : "",
        "audioMuted" : false,
        "videoHidden" : false,
        "magnetic" : false,
        "matte" : 0,
        "solo" : false,
        "metadata" : {
          "IsLocked" : "False",
          "WinTrackHeight" : "20"
        }
      },
      {
        "ident" : "",
        "audioMuted" : false,
        "videoHidden" : false,
        "magnetic" : false,
        "matte" : 0,
        "solo" : false,
        "metadata" : {
          "IsLocked" : "False",
          "WinTrackHeight" : "20"
        }
      },
      {
        "ident" : "",
        "audioMuted" : false,
        "videoHidden" : false,
        "magnetic" : false,
        "matte" : 0,
        "solo" : false,
        "metadata" : {
          "IsLocked" : "False",
          "WinTrackHeight" : "20"
        }
      },
      {
        "ident" : "",
        "audioMuted" : false,
        "videoHidden" : false,
        "magnetic" : false,
        "matte" : 0,
        "solo" : false,
        "metadata" : {
          "IsLocked" : "False",
          "WinTrackHeight" : "20"
        }
      },
      {
        "ident" : "",
        "audioMuted" : false,
        "videoHidden" : false,
        "magnetic" : false,
        "matte" : 0,
        "solo" : false,
        "metadata" : {
          "IsLocked" : "False",
          "WinTrackHeight" : "20"
        }
      },
      {
        "ident" : "",
        "audioMuted" : false,
        "videoHidden" : false,
        "magnetic" : false,
        "matte" : 0,
        "solo" : false,
        "metadata" : {
          "IsLocked" : "False",
          "WinTrackHeight" : "20"
        }
      },
      {
        "ident" : "",
        "audioMuted" : false,
        "videoHidden" : false,
        "magnetic" : false,
        "matte" : 0,
        "solo" : false,
        "metadata" : {
          "IsLocked" : "False",
          "WinTrackHeight" : "20"
        }
      },
      {
        "ident" : "",
        "audioMuted" : false,
        "videoHidden" : false,
        "magnetic" : false,
        "matte" : 0,
        "solo" : false,
        "metadata" : {
          "IsLocked" : "False",
          "WinTrackHeight" : "20"
        }
      },
      {
        "ident" : "",
        "audioMuted" : false,
        "videoHidden" : false,
        "magnetic" : false,
        "matte" : 0,
        "solo" : false,
        "metadata" : {
          "IsLocked" : "False",
          "WinTrackHeight" : "20"
        }
      },
      {
        "ident" : "",
        "audioMuted" : false,
        "videoHidden" : false,
        "magnetic" : false,
        "matte" : 0,
        "solo" : false,
        "metadata" : {
          "IsLocked" : "False",
          "WinTrackHeight" : "20"
        }
      },
      {
        "ident" : "",
        "audioMuted" : false,
        "videoHidden" : false,
        "magnetic" : false,
        "matte" : 0,
        "solo" : false,
        "metadata" : {
          "IsLocked" : "False",
          "WinTrackHeight" : "20"
        }
      },
      {
        "ident" : "",
        "audioMuted" : false,
        "videoHidden" : false,
        "magnetic" : false,
        "matte" : 0,
        "solo" : false,
        "metadata" : {
          "IsLocked" : "False",
          "WinTrackHeight" : "20"
        }
      },
      {
        "ident" : "",
        "audioMuted" : false,
        "videoHidden" : false,
        "magnetic" : false,
        "matte" : 0,
        "solo" : false,
        "metadata" : {
          "IsLocked" : "False",
          "WinTrackHeight" : "20"
        }
      },
      {
        "ident" : "",
        "audioMuted" : false,
        "videoHidden" : false,
        "magnetic" : false,
        "matte" : 0,
        "solo" : false,
        "metadata" : {
          "IsLocked" : "False",
          "WinTrackHeight" : "20"
        }
      },
      {
        "ident" : "",
        "audioMuted" : false,
        "videoHidden" : false,
        "magnetic" : false,
        "matte" : 0,
        "solo" : false,
        "metadata" : {
          "IsLocked" : "False",
          "WinTrackHeight" : "20"
        }
      },
      {
        "ident" : "",
        "audioMuted" : false,
        "videoHidden" : false,
        "magnetic" : false,
        "matte" : 0,
        "solo" : false,
        "metadata" : {
          "IsLocked" : "False",
          "WinTrackHeight" : "20"
        }
      },
      {
        "ident" : "",
        "audioMuted" : false,
        "videoHidden" : false,
        "magnetic" : false,
        "matte" : 0,
        "solo" : false,
        "metadata" : {
          "IsLocked" : "False",
          "WinTrackHeight" : "20"
        }
      },
      {
        "ident" : "",
        "audioMuted" : false,
        "videoHidden" : false,
        "magnetic" : false,
        "matte" : 0,
        "solo" : false,
        "metadata" : {
          "IsLocked" : "False",
          "WinTrackHeight" : "20"
        }
      },
      {
        "ident" : "",
        "audioMuted" : false,
        "videoHidden" : false,
        "magnetic" : false,
        "matte" : 0,
        "solo" : false,
        "metadata" : {
          "IsLocked" : "False",
          "WinTrackHeight" : "20"
        }
      },
      {
        "ident" : "",
        "audioMuted" : false,
        "videoHidden" : false,
        "magnetic" : false,
        "matte" : 0,
        "solo" : false,
        "metadata" : {
          "IsLocked" : "False",
          "WinTrackHeight" : "20"
        }
      },
      {
        "ident" : "",
        "audioMuted" : false,
        "videoHidden" : false,
        "magnetic" : false,
        "matte" : 0,
        "solo" : false,
        "metadata" : {
          "IsLocked" : "False",
          "WinTrackHeight" : "20"
        }
      },
      {
        "ident" : "",
        "audioMuted" : false,
        "videoHidden" : false,
        "magnetic" : false,
        "matte" : 0,
        "solo" : false,
        "metadata" : {
          "IsLocked" : "False",
          "WinTrackHeight" : "20"
        }
      },
      {
        "ident" : "",
        "audioMuted" : false,
        "videoHidden" : false,
        "magnetic" : false,
        "matte" : 0,
        "solo" : false,
        "metadata" : {
          "IsLocked" : "False",
          "WinTrackHeight" : "20"
        }
      },
      {
        "ident" : "",
        "audioMuted" : false,
        "videoHidden" : false,
        "magnetic" : false,
        "matte" : 0,
        "solo" : false,
        "metadata" : {
          "IsLocked" : "False",
          "WinTrackHeight" : "20"
        }
      },
      {
        "ident" : "",
        "audioMuted" : false,
        "videoHidden" : false,
        "magnetic" : false,
        "matte" : 0,
        "solo" : false,
        "metadata" : {
          "IsLocked" : "False",
          "WinTrackHeight" : "20"
        }
      },
      {
        "ident" : "",
        "audioMuted" : false,
        "videoHidden" : false,
        "magnetic" : false,
        "matte" : 0,
        "solo" : false,
        "metadata" : {
          "IsLocked" : "False",
          "WinTrackHeight" : "20"
        }
      },
      {
        "ident" : "",
        "audioMuted" : false,
        "videoHidden" : false,
        "magnetic" : false,
        "matte" : 0,
        "solo" : false,
        "metadata" : {
          "IsLocked" : "False",
          "WinTrackHeight" : "20"
        }
      },
      {
        "ident" : "",
        "audioMuted" : false,
        "videoHidden" : false,
        "magnetic" : false,
        "matte" : 0,
        "solo" : false,
        "metadata" : {
          "IsLocked" : "False",
          "WinTrackHeight" : "20"
        }
      },
      {
        "ident" : "",
        "audioMuted" : false,
        "videoHidden" : false,
        "magnetic" : false,
        "matte" : 0,
        "solo" : false,
        "metadata" : {
          "IsLocked" : "False",
          "WinTrackHeight" : "20"
        }
      },
      {
        "ident" : "",
        "audioMuted" : false,
        "videoHidden" : false,
        "magnetic" : false,
        "matte" : 0,
        "solo" : false,
        "metadata" : {
          "IsLocked" : "False",
          "WinTrackHeight" : "20"
        }
      },
      {
        "ident" : "",
        "audioMuted" : false,
        "videoHidden" : false,
        "magnetic" : false,
        "matte" : 0,
        "solo" : false,
        "metadata" : {
          "IsLocked" : "False",
          "WinTrackHeight" : "20"
        }
      },
      {
        "ident" : "",
        "audioMuted" : false,
        "videoHidden" : false,
        "magnetic" : false,
        "matte" : 0,
        "solo" : false,
        "metadata" : {
          "IsLocked" : "False",
          "WinTrackHeight" : "20"
        }
      },
      {
        "ident" : "",
        "audioMuted" : false,
        "videoHidden" : false,
        "magnetic" : false,
        "matte" : 0,
        "solo" : false,
        "metadata" : {
          "IsLocked" : "False",
          "WinTrackHeight" : "20"
        }
      },
      {
        "ident" : "",
        "audioMuted" : false,
        "videoHidden" : false,
        "magnetic" : false,
        "matte" : 0,
        "solo" : false,
        "metadata" : {
          "IsLocked" : "False",
          "WinTrackHeight" : "20"
        }
      },
      {
        "ident" : "",
        "audioMuted" : false,
        "videoHidden" : false,
        "magnetic" : false,
        "matte" : 0,
        "solo" : false,
        "metadata" : {
          "IsLocked" : "False",
          "WinTrackHeight" : "20"
        }
      },
      {
        "ident" : "",
        "audioMuted" : false,
        "videoHidden" : false,
        "magnetic" : false,
        "matte" : 0,
        "solo" : false,
        "metadata" : {
          "IsLocked" : "False",
          "WinTrackHeight" : "20"
        }
      },
      {
        "ident" : "",
        "audioMuted" : false,
        "videoHidden" : false,
        "magnetic" : false,
        "matte" : 0,
        "solo" : false,
        "metadata" : {
          "IsLocked" : "False",
          "WinTrackHeight" : "20"
        }
      },
      {
        "ident" : "",
        "audioMuted" : false,
        "videoHidden" : false,
        "magnetic" : false,
        "matte" : 0,
        "solo" : false,
        "metadata" : {
          "IsLocked" : "False",
          "WinTrackHeight" : "20"
        }
      },
      {
        "ident" : "",
        "audioMuted" : false,
        "videoHidden" : false,
        "magnetic" : false,
        "matte" : 0,
        "solo" : false,
        "metadata" : {
          "IsLocked" : "False",
          "WinTrackHeight" : "20"
        }
      },
      {
        "ident" : "",
        "audioMuted" : false,
        "videoHidden" : false,
        "magnetic" : false,
        "matte" : 0,
        "solo" : false,
        "metadata" : {
          "IsLocked" : "False",
          "WinTrackHeight" : "20"
        }
      },
      {
        "ident" : "",
        "audioMuted" : false,
        "videoHidden" : false,
        "magnetic" : false,
        "matte" : 0,
        "solo" : false,
        "metadata" : {
          "IsLocked" : "False",
          "WinTrackHeight" : "20"
        }
      },
      {
        "ident" : "",
        "audioMuted" : false,
        "videoHidden" : false,
        "magnetic" : false,
        "matte" : 0,
        "solo" : false,
        "metadata" : {
          "IsLocked" : "False",
          "WinTrackHeight" : "20"
        }
      },
      {
        "ident" : "",
        "audioMuted" : false,
        "videoHidden" : false,
        "magnetic" : false,
        "matte" : 0,
        "solo" : false,
        "metadata" : {
          "IsLocked" : "False",
          "WinTrackHeight" : "20"
        }
      },
      {
        "ident" : "",
        "audioMuted" : false,
        "videoHidden" : false,
        "magnetic" : false,
        "matte" : 0,
        "solo" : false,
        "metadata" : {
          "IsLocked" : "False",
          "WinTrackHeight" : "20"
        }
      },
      {
        "ident" : "",
        "audioMuted" : false,
        "videoHidden" : false,
        "magnetic" : false,
        "matte" : 0,
        "solo" : false,
        "metadata" : {
          "IsLocked" : "False",
          "WinTrackHeight" : "20"
        }
      },
      {
        "ident" : "",
        "audioMuted" : false,
        "videoHidden" : false,
        "magnetic" : false,
        "matte" : 0,
        "solo" : false,
        "metadata" : {
          "IsLocked" : "False",
          "WinTrackHeight" : "20"
        }
      },
      {
        "ident" : "",
        "audioMuted" : false,
        "videoHidden" : false,
        "magnetic" : false,
        "matte" : 0,
        "solo" : false,
        "metadata" : {
          "IsLocked" : "False",
          "WinTrackHeight" : "20"
        }
      },
      {
        "ident" : "",
        "audioMuted" : false,
        "videoHidden" : false,
        "magnetic" : false,
        "matte" : 0,
        "solo" : false,
        "metadata" : {
          "IsLocked" : "False",
          "WinTrackHeight" : "20"
        }
      },
      {
        "ident" : "",
        "audioMuted" : false,
        "videoHidden" : false,
        "magnetic" : false,
        "matte" : 0,
        "solo" : false,
        "metadata" : {
          "IsLocked" : "False",
          "WinTrackHeight" : "20"
        }
      },
      {
        "ident" : "",
        "audioMuted" : false,
        "videoHidden" : false,
        "magnetic" : false,
        "matte" : 0,
        "solo" : false,
        "metadata" : {
          "IsLocked" : "False",
          "WinTrackHeight" : "20"
        }
      },
      {
        "ident" : "",
        "audioMuted" : false,
        "videoHidden" : false,
        "magnetic" : false,
        "matte" : 0,
        "solo" : false,
        "metadata" : {
          "IsLocked" : "False",
          "WinTrackHeight" : "20"
        }
      },
      {
        "ident" : "",
        "audioMuted" : false,
        "videoHidden" : false,
        "magnetic" : false,
        "matte" : 0,
        "solo" : false,
        "metadata" : {
          "IsLocked" : "False",
          "WinTrackHeight" : "20"
        }
      },
      {
        "ident" : "",
        "audioMuted" : false,
        "videoHidden" : false,
        "magnetic" : false,
        "matte" : 0,
        "solo" : false,
        "metadata" : {
          "IsLocked" : "False",
          "WinTrackHeight" : "20"
        }
      },
      {
        "ident" : "",
        "audioMuted" : false,
        "videoHidden" : false,
        "magnetic" : false,
        "matte" : 0,
        "solo" : false,
        "metadata" : {
          "IsLocked" : "False",
          "WinTrackHeight" : "20"
        }
      },
      {
        "ident" : "",
        "audioMuted" : false,
        "videoHidden" : false,
        "magnetic" : false,
        "matte" : 0,
        "solo" : false,
        "metadata" : {
          "IsLocked" : "False",
          "WinTrackHeight" : "20"
        }
      },
      {
        "ident" : "",
        "audioMuted" : false,
        "videoHidden" : false,
        "magnetic" : false,
        "matte" : 0,
        "solo" : false,
        "metadata" : {
          "IsLocked" : "False",
          "WinTrackHeight" : "20"
        }
      },
      {
        "ident" : "",
        "audioMuted" : false,
        "videoHidden" : false,
        "magnetic" : false,
        "matte" : 0,
        "solo" : false,
        "metadata" : {
          "IsLocked" : "False",
          "WinTrackHeight" : "20"
        }
      },
      {
        "ident" : "",
        "audioMuted" : false,
        "videoHidden" : false,
        "magnetic" : false,
        "matte" : 0,
        "solo" : false,
        "metadata" : {
          "IsLocked" : "False",
          "WinTrackHeight" : "20"
        }
      },
      {
        "ident" : "",
        "audioMuted" : false,
        "videoHidden" : false,
        "magnetic" : false,
        "matte" : 0,
        "solo" : false,
        "metadata" : {
          "IsLocked" : "False",
          "WinTrackHeight" : "20"
        }
      },
      {
        "ident" : "",
        "audioMuted" : false,
        "videoHidden" : false,
        "magnetic" : false,
        "matte" : 0,
        "solo" : false,
        "metadata" : {
          "IsLocked" : "False",
          "WinTrackHeight" : "20"
        }
      },
      {
        "ident" : "",
        "audioMuted" : false,
        "videoHidden" : false,
        "magnetic" : false,
        "matte" : 0,
        "solo" : false,
        "metadata" : {
          "IsLocked" : "False",
          "WinTrackHeight" : "20"
        }
      },
      {
        "ident" : "",
        "audioMuted" : false,
        "videoHidden" : false,
        "magnetic" : false,
        "matte" : 0,
        "solo" : false,
        "metadata" : {
          "IsLocked" : "False",
          "WinTrackHeight" : "20"
        }
      },
      {
        "ident" : "",
        "audioMuted" : false,
        "videoHidden" : false,
        "magnetic" : false,
        "matte" : 0,
        "solo" : false,
        "metadata" : {
          "IsLocked" : "False",
          "WinTrackHeight" : "20"
        }
      },
      {
        "ident" : "",
        "audioMuted" : false,
        "videoHidden" : false,
        "magnetic" : false,
        "matte" : 0,
        "solo" : false,
        "metadata" : {
          "IsLocked" : "False",
          "WinTrackHeight" : "20"
        }
      },
      {
        "ident" : "",
        "audioMuted" : false,
        "videoHidden" : false,
        "magnetic" : false,
        "matte" : 0,
        "solo" : false,
        "metadata" : {
          "IsLocked" : "False",
          "WinTrackHeight" : "20"
        }
      },
      {
        "ident" : "",
        "audioMuted" : false,
        "videoHidden" : false,
        "magnetic" : false,
        "matte" : 0,
        "solo" : false,
        "metadata" : {
          "IsLocked" : "False",
          "WinTrackHeight" : "20"
        }
      },
      {
        "ident" : "",
        "audioMuted" : false,
        "videoHidden" : false,
        "magnetic" : false,
        "matte" : 0,
        "solo" : false,
        "metadata" : {
          "IsLocked" : "False",
          "WinTrackHeight" : "20"
        }
      },
      {
        "ident" : "",
        "audioMuted" : false,
        "videoHidden" : false,
        "magnetic" : false,
        "matte" : 0,
        "solo" : false,
        "metadata" : {
          "IsLocked" : "False",
          "WinTrackHeight" : "20"
        }
      },
      {
        "ident" : "",
        "audioMuted" : false,
        "videoHidden" : false,
        "magnetic" : false,
        "matte" : 0,
        "solo" : false,
        "metadata" : {
          "IsLocked" : "False",
          "WinTrackHeight" : "20"
        }
      },
      {
        "ident" : "",
        "audioMuted" : false,
        "videoHidden" : false,
        "magnetic" : false,
        "matte" : 0,
        "solo" : false,
        "metadata" : {
          "IsLocked" : "False",
          "WinTrackHeight" : "20"
        }
      },
      {
        "ident" : "",
        "audioMuted" : false,
        "videoHidden" : false,
        "magnetic" : false,
        "matte" : 0,
        "solo" : false,
        "metadata" : {
          "IsLocked" : "False",
          "WinTrackHeight" : "20"
        }
      },
      {
        "ident" : "",
        "audioMuted" : false,
        "videoHidden" : false,
        "magnetic" : false,
        "matte" : 0,
        "solo" : false,
        "metadata" : {
          "IsLocked" : "False",
          "WinTrackHeight" : "20"
        }
      },
      {
        "ident" : "",
        "audioMuted" : false,
        "videoHidden" : false,
        "magnetic" : false,
        "matte" : 0,
        "solo" : false,
        "metadata" : {
          "IsLocked" : "False",
          "WinTrackHeight" : "20"
        }
      },
      {
        "ident" : "",
        "audioMuted" : false,
        "videoHidden" : false,
        "magnetic" : false,
        "matte" : 0,
        "solo" : false,
        "metadata" : {
          "IsLocked" : "False",
          "WinTrackHeight" : "20"
        }
      },
      {
        "ident" : "",
        "audioMuted" : false,
        "videoHidden" : false,
        "magnetic" : false,
        "matte" : 0,
        "solo" : false,
        "metadata" : {
          "IsLocked" : "False",
          "WinTrackHeight" : "20"
        }
      },
      {
        "ident" : "",
        "audioMuted" : false,
        "videoHidden" : false,
        "magnetic" : false,
        "matte" : 0,
        "solo" : false,
        "metadata" : {
          "IsLocked" : "False",
          "WinTrackHeight" : "20"
        }
      },
      {
        "ident" : "",
        "audioMuted" : false,
        "videoHidden" : false,
        "magnetic" : false,
        "matte" : 0,
        "solo" : false,
        "metadata" : {
          "IsLocked" : "False",
          "WinTrackHeight" : "20"
        }
      },
      {
        "ident" : "",
        "audioMuted" : false,
        "videoHidden" : false,
        "magnetic" : false,
        "matte" : 0,
        "solo" : false,
        "metadata" : {
          "IsLocked" : "False",
          "WinTrackHeight" : "20"
        }
      },
      {
        "ident" : "",
        "audioMuted" : false,
        "videoHidden" : false,
        "magnetic" : false,
        "matte" : 0,
        "solo" : false,
        "metadata" : {
          "IsLocked" : "False",
          "WinTrackHeight" : "20"
        }
      },
      {
        "ident" : "",
        "audioMuted" : false,
        "videoHidden" : false,
        "magnetic" : false,
        "matte" : 0,
        "solo" : false,
        "metadata" : {
          "IsLocked" : "False",
          "WinTrackHeight" : "20"
        }
      },
      {
        "ident" : "",
        "audioMuted" : false,
        "videoHidden" : false,
        "magnetic" : false,
        "matte" : 0,
        "solo" : false,
        "metadata" : {
          "IsLocked" : "False",
          "WinTrackHeight" : "20"
        }
      },
      {
        "ident" : "",
        "audioMuted" : false,
        "videoHidden" : false,
        "magnetic" : false,
        "matte" : 0,
        "solo" : false,
        "metadata" : {
          "IsLocked" : "False",
          "WinTrackHeight" : "20"
        }
      },
      {
        "ident" : "",
        "audioMuted" : false,
        "videoHidden" : false,
        "magnetic" : false,
        "matte" : 0,
        "solo" : false,
        "metadata" : {
          "IsLocked" : "False",
          "WinTrackHeight" : "20"
        }
      },
      {
        "ident" : "",
        "audioMuted" : false,
        "videoHidden" : false,
        "magnetic" : false,
        "matte" : 0,
        "solo" : false,
        "metadata" : {
          "IsLocked" : "False",
          "WinTrackHeight" : "20"
        }
      },
      {
        "ident" : "",
        "audioMuted" : false,
        "videoHidden" : false,
        "magnetic" : false,
        "matte" : 0,
        "solo" : false,
        "metadata" : {
          "IsLocked" : "False",
          "WinTrackHeight" : "20"
        }
      },
      {
        "ident" : "",
        "audioMuted" : false,
        "videoHidden" : false,
        "magnetic" : false,
        "matte" : 0,
        "solo" : false,
        "metadata" : {
          "IsLocked" : "False",
          "WinTrackHeight" : "20"
        }
      },
      {
        "ident" : "",
        "audioMuted" : false,
        "videoHidden" : false,
        "magnetic" : false,
        "matte" : 0,
        "solo" : false,
        "metadata" : {
          "IsLocked" : "False",
          "WinTrackHeight" : "20"
        }
      },
      {
        "ident" : "",
        "audioMuted" : false,
        "videoHidden" : false,
        "magnetic" : false,
        "matte" : 0,
        "solo" : false,
        "metadata" : {
          "IsLocked" : "False",
          "WinTrackHeight" : "20"
        }
      },
      {
        "ident" : "",
        "audioMuted" : false,
        "videoHidden" : false,
        "magnetic" : false,
        "matte" : 0,
        "solo" : false,
        "metadata" : {
          "IsLocked" : "False",
          "WinTrackHeight" : "20"
        }
      },
      {
        "ident" : "",
        "audioMuted" : false,
        "videoHidden" : false,
        "magnetic" : false,
        "matte" : 0,
        "solo" : false,
        "metadata" : {
          "IsLocked" : "False",
          "WinTrackHeight" : "20"
        }
      },
      {
        "ident" : "",
        "audioMuted" : false,
        "videoHidden" : false,
        "magnetic" : false,
        "matte" : 0,
        "solo" : false,
        "metadata" : {
          "IsLocked" : "False",
          "WinTrackHeight" : "20"
        }
      },
      {
        "ident" : "",
        "audioMuted" : false,
        "videoHidden" : false,
        "magnetic" : false,
        "matte" : 0,
        "solo" : false,
        "metadata" : {
          "IsLocked" : "False",
          "WinTrackHeight" : "20"
        }
      },
      {
        "ident" : "",
        "audioMuted" : false,
        "videoHidden" : false,
        "magnetic" : false,
        "matte" : 0,
        "solo" : false,
        "metadata" : {
          "IsLocked" : "False",
          "WinTrackHeight" : "20"
        }
      },
      {
        "ident" : "",
        "audioMuted" : false,
        "videoHidden" : false,
        "magnetic" : false,
        "matte" : 0,
        "solo" : false,
        "metadata" : {
          "IsLocked" : "False",
          "WinTrackHeight" : "20"
        }
      },
      {
        "ident" : "",
        "audioMuted" : false,
        "videoHidden" : false,
        "magnetic" : false,
        "matte" : 0,
        "solo" : false,
        "metadata" : {
          "IsLocked" : "False",
          "WinTrackHeight" : "20"
        }
      },
      {
        "ident" : "",
        "audioMuted" : false,
        "videoHidden" : false,
        "magnetic" : false,
        "matte" : 0,
        "solo" : false,
        "metadata" : {
          "IsLocked" : "False",
          "WinTrackHeight" : "20"
        }
      },
      {
        "ident" : "",
        "audioMuted" : false,
        "videoHidden" : false,
        "magnetic" : false,
        "matte" : 0,
        "solo" : false,
        "metadata" : {
          "IsLocked" : "False",
          "WinTrackHeight" : "20"
        }
      },
      {
        "ident" : "",
        "audioMuted" : false,
        "videoHidden" : false,
        "magnetic" : false,
        "matte" : 0,
        "solo" : false,
        "metadata" : {
          "IsLocked" : "False",
          "WinTrackHeight" : "20"
        }
      },
      {
        "ident" : "",
        "audioMuted" : false,
        "videoHidden" : false,
        "magnetic" : false,
        "matte" : 0,
        "solo" : false,
        "metadata" : {
          "IsLocked" : "False",
          "WinTrackHeight" : "20"
        }
      },
      {
        "ident" : "",
        "audioMuted" : false,
        "videoHidden" : false,
        "magnetic" : false,
        "matte" : 0,
        "solo" : false,
        "metadata" : {
          "IsLocked" : "False",
          "WinTrackHeight" : "20"
        }
      },
      {
        "ident" : "",
        "audioMuted" : false,
        "videoHidden" : false,
        "magnetic" : false,
        "matte" : 0,
        "solo" : false,
        "metadata" : {
          "IsLocked" : "False",
          "WinTrackHeight" : "20"
        }
      },
      {
        "ident" : "",
        "audioMuted" : false,
        "videoHidden" : false,
        "magnetic" : false,
        "matte" : 0,
        "solo" : false,
        "metadata" : {
          "IsLocked" : "False",
          "WinTrackHeight" : "20"
        }
      },
      {
        "ident" : "",
        "audioMuted" : false,
        "videoHidden" : false,
        "magnetic" : false,
        "matte" : 0,
        "solo" : false,
        "metadata" : {
          "IsLocked" : "False",
          "WinTrackHeight" : "20"
        }
      },
      {
        "ident" : "",
        "audioMuted" : false,
        "videoHidden" : false,
        "magnetic" : false,
        "matte" : 0,
        "solo" : false,
        "metadata" : {
          "IsLocked" : "False",
          "WinTrackHeight" : "20"
        }
      },
      {
        "ident" : "",
        "audioMuted" : false,
        "videoHidden" : false,
        "magnetic" : false,
        "matte" : 0,
        "solo" : false,
        "metadata" : {
          "IsLocked" : "False",
          "WinTrackHeight" : "20"
        }
      },
      {
        "ident" : "",
        "audioMuted" : false,
        "videoHidden" : false,
        "magnetic" : false,
        "matte" : 0,
        "solo" : false,
        "metadata" : {
          "IsLocked" : "False",
          "WinTrackHeight" : "20"
        }
      },
      {
        "ident" : "",
        "audioMuted" : false,
        "videoHidden" : false,
        "magnetic" : false,
        "matte" : 0,
        "solo" : false,
        "metadata" : {
          "IsLocked" : "False",
          "WinTrackHeight" : "20"
        }
      },
      {
        "ident" : "",
        "audioMuted" : false,
        "videoHidden" : false,
        "magnetic" : false,
        "matte" : 0,
        "solo" : false,
        "metadata" : {
          "IsLocked" : "False",
          "WinTrackHeight" : "20"
        }
      },
      {
        "ident" : "",
        "audioMuted" : false,
        "videoHidden" : false,
        "magnetic" : false,
        "matte" : 0,
        "solo" : false,
        "metadata" : {
          "IsLocked" : "False",
          "WinTrackHeight" : "20"
        }
      },
      {
        "ident" : "",
        "audioMuted" : false,
        "videoHidden" : false,
        "magnetic" : false,
        "matte" : 0,
        "solo" : false,
        "metadata" : {
          "IsLocked" : "False",
          "WinTrackHeight" : "20"
        }
      },
      {
        "ident" : "",
        "audioMuted" : false,
        "videoHidden" : false,
        "magnetic" : false,
        "matte" : 0,
        "solo" : false,
        "metadata" : {
          "IsLocked" : "False",
          "WinTrackHeight" : "20"
        }
      },
      {
        "ident" : "",
        "audioMuted" : false,
        "videoHidden" : false,
        "magnetic" : false,
        "matte" : 0,
        "solo" : false,
        "metadata" : {
          "IsLocked" : "False",
          "WinTrackHeight" : "20"
        }
      },
      {
        "ident" : "",
        "audioMuted" : false,
        "videoHidden" : false,
        "magnetic" : false,
        "matte" : 0,
        "solo" : false,
        "metadata" : {
          "IsLocked" : "False",
          "WinTrackHeight" : "20"
        }
      },
      {
        "ident" : "",
        "audioMuted" : false,
        "videoHidden" : false,
        "magnetic" : false,
        "matte" : 0,
        "solo" : false,
        "metadata" : {
          "IsLocked" : "False",
          "WinTrackHeight" : "20"
        }
      },
      {
        "ident" : "",
        "audioMuted" : false,
        "videoHidden" : false,
        "magnetic" : false,
        "matte" : 0,
        "solo" : false,
        "metadata" : {
          "IsLocked" : "False",
          "WinTrackHeight" : "20"
        }
      },
      {
        "ident" : "",
        "audioMuted" : false,
        "videoHidden" : false,
        "magnetic" : false,
        "matte" : 0,
        "solo" : false,
        "metadata" : {
          "IsLocked" : "False",
          "WinTrackHeight" : "20"
        }
      },
      {
        "ident" : "",
        "audioMuted" : false,
        "videoHidden" : false,
        "magnetic" : false,
        "matte" : 0,
        "solo" : false,
        "metadata" : {
          "IsLocked" : "False",
          "WinTrackHeight" : "20"
        }
      },
      {
        "ident" : "",
        "audioMuted" : false,
        "videoHidden" : false,
        "magnetic" : false,
        "matte" : 0,
        "solo" : false,
        "metadata" : {
          "IsLocked" : "False",
          "WinTrackHeight" : "20"
        }
      },
      {
        "ident" : "",
        "audioMuted" : false,
        "videoHidden" : false,
        "magnetic" : false,
        "matte" : 0,
        "solo" : false,
        "metadata" : {
          "IsLocked" : "False",
          "WinTrackHeight" : "20"
        }
      },
      {
        "ident" : "",
        "audioMuted" : false,
        "videoHidden" : false,
        "magnetic" : false,
        "matte" : 0,
        "solo" : false,
        "metadata" : {
          "IsLocked" : "False",
          "WinTrackHeight" : "20"
        }
      },
      {
        "ident" : "",
        "audioMuted" : false,
        "videoHidden" : false,
        "magnetic" : false,
        "matte" : 0,
        "solo" : false,
        "metadata" : {
          "IsLocked" : "False",
          "WinTrackHeight" : "20"
        }
      },
      {
        "ident" : "",
        "audioMuted" : false,
        "videoHidden" : false,
        "magnetic" : false,
        "matte" : 0,
        "solo" : false,
        "metadata" : {
          "IsLocked" : "False",
          "WinTrackHeight" : "20"
        }
      },
      {
        "ident" : "",
        "audioMuted" : false,
        "videoHidden" : false,
        "magnetic" : false,
        "matte" : 0,
        "solo" : false,
        "metadata" : {
          "IsLocked" : "False",
          "WinTrackHeight" : "20"
        }
      },
      {
        "ident" : "",
        "audioMuted" : false,
        "videoHidden" : false,
        "magnetic" : false,
        "matte" : 0,
        "solo" : false,
        "metadata" : {
          "IsLocked" : "False",
          "WinTrackHeight" : "20"
        }
      },
      {
        "ident" : "",
        "audioMuted" : false,
        "videoHidden" : false,
        "magnetic" : false,
        "matte" : 0,
        "solo" : false,
        "metadata" : {
          "IsLocked" : "False",
          "WinTrackHeight" : "20"
        }
      },
      {
        "ident" : "",
        "audioMuted" : false,
        "videoHidden" : false,
        "magnetic" : false,
        "matte" : 0,
        "solo" : false,
        "metadata" : {
          "IsLocked" : "False",
          "WinTrackHeight" : "20"
        }
      },
      {
        "ident" : "",
        "audioMuted" : false,
        "videoHidden" : false,
        "magnetic" : false,
        "matte" : 0,
        "solo" : false,
        "metadata" : {
          "IsLocked" : "False",
          "WinTrackHeight" : "20"
        }
      },
      {
        "ident" : "",
        "audioMuted" : false,
        "videoHidden" : false,
        "magnetic" : false,
        "matte" : 0,
        "solo" : false,
        "metadata" : {
          "IsLocked" : "False",
          "WinTrackHeight" : "20"
        }
      },
      {
        "ident" : "",
        "audioMuted" : false,
        "videoHidden" : false,
        "magnetic" : false,
        "matte" : 0,
        "solo" : false,
        "metadata" : {
          "IsLocked" : "False",
          "WinTrackHeight" : "20"
        }
      },
      {
        "ident" : "",
        "audioMuted" : false,
        "videoHidden" : false,
        "magnetic" : false,
        "matte" : 0,
        "solo" : false,
        "metadata" : {
          "IsLocked" : "False",
          "WinTrackHeight" : "20"
        }
      },
      {
        "ident" : "",
        "audioMuted" : false,
        "videoHidden" : false,
        "magnetic" : false,
        "matte" : 0,
        "solo" : false,
        "metadata" : {
          "IsLocked" : "False",
          "WinTrackHeight" : "20"
        }
      },
      {
        "ident" : "",
        "audioMuted" : false,
        "videoHidden" : false,
        "magnetic" : false,
        "matte" : 0,
        "solo" : false,
        "metadata" : {
          "IsLocked" : "False",
          "WinTrackHeight" : "20"
        }
      },
      {
        "ident" : "",
        "audioMuted" : false,
        "videoHidden" : false,
        "magnetic" : false,
        "matte" : 0,
        "solo" : false,
        "metadata" : {
          "IsLocked" : "False",
          "WinTrackHeight" : "20"
        }
      },
      {
        "ident" : "",
        "audioMuted" : false,
        "videoHidden" : false,
        "magnetic" : false,
        "matte" : 0,
        "solo" : false,
        "metadata" : {
          "IsLocked" : "False",
          "WinTrackHeight" : "20"
        }
      },
      {
        "ident" : "",
        "audioMuted" : false,
        "videoHidden" : false,
        "magnetic" : false,
        "matte" : 0,
        "solo" : false,
        "metadata" : {
          "IsLocked" : "False",
          "WinTrackHeight" : "20"
        }
      },
      {
        "ident" : "",
        "audioMuted" : false,
        "videoHidden" : false,
        "magnetic" : false,
        "matte" : 0,
        "solo" : false,
        "metadata" : {
          "IsLocked" : "False",
          "WinTrackHeight" : "20"
        }
      }
    ],
    "captionAttributes" : {
      "enabled" : true,
      "fontName" : "Arial",
      "fontSize" : 64,
      "backgroundColor" : [ 0, 0, 0, 191],
      "foregroundColor" : [ 255, 255, 255, 255],
      "lang" : "en",
      "alignment" : 0,
      "defaultFontSize" : true,
      "opacity" : 0.5,
      "backgroundEnabled" : true,
      "backgroundOnlyAroundText" : true
    },
    "gain" : 1.0,
    "legacyAttenuateAudioMix" : false,
    "backgroundColor" : [ 0, 0, 0, 255]
  },
  "metadata" : {
    "AutoSaveFile" : "C:\\Users\\admin\\AppData\\Local\\TechSmith\\Camtasia Studio\\22.0\\Auto-Saves\\Shortcut keys169ee2c.autosave.tscproj",
    "CanvasZoom" : 60,
    "Date" : "2023-06-11 01:02:20 AM",
    "Fit" : 1,
    "IsAutoSave" : false,
    "IsStandalone" : true,
    "Language" : "ENU",
    "ProfileName" : "",
    "ProjectThumbnail" : "iVBORw0KGgoAAAANSUhEUgAAAoAAAAFoCAYAAADHMkpRAAAAAXNSR0IArs4c6QAAAARnQU1BAACx\r\njwv8YQUAAAAJcEhZcwAADsMAAA7DAcdvqGQAANgBSURBVHhe7f0JtGVHdR/+a62s38oKWSFhBZZl\r\nxwMLTBAOwhgsW0hMGjGSJWhJaG5JSK1ZavWgbnWr1Zpb6m61WgOjZAuEZEBYOBDwIMAEUKwJCZDs\r\nxBAbY5zEDolJmDzEcZLz/3+Kt19XH93bfc97991737v7u9ZZ995zz6mqU1V772/tqlN7nyaRSCQS\r\niUQiMVVIAphIJBKJRCIxZUgCmEgkEolEIjFlSAKYSCQSiUQiMWVIAphIJBKJRCIxZUgCmEgkEolE\r\nIjFlGBsB/Pu///vmf//v/935cN9c8Xd/93fN//pf/2toh/Tmiv/7f/9vz+erD9ckEuNAr/44yDGf\r\nPtsrvfqYj+x3xSD6KZFIJBYzRk4A/9//+3/Nb/zGbzTve9/7mg9+8IOdj/e///3Nv/7X/7qkMyhc\r\n+5GPfGTOefY7lOXBBx/sVBb40pe+1Lz3ve9tPvShD/VMN4677767+fKXvzxzVyKx8Pj2t7/d/Mqv\r\n/Erza7/2az375N4OfVb/7oJB8yRvH/vYxzrLW1cMop+U9Vd/9Veb//E//sfMXYlEIrG4MHIC+Ed/\r\n9EeF+ABvQdcDfv3Xf72kMyj+43/8j82HP/zhmV/DxUc/+tFOZeFZeNe73tV8//vfL4as1zM6/PeD\r\nH/ygGNRRej4S0w3k5ytf+Ur53qtf7unQZ//qr/6qc5+VZwx0eqUbB5D9P/7jPy7fFwJkGcGDXmWI\r\nA37/93+/+fjHP16+JxKJxGLDyAngH/zBHzSf//znZ37NDY888kjz7//9v5/5tQumZRmgNoaRZz/8\r\n3u/9Xqey/O3f/m3xHgwKnkv3JBKjAO/6f/tv/23m19zQr88a0PRaNiHPb33rWzO/9ox+8tYVw9AV\r\nf/mXf5kEMJFILFqMnABS3v/23/7bmV8/XJd3//33N1dffXXzW7/1WzNnn43f/u3fbv77f//v5fu/\r\n+3f/rvkP/+E/lO81eBYvu+yymV+70M4TGKj77ruvueaaa5rf/d3fLeco/y9+8YvlO3zve99rPvnJ\r\nT5bvX/jCF5p3vvOd5XuNrmXpRQB/8zd/s7n88sub9evXP6ucDzzwwJIggLwmjz/+eE+jOyikYXpx\r\nkPVXyMZTTz3V/M//+T+bxx57bOZsYm9Axv7rf/2vM7+a5j/9p//U3HLLLc3NN9/cl3iRk0984hMz\r\nv/oTwBUrVszKUw15/sVf/MXMr13gJW/3l37y1hVddAXwaCJ8NRDlf/Nv/s3Mr0RXfPe7323++q//\r\neubXD0HG6WAEvR/IP139ta99rczuzAWm7ge9Vx/sMsuTSCwWjJ0Arlmzptm+fXshB+vWrWs+8IEP\r\nFIN95513zlzxQ5x//vlF6KGfEbBGaPny5TO/dqGXUr/xxhubW2+9tUx3nXfeec3DDz9cDNc73vGO\r\nmSt+SE6//vWvF4Vz3HHHldG+MtbKqWtZ2gSQ8Tv99NOLMvvDP/zD5qSTTip1ERg1AaSAa4LVzntv\r\nL76YBvybv/mbmV8/VNbOMaAM7n/5L/+lnK/TrfP81Kc+VUgHuOf//J//U74DQmCgUJMCafcqrzQ2\r\nbtxYpukuvfTSck5a83lxZxpQE8A///M/b972treVdXef/exnm1NPPbXIw44dOwq5Dvzpn/5pc8YZ\r\nZ8z86k8Aly1bVtJqox8BfPLJJ5tf+IVfaB599NGZM8MjgF10ReDQQw/dTS8tRQIYuq2Wk72RMTIY\r\n8Nu6aDIN/XSXe37nd36neeKJJ8rvuE6+BsL6HkR6tR7QPnTxvffeW9ZhgvsjTwhiqb9+5jOfKd9r\r\nIJn6ALg3noH9+c//+T+X73Heod3180RiKWGsBPCrX/1qIXYBQs74rFq1qnnFK15RPHSU9Hve855C\r\nHhAkqI0Aobdgm5fi+OOPb171qleV70hlTGX1UurXX399s2nTpkK8jAaRFuv53vSmNzVnnXVWIYIW\r\npzN2PIQvfOELm0suuaTZd999y5qlQNeyUCo1ATz33HNniS0gLpRWYJQE0Ij89ttvL17Rb3zjG2Wq\r\nffPmzaUdKGbPdtNNN5V1WIgzsqZuYspMOa3/uu2225qnn366PAvPUdQlQqZ9KW/1/9BDDxXv0c6d\r\nO5sbbrihrAOj/OVjSlDd+48XT55I+1VXXTVbH1FepNC6MKREuupM3tdee21p+yuuuKLUv3IoW12/\r\nid1RE0BrVRnEgHb4kz/5kyKbF154YekLBk88+BdffPHMVbsTQIZ827ZtRQZe/vKXN6eddlr5Xqcr\r\nT959nnAyqd30h3POOafZZ599mn/wD/5B8ZCTL1PAcyWAg+oKg0HGXr9Sluuuu67IwfOe97xSHkRQ\r\nH6I3lgoB/LM/+7Myw6FNkSo6QB0888wzpQ7e/e53l8GbttYHeFDJnOvJlcEZGLzz9PLUayv15p4g\r\nZ/LRH+haBJCeILfq+I477mi++c1vlnrfsmVLuc9gmI6MmRlkjF6gN/xvvSbvnHvZCeXQ/8g5/YIk\r\n6jv6LtAZ2lwe9DgvIHJHb3ke9kia+oHznhsB9iyxNjSRWCoYKwFEMNauXVu+16BUGXICumHDhnJu\r\n5cqVs4q/Jl1II4WCIB522GHNfvvt16xevbocMYrsRQAZKC+GIJuMEiJopKk8PEw8Gu6jzJBDpJAC\r\n5BGpCVnXsri3JoBnn3327H+9MEoCaKRMEVKoyPaVV15Z6oUx4EmjzClMbUIh+804xPOHh47SdD3i\r\nSDEzEupfOpQ9hayuKWJKVZ7yofzvuuuuUu/uZZi3bt1a+gHyxyD5jNE9A+J6ittgAnl0H8KnbyER\r\n0lJeRgu5QGpcm+iNmgBqXyS/DR5VXjkk8HOf+1zpv4x0oCaA2pSMOV784hc3b37zm4ss876H1yUI\r\noGUe+og2NnBALhGu/+//+/9KG86XAA6qKxBA5aaD9CFkBEEJAnjkkUeW/rSUCKDBlzexETMEEJlC\r\nsAzakDQDLXWj/rSd56bHyLr64a0FRMtvn+6lL8hdTKEilOpb/yC7+hc9I3/ybmBJpxgU6wP6hfTC\r\n608X+w0GEfQHeZaWQYjvCCK9oz8hpPfcc0+5HvxWZp5H/VRfsiODvuz59D/nfI80DYb9Vj+JxFLC\r\nWAkgQ8PDF1OGhJKBRkQoGuuFCCswOqH4+00DcenXU1GBOk9geJCE2MKBAWJgeKYoA0AEKSsjQt4v\r\nRI0yOvnkk8v/ga5laRNAhrFe++h7vQh9lASQcuRxQ6wYWgZQW1DkSBZy5zyiZQRulE15x+ie147h\r\noIDVKWOiHXl2GEz3qVN1rW0ZWnnJU91T+jw0nt9UISJAifO2MMBInfyivyAh7mVElIuxZrT8Vl6G\r\nBxG1zAChlbYp/FjzmXg2agKo/dRpAAng2dGODDUir561u4FSoN8UsGUUXaeADzrooNlpQugnb10x\r\nqK6ocfjhh8/qI1hKU8AGZsgUrxnvnvrhPTMAI6NkkfeObJ155pnl2V0XZDAINF1J7gyWkSmyRtfG\r\nsg79hj4BuiJ0/ac//elC+OgHXn7p+Y34SS/6pPQNKMObS5cayEsriKRzdJMBJvmXfgw25B9lpls9\r\nszbVl5FV/Z3XkR6RprLSXXRTTSQTiaWAsa8B5LF5+9vfXsgFckUBuOaoo44qI8IgZIMQQAqL16CN\r\nXkqdcbPejpJC7ihA5xBQQAApjwsuuKBMASgj4nHMMccUgxXoWpY2ATRitTbKc1JExx577G5rTUZJ\r\nAHlIeNsoVlMlRr6mhTwjxYu4GRXHmiwj4np7Het1EDv3U/hexKBgHdLzH4WuXk0bqXN5mt5VX/7j\r\nbTCy5+Xz7L6rd9fyFEoj1vwxAtqCx+I73/lOMRrqkVGRH8OFWHhBAWENhR/TQYlnoyaA2hx5Nkhh\r\nIMmCOieXzlsSwWgigP08gDWsIaxlJ9CPAOo/QfYDwyKAXXQF6KcxYAwsJQKIsCH39BEShXT79Ix0\r\nImIIfgeJJ0eIEiIYHjrQ/nQEL2rojwAZjQGva5ArgzNkj46XP5JJnq071d/ohzoN5FTZHMosH+fo\r\nb/3IwJKeMqtgVkL5lRu0o9kHdoetoePoK3rPMhVp0hPKFWka+HtGg8xEYilh5ATQSKq9zYKRJeEi\r\ngGC0RhEjQqF0KahYjNxvGxgGo/2mHvTKEyz2pVhiCwpKJ8pAUTFirlGeGMH6pDQCXcvSJoDgOkrV\r\nEfkH+hnTUQPpCmIG6oV3IBRrYmkAGWu3aazTir399G0kniwgic7Hwnno12elWxOFAOM7aD/qJ29d\r\n0VVX9IL7ea4T8wOyyZPPwzaIrtNXkLRRwWASEYyZjkRiqWDkBLDeaNVozFGjfQ75it8hgF03gzWF\r\naMQnLUQmjpgWkK7f8onv/mPY4p76s/7OA9blpQJ5GJHySMmrftZAlMPoldcrDO8kwbMnlh4QQF4Q\r\niH4YiP5at71zcY1PxKprn5UnTw5Iv98ByGUX2e8KaccArVcZ4gAepCSAw0HU6aBw/ah0UOq6xFLF\r\nyAkgUJqmYLjVux7um8u0i3VoXPq90pzroSzWqHWFdSiMZK8068PUJu9LIjEq8LjzxBik9eqTezss\r\nC+jaZ00lDpLnXGW/KwbRT8pKn+RygkQisVgxFgIIRnC8BF2PriPFGkZy4bEYxjGfkaF7ez1ffeTI\r\nMzEu9OqPgxzz6bO90quP+ch+VwyinxKJRGIxY2wEMJFIJBKJRCIxHiQBTCQSiUQikZgyJAFMJBKJ\r\nRCKRmDKMhQDa28vbwA5v3Q16xD3tvcEGgbcT7Tc17EO6XbG353fe/mr2n0okRg39Tv/r1Tf3dOi3\r\n9R6WXRB57kkmHHOR/a5I+UwkEtOAkRNA+4DZBNhbuXZ/73rYRNSGyb32E+sHJE1oIJuZ2uTVBqPz\r\nPaRjw1IbnXYhgYM+v82MPecw9jxLJAaFffD0af2vV7/c0+Eeb8ja168L5Ekm9pYn2beFUhfZ74qU\r\nz0QiMS0YOQGkMEVomA+EF+qieF0bO9kPG8hg17IM+vwiMnQ1ponEfGCPzQjrNVfYMDw2bR8E8rTR\r\n+yDoKvtdkfKZSCSmBWMhgALItyGiwKAQNaSXERASKDaxrdEvT9hTvrFVS6DX1g/9QlMNWhb7romE\r\nwujaWqaGKaalEmoqsThgU+YIBRfQL7tse9IvEsgXv/jFnuSyV579QN56yX5XzEVXtJHymUgkFjPG\r\nQgDrWJvW0V188cUlMLvA28KyMR7t9TUCeovPCP1Il/iP4o220c4TrOERe1Jgc3GI5WlKl/EKRKxL\r\nEEC8DmoemE9ZGNYTTjihWb16dYm1Kt5wREQAIY9GbWBMbakHxlGoK3Ez1ZV6sP6phjYSR3M+e6IJ\r\nMSZKy3z3d9RuIqf0gra1sW/0n2ECoeEF8ln3ncWKNhkTAuuss84qfVOfBjJae/j0k+uvv37mV38C\r\nKI52rxBe8qxjAesLPPa9vIj95K0ruugKMWt7rW0ch3wuBohy1A/6lk2/2zpDiEm6BDFvr/OUnjCZ\r\nButkDUG32fie1oMK39ZLp4jy0rYtojr1Wlag3Q3OE4mlirESQEbitNNOK7EggbGhBBACRod3TNxd\r\nhvuiiy4q90I/IyByxvLly2d+7UIvpY50fvKTnyzf3WcqV/7i24pzSulQUhSAOKdveMMbihI69NBD\r\ndyMS8ykLxYMAhsJEuo477rhZwzdqA4PwIqKU6yc+8YlCdtXH448/3lx11VXNk08+OXPlDz2XpuOQ\r\nYkRWWQVy993zUNbWRnpGxMyhLin4AKW7adOm2dirFtfHVKDrtb005CVtcZJ9ahf/y4Oi149uuumm\r\nEsvZof0iZjFoI4ML6TgQWsZBfhHDVpkZeb+F9vM8NZx3PcjXujV5IMW33HJL+U8ZFjtqAqjdyaF+\r\nwdhee+21ZYCiXxsQMKTqimfvnHPOKfdAPwK4bNmyMt3bRk0ABfD/pV/6peanf/qnZ9NA8GOD6WER\r\nwEHkU98zOPyH//AfznoF67IsJQJIHkK+ajkDbaJ9XKMv+CRHZF3714Ni/5MDfch15MS5gOvpGGkb\r\nOHAAgIhKV155ZZF/8lQPCNSxdZeu3bBhQ8nPObJPD9DH9AxZJKf0p75a9xP91zPRN67Rd+N/M0rW\r\nvXoeg5uwM8pqPWgisVQxVgKIUKxatap8r0HpIlrvec97yididtlll80qi9oIUCTnnXdeue5lL3tZ\r\ns++++zaHH354c+SRRxYBhl4EEJk76aSTirIJrxtv10EHHdSsX7++ueCCCwphueSSS4oh3H///YuX\r\n46UvfWkhPoH5lIXSOvHEE4siC7ifooJRGxhlQ7QF3KcQxTq97bbbioG/7rrrZuuJQqest2zZUs5T\r\nvD6vueaaosgRAORafWk78ZKlc+ONNzZr166dnQb0nLywFDAF73rpqqubb7652b59eyHFzkvf/Qin\r\n+lc+5WFsfEpfubyEQPkz8AEeB4aDt1F/8591XjfccEPpawycdBzaXp+QXywPUE4EWLrqiDfR/8rn\r\ntxeMlNnvxY6aAGpfA4EaSNFrX/vaUm/nn39+c/bZZ5dr9JtATQDV3RFHHFHk4AUveEGRo0MOOaRc\r\nH0RKnkgHj8tzn/vcZp999mme85znNG984xuLLLneAIy+MFicKwEcVD6/8IUvFMIgf2VxvPrVry7X\r\nuvfggw9uduzYUfrbUiGABmb6N1mr5Yw86+v6P/1rJoZ+QIy01+bNmwupIkNAZxhc04sG8u6VJsII\r\nyJq0EDz5+Z8uFkKQjNIDK1eunB0U6iPk0cBOP1m3bl0hcGxDkE0vBnlByPedO3cWfU2vmMkIKK/+\r\n7H4DQB5gv+VNPzlvEOe8dOQFvtcENpFYShg7ATT9GaCgjcwILgXLsNx5553lPwIdir8mXRQEguIc\r\ncsHYPPzww2XEHm/n1nmCeygRRARRMQ3MM2F6AZEASowyY+SMZH3yEvFY1phPWXoRwHPPPXdWmY6a\r\nAFKyMR3O84cwUaieibIOAkiBMgRG4pQ70kVxIsyUset53Ch3ilU6jIpPBkMsZFBf8qFgw8Ag4QyP\r\n/BBLXkCEi0FgJChseSmX8shDftqNURFj+fbbby/kzogeEEz3Ijb6m36mf2k36SEsyiU9U/2ew3NF\r\nm5k2cj+PpT7jP/FiEUuEBAFU1qVGABm/8JKDdtI3tCkvsbpkNJE3/TZQE0Ayo79rvyCOZKL2JsuT\r\n5wXhZtif97znNT/6oz9aruHNJYfyk6a2nCsB7Cqf/jvwwAMLATQzgcwqi/6rH9BVS4UAkmmxjdWN\r\nARK5IMsGZP5DkrQHzy8PnjrTbu9973sL0Yv4z9qQHJAVMqj9tTlSBgggWXO9ASMdbzAWuzsA2Yzp\r\nXbpXP+TVc2945OSh3/l0rYEineTgRZQ3OQZp+E3P0jfaOHQIGeal9CkPA0u6xP9Ab7EVicRSxNin\r\ngE8//fTZKWDKn/AzFggB71EI/CBTwIz0oOt6TFnFm8EMPKOOAEZ+PEWU1IoVK4pisEaRwjFFW68X\r\nmU9Z2lPACJLf4XkaNQFk4ClnCpWiRIh6EUD1gOAhPs4jburPtQyH0b5RPGO9Zs2aQiz9Lx3GIIwF\r\nghYjbEQD+XIdg9MmgAwOw6SNKGskg/LXTsqF9DEQysVwyQfRA4acQq8JIJIpP14A5dff1L9zpoIp\r\n/iAFDIT0eCXlJS1GQhm0vbx5kBifxY6aAJJLa/+0jz7P24cA8ZKSUXVvsOJ61wVqAljDGkAEvw15\r\n1lN+2p9XKdqvRj9564pBdQXZ1xc8dxtLaQoYkUcAyQr5ImfqSNvwwOn/BnzqhxeVjGsLcur6WNpB\r\npl0bgy6y4XesuyOjMQ3rvGsee+yxQgCRL0AMwwMIZM0AgS6gc0CZTCGzF9qIN1JeiD29QY/UOz+4\r\nT/o8m4gsbyPCSacok9/0kv/ZoSCAZN40cyKxFDEWAsiYBxhf3jbrcRhvRtcI7pRTTikCTREB40pQ\r\noZ8RMJKkGNroRQCldeGFF5Z8Cb3RoekHxgsQAUqR8kfIKCUjSVPRFGVgPmWhLOuXQHgi6zcTR21g\r\nEFJERrmQoFi3h6Cqr1oR+p8ijcXx/jfKV0c8Le5Tb/73m/KOdIJYgf/lCwiHOgflsMYOGUUOkBBe\r\nF3XiUxoMB7IQ5ZR3lIsRCA8gAqpPKY/r47zrwtvqeuWTjjyVV3oB1/H8eJYwOPJybdxTr29crKgJ\r\nICBs1gEaAPGCAW85mSUbnt2AgMEN9COAvDAIRhvtPAPquo1hEcAuugJ6lWUpEUCyRq5qOSMznptc\r\nh+4lQ2Q06kN9GRSFDIP/eUudQwRrck9OyBo4rz+QX30oPG3+ZxcC7IV+KO9Yb0jW/PZJTg0Wav3h\r\nfJ0G2aYv/O8+eZBn6dEH7kVq6R06WB243pZGicRSxcgJoCmdmgAGamO7N1AqvDKDwrW9lDoEGZgr\r\nGKSuZamfn2KibIxw26CQeNQSiVGB1z28NXOF6cJeBLAfuuTZVfa7oi2fe0LK52hARyNjNckcBdgq\r\nhDiRWKoYOQE00jfNysNilMaL4jMOv3udi+/u46Lv5THoB6NZUwC8P0Z+9WHE1z436CE9043SHxTt\r\n5zcCNfL1Gc/q8JtnpB9xTSQWAqbGETJ9si2L8bvXOd95A3mD6hdwBoE38Hl46jzbh/TnIvtd0Us/\r\n9TpSPhOJxGLHyAkgmE6z5ss0TNdDiKaYtusCUxjuN807rMMak5ga6QLEcW/Pb00Mb8d8PZSJRBfo\r\nb7za+l+vfrmnwxujPrt6TUwnDpIn2Sc7C42Uz0QiMQ0YCwFMJBKJRCKRSIwPSQATiUQikUgkpgxJ\r\nABOJRCKRSCSmDEkAE4lEIpFIJKYMYyGA9meyf5ZF3V0P99X7Ow0KG7naU1AEh2Ed0rNVQFcM8vx2\r\nyBeSKheZJ0YJ/c0mvPpfr345yGF7lC4YNM+5yn5XpHwmEolpwMgJoM0/bbMQ20Z0PdxnK4h6c9G9\r\nwYamdoH3ac+9YR5CIfkcFPH8tpLo9XxxKKs9xmyRkUiMCp/5zGfKwEb/69Uv93TYxsXmuqI7dIE8\r\nbT1T52mbFVuy1OnPRfa7op98Kosyxe+Uz0QisdgxcgLIY1aH+ZkL5rIR9KCbu3bFQpYlN5pNjBqT\r\nshG0aA2PPPLIzK9dGNdG0MoiAkyNlM9EIrGYMXIC2A4FB0b29gET27EfjLjDqPQLB4VY9vI+9Avv\r\nZJTPoAgVBvYvq8sQIYOAsufdaGO+ZTHdxGAKn+XzU5/61Mw/4ws1JSye2K91yLZe8L8QUr0QdQpx\r\nnTTrOMrgul4xX+cLeWo/n6OOILCY0Sssm34vbF6/enSedyzQLxQcz5p40G30ytO1/+Sf/JNn7fnZ\r\nT966oouusC/gc5/73ObOO++cOfNDLKVQcJMM/YssQ61XumJP+qoN+S2EXkokJgljIYC1gr3vvvtK\r\nIHlBxcUbFRsS2aPoa1x66aWzir+fEbj77rubk08+eebXLvRS6qa5zj///BLDVNxhEUHEODWlGxCj\r\nMgiZa8UObY/451uWq666qlmzZk0xgpNAAG1uLUi659xbHMx77723pwfEJtmm3HlNxMz1XLw8QXID\r\n4m+KDzsfpd4Pyi64u/6lzhODoSZjjKC+uWrVqubKK69szj333BK6UP+tQxe6fsWKFTO/+hPAo48+\r\nuvzXhjzraV1xZP/pP/2nzT777NO86U1v2i1M5LAI4KDyKe9f+qVfKmVRpnoNYhLA3hA7WD/pB4OJ\r\nLh5isqyuLRUQeYleaevzGpYixMC9xv3331/6Whv0RDvWswEN3ZFILGWMlQAyHKeffnoJEA48ckJR\r\nXXPNNc1rXvOa4p275557itCuXLmyJwEkuBHO7brrrmuOPfbYEvCbog4l04sAXnTRRSX8FLjWNUih\r\nIPfbt28vSky53Of7z/zMzzQ333xz88IXvrCUMTDfsmzevHm39GqM2sAoI0OvvtXF+9///kKCfee1\r\nteCdN+hDH/pQUZAU6k033VRIYHj2fG7cuLEQvqeeeqooe9cx/B/84AfLdzCdhvwhhDyvIiuoZyG4\r\n3ve+9xUS4BqeGsSc0ne/9VcBXllKOqYKDR4eeOCBMspXdmX1OZcXdaYVNQHUhvpxQD8V6u2ggw4q\r\nbYzo86Jp/wsvvHDmqt0JIBkiHzx5hx9+eLNz584iE9o50CaA+uCP/diPNc95znOaf/kv/+Vug6L5\r\nEMC5yKdnVAZlUaYNGzbM/LO0CKC6IavaXB2To/C+eumFDtCWYvIid2SbrFsDqb3NGoD/zjnnnFJv\r\ndAddgbjFyzLq7LzzziuyySP3a7/2a+VlmshfvghZQFshfXTB+vXrS/lcZ2BJB4nYIhqTc3SJfiQU\r\nIYdCtKly6KMG217ecY1yeQazT5wLvLyeVxr6ANx+++2lfyQSSxVjJYAM99q1a8v3GkbnPG5Gfiec\r\ncEIR8H4EkJseiTzggAOaF73oRc3zn//85sADD2wOPvjgWeFtK3VANhmt5cuXF88eBYVoMAoMDu8A\r\npUCZUTRHHXVUOX/IIYfsFv5tvmW5+uqrm7e+9a2FCK5bt64o28CoDQwlS0lS3owycsU48ooizJ6B\r\nYuUhFA6L8hZjGZH78pe/XNJAvtppUKrqltJ1D/Aubdu2raTjXs+uvnlkPTOCQUFTzkij//UHXsfA\r\n1q1bS/rS1AZXXHFFIRh+OxgS1ycBHBw1AdQneYSBgQ6QDW3Kc3/rrbcWY05eAzUB1N8N5sjB8573\r\nvOYlL3lJkQ/3Rpo1AXSO141BJ2v6ZEz/wXwI4FzkU94OZTF9rWxR7qVEANUNXaTtLrvssiJrBsLC\r\n+/k0JY9skX0kjJxqI32E/iTbgGwZRBu8G8gZtN14441l4ACW2EhfPe/YsaP0I/mqf2kZCNIf4RSg\r\nR+Sn3pHv+E0nkHG6R98xaKCnDBjlSTdEvzHQpxeco1+RR78RSvnSGwYkns80v7TAMzmXSCxVjJUA\r\n8vLUngMLwXkZEC3KgbDedddd5b89TQEzNpSykaLpXMqCAolRZ1upO29ECwyMvMKTFfmZ+rJ1zAUX\r\nXFCUo+kvnqrTTjut/B+Yb1koPSTl29/+dpn6rqdOxmFgKGvKUF0wAhQuxUpJMvTqjUGguHnXtBGF\r\nG1448D+SrOyhqI3sfdbTKgwEgokASgvUhylhAwPehU2bNpX63bJlSxmh8wgHTE0id9qJcUYa9R/f\r\npa28Pv2fGAw1AdSH6/bSxvoGw6lOL7/88jKQIrfkI1ATQP1e/7eOy+BKH3CO3AVqAhiQ/qGHHjrz\r\naxfmQwChq3wGDjvssN08U7CUCKD2MSDjEUO0yCViRn60pzqhD5znwfPciBQiSOaQwcDq1auL545e\r\npeN55HgBQT3TJfoYGXed5SJ0AIJG9hGwiCdtgIjwAR0QuolecSCo2pAOpXcMWOQlzwAvtXRcQ3/J\r\nz7N4TvlIV3+UP11GBwEdJ69EYqli7GsAKQEjSFMLyBahMxXIQ0BwY+E1D0O8/dfPCCAqg64BRCwo\r\nGorLiJOh46Xi9geEk8JXDsoB8UPO3vzmN++W93zLgrRQsgig7WSsrRqnh0G5TbNS6qZLtAvDYPqb\r\nMldP4RmwF6JnMUpGtgKUL0MS/yGJFLDv0gxQxrx+6i8IOWVvCYDRt/owUneNcjEWyEIAIWGkeCVM\r\nQekrysqYyIexcn14dxJ7R00A1f+JJ55YjKD2W7Zs2ay3hZeeV1ifcL31u4GaANawBtBAoI1eBFB/\r\nWggCGOiiK0BZ6j4OS80DaHBltiOm6cmTPoAgIXqmz11n+px8I870JX1Qtwkd4VCXPHTS4xkMIIZB\r\nGsm6NOhWxMt/iF0gZiCg1k10iYPHD3lF6N1rOlnZ6NV4s1wflbay+J+uca3BLr2r/EijwYmy8GqD\r\nNOWfSCxVjIUA1m8Bc9MTeIYcqQBrQ0wtMuIxdeC/EGjTC9Jpg6D3Ut7tPIEii9EeIgMIZrylyAuJ\r\njFEyRphxDeNWT9POtyyM3yWXXFIIqZEx5UOhgecdtYFBdo3S1U+UA7mK8w5KE/wf16mjgDat02gf\r\nAd/d56jPW9sHiHDkG5/1dcBj4Dz4DM9BpO0z/k/sHTUBBITAAI2HXJ8GXldeFPKprchrTez7EUDe\r\n5Hr5RKCdJyBbb3jDG2Z+7QIC2EveuqKLroA3vvGNs8scAuOQz4VEyG0tc4Do1W/Pui4GqeQrZC5A\r\n7mJNoM+Yig34rc8A+XW9/BCxdj9wHhFznj7xu9YrvoPP0Bsg3fgPEFDPIS/wvz4azxnlUV73eZHE\r\ntHc8ZyKxFDEWAsibMB8YAXbxAsizJm3DBKLYtSxBdPcGXpHwjCUSowAvuKUI84HptSAPg0CeDG4N\r\nxjkGfzV4aobhAeyHfvKpLG1Sm/I5PCBaQRrbcD4I2qjgBZd6OU4isRQxcgJoJMl7wLOGPHU9EDnR\r\nAAbdzwmM/GJrE4uMh3VIz5pB6Q+KQZ+ft8Rz5hREYpRArvRP/a9Xv9zT4R5T913XTfXK03eeuDr9\r\nuch+V/STT2Vply/lM5FILGaMnACCkbSpoLkevaaX9gbTBRHGaZiHdLuCd6TXc9WH9TYx1ZpIjBL6\r\nnf7Xq1/u6XCPKeO5YNA85yL7XZHymUgkpgFjIYCJRCKRSCQSifEhCWAikUgkEonElCEJYCKRSCQS\r\nicSUYWwEsH6Vv8tRv9rfFbYfsL5nWEd7e4MuGOT5E4lxoVd/HOSwrcZc0Su9+piP7HdFymcikVjq\r\nGDkB9Lq/rRNsfmwfvq6HiBH2DeuyP5Nr7U021zz7HcoizFDXvaIGeX6bktpQud7bKpFYaHixwQbs\r\n+l+vfrm3wwbRvbZv2RN65eltYpvC12mTN28Yd5W3rugln8qiTPE75TORSCx2jJwA2mGeIgXegq4H\r\n2DesS3QHkSQo8IWAyBVdyuJaBgR6PV8cYMPd2IA6kRgFkJ+IeNGrX+7pQMzsn4YEdvHWyTM2WY60\r\neNdjk+84gOyLCLNQ6CefyqJMdVlSPhOJxGLGyAmgaBvC98wHQoDZsLUN07IMUBvDyLMf+kUCGUZZ\r\nBE5PA5MYJXjXhTibD/pFArGZb69lE/IUdaeGvQF7hWrrJ29d0VU+laW9AXXKZyKRWMwYOQGkvOsQ\r\nTAxChIKzuXI/1KHg+sUD5Vm87LLLZn7tQjtPYKDEqxSLUmQRqEPBgZ3gbQgLYkjaILaN+ZZF3Eox\r\nVcVXFQpO+KHAYok1yiPCgyNuaDss1DBhqrDLJsDK0g7gn9gz+oWCEwu6H/EiJ4OEgluxYsWsPNWQ\r\nZ69YwP1CwfWSt67ooitAWdqh4JZSLOBRwab5tY5dCNinUduIKT8X8PYOWkb9vMsMUCIxSRg7AVyz\r\nZk2JAUlY161bV8JIPfbYYyUQeY3zzz+/EDToZwSsEVq+fPnMr13opdQFAhd3l6E577zzmocffrgY\r\nrpqAIac2fLXg+7jjjiujfWXkPQjMtyw8GmeeeWYhNwhU7X0Zl4HpR7JEQHjooYfKd6QvFsJTgMir\r\n+Kraz/QfA9smAXG9/yMmZz+0y/C1r32tBHgXxL2Ntlcp8jVFh7j0gvJHOWJKD+q0fO8ylbkUUBNA\r\n/fFtb3tbWXf32c9+tjn11FOLPGiDp556qlwDf/qnf9qcccYZM7/6E8Bly5b1jBLSiwAi7oceeujM\r\nr10YFgHsoivgsMMOm50aDyxFAhj9v5YDMtJPDkz7t+XPEoDYENx/9ZpNdUaH1vJdp6F/CfcH+lHo\r\niXa0pbi+1sWA/FlPKkJLEHxp1GUMz6/wgyI5tdeUaucNGzaU7+6LMoj+8o1vfKN8l2/oDTZDuROJ\r\nxYaxEkCEAbELEDTGZ9WqVc0rXvGK4qGjpIVcIswRdqk2AoTQgm1eiuOPP7551ateVb4jlUGmein1\r\n66+/vtm0aVMhFhZyUzDW873pTW9qzjrrrCLUSBljx0P4whe+sLnkkkuafffdt6xZCsy3LI8++mjx\r\njMhLDNZa0Y3DwHi2rVu3FmKKiCurQyisbdu2FU+tciHo1113XVlfyZgiZ7yZFscjXp7JswEFa8G8\r\ndqSgkW/1yqNrbSaFiwSoZ/XzwAMPlP/rqbgnnniitFfbC2tQoBy33357qTtG46qrrirl1b+UE5nw\r\nDLy48Yn8axf/CxPIWyhtZUP0tcVtt91Wzk3TQv+aAArCj9AH1JH2I5sXXnhhc9NNN5XBEw/+xRdf\r\nPHPV7gQQidRv1PXLX/7y5rTTTivf63R7EUBtd/jhh8/82oX5EMC56go44ogjSplqjEM+FwrqRpuo\r\nC3K6ZcuWMtjjDVNHfiNMdDLCT861mT6iH0TdkGkDWkTfOXr2jjvuaL7//e+X/+m51atXNzfccEOR\r\nM0TQ/65T9/fee2+zfv36Ei9e3+KJMzO0efPmkiYZJ68GdsrpPrIeUD76BCFD4vRZ13kGywx4oMm8\r\nsIIGNQYuQVb1Wf/Jiw601tRv93t2g1x6jM0IveEeuqnuz4nEYsFYCaC1fGvXri3fa1CqBBsZiZHY\r\nypUrZxV/bQSQRgYGQTRK32+//YqCcTA+0EupE1zkA9lklAi1N3qVxwiRYnAfIkPpIIVIAY9I7d2Y\r\nb1kouAMOOKAoHYqPMgmM2sAwAjx3FDqCpD4oeofzlJzD+fe+973Fa+q3tz6N+hkLJM3ntddeOzsd\r\nzHvgPAWMLPIkUvTSvOeeewrpQiAZmfAwMQp1PfEKXHrppaUstRfJPYiq6TleKR5lo3SkEPFjoOTn\r\nPsQEWXEgl9pF+yG12kUZ9EkeCiRWm/AmWOs1LagJoOdXd21oB+QeCWR89e1zzz135t/dCaBBARlz\r\nvPjFL27e/OY3F1nWv8Lz0iaA+tJJJ53U/ORP/mQhltooMB8COBf5NBBSBmVRJh6jwFIigLzz5JAM\r\nXX755aWekTTyTV4swfFyDNk32NJ+5J+eJsPxkp101Kc22rlzZ0kPgUK2AEE0QCPnZBTRU6dPPvlk\r\nSdf1ZI4OVh6DL/KJgNHNzzzzTFm2o13IusEcXRQIgoa8kWftKn1lMsBUFvnocwaPzsfMhDJ7HmWQ\r\nN4eDtF1jlsNzIpfSl6Z+JB+/6zIkEosFYyWADA0PX3i9kB8Gm7GnqI3WjLKA0QnF388IIBf1VFSg\r\nrdQZHqO58OxQBoimEWkIcigbHkrTAGeffXZRXu2F6fMtC8LBOPbCqA3Md7/73aI0KX0KkHKmxCl7\r\nRt0bmNqHZwBJYwx46zwT5Wg0rx5Nj/gUKxkoWMYEXG+UTglL3/NTsIyMerCeTFoIYO3tQyjdd845\r\n5+ymbHlq1RHjhPAhb8id/LQfLx6C6Bmk6TrP5z8GhBFAdNyLpFL6zisXb5F+Mk1rfGoCyCMe7Qba\r\nDNk3UGEIEQUGELE3UArUBLCGZRSDTAHLd5999inHv/gX/2KWnMF8CGCNQeVTuX78x398tjz6fGCp\r\nEUADPx5eMkQuEDU6kbeLLGgX9UFnI38hO8ihAVPA/XQ5Iuc/ugLBAzqUvGtHBNDSH7LpOnkgU3S/\r\nQaP8eefIvuv0OzMOfstb/5NvrSfkKQ0y63q2hDdPP9ZW2o9+QSKlhdyHd1JfthabdxARpCvoD/ci\r\nrAat+gYdpk4iDZ7OemCQSCwWjH0NIKP+9re/vYzykCuG2TVHHXVUmY4IYz8IASSgpg3aaOcJlJkR\r\nPSFG7oz6nENwAAGkXC644IJCaJQRUT3mmGOKwQrMtyxGsp6tF8ZhYJBuZAzJQwh5Y3jq1AVPGAXL\r\ns6cOKGyEjWeUJxNRjhd5/B9TuDwvFDHiTdkiYJQoJS9Na2uQDqN5UD/yoVwDDJO+wCDFSztgSsn5\r\nyDfWj1Lm6k8ZEFPpyVP/YoyQCi8uMGie1W+EFJlR5wyVcuoT7fWISxk1AdSeyDBiztiSBV5icum8\r\nJRHaSJ318wDWsIawlp2AczUBBLKDcNUvl8CwCGAXXUEmlKV+RlhKBJCMem7y6Hm1B5mi+3j36Glv\r\ncYP2isGza5CfmqSTQbM3ZgLoD3UU3l6ePfeTWYMI8H/MIPifDiZ/rqMfETqDN9crD3lVviinawJ0\r\nSJTP/3QVsu8Z6DAHpwIdQP94rnpqX1lcry7Ige/0hnz0O/2GN9KnAbE+oL+H7kokFhNGTgCN3Oq1\r\nXcBTRIgZc6AsKGJrTULRIBmEH3hn/N8GBdVruq5XnkCQGRQGDCigKAOFxoi5RnlinYjPWAgM8y2L\r\n50NKesH9CE8iMSownoxaDd5RA6R4EUDfZkjJApLoPDkJ9COA0o0F+DWQhXae0jO930Y/eeuKrrpC\r\nWUIHBFI+Jw+ILGIWs0oLDf1ZfvJNJBYbRk4AueZjo1VC0xac9jnkK37zPkDXzWC57430pGWqI44Y\r\nlUrXb/nEd/8xbHFP/Vl/N7KU/qBQbuvRQH7SiO/1AYhhGpjEKIEAxnYn+mHIHPjuXPRZcC6u8YlY\r\n8eYEWRwE8ozoIdH/I4/I0wHIZRfZ74q2fDri+ZSpLkvK5+Si7qMLiVHlk0gsBEZOAIHS5EI3tdj1\r\ncN9cpl2s6+DO75XmXA9lsXalKwZ5fiRZeeNFikRiFOCRtkZK/+vVL/d2mGrnMewCfXyQPOcq+12R\r\n8plIJKYBYyGAYBTNS9D1iNH3XGC0Fh6LYRzzGf0N8vyJxLjQqz8OcsxHJnqlVx/zkf2uSPlMJBJL\r\nHWMjgIlEIpFIJBKJ8SAJYCKRSCQSicSUIQlgIpFIJBKJxJRhLATQK/reBnZ4627QI+6Zyyv+3k60\r\nye+wD+l2xd6e33n7q9kLK5EYNfQ7/a9X39zTod/aumkumCb5FB2lX9oO/7kmkUgkFhIjJ4D2TRK9\r\nwVu5NgDueth41EaevfYT6wdGwEaiNhC1waewRPM9pCNMll3ouxiZQZ/fxsmecxh7niUSg8I+ePq0\r\n/terX+7pcI83ZOtY2YNgmuTTxuK2mdlT/UY92h4nkUgkFgojJ4AUpogL84FIEF0Ur2sZl4UAY9O1\r\nLIM+v53ouxrTRGI+sMdmHdVhLhBBJTZtHwTTIp/qRKzaQdG1HhOJRKILxkIABZBvQ0SBQSFqSC+l\r\nbtokNrGt0S9P2FO+trSot3votfVDv9BUg5ZFmLG6DKaVQun7Pop9zxKJAK9ThIIL2PKoy7Yn/SKB\r\nCBfYi1xOsnzuCf3kk0yLldsmb+okNpkeBP3qMZFIJIaBsRBA0zMB63QE5BaYfePGjSUsG6XXXl8j\r\nQLh4sNBPqYtJKd5oG+08wRoeMXjPPPPMEodYnqaMKN2ATV7FxQUBy6+44opnhYOab1luueWW2di2\r\nRvwXXXTRrOEYR6xRU1/qxjOJBVxD9BPh8vqB9yjC6u0NptpGsa8bMqNd63Jb42WKbS75ayvGXfzQ\r\ndgQY7SbGaYQTXIxoE0BTlmeddVaJhR0B77VxTW6ERBM8P9CPuIijLa5qG5MsnwFElJey7jP95BO5\r\n/Lmf+7ln6TDP0I8AGtTW4fRAXfWqx3GALhhUXsTZHdSjy9u6t3WjdAXdo737hc3sBWUeZF9KNqgd\r\nFtCz2uw7BhUGQW19mEgsdoyVAFJup512WvPEE0+U34zN+973vhK2jdERlUDcXcQPMXIv9FPqpleW\r\nL18+82sXeil1pFOwcHCfqSL5b926tcQ5/d73vleEX5xiivkNb3hD87GPfaw59NBDZ4kozLcsmzZt\r\nKqRC2ieffPJs7GMYBwG0/okCtxZJ/siS+mDwtROSXht/BtfCdYp2+/bt5dmCBKpDa8riem0ZRk7A\r\n9/DAIFM16aDsKWSK2XeH7xEvliK2UN5vRCHWeGmrOk4zMPRXXXVVadvA97///ea6664rz4UY6ocO\r\nz+o/6Us3jALDI39A0pEQJJBHCzGQr3pw/8qVK0sZpKtOkES/BzFEk4CaAD7++ONFDj2/Z7v22mtL\r\nyDb9GvFCcDyfejjnnHPKPdCPAC5btqwMEtqYVPnUZtFunuclL3lJ86Y3van52te+Vs71k0994YAD\r\nDngWqZBGTQDrPqHf/OiP/mh5hsCoCSCihWCFHPBkkgWf11xzTdELQDb+4i/+onzXz9VHkCNtIYqK\r\n+g24X5tJE3iByS+IHOM/oCu0K0ifXgDXIP/0ijXgoN3pHVBe+dayTycYOMgLeYs+E9B39F/paG8k\r\n1Dntr92kGTrCs4lFv3nz5j0OgBOJxYaxEkAKZdWqVeV7DYJLkb/nPe8pnxT/ZZddNmuEa6VOaM87\r\n77xy3cte9rJm3333bQ4//PDmyCOPnPXQ9DIwFO1JJ51UPHARh/TBBx9sDjrooGb9+vXNBRdcUJTD\r\nJZdcUgzh/vvvX7wcL33pS2c9djDfskjzlFNOaX76p396VqkGxkEA1blQXjxkymxxvoNRZ5DPP//8\r\nWS8Lxa+tdu7c2Tz11FNlwf1NN91U6o/C3LFjR1GiwnxpawoU4UWerrzyykIGEA733HbbbbPk9ytf\r\n+UohG4yOukYw5IHI8a7ccMMNpd2kpf4YCPWqLBs2bNhtag9Rcc4zBRFl6KTFa3TnnXeWsvHcIXef\r\n+MQnSr433nhjKYNn3bJlS7leiDBGWZkZcl4OsaA9J+8TA+S5eKt5NvRXzyyfqLNJR00APbf6qMGw\r\nvva1ry11rS+cffbZ5RoDtEBNABnxI444osjBC17wgiJHhxxySLk+CNCkySdvnP6MVCqr630+5znP\r\nafbZZ5/muc99bvPII48UMlDLp37+ute9rtSPa17/+teX30H61Am5UodkXvrSVj8/9VM/VdJ2hDe1\r\nH5FeCGgLMqbNDQLJELm8+eabC9FSz8qjncgHeSD/ZMQ92sl1ZFKfN4gPGBiSM6HzEC19x0DSgFLd\r\nkBP1Il35aQvX0B0GotIXX1p+vHL6lPzlpZ2sw5T/mjVrZgeY0tA/5YGQqlN6IwaLyqoPaT/PhZBq\r\nP9fwPMvLd3pJ+fUJfSdIcCKxFDB2Arh69eryHWJUZrTHqDIsFAcQylDktVKnuBAE59auXVuUKYJh\r\nHU8Ie9vAuIeiMDpEakwzISMUCYEHHgijYUrEdIBPI0geyxrzLQvCcPTRRxdlw7DVGBcB9Nw8sUb6\r\nlKO2QMIZYoo7gNRQvJS2e7QVZU45I0Dr1q0rsZIpd/+pW+k+9thjxRggiRQrwuS/GF37n6JXl4w+\r\nA++NSwpePrxAFLy8GQCGg6fPb4bn85//fEmH58o5BMwzfOELXyjneSKU2UjfedcxZAwXA6UdkDm/\r\nETxtifwhkw4kCenUNoyLstx+++2lbO4999xzC5mXFuMh/9rDOcmoCSACEF44UE8IiXZFqMkuw2nK\r\n2zMHauJCZvR3bRLEkUzUhnTS5NNv5feM8uAF0s946J73vOeVvmgwof/U8snz6Dn0GURUXfJcxhSn\r\nNBEe5UViIn1yptzIn3qMwcIoCaC21XfpXkSI192gG/ECsoBwk1t93qFegrAZZHk2ckvOpBFwnpyp\r\nF+1ocOVTPfvPgO/yyy8v7atu1Rs5Zg/UsbzoAKTMd2Wgj7SJQRv9oj7lwYsI6phMG1TSsdrXp/YF\r\nekqeID1l0K/JrcGcZyO7dBICyvtIzyQSSwljnwI+/fTTZ6eAkQ9CzFggEYTcaBQGmQJmlAdd12PK\r\nKtapUEJGiBRQ5MczSUGvWLGiKHtrFBm64447rniQAvMti1FslOOtb31rUaCBcXoAKUVK1VQO8obE\r\nGDUzCgwBUPy8BhQmZe46deGZKGLkCzHTnjwmFDIFbkpF/VDcDCTyJI166lGb6BeMgesYfkYmCCDi\r\nIX1EgmL2yWMQxBIYNYRDm5rKDM8gY4DcqF/9DRBTRJThYwg8C6PnGaWvvIxEeADVi7ZhgNRLEEBG\r\nhvFyP3Irb/UR3utJR00A1b+1f+pRn+ft84yIgjYlI4yy610X6EdcrAFE6NuYZPkMICPaEVkL9JNP\r\nJOJnf/ZnnzVdGASwF/Qn+q7GKKeATZOSBZ5wgzdEGVFT70iUWQDl0SbOkzOyER5Csok0kTfpkIuA\r\nZ3O/a/UX8oQgIrqu0z6uIeP6R3j53aP99CfEkAyRU/lIwzVkjH7wHx0VNgLZJ8d0CZ1GPpUtpqpd\r\n73+gk5QB2XWtwQX9RR94drrCfQhjrxeHEonFirEQQGQhQBAJnPU4vEuMMwNuioTQUvowyEsgFBdS\r\n0EYvpS6tCy+8sOSLfBBw0w2UDVAmSAZlZ50XhWNUiQBRfoH5lsU1MWXF68RIxlTwOAiguuch431h\r\nfChAI/qYnmV0gyBQspQxpeg7Ysj4MgzqjAFEFOKlCErVqN21ng1pcx1yGF4S4MmRhzZxnTVEyIj2\r\n8B8D4ZxPv+UHCCvDxVgHPIf0lc130I7ykzdPk3yQSv2SIbQeS73H9Ub/6kC9+M5L7T+f2kpZpK/v\r\nMobWDyEKzqsb/cMzLwbUBBAYZOQZwWJ8gfeGzJINz619Y9oS+hFABpvHrY1Jls9Ar/brJ5/OK4cy\r\n19gTAeyFfvW4UNC/yWv0b/KLpPk0CCBb6sFAyEBAvZMj/VxbgPqj02MdMLiXbIUOIa9kkpyG/Pju\r\nXOh415B5+alHeYdtAG1KF4E06J3QPwFlchjU6QfaJeC6KLP7PQuyqI+Sf+c8u3tDN3ku8p1ILBWM\r\nnAAiDDUBDFDeg8KoL1z9g8C1vZQ6MPjzAcXStSz18/Ne1M9OycVaNQqzXhSeWBgwDKaq1bv+8Oij\r\njxYSN43ghUIA5gNTfV2IyyTL557QVT7VSb02bm/oWo+J+QEhtOwIiU0kpgEjJ4C8C6ZxeLt4cIyu\r\nfMbhd69z8d193PS1l2JvYOBNJ/DKGMHVh5Fm+9ygh/S8zVqPLPeG9vMbtcYzOow6/fbJG9PPMCYS\r\nCwHeaCSQZ7Qti/G71znf9WXrRE3ndcEky2f9zPUxV/k0xcrzra56pevwH09513pMJBKJLhg5AQTr\r\nQCzuNg3T9bBPnfu7wtSC+00jDeuwHiamLLqAYdrb89vugKdzvh6QRKIL9DdeM/2vV7/c08GL6tOU\r\nX1dMi3yaTnV/1FWvI/5rryFMJBKJYWIsBDCRSCQSiUQiMT4kAUwkEolEIpGYMiQBTCQSiUQikZgy\r\nJAFMJBKJRCKRmDKMhQDaPsEiay90dD28pm+vqq6Lr21tYcsGER2GdUjPW5P1vnODwPP3erZeR+yd\r\nlUiMAuSKfJGzXv1xkGMufda+cvb87CVncz2kZ9uprrDfm/39ej1bHOrH3pBd9VDKfiKRmBSMhQDa\r\nCsF2EbaasOVBl8NGoJS7CBJdYOsYRsY2DzY5HcZhs1NE9jOf+cxMLoPB89vmYU/P7z+bCItYkEiM\r\nCvoy4kTOevXLPR36rE2Cu/ZZeYkj7bOXnM3nIGs+B4UNgG0DE9ux9DuU1QCwqx5K2U8kEpOCkRNA\r\nG5uKpzofGBl33YB1vnn2w1zKkpvBJiYV49oIetDNl7tiLpvG50bQiURiGjAWAtgOhyT6hTBA9t/q\r\nB3uLCQwODFSvEEwRkkpIoxq98gRhxOrwQ8L+2OC1hv9EhTDVE6HLathkdj5lMd1E0Qv7JNamcGY1\r\nRh0OCtRLTGurE6GYPHc7tNWe4Po6LFMveC5tPx/IZ0/7pQkltVD7qSm7+qnra7GjHQoOePX0fc/a\r\nC2256ddnedaE9GqjX/g1XjgELtqv1gGg7W34DMiYcrZhT8NeoeBMc/fysA0jFFxXPdQP45D9YYC+\r\nHFSuQ4ZGDfLab79Kem4cZUokRo2xE0AESLzPq666qsQX3b59eyFb7ZE1cmSaCPoRQNMyr3jFK54l\r\n2L0Ur13+BZynqAW5FxCcQj///PNnrvghrPGj0NzvP2StNkL9jMCgZfHca9asKdPaAqMfffTRu4Ui\r\nGmVAeBB5QZ0wpsgA47lly5YybeWzDUZYGdtkj6Gvg9sziuo8wDiKu/nYY4/NnJkbLCWQTj+oV9Nu\r\nCwGxcYWPEsR+LhsOTyJqAqht9c1Vq1Y1V155ZXPuuecWsosg1bFeXb9ixYqZX/2Ji77tvzZ6kS7T\r\n0ORNXxQXXL8Ug7huS33oU5/6VPnuWrF923qjHwEU+P/kk0+e+bUL7bJ4DnGGI+5sjfnKPpCdu+66\r\na+bX7hi17O8J5L9NaPvBMgK6bBDQu7W+6wUyRuebyrcB96CgG/oROQOH9evXP4vYc0Lo69p2b+VK\r\nJBY7xk4ABU2PAPGEkQGiQH7iJ36iGG9KkDJB/t797neX69oEkLAiksjay1/+8lmlH0Stl+J1f5A9\r\nMWDtvE/BnHTSSc2dd945O1VjOsi6nCOOOKIYw4MPPrgEpw+0jUDXsmzevLlcG7j00ktLAP7AqI3A\r\nPffc09x8883F4FrfSAlee+21hdD5DFCUFsJ7Np/KyFuj7O5xPYOMBCJ/H/rQh0q68SwiNah/Xh71\r\nxRBQyhQ27wxFL+KLdpG+3/oFMm5hP6+QNZ3yYaAR0HixKPKQ7+WXX17Oa1vkgFFQZvkhbdKRn3Jr\r\na/Vdezo95/vf//5yj5jNokvoo8gRD5L/DVrCE7XYURNAbXfdddeV76Cfqr+DDjqo2bhxY2lDdaBe\r\nL7zwwpmrdieA2kvdacvDDz+82blzZzHoQq0F2qQLLrroolk50D9cgxTGIFHgfmm7z/ef+ZmfKf3r\r\nhS984W7yVBNA+iVCy3muY489tpRF+lFe+cQUsLQPOOCAZp999ilh2fxnbV6s4SPTc5V9gyEDT2kj\r\nou6TtvqVj0HwqD2AykDXqiPt43c86yWXXFLkkMcOEbf2kd40gCMzZBHI6bZt23YjgGY1PEu8kKN+\r\n9C3yRLY8Lw+uZTpxDVmnM+h67Uof65fOg3ykoQzKKnqKtghPPHnXJ03pu08+tYdYu69evbpcr52V\r\nD8Gl+w06PA/b1J6RSSSWEsZKABl7hKs9XUABHXLIIYVQvP71ry8EkcEW1xPaBNALHj/3cz9Xjn/8\r\nj/9x8+pXv7p856GBOs8Awd+6dWvxLiB2jAJF/drXvrYQBsqZclu5cmVRUAySMvBW1ut42gSwa1mu\r\nvvrq5q1vfWv5PPHEE4vSqb1poyaAymmqjrJErChQxhLRqskARan+EDieQQoTMaa0PYvrb7/99kLa\r\nKWp1xFOGOAEjoG7DGCMRyLDfa9euLXWP9Gvzm266qfngBz9YPFE8MTt27CjGKfKhsE1Bul79OQc8\r\nMBs2bChvaxpMyOeJJ54o98lP+eWzbt260rbKx5uIBAHjog4Qj3jrEwl2DWLKyDEkyqPPLgXUBFB7\r\nILxQe0oQFp7wt7/97c2tt95a+koMpqAmLmTnNa95TXPggQc2z3ve85qXvOQlhVS5N9J0TZsA6lcM\r\nOHkzkECIEA+kjddPGZBvXnxtf9RRR5Xz9Ebtja0JIJk//fTTS/4vetGLmuc///mlXAZ12hGURTsj\r\nl9JC0Bw///M/3xx55JGFxL7uda8rRFb/mqvs33jjjbNp/9RP/dRs2vI89dRTi05EgEcl+/q62QiE\r\nXh9HquhFso2cGUghxsqkv/OSWRawadOmIpt+qzeySubJU4C8OUc3kDf5kFky5RwdgzTSKWSRvpev\r\n9mYDxImmQ7SjASrd4Xq6wYBP/urVvfoE8FArPz2BQLrf//FCkPamr6Sp7HQVXcszbICB+Pl/qch1\r\nItELY/cAUuCmTAIMszfxzjjjjHI+DAvh7DcFjEgiFrwMlC6DQKHFaLCdJ/D6xJSkdYDLli0rhuOC\r\nCy4o5ygCHg6KjweQEkFyEAqj9ECbAHYtCyPLQPBWUZpG2jVGTQApSoSHAaC4jciRoCBOAcoaOfBc\r\njBlDS7FTnH6rU23JO8NoqDuKOsCzQMEiuwgV8o348YKoa0BEtRPCLV2K2n1BOoLQ+WSclKntUVUW\r\n/QgBjLdbea8YNUaG0UIwtKnyIjZRTkbYM+lvDAmDhDQiGsrDK8TgMEZL0QPIwNaDHW2qX5g6055k\r\nA1FTP6aHAzUBRNyQKXKBvOn7zpGJQJsA+l9bgesQDsRC+8R0KeOuDORVH5Q/QnbaaaeV/wM1AQTl\r\nQjw9m8EfL5TyyRPqsvz1X/91ISr/6B/9o9IP25iv7CMvP/7jP14GQr0wStnn9dauZIc3Td9XLjII\r\n5AAZ4klDwpQdidIu+gBZJh/+D89wQFvS3Yic7+rUNeraIIosu1/fQwrJF9nSntKmF5FC9Sp98ulw\r\njtfQd2WhF8KDqD2VmV6hN/Rpujs8euRW/6U/6DfP7V7peT6gO2LAmkgsRYydAFII1g8Z6VESCJ9r\r\nfvmXf7kQDJ4CIJg8NNAmgAFEzdqbmHIJtPMEUwknnHBCIQCMPm+D+88888zyP8Unf0qQ0aMkjHgp\r\nlZiKhrYRCAxaFmSEMg0govIJjJoAUr6O8KhRrD4pxyDgQOmqO0ZPfVDWPpE3hIynjpJHrHyqDwoY\r\n0QXKn2EHXgD1ywD4P9Z5hccAeVMOo3RtwftC2SPpvAc8L4wIQudg9IER8J8BhSkrhg30JV4OXjzk\r\ngLGRjj6hLeI6QF6RSsQYaZSvw7SY8hpEMBiebymgJoC8JbzSiJe60jfVJYOq7nnFGVTXG7AF+k1d\r\nWgOoP7fRJoDAsySfkDlEFMHQB8BSCX2MfkCyED/rE9/85jfvRvjaBDCgjw2yBhB4lOv1q4H5yj6o\r\nz0cffXTm1+4Yx+CP/NB7yBW9iCgbNOkX6kz9uIYu8Jz6gbohy7xu/iMfdb2QIXqBztBG9LhBl2cn\r\n2wbeCDbC5RpTsa6hR+SHnEnTIEsZ1Svi6X8E0YyNNAyk64GYgZl7yTUZRkoRflBm/ysPYsrrJy8E\r\nVB4gD7orkViqGAsBJOQ1KGkEgDKJ6WDKHgFgeICBjqm9fgTQvYyVEX2NXooXKF75UnLWgvFGUQDA\r\n8FAqFID/KEQKizHhaYpR/XzLggAjLwEEpPZg9TOmCwXP5QgvTXxSnD4DRsZRB/GdAo4pIXDOfUgi\r\nqMe4p50ecgW8M3E+0nV/lMP/6kNbRfpxPWXuv8gP/OfeSAekEfn5Tz7SiWvq+wG5DUgv1ghGudzv\r\ncymgJoBgIMBYM4bhPYnBAFlRj/p6yA3067NkqZ6eDTC8se4uoC30I4YbSYBaBxikxD6c2i6ukXc9\r\noDKwlH4bnqVN9KBXWfphWHqoH0Yt+2AAFrIG2kH/JjPkF8heLFMJ+Ypyembf3VejJsPSi7RChsA5\r\n/4FP8gyRt3aO/+UTZegnh8oW9oQMSydQl1m6IeO1/Ps/7k8kliJGTgAJJY/LfMBAxRTRIKAY6imJ\r\nYYKXpEtZuj6/KZJQxpMOBplXoK38E4sHBl71koy5oGufRbpq0jZMIIq9PID9oCy1B3hPMCBM2U8k\r\nEosVIyeAQGkaCfMIxJTjoId7TOt1UepgpG4tCeXuDbJhHNLiPYyFx4OCl8U05J6e3388IOHZSCRG\r\nAXLFuzdX2eS15/3qAt4cywfc10vO5npIz5rBtiduT7Duz/PzLPZ6xjhCD1kb2gUp+4lEYlIwFgII\r\nppYsKjYl1OVwT6wj6wojdms/eKmGcUiry+bINfb2/P5zTSIxapCvucrmXPusabdeMjbfI6bzuoDX\r\nrdfz1cd89FDKfiKRmASMjQAmEolEIpFIJMaDJICJRCKRSCQSU4axEUBvYcUbV12PuSLeGB3mMVcM\r\n8vz1G22JRCKRSCQSw8JYCKC94ewpZcG4xc5dDi+PeJOu6/obG35atN0rzbkeymLrGttBdMGgzy9t\r\nGyMnEqNGrwHJIMd8Bi3e1u81yJrrEVuGzAX1lkD9jrkiB3+JRGISMHICSLF648/+SvZloui6HGAf\r\nsi5vyEWe3vAbNrw12eWtR2Xx5rDNTvf0/P5TR0hgbquSGBUMrGyZZHDTa1Cyt0N/rSPlDAJ93Z53\r\n9pHsleZcD1EjbEJc7/82COxS0C5Le7AWA9HYT3JQ5OAvkUhMCkZOAG2uScHNB4xULwKIONk8tK3w\r\n5UlhLwRscLqQZRnHZrCJ6QXyExuT1wOSQQ593ea8XQcttlESdWIhIKqDKDKDwrWhn+rnCsQ5mMtA\r\ntNfgLxC//ZeDv0QisdAYCwFsE6A6EkjsEN/GIJFAbGArhFx7ergf6RLKTL48BfYKo3TriAYgEolR\r\nvrBPoiHYSqZGv3BQeyqL0T9yKKRZKHhxdiOEmenqCJmVBDAxStinTp+eD/r1WfLVa1qWbPeKtTsM\r\n9IsEYoo4IknU6FcWYcfa4eCGNfhDUnkq20jZTyQSC4mxE0Aeh3POOacoakRMTF6ES6BuSjpgV/yI\r\nA9qPADJcgrAzNDV6KV75nX322SWeqHQRQRFGxBatR+X25aLIb7jhhhLvUiDzemqmHwHcU1nCw3DS\r\nSScVo+La17zmNSXmKfi0WSyMOh7onsB412HRRgHPbspsb2s+GVwv+fSCcotwUbdrPwgRJioFr9RC\r\nkZJJRr9QcGK59iJSoO4HCQUn5rcNltuQbjssm/vF/yWXERqxHgSCfCM9g7k6VnWgXyxgg7DLLrts\r\n5tcu9CoLkrfPPvsUfVGjn+x3GYgikT/xEz/R/PiP//iz1hJPkux3gf0Xv/a1r8382jPI26DT6OR4\r\nrvuuJhKJZ2PsBJBSFVg/wMPGAP/zf/7Pi0fwggsuKIQISfMSB7QJIOXPO7dhw4aiTMUPFZT8kUce\r\nKf/3UrwI4Nve9rYSDxipkSbDd/jhhzfnn39+IaIMjLi/CN/BBx/cnHrqqc0rX/nK5txzz51J5dlG\r\noEtZtm7dWiIWiCgi2DmDxBMpsL4g5zBqI2Cd5DPPPFOMF+8kjywijsg+9thj5bksUlc3rvOfKS3e\r\nFOeUVX26/hvf+EYJD6eOGG/3SR/prYO2g3ykF1EbTMUJsye9VatWlbaRh2uiPqTvYBiQ8yDmjEp4\r\naqX71FNPlbquCaD0GSqIZ/G8jz/+eOlnYkHHtCQC0fb8LlXUBFD9kxFrXD/72c+W/m+TYnWtTgP6\r\nqj4b6EcAly1b1nO9bC/SdeONNxaZMB193nnnlVjc0n3HO94xc8UPCYHy6FfHHXdcIWrr1q3bbeDY\r\njwAabC5fvnzm1y60y4LM/diP/VghgI7wzEM/Auj8oAPR008/fTbt0047bebsDzEOAtgvaooBeMiL\r\neq+9m37X0A4isNSo11+7V5uBwZ1BONTP6ppIV3QU+qMOu2mwF2lAnSaQdQMIugna9eha9RuDxvZz\r\n130okViqGCsBJIQnn3zysxSlESHvGOX+1re+tQgnYxwj/DYBRBgvvvji4r37kR/5kULQLrrooqI4\r\noJfiBeQPuWTYKDiK+9hjjy2kgefhM5/5TLN69eriBeT5Q4DWrl1bSF6gbQS6lIWHSboIIsODOLof\r\n+QwFO2ojwNArB48PUuTTwnWfvC3KpqwIFSN9zz33lHt4Nf1GILxEoD55cU1nM7bq2bP5f+PGjc0V\r\nV1xR/gOK3r233XZb+V89u95B8V955ZWF6IUH1uJ7ZA+5dh8yv379+uLl4y1y3oGYKCcPlmeKOnX9\r\npk2byjlGDdHQBowRD5Pye2ZkxTO7Ttm6LvhfjKgJoPVq2jGA2JOFV7ziFaUfqBfkjLdanw/UBJDR\r\n3rZtW7N9+/bm5S9/eSE5vtfp9iKA2lkb8SSpdzrAVOmb3vSm5qyzzipE0CBFn9DmL3zhC5tLLrmk\r\n2XfffWdJAtQEECnwcof+cPzxxzevetWrynflIcfQLouBmwHIT/3UT5Wy17F827LfdSDK+3fttdeW\r\nwaWDznEuMGrZ19/Vu2UviLf6RqIMqAzElZ1n3DPSxZ5ffXhGU9jIlvr0/DGDAfqUgTRiSNdrO2no\r\nG9IXTs+AwjQ7GXaN69WH8+pIXzRwJI+8gNrdrIw0DA7uuOOOkmZ4CA3wOBfoEvKuLeio0AF0D4+0\r\nT3rJEhxt6ZmkrSxC8iUSSxlj9wBSrrH2DRFADIy6jYx5BnnjYE8EMMDb9PM///Ozo75AO09ggGLa\r\nigfo6KOPLsqNogMjWAQQiUEkEA2kANHgHQq0jUBgkLJQVqecckpz5plnFsX00EMPNW95y1tmp7ph\r\n1EaAsuYB85wMWjw3hUgZU5SMg3bikWPcKVsKlqJG1tQbEiUthpvCZ2QZC4ZBfTE2UQ8GAv5DMhkf\r\nyl5bi93MGEsbWdYWvKX6gjpioJB1REAejAESh5S6l/KXr3IieeEBRObko/4RGmWWLuLiniCAiITf\r\nntF6TXktddQEUL3HwKXGpZdeWgZPSODnPve5Uu+1V7wmgIw2GXe8+MUvbt785jc3K1euLO0RxrgX\r\nAXS/dnYf4oUIIhkGYNqTx9F9jLg+hhTSGzyWtbzUBJC3R1vytB922GHNfvvtVwZ4Ds8AvcoCRxxx\r\nRCFCNdqyP9eBqH6PvLQxStmnA8m09ifzZEM7IWKAjCNqCJuZGQMrgyWEEYlyL3nxH72KaAcQKgQt\r\nBlR0Cfn221S8gaZBobqRD6JIB9G7Bn50g34mf+nqF+Rbvcbb1EgeQqj9gMfRAFK7+uRMoNMibrvn\r\n85xsiX6u7/hfPmvWrCkDTJ+DLBtJJBYrxk4ACTWyR0iN2Bh/4Plj1ClQGIQAWq/0xje+cbdRNPRS\r\nvAwT7yPFw6DJi+ELQ4ZItAkgpcBwUYxhvPoRwEHLggDGM8rfdBNlFhg1AaSo1bPn9pYjchQeMkqU\r\nsTRl4zfjYHsdBM71CCMD7dkRaAoeEWYckC7Xeh5EkaJHroCy1u6MCsWP7LmGktdOPAry5l3QLpQ0\r\n48OQRLnkh3ggcgwBryPl7x7/ab9oM/czXIwu8uoaZTMdX3sAGUPPpOyewbMsddQEEMFWlwGkOwZB\r\nBgHa3FS+ekHEAjUBrGGaVp9oo026tJP6Do+rMukDiIH2B/0McTBANHCkO+gFMl1jT1PA9bR1oB8B\r\nRBjj7ejAfAZ/NfRFfbmNUco+Ek0mkTcefToPASJflkYoH9KPcJF715E7ZdcH9AX6EtlDEslQwDMj\r\nhtJQtwaR5JRsI3TaUT9zHVJngC0degC5NFjXB9gKZNBAWV90Xn8yqPSfwR6dBci+5QBRRvn6HTGW\r\nPZPnVQa6htzTdfLTt5TP/4nEUsZYCGC8BBHg8jdNUq8LI6hG/TEy530JMsXjwxi0Qait1Wq/DNBP\r\n8SIelBrlAe6P9YjyUC7pITiUPSUZ69BiZDjfsnhGSiqA/Mkn0M+YLhQ8DyWIGDGsRswMXyhOCpah\r\ndZ02i7KqN+WkUNWXdnMdSANpVB8UPm9a1HnA9XV6pn7dIy31oz71AdM9QQwY6/DKaB/kBHlQRv+B\r\nMlDusX4p4JrwBvB+IAquZbSVxaff8kVUPdc0oCaA2h8J4IVj4HnH9XuG1nlTruoQ4ennAaxhqYX0\r\n2+hFupBPy0BMAyJ3vM/OxQCRkdaGymS9Fq+bvnPMMcfslkc/AmhwYfq6jV5lgTe84Q2za0wD8x38\r\nBRAQz9nGqAd/ZM5AmBx5VnKP1JEHsoj8kUEET9nIof/JiXrQDgbqPLX1GlHpabc4xwsYOz7QNeqR\r\nBw65RwDJMIJp4CYPMo7s0R/0NZ0qf+focIRRH9Ru0XeBXtb+ZN9z1QNrUE7n6GADX8/P46hfKEvb\r\n45tILDWMnAAyqLwtjC5jQpjDMwN+t0lT+xoErBfp6gf3U0DWMMkfqXDU+fjtP/n4XpfNeb99xj2u\r\n8R/l1ssI9EOUJZ4/4Hyk7bwDCaEo5btUgFhOC5lajECeGOQajD/jHf3QwAj5QnSQROfrF7n6EUDp\r\nGkC1wfD2euNamgx4eF4RBgMPQErk4RpyGAMUn4x4wKAiBgM1PEOboEG/siCvbSLp/mEMRHnUEJA2\r\nRj34S/zwpR/EM5GYBoycAIKRJWJjRNn14D3kRQov0KBgBExL9EpzrgdlbhQaC48HxaDPb7qD8U0k\r\nRgUEMDxdCEw9SPHduXowFoOV+I5YdR208PDyKsXgK47IR7p+R3niP3nEPfVn/Z1Hqvaw7w1mIYKk\r\nyS8OMo7sxm+Y60C0Hvz6RIod9bmlOPhLJBKThbEQQKCcKbe5HPMB5TrMY64Y5Pldk0iMEgZWXqIx\r\n0Oo1KNnbYZA1l0GLFyisy+uV5lwP07zWcnUFUufeOi1TjvVv9aO8XffF7DX4Q1Id9bkc/CUSiYXG\r\n2AhgIpGYXPQakAxyzGfQ4t5eg6y5HvMpC09cr+erj7kiB3+JRGISkAQwkUgkEolEYsqQBDCRSCQS\r\niURiyjAWAmi7Bm+DOiy6HvSIe+ptUgbF3vJ03pYWsXXJQmKSypJIJBKJRGL6MHIC6G03ezJZ9C3U\r\nTtfDZr22kem1nUQ/DJqnPa2k3WvbiGFhksqSSPSCgYcBSK/ByZ4OAxcbCM8F3h62N+SwD+l2xUIP\r\n0GyD1C9th/9yq6REIrHQGDkBRGiE4ZoPxP7sQoy65Gkj0TqW6LAxSWVJJNqwD55IMAYgvQYmezrc\r\n4w3Wrn0WSbMPnggPNvMViWK+h3RsKuxZupDAfgM0ewPWdTLXAZrNrG0zE2kpo7JGeSNt9dhr0+xE\r\nIpEYFsZCAIXimg/s3t5L8Ro1t3frh3ae3vBDruwQ76h3j49d7eeLQcti2w1lsLGtNxdrDKssicSg\r\nEIxfX5wP7I0pKsSgIBPI30IAGeylK/rBtb0GaKLJtJeedB2gqRPbu7Rh42oxqdvoWo+JRCLRBWMh\r\ngEa7bVB0J5xwQlG0QAkzRrZEaE+19AvvZAd3O/a30c7TBq6Cu4s/LOaoEX+gX3inrhikLAifZxZf\r\nV6gt4axEFgkMqyyjhO0rxOb0jLwm2o53B6nw3Qa9g0IMXlOK4vG2p/x5SQatG2kIP5fYO3id6gER\r\n6KfkcFD0i2BBtnuRSzLRb1Bo8+V+iO1UAr3K2E9XDDpAC/QKBddvgCY8mZCFbfLWLxJIv1BwizUS\r\niOdvx0HuB9ftqY0XCvRQ12ACicRSw8QQQEpXIPcIik5RisfoU9B2XrtAP6VudL18+fKZX7vQzpMH\r\nUSzTXhgW6RqkLJQQAigyADAwAuaH4RgHARTxQLxNZWJQhdoSrzO8H9Y+Rd0LhSUkWL1eye8VK1YU\r\nr4ZYm0JiidtqPZaYsuJ2gg1xw+sh1Jepx2hjZA9ZEGtWPE4B35VHmC9lYfgNDmyoC/IUzxMYTNco\r\ndxgWeV900UXlfBBJ66wMBKSF8LjP57Tvv9YmgKYszzrrrDI4iRBZ2qsmN/qBgPuBfsRFnF4bKrfR\r\nSyfoZ5deemlz5plnNldffXVJzxSptAM2YTbYgFtvvbUM5iIkXGC+g8XAoYceWvpsjX7ySR5+7ud+\r\n7lkDV8/QiwCqu9B7NUYdC3hPII+hp/YG09g20h4ENtNW53uCvqCuDR5MzQ8KuqYfuaRXrrzyyplf\r\nzwZ9YmaG3qMPE4mliIkhgJs3by4LoJEEI7Mw8DfffHNz0EEHzcYAhVqpIymCd1PQL3vZy5p99923\r\nOfzww5sjjzxyNgRUO8/HH3+8Oeqoo4qxa4eKmg/p6loWBPDEE0/cLZSc+yMI+agJIAKmvnnebrnl\r\nllIORtg5Cl1kgk2bNjXr168vSpFhvv3220vbxfS1ZxO8H7ni2dBO7hFL9vzzzy+eO2s4eTw2btxY\r\n2pwnVlsH+bJua+vWrc2FF15YyiB/RBKpdp86ESye8X/sscdKOaSBQDMo7l25cuUsKWRA5O08w+85\r\nXO8+XkrpKaswXdOOmgCSE+QP0WII1REPtYGNukdw9Gvk4Jxzzin3QD8CuGzZsiLXbfTSCRdffHHz\r\nyU9+snzX7qZykVFtiPDHAIWRRvZ56AwUyF49nTrfwWLgsMMOe1Zkjn7yiYQecMABz4o13I8A3nDD\r\nDbsR6MCoCaB6Ij9k0gDOb23reQzGPCuPnXKRY2WjB6xXjLrRZtrI9HXAAMw9dAIgiDG7Iz/50O/u\r\nqa9RV+r4pptuKv/pl/IF+UjDQER7I4baX5ogpu8FF1xQBpZ0h+g29ewK3aCPCUGo/0hHetKlh0JX\r\nGDQa/EiDLpIOfaIezEywHz6VNT2KicWGiSCADAmFycC8/vWvLwpFOCZKmnBRkDVqpU5YKSnneJpM\r\n7Zp+4VGMxd+jIoBdy9KLAJ577rmzxGXUBFA7xKgY0aLcGSbGgHdFmC+KkTKnoJEoytO5GGkr+2WX\r\nXVa+u4cC3rBhQ1HSvK4UM6VL8QunRZlu27Zt1vuHSDI2vCjuU1/KwCjx8iCnlC0C6BMxRfy05Xve\r\n854ylY4UbNmyZbaPMEBIqzTXrVtXFu8jKcpGoTM+vEHI5LSjJoDqUD3X0I9f+9rXFvKMVCP7ruFh\r\nDdQEkNEkBwZCL3jBC5r999+/OeSQQ8r1Qfh76QTG/KSTTioDkTDcPMoGg9qScdfO+gp5lq5+8tKX\r\nvrQMMAK1rpjLYBExQH6VWT5kNsrdlk996XWve12pn+c+97lFl/kdpK9NAJVHWurSIMr3IDAwSgLo\r\nOckzGSf7ZJ68Il+IDbmix5CkHTt2FD3Bw+Ye+tpvgymDNXJYewA9G5lzHZ3iHm2l3zhHDumQO++8\r\ns+RD5+t7CP8jjzxSzvuuHdUxEkhnSBPxo0ccZDt0Jy+18pN9z6Bf+5/+gdBT8tfH9DcDwO3bt5fw\r\ngdJGOukWfUy/oM8QRPbIIIR+co175CGtRGIxYSIIIGXBS0TREzBTvs7xClEGlEKNfqN6ymuQaR1T\r\nwNbd9cKwSNcgZWlPAfOS+R1katQEkAHi0XNQhqEkKThEmTGnzE3NI36+I1UUaEwJukfdInKMguf1\r\nyVhT8hStNmVkpMO7wKDUhi+IprzlSblKh+FHABkB9cKYMkLSUhbKHklgMHiS/QYkk0eQ0UA84zkM\r\nOPQl3izrFD1HvdRgGlETQPVOHgM8gQgJQ8rjo51NpSPQBi6BmgDq2/o7chDE0aAolgJAWz71Q/3L\r\nlJ/8TQMjHl640P7Ae8NbhIRqM5/yOu2008r/gVpXSLfrYNFA56d/+qeb5zznOc2P/MiPFKMfaMun\r\nQY57yQoiqi55LmNrnDYBVG/I6D/7Z/+sHL7XMx2jJIDqjnwhzwgQDxeZIUuAtCHJ5If8IV7aHlGL\r\nAaI2et/73lem6slwQLvx6tMrviN/6lW7IFCm1t2vvrS3+w3+1YW6Ywu0E90if0RLPdIjZDcGkgaI\r\niBnQP2xKDGp58LRdEMQYFCKfrlNefVTa2k+62lY/1Fc8O330ne98p5SfrdIX9UH36PP1MycSiwFj\r\nIYAUbg2GBkEI3HjjjUWYeQEpWeviQnChHwH04ggj3kZbqQdp6IVhka5BykJJ1S+BMHT1QvNRE0Cw\r\ngFv9IGSUpFG0ukZWQTtRmoyu0TSyijDEFDCDFeuwKE/eE5/uRyAoaoh90NznfsY5IA15IAC++wxS\r\ngLxR5tKKKTZpMUKg/hglxiteOIg0pBkGlWGJsngm5fPZb83QtKAmgDH9pa6tnYypfYaTsUSyyaXr\r\nXRfoNwVsDSCC3kZbPsGUcrwZzNgzushDvLAlbyR0xYoVZfBh0Igw0BX1C0PzHSzqd0cffXSzzz77\r\nNM973vN200P95FP//Nmf/dlCFmqok5oAAm+ZtB28TjVGSQBB/ZId9Y5wyV+ZyLmBmwGbuqSvETry\r\nYpDuk75WH/7zvfYc8945jyghloigQaV6ouMRZ/nR+8gcMu4a6yLlh0RLk76QlnaWnj5hAIo0SgM5\r\ndE1AHgit+w34kMoY4NEXvJW8edpbOr5LV/rIpQGj8srHwEHfZTe0ufsRU+VDhpFmspNILCaMnAAa\r\nobUJYFfw4DHmg8K1dZ6Uej/FarqDslsotMti5I2cmLJoY6HLsjdQfgziYgLySekjionuqAkgMHrW\r\nASJYvDvA08MDx2Az/gwmIxnoRwAZWIa+jV4EkEG3BtQ6Pd4hyyR4jaQNCAHirwxIO8PMuPPSIAKB\r\n+Q4WAangoWuvEe1HAJ1XjnppB/QigGAKmjeyjX71uJCgc+jHGAgZCMa0dzwPgm2gCK4ziIsZAOX1\r\nvfbogz4SkF6k5XsMHp3zG6RL/0DkrX3jf/lEGSKNKEvA7xgMIOPSCbhOGSMPkF5d31FGg9g4bzAE\r\nkZ8ySSfqKZFYTBg5AWRcjOKNoIy6eGLiMw6/46j/9+k+o+baSO0N7TwdDFedpwN5YADbBmCYaJdF\r\nnjxbPuM5R1WWRKINHpb226tdYQqtC3ExKOrXz2uDPhcggPMZLAZ4Qxn8Gl0HaOrE+tc2Qubb6FqP\r\niUQi0QUjJ4BgGoXb3ii868HdXk/DDArTfXvLU5g53sX5Gp29YZLKkkjU4D1FAg1KgpjEoCl+9zrn\r\nu0GVtVGm2rqAx8waTHLB21Yf1l61zw16SI/XTvqDotcA1cFLXw8a5zpAM41qiUWdlrqu69t/1gN3\r\nrcdEIpHogrEQwEQiMZkw4OA1MwDpNTDZ02EdlM+YJusCU77uNc07rMNaNul2xUIO0ExFuj/qqtcR\r\n/7XXECYSicQwkQQwkUgkEolEYsqQBDCRSCQSiURiypAEMJFIJBKJRGLKMBYCaH852yd4oaPr4b7Y\r\n4LcLBsnT3lX2f1roFy8mqSyJRA39zR5/+l+vfjnI4e3YLhg0z7nKflekfCYSiWnAyAmgzT+9ZRdv\r\nDXY93GcbGOkMisgz3rDrd8SGpzYOXShMUlkSiTaE2bIhsP7Xq1/u6fAmq6gOXSMiyNObx3vLcy6y\r\n3xUpn4lEYlowcgJoI2ij/flgvhtB7wmj3gh6Txj3RtCJ6cM49gHskmdX2e+KlM9EIjEtGDkBtNN+\r\nPwVr767YUb4O9dVGv939Ecte3of27v52eGd07LTPWIk9Gei3u39XDFoWEGReOdpREoZVllHDXmr2\r\nSYud8kXlsJv+XCAslG05pNPeiDcxfLQjgQCvnr3r+kU6cF57B/pFsOBZE1KrjV559kM/2e+KLvLp\r\n+Wwr0+7Di1U+B0FE15gr3CuNXhEyFkKO2Y06gkkv+L8OE7gnzLeMXevPtbnpd2LUGAsB7LV5Kg/A\r\n/vvvX4wBiBtp01SGgdKv0c8IiEt58sknz/zahXaejz32WPOmN72pjN4XigAOWhbxJAXSN+12ySWX\r\nlPiUgcVoYOxdJrYxUmsjW9N24rbaj01YsV4h73ohlKf6EgpMOkKQDYII+TQfAzatqMkYIygWtPYT\r\nUF8/FbpQ/63b0fVi8gb6EUAxdSOUWw15DjqtOywCOKh8gr78kz/5k2XdX42lTADpIwOvuSL2UqRb\r\nay8p4n3XXXfN/BoODA7FJjaw165+94KlBo888ki5zvUf+MAHCqm32Xg9AKE32J46nJ3+XKer/4tX\r\nTH9bEtCGPl3Xn3t7yYTYx3G/tLqun00k5oOJIYAIH/KDPABiRlGI9XnAAQfsJhi1EWDsI1qA4OHH\r\nHntsiRFqIXcIXDtP00iXX375zK/dMR+lPpeyiBlaK0TGJgjMOAwMJSlmKy8tD+w999xT2sXUvVE2\r\nBStAPCWqbLw6dXxTkSTEjnW9NuUZ2rhxY/Egvf3tby8L6CnbnTt3lpitRuSIIYUbCpaRoKCtrxL1\r\n5eqrry7p2NiXwvYf5cs7KPKE8rlWedWlZ7BAXxQI9yQGR00Aecn144C2Vd8HHXRQaVNeMV40Bl7c\r\n3kBNALUXWdWOhx9+eGl3MiHSRkCe2k7fj8EeD4rrwKAiyPx8COBc5BM8q36FANdYagTQ9DdSZPZF\r\n3Gf17BnpYl588vbxj3+8yBpypL20fcit6w3S1LG0hL0j2xFDWl/YvHlz88ADD5Q1ltKyblR6+pr/\r\nn3nmmXIecXSubmukS5o80kDObZit7cSCZiPYC+loQ2WLWL8GM9u2bSv9auvWreVehMv9otAgYgYh\r\n8tbHb7rppt08l/p0HYEKuRMPm0x4JunzbnteMYU989NPPz1z9Q+jX7UHP+pWn5I3mAFS14nEqDAx\r\nBJABoQxWrlxZhIXwMy7IhUD09eirNgIU0emnn15I4ote9KLm+c9/fnPggQc2Bx988KwBaedJUF1P\r\ncNevX1/ifAbmo9TnUhZKzTMff/zxzaWXXrrbW46jNjBIHWNH2asb9YQoI4PXXnttUe6C/jsosw0b\r\nNpS2YExDWVLOPJmMiHsRQd4jafIkaTfEEImTpusRvFrRb9++vRBLxEB9uI5h4FGkYN2rzYycN23a\r\nVIyCPIzuGQKEQRldJ6/E4KgJoD4QBDoGJcBzxlAh9Lfeemtpw/PPP3/m390JoP7+mte8psjB8573\r\nvOYlL3lJkQ/3Rpry/Pa3v12ML4Oq7Rnl2267rRBGx/3331+M6nwI4Fzlc/ny5eW7Mgf5gKVEAJE7\r\n7c1r9+ijj5b6VhfI0lVXXVXkC3Gmk8kxeXYOkQoY3Gk315NXxIYnEdECJGnLli1lAG7w54Ue999y\r\nyy3lt37gf31L2ogi2Q8gZeTfdciSctCZ9JNBIJ1Dd2hLusfgNbxrbEoQ0XXr1s1Gq6G3DBRFX9H/\r\n5Gu2QXqh0/Q5+SiLl39AHuGskJ4y+E0n0pP0jjoAfci90vDsAXVtIOs/fVO+6iKRGBUmggBSJq98\r\n5SvLNNLrXve6IgSEkcEnWEZ1NdpGgLFhTAjyKaecUsiiUWA9jVjnScGdc845RYFTEJRfYL5KvUtZ\r\nnAvy6T4eFVPTRpAwagNjeg8BNF2LSIlHSpnzpiFUlC/vIKVNoSLPPHOUdqzd1JYXXXRR+b527dpC\r\nAH1Kk4JE6BgG5IzSdT/FXhMMCpTyRix5EpC8IIBG9QwHLyElTGEzCMqkLiN+KhKiDdybGBw1AVR/\r\nyHUAwea50+7ag5HlybF8o/aO1QRQH9f/GVMeNwM656K/QBBAfZ1R9Lljx45CQhAQpINB5SVm+OdK\r\nAKGrrlDeX/zFXyz9/pBDDtmtPy0lAsh7FiRPm5I/HizPS96EvnOoByQHESb3NehtpN2SDV40fSdk\r\nOeB/HkKEzyc5lj6PH++jNOkM7U/2LUEISNeglA5hH5QDufzyl79cdIVncD+Spq/QZUHCeOyiHAac\r\nZiQ8D1sgXwMP/TBIIlIWBFBfVW79IvpJeADpQcTZ8xrIS0v5PV94APU390oj+r106Fh6EJFVHuX2\r\n3InEqDARBJBSoSiAITjxxBPLqN+0C4HncagNRj8vAKEfZF2P+3mpemFYSn3QslAiRptGiYgWT2AY\r\nz3EYGHWjPZApBEv5tIX6NoKnRO+8887STogc44+UhbKkxFxD6THgCJ5P1/MmGdV7LorPdLLz9TQS\r\nMAqMiakh6fEIIOoIsrphMHiJEHcK3rWIg7zCI2HgYMpHnSYGR00A//zP/7zIovYxVbZs2bIyTYYo\r\naDtEH+F3PS99oCaANawB1P5t1HlGP+ARAYay7hv9ZL8rBpFPfdjz64/K51kN0OKN5aVEAEE7GIyR\r\nKXVA5nzn5SVX6p2HT90hiXR2tBMYIFoegvghd2RQe5HbgDz0K4RLGsg3Ms4TZhkAnWKw6DqDjRjQ\r\nAdJpQCAfsq8cdIH2MEAwgPWfdPRP9iP6Ff3EO+gTgfRM8kQaEUiEzeAi1oPTOXW/Q4zNkATIAf1C\r\nNwbRM2uF5Cm356uXObhXGgF9J5b+eC66DhkNO5hIjAJjIYAUQw1KlPAGGBsLrgkG4kdYa2HiRpdO\r\nGxR0m1xCO0/Epl63VoMyGYZSH7QsnhuBMY1gJKlsgWGVZa6giCn8YaL29CUmDzUZA6Ra/0QM9Gng\r\n4UDgySgDyhjXL0j0I4CIgD7VRjvPPQGh6CX7XTGIfCISSEINgxuEAcYtn4luQPAckwrex5iaTiRG\r\ngbEQQARvPjC66uIFkKfpxkFgZGfdykJhksqSSLTBAxHrnOYK02C1x35vkKf1v4MgPFELhZTPpQ0e\r\nx0mEgXGvQVMisZAYOQG0vo33ILYI6HpYaMztH+vkBsGgefJQSLt+EWPYmKSyJBJtIFf6p/7Xq1/u\r\n6XCPqThTxl0waJ5zkf2uqOVzT+VJ+UwkEosdIyeAYKRjKmiux1xGSjwSvdKqD+tWrElbaExSWRKJ\r\nNvQ7/a9Xv9zT4R5TxnPBoHmOwkuS8plIJKYBYyGAiUQikUgkEonxIQlgIpFIJBKJxJQhCWAikUgk\r\nEonElGFsBND+UfZk6nrU+051xSB5JhKJH+6bNpcjNsqdC3qlVx/zkf2uSF2RSCSWOkZOAL3ubusE\r\nex7Z9LPrESGDuu4nN0ie9ga08ai9zRKJaYQXGyIEYy8Z2dthA15REbpg0DzJvjeMF3ovydQViURi\r\nGjByAmij44jPylvQ9QD7htUbJu8NrqW0oVeacYBNboUZSiSmEchPxLvtJSN7OhCzv/qrvyoksIu3\r\nTp6xuXKvdOMAsl9HVBg2UlckEolpwcgJoPiOQivNB2KS2rC1Dds3MEBtdMnT7v+p1BPTCt51Yarm\r\ng36RQEQMEU6wDXkKhTgI+kUB6orUFYlEYtoxcgJIefcKwQRiO4oTCRSxOMC90C8eKM/iZZddNvNr\r\nF9p5GuX3CwW31OJ7zgfqCdn+zne+03zzm9+cObtnqD/t0J6mQwgiDnB4UALC4WlTESgiIoRQXaYG\r\nnR8mlKsXCekFob7ERBbwXQQB5RYEXn9aqhsA9wsFJ151P+Kl/QYJBbdixYqywXIb8hRVYxD0k/2u\r\nGFRXaHfhEC+//PLmuuuu2y1iyVLWFfY51O8XI8jp448/XvTWsEH+eaDVj++JxGLGxBBABv/Vr351\r\nCSYOAooLEs4A33nnneVcoJ8RsEZo+fLlM792oZ2n+wWy74VpJ4AMtyDwoJ7EPtU2gpWD+mHwBUo3\r\nzSd2ZR2/klKMuuVhCTLBU3LVVVeVNVMMau19QcafeuqpklcEf7/44otL/Gdt2l5Tplx1YHbgXaqJ\r\nC0IRYZ94e/xG/hA3QeGBoWDQnfddmvWziPTACF5//fXFoKgXpAExFRt3ISNSjAs1ATQYe9vb3lbW\r\n3Wn/U089tRi+HTt2lPYKCOp/xhlnzPzqTwCXLVvWM0pInWcdgL8XhkUAB9UVK1euLARYXSCvJ598\r\n8my/Woq6ItoNQTYgB3Jet0u737cHVHXbe1mmHgxKh6y1z0caZDXgXK9ryKxlBoF2eYQLvOKKK5rv\r\nf//75XekWacNkV67/NDOO56JjmKb7r///rJuFZaiHkhMByaGAAq6LgbnJZdcUgSPt+iuu+5qNmzY\r\n0Lz0pS+d9QxCbQQoEwu2Kenjjz++edWrXlW+M/IUNLTz5NVatWrVzK/dMe0EUBzXa665phjqJ598\r\nsii6WOuEiPGEUK5CYTEQ1157bbN+/fpZ4mR0vHbt2lKP/tu8eXOZUrv11lubK6+8stx3/vnnlzYA\r\nxuXGG28s3+Wt3awHu/TSS4v3iSc4SCEoCxL20Y9+dNYQm4qTz8aNG0u6gvkjm9u2bSv3K9+mTZsK\r\n0XjooYdK/qYcETxlsq5MmDHGPvoJQnnDDTeU72JPMzjqRBlB31SWpYaajBmAxfOCNhYF4xWveEVz\r\n4YUXFhJ83nnnlT6CsAdqAkhutYN2ffnLX96cdtpp5XudrjyRanIX35Ft7aht9Ttl4tExBTxXAthV\r\nV+h/SG8NZQlisdR0hbWY5ASB0g733ntvGbBpP/qZTCDBfrvGAI2M/NZv/dZMCj9se2loJ4MFXlP3\r\nGlxZW6m+6YLbbrutpK9dd+7c2WzdurUM/umMp59+usw+6F/6oD5E19ATPM3a58wzzyznya706JWA\r\n+8i/fiI/bW7AIm1yq28icdqdDtiyZctuz0BnGPRJV1urF88hDcTYwT55HmV1nTy6rHtNJCYBE0EA\r\njcze8pa3zHoZEAYKyAiLYDPSNWoCaERJISEFhx12WLPffvs1q1evLkeQxiSAg4ECo5QpRnXK68U7\r\nhwj6ZLQpQYrvwQcfLEobCVq3bl3xEgICiHC5jtJE1BB7hoGSBPcxxsATEESLUtbWrkUwGGDpMgJg\r\nYEDhI4e8UGG0vbSAoEmTdwAB/fCHP1yUP8XOGCgnTzIPpfx5rS644ILS1u94xzvKyD7KB6a8XQeM\r\noDSQzJj2CaOy1FATQM8r7m0b6v/RRx8tbYSkkbNzzz135t/dCaB6JGuOF7/4xc2b3/zmQrQZzfCw\r\nBOkzyCCn+gAyzwi7lkFHEvSThx9+eM4EsKuu8N2AtB+Wkq7Qx9W59kJqyBk515bayhIAba2NyIVB\r\nIj3qv/CsGRzoG8g7TzuZ0l5kUzpXX311+W0AaZAnHXWsb9Dp4QSgB+gh99NF8nHvY489VnSN8pFx\r\nusP/cV9AfgaNMRthEOF6OsD17pd3DGjlXdsYZNM5RNA1+gD9px/SgXQLAuiTfCCQzvfyJCYSk4yJ\r\nIIB+H3300UXJ8CSsWbOmEAcE0H+IRI2aANYwrVNPRQV6EUAKoRemmQCa2kXe1DtjaxRPsZmG90nZ\r\nGbkbifOGUXyUqvYKAmjkTqEb/VP0lOQzzzxTFGhMmVC6lCsgnUEAKe4gYQwJY6Ttag8gIGx1zFme\r\nCAZJGXkmGA7XaEfKXjmUE4lwLVJhvSFSx8gxLO6t8zHyV64gKQwd4xO/p8EDSAajbYChZRD1EaRb\r\nOyL8vKnW9wVqAljjuOOO6zsFzEgbcCCW2oinSV4MuzY1CEFA+sl+VwyiK3g8TVuTi8A73/nOUlZY\r\nSrrCkgzyoH61B4JDJrRDeMjIuGucNzPzhS98YTeZ0W+QaQP53/md3ymypQ+RHbqDZ5DMIJrkFxmj\r\nB+hiOgLx0v7IH73BIyh/+SKAlmOErqEfrNFVFktKpBUgm/SIfhQEng1RJnoiloH4X19WBn05oG/I\r\nV9kN8jyT59cHlY3Hmz5znedSBuWq+0kisRgwEQSQEBKuwFlnnVVG/4SY0B966KG7Lb7uZwQIpymp\r\nNtp5MvhvetObiqLjzo8tKGCaCSCoC1OeFLW6oCR5Z3jMGD4knQeF8tc2puUY6lB+iFO0pTZSl6Z/\r\n3I8UAkJZ1zlDgWwifHENxWttDdKIxO0NrqGkeQUcviuX8iAryknx8xIiFDweno+Stz6wLl+AAYqF\r\n8P5HbsG9PAi9SM5iR00AeTQYNoSegeQxVX+Mp/OMKy8LAtjPA1iDd1/6bTg36pdABtUVdNDpp59e\r\nnomeQjxiELDUdAWZ5CVHsBAycsq7h4zxypElhJy8WkpBXpD2Gn4bfPEG0gkGY6ZQ9RvLLLQz2SRD\r\nCL2+ZlqXBzbIv5f/5KWNeCIRPflFfSuT8uh79AbCV/cJ+l0a8oj+Jn0zCWSfJ1gb02tRJoQv4D56\r\nx2BFW9Nnnon8qyO6iW7xqbyupTOjXyQSiwUjJ4BGW+1tFkwZxJQgEEhkgCCCe+pF/zx4FHUb1qjE\r\n6LxGO09pMfyUOgIY+56B+3Nrh96gMI18KWEka1jgfWDY20AAEc1xgZeQUWqD4QmP51IDg8nQ1kCu\r\nGbtY40TODBB4cZBE5+sBWj8CKN1eW68gCO08+6Gf7HfFoLoCnOMRQxpqPZW6IpFILGaMnAAaRRlB\r\ngpGYAyjW+jcYUcXv+rtRYZfNYF2LuIA0eo3UIm0j31TqiWkFAhjeWTJRE56Q0Vp+nItrfCJWpvK7\r\nLIiXJ48KSL/fAchlF9nvirauiHwDUQeQuiKRSCxmjJwAAqXJvR9vVHU53DeXaZdB8kRMreuotwJJ\r\nJKYJvO6m7chCLxnZ2zHolH0N8jZInnOV/a5IXZFIJKYBYyGAYBTNS9D1aI/Iu2CQPBOJxA9fzpnL\r\nMZ91UL3Sq4/5yH5XpK5IJBJLHWMjgIlEIpFIJBKJ8SAJYCKRSCQSicSUIQlgIpFIJBKJxJRhLARQ\r\nCC9vAzu8dTfoEfdECLAu2Fueztvew55TicQ0gwyQhV5ysqeDDNkvcS6IPPckn465yP5cYI1f7CnZ\r\n70gkEonFjJETQPuA2VTTBpzCvHU9bCJqg95e+4n1w6B52iRU2sPYZyyRWIyw551oF2Shl4zs6XCP\r\nN2Tt69cF8iSfe8uT7NvMt4vszwXKbwNob/r2O2wVIwpG7FWaSCQSiw0jJ4DIlZA884Fd17uQtC55\r\n2pm+qwFLJJYK7LEZcXHnCqGxIj7sIJCnTbcHQVfZ7wpeRgQPYo/DXgfYDDv3AUwkEosVYyGAQgDN\r\nB8L/9DICoofUIcYCvfK0zYNIBm1vgqmopRTeaT5QR5M01dVr6w1lDIM8LvQKAr9YA8PblDlCwQXU\r\nb5dtT/pFAhGeqxe57JVnP4gYMwwCiKD28iT2igTSD0s5Eoi6EY5tLtBX5uIZtYn4XPPsB9GLFgKe\r\nj24UYnKU2xMlEsPEWAhgOxYwUMgnnHBCMRLAY8czQJm01+X1iwcqJqR4o2208zRyFwheEPIzzzxz\r\ntwD1Sy2+53wgFuiDDz5Y4noi3cOGUG/WfQ0ChlmQeWXipQF9xJoz03VtzGc/Osp90Ni0PFKmLvVV\r\nIQYZHHUmSPxC1NlCo03GhEwUm/vtb397kS8Q+7f28CFCYncH+hHAY445poRUa0Oeo44FbKpaTOs2\r\nal2hD1177bXNunXrmiuuuKJMUyMpgaWsK7S7zbDnAgNrcZO7yiAZmmuevaCNLWcYNjyX/iBO+I03\r\n3rhgJDORWGhMDAHkoTv55JOb6667rvy2xua9731v+UTW6lFWPyNgTc7y5ctnfu1CnadRG6IZQcyR\r\nyxUrVsyOWKedAFJq1koa2QqqTiEjgGLiagNkx3dGn8f14YcfLtfVEFtZ0HheBEQBGdIGSIHwWRHY\r\nHZk7//zzy8J+niFB4bUHhSrdOqLELbfcUgiWNo62u+GGG4oytm4TQazhuvYLA+LI6mc8Wp5PAHjG\r\nShmVT5nlIfj9li1bynVeQLD2TNmV2bMGQXLfTTfdVD71W0HjeY+2bdtWyK3ydfGcTQJqAqiekT/R\r\nLtQlMiRkGxm7//77S1t9/etfL4O2c845p9wD/QjgsmXLipFvQ55IpXzrmMLf+973Zr7twrAIoCge\r\ng+iKX/7lXy59S7nuvPPO5qKLLir/wVLTFZ6d3BhUIYAxsNI+sYSGbJsi1+50puevBzrkA+lCkPzv\r\nPv3IoE3af/iHf1jqlZzQ7X6TEZ7Uq6++uvQrsuM/gys6RBxqckoWDd4tF9APEDxt43r3k+cYmOiz\r\n5557bpFpz0O3aENltUSB/Otvyqe/ijlucFJ7haWtzPSfdNUJ3aW8nAfigZMJulC67h90IJNITAIm\r\nhgBu3ry5CPiqVauK4mAoxBS9+eabm4MOOmi3UVZtBAjjeeed1xx66KHNy172smbfffdtDj/88ObI\r\nI48sSgrqPHmcXF+DcQtDPe0E8L777itK7T3veU8x7BQxYuMTEUKMNm3aVNZJahvKnlGkoAEp3LBh\r\nQzEelLz0tm/f3lx++eXFg3fBBRcUT4r7EMmLL764KM1rrrmm2blzZ0mTIl2zZk1R9mBaCJkC5VAG\r\nfUOfAW3LcABCyEApk3zCe6wsDAwjrg/IC6m86qqrynNK64477ij3Mizyo/gZMiRPqDLP4joKH/TB\r\n8Ip5Nt9vu+22QjQBEQxv5WJBTQDVM8NZgwfsta99balL5P3ss88u19TEqCaAjOQRRxxRZPIFL3hB\r\ns//++zeHHHJIuT48RPIk3wwsQ478e+lDW2g3/UFfMWBgaOdKABF6/VK7H3/88c2rXvWq8l3/JPfQ\r\nJoAnnXTSbtOSZhjiTeelpCuQKLKg/rWntiBrCA/v7saNGwuR01b6BZnwm6cv9Kx+Q3/T3a5HoHhP\r\n9QHyjYzRHWRi9erVJS0DJwNO6ZFJedI9BmH0kEHg1q1byyDPNc7RC+53rTIjiPIjf0HADB7oFrKI\r\n7Evb4FM59KcdO3aUPsaDJ31y67m0P7BBnk19IIna2bXyoQ/pOM8VeoJ+Qxb13URisWAiCCAjfcAB\r\nBxThfv3rX18MMMEjUEZmYfwDNQFkRBhw54zKGBtCyNMT0zVJAAeDeqAYeV4pRaN5xCoIoJEzD5D2\r\nYSBcw2NIUVKGQGG7X7sggwgUQkDZM+ZXXnlluYdR8em3ET1lbcTPGMirngqijClfcF5akQZof30l\r\nwEAgkPpOeAHFqPUs0uIJoLC1s+la13k2z+AaRgP5YOhXrlxZvJ4MoTz0s4BnRQyBR0Ganje8CIxK\r\n2zM56VC3QQAZXF6VAK8KYseoe3ZGmDFH3nhbAjUBZIjJnrYP4kg+9amAPIMAGmToV+rRYOCSSy4p\r\nBE1dam9tNVcCyIONlJv6Peyww5r99tuvPIMj1ia2CeCJJ55Y2jagPEESlpKuUP/IjU/rqJEkskDW\r\nkSftwvunLfR5RE47IleBGMDz6ukjridXgKgh0nS09BExck/nI+XS0W+k7RxZROiQNv8jXPqDvsFb\r\nLD26XHrknWwanMVAlP4hu9qVztDf9FWDPJ/6F0Lq+ci6ZUBIp/zgz/7sz8qzGOx5DmWInSToHvl6\r\nTmVFgD2nsrUHTInEJGMiCCABpVCQCwbHlK9zvDwUPsNaoyaANRj5va0BbE8BE3Drm8KrM+0EENG6\r\n9dZbi9KPNYAUtlE9RcuAx8iYN42iNoqn/IGxNJJ2HQKpnhluCp7C9N09iCZFTsl+4xvfKO1NwSOB\r\n0qaUAwy3clHqlLR+Arfffnv55JnTT2pIp34RA5lTJv3Mdx5MAwv5KBfSqZ94TuXR5xgBdcHoqQv/\r\n1QSQsUQoArya+iAos3rpNY05yagJoGcmG4gfUsvbx0Bqf4RO2zGGrnddoCaANawB1J/akGdMATPY\r\nZJRRNR2vDQwk1LX/+sl+V+iP9EwbbV3BAxjPog5MYysLLDVdod2QKCTHoMezIWkGAmSNdw0J8l1f\r\n53nTdgHyyVNHZvyvb5BlQO6RPp8GYfoOXUAO1SNZoRN427Sv30i/qVdE0308dtIjU3SPPiIveokn\r\n1/fou7y99InfnoMO057uowcMGukn9sbheZHcek0y3aA+lIlOUA8IpL6qrDx/nhfptD0RXVDrh0Ri\r\n0jEWAth+I5dgUfSBICGEnXI47rjjijIJ9DMCBJUiaKNNOikMyp8hO/3003cjG9NMAIFypeB4TxEo\r\npJDi9J0B0DbIkTplGHlO3RMeVDCdFB4VcB9iiBTFtTGtxvsbXjrETF7SlUYNbYLUuTeInWuQBG3e\r\ni3C0gcgwPgGeQEZdmtKSd+QbRMR/CAiDopyxxiiASDCEoAzxLKYs6361WFATQEDYrAMkL7wggAjz\r\n2OoL5BYhCm8s9COACHevKTJ5xtTd3jAsAmjA0Z4JgFpXaHtLSXiltKUXxoLgw1LUFeHt9Oz6P2jL\r\nmE0he2TGf+Q5rgmELPls/x+yR+Z5zmpZdI+03QfkOr4jltLy6ZxP15LJkEflC9kL+C/ucT+4R9rg\r\nfPvwf43a+yv98O5L27Whi9xbX5tILAaMnAAiX20C2BXWAXWZWnNtrzwZnTD4AUqpfis4sQsMgbqM\r\nNVCjBEVbvyAQQD56nR8VGAXegTZ4B9oGaTGApyXWTc4VvLSDEPJAlzy7yn4/IAzh9a8hbd7NgLWd\r\nngcRRg5ruD88XInBgYwFCUskEuPDyAkg74JpBEaTZwWZiM84/I6j/t+n+ywSrr0Ue0O/PLnueTAi\r\nX795I9pT1InEtICXFSFDqkMuyErITb9zvpMl0/P1esxBgGQhWHWe7UP6c5H9rrCUwXIACK9RDefi\r\nvOnwJICJRGKxYuQEEEznWndhyrbrEYtwu8Lajr3laQ0ID0N7GiCRmBbo+6ZZyUIvGdnTYVG9T1Pt\r\nXWCabpA8yX69RmuhgNSZIvaCQL/DlLDp/67PmkgkEpOCsRDARCKRmGTw8rXXh7WPRCKRWMxIAphI\r\nJBKJRCIxZUgCmEgkEolEIjFlSAKYSCQSiUQiMWUYCwG08a79syzq7nq4z/1dMUiednG3oXC+BJJI\r\nTC9s3yNahMNbwe3DeS+jzHe7nEQikRgnRk4AYzf52Dai6+E+W0EMunEsRJ62k+iVZhx2vbcHoG0p\r\nEolpxTQP0Gz0S1fIT+SJfofIEaJAtPcGTCQSicWCkRNAG0HXG63OBcPaCLoXciPoxDRj2gdoCJ0t\r\nZwaB/QiFMkskEonFiJETQAq2HxkzvRKhfeyv1WunfugXDgqxrEM1BerwTmCzW7v7C3hu4+c6hM+0\r\nh4KrYZoL2VY/jHNXIAPt8Ei8N4x4hIiyB1w7vBoSLnancGyMPogf7Lu2GyaUpx3Oqh/EHhU/lLfK\r\nNKGtQOxJKd6x8i0FTMsATd/Ux9po6yfbwSB6QULrTahNAaeuSCQSixVjIYC9Im1Qpvvvv/9scHGb\r\nrb73ve8tChfhq9GPAN59993NySefPPNrF+o8GW3xPUUrMHoXh3j58uWz+3pNOwFEbBhHUM/ivyI3\r\nUX/iBAvjxDAiTkKx1TE9ESrh9Zw3TWa9FIjyIDyYkG6CsQuV5rfrtm7dultIPm0jTzFY77vvvnJu\r\n5cqVhYQK5h5pBhCWdmgpv2tjLcpLxO2UL3KprKI5RB6IaISV83wGIfVGv+JTS0ccU8HkRaZYs2ZN\r\nOScQ/EJOTY4KvQZo+oO+0G9ABsh5hH+b7wBtTxiWfN51113NqaeeOvNrF9pl0T+OOOKI5qqrrmqu\r\nuOKK4qkMLGVdYeA26MCoBj06ijBv9EXE5R0mlD+ePTf5Tix1TAwBRPhuvvnmZvXq1eU3Dx0lLeD8\r\nAQccsBvJqA0MDxLPDO/hdddd1xx77LGFIPDShEGq8yTYJ5100iwZYLQPP/zwQkRg2gmgCAjXXHNN\r\nIeJPPvlkc//99xevEK/LU0891Vx++eXFEH7qU58qU33qfN26dbPKErG79NJLSzgtIcW0zUc+8pFm\r\n06ZNzdq1a4tX8frrry9tfdttt5W2POecc5pHHnmk3K9dbrjhhvL9Ax/4QCFd8l21alWZKkS8grDB\r\n008/3VxyySUllFjE3kX8PINyfeUrXynteeWVVxbjLX/lZ9CVTzmVC/HbuXNnuc6zueeyyy4r5QMk\r\nT3nB/4iMAYSIEICYziVCzaShLZ/q+u1vf3shvWeccUbz8MMPF7IX9RLQ5iGT/QjgIAO0vWFY8mmQ\r\nYeDXRrssvJlIfi8sZV2xZcuWOUVdIWPkaj6g0+mcfqBr6BCe92HDIJNO0w/ogkRiKWNiCOCFF15Y\r\njDBPD0NKiTCyDDTDE/E3oTYwRmynn356IYkvetGLmuc///nNgQce2Bx88MGznqI6T4Tv0EMPLcZ9\r\n/fr1zVFHHVVIT2CaCaC6FN7qlltuKR4tClb9I4I+ETJkDOlBuHjuTN8hWjEFinirW5AWAoZgIVDq\r\nm0fFfQg9EsjzS+FS+sB7gPQD8rF58+bm13/915uLL764eO30DUQC3KMc/kPe4q1MIf94LnkJeK8Y\r\ncNft2LGjTCFLk4FBYJXbUgDePEQS8eV51veUP4BoRj/hCUNopYPggvw862JHLSuINNkKYs04qj/k\r\n+jWveU0hR7y06ozc9iKAgw7QvNxhEEbuY0kAAqJPui68Pep+rvIprfPOO6/I/8te9rJm3333LYM/\r\nMwLRjm39RAboCM9oUBrXwVLSFfSrgQ1ZIIMIlnYip2Rf/3cNr75Qed/73veKzJC1WO+pTUN/I2nk\r\nV1+gcw3cHnrooTKDYA0nmfafwSE51V/UL3l0SEefkZZrtEvAYHTjxo2lv0hXCEHl0Xd81+f0HW0j\r\nPKFz9brR+ll/8IMflLJyQNBz+rjBIT1FXxmQulf7h5MgkVgqmAgCSOBf+cpXNitWrGhe97rXFQJC\r\nyRilm44KQhBoexgYCEL/rne9qznllFOKgDNaMSVX58kDeNxxx5VzCCfPBQUTmGYCSInyjiFYvHC8\r\nckjfE088UT69/YhoaQ9KmJcAAUTwggBqF8obkAP1zDuGPDmPeLmfYXE/Y+P+UPAULuMDysH4AA8g\r\nzxODXHsA4Y477pidugVlkYb+YNpR/t7Y1K7yZzx8+p9BN9K3vsuzI7dILkLnCCCwnj2gj0onoAxz\r\n8ZhMGmpZ0f7apg3tcv7555c+ccIJJxSvbz8COOgADZn06QUM9Y6sazd1zvOqzbdv317azRu6cwEd\r\ngTAon+cytcujSccgAlA/P0wLAVQvBmTR/y2NIUcGa/q2mRl1Y1CEGEW8ZO0TdRfedcRQWgiW5R7a\r\n2cwB/YFk+c8AUxuTU/WPpGlngwvpbNiwodQ1MmZApq8FtH/oEGUh4wgleZauQQrboXwGdXSI/GOW\r\nQl/zfJ71S1/6UsnXMxoo6g+83fqZQZ6yGOAaLFr/m0gsJUwEAUQ2CDAYZZ144olFsZgCpphMG9Uv\r\nCrQJYICi2NsUEwK4bNmy5vvf/375bZR59NFHF0MF00wAgRdLXakzHjUjYm3Ck8b7Qnnz8PHYUI4I\r\nnHuQR/BJqQJDwHPjN4XNy4toMSzaM9oQwTTiDiCOPA6ulQZYsC8tijqIw54gTyN3gwEeBkYDWdXu\r\n8lJu6Wh3XgLrfpBIhs1zem7EpobpaGUC/wcZ4JlkKJfKGsCQFe2kzQL6A+PKe8J4q1MyCnuaAh5k\r\ngOYebY1cIl0MtOUHjPM73/nO4t1xTl+bKwGswcM7yBpAZCGWpbSxlHQFcobc6cvkGjFDgpAfSx08\r\nJ12MYOnrBs1IWe31plvpB590BPlA4smu9MgaAuhe5NCnNuadN6Dy3XV0g3QMBv3HFuhvAbpBX9Kn\r\nXAf6IfKGpDsMIvRBBFE/RkxjkIjM+9+z8lq6hv2xzZDy1R5A3k19xWBv2C+gJRLjxlgIYHuROeUS\r\nBAJ4AQgj5UIZMLxBBCC8BW0Q9Da5hDpPxodBqV86QCpMTQAjN80EcE9ABE2VmPah5AcFQ0K5P/ro\r\nozNn9gwErNdo23ltPy4gfb2egWH031JAmwDxlDHO2uOCCy4oxhVBsy6QYWTggUcw3vydzwAt1uaS\r\nUwYeEIf4Tk6HIZ90jOdqo/38CAGvVC8sJQLIO6Y+TNNrO21lsGOgZ4COsCFQCBpSjjB69mhzoKv1\r\nCXAf75/+YXCFsBkIuD6mZX0acCFWvHSInsPgALHTDoi/waP8A/Q8750BROTnnLIZJGgXxBGRRRwN\r\n8pXZeaif1RSzNpaHMhjoKrN7lcUyCPeqg3qQmkgsBYyFAA66z1Y/UBi9DEw/yJOyGQRGfLm3V2Ja\r\nQVbqARpChrwz5iFDpvwMmgzSwtvrv1iDOZ8B2t6w0AM0BKUuC+IZaxXbMAU5jC1pJgWeM6Zzkbnw\r\n0CJMQcx54V2HlBsEIuo14jpwX/wvPXXpt/vqIwg+r3x4i5HAet1nDWlEPnV+rncfOK/88RyRf6B+\r\nVkBSI++4x2+QZu2gSCSWCkZOAHneeOB4kUwldT1M/1iPUXvw9oZB8zSqlbZpgURiGjHtAzQeH2+y\r\nmnHgDXLwhPHw1oc1oaYSexHaRCKRWAwYOQEEIyvrq+Z6xMisC4zqeqVVH9as5JteiWlGDtB++DKD\r\nsiDC/Q5TmDyd4SVLJBKJxYaxEMBEIjG5yAFaIpFILH0kAUwkEolEIpGYMiQBTCQSiUQikZgyJAFM\r\nJBKJRCKRmDKMjQDGNgJdD/fNFYPkOSpMUlkSiTamXT4TiURiqWPkBNA+S7ZxsBO7zTy7Hnart/1C\r\nvafTIBgkTxuBCiFkf6+FxCSVJZGokfL5w5i29hr0RnO/wx6INjvOt4ATicRixcgJoPBbokkA5dn1\r\nAGF7BgkHFnAtAwK90owDRK2wO/1CYZLKkki0Me3yaZ9B+wDa68/+f/0OcaltAi3cYCKRSCxGjJwA\r\n2mlf8O75QJD6XpEGbCURu8fX6JKnXeeHYWAmqSyJxKCYFvnsB2UZNCrJUosEkkgkpgsjJ4AMQ7/d\r\n88WfFKAbKGIxVnuhX6xRngtByNto52ktkQ1lBTq/8sorZ8NZwbDiew5SFiGN6rjEsSFuhE9aSrFG\r\na/DmiCkb8Zf7wZqwqIteEB90b2kkuqEtK0JqRSg4mx/3Qx0Kbr7yuScMSyYQzogjW6NXWYSw09ds\r\nAB2hxmCpyieIwx7tmUgkliYmhgBSsq9+9aubd7/73eX3fffdVwKIP/HEE7MB5wP9DIz1R8uXL5/5\r\ntQvtPK+44ooSCFxw86eeeqo57rjjZqMLDEupD1IWxnXZsmWzRsWn3xHfchwGhlcjYng6xMgUoxNp\r\nE/7Kp/VdSLTvPl0nVmbbYPjPdFmQOOlK3/0XX3xxCcQO2iFeHpBOkDp9IOpKGSJ99yvLJZdcMpuG\r\nsqi/uMZUXnibeJ7cE88E3//+92cHG4ldaMvKmjVrmu3btzePP/54GTB94AMfaB577LFnyeT5559f\r\nBm0wH/msY7v2wrBk4u67725OPvnkmV+70H7+j3zkI81JJ51Upqi3bdvWnHnmmbNrEJciAYz6v+GG\r\nG0o7A/kJkKP2Rt/1iz/kMGQsEGnubYPw+iWfLpFkEonE3DAxBPD2228vXgRGnZIx4r7rrruaDRs2\r\nNC996Ut3M9a1gaFwLB6/5ZZbmuOPP7551ateVb4zWhQ01HkiDieeeGL5HhBhAAmB+Sj1rmWhKN/8\r\n5jeXhe0f/ehHy6ffoUBHbWDU8aZNm5prr722eDtMta1atap4S3hn/XfPPfcUso4AIM0MowXx2uny\r\nyy8vngPQhtp0586d5Zo//uM/Ll4kHlf3IeHqXTs7J33rqq655pqSlrVVymEQgET6vnHjxlJ/jLKy\r\nIB3SAOG7eJf899BDD5X/pSWmK6+qMvJA6VMGFddff31z2223lenKxC7U/VM7q+OAfilWrj7xile8\r\nohB0hI43Xd3HIGou8ukebSUt7W2qVzn0CX0H0Xe9/OcqE/qk/iI9A8Bjjz22rD9U7iAn9fMb/Lim\r\njj5CTp9++unyfdTyuZBAuNQ9GUXkb7311ubLX/5yqY8bb7yxtLXBmc8dO3aUtZhmaG666abST8AA\r\njF7YunVrCd335JNPFjmLsHqbN28uU+ba8N577y3trP7Io/6gTcixWNJ33HFHkWX9J5FILAwmggAa\r\nYb7lLW8pRv/UU08thMObhKZoxP9EEGrUBoZRMjJngA477LBmv/32a1avXl2OII11nr4jmWDEiaC4\r\nN9YgzUepdy3LpBFAxAlJooQpXx4bvylq5M5IHhHz9uPNN99cnkUbMQoW/iOMCCJQ3Ly5FLu3Jl3n\r\nO6LnOmSOoUH2tLV2QAaRRcYYAZAWL4RzDI3yeFt07dq1JTSYNOJlg2eeeab0E94I7YvQ8/IgpIwJ\r\nQ3TVVVeVT6Riy5YthaAyUoldqPsncqyu29An1aO20H6wcuXKWZmci3yKq+sTcUAiLr300kIkkE3E\r\nAXHnNUY69jQVvSfoG6effnpzwAEHNC960Yua5z//+c2BBx7YHHzwwbP9qH5+30NXeA75Pvjgg+UF\r\nEVhKBJCHl5wgyOQfyVPXPIHkkGwhavQBuUPqtb/6CJJmNoUcI8jkHdlDJBFu7Yjgkzv/SwNxlCfd\r\n58Ub19MPvMzyt0yk9i4mEonhYiIIoN9HH310IRWUvGknSoES8Z+RYY3awNRAEM4444yZX7tQ52lU\r\nf8wxx8yO6o1a5YsMwLCU+iBlQUBNL4X3waffMRUyagOjThldo3P1T/HbekN5eAYQNCSON2b9+vXF\r\nKCOtFDWCpp0QdkAWKXMGwX8ItjQQRV5YBIABkB+ixkOnbngbpKmNGQL1yPAgAUjpN7/5zZKmey66\r\n6KJZwx1GBXgNpeEe08kIpHz0J6RUvTI8yiXNxC7U/ZOnhocvlihoB3X7mc98ppA6np1YsoGw9SKA\r\nNfYkEwYVZNJgwKe0kX8vZBiYyNsMgb7nv7mCjPEEeo5TTjmlEDvPFySmfv72bIE+7DmRFVhKBNBg\r\njIyQX22hfRFABI4saQNeP4Mo58gf8qddAuSZfjCQD4Konn/wgx+UAeTDDz9cBg6us5xA3dG7PhE+\r\n8kn3xEDS4CJ0YyKRGD4mggAiE7Un5qyzziqKghKh8A899NDZKVroZ2Aoj/POO2/m1y6080RuYl0P\r\nEnPQQQeVaUIYllIfpCyIlWkxpBR8+j0uAmgaCGmjrIOoGbUDbw2FzjMHPAaegzdNO/EUUPDhvQQj\r\nf8o8yDaDzsPD4+vFG4bBtFKQP+BFcI10EBBkA/QPBACxlB6DxLtnLR+ou5iaYzSQhEhTPXoW6SGQ\r\nIL32ov7Es2WFd/ftb397Ie/WzPG0uuaoo46a9ejCIARwUPncE6zxHIZMKPcgawANKmK9MK/zCSec\r\nMPTB4iQAKebhROw8lzrwzL4jZrz41tQa7NGf5BQhDG8o8NaFt9A9+oC+AGSVZzeWiJBPAwI6geeP\r\nzqFHrBM2JW862r3KlUgkFgYjJ4BGmjHdGjDFWK/1sICfoY7F1u7xEkCg3zYTCEUQlBq98kQskRyk\r\nghcpiMGwtpkYpCyUmxF0ED6ffofSG1ZZBoUyI3mmeZClQRHGILH40U8+TdEGkdc/yR/jHzJqIBAv\r\nCwxDPvthWDLBC9WLdCp3vQ0MUoMsGqTyfiEmUdZhkdGlAgOvWCPYZWmFvoVgJhKJ0WLkBBDZ4nkD\r\nXp7wGCGA9W9gaOJ3/R1x410aFK41lQntPNrg4VhI0tUuC8SzBwmO8wtdlkSijX7yGWifq+Uy+u8w\r\n5LPXAQstEwigQeEgMFA1YErsjhjAJhKJycbICSBQ4KaDeJq6Hu6by6h7kDwZPtMSpiEWEpNUlkSi\r\njWmWz9iL0xSlpQj9DmvleAPjzedEIpFYbBgLAQQjetMrXY/wBMwFg+Q5KkxSWRKJNqZZPk1lW++3\r\np8PbsjElnkgkEosRYyOAiUQikUgkEonxIAlgIpFIJBKJxJQhCWAikUgkEonElGEsBNDea942dHgD\r\ncNAj7pnL3m17y9N5O+C349kuBCapLIlEG/qd/terb+7p0G/rfeG6IPLck0w4RrFvY8pnIpGYBoyc\r\nANpM1E769n3yJl3Xw2alog9EoP9BMGieNh2Wdq89zIaFSSpLItGGPfm8Bav/9eqXezrc423drluj\r\nyJNM7C1Psi+yRBfZ74qUz0QiMS0YOQGkMEVgmA8EC++ieLvkaQPkhdzba5LKkki0YQ+/iNE7Vwjh\r\nF5tCDwJ52kh6EHSV/a5I+UwkEtOCsRDAeqf9uSACx7chmseXv/zlmV+70CtPm5UKddTeU8y0zjB2\r\n9+9SFttfCFXW9mwMqyyTCCHd6ugvc0GXNIaR3zRALN52FBj11mULFvGVe8VwFVu2F7nslWc/CA/W\r\nS/a7YlD5FGowNjb2GaEHYSnLZyKRWPoYCwHsFYKJx0CcTUYCjMJ5Bhie9lqbfrFGxfU99dRTZ37t\r\nQjtPa3jEG167dm2zYsWK5o477phV8sOK7zloWYRQEyBfWc4888wSFzOwlGKNtnHTTTf1bMManr82\r\nuG0IXm8t1iC4+eabB752mtEmY+K+khXxgPVp+Na3vrWbh094NrG7A/0I4DHHHNM88MADM792QZ6i\r\nagyCfrLfFYPIp9CMF1xwQYlXDT79Hles7lFCOwmX2QXIvbjec4FIMOST/m+HC9QfTbdHvfcD7/Cg\r\nUVy6gG1QPuXQV20WnkgsBUwMATTqFpxd4HUgcGJw+kSQ6g1m+xmBX/3VX22WL18+82sX6jwRyhNP\r\nPHG3MqxZs6Z5/PHHy/dhKfVBykKhIb2RN6KLkEZ81XEYGApYWzDIFPGjjz5a6lrZKHdxYRl3G+Hy\r\nWPKius4zWBdVG37/WUsVcZYFftd2PEqC7Fv79Z3vfKdEXfjGN75RrhEs/qGHHirGVvD4Bx98sJxX\r\nLjFYKWNlcc3q1atLTNfA008/XQyAmLPqVsQGcYrlJ0C9/JTJIn+L+ZXfs1nT5T9pIpw2+HXfZz/7\r\n2dJfGDbrz+b6gsNiQk0AtSnyx0uuzq699trmS1/6UunX999/f2kH/UDbnHPOOeUe6EcAly1bVgZ1\r\nbcgTqZSv9gkE8aoxLALYRT5rAuj3UiWA2iDkacuWLSUuOYh2EjqJXnANmdLG9SyKgfXOnTsLkfMf\r\n2SY/PsmaNLRdECjt7R7Qt/QjfYGOcQ0ZJYt0wyWXXFLu1wbyVoZ62YAyrFu3rvRP90qXLOujdXmV\r\nX7pkOnROQDnpgWhfaUR/3Lx5c9kA/JZbbin6Rbk8S1ybSCxGTAwBJGAEc9WqVUXQGYq77767eG4O\r\nOuig3Xbdr40ABXPeeec1hx56aPOyl72s2XfffZvDDz+8OfLII4txgjpPyqk2VpQewR4G6ZpLWVxf\r\ng6GVDozawCijduAdEXKLMtYeDMENN9zQvO997ysEXTxWnwyDNrIOasOGDcUL5J6Ae5A4JN60/aZN\r\nmwrxQ7gofMr29ttvb2699daSr3yuueaastAfeWNMvFTwyCOPFALnXkTM9a5BAMNLQVlfffXV5QUG\r\nBFZYMXkL4K+vRLkFqkfklMVvabrH/w7khRfWOfcipDyNXgz4lV/5lWJIljJqAogEtD06jN9rX/va\r\nUtfnn39+c/bZZ5drLrroopkrdieAjO8RRxxR5OAFL3hBs//++zeHHHJIuT687vIk37yNQsI9/PDD\r\npY8I/Yb080YZiOgf+tFcCWBX+dTWrr3ssstKX/Dpd/SBpUQAESP9X7uqf7JnitzzOec/AznyTlbN\r\n0DiQLvoTECr1dOONN5a21H6u2b59e2nHyy+/vOgEaZBBOoD8feELX2i2bdvWPPnkk+VasyL0wm23\r\n3VbSoicN0tkC8mhg5jxZDm8h4qdP6R/KrszaUX50inLQHb77z730R7S7fu1aOsxAUDqu9azyN2Ph\r\n+cwWqQf6g06gpxKJxYqJIIBGaQcccEBRCK9//euL0WcIjNIpB4JZoyaAjIiRo3OmURkbCgwJINTQ\r\njwAavRHok046qXg0YD5KfS5lmSQCiGghOUbW9913X1Hi99xzTxldM36MOiXMGCMHCKD/EUCEi5JV\r\nn8BIIlLIk5cCPvzhD5d7efsoV4qVxy5IhkO7i69q5M4gyR9JRBD0AfcyJIyRkTkFHf1AHZsmUn8M\r\n0hVXXFHKJ1/PpW8hfIwK4+NexgTRY3CUn7cS+fU8rkVkPCvD4TmQziAtSxU1AWT01HlAP9AHGH1t\r\nx4Ai3sjbueeeO3PV7gSQx0Z/125BHMkEYx+oCWDUtfbTX3h+kALtxjjTB3MlgF3lk3447rjjSh/k\r\nMfLp91L0AKoHfV+7kS2eLoSbnJJLsuU38kZ2Qu7JckBfoD980t3kTz0bsBncGyQiUYggeSOT+oo+\r\nps21jf7B+06P6BPOaxP9iw7i3fM/wqhPhPeRh5GOCE+1e9gQ+oRH0Sengr7mvP4nbc8Eyuy5rBXW\r\n/z2nZ2QXPAc9peyIqb6A/CGRyGgisVgxEQSQMjCiMoqjDEz5OkcIKXwKo0ZNAGtQPntb14NcIXx1\r\nGSg5ygSGpdQHKQtDUk8BG81aaxWj2lEbGFMgFD/FGITIJ/hEvLQJb6nvCALjoIwUvdE85Qym7ClQ\r\nilpdGGkz4OrZCFoevHeMvtE8ksgb67y+QDGbUkYCKF7K3cgeOaXIKWskIUbw3/3ud0te2lL/QNwY\r\nE3kik9JFuHkFEQoKXR9SNmTGcyCwFD4SghwycAwFD6b7kcVpIoDaQH9kZBlY3j7EeP369YXQ8Q5r\r\nQ9e7LlATwBrWAMaUfg15xhQw40outKs2Zbz1F2TAf/1kvyu6yGesQ/W5VKeAyRUZQ9bInU/62ACK\r\nvJA5JAmJ8ztmCIJAgf/pB33CJ9Dd5EnbrVy5shA7ZNI15JOOQA7JOQJIroMAcgyER1A6riWLvMPS\r\noHNiilbb0EkIok/yq9/4Tm+wK3QNmTYwlRd94RP0NcTRtf7Xv+kIeXpBj44KD6A+6ZNO4OVMJBYr\r\nxkIAjbhrIBKEKkDYKCAjNUrWqDum+qCfEWDAEZg22qSTh8jaJkqFUqLUKRYYllIftCzxEgijevrp\r\np++mUEZtYChP6y55eBhxJI7hB8RHG8VaTApT+Xj6XEtxxmg8wFBSwjFlxhuEjAGFHZ5OxifycR4Z\r\nAP/HOh/nGRFQFulIL9IAXpwgL+Ca8Oy4Vtk9o/R9Kp98ffqNtMSnc7wJPuVRP8dSRk0AAWEjK/qo\r\nJQCADFx88cVFTvUJ5AzRDvQjgAgGT1Mb8ox+sTcMiwAOIp/afppeAqEXESJyor+TOd8NUA2eyB19\r\nxSNGhhA0eiBAdkKW9SGednrNd+nx5vIYRn0iVLzzXihyrfPKIF+kizfOfWQYSSSPyiEf64ndHyCj\r\nfiuvz8jDQEL5ya72cii3/6Ud14H/lE8+YGCISEbaziuXelBeZe/VzxOJxYKRE0AKpE0Au4KQmo4Z\r\nFK7tlSfFxOsFodR5t+o3cYeNfmVhACm2GgtdljYoT4qWge2yjxviF17LxOIGLwkDOR/wGnUxjF3y\r\n7Cr7XdGWz7ZM1r9HLZ+LDcg0kgRIHdKWSCQmByMngEiX9RNGVEZgRlLxGYffcdT/+3Sf9Ry1l2Jv\r\n6Jen0ZzDd54M33kjag/dsLGnsiiD345RlCWRaMNWGgiZqbXoi/pn9NV+53zXf00bWv/VBdZR8TTW\r\nebYP6c9F9ruiLZ+1TDrid8pnIpFY7Bg5AQTTudZkmIbpeliXVk8HDwpTB3vL01oVHoaFnuqbpLIk\r\nEjX0N9Os+l+vfrmnwxY8PttLAfYGU2qD5En2yc5CI+UzkUhMA8ZCABOJRCKRSCQS40MSwEQikUgk\r\nEokpQxLARCKRSCQSiSlDEsBEIpFIJBKJKcNYCKB9pOyfZVF318N97u+KQfIUjcLG0wu9sHuSypJI\r\n9IJtkeZyzKe/9kqvPuo9HxcSKZ+JRGIaMHICaL872yzEFgtdD/fZCmLQjWMh8oxtHPodNjG1r9dC\r\nhveZpLIkEm3Y1FmUDBuj25S86yEChK1gumDQPEWfIBPeGl4opHwmEolpwcgJoI2ghdmZD4a1EXQv\r\njGsj6F7IjWYTo4ZQWaIfAO9WlwMxEwUCCezirZPnl7/85fK9V7pxgCgkNitfKKR8JhKJacHICWCv\r\nUHABij0iUOwpukS/cFCIJU9CG3V4J4ZE/EpTSuDT7zAwwwrvNEhZwMa7Iic88MADZWPZiEwCSy3U\r\n1KAQ+mkuez3W0H8iTmhicOiD+t180C8UnHYV3qsNeUb4v73B4I8MzReDyCdCS1dFuLCF0hWTCBFP\r\nIoziuMAWiCAybBic0A/as+uelYnEUsJYCGCv3fOFgtp///2LMQDB+cWltTM/wlejHwHkeTj55JNn\r\nfu1CnSehP/7442eJlk+/gxAOS6kPUhaK6MgjjyyRE3hBxERevnz5rPdkWgmgOlq9evXMr95QR9Zi\r\n9YM+ctddd8386o4w8tMG8ldH2hDxQsxcwfq1Sy8gSNbEBfoRwBUrVpQNltuQ56BLOvrJflcMIp8I\r\n4Etf+tISMxwWSldMIkSD+cAHPjDzazjQrwb13uo/W7ZsGdgb2wXiA2/cuLFs+H3FFVcs6JKCRGKS\r\nMTEEEOFjZMLw84ox4ALOH3DAAWW6JVAbAcJLoCmW6667rjn22GObP/qjPyoLucMI1XlS3ieeeOJu\r\nBNDvYSj1uZTlpJNOmvWKIB2HH354WRMFozYwYgGLcmBU/PGPf7wYZWuvtm7dWp7B7+3btzfvfOc7\r\nZ2M6b9u2rXjr7r333vKd1+3RRx8tzykIu/VSIkTs3LmzrOEKciuIPA/Mu9/97pLfV7/61ZLPZz7z\r\nmZLelVdeWerMPbfeemvJW5vfcMMNhfg99dRThVCYOjRlqe/wpkrfwEH933///SUv+NSnPvWssiI3\r\n2oIhENnB9J8y8/Lceeed5dy0oSaAf/7nf9687W1vm13rduqpp5b+vWPHjlL/AevlzjjjjJlf/Qng\r\nsmXLek6Z1nnqg3vCfAhgV/nUlxC+X/7lXy4eQ9cMS1dMItTr+973vrLOGgH0HeiChx56qHx/+umn\r\ni64WKo/cIvQR75ce853uph+APPvNk4dQXnPNNcWzR26t+aR/zfSY2lfHQcakc/bZZxd5da3/1bdy\r\nCBsoDWWgW+gD8u0I0KX0gTyUk75RbrriT/7kTwqpp3PWrl1b2lW6+uFCeBwTiUnFxBDACy+8sJCH\r\nlStXFqGngGJhOONSG4baCFDSp59+eiGJL3rRi5rnP//5zYEHHtgcfPDBRblDLwJIIYDPYSn1rmWh\r\npA499NDmsssua9avX98cddRRhZwERm1g1IFRN7KFgFG8t912WyFCyBQFylOJHGkfpI7idFg4T+Fq\r\nM4aDMnYPhXv11VcXsihNbQuUt2fmifF906ZN5T4KWToMtLcsr7322uZd73pXc9999zWbN28uU4Da\r\n3yJ8xoTnWLr+v+qqq4onyvXKjDwGEMdPf/rTxWApK8N0zz33lOdxvX7nGoZHmTw3IjNtqMmYeqm9\r\nQAwp4/mKV7yiyCuP9XnnnVfa+eKLL565ancCiEQi2wYOL3/5y5vTTjutfK/TladBj74e3w0c9Bnk\r\nwEslyoQsaP+5EsC56ArXf/GLXyxEUJ875ZRTliQBNOVLftS/ZyLfdC85vv7664vHzODI/3SEAZff\r\nZDi8etoHsXIfeSan+gi5Dt3BmxwEjP7QxxA61xkMxrTzY4891lxwwQVFN6xataoskVEmfcl1SJ/B\r\nqb4nLd/p0ei79AwdIm0DUvJ8xx13NGvWrClEc8OGDeUaHkDlX7duXSkLUphITAsmggASule+8pXF\r\no/O6172uKAmjTlOjjAAvYI22F4CxMXIkwBQ0svg3f/M3s9N4dZ6MwAknnDBLAI34hjmt06Us8jzu\r\nuOPKOeT30ksv3Y10jNrAqBuEi3eHwmd4kSijeQabElYeHjaeHJ4gHhXtgRT6RKqQMc+BaLlX+/kP\r\nUYtYrrwu0qSIn3zyyULu3IOYMbiuffjhhwvJ433inWOgEDTK37Sje3iGpcEwIY7u56FESus1XoyY\r\nsupPyopc+p+BOfPMM4uXAqlR5wwVoyX98EhMC9RjGFHPX3tVAvopo6q+1CeSd+655878uzsB5E1i\r\nwB0vfvGLmze/+c2FbPPqRt0G6SPzZEPb63/azLXIAbKAoOsTcyWA0FU+DQ55tpAOJBchXIoEUP2r\r\nc/Jk0EbWY9AXg0Dn6WYyjuBpi3qQZYBAfyB4iKF+4Fo6gKzpMwa4PMb6ELkmr0i9nR30t1hviZy5\r\nRlshdvoYkke3uF7Z/HYd/UKfIHHyBoNXM0j0vP+UhxfRABG5rD2AykPe6Zdnnnmm3J9ITAMmggBS\r\n7IQTKCJKl8InwMiAtTrxcgi0CWAAMdnbuh5gjJATCpwhqL0Xw1Lqg5SFITEtFtMORqJHH310IWIw\r\nDgODCKkT7UExKiuSZNRMCRtVqz9TL4xCvGiBzCGEFvM7x8CrA14T7cuYU9phaHnueNq0MaODGDIu\r\niKV7eBHUAwMkLWlS9rwPsd6MUVE+depedcVYR7oMVID3QBoMCiOkrIgO489QKbc8wX3yNB0+bagJ\r\noDrTdoHbb7+9DAoYU2SAEdVn1Z3BW6AmgDUMdvpNAfP08SghCfobT6289DMkwSAB2ewn+10xqHy+\r\n9a1vnR0sHnPMMc2/+lf/apa4LiUCCEgfb7265y1HyMkMAs57Rv4NnvQD+lObGCwFkDe6g94gj+Sa\r\nnJF9JExaBms+De55Eel3gzrXSZcnEhA5so6gu85yDX1EWeggfYQe4LnVlj6lIW2gUxFX1yJ1yooo\r\nIo0GJbzQ0nCPT3lbghID1ERiGjAWAkiR16BEY+QHDC/hZmQQP8aYkAb6vQloRFcTvUA7TyTTSNWI\r\nMaYRA74PQ6kPUhbKjbcqlB5QtPFG5LDKMiwgZpSkaRjGb1AwGnX7DRNhjBPDQU0AkWlTZgg/smdK\r\nDoFnPJ2/5JJLisHUX/t5AGtYQyj9Npwb9Usgc5FP+fISRZ+bNPkcBmKttcFXeDoNkmKQqk+YpvVf\r\nfQ2oF/paH4n297vW7aaJ1SvQwwH5xsAX6jR8xsBRWWw1BPKWVuQZnwFlDfIO8nZNr3JKc9xvPScS\r\no8ZYCOB8PSum+roYAXnyJAwChqge1Q4bk1SWuaBWxomlB2SsTe4t/LcsIAw0Q2laj1eGkXU+PC/Q\r\njwBKN4x3DX180AEFbxEZWigsdvlMJBKJQTFyAmg0bVRtmiHe3OpyWP9lvUjtNdsbBs3TtIe0TVcs\r\nFCapLIlEGwig9VPAu1KTfd+dq72uzsU1PpFDU/C1N2dvkGdED5F+vwOQy3jpYCGQ8plIJKYFIyeA\r\nwDtgjcdcj17ehb2By79XWvXhJYF6WmKhMEllSSRqmIqzcN9aKesvux7WZfIYdoGXBwbJ09rNUUy5\r\npnwmEolpwFgIYCKRmGzw4M3lmM+azF7p1Ud4AROJRCIxfyQBTCQSiUQikZgyJAFMJBKJRCKRmDKM\r\njQCa0vEaf9fDfXPFIHmOCpNUlkQikUgkEtOFkRNAa4RsnWDndYu+ux52nvfWYNe1RoPkaSNgG5TG\r\nXlgLhUkqSyLRhv3t7O/nbdsuh814bQKcSCQSicnHyAkgI+GNPogtJLocIEpFxO4cBK5FqqBXmnGA\r\n/c3sgL9QmKSyJBJtCLlnGxTRN2x10uVwD9nOvfESiURi8jFyAsjACCs2H/TbDNb2Db02mu2Sp3BD\r\nwyBdk1SWRGJQGFwJ+TUfCAuo/ycSiURicjFyAoi49QrBBGI6hvFBlMSJ7IV+4aB4HwQOb6PO01YS\r\nPByxkXRs/BpbTAwrvucgZQGhjYR/E2pL3Mo6osKwyrLYIMJCxIbeE/a0TpKnVT8ZBOKE1nGDpxmW\r\nV0QouIBoH/bqsxxBOK1YfsFT3WspRr9IIImlB/3CTEUikVh8mBgCKDbnq1/96ubd7353+X3fffeV\r\nwOJPPPFEiSVbox8BtD5w+fLlM792oc4TaRDgnSEDn34HmRgW6RqkLLBy5coSOB3xFX1AgHqkEMZB\r\nANUDo87oM/A8OcoW09LKJLYnwuxFFuvFXCMCRBAH5+N/90nTde1YmzbSlV5ArGF5i66wevXqck4M\r\n0pqQIMjSc16M6CDyzssP/Cecl4gUNVwTnqm6vILg33XXXeW7NKL88kF6xBNV/vDoqht1EoMGhLWO\r\nd7qY0YsAiv98+umnlwGN2NnqwVo/vyNGbI0kgIsP5E5kE+H9oO3BDZ0UIAPwzDPPFP0F0gg9WiNk\r\nFNxXDxoiHfeFjoF2fulRTiSGj4khgLfffnsx2gLMUxBhlDds2NC89KUv3W1aqiaAlIYXKiih448/\r\nvnnVq15VvgtYH+SiTQBPPPHE3Qig36G45kO6upaFshUgv4aQWGFU51OWuUAdIN0IjXJ7EeCGG25o\r\nNm7cWOIvKxtP5RVXXFHWe4nM4DuSHtc99thjzUc/+tEyzY1MeF4E/uqrr242bdo0G5zdsyMTyMU3\r\nv/nN5hOf+ERz5ZVXNu94xzuKR0HQ/W9961vFK+q8PNSF/AwSLAM499xzm8cff7wQDtc4j7xs3ry5\r\n5HX//feXvOBjH/tYuZe3Na6Rx+/93u+VvL104xokXLmVf+fOnc31119f7rv55psL4fSyg3K796GH\r\nHip9ccuWLaWNkcTFjl4E0LMaoAWQZ+cOOeSQJIBLBPTgOeecU5ac0K3kjtwiXmK3a29yTceJ9nLT\r\nTTeVQTpZjRkV15MTAzmgxy0HIDfklz4hT37LT/QX+sZggh4gmwYX5JE++a3f+q3mK1/5SrNjx44i\r\nc3UfTCQS88dEEEBK5i1veUvz2c9+thCiIA8UjcXljHuNmgDywmzbtq14Iw477LBmv/32K94jR5DG\r\nOk8jzre97W2zRMQnAhgj0fmQrq5l8R3h7YdxEEDlly/CJiYsTyYljExR5k899VQhSxb6I+2UMtLE\r\nGAiPxRi4R1t++MMfLh4CxgRxYjRiuoiRuPHGG0saCODatWvLtK/8kUuGwoDANQYD8lu3bl25jyeP\r\nx42x0W7OI28MSLxFrezIODBa6pmhQW7UvzLKl2HR19zjGRk50/fivTJ6yusa1yJ50r3tttuKl9L1\r\nlikwVozfUnhjuxcBXL9+fbNixYpCmpGBwJo1a3o+cxLAxQdeb3pLfzeQ08/1aWH9yOKf/dmfFTnT\r\n/gbldAKZJd8G6uTPdQZNsXyDPiTzBnXkhDxaaiFN65vJlUEe3UEPkH1yZ/AmPfLmU/p2RCCziURi\r\neJgIAuj30UcfXQz6xRdfXAwLQ4wA+g+BqLGnKeAzzjhj5tcu1HkalSKAvFzAa3PcccfNTucNi3QN\r\nUhbrZ5YtW7bb9CECRTnCqAmgOqB8EaAwApQ2ZY/8Uc7ID1LGU2Bk/rWvfW12ZG/K1XlKmyGg4K3l\r\nZASM9rVreAekbcpJPowDY8ODZ/TPCDEySBYShgD6juAxBsrAU4CYOM9wyFtduVd/sZ5UngH3OMfQ\r\naAPlZVSkjfR4PsZNH1RuHk9lk54yMIC8FLygQQAZLh5Pz2Eq/xvf+MZMbosXvQigPuG8Z47/yBHC\r\noA+3kQRwccJAVX/Wzw2+yK0BHlnhKSdvZJVHnA4LIkhnGfAZNLrPQBB4+cgruTVYMiAk3w8++GAZ\r\nUEkfEEZy95u/+Ztl7S55I8vyoEvImQEae5BIJIaHiSCAFIuF+IGzzjqrKB3kA8E49NBDd3s5oh8B\r\nNCV53nnnzfzahXaeiMaZZ55ZFJG8KKjAsEjXoGXxjNZXMZrq4dJLL51dIzNqAggID2Wufhl3ypyX\r\nh/cMMaWoGf4vfOELRVmHJxUxQqCQSMbfd8YEuaXQPae0AzwOvAEOHjpTSDyJPAqmFRFE8JvRQPhi\r\neiiIlulfacZ5dQvyZbDqPenimjBOvBCmmORtOtp5ZTeta3pZ3buGEVMG90edMIqeSzl4TaUT5V3s\r\n6EcA29Nv6s1gLT2ASwePPvpoGcCRc4MaZA60vQGaaVwwQDRIMjNjZiNeoHKvQVXoBH3EoNFAjKw4\r\nj8QhdWZ9DLLoOksKpIkk0gMGGkil/MicWQf6JfJPJBLDwcgJYK9tUHhXKIsA75wRYhgX94RSgX7b\r\nwFAk4T2r0StPBMGI1GcN91Nk80WXsjjHE4UY1vUwrLIMC17aMP2LlMaayUFgSheRSkw+ehFAg7O2\r\np4/hJoe9FucnAVzaQNas4zPQSiQSixcjJ4D1Rsg8LjH1ivjUv4GRid/1d1MG1pQNCtciLiCNmmRB\r\n5A28PQtJutpliXwDoyxLItGGpRfzfZnFwCoJ4NJGW4cmEonFh5ETQEBqTJEaSXY93DeXadFB8kRM\r\nrd3rta5pmJiksiQSNUzLIYGWXJhC73Lw5JuqMw2YSCQSicnGWAgg8HLFnmtdjrbHrAsGyXNUmKSy\r\nJBIBnh1rbK1rtI6zy2HNmM8ctCQSicTkY2wEMJFIJBKJRCIxHiQBTCQSiUQikZgyJAFMJBKJRCKR\r\nmDKMhQCK8+htYIe3Ygc94p52nMhBsLc8nbeh8SjCeU1SWRKJNvQ7/a9X39zTod96GWQuiDz3JBOO\r\nuch+V0xSWRKJRGKhMHICaENdoYHs+i7MW9fD4nQbOUtnUAyap/3qpN1rj8FhYZLKkki0YU9Km/Dq\r\nf7365Z4O93iDXdi+LpAnmdhbnmRf7Ngust8Vk1SWRCKRWEiMnAAiNN4UnA9sVdGFGHXJ0ya4XQ1Y\r\nF0xSWRKJNuyxGXGr5wph9XptEN0P8owQgXtDV9nvikkqSyKRSCwkxkIAP/e5z838mhtE7+ileEUP\r\n6RWSq1eeNpa211l7ywrTP8MIv9alLDbNFY5MGKQawyrLQsPWIYNGBrG9zVy38pFHvw1oteff/d3f\r\nzfxKzBW9IoF0Rb9IIOLI9iKXdZ4i6LTJoyhA0e62qBkG6ZqksiQSicQ4MBYC2I4FDBTtCSecUBQz\r\n8JIZjSMMiFCNfrGABR4/9dRTZ37tQjtP63fEAF67dm2zYsWKEgsYgYBhxd8dtCw2zhULWIB110f8\r\nTRhHLGBxOLuubRKv+e677575tWeYIhRCrAuEBBR2ysbY1mCB9kI0Ityea2688cZ57ROZ6E8AySX5\r\nDJK9bdu2Msghm22S1I8AHnPMMSXkYRvyFP4R9H9xwAM2lxZTO9q1n+x3xSSVZbFB27YHq4OALn/v\r\ne9/bfOtb35o5MxxEuvRlIpEYHBNDAHnFTj755Oa6664rv4VLI9Q+zzjjjN0Mez/FKwLB8uXLZ37t\r\nQp0nZXHiiSfuVoY1a9Y0jz/+ePk+LNI1SFngggsumJ3mNfVk/VFg1AQQ8WPgvvCFL5R6YgC/8pWv\r\nlP8obRFMeCrBcwj0btH/7//+7ze33357OY8oaMu6vRBEax6///3vl+lBAeEFkOdJ+d73vtd84hOf\r\naL7+9a8XoyJoPAOMWCDqrlFfBgTqVH+IQYIBghjD7mHMN27cWPJFqpWtJrLK7Xn0G56dp59+uvns\r\nZz9b8pR2PKeyOvcnf/InpWzC8VnvFUTHPfLv54lc7OhHAG+66abmpJNOKmvj4OKLLy7r5fTx++67\r\nr5wL9COAy5YtK23WRk26EPm3vvWtpa+A9Yi33HJL+Q7DIl2TVJZJAHkn41/96lfL4Iq33bMFqTLQ\r\nIufkiyyTYfB/3APkQn35JJvS8b86lcell15aZMvaSWmRMYi8gZzJS+zxGmQ4BoBk2wwO2ZfHypUr\r\ny4s78pZu+95EIvFsTAwB3Lx5cxHuVatWFcVLOfMq3Xzzzc1BBx20m0DXipdSQVoOPfTQ5mUve1mz\r\n7777Nocffnhz5JFHFlIBdZ6UxDnnnFO+A8VDIckT5kO6upYFGFRGhgfwk5/8ZEkjMGoCiBgx7NY2\r\nId9eQtmwYUPx9GiHe+65p7nyyisLSbr88suLl5MXFUl6z3veU4iX/90T6xw9j98WzEuXB/DOO+8s\r\n7a0tEEd5IW+UPo/Lzp07i4G54YYbisdJ2tpff1Cmiy66qNSndN1z1VVXlbJt2rSp9AtlQFjCw8M4\r\nye9973tfKa+p+fPPP78YMuWK55SmwQDiKe+nnnqqtKf/Bb//2Mc+1lxzzTXFYzzfadJJRS8CqO7X\r\nrVtX6kf9ATl94oknmje+8Y2l7WrUBJBRP+KII4ocvOAFL2j233//5pBDDiltGKShJl2grcgCIJ31\r\nm8XzIV2TVJZJA88/OdK/DXKefPLJZvv27eWc9icP5PKhhx4q8uq8+nT91VdfXQZJgIzRFZbpkBky\r\ndNttt5V6pEfoOXIvbfqNLjDw9b90vGDz4IMPNlu3bi1yHwNJgw3/k3H9jn3YsWNHs379+qK/9UFy\r\nLW/6lYwmEok9YyIIIO/KAQcc0Fx77bXN61//+kISeJt4fHijKJ8ateKluHlknGOcKHjeJV4ohAb6\r\nEUDKiqKg2O+///5ybj6kq2tZXG8kS8FSrMiHKenwLo2aACqPEToivnr16jLlhVgxBkHGEAFEiCI2\r\nIkeceNMYBe1mGpbBfPTRR0uaiACvHYWO7PIAUuDIGYVNcSPf2l7d8LAggUgcA2DNVShzxgL5ZAgQ\r\nP2VQl4wAIu8846WsDEmUQTszVOpa2ogqQwQ8B/GcjJW0PD9D4jrlY/QRXv/zAsmnJglLCb0IIIP8\r\n2te+ttTdK1/5yvLs+od60f7qpUZNAHl4tNHnP//5koa6IxP6VKBNuvwnfQOLCy+8cObsDzEf0jVJ\r\nZZk0kEWkinwZ2JEjn8ixARH5QNosxaDPXEuXqkO6mhc/wCPsvEGgvmGQRd6QOJ/y0JfIPXKojhFA\r\n6dAd9IS8LPkIXUgX6FfagT6hrxFQg0Lee+kikq4zONE2iURiz5gIAnjvvfcWY87gUgCmfJ0j3Agg\r\n41ujn+LlNdrbujseKYSvLgPlQxHBsEjXIGUBRiXWxCGJSKOpExg1AQRT0BQsJY80IXQMJ4VLqfvf\r\nFKnRN7JG8XomZB0JQ76M/E3PgGfiOXAtjxvDYbr9ox/9aDEsyCRvAoVP2X/4wx8uRlh+SJz2j3WR\r\n6pTSRyZ9yotXATGUPq+fwYRP5atfwnGvPBA8RgThBG0Rz4lsus79fiOZPKKuVV7GDDG0TMGzLkX0\r\nIoC8oJ5ffUb7GuDwvBgQ8OzW2NMaQGSyjTbpAsTD2lgDoxrDIl2TVJZJQHjYeOTJHXkmV5dddlnR\r\nywZh5NjADeEis7yGBmqujcEWOP/2t7+9TBuTd3JHx5In+oInecuWLeU+RDAGkkgmgvnBD36wDCjJ\r\nXaw5JXt+k02kHclU90iqAah09Vt91LKamLZPJBL9MRYCiFzUINS8MAHGl5ExIkSCjjvuuDJqDPRT\r\nvEac9RqdQJt0MVxeAkEseYAsbkd6YFika9Cy8IZZ+8iQUpoIUGAcBND6myAARtT1Ym9tFFMyPHnh\r\npeM5jP3QkMX225XIQLSv9Ch13riY7kYWeenAef8HgWCYYnpeHu6h3H3KC2lUZnUVZZBHENCA9gii\r\nJ/3aQNTPKV3ll78+xwD63zOC/+S7VNEmgL4HWQb1zNgy4IiS9asMbrQl9COAyCPj3UYv0oloWEoR\r\nBCAwLNI1SWWZBCBOCB4ypa8bhBqoGaRpSyTNQNV3OgDhI2/kwXRvzHAAWY6pcrJpVsSAzQCLd905\r\nfYfui+vImHSkKS1t024HdR2DOvm6zn0+I11txUufSCT2jpETQKPANgHsCooCMRgUru2VJwUT3rYg\r\nIMgGr9RCoVdZKFwKMQhMYKHLMh9YfO1ZKN3FAJ5Bnosgk4PAs7WJ5FIHT5+6mg8MYnoRwH7ol2c9\r\n+Ah0lf2umKSyjBKWocQ65cUKg0EDPYOURCKxd4ycACJdphERCNN3RoDxGYffcdT/+3Qfr1N7dLgn\r\n9MvTqNbhOw+V7zwAtYdu2NhTWZTBb8coypJItGE6FwlCfKMvRj+tf9fn4rv+a7rQ1F4XWG9mOrad\r\nJxmof89F9rtiksqSSCQSC4mRE0AwtWatn9Fa18M6sno6eFBYsLy3PL3JZlQfC48XCpNUlkSihv5m\r\nalP/69Uv93RYq+mzvbn63sADPkieZJ/sLCQmqSyJRCKxkBgLAUwkEolEIpFIjA9JABOJRCKRSCSm\r\nDEkAE4lEIpFIJKYMYyOAto3w5m3Xo95uoisGyXNUmKSyJBKJRCKRmC6MnABaZG3vMGG5bPjZ9bA7\r\nvLdjpdMFg+RpL0BvMHbZKmQumKSyJBI1vAQiUobIDl50mMvRtc8Omqc9MW0yvJCYpLIkEonEQmLk\r\nBNDGokKGAWXb9QC7y0tnULgWqYJeacYB9im0AfVCYZLKkki0IQyXAYoNdm3r0uWwdYq9FkVT6QJ5\r\n2npmb3nafsXWK+1IHcPEJJUlkUgkFhIjJ4A2TjXCng/sSC+iRhs27m1vpgxd8hS+aBika5LKkkgM\r\nin4bIXfBsDaC7oVxbQTdC0tpI+hEIjF9GDkBbIdCqyH+Y4QRo1iFEOqFfiGYeBaF7mqjnaf1dUbv\r\nwq8JZ2bz2sCwwq8NWpYAr4s4mDXGEQpuoSBcE89JV4jAYKqty5S/TXvr0FSB8Kwm+qNXKDQwoBFu\r\nK8BD1o/k9QsFZwP0XjJd58lDXucj7BiiFWtihxV+bZCygL6H0Homnvt64DmssixFiLA0znXM5D/X\r\nUScSe8bEEECxIl/96lc37373u8tvwb7f9a53lXiRgpLX6Kd4rQ9cvnz5zK9daOcplqmA/qasBBkX\r\nazjW8wyLdA1aFi+DiIX8kz/5k7vFAYZJIYBd11vWCNL1zDPPFILfFTbbFYy/SxkiQHxAG+/YsaPE\r\ngE7sGf0IoPP7779/8UrDpZdeWogab/a3vvWtci7QjwAeffTR5b82pB1TqdITEzuApJ1++ukzv4ZH\r\nugYpC1x11VXNmjVrynmDuiSAP4zDu6ewcQbU4kcLLzcfsAl1zO4uuPfee+cUMCCRmCZMDAG8/fbb\r\nSySBSy65pBh7Qb0Z8g0bNjQvfelLZz2DUCteBMMLFbfccktz/PHHN6961avK9+3bt8/GhKzz5B06\r\n8cQTy/cAZYYMwnxIV9eygHt4uZDS+++/f+bsDzEOAijKAbIkBjEicPfdd5fQWEJgbd26tRBzxl1b\r\nUc4iJjCYntv/lHZAMHnkXZqU8dVXX13qw3f1vW3btuaee+4pzy8yCu+PuhFoPtZ4IhkM8N/8zd80\r\nH/jAB5pbb721hOFSPvn6VE/xn3PKaP1k4NOf/nSzevXqXLQ/APoRwI0bNzZbtmwp7Qy82wZnBx98\r\ncLN+/fpyLlATQO1GVrX54Ycf3uzcubO0rTYM1KSLx+/kk0+e9Rbz0Ot/gfmQrq5lgc2bN5fweL2w\r\nlAggj531j0jud7/73ULqrbXmfQWybIBKbg1ur7/++iK3Dz/8cGnviP6i/fQTMyx/93d/V2SPLqcr\r\n1LOXa+iIL3/5y6Vd1aH/6WBpmAmhA5QH+bYEBpHULs5LP/KRtjJF2vSMMhtU66cGgQaensdAYj4D\r\n2URiKWIiCKDppbe85S0lDuepp55avAAE3mJyQs4I1KgVL0WASDBIhx12WLPffvsVY+8I0ljn6TuS\r\nCaYIGAH3xrq8+ZCurmWpsWnTpkJcaoyaAFKU6pqBvPHGG4vyvPjii4tBRADUOzLrPK8lhc0QWPiP\r\n3KnDG264YSa1przFjExqS8/9zne+sxBHRNezfupTnyoE0SfPLwKJCN98882lDIAAIhjyZBD0CUqf\r\n0XCPcjz55JMlf2SVMWLEagIIyrVUjPVCQlu1CSCStGrVqtKHwzunj2tT3rl2v60JoGte85rXNAce\r\neGDzvOc9r3nJS17SHHDAASWdMMht0sXzb/DHkBtIfe9735v5Z36kay5l0a/e+ta3lr5n1qB+w3kp\r\nEUAyTO4QJ7LFa25QTlcaNNNPSB0d7X960zIdA3QyzuMGBrQGeabL1Q99KE19AnEkh0gkDyE51a+c\r\nl4a61PZr164t8ksfIN+u852uiPpH7ugeusT9Dtc4xwPpvPamx5BCz5ZIJHbHRBBAv03JEFKEg8fH\r\nYmzG3n8Ub41+ipcSOOOMM2Z+7UKdp5HlMcccMzs9wSsgX8oOhkW6BilLDcRr3ATQSJqiN5qmTClZ\r\nhAyUz8s3CCDlTJEzANdcc80sIeQNoHADRviUv2sZGN/d4zkdn/vc54pSp+TVCaKszU0vxkg/yIey\r\nKAMvhfy9hal+H3rooVKnDLR0EEf5KFMNnpxcsL939CKAd9xxR3PQQQc15557bvOzP/uzpS0vv/zy\r\n0k+Q83oNLdQEECEgYwZbxx57bNneyDmDvkCbdCEc559/fvH+IAo15kO65lIW/UZ/4hFDXJDSwFIj\r\ngEgbOTNwM8hC6hBAcoOEIXM8/l/4whfKtWQtZDI8hWAgZjDoWp55sugcb3/oMyTRkgz6RvramTef\r\nPkDizDjQBfIwwEMM9TU6EdQ9HUv26W9l5j2kV+gS+Ro80glnn332buVLJBI/xEQQQIJNyANnnXVW\r\nUQIULwVw6KGHzk7RQj/FS2Gdd955M792oZ0ncnnSSScVJcbTwLjxTsGwSNegZQkYSVNaNUZNAMFU\r\nLMJGsSNZ6ggYe4rW6J/RZCgpa6Nrz4S0I9F1gHztxFPAw8eoe26KnXHwpqUpW0pceoyudpGnMgSQ\r\nEdeYTpI3wxFTuZS+/3lvGCxeBOWUfvuFE6Sk7kOJ3mgTQESOVz482PbAW7lyZSHp6lo/iXW7gZoA\r\n1jDI04ZttEkXeEHrF3/xF0vfqjEs0jVoWXi+PXMvLCUCiITRwwZynskzG+wZ0NHB9CT5IltkWLub\r\ntvUyjevqF2roBINFuyC4hz4xkFO3yCJ5JdPSMbgwJawPeQmOjnHQA8pALztvQEpfxJpAA3m/2Qnl\r\nQx7pGYMGZTHVLH3EXV81u5FIJHbHyAkgRUOJ1GCskYAABUwBhLvfPbUA99sGxptfsUi9Rq88KQ2K\r\nypQk5SQ/GNbWK13KApRum7SMYxsYJIzC5h0ZFAwBMpZY/GgTQH2wJuQ8aIiTgQkjTA4NBGrPWD8C\r\naDlHrxdx2nmCASHvWxtIVy/Z74pBy8KrxDvWC8MqyySAl860aXhDkTQ618DLdx75evpb29PZjlj/\r\nF+Bhjf6gH8QUvrTivO/ulV98gjzdIw3n5QPycK6GNMIuRJ7x6XA/JwJPYiKReDZGTgCRrfAqUSox\r\n1UdY698Qiqf9HXGrt4rYG1wbhKadRxsU4UKSrl5lqctT/17osvSCduhlvBPTAbJli5f5gCe7nlbd\r\nG+Q5qHeWB2khvW6TVJZRApnqtW/pYgfPtUFLIpF4NkZOAAGpMUVqXUnXw31zmRYdJE/E1NREe0Q7\r\nbExSWRKJGgiNaTceMlNqXQ736Lum47pg0DxNCXoRwdunC4VJKksikUgsJMZCAIGXK1z1XY7aW9YV\r\ng+Q5KkxSWRKJGl6QMq1virTL4R5rPeeCQfMchXd6ksqSSCQSC4WxEcBEIpFIJBKJxHiQBDCRSCQS\r\niURiypAEMJFIJBKJRGLKMBYC6K0sbwM7vBU76BH3zOWtrr3l6bw97OxPt9CYpLIkEolEIpGYPoyc\r\nANpqwOah3qLzpl3Xw+7yNg3tsmXBoHna1kHaC7m31ySVJZFIJBKJxHRi5AQQoRG0ez4Q3qcLMeqS\r\np01gbf66UJiksiQSiUQikZhOjIUAigE7H4jr2IsAiubx5S9/eebXLvTK08bSNnxt77Nn2nUY4de6\r\nlMWWMMrS3vplWGVJJBKJRCKRqDEWAtgrFq7IASeccMJsTEleMrvyI0XttXD9YnCKVyluaRvtPK2x\r\nE2947dq1zYoVK0o8SoQQhhV/d9Cy8PIJVi7ourLYgywwjljACwXRJeZC/NWBzYWjfQaBYPV1NAvh\r\noh5//PHd6jaRSCQSiWnGxBBA5ODkk09urrvuuvJbuLT3vve95fOMM87YbQPofgRQPNrly5fP/NqF\r\nOk+E8sQTT9ytDGvWrCkEAYZFugYpCzz88MMl/ih49giTB+MggEJCIaViaiJdNrsNAi5Gc6y9jP99\r\nRvg4YZdqOB9xnn//93+/RFhAwoLMCdQewd0jPdfWG2F7Geaiiy4q3+UdcVrjRaAIOSad+A/5fvrp\r\np8t36YhtvHPnzhI4vguRTCQSiURiqWJiCKDA796AXbVqVQk6zvt39913NzfffHNz0EEH7ea9qQkg\r\nA3/eeec1hx56aPOyl72s2XfffZvDDz+8OfLII8tu/lDniVCcc8455TsgIXb1j0Dn8yFdXcvSBk/g\r\nI488MvNrPATQCyoI044dO0p7XHbZZSW4vxdTNm3a1FxzzTWFECJz6uzOO+9svva1rzUbN24s///2\r\nb//2TEpN8dxt27atBGT/6le/Wq658sory/Mj3FdccUVz7bXXlulv+Vrb6cWXBx54oPnSl75U0lAG\r\nnlp14Vr9hIfPdYL0RzmRu6uuuqqka9CAcII2cS8ievXVVycBTCQSiUTi/4+JIIAIxQEHHFAM/Otf\r\n//pCHMTL5UVj7BGSGjUBZNBNGzuHKBxxxBHFq8aj+IMf/KBc048A8jqZ/j3ppJOa+++/v5ybD+nq\r\nWpYAzxbiK7ZojVETwL/8y78sJE693HLLLcWLhqTxypmiFubrV37lV5onn3yy2b59e/G63XTTTbNE\r\nDMlF8gJiwm7durX56Ec/Wp5b/GNp3nfffc0999xTiOMHPvCB8qILz6e8kTQkL7x5yN369eubp556\r\nqnhIpYVkfvazny3XIYJPPPFEIYAPPvhg89BDD+1GAMHz6EPKkEgkEolEYkIIIGLA+PP6fPKTnyxT\r\nvs7xACKAl19++cyVP0S/KWDkZG/r7niEEL66DIjEbbfdVr4Pi3QNUhbwEsqZZ55ZiE0boyaAiNKN\r\nN95Y2gBheuaZZwoBhHe9612lPXjZ/vRP/7SQdYTL7z/4gz8onj2E3TUBdYDouRZJ9D0IoDwQXqRO\r\nnSB469atK8S/bm/rNZFj5FJZPvzhD5drv/Od75R6Q/4QU8TTf9J6//vfX8oe4IWUNk9m+6WfRCKR\r\nSCSmEWMhgO2XAXiRTNEFkJBbb721kAEk6LjjjiveokA/AujFEZ6rNtqky5Svl0AQjZUrV5aXT3iN\r\nYFika9CyIEG/8Au/UDxYPF0ITWDUBBA+9alPFcKGkCNLiBtYa4e0Rb3/4R/+YZkWNrXL27Zhw4Yy\r\nhRueTlB+bYgwehEDiZOm+udVlBdvIvAmSsv9vH4B5+MaeauPmK5HBGNNIhL6iU98olwvfQQReGXd\r\nb2pdv/N/IpFIJBLTjpETQGShTQC7wjYwDP6gcG2vPE0zBlHg/QLkwtTlQqFdlr/+678uU+BeoPDm\r\nah3lZKHL0gs8rqZlYw3eIED03JdIJBKJRGJxYOQEEOmy4P8b3/hG2SuPdyg+4/A7jvp/n+7jNYs1\r\nYoOgX56mDh2+80D67o3c2kM3bLTLIl8vQcjbp9/KN4qyJBKJRCKRmE6MnACC6VzTiaZJux5CqNXT\r\nwYPCyx97y1OYOd5F05MLiUkqSyKRSCQSienDWAhgIpFIJBKJRGJ8SAKYSCQSiUQiMWVIAphIJBKJ\r\nRCIxZUgCmEgkEolEIjFlGAsBtIec/dy80NH1cJ/7u2KQPO0jZzuThX7xYpLKkkgkEolEYvowcgL4\r\nF3/xF2UblNgCpevhPtvASGdQRJ62V+mVZhz24bPvnjBjC4VJKksikUgkEonpxMgJoI2gP//5z8/8\r\nmhuGtRF0L4x6I+g9YRwbQScSiUQikVj6GDkB7BUKLiAEmJBjIGTYX/7lX5bvbfQLBYdYij/bRjv8\r\nGgg79sADD5Q99+roG8MKv9alLJ5FHFshzGqMIxTcQkEINt7brhDqTZ0J6TYoeFDbId/qEHWJRCKR\r\nSEw7xkIAe0W3EA5t//33L9Ev4EMf+lDz3ve+t0TOQPhq9COAd999d3PyySfP/NqFdp4f+chHmpNO\r\nOqn54Ac/2Gzbtq0588wzZ+PLDot0DVoW8WxPPPHEEot42bJlJQJIYFII4KDkq9d1/+f//J/y+cwz\r\nz5T27AqbZl900UWdCOBdd93VPP300zO/fhhvWWxjIe4SiUQikUhMEAFE+G6++eZm9erV5TePGEN+\r\n4403NgcccMAsQYOaACIGX//614v38LrrrmuOPfbY5o/+6I/KixZ/+7d/W66p8xT71zXf/va3y2/4\r\n6Ec/OksY5kO6upYFXC8snPKcccYZ5frAOAjgb//2bze33HJL8xu/8RuFfCNtDz74YCmj9rn33nvL\r\ns3hR5Xvf+16JaCKO8T333FP+r4n5o48+2txxxx0lTdFbrr766mb79u3F+4robt26tfnVX/3V4uXz\r\n0guyZ83jI488Ur6DulyzZk2JmSzvHTt2FE+pgYJ8faqn+M+5++67ryw1gL//+78v5VCua665ZpaQ\r\nJhKJRCIxzZgYAnjhhReWWLgrV64sZAEpM4XKM4YY1Ya7JoAM/Omnn15I4ote9KLm+c9/fnPggQc2\r\nBx988CyZqvP0/ZJLLinfpSnkGoLjpQyYD+nqWpYamzdvbo466qjdpr1HTQC/+93vNldeeWUhX4g3\r\nr93FF19ciODGjRsLMUMOkeWbbrqpkOnrr7+++cpXvlLInbeWb7jhhpnUmkIKkTIkzXO/853vLFPu\r\n999/fyFpn/70p5s777yzeeihh5p3v/vdhUBeccUV5TPC/SGA69evL2W56qqrCmE0OODFfde73lXK\r\n8cUvfrHkr784bzARBBAQVsRTXolEIpFIJCaEAPIIvfKVr2xWrFjRvO51rysk4+Mf/3gx9tYLIiM1\r\n2lPADDzvG0JwyimnFGJnXV9soVLnyfNkyjVgrd6ll15a3syF+ZKuLmUBa9XiPySIVywwagKoLKZK\r\neSWVA9FDyMB5L9+YMkeuED2fvGrI2ZYtWwoB9Bn49V//9eZ973tfuRZJ9N1LMMgfEsjbx0PoUzvz\r\n/mpzg4Ag/IjzqlWrSlmQ08985jMlX+v8DAw+9alPlTpFDv2nL8lHmYDn0CACqUViwxObSCQSicQ0\r\nYyIIIIKALICpUARt586dZQqYd8daung5BPqtATRdOci6O0TAFC2Po+nEE044obn99tvLf8MiXYOW\r\nxXPz/n3rW98qRJR3KzBqAgimdLUHsoVk8aYBDynyx8OGsHo7mUePp9YzrV27tnjY6ilsHsPbbrut\r\nEDPEG8nzIgiiyNPpP1O30rM9Dk+hPE0vB3gfXfN3f/d3pa5uvfXWQvIA0VNvCLcXevynnNKXTkB6\r\niKl+k0gkEolEYkwEsP0WMJJjPVnANKE1YbxGiB/Dbg1agCdKOm0gBm1yCe08TdUiaKYWeY68JBBb\r\n03gZZRika9CyeD5Eyjo33i9kJjCssnQBQsfjGsRvEPAYmu5NJBKJRCKxODAWAojgzQe/+7u/29MD\r\n2A/y9CLCIOCJ8gLEQmGSytILCGhOkyYSiUQisbQxcgJoTRaPl6lG67e6HqbzeOykMygGzdNLCdKe\r\nS6i5QTFJZUkkEolEIjGdGDkBBB4ma+/meszFQ2WqtVda9WEqs94eZqEwSWVJJBKJRCIxfRgLAUwk\r\nEolEIpFIjA9JABOJRCKRSCSmDEkAE4lEIpFIJKYMSQATiUQikUgkpgxJABOJRCKRSCSmDEkAE4lE\r\nIpFIJKYMSQATiUQikUgkpgxJABOJRCKRSCSmDEkAE4lEIpFIJKYMSQATiUQikUgkpgxJABOJRCKR\r\nSCSmDEkAE4lEIpFIJKYMSQATiUQikUgkpgxJABOJRCKRSCSmDEkAE4lEIpFIJKYMSQATiUQikUgk\r\npgxJABOJRCKRSCSmDEkAE4lEIpFIJKYMSQATiUQikUgkpgxJABOJRCKRSCSmDEkAE4lEIpFIJKYM\r\nSQATiUQikUgkpgxJABOJRCKRSCSmDEkAE4lEIpFIJKYKTfP/A3rBvnjoJ2A3AAAAAElFTkSuQmCC\r\n",
    "RulerGuidesX" : [],
    "RulerGuidesY" : [],
    "RulerShowing" : false,
    "Title" : "Shortcut keys",
    "audioNarrationNotes" : "",
    "calloutStyle" : "Basic"
  }
}
